<?xml version="1.0"?>
<svg height="360.0" version="1.1" viewBox="0 0 1080.0 360.0" width="1080.0" xmlns:xlink="http://www.w3.org/1999/xlink" xmlns="http://www.w3.org/2000/svg">
<g>
<g>
<g>
<text dominant-baseline="hanging" dx="18.0" dy="54.0" fill="#0000aa" font-size="18.0" font-style="italic" stroke-width="0.36" stroke="#000f" text-anchor="beginning" text="Singular Vec 1" x="65.75" y="21.63">Singular Vec 1</text>
</g>
<g>
<text dominant-baseline="hanging" dx="18.0" dy="78.0" fill="#aa0000" font-size="18.0" font-style="italic" stroke-width="0.36" stroke="#000f" text-anchor="beginning" text="Singular Vec 2" x="65.75" y="21.63">Singular Vec 2</text>
</g>
<polyline fill="none" points="64.80,331.78 66.10,328.36 67.41,334.96 68.71,335.50 70.01,292.42 71.32,292.09 72.62,318.92 73.93,326.53 75.23,334.35 76.53,331.76 77.84,321.06 79.14,333.83 80.44,331.08 81.75,336.94 83.05,337.35 84.36,336.80 85.66,337.44 86.96,338.33 88.27,338.28 89.57,338.21 90.87,338.33 92.18,338.19 93.48,326.08 94.79,321.53 96.09,329.29 97.39,313.35 98.70,330.67 100.00,328.72 101.30,310.49 102.61,329.74 103.91,336.81 105.21,336.69 106.52,336.28 107.82,338.09 109.13,337.18 110.43,338.00 111.73,338.02 113.04,337.96 114.34,338.27 115.64,338.24 116.95,338.14 118.25,336.80 119.56,335.69 120.86,337.01 122.16,336.94 123.47,332.93 124.77,335.78 126.07,338.18 127.38,336.26 128.68,336.93 129.99,335.74 131.29,308.18 132.59,331.03 133.90,325.86 135.20,316.46 136.50,331.81 137.81,335.47 139.11,330.03 140.41,336.86 141.72,321.92 143.02,327.04 144.33,334.04 145.63,326.08 146.93,330.47 148.24,310.92 149.54,295.06 150.84,240.01 152.15,307.24 153.45,324.84 154.76,295.34 156.06,312.50 157.36,330.67 158.67,318.86 159.97,322.44 161.27,305.42 162.58,275.11 163.88,318.87 165.19,314.24 166.49,298.35 167.79,295.59 169.10,266.06 170.40,209.37 171.70,227.35 173.01,177.99 174.31,124.77 175.61,244.94 176.92,50.40 178.22,195.61 179.53,248.09 180.83,314.40 182.13,321.90 183.44,326.88 184.74,335.63 186.04,326.75 187.35,330.42 188.65,326.73 189.96,333.82 191.26,337.48 192.56,333.35 193.87,334.58 195.17,330.88 196.47,333.70 197.78,331.73 199.08,333.44 200.39,332.47 201.69,334.82 202.99,323.09 204.30,327.51 205.60,323.50 206.90,333.03 208.21,333.39 209.51,325.26 210.81,329.51 212.12,325.81 213.42,334.23 214.73,330.53 216.03,335.36 217.33,305.53 218.64,308.19 219.94,297.87 221.24,318.40 222.55,333.36 223.85,316.99 225.16,315.10 226.46,322.23 227.76,307.45 229.07,295.27 230.37,302.18 231.67,309.23 232.98,322.05 234.28,328.93 235.59,327.61 236.89,333.45 238.19,325.20 239.50,329.64 240.80,318.82 242.10,300.16 243.41,278.06 244.71,299.47 246.01,320.91 247.32,323.99 248.62,333.15 249.93,322.27 251.23,326.04 252.53,314.40 253.84,328.25 255.14,334.05 256.44,331.77 257.75,322.94 259.05,280.27 260.36,285.06 261.66,269.33 262.96,303.88 264.27,322.08 265.57,329.84 266.87,311.65 268.18,318.19 269.48,299.79 270.79,301.60 272.09,308.61 273.39,266.20 274.70,280.96 276.00,299.80 277.30,292.58 278.61,319.51 279.91,300.63 281.21,331.20 282.52,314.37 283.82,285.48 285.13,285.93 286.43,331.68 287.73,332.85 289.04,330.42 290.34,335.59 291.64,336.32 292.95,332.50 294.25,322.37 295.56,324.24 296.86,319.12 298.16,293.53 299.47,312.27 300.77,248.15 302.07,254.20 303.38,273.46 304.68,326.84 305.99,331.42 307.29,331.29 308.59,335.92 309.90,334.94 311.20,309.71 312.50,311.83 313.81,319.23 315.11,311.34 316.41,291.24 317.72,273.10 319.02,273.58 320.33,314.80 321.63,333.20 322.93,336.14 324.24,335.37 325.54,331.24 326.84,313.53 328.15,262.40 329.45,276.51 330.76,285.29 332.06,302.88 333.36,281.55 334.67,292.74 335.97,260.64 337.27,268.47 338.58,295.49 339.88,293.81 341.19,326.43 342.49,324.82 343.79,320.74 345.10,338.27 346.40,336.90 347.70,335.34 349.01,335.12 350.31,325.81 351.61,321.06 352.92,282.10 354.22,289.45 355.53,312.78 356.83,305.40 358.13,263.96 359.44,313.59 360.74,299.56 362.04,305.35 363.35,305.16 364.65,293.94 365.96,306.94 367.26,323.54 368.56,300.75 369.87,302.34 371.17,205.43 372.47,159.80 373.78,235.18 375.08,202.44 376.39,218.46 377.69,287.87 378.99,326.05 380.30,327.12 381.60,324.22 382.90,323.37 384.21,305.34 385.51,322.78 386.81,334.85 388.12,327.11 389.42,327.49 390.73,314.11 392.03,300.26 393.33,216.05 394.64,178.50 395.94,319.99 397.24,322.48 398.55,324.69 399.85,329.89 401.16,331.47 402.46,321.92 403.76,289.07 405.07,249.03 406.37,288.65 407.67,296.88 408.98,317.24 410.28,284.72 411.59,308.30 412.89,312.26 414.19,313.00 415.50,294.84 416.80,321.10 418.10,329.12 419.41,327.69 420.71,324.48 422.01,291.89 423.32,301.93 424.62,296.18 425.93,299.58 427.23,331.19 428.53,331.11 429.84,314.31 431.14,332.23 432.44,315.77 433.75,282.57 435.05,311.85 436.36,331.21 437.66,323.60 438.96,332.21 440.27,325.22 441.57,316.31 442.87,314.12 444.18,289.11 445.48,297.98 446.79,283.88 448.09,307.61 449.39,312.74 450.70,328.29 452.00,282.29 453.30,282.00 454.61,316.45 455.91,318.60 457.21,317.89 458.52,314.81 459.82,324.43 461.13,332.35 462.43,325.51 463.73,330.87 465.04,318.92 466.34,308.14 467.64,299.86 468.95,327.22 470.25,334.47 471.56,337.27 472.86,335.77 474.16,298.78 475.47,309.97 476.77,277.29 478.07,296.91 479.38,329.13 480.68,335.22 481.99,326.56 483.29,328.06 484.59,330.80 485.90,300.49 487.20,294.37 488.50,274.12 489.81,260.49 491.11,314.57 492.41,330.52 493.72,334.37 495.02,326.17 496.33,335.94 497.63,336.33 498.93,336.59 500.24,323.02 501.54,335.69 502.84,318.19 504.15,301.05 505.45,327.25 506.76,335.61 508.06,335.63 509.36,308.09 510.67,300.71 511.97,329.68 513.27,327.22 514.58,325.83 515.88,337.11 517.19,336.16 518.49,299.55 519.79,297.83 521.10,335.23 522.40,336.66 523.70,336.26 525.01,337.74 526.31,331.51 527.61,325.38 528.92,326.70 530.22,327.23 531.53,337.08 532.83,337.32 534.13,334.68 535.44,337.41 536.74,334.50 538.04,335.30 539.35,270.51 540.65,189.89 541.96,230.62 543.26,316.31 544.56,337.01 545.87,337.83 547.17,336.30 548.47,337.31 549.78,336.14 551.08,335.23 552.39,333.92 553.69,327.02 554.99,311.60 556.30,325.99 557.60,274.68 558.90,306.61 560.21,323.52 561.51,325.49 562.81,293.87 564.12,286.84 565.42,267.34 566.73,299.80 568.03,334.24 569.33,336.60 570.64,336.34 571.94,336.15 573.24,336.85 574.55,336.53 575.85,332.53 577.16,325.38 578.46,261.35 579.76,304.30 581.07,328.39 582.37,312.07 583.67,323.43 584.98,333.48 586.28,335.64 587.59,337.83 588.89,338.35 590.19,337.22 591.50,336.57 592.80,337.96 594.10,337.78 595.41,330.83 596.71,335.03 598.01,336.91 599.32,335.98 600.62,336.47 601.93,288.63 603.23,226.28 604.53,267.17 605.84,333.63 607.14,337.25 608.44,330.63 609.75,334.83 611.05,329.86 612.36,332.65 613.66,333.46 614.96,302.48 616.27,295.37 617.57,316.21 618.87,306.95 620.18,313.61 621.48,301.44 622.79,300.26 624.09,319.09 625.39,284.96 626.70,283.73 628.00,315.31 629.30,332.93 630.61,325.60 631.91,330.80 633.21,334.33 634.52,329.19 635.82,335.77 637.13,337.43 638.43,322.11 639.73,333.22 641.04,333.13 642.34,334.30 643.64,336.74 644.95,337.31 646.25,337.94 647.56,335.19 648.86,333.63 650.16,308.75 651.47,307.76 652.77,324.45 654.07,319.44 655.38,322.10 656.68,303.48 657.99,310.74 659.29,315.95 660.59,297.09 661.90,300.36 663.20,299.77 664.50,299.81 665.81,315.92 667.11,332.06 668.41,326.57 669.72,313.59 671.02,296.14 672.33,308.88 673.63,320.99 674.93,295.61 676.24,290.04 677.54,294.15 678.84,322.30 680.15,279.86 681.45,306.38 682.76,282.46 684.06,326.97 685.36,321.78 686.67,324.60 687.97,327.77 689.27,326.77 690.58,312.76 691.88,311.17 693.19,319.52 694.49,317.84 695.79,334.01 697.10,322.85 698.40,309.22 699.70,303.53 701.01,305.07 702.31,303.35 703.61,292.37 704.92,312.33 706.22,318.59 707.53,330.30 708.83,335.06 710.13,331.67 711.44,326.70 712.74,330.16 714.04,329.74 715.35,310.48 716.65,295.08 717.96,311.70 719.26,328.58 720.56,333.13 721.87,335.82 723.17,336.74 724.47,326.47 725.78,307.40 727.08,291.44 728.39,259.79 729.69,256.69 730.99,246.87 732.30,259.97 733.60,298.52 734.90,324.11 736.21,322.14 737.51,281.05 738.81,282.99 740.12,286.47 741.42,215.41 742.73,222.96 744.03,235.36 745.33,268.52 746.64,311.99 747.94,326.98 749.24,320.86 750.55,329.41 751.85,334.67 753.16,338.22 754.46,338.06 755.76,337.28 757.07,313.44 758.37,321.00 759.67,334.77 760.98,337.24 762.28,336.25 763.59,337.93 764.89,332.50 766.19,332.85 767.50,334.21 768.80,331.10 770.10,321.94 771.41,328.13 772.71,331.41 774.01,288.53 775.32,301.61 776.62,313.58 777.93,313.71 779.23,217.64 780.53,231.52 781.84,289.43 783.14,277.23 784.44,237.74 785.75,254.55 787.05,284.51 788.36,258.77 789.66,297.80 790.96,253.58 792.27,283.92 793.57,302.92 794.87,329.64 796.18,331.89 797.48,316.01 798.79,278.05 800.09,297.04 801.39,324.94 802.70,335.96 804.00,336.39 805.30,333.23 806.61,286.62 807.91,327.50 809.21,313.62 810.52,295.16 811.82,284.27 813.13,323.11 814.43,328.52 815.73,330.31 817.04,323.94 818.34,328.44 819.64,336.29 820.95,334.88 822.25,338.07 823.56,332.41 824.86,328.32 826.16,328.75 827.47,328.95 828.77,336.59 830.07,336.32 831.38,326.45 832.68,331.93 833.99,332.71 835.29,334.46 836.59,317.76 837.90,274.59 839.20,273.48 840.50,299.05 841.81,299.08 843.11,233.90 844.41,272.02 845.72,268.42 847.02,262.68 848.33,312.33 849.63,276.65 850.93,222.44 852.24,229.66 853.54,318.84 854.84,321.74 856.15,322.66 857.45,283.24 858.76,310.74 860.06,333.51 861.36,319.38 862.67,235.30 863.97,262.53 865.27,310.77 866.58,313.43 867.88,333.82 869.19,302.60 870.49,297.31 871.79,281.72 873.10,249.38 874.40,283.21 875.70,293.19 877.01,285.19 878.31,314.67 879.61,328.53 880.92,322.05 882.22,313.48 883.53,311.27 884.83,323.82 886.13,319.00 887.44,304.69 888.74,300.88 890.04,252.19 891.35,272.78 892.65,293.34 893.96,322.26 895.26,321.41 896.56,317.49 897.87,333.50 899.17,332.74 900.47,310.52 901.78,321.19 903.08,314.40 904.39,299.58 905.69,318.67 906.99,316.81 908.30,327.27 909.60,297.19 910.90,322.26 912.21,310.26 913.51,282.17 914.81,303.00 916.12,311.03 917.42,290.42 918.73,307.92 920.03,331.19 921.33,316.71 922.64,318.32 923.94,287.62 925.24,271.14 926.55,263.14 927.85,314.57 929.16,325.77 930.46,336.38 931.76,338.31 933.07,330.03 934.37,323.32 935.67,266.44 936.98,321.15 938.28,301.62 939.59,307.54 940.89,294.55 942.19,310.24 943.50,325.79 944.80,333.35 946.10,328.66 947.41,323.63 948.71,324.42 950.01,265.71 951.32,290.92 952.62,336.84 953.93,337.90 955.23,335.86 956.53,324.75 957.84,325.34 959.14,303.31 960.44,289.95 961.75,291.37 963.05,295.34 964.36,323.07 965.66,317.60 966.96,262.73 968.27,251.84 969.57,233.67 970.87,263.74 972.18,270.46 973.48,296.41 974.79,307.17 976.09,276.81 977.39,322.57 978.70,333.53 980.00,337.93 981.30,336.75 982.61,337.79 983.91,336.89 985.21,336.20 986.52,324.96 987.82,301.44 989.13,301.69 990.43,323.46 991.73,331.35 993.04,235.59 994.34,304.64 995.64,323.18 996.95,333.90 998.25,332.77 999.56,329.52 1000.86,328.11 1002.16,304.32 1003.47,297.19 1004.77,313.65 1006.07,318.70 1007.38,336.87 1008.68,337.20 1009.99,337.47 1011.29,338.14 1012.59,317.11 1013.90,296.38 1015.20,305.92" stroke-width="7" stroke="#0000aa" />
<g stroke="#0000aa">
<line x1="64.80" x2="64.80" y1="338.40" y2="348.40" />
<line x1="540.65" x2="540.65" y1="338.40" y2="348.40" />
<g fill="black" font-family="Arial, sans-serif" font-size="18.0" stroke="none" text-anchor="start" transform="translate(9.0 0.0)">
<text x="64.80" y="358.97">2011</text>
<text x="540.65" y="358.97">2012</text>
</g>
<line x1="64.80" x2="1015.20" y1="338.40" y2="338.40" />
</g>
<g stroke="#0000aa">
<line x1="64.80" x2="52.80" y1="338.40" y2="338.40" />
<line x1="64.80" x2="52.80" y1="227.62" y2="227.62" />
<line x1="64.80" x2="52.80" y1="116.84" y2="116.84" />
<g fill="#0000aa" font-family="Arial, sans-serif" font-size="18.0" stroke="none" text-anchor="end">
<text x="55.80" y="329.40">0.0</text>
<text x="55.80" y="218.62">0.1</text>
<text x="55.80" y="107.84">0.2</text>
</g>
<line x1="64.80" x2="64.80" y1="338.40" y2="21.60" />
</g>
</g>
<g>
<polyline fill="none" points="64.80,132.32 66.10,122.11 67.41,127.07 68.71,129.22 70.01,176.95 71.32,180.30 72.62,135.65 73.93,143.12 75.23,128.02 76.53,127.27 77.84,122.44 79.14,131.32 80.44,127.64 81.75,128.28 83.05,128.15 84.36,128.36 85.66,129.58 86.96,128.25 88.27,128.23 89.57,128.25 90.87,128.23 92.18,128.48 93.48,146.26 94.79,149.11 96.09,138.50 97.39,139.66 98.70,127.52 100.00,139.34 101.30,144.31 102.61,138.36 103.91,128.90 105.21,131.46 106.52,129.69 107.82,128.23 109.13,128.96 110.43,128.28 111.73,128.17 113.04,128.48 114.34,128.33 115.64,128.21 116.95,128.13 118.25,127.62 119.56,127.23 120.86,127.49 122.16,127.53 123.47,125.02 124.77,125.50 126.07,127.96 127.38,126.16 128.68,127.81 129.99,128.24 131.29,128.22 132.59,126.06 133.90,127.92 135.20,120.74 136.50,121.04 137.81,127.10 139.11,119.59 140.41,126.68 141.72,121.53 143.02,124.88 144.33,122.45 145.63,131.78 146.93,124.87 148.24,134.20 149.54,111.64 150.84,88.60 152.15,120.83 153.45,127.86 154.76,132.42 156.06,131.59 157.36,125.38 158.67,119.48 159.97,118.30 161.27,135.30 162.58,199.92 163.88,139.43 165.19,135.74 166.49,115.00 167.79,115.31 169.10,134.31 170.40,167.14 171.70,260.04 173.01,312.00 174.31,277.57 175.61,221.33 176.92,282.94 178.22,177.71 179.53,214.80 180.83,168.37 182.13,148.27 183.44,137.01 184.74,127.77 186.04,118.65 187.35,130.37 188.65,127.84 189.96,124.82 191.26,127.86 192.56,120.51 193.87,126.08 195.17,122.83 196.47,124.01 197.78,125.03 199.08,125.76 200.39,127.19 201.69,126.04 202.99,124.54 204.30,127.57 205.60,124.46 206.90,125.10 208.21,125.41 209.51,120.14 210.81,122.30 212.12,129.31 213.42,129.19 214.73,120.43 216.03,126.63 217.33,106.36 218.64,117.15 219.94,94.75 221.24,135.75 222.55,127.74 223.85,123.31 225.16,129.55 226.46,124.69 227.76,111.56 229.07,95.05 230.37,97.05 231.67,114.62 232.98,121.89 234.28,129.05 235.59,127.62 236.89,123.96 238.19,124.81 239.50,129.08 240.80,127.03 242.10,125.31 243.41,140.88 244.71,127.86 246.01,137.21 247.32,136.08 248.62,129.37 249.93,109.64 251.23,118.78 252.53,108.13 253.84,127.78 255.14,128.94 256.44,119.46 257.75,133.80 259.05,107.15 260.36,117.09 261.66,94.35 262.96,111.93 264.27,122.81 265.57,123.65 266.87,130.32 268.18,132.22 269.48,117.63 270.79,103.10 272.09,114.23 273.39,114.27 274.70,116.07 276.00,111.11 277.30,102.78 278.61,116.77 279.91,107.93 281.21,127.46 282.52,121.47 283.82,97.72 285.13,78.08 286.43,121.57 287.73,124.34 289.04,124.63 290.34,129.87 291.64,127.02 292.95,126.34 294.25,122.60 295.56,120.85 296.86,127.87 298.16,117.20 299.47,132.79 300.77,97.01 302.07,131.31 303.38,83.62 304.68,118.83 305.99,122.54 307.29,139.36 308.59,128.52 309.90,122.95 311.20,86.60 312.50,103.88 313.81,127.68 315.11,108.72 316.41,101.52 317.72,83.71 319.02,66.97 320.33,117.34 321.63,121.32 322.93,125.56 324.24,126.39 325.54,122.37 326.84,107.64 328.15,100.68 329.45,89.88 330.76,109.89 332.06,128.26 333.36,106.20 334.67,82.47 335.97,113.82 337.27,81.15 338.58,103.89 339.88,83.50 341.19,129.87 342.49,131.31 343.79,118.53 345.10,128.03 346.40,131.22 347.70,126.25 349.01,123.89 350.31,117.85 351.61,132.88 352.92,106.92 354.22,114.59 355.53,144.87 356.83,132.77 358.13,83.75 359.44,126.71 360.74,140.84 362.04,112.75 363.35,122.35 364.65,127.66 365.96,126.40 367.26,141.35 368.56,137.71 369.87,130.26 371.17,88.82 372.47,50.58 373.78,72.68 375.08,76.91 376.39,92.67 377.69,92.58 378.99,118.62 380.30,120.53 381.60,108.83 382.90,107.35 384.21,109.00 385.51,116.98 386.81,127.57 388.12,124.31 389.42,126.83 390.73,113.45 392.03,98.83 393.33,87.77 394.64,99.44 395.94,120.11 397.24,134.20 398.55,119.55 399.85,129.53 401.16,122.84 402.46,105.32 403.76,81.59 405.07,57.69 406.37,96.39 407.67,132.37 408.98,111.69 410.28,103.60 411.59,125.88 412.89,125.46 414.19,119.27 415.50,106.83 416.80,131.01 418.10,127.00 419.41,129.19 420.71,123.91 422.01,95.33 423.32,110.80 424.62,117.62 425.93,118.89 427.23,125.42 428.53,128.32 429.84,119.61 431.14,128.37 432.44,130.26 433.75,94.18 435.05,117.17 436.36,126.70 437.66,109.19 438.96,127.17 440.27,122.44 441.57,112.61 442.87,136.67 444.18,179.36 445.48,120.23 446.79,169.52 448.09,159.59 449.39,138.53 450.70,124.81 452.00,164.78 453.30,203.92 454.61,138.55 455.91,134.26 457.21,144.26 458.52,134.69 459.82,134.48 461.13,126.00 462.43,122.77 463.73,126.00 465.04,122.00 466.34,116.56 467.64,113.53 468.95,126.41 470.25,131.67 471.56,129.03 472.86,126.66 474.16,128.13 475.47,145.99 476.77,160.97 478.07,175.67 479.38,135.50 480.68,128.80 481.99,130.20 483.29,125.09 484.59,133.94 485.90,160.82 487.20,164.69 488.50,191.01 489.81,193.28 491.11,142.19 492.41,140.80 493.72,129.23 495.02,124.68 496.33,127.21 497.63,127.25 498.93,127.35 500.24,123.71 501.54,127.73 502.84,140.52 504.15,143.93 505.45,133.39 506.76,129.17 508.06,129.55 509.36,159.08 510.67,164.27 511.97,137.03 513.27,127.38 514.58,131.46 515.88,127.71 517.19,127.35 518.49,176.17 519.79,170.71 521.10,131.39 522.40,127.80 523.70,127.48 525.01,128.05 526.31,130.70 527.61,130.56 528.92,128.88 530.22,135.74 531.53,129.15 532.83,128.46 534.13,126.77 535.44,128.07 536.74,132.37 538.04,129.54 539.35,201.75 540.65,233.45 541.96,222.36 543.26,151.56 544.56,129.14 545.87,128.16 547.17,124.53 548.47,129.89 549.78,129.09 551.08,129.93 552.39,131.51 553.69,131.45 554.99,138.49 556.30,137.66 557.60,224.35 558.90,179.11 560.21,143.21 561.51,138.97 562.81,116.00 564.12,129.19 565.42,95.20 566.73,110.90 568.03,126.22 569.33,127.46 570.64,127.59 571.94,130.13 573.24,127.24 574.55,128.84 575.85,130.98 577.16,131.53 578.46,187.06 579.76,133.58 581.07,128.86 582.37,116.80 583.67,120.23 584.98,122.64 586.28,123.95 587.59,127.85 588.89,128.12 590.19,127.85 591.50,125.31 592.80,128.18 594.10,128.21 595.41,123.69 596.71,126.23 598.01,126.67 599.32,126.98 600.62,128.04 601.93,116.89 603.23,109.56 604.53,124.52 605.84,127.48 607.14,127.75 608.44,123.72 609.75,127.09 611.05,123.33 612.36,125.25 613.66,127.52 614.96,110.58 616.27,115.63 617.57,113.88 618.87,116.14 620.18,123.96 621.48,143.01 622.79,119.40 624.09,121.58 625.39,103.81 626.70,114.49 628.00,121.44 629.30,125.98 630.61,121.30 631.91,124.11 633.21,128.98 634.52,119.75 635.82,126.67 637.13,127.95 638.43,132.85 639.73,130.62 641.04,131.14 642.34,130.81 643.64,130.42 644.95,130.03 646.25,128.59 647.56,131.31 648.86,129.56 650.16,136.08 651.47,125.19 652.77,123.07 654.07,122.64 655.38,123.64 656.68,171.33 657.99,169.87 659.29,139.35 660.59,117.81 661.90,116.80 663.20,141.39 664.50,108.35 665.81,116.99 667.11,125.37 668.41,123.92 669.72,132.72 671.02,114.39 672.33,118.05 673.63,125.20 674.93,120.31 676.24,119.45 677.54,108.72 678.84,126.16 680.15,132.87 681.45,127.94 682.76,107.82 684.06,123.83 685.36,128.46 686.67,129.84 687.97,129.02 689.27,126.30 690.58,124.24 691.88,120.59 693.19,125.02 694.49,132.52 695.79,130.86 697.10,122.07 698.40,120.12 699.70,101.61 701.01,104.58 702.31,108.02 703.61,104.24 704.92,103.53 706.22,123.59 707.53,128.46 708.83,127.16 710.13,135.13 711.44,119.43 712.74,120.45 714.04,124.48 715.35,110.07 716.65,109.93 717.96,130.00 719.26,126.47 720.56,123.43 721.87,127.93 723.17,127.58 724.47,122.55 725.78,108.53 727.08,94.41 728.39,106.33 729.69,96.10 730.99,99.58 732.30,77.89 733.60,79.29 734.90,120.97 736.21,118.46 737.51,48.00 738.81,87.97 740.12,80.05 741.42,63.20 742.73,93.19 744.03,96.66 745.33,117.28 746.64,124.59 747.94,126.31 749.24,129.27 750.55,119.05 751.85,122.95 753.16,128.05 754.46,128.40 755.76,127.10 757.07,102.86 758.37,105.54 759.67,126.27 760.98,128.57 762.28,125.82 763.59,128.06 764.89,126.71 766.19,127.45 767.50,129.06 768.80,121.95 770.10,104.54 771.41,114.32 772.71,120.31 774.01,80.43 775.32,96.86 776.62,130.63 777.93,119.65 779.23,104.77 780.53,53.37 781.84,116.99 783.14,110.45 784.44,112.38 785.75,80.02 787.05,100.17 788.36,93.36 789.66,130.21 790.96,66.36 792.27,86.64 793.57,124.98 794.87,123.60 796.18,125.73 797.48,108.99 798.79,69.48 800.09,104.37 801.39,113.47 802.70,129.67 804.00,128.39 805.30,127.48 806.61,106.57 807.91,124.85 809.21,102.80 810.52,81.98 811.82,120.39 813.13,123.85 814.43,121.76 815.73,124.09 817.04,121.14 818.34,123.22 819.64,128.06 820.95,125.93 822.25,127.79 823.56,123.38 824.86,116.41 826.16,120.16 827.47,121.01 828.77,128.10 830.07,126.57 831.38,118.94 832.68,120.37 833.99,120.82 835.29,123.01 836.59,132.68 837.90,102.53 839.20,107.39 840.50,120.08 841.81,124.69 843.11,55.24 844.41,75.91 845.72,129.01 847.02,104.26 848.33,119.59 849.63,92.49 850.93,103.95 852.24,60.49 853.54,106.87 854.84,105.30 856.15,105.95 857.45,66.17 858.76,103.12 860.06,131.63 861.36,117.30 862.67,63.76 863.97,76.52 865.27,115.58 866.58,127.70 867.88,131.40 869.19,123.28 870.49,103.58 871.79,104.11 873.10,82.76 874.40,107.18 875.70,112.79 877.01,112.47 878.31,121.63 879.61,125.03 880.92,120.11 882.22,119.03 883.53,117.67 884.83,116.43 886.13,119.77 887.44,120.42 888.74,117.04 890.04,105.29 891.35,110.50 892.65,105.05 893.96,114.27 895.26,118.47 896.56,125.29 897.87,127.43 899.17,129.79 900.47,114.33 901.78,120.53 903.08,113.24 904.39,118.54 905.69,120.63 906.99,125.77 908.30,133.07 909.60,109.60 910.90,120.41 912.21,119.85 913.51,111.13 914.81,148.17 916.12,121.99 917.42,110.67 918.73,140.53 920.03,130.95 921.33,135.70 922.64,131.56 923.94,184.54 925.24,170.50 926.55,196.00 927.85,128.24 929.16,121.67 930.46,126.47 931.76,128.07 933.07,123.92 934.37,119.80 935.67,108.50 936.98,130.54 938.28,139.07 939.59,125.33 940.89,115.75 942.19,121.24 943.50,122.04 944.80,124.27 946.10,127.10 947.41,124.39 948.71,117.01 950.01,171.01 951.32,128.34 952.62,128.08 953.93,128.15 955.23,128.16 956.53,124.41 957.84,136.03 959.14,141.04 960.44,138.72 961.75,131.61 963.05,156.38 964.36,125.54 965.66,124.31 966.96,125.94 968.27,197.42 969.57,248.48 970.87,202.00 972.18,179.42 973.48,170.78 974.79,144.31 976.09,135.20 977.39,121.15 978.70,125.12 980.00,128.44 981.30,127.42 982.61,127.89 983.91,127.35 985.21,126.76 986.52,130.96 987.82,126.72 989.13,117.45 990.43,122.15 991.73,133.44 993.04,262.53 994.34,136.42 995.64,131.15 996.95,128.14 998.25,128.44 999.56,130.95 1000.86,135.20 1002.16,161.42 1003.47,162.33 1004.77,156.56 1006.07,147.41 1007.38,128.41 1008.68,127.74 1009.99,128.02 1011.29,128.43 1012.59,152.28 1013.90,135.63 1015.20,138.67" stroke-width="7" stroke="#aa0000" />
<g stroke="#aa0000">
<line x1="64.80" x2="64.80" y1="21.60" y2="21.60" />
<line x1="540.65" x2="540.65" y1="21.60" y2="21.60" />
<g fill="#aa0000" font-family="Arial, sans-serif" font-size="18.0" stroke="none" text-anchor="start" transform="translate(9.0 0.0)">
<text x="64.80" y="15.34">2011</text>
<text x="540.65" y="15.34">2012</text>
</g>
<line x1="64.80" x2="1015.20" y1="21.60" y2="21.60" />
</g>
<g stroke="#aa0000">
<line x1="1015.20" x2="1027.20" y1="332.43" y2="332.43" />
<line x1="1015.20" x2="1027.20" y1="264.33" y2="264.33" />
<line x1="1015.20" x2="1027.20" y1="196.23" y2="196.23" />
<line x1="1015.20" x2="1027.20" y1="128.13" y2="128.13" />
<line x1="1015.20" x2="1027.20" y1="60.03" y2="60.03" />
<g fill="#aa0000" font-family="Arial, sans-serif" font-size="18.0" stroke="none" text-anchor="beginning">
<text x="1024.20" y="323.43">-0.3</text>
<text x="1024.20" y="255.33">-0.2</text>
<text x="1024.20" y="187.23">-0.1</text>
<text x="1024.20" y="119.13">-0.0</text>
<text x="1024.20" y="51.03">0.1</text>
</g>
<line x1="1015.20" x2="1015.20" y1="338.40" y2="21.60" />
</g>
</g>
</g>
</svg>