<?xml version="1.0"?>
<svg height="360.0" version="1.1" viewBox="0 0 1080.0 360.0" width="1080.0" xmlns:xlink="http://www.w3.org/1999/xlink" xmlns="http://www.w3.org/2000/svg">
<g>
<g>
<text dominant-baseline="hanging" dx="45.0" dy="135.0" fill="black" font-size="45.0" font-style="italic" stroke-width="0.9" stroke="#000f" text-anchor="beginning" x="108.86" y="36.03">
</text>
</g>
<g>
<text dominant-baseline="hanging" dx="45.0" dy="195.0" fill="#0000aa" font-size="45.0" font-style="italic" stroke-width="0.9" stroke="#000f" text-anchor="beginning" text="~~~   SV1" x="108.86" y="36.03">~~~   SV1</text>
</g>
<g>
<text dominant-baseline="hanging" dx="45.0" dy="255.0" fill="#aa0000" font-size="45.0" font-style="italic" stroke-width="0.9" stroke="#000f" text-anchor="beginning" text="~~~  SV2" x="108.86" y="36.03">~~~  SV2</text>
</g>
<polyline fill="none" points="108.00,175.02 109.19,173.63 110.37,176.32 111.56,176.54 112.74,158.93 113.93,158.80 115.11,169.77 116.30,172.88 117.48,176.07 118.67,175.01 119.85,170.64 121.04,175.86 122.22,174.74 123.41,177.13 124.59,177.30 125.78,177.07 126.96,177.34 128.15,177.70 129.33,177.68 130.52,177.65 131.70,177.70 132.89,177.64 134.07,172.69 135.26,170.83 136.44,174.01 137.63,167.49 138.81,174.57 140.00,173.77 141.19,166.32 142.37,174.19 143.56,177.08 144.74,177.03 145.93,176.86 147.11,177.60 148.30,177.23 149.48,177.57 150.67,177.57 151.85,177.55 153.04,177.67 154.22,177.66 155.41,177.62 156.59,177.08 157.78,176.62 158.96,177.16 160.15,177.13 161.33,175.49 162.52,176.66 163.70,177.64 164.89,176.85 166.07,177.13 167.26,176.64 168.44,165.38 169.63,174.72 170.81,172.60 172.00,168.76 173.19,175.04 174.37,176.53 175.56,174.31 176.74,177.10 177.93,170.99 179.11,173.08 180.30,175.95 181.48,172.69 182.67,174.49 183.85,166.50 185.04,160.01 186.22,137.51 187.41,164.99 188.59,172.19 189.78,160.13 190.96,167.14 192.15,174.57 193.33,169.74 194.52,171.21 195.70,164.25 196.89,151.86 198.07,169.74 199.26,167.85 200.44,161.36 201.63,160.23 202.81,148.16 204.00,124.99 205.19,132.33 206.37,112.16 207.56,90.40 208.74,139.52 209.93,60.00 211.11,119.36 212.30,140.81 213.48,167.92 214.67,170.98 215.85,173.02 217.04,176.60 218.22,172.97 219.41,174.47 220.59,172.96 221.78,175.86 222.96,177.35 224.15,175.66 225.33,176.17 226.52,174.66 227.70,175.81 228.89,175.00 230.07,175.70 231.26,175.30 232.44,176.27 233.63,171.47 234.81,173.28 236.00,171.64 237.19,175.53 238.37,175.68 239.56,172.36 240.74,174.10 241.93,172.58 243.11,176.02 244.30,174.51 245.48,176.49 246.67,164.29 247.85,165.38 249.04,161.16 250.22,169.56 251.41,175.67 252.59,168.98 253.78,168.20 254.96,171.12 256.15,165.08 257.33,160.10 258.52,162.92 259.70,165.81 260.89,171.04 262.07,173.86 263.26,173.32 264.44,175.70 265.63,172.33 266.81,174.15 268.00,169.72 269.19,162.10 270.37,153.06 271.56,161.81 272.74,170.58 273.93,171.84 275.11,175.58 276.30,171.14 277.48,172.68 278.67,167.92 279.85,173.58 281.04,175.95 282.22,175.02 283.41,171.41 284.59,153.97 285.78,155.92 286.96,149.49 288.15,163.62 289.33,171.06 290.52,174.23 291.70,166.79 292.89,169.47 294.07,161.95 295.26,162.69 296.44,165.55 297.63,148.22 298.81,154.25 300.00,161.95 301.19,159.00 302.37,170.01 303.56,162.29 304.74,174.78 305.93,167.91 307.11,156.10 308.30,156.28 309.48,174.98 310.67,175.46 311.85,174.46 313.04,176.58 314.22,176.88 315.41,175.32 316.59,171.18 317.78,171.94 318.96,169.85 320.15,159.39 321.33,167.05 322.52,140.84 323.70,143.31 324.89,151.18 326.07,173.00 327.26,174.88 328.44,174.82 329.63,176.71 330.81,176.32 332.00,166.00 333.19,166.87 334.37,169.89 335.56,166.67 336.74,158.45 337.93,151.04 339.11,151.23 340.30,168.08 341.48,175.60 342.67,176.81 343.85,176.49 345.04,174.80 346.22,167.56 347.41,146.66 348.59,152.43 349.78,156.02 350.96,163.21 352.15,154.49 353.33,159.06 354.52,145.94 355.70,149.14 356.89,160.19 358.07,159.50 359.26,172.83 360.44,172.18 361.63,170.51 362.81,177.67 364.00,177.12 365.19,176.48 366.37,176.39 367.56,172.58 368.74,170.64 369.93,154.71 371.11,157.72 372.30,167.25 373.48,164.24 374.67,147.30 375.85,167.59 377.04,161.85 378.22,164.22 379.41,164.14 380.59,159.55 381.78,164.87 382.96,171.65 384.15,162.34 385.33,162.99 386.52,123.38 387.70,104.72 388.89,135.53 390.07,122.15 391.26,128.70 392.44,157.08 393.63,172.68 394.81,173.12 396.00,171.93 397.19,171.59 398.37,164.22 399.56,171.35 400.74,176.28 401.93,173.12 403.11,173.27 404.30,167.80 405.48,162.14 406.67,127.71 407.85,112.37 409.04,170.20 410.22,171.22 411.41,172.12 412.59,174.25 413.78,174.90 414.96,170.99 416.15,157.56 417.33,141.20 418.52,157.39 419.70,160.76 420.89,169.08 422.07,155.79 423.26,165.43 424.44,167.04 425.63,167.35 426.81,159.92 428.00,170.66 429.19,173.94 430.37,173.35 431.56,172.04 432.74,158.72 433.93,162.82 435.11,160.47 436.30,161.86 437.48,174.78 438.67,174.75 439.85,167.88 441.04,175.21 442.22,168.48 443.41,154.91 444.59,166.88 445.78,174.79 446.96,171.68 448.15,175.20 449.33,172.34 450.52,168.70 451.70,167.80 452.89,157.58 454.07,161.21 455.26,155.44 456.44,165.14 457.63,167.24 458.81,173.60 460.00,154.79 461.19,154.68 462.37,168.76 463.56,169.64 464.74,169.34 465.93,168.08 467.11,172.02 468.30,175.25 469.48,172.46 470.67,174.65 471.85,169.76 473.04,165.36 474.22,161.98 475.41,173.16 476.59,176.12 477.78,177.27 478.96,176.66 480.15,161.54 481.33,166.11 482.52,152.75 483.70,160.77 484.89,173.94 486.07,176.43 487.26,172.89 488.44,173.50 489.63,174.62 490.81,162.23 492.00,159.73 493.19,151.45 494.37,145.88 495.56,167.99 496.74,174.51 497.93,176.08 499.11,172.73 500.30,176.72 501.48,176.88 502.67,176.99 503.85,171.44 505.04,176.62 506.22,169.47 507.41,162.46 508.59,173.17 509.78,176.59 510.96,176.60 512.15,165.34 513.33,162.32 514.52,174.16 515.70,173.16 516.89,172.59 518.07,177.20 519.26,176.82 520.44,161.85 521.63,161.15 522.81,176.43 524.00,177.02 525.19,176.85 526.37,177.46 527.56,174.91 528.74,172.41 529.93,172.94 531.11,173.16 532.30,177.19 533.48,177.29 534.67,176.21 535.85,177.32 537.04,176.13 538.22,176.46 539.41,149.98 540.59,117.02 541.78,133.67 542.96,168.70 544.15,177.16 545.33,177.50 546.52,176.87 547.70,177.28 548.89,176.81 550.07,176.43 551.26,175.90 552.44,173.08 553.63,166.77 554.81,172.66 556.00,151.68 557.19,164.73 558.37,171.65 559.56,172.45 560.74,159.53 561.93,156.65 563.11,148.68 564.30,161.95 565.48,176.03 566.67,176.99 567.85,176.89 569.04,176.81 570.22,177.09 571.41,176.96 572.59,175.33 573.78,172.41 574.96,146.23 576.15,163.79 577.33,173.64 578.52,166.97 579.70,171.61 580.89,175.72 582.07,176.60 583.26,177.50 584.44,177.71 585.63,177.25 586.81,176.98 588.00,177.55 589.19,177.48 590.37,174.63 591.56,176.35 592.74,177.12 593.93,176.74 595.11,176.94 596.30,157.38 597.48,131.90 598.67,148.61 599.85,175.78 601.04,177.26 602.22,174.55 603.41,176.27 604.59,174.24 605.78,175.38 606.96,175.71 608.15,163.05 609.33,160.14 610.52,168.66 611.70,164.87 612.89,167.59 614.07,162.62 615.26,162.14 616.44,169.84 617.63,155.88 618.81,155.38 620.00,168.29 621.19,175.49 622.37,172.50 623.56,174.62 624.74,176.07 625.93,173.96 627.11,176.65 628.30,177.33 629.48,171.07 630.67,175.61 631.85,175.58 633.04,176.05 634.22,177.05 635.41,177.29 636.59,177.54 637.78,176.42 638.96,175.78 640.15,165.61 641.33,165.20 642.52,172.03 643.70,169.98 644.89,171.07 646.07,163.45 647.26,166.42 648.44,168.55 649.63,160.84 650.81,162.18 652.00,161.94 653.19,161.95 654.37,168.54 655.56,175.14 656.74,172.90 657.93,167.59 659.11,160.46 660.30,165.66 661.48,170.61 662.67,160.24 663.85,157.96 665.04,159.64 666.22,171.15 667.41,153.80 668.59,164.64 669.78,154.86 670.96,173.06 672.15,170.93 673.33,172.09 674.52,173.38 675.70,172.97 676.89,167.25 678.07,166.60 679.26,170.01 680.44,169.32 681.63,175.94 682.81,171.37 684.00,165.80 685.19,163.47 686.37,164.10 687.56,163.40 688.74,158.91 689.93,167.07 691.11,169.63 692.30,174.42 693.48,176.36 694.67,174.98 695.85,172.95 697.04,174.36 698.22,174.19 699.41,166.32 700.59,160.02 701.78,166.81 702.96,173.71 704.15,175.57 705.33,176.68 706.52,177.05 707.70,172.85 708.89,165.06 710.07,158.53 711.26,145.60 712.44,144.33 713.63,140.31 714.81,145.67 716.00,161.43 717.19,171.89 718.37,171.08 719.56,154.29 720.74,155.08 721.93,156.50 723.11,127.45 724.30,130.54 725.48,135.61 726.67,149.16 727.85,166.93 729.04,173.06 730.22,170.56 731.41,174.05 732.59,176.20 733.78,177.66 734.96,177.59 736.15,177.27 737.33,167.52 738.52,170.62 739.70,176.24 740.89,177.25 742.07,176.85 743.26,177.54 744.44,175.32 745.63,175.46 746.81,176.02 748.00,174.75 749.19,171.00 750.37,173.53 751.56,174.87 752.74,157.34 753.93,162.69 755.11,167.58 756.30,167.64 757.48,128.37 758.67,134.04 759.85,157.71 761.04,152.73 762.22,136.58 763.41,143.45 764.59,155.70 765.78,145.18 766.96,161.13 768.15,143.06 769.33,155.46 770.52,163.23 771.70,174.15 772.89,175.07 774.07,168.57 775.26,153.06 776.44,160.82 777.63,172.23 778.81,176.73 780.00,176.91 781.19,175.61 782.37,156.56 783.56,173.27 784.74,167.60 785.93,160.05 787.11,155.60 788.30,171.48 789.48,173.69 790.67,174.42 791.85,171.82 793.04,173.66 794.22,176.87 795.41,176.29 796.59,177.59 797.78,175.28 798.96,173.61 800.15,173.79 801.33,173.87 802.52,176.99 803.70,176.88 804.89,172.84 806.07,175.08 807.26,175.40 808.44,176.12 809.63,169.29 810.81,151.65 812.00,151.19 813.19,161.64 814.37,161.66 815.56,135.01 816.74,150.59 817.93,149.12 819.11,146.78 820.30,167.07 821.48,152.49 822.67,130.33 823.85,133.28 825.04,169.73 826.22,170.92 827.41,171.29 828.59,155.18 829.78,166.42 830.96,175.73 832.15,169.95 833.33,135.58 834.52,146.72 835.70,166.44 836.89,167.52 838.07,175.86 839.26,163.09 840.44,160.93 841.63,154.56 842.81,141.34 844.00,155.17 845.19,159.25 846.37,155.98 847.56,168.03 848.74,173.69 849.93,171.04 851.11,167.54 852.30,166.64 853.48,171.77 854.67,169.80 855.85,163.95 857.04,162.39 858.22,142.49 859.41,150.90 860.59,159.31 861.78,171.13 862.96,170.78 864.15,169.18 865.33,175.72 866.52,175.42 867.70,166.33 868.89,170.69 870.07,167.92 871.26,161.86 872.44,169.66 873.63,168.90 874.81,173.18 876.00,160.89 877.19,171.13 878.37,166.23 879.56,154.74 880.74,163.26 881.93,166.54 883.11,158.12 884.30,165.27 885.48,174.78 886.67,168.86 887.85,169.52 889.04,156.97 890.22,150.24 891.41,146.97 892.59,167.99 893.78,172.57 894.96,176.90 896.15,177.69 897.33,174.31 898.52,171.56 899.70,148.31 900.89,170.68 902.07,162.70 903.26,165.11 904.44,159.80 905.63,166.22 906.81,172.57 908.00,175.66 909.19,173.75 910.37,171.69 911.56,172.01 912.74,148.02 913.93,158.32 915.11,177.09 916.30,177.52 917.48,176.69 918.67,172.15 919.85,172.39 921.04,163.38 922.22,157.92 923.41,158.51 924.59,160.13 925.78,171.46 926.96,169.23 928.15,146.80 929.33,142.35 930.52,134.92 931.70,147.21 932.89,149.96 934.07,160.56 935.26,164.96 936.44,152.55 937.63,171.26 938.81,175.74 940.00,177.54 941.19,177.05 942.37,177.48 943.56,177.11 944.74,176.83 945.93,172.24 947.11,162.62 948.30,162.72 949.48,171.62 950.67,174.85 951.85,135.70 953.04,163.93 954.22,171.51 955.41,175.89 956.59,175.43 957.78,174.10 958.96,173.52 960.15,163.80 961.33,160.88 962.52,167.61 963.70,169.67 964.89,177.11 966.07,177.24 967.26,177.35 968.44,177.62 969.63,169.03 970.81,160.55 972.00,164.45" stroke-width="7" stroke="#0000aa" />
<polyline fill="none" points="108.00,180.52 109.19,173.72 110.37,177.03 111.56,178.46 112.74,210.19 113.93,212.42 115.11,182.73 116.30,187.70 117.48,177.66 118.67,177.16 119.85,173.95 121.04,179.85 122.22,177.40 123.41,177.83 124.59,177.74 125.78,177.89 126.96,178.69 128.15,177.81 129.33,177.80 130.52,177.81 131.70,177.79 132.89,177.96 134.07,189.79 135.26,191.68 136.44,184.62 137.63,185.40 138.81,177.33 140.00,185.19 141.19,188.49 142.37,184.53 143.56,178.24 144.74,179.94 145.93,178.77 147.11,177.80 148.30,178.29 149.48,177.83 150.67,177.76 151.85,177.96 153.04,177.86 154.22,177.79 155.41,177.73 156.59,177.39 157.78,177.13 158.96,177.30 160.15,177.33 161.33,175.66 162.52,175.98 163.70,177.62 164.89,176.42 166.07,177.52 167.26,177.80 168.44,177.79 169.63,176.35 170.81,177.59 172.00,172.81 173.19,173.01 174.37,177.04 175.56,172.05 176.74,176.76 177.93,173.34 179.11,175.57 180.30,173.95 181.48,180.16 182.67,175.56 183.85,181.77 185.04,166.76 186.22,151.44 187.41,172.88 188.59,177.55 189.78,180.58 190.96,180.03 192.15,175.90 193.33,171.98 194.52,171.19 195.70,182.50 196.89,225.47 198.07,185.24 199.26,182.79 200.44,169.00 201.63,169.21 202.81,181.84 204.00,203.67 205.19,265.45 206.37,300.00 207.56,277.11 208.74,239.71 209.93,280.68 211.11,210.70 212.30,235.36 213.48,204.49 214.67,191.12 215.85,183.63 217.04,177.49 218.22,171.43 219.41,179.22 220.59,177.54 221.78,175.53 222.96,177.55 224.15,172.67 225.33,176.37 226.52,174.21 227.70,174.99 228.89,175.67 230.07,176.15 231.26,177.10 232.44,176.34 233.63,175.34 234.81,177.36 236.00,175.29 237.19,175.72 238.37,175.92 239.56,172.42 240.74,173.85 241.93,178.52 243.11,178.43 244.30,172.61 245.48,176.73 246.67,163.25 247.85,170.43 249.04,155.53 250.22,182.80 251.41,177.47 252.59,174.53 253.78,178.67 254.96,175.44 256.15,166.71 257.33,155.73 258.52,157.06 259.70,168.74 260.89,173.58 262.07,178.34 263.26,177.39 264.44,174.96 265.63,175.52 266.81,178.37 268.00,177.00 269.19,175.86 270.37,186.21 271.56,177.55 272.74,183.77 273.93,183.01 275.11,178.56 276.30,165.43 277.48,171.51 278.67,164.43 279.85,177.50 281.04,178.27 282.22,171.97 283.41,181.50 284.59,163.78 285.78,170.39 286.96,155.27 288.15,166.96 289.33,174.19 290.52,174.75 291.70,179.19 292.89,180.45 294.07,170.75 295.26,161.09 296.44,168.49 297.63,168.51 298.81,169.71 300.00,166.41 301.19,160.87 302.37,170.17 303.56,164.30 304.74,177.28 305.93,173.30 307.11,157.51 308.30,144.45 309.48,173.37 310.67,175.21 311.85,175.40 313.04,178.89 314.22,176.99 315.41,176.54 316.59,174.05 317.78,172.89 318.96,177.56 320.15,170.46 321.33,180.83 322.52,157.04 323.70,179.84 324.89,148.14 326.07,171.55 327.26,174.01 328.44,185.20 329.63,177.99 330.81,174.29 332.00,150.11 333.19,161.61 334.37,177.43 335.56,164.82 336.74,160.04 337.93,148.19 339.11,137.06 340.30,170.55 341.48,173.20 342.67,176.02 343.85,176.57 345.04,173.90 346.22,164.10 347.41,159.48 348.59,152.30 349.78,165.60 350.96,177.82 352.15,163.15 353.33,147.37 354.52,168.22 355.70,146.49 356.89,161.61 358.07,148.05 359.26,178.89 360.44,179.84 361.63,171.35 362.81,177.66 364.00,179.78 365.19,176.48 366.37,174.91 367.56,170.89 368.74,180.89 369.93,163.63 371.11,168.72 372.30,188.86 373.48,180.82 374.67,148.22 375.85,176.79 377.04,186.18 378.22,167.50 379.41,173.89 380.59,177.42 381.78,176.58 382.96,186.52 384.15,184.10 385.33,179.14 386.52,151.59 387.70,126.16 388.89,140.86 390.07,143.67 391.26,154.15 392.44,154.09 393.63,171.41 394.81,172.68 396.00,164.90 397.19,163.91 398.37,165.01 399.56,170.32 400.74,177.36 401.93,175.19 403.11,176.86 404.30,167.97 405.48,158.25 406.67,150.89 407.85,158.65 409.04,172.39 410.22,181.77 411.41,172.02 412.59,178.66 413.78,174.21 414.96,162.56 416.15,146.78 417.33,130.89 418.52,156.62 419.70,180.55 420.89,166.80 422.07,161.42 423.26,176.23 424.44,175.96 425.63,171.84 426.81,163.57 428.00,179.64 429.19,176.98 430.37,178.44 431.56,174.93 432.74,155.92 433.93,166.21 435.11,170.74 436.30,171.58 437.48,175.93 438.67,177.85 439.85,172.07 441.04,177.89 442.22,179.15 443.41,155.16 444.59,170.44 445.78,176.78 446.96,165.13 448.15,177.09 449.33,173.95 450.52,167.41 451.70,183.41 452.89,211.80 454.07,172.48 455.26,205.25 456.44,198.65 457.63,184.65 458.81,175.52 460.00,202.10 461.19,228.13 462.37,184.66 463.56,181.80 464.74,188.46 465.93,182.09 467.11,181.96 468.30,176.31 469.48,174.16 470.67,176.31 471.85,173.65 473.04,170.04 474.22,168.02 475.41,176.59 476.59,180.09 477.78,178.33 478.96,176.75 480.15,177.73 481.33,189.61 482.52,199.57 483.70,209.34 484.89,182.63 486.07,178.18 487.26,179.10 488.44,175.71 489.63,181.59 490.81,199.47 492.00,202.04 493.19,219.55 494.37,221.05 495.56,187.08 496.74,186.15 497.93,178.46 499.11,175.44 500.30,177.12 501.48,177.14 502.67,177.21 503.85,174.79 505.04,177.46 506.22,185.97 507.41,188.24 508.59,181.23 509.78,178.42 510.96,178.68 512.15,198.31 513.33,201.76 514.52,183.65 515.70,177.23 516.89,179.94 518.07,177.45 519.26,177.21 520.44,209.68 521.63,206.04 522.81,179.90 524.00,177.51 525.19,177.29 526.37,177.68 527.56,179.44 528.74,179.35 529.93,178.23 531.11,182.79 532.30,178.41 533.48,177.95 534.67,176.83 535.85,177.69 537.04,180.55 538.22,178.67 539.41,226.69 540.59,247.77 541.78,240.39 542.96,193.31 544.15,178.40 545.33,177.75 546.52,175.34 547.70,178.90 548.89,178.37 550.07,178.92 551.26,179.98 552.44,179.94 553.63,184.62 554.81,184.07 556.00,241.72 557.19,211.63 558.37,187.76 559.56,184.94 560.74,169.67 561.93,178.44 563.11,155.84 564.30,166.28 565.48,176.46 566.67,177.28 567.85,177.37 569.04,179.06 570.22,177.14 571.41,178.20 572.59,179.62 573.78,179.99 574.96,216.92 576.15,181.36 577.33,178.22 578.52,170.20 579.70,172.47 580.89,174.08 582.07,174.95 583.26,177.54 584.44,177.72 585.63,177.54 586.81,175.86 588.00,177.76 589.19,177.78 590.37,174.78 591.56,176.47 592.74,176.76 593.93,176.96 595.11,177.67 596.30,170.26 597.48,165.38 598.67,175.33 599.85,177.30 601.04,177.48 602.22,174.80 603.41,177.04 604.59,174.54 605.78,175.81 606.96,177.32 608.15,166.06 609.33,169.42 610.52,168.25 611.70,169.76 612.89,174.95 614.07,187.62 615.26,171.92 616.44,173.38 617.63,161.56 618.81,168.66 620.00,173.28 621.19,176.30 622.37,173.19 623.56,175.06 624.74,178.30 625.93,172.16 627.11,176.76 628.30,177.61 629.48,180.87 630.67,179.39 631.85,179.73 633.04,179.51 634.22,179.26 635.41,179.00 636.59,178.03 637.78,179.85 638.96,178.68 640.15,183.02 641.33,175.78 642.52,174.37 643.70,174.08 644.89,174.75 646.07,206.46 647.26,205.49 648.44,185.19 649.63,170.87 650.81,170.19 652.00,186.55 653.19,164.58 654.37,170.32 655.56,175.90 656.74,174.93 657.93,180.78 659.11,168.59 660.30,171.03 661.48,175.78 662.67,172.53 663.85,171.96 665.04,164.82 666.22,176.42 667.41,180.88 668.59,177.60 669.78,164.22 670.96,174.87 672.15,177.95 673.33,178.87 674.52,178.32 675.70,176.51 676.89,175.14 678.07,172.72 679.26,175.66 680.44,180.65 681.63,179.54 682.81,173.70 684.00,172.40 685.19,160.09 686.37,162.07 687.56,164.36 688.74,161.84 689.93,161.37 691.11,174.71 692.30,177.95 693.48,177.09 694.67,182.39 695.85,171.94 697.04,172.63 698.22,175.31 699.41,165.72 700.59,165.63 701.78,178.98 702.96,176.62 704.15,174.61 705.33,177.60 706.52,177.37 707.70,174.02 708.89,164.70 710.07,155.31 711.26,163.23 712.44,156.43 713.63,158.75 714.81,144.32 716.00,145.25 717.19,172.97 718.37,171.30 719.56,124.45 720.74,151.03 721.93,145.76 723.11,134.56 724.30,154.49 725.48,156.80 726.67,170.52 727.85,175.38 729.04,176.52 730.22,178.49 731.41,171.69 732.59,174.29 733.78,177.68 734.96,177.91 736.15,177.05 737.33,160.93 738.52,162.71 739.70,176.50 740.89,178.03 742.07,176.20 743.26,177.69 744.44,176.79 745.63,177.28 746.81,178.35 748.00,173.62 749.19,162.04 750.37,168.54 751.56,172.53 752.74,146.01 753.93,156.94 755.11,179.39 756.30,172.09 757.48,162.20 758.67,128.02 759.85,170.32 761.04,165.97 762.22,167.26 763.41,145.74 764.59,159.14 765.78,154.61 766.96,179.11 768.15,136.65 769.33,150.14 770.52,175.64 771.70,174.72 772.89,176.13 774.07,165.00 775.26,138.73 776.44,161.93 777.63,167.98 778.81,178.76 780.00,177.90 781.19,177.30 782.37,163.40 783.56,175.55 784.74,160.89 785.93,147.04 787.11,172.58 788.30,174.88 789.48,173.49 790.67,175.05 791.85,173.08 793.04,174.47 794.22,177.68 795.41,176.27 796.59,177.50 797.78,174.57 798.96,169.94 800.15,172.43 801.33,173.00 802.52,177.71 803.70,176.69 804.89,171.62 806.07,172.57 807.26,172.87 808.44,174.33 809.63,180.75 810.81,160.71 812.00,163.94 813.19,172.38 814.37,175.44 815.56,129.26 816.74,143.01 817.93,178.31 819.11,161.86 820.30,172.05 821.48,154.03 822.67,161.65 823.85,132.75 825.04,163.59 826.22,162.55 827.41,162.98 828.59,136.53 829.78,161.10 830.96,180.06 832.15,170.53 833.33,134.92 834.52,143.41 835.70,169.38 836.89,177.45 838.07,179.91 839.26,174.50 840.44,161.40 841.63,161.75 842.81,147.56 844.00,163.80 845.19,167.53 846.37,167.31 847.56,173.41 848.74,175.67 849.93,172.40 851.11,171.68 852.30,170.77 853.48,169.95 854.67,172.17 855.85,172.60 857.04,170.36 858.22,162.54 859.41,166.01 860.59,162.38 861.78,168.52 862.96,171.30 864.15,175.84 865.33,177.27 866.52,178.84 867.70,168.55 868.89,172.67 870.07,167.83 871.26,171.35 872.44,172.74 873.63,176.16 874.81,181.01 876.00,165.41 877.19,172.60 878.37,172.22 879.56,166.43 880.74,191.05 881.93,173.65 883.11,166.12 884.30,185.98 885.48,179.60 886.67,182.76 887.85,180.01 889.04,215.24 890.22,205.91 891.41,222.86 892.59,177.80 893.78,173.44 894.96,176.63 896.15,177.69 897.33,174.93 898.52,172.19 899.70,164.68 900.89,179.34 902.07,185.00 903.26,175.87 904.44,169.50 905.63,173.15 906.81,173.68 908.00,175.16 909.19,177.04 910.37,175.24 911.56,170.34 912.74,206.25 913.93,177.87 915.11,177.69 916.30,177.74 917.48,177.75 918.67,175.26 919.85,182.98 921.04,186.31 922.22,184.77 923.41,180.05 924.59,196.52 925.78,176.01 926.96,175.19 928.15,176.27 929.33,223.81 930.52,257.76 931.70,226.85 932.89,211.84 934.07,206.09 935.26,188.49 936.44,182.43 937.63,173.09 938.81,175.73 940.00,177.94 941.19,177.26 942.37,177.57 943.56,177.21 944.74,176.82 945.93,179.61 947.11,176.79 948.30,170.63 949.48,173.75 950.67,181.26 951.85,267.10 953.04,183.24 954.22,179.74 955.41,177.74 956.59,177.94 957.78,179.61 958.96,182.43 960.15,199.87 961.33,200.48 962.52,196.64 963.70,190.55 964.89,177.91 966.07,177.47 967.26,177.66 968.44,177.93 969.63,193.79 970.81,182.72 972.00,184.74" stroke-width="7" stroke="#aa0000" />
<g stroke="black">
<line x1="108.00" x2="78.00" y1="268.30" y2="268.30" />
<line x1="108.00" x2="78.00" y1="177.73" y2="177.73" />
<g fill="black" font-family="Arial, sans-serif" font-size="45.0" stroke="none" text-anchor="end">
<text x="85.50" y="245.80">-0.2</text>
<text x="85.50" y="155.23">-0.0</text>
</g>
<line x1="108.00" x2="108.00" y1="324.00" y2="36.00" />
</g>
</g>
</svg>