<?xml version="1.0"?>
<svg height="360.0" version="1.1" viewBox="0 0 1080.0 360.0" width="1080.0" xmlns:xlink="http://www.w3.org/1999/xlink" xmlns="http://www.w3.org/2000/svg">
<g>
<g>
<g>
<text dominant-baseline="hanging" dx="18.0" dy="54.0" fill="#0000aa" font-size="18.0" font-style="italic" stroke-width="0.36" stroke="#000f" text-anchor="beginning" text="Singular Vec 1" x="65.75" y="21.63">Singular Vec 1</text>
</g>
<g>
<text dominant-baseline="hanging" dx="18.0" dy="78.0" fill="#aa0000" font-size="18.0" font-style="italic" stroke-width="0.36" stroke="#000f" text-anchor="beginning" text="Singular Vec 2" x="65.75" y="21.63">Singular Vec 2</text>
</g>
<polyline fill="none" points="64.80,309.13 71.35,301.22 77.91,324.85 84.46,337.15 91.02,322.43 97.57,304.86 104.13,335.45 110.68,337.76 117.24,335.05 123.79,332.98 130.34,305.70 136.90,322.80 143.45,311.14 150.01,239.11 156.56,294.85 163.12,257.01 169.67,50.34 176.23,72.10 182.78,316.81 189.34,326.90 195.89,325.46 202.44,316.96 209.00,319.49 215.55,288.84 222.11,301.83 228.66,271.31 235.22,317.96 241.77,264.67 248.33,306.64 254.88,297.75 261.43,261.48 267.99,272.82 274.54,238.30 281.10,261.70 287.65,327.20 294.21,295.09 300.76,219.10 307.32,316.79 313.87,257.99 320.42,295.58 326.98,242.39 333.53,215.72 340.09,281.05 346.64,329.33 353.20,260.59 359.75,250.35 366.31,268.21 372.86,52.45 379.42,292.98 385.97,306.21 392.52,183.54 399.08,311.32 405.63,229.52 412.19,261.79 418.74,296.41 425.30,281.85 431.85,279.81 438.41,310.12 444.96,253.06 451.51,265.69 458.07,302.46 464.62,290.85 471.18,313.60 477.73,278.01 484.29,291.53 490.84,264.64 497.40,323.79 503.95,307.34 510.50,300.29 517.06,298.45 523.61,332.21 530.17,321.97 536.72,305.43 543.28,221.79 549.83,332.82 556.39,277.37 562.94,256.60 569.50,317.52 576.05,296.87 582.60,298.71 589.16,335.47 595.71,332.36 602.27,237.36 608.82,326.91 615.38,289.71 621.93,274.06 628.49,273.78 635.04,327.63 641.59,324.88 648.15,321.83 654.70,289.68 661.26,267.13 667.81,293.79 674.37,262.17 680.92,250.48 687.48,311.23 694.03,297.38 700.58,274.86 707.14,293.77 713.69,310.72 720.25,300.80 726.80,264.94 733.36,206.68 739.91,206.37 746.47,200.62 753.02,325.11 759.58,316.67 766.13,330.39 772.68,297.62 779.24,203.90 785.79,189.77 792.35,210.49 798.90,276.79 805.46,305.84 812.01,273.22 818.57,318.69 825.12,324.98 831.67,324.24 838.23,270.30 844.78,201.95 851.34,172.90 857.89,278.48 864.45,239.04 871.00,267.95 877.56,224.28 884.11,298.12 890.66,235.10 897.22,293.43 903.77,288.86 910.33,291.06 916.88,255.01 923.44,283.68 929.99,261.50 936.55,289.57 943.10,272.11 949.66,288.29 956.21,310.32 962.76,259.48 969.32,210.85 975.87,221.46 982.43,328.03 988.98,299.25 995.54,265.24 1002.09,311.82 1008.65,301.42 1015.20,297.25" stroke-width="7" stroke="#0000aa" />
<g stroke="#0000aa">
<line x1="64.80" x2="64.80" y1="338.40" y2="348.40" />
<line x1="543.28" x2="543.28" y1="338.40" y2="348.40" />
<g fill="black" font-family="Arial, sans-serif" font-size="18.0" stroke="none" text-anchor="start" transform="translate(9.0 0.0)">
<text x="64.80" y="358.97">2011</text>
<text x="543.28" y="358.97">2012</text>
</g>
<line x1="64.80" x2="1015.20" y1="338.40" y2="338.40" />
</g>
<g stroke="#0000aa">
<line x1="64.80" x2="52.80" y1="338.40" y2="338.40" />
<line x1="64.80" x2="52.80" y1="246.25" y2="246.25" />
<line x1="64.80" x2="52.80" y1="154.10" y2="154.10" />
<line x1="64.80" x2="52.80" y1="61.95" y2="61.95" />
<g fill="#0000aa" font-family="Arial, sans-serif" font-size="18.0" stroke="none" text-anchor="end">
<text x="55.80" y="329.40">0.0</text>
<text x="55.80" y="237.25">0.1</text>
<text x="55.80" y="145.10">0.2</text>
<text x="55.80" y="52.95">0.3</text>
</g>
<line x1="64.80" x2="64.80" y1="338.40" y2="21.60" />
</g>
</g>
<g>
<polyline fill="none" points="64.80,156.19 71.35,164.03 77.91,138.17 84.46,139.78 91.02,155.09 97.57,157.93 104.13,141.20 110.68,139.32 117.24,139.11 123.79,136.94 130.34,140.43 136.90,131.23 143.45,139.85 150.01,130.46 156.56,138.25 163.12,166.93 169.67,312.00 176.23,286.52 182.78,144.86 189.34,134.45 195.89,134.77 202.44,137.05 209.00,135.20 215.55,116.68 222.11,140.43 228.66,103.45 235.22,137.02 241.77,150.37 248.33,124.88 254.88,130.60 261.43,121.16 267.99,122.20 274.54,107.78 281.10,96.54 287.65,135.56 294.21,132.16 300.76,112.86 307.32,123.23 313.87,99.92 320.42,110.73 326.98,103.56 333.53,94.04 340.09,112.93 346.64,133.91 353.20,132.39 359.75,121.77 366.31,150.22 372.86,70.98 379.42,105.39 385.97,127.74 392.52,102.42 399.08,127.72 405.63,82.64 412.19,118.61 418.74,128.55 425.30,128.58 431.85,127.56 438.41,125.81 444.96,184.80 451.51,185.79 458.07,154.26 464.62,136.18 471.18,141.22 477.73,176.22 484.29,165.50 490.84,190.52 497.40,138.47 503.95,151.58 510.50,165.44 517.06,170.81 523.61,141.06 530.17,144.95 536.72,164.45 543.28,212.14 549.83,140.52 556.39,194.99 562.94,140.03 569.50,134.29 576.05,162.10 582.60,136.74 589.16,136.29 595.71,137.23 602.27,138.20 608.82,137.67 615.38,133.24 621.93,142.17 628.49,130.62 635.04,135.10 641.59,144.26 648.15,144.30 654.70,149.87 661.26,156.54 667.81,131.35 674.37,131.33 680.92,131.72 687.48,140.12 694.03,140.52 700.58,110.88 707.14,120.91 713.69,129.16 720.25,130.54 726.80,114.70 733.36,81.20 739.91,48.00 746.47,112.48 753.02,134.80 759.58,119.68 766.13,138.64 772.68,101.21 779.24,99.93 785.79,105.44 792.35,98.08 798.90,101.42 805.46,128.55 812.01,103.34 818.57,130.51 825.12,130.15 831.67,129.44 838.23,118.89 844.78,101.18 851.34,90.16 857.89,80.73 864.45,97.14 871.00,125.84 877.56,102.26 884.11,126.37 890.66,121.61 897.22,121.08 903.77,125.87 910.33,129.68 916.88,133.39 923.44,167.51 929.99,174.85 936.55,134.56 943.10,143.02 949.66,150.39 956.21,137.77 962.76,165.51 969.32,199.91 975.87,208.88 982.43,137.72 988.98,141.29 995.54,188.64 1002.09,154.42 1008.65,165.90 1015.20,156.23" stroke-width="7" stroke="#aa0000" />
<g stroke="#aa0000">
<line x1="64.80" x2="64.80" y1="21.60" y2="21.60" />
<line x1="543.28" x2="543.28" y1="21.60" y2="21.60" />
<g fill="#aa0000" font-family="Arial, sans-serif" font-size="18.0" stroke="none" text-anchor="start" transform="translate(9.0 0.0)">
<text x="64.80" y="15.34">2011</text>
<text x="543.28" y="15.34">2012</text>
</g>
<line x1="64.80" x2="1015.20" y1="21.60" y2="21.60" />
</g>
<g stroke="#aa0000">
<line x1="1015.20" x2="1027.20" y1="333.55" y2="333.55" />
<line x1="1015.20" x2="1027.20" y1="294.64" y2="294.64" />
<line x1="1015.20" x2="1027.20" y1="255.74" y2="255.74" />
<line x1="1015.20" x2="1027.20" y1="216.83" y2="216.83" />
<line x1="1015.20" x2="1027.20" y1="177.93" y2="177.93" />
<line x1="1015.20" x2="1027.20" y1="139.02" y2="139.02" />
<line x1="1015.20" x2="1027.20" y1="100.12" y2="100.12" />
<line x1="1015.20" x2="1027.20" y1="61.21" y2="61.21" />
<line x1="1015.20" x2="1027.20" y1="22.31" y2="22.31" />
<g fill="#aa0000" font-family="Arial, sans-serif" font-size="18.0" stroke="none" text-anchor="beginning">
<text x="1024.20" y="324.55">-0.5</text>
<text x="1024.20" y="285.64">-0.4</text>
<text x="1024.20" y="246.74">-0.3</text>
<text x="1024.20" y="207.83">-0.2</text>
<text x="1024.20" y="168.93">-0.1</text>
<text x="1024.20" y="130.02">-0.0</text>
<text x="1024.20" y="91.12">0.1</text>
<text x="1024.20" y="52.21">0.2</text>
<text x="1024.20" y="13.31">0.3</text>
</g>
<line x1="1015.20" x2="1015.20" y1="338.40" y2="21.60" />
</g>
</g>
</g>
</svg>