<?xml version="1.0"?>
<svg height="360.0" version="1.1" viewBox="0 0 1080.0 360.0" width="1080.0" xmlns:xlink="http://www.w3.org/1999/xlink" xmlns="http://www.w3.org/2000/svg">
<g>
<g>
<text dominant-baseline="hanging" dx="45.0" dy="135.0" fill="black" font-size="45.0" font-style="italic" stroke-width="0.9" stroke="#000f" text-anchor="beginning" x="108.86" y="36.03">
</text>
</g>
<g>
<text dominant-baseline="hanging" dx="45.0" dy="195.0" fill="#0000aa" font-size="45.0" font-style="italic" stroke-width="0.9" stroke="#000f" text-anchor="beginning" text="~~~   SV1" x="108.86" y="36.03">~~~   SV1</text>
</g>
<g>
<text dominant-baseline="hanging" dx="45.0" dy="255.0" fill="#aa0000" font-size="45.0" font-style="italic" stroke-width="0.9" stroke="#000f" text-anchor="beginning" text="~~~  SV2" x="108.86" y="36.03">~~~  SV2</text>
</g>
<polyline fill="none" points="108.00,149.01 113.96,146.29 119.92,154.42 125.88,158.65 131.83,153.58 137.79,147.54 143.75,158.06 149.71,158.86 155.67,157.92 161.63,157.21 167.59,147.83 173.54,153.71 179.50,149.70 185.46,124.93 191.42,144.10 197.38,131.08 203.34,60.00 209.30,67.48 215.26,151.65 221.21,155.12 227.17,154.63 233.13,151.70 239.09,152.57 245.05,142.03 251.01,146.50 256.97,136.00 262.92,152.05 268.88,133.72 274.84,148.15 280.80,145.10 286.76,132.62 292.72,136.52 298.68,124.65 304.63,132.70 310.59,155.22 316.55,144.18 322.51,118.04 328.47,151.65 334.43,131.42 340.39,144.35 346.34,126.05 352.30,116.88 358.26,139.35 364.22,155.96 370.18,132.31 376.14,128.79 382.10,134.93 388.06,60.73 394.01,143.46 399.97,148.01 405.93,105.81 411.89,149.76 417.85,121.63 423.81,132.73 429.77,144.64 435.72,139.63 441.68,138.92 447.64,149.35 453.60,129.73 459.56,134.07 465.52,146.71 471.48,142.72 477.43,150.55 483.39,138.31 489.35,142.96 495.31,133.71 501.27,154.05 507.23,148.39 513.19,145.97 519.14,145.33 525.10,156.95 531.06,153.42 537.02,147.74 542.98,118.97 548.94,157.16 554.90,138.09 560.86,130.94 566.81,151.90 572.77,144.79 578.73,145.43 584.69,158.07 590.65,157.00 596.61,124.32 602.57,155.12 608.52,142.33 614.48,136.95 620.44,136.85 626.40,155.37 632.36,154.43 638.32,153.38 644.28,142.32 650.23,134.56 656.19,143.73 662.15,132.86 668.11,128.84 674.07,149.73 680.03,144.97 685.99,137.22 691.94,143.73 697.90,149.56 703.86,146.15 709.82,133.81 715.78,113.77 721.74,113.66 727.70,111.69 733.66,154.50 739.61,151.60 745.57,156.32 751.53,145.05 757.49,112.82 763.45,107.96 769.41,115.08 775.37,137.89 781.32,147.88 787.28,136.66 793.24,152.30 799.20,154.46 805.16,154.21 811.12,135.66 817.08,112.14 823.03,102.15 828.99,138.47 834.95,124.90 840.91,134.85 846.87,119.83 852.83,145.22 858.79,123.55 864.74,143.61 870.70,142.04 876.66,142.79 882.62,130.39 888.58,140.26 894.54,132.63 900.50,142.28 906.46,136.28 912.41,141.84 918.37,149.42 924.33,131.93 930.29,115.21 936.25,118.86 942.21,155.51 948.17,145.61 954.12,133.91 960.08,149.94 966.04,146.36 972.00,144.92" stroke-width="7" stroke="#0000aa" />
<polyline fill="none" points="108.00,173.07 113.96,179.45 119.92,158.38 125.88,159.69 131.83,172.17 137.79,174.48 143.75,160.85 149.71,159.32 155.67,159.15 161.63,157.38 167.59,160.22 173.54,152.73 179.50,159.75 185.46,152.10 191.42,158.45 197.38,181.81 203.34,300.00 209.30,279.24 215.26,163.84 221.21,155.35 227.17,155.61 233.13,157.47 239.09,155.96 245.05,140.87 251.01,160.22 256.97,130.09 262.92,157.45 268.88,168.32 274.84,147.55 280.80,152.22 286.76,144.52 292.72,145.37 298.68,133.62 304.63,124.47 310.59,156.25 316.55,153.49 322.51,137.77 328.47,146.21 334.43,127.22 340.39,136.03 346.34,130.18 352.30,122.43 358.26,137.82 364.22,154.91 370.18,153.68 376.14,145.02 382.10,168.20 388.06,103.64 394.01,131.68 399.97,149.89 405.93,129.26 411.89,149.87 417.85,113.14 423.81,142.45 429.77,150.55 435.72,150.57 441.68,149.74 447.64,148.31 453.60,196.37 459.56,197.18 465.52,171.49 471.48,156.76 477.43,160.86 483.39,189.38 489.35,180.65 495.31,201.03 501.27,158.63 507.23,169.31 513.19,180.60 519.14,184.97 525.10,160.74 531.06,163.90 537.02,179.79 542.98,218.65 548.94,160.30 554.90,204.67 560.86,159.89 566.81,155.22 572.77,177.88 578.73,157.22 584.69,156.85 590.65,157.62 596.61,158.41 602.57,157.97 608.52,154.37 614.48,161.64 620.44,152.23 626.40,155.88 632.36,163.34 638.32,163.38 644.28,167.91 650.23,173.35 656.19,152.82 662.15,152.81 668.11,153.13 674.07,159.97 680.03,160.30 685.99,136.15 691.94,144.32 697.90,151.04 703.86,152.17 709.82,139.26 715.78,111.97 721.74,84.92 727.70,137.45 733.66,155.64 739.61,143.32 745.57,158.77 751.53,128.27 757.49,127.23 763.45,131.72 769.41,125.72 775.37,128.44 781.32,150.54 787.28,130.01 793.24,152.14 799.20,151.85 805.16,151.27 811.12,142.68 817.08,128.24 823.03,119.27 828.99,111.58 834.95,124.95 840.91,148.33 846.87,129.13 852.83,148.77 858.79,144.89 864.74,144.46 870.70,148.36 876.66,151.47 882.62,154.49 888.58,182.28 894.54,188.27 900.50,155.44 906.46,162.33 912.41,168.33 918.37,158.05 924.33,180.66 930.29,208.68 936.25,215.99 942.21,158.02 948.17,160.93 954.12,199.50 960.08,171.62 966.04,180.97 972.00,173.09" stroke-width="7" stroke="#aa0000" />
<g stroke="black">
<line x1="108.00" x2="78.00" y1="285.86" y2="285.86" />
<line x1="108.00" x2="78.00" y1="222.47" y2="222.47" />
<line x1="108.00" x2="78.00" y1="159.08" y2="159.08" />
<g fill="black" font-family="Arial, sans-serif" font-size="45.0" stroke="none" text-anchor="end">
<text x="85.50" y="263.36">-0.4</text>
<text x="85.50" y="199.97">-0.2</text>
<text x="85.50" y="136.58">-0.0</text>
</g>
<line x1="108.00" x2="108.00" y1="324.00" y2="36.00" />
</g>
</g>
</svg>