<?xml version="1.0"?>
<svg height="360.0" version="1.1" viewBox="0 0 1080.0 360.0" width="1080.0" xmlns:xlink="http://www.w3.org/1999/xlink" xmlns="http://www.w3.org/2000/svg">
<g>
<g>
<text dominant-baseline="hanging" dx="-36.0" dy="36.0" fill="#0004" font-family="Arial, sans-serif" font-size="36" stroke="none" text-anchor="end" x="982.80" y="57.00">SV1 SV2 weights</text>
</g>
<g>
<text dominant-baseline="hanging" dx="18.0" dy="18.0" fill="#0000aa" font-size="12.0" font-style="italic" stroke="none" text-anchor="beginning" x="98.09" y="32.43">First Singular Vector</text>
</g>
<g>
<text dominant-baseline="hanging" dx="18.0" dy="36.0" fill="#aa0000" font-size="12.0" font-style="italic" stroke="none" text-anchor="beginning" x="98.09" y="32.43">Second Singular Vector</text>
</g>
<polyline fill="none" points="97.20,232.83 122.50,253.01 147.81,285.95 173.11,261.00 198.41,271.17 223.71,278.38 249.02,252.77 274.32,235.67 299.62,238.00 324.93,245.91 350.23,239.11 375.53,246.89 400.83,230.63 426.14,270.24 451.44,282.67 476.74,277.73 502.05,303.00 527.35,247.71 552.65,256.27 577.95,231.39 603.26,238.01 628.56,246.55 653.86,242.05 679.17,234.29 704.47,233.80 729.77,241.37 755.07,251.77 780.38,268.99 805.68,282.77 830.98,256.93 856.29,248.55 881.59,235.27 906.89,238.52 932.19,257.19 957.50,245.15 982.80,237.48" stroke-width="7" stroke="#0000aa" />
<polyline fill="none" points="97.20,215.80 122.50,234.37 147.81,267.58 173.11,233.44 198.41,191.51 223.71,275.45 249.02,245.40 274.32,202.06 299.62,211.44 324.93,199.74 350.23,220.81 375.53,163.36 400.83,219.64 426.14,230.00 451.44,57.00 476.74,270.87 502.05,291.83 527.35,214.70 552.65,133.19 577.95,214.90 603.26,220.67 628.56,189.31 653.86,165.05 679.17,226.43 704.47,240.13 729.77,204.00 755.07,209.16 780.38,260.94 805.68,147.97 830.98,193.11 856.29,202.12 881.59,220.26 906.89,216.54 932.19,221.17 957.50,219.95 982.80,232.89" stroke-width="7" stroke="#aa0000" />
<g stroke="black">
<line x1="97.20" x2="97.20" y1="327.60" y2="337.60" />
<line x1="400.83" x2="400.83" y1="327.60" y2="337.60" />
<line x1="704.47" x2="704.47" y1="327.60" y2="337.60" />
<g fill="black" font-family="Arial, sans-serif" font-size="18.0" stroke="none" text-anchor="start" transform="translate(9.0 0.0)">
<text x="97.20" y="348.17">2011</text>
<text x="400.83" y="348.17">2012</text>
<text x="704.47" y="348.17">2013</text>
</g>
<line x1="97.20" x2="982.80" y1="327.60" y2="327.60" />
</g>
<g stroke="black">
<line x1="97.20" x2="85.20" y1="316.05" y2="316.05" />
<line x1="97.20" x2="85.20" y1="290.68" y2="290.68" />
<line x1="97.20" x2="85.20" y1="265.31" y2="265.31" />
<line x1="97.20" x2="85.20" y1="239.94" y2="239.94" />
<line x1="97.20" x2="85.20" y1="214.57" y2="214.57" />
<line x1="97.20" x2="85.20" y1="189.21" y2="189.21" />
<line x1="97.20" x2="85.20" y1="163.84" y2="163.84" />
<line x1="97.20" x2="85.20" y1="138.47" y2="138.47" />
<line x1="97.20" x2="85.20" y1="113.10" y2="113.10" />
<line x1="97.20" x2="85.20" y1="87.73" y2="87.73" />
<line x1="97.20" x2="85.20" y1="62.36" y2="62.36" />
<line x1="97.20" x2="85.20" y1="36.99" y2="36.99" />
<g fill="black" font-family="Arial, sans-serif" font-size="18.0" stroke="none" text-anchor="end">
<text x="88.20" y="307.05">-0.4</text>
<text x="88.20" y="281.68">-0.3</text>
<text x="88.20" y="256.31">-0.2</text>
<text x="88.20" y="230.94">-0.1</text>
<text x="88.20" y="205.57">-0.0</text>
<text x="88.20" y="180.21">0.1</text>
<text x="88.20" y="154.84">0.2</text>
<text x="88.20" y="129.47">0.3</text>
<text x="88.20" y="104.10">0.4</text>
<text x="88.20" y="78.73">0.5</text>
<text x="88.20" y="53.36">0.6</text>
<text x="88.20" y="27.99">0.7</text>
</g>
<line x1="97.20" x2="97.20" y1="327.60" y2="32.40" />
</g>
</g>
</svg>