<?xml version="1.0"?>
<svg height="360.0" version="1.1" viewBox="0 0 1080.0 360.0" width="1080.0" xmlns:xlink="http://www.w3.org/1999/xlink" xmlns="http://www.w3.org/2000/svg">
<g>
<g>
<g>
<text dominant-baseline="hanging" dx="-36.0" dy="36.0" fill="#0004" font-family="Arial, sans-serif" font-size="36" stroke="none" text-anchor="end" x="982.80" y="57.00">SV1 SV2 weights</text>
</g>
<g>
<text dominant-baseline="hanging" dx="18.0" dy="18.0" fill="#0000aa" font-size="12.0" font-style="italic" stroke="none" text-anchor="beginning" x="98.09" y="32.43">First Singular Vector</text>
</g>
<g>
<text dominant-baseline="hanging" dx="18.0" dy="36.0" fill="#aa0000" font-size="12.0" font-style="italic" stroke="none" text-anchor="beginning" x="98.09" y="32.43">Second Singular Vector</text>
</g>
<polyline fill="none" points="97.20,64.47 122.50,133.06 147.81,245.06 173.11,160.25 198.41,194.80 223.71,219.32 249.02,132.26 274.32,74.15 299.62,82.06 324.93,108.95 350.23,85.84 375.53,112.26 400.83,57.00 426.14,191.64 451.44,233.91 476.74,217.11 502.05,303.00 527.35,115.05 552.65,144.17 577.95,59.57 603.26,82.10 628.56,111.11 653.86,95.82 679.17,69.44 704.47,67.79 729.77,93.52 755.07,128.87 780.38,187.41 805.68,234.23 830.98,146.40 856.29,117.90 881.59,72.77 906.89,83.83 932.19,147.28 957.50,106.37 982.80,80.29" stroke-width="7" stroke="#0000aa" />
<g stroke="black">
<line x1="97.20" x2="97.20" y1="327.60" y2="337.60" />
<line x1="400.83" x2="400.83" y1="327.60" y2="337.60" />
<line x1="704.47" x2="704.47" y1="327.60" y2="337.60" />
<g fill="black" font-family="Arial, sans-serif" font-size="18.0" stroke="none" text-anchor="start" transform="translate(9.0 0.0)">
<text x="97.20" y="348.17">2011</text>
<text x="400.83" y="348.17">2012</text>
<text x="704.47" y="348.17">2013</text>
</g>
<line x1="97.20" x2="982.80" y1="327.60" y2="327.60" />
</g>
<g stroke="#0000aa">
<line x1="97.20" x2="85.20" y1="261.13" y2="261.13" />
<line x1="97.20" x2="85.20" y1="174.90" y2="174.90" />
<line x1="97.20" x2="85.20" y1="88.67" y2="88.67" />
<g fill="#0000aa" font-family="Arial, sans-serif" font-size="18.0" stroke="none" text-anchor="end">
<text x="88.20" y="252.13">-0.3</text>
<text x="88.20" y="165.90">-0.2</text>
<text x="88.20" y="79.67">-0.1</text>
</g>
<line x1="97.20" x2="97.20" y1="327.60" y2="32.40" />
</g>
</g>
<g>
<polyline fill="none" points="97.20,223.36 122.50,242.81 147.81,277.60 173.11,241.84 198.41,197.91 223.71,285.85 249.02,254.37 274.32,208.97 299.62,218.78 324.93,206.54 350.23,228.61 375.53,168.42 400.83,227.38 426.14,238.23 451.44,57.00 476.74,281.05 502.05,303.00 527.35,222.20 552.65,136.81 577.95,222.41 603.26,228.46 628.56,195.60 653.86,170.19 679.17,234.49 704.47,248.85 729.77,210.99 755.07,216.40 780.38,270.64 805.68,152.30 830.98,199.58 856.29,209.03 881.59,228.02 906.89,224.13 932.19,228.99 957.50,227.71 982.80,241.26" stroke-width="7" stroke="#aa0000" />
<g stroke="#0088">
<line x1="97.20" x2="97.20" y1="32.40" y2="32.40" />
<line x1="400.83" x2="400.83" y1="32.40" y2="32.40" />
<line x1="704.47" x2="704.47" y1="32.40" y2="32.40" />
<g fill="none" font-family="Arial, sans-serif" font-size="18.0" stroke="none" text-anchor="start" transform="translate(9.0 0.0)">
<text x="97.20" y="26.14">2011</text>
<text x="400.83" y="26.14">2012</text>
<text x="704.47" y="26.14">2013</text>
</g>
<line x1="97.20" x2="982.80" y1="32.40" y2="32.40" />
</g>
<g stroke="#aa0000">
<line x1="982.80" x2="994.80" y1="301.80" y2="301.80" />
<line x1="982.80" x2="994.80" y1="275.23" y2="275.23" />
<line x1="982.80" x2="994.80" y1="248.65" y2="248.65" />
<line x1="982.80" x2="994.80" y1="222.07" y2="222.07" />
<line x1="982.80" x2="994.80" y1="195.50" y2="195.50" />
<line x1="982.80" x2="994.80" y1="168.92" y2="168.92" />
<line x1="982.80" x2="994.80" y1="142.34" y2="142.34" />
<line x1="982.80" x2="994.80" y1="115.77" y2="115.77" />
<line x1="982.80" x2="994.80" y1="89.19" y2="89.19" />
<line x1="982.80" x2="994.80" y1="62.62" y2="62.62" />
<line x1="982.80" x2="994.80" y1="36.04" y2="36.04" />
<g fill="#aa0000" font-family="Arial, sans-serif" font-size="18.0" stroke="none" text-anchor="beginning">
<text x="991.80" y="292.80">-0.3</text>
<text x="991.80" y="266.23">-0.2</text>
<text x="991.80" y="239.65">-0.1</text>
<text x="991.80" y="213.07">-0.0</text>
<text x="991.80" y="186.50">0.1</text>
<text x="991.80" y="159.92">0.2</text>
<text x="991.80" y="133.34">0.3</text>
<text x="991.80" y="106.77">0.4</text>
<text x="991.80" y="80.19">0.5</text>
<text x="991.80" y="53.62">0.6</text>
<text x="991.80" y="27.04">0.7</text>
</g>
<line x1="982.80" x2="982.80" y1="327.60" y2="32.40" />
</g>
</g>
</g>
</svg>