<?xml version="1.0"?>
<svg height="1300" version="1.1" viewBox="0 0 1800 1300" width="1800" xmlns:xlink="http://www.w3.org/1999/xlink" xmlns="http://www.w3.org/2000/svg">
<g>
<svg height="1300" version="1.1" viewBox="0 0 1800 1300" width="1800" xmlns:xlink="http://www.w3.org/1999/xlink" xmlns="http://www.w3.org/2000/svg">
<g>
<g>
<text dominant-baseline="hanging" dx="50.0" dy="150.0" fill="green" font-size="50.0" font-style="italic" stroke-width="1.0" text-anchor="beginning" text="Phuket Rain" x="181.44" y="130.10">Phuket Rain</text>
</g>
<g>
<text dominant-baseline="hanging" dx="50.0" dy="216.66666666666669" fill="red" font-size="50.0" font-style="italic" stroke-width="1.0" text-anchor="beginning" text="Nakhon Rain" x="181.44" y="130.10">Nakhon Rain</text>
</g>
<g>
<text dominant-baseline="text-bottom" dy="-25.0" fill="black" font-family="Arial, sans-serif" font-size="50.0" font-style="italic" stroke="none" text-anchor="middle" text="Year" x="900.00" y="131.04">Year</text>
</g>
<g>
<text dominant-baseline="hanging" dx="50.0" dy="50.0" fill="black" font-family="Arial, sans-serif" font-size="50.0" font-style="italic" stroke="none" text-anchor="beginning" text-orientation="sideways" text="" x="180.00" y="131.04">
</text>
</g>
<polyline fill="none" points="180.00,1128.49 199.46,891.15 218.92,879.16 238.38,909.96 257.84,987.41 277.30,992.52 296.76,935.73 316.22,1001.88 335.68,925.53 355.14,925.40 374.59,989.82 394.05,885.11 413.51,959.93 432.97,885.55 452.43,1024.59 471.89,907.07 491.35,789.48 510.81,997.48 530.27,1019.90 549.73,884.05 569.19,938.26 588.65,919.78 608.11,1009.47 627.57,923.91 647.03,748.55 666.49,1000.55 685.95,913.30 705.41,948.43 724.86,1030.48 744.32,1038.84 763.78,970.26 783.24,994.48 802.70,1017.30 822.16,982.37 841.62,926.34 861.08,976.06 880.54,968.26 900.00,960.38 919.46,894.62 938.92,1059.60 958.38,972.47 977.84,1024.35 997.30,968.88 1016.76,901.19 1036.22,977.91 1055.68,938.69 1075.14,953.51 1094.59,1001.80 1114.05,1053.97 1133.51,1054.32 1152.97,1029.33 1172.43,1063.44 1191.89,859.09 1211.35,915.80 1230.81,991.35 1250.27,1016.01 1269.73,961.59 1289.19,904.30 1308.65,880.74 1328.11,1012.03 1347.57,647.27 1367.03,829.80 1386.49,987.06 1405.95,908.56 1425.41,968.35 1444.86,946.84 1464.32,660.67 1483.78,879.04 1503.24,889.45 1522.70,1022.13 1542.16,913.15 1561.62,828.57 1581.08,951.40 1600.54,924.37 1620.00,847.74" stroke-dasharray="1.0 1.0" stroke-width="1.0" stroke="red" />
<g>
<circle cx="180.00" cy="1128.49" fill="red" r="10" radius="10" stroke-width="1.0" stroke="#000f" />
<circle cx="199.46" cy="891.15" fill="red" r="10" radius="10" stroke-width="1.0" stroke="#000f" />
<circle cx="218.92" cy="879.16" fill="red" r="10" radius="10" stroke-width="1.0" stroke="#000f" />
<circle cx="238.38" cy="909.96" fill="red" r="10" radius="10" stroke-width="1.0" stroke="#000f" />
<circle cx="257.84" cy="987.41" fill="red" r="10" radius="10" stroke-width="1.0" stroke="#000f" />
<circle cx="277.30" cy="992.52" fill="red" r="10" radius="10" stroke-width="1.0" stroke="#000f" />
<circle cx="296.76" cy="935.73" fill="red" r="10" radius="10" stroke-width="1.0" stroke="#000f" />
<circle cx="316.22" cy="1001.88" fill="red" r="10" radius="10" stroke-width="1.0" stroke="#000f" />
<circle cx="335.68" cy="925.53" fill="red" r="10" radius="10" stroke-width="1.0" stroke="#000f" />
<circle cx="355.14" cy="925.40" fill="red" r="10" radius="10" stroke-width="1.0" stroke="#000f" />
<circle cx="374.59" cy="989.82" fill="red" r="10" radius="10" stroke-width="1.0" stroke="#000f" />
<circle cx="394.05" cy="885.11" fill="red" r="10" radius="10" stroke-width="1.0" stroke="#000f" />
<circle cx="413.51" cy="959.93" fill="red" r="10" radius="10" stroke-width="1.0" stroke="#000f" />
<circle cx="432.97" cy="885.55" fill="red" r="10" radius="10" stroke-width="1.0" stroke="#000f" />
<circle cx="452.43" cy="1024.59" fill="red" r="10" radius="10" stroke-width="1.0" stroke="#000f" />
<circle cx="471.89" cy="907.07" fill="red" r="10" radius="10" stroke-width="1.0" stroke="#000f" />
<circle cx="491.35" cy="789.48" fill="red" r="10" radius="10" stroke-width="1.0" stroke="#000f" />
<circle cx="510.81" cy="997.48" fill="red" r="10" radius="10" stroke-width="1.0" stroke="#000f" />
<circle cx="530.27" cy="1019.90" fill="red" r="10" radius="10" stroke-width="1.0" stroke="#000f" />
<circle cx="549.73" cy="884.05" fill="red" r="10" radius="10" stroke-width="1.0" stroke="#000f" />
<circle cx="569.19" cy="938.26" fill="red" r="10" radius="10" stroke-width="1.0" stroke="#000f" />
<circle cx="588.65" cy="919.78" fill="red" r="10" radius="10" stroke-width="1.0" stroke="#000f" />
<circle cx="608.11" cy="1009.47" fill="red" r="10" radius="10" stroke-width="1.0" stroke="#000f" />
<circle cx="627.57" cy="923.91" fill="red" r="10" radius="10" stroke-width="1.0" stroke="#000f" />
<circle cx="647.03" cy="748.55" fill="red" r="10" radius="10" stroke-width="1.0" stroke="#000f" />
<circle cx="666.49" cy="1000.55" fill="red" r="10" radius="10" stroke-width="1.0" stroke="#000f" />
<circle cx="685.95" cy="913.30" fill="red" r="10" radius="10" stroke-width="1.0" stroke="#000f" />
<circle cx="705.41" cy="948.43" fill="red" r="10" radius="10" stroke-width="1.0" stroke="#000f" />
<circle cx="724.86" cy="1030.48" fill="red" r="10" radius="10" stroke-width="1.0" stroke="#000f" />
<circle cx="744.32" cy="1038.84" fill="red" r="10" radius="10" stroke-width="1.0" stroke="#000f" />
<circle cx="763.78" cy="970.26" fill="red" r="10" radius="10" stroke-width="1.0" stroke="#000f" />
<circle cx="783.24" cy="994.48" fill="red" r="10" radius="10" stroke-width="1.0" stroke="#000f" />
<circle cx="802.70" cy="1017.30" fill="red" r="10" radius="10" stroke-width="1.0" stroke="#000f" />
<circle cx="822.16" cy="982.37" fill="red" r="10" radius="10" stroke-width="1.0" stroke="#000f" />
<circle cx="841.62" cy="926.34" fill="red" r="10" radius="10" stroke-width="1.0" stroke="#000f" />
<circle cx="861.08" cy="976.06" fill="red" r="10" radius="10" stroke-width="1.0" stroke="#000f" />
<circle cx="880.54" cy="968.26" fill="red" r="10" radius="10" stroke-width="1.0" stroke="#000f" />
<circle cx="900.00" cy="960.38" fill="red" r="10" radius="10" stroke-width="1.0" stroke="#000f" />
<circle cx="919.46" cy="894.62" fill="red" r="10" radius="10" stroke-width="1.0" stroke="#000f" />
<circle cx="938.92" cy="1059.60" fill="red" r="10" radius="10" stroke-width="1.0" stroke="#000f" />
<circle cx="958.38" cy="972.47" fill="red" r="10" radius="10" stroke-width="1.0" stroke="#000f" />
<circle cx="977.84" cy="1024.35" fill="red" r="10" radius="10" stroke-width="1.0" stroke="#000f" />
<circle cx="997.30" cy="968.88" fill="red" r="10" radius="10" stroke-width="1.0" stroke="#000f" />
<circle cx="1016.76" cy="901.19" fill="red" r="10" radius="10" stroke-width="1.0" stroke="#000f" />
<circle cx="1036.22" cy="977.91" fill="red" r="10" radius="10" stroke-width="1.0" stroke="#000f" />
<circle cx="1055.68" cy="938.69" fill="red" r="10" radius="10" stroke-width="1.0" stroke="#000f" />
<circle cx="1075.14" cy="953.51" fill="red" r="10" radius="10" stroke-width="1.0" stroke="#000f" />
<circle cx="1094.59" cy="1001.80" fill="red" r="10" radius="10" stroke-width="1.0" stroke="#000f" />
<circle cx="1114.05" cy="1053.97" fill="red" r="10" radius="10" stroke-width="1.0" stroke="#000f" />
<circle cx="1133.51" cy="1054.32" fill="red" r="10" radius="10" stroke-width="1.0" stroke="#000f" />
<circle cx="1152.97" cy="1029.33" fill="red" r="10" radius="10" stroke-width="1.0" stroke="#000f" />
<circle cx="1172.43" cy="1063.44" fill="red" r="10" radius="10" stroke-width="1.0" stroke="#000f" />
<circle cx="1191.89" cy="859.09" fill="red" r="10" radius="10" stroke-width="1.0" stroke="#000f" />
<circle cx="1211.35" cy="915.80" fill="red" r="10" radius="10" stroke-width="1.0" stroke="#000f" />
<circle cx="1230.81" cy="991.35" fill="red" r="10" radius="10" stroke-width="1.0" stroke="#000f" />
<circle cx="1250.27" cy="1016.01" fill="red" r="10" radius="10" stroke-width="1.0" stroke="#000f" />
<circle cx="1269.73" cy="961.59" fill="red" r="10" radius="10" stroke-width="1.0" stroke="#000f" />
<circle cx="1289.19" cy="904.30" fill="red" r="10" radius="10" stroke-width="1.0" stroke="#000f" />
<circle cx="1308.65" cy="880.74" fill="red" r="10" radius="10" stroke-width="1.0" stroke="#000f" />
<circle cx="1328.11" cy="1012.03" fill="red" r="10" radius="10" stroke-width="1.0" stroke="#000f" />
<circle cx="1347.57" cy="647.27" fill="red" r="10" radius="10" stroke-width="1.0" stroke="#000f" />
<circle cx="1367.03" cy="829.80" fill="red" r="10" radius="10" stroke-width="1.0" stroke="#000f" />
<circle cx="1386.49" cy="987.06" fill="red" r="10" radius="10" stroke-width="1.0" stroke="#000f" />
<circle cx="1405.95" cy="908.56" fill="red" r="10" radius="10" stroke-width="1.0" stroke="#000f" />
<circle cx="1425.41" cy="968.35" fill="red" r="10" radius="10" stroke-width="1.0" stroke="#000f" />
<circle cx="1444.86" cy="946.84" fill="red" r="10" radius="10" stroke-width="1.0" stroke="#000f" />
<circle cx="1464.32" cy="660.67" fill="red" r="10" radius="10" stroke-width="1.0" stroke="#000f" />
<circle cx="1483.78" cy="879.04" fill="red" r="10" radius="10" stroke-width="1.0" stroke="#000f" />
<circle cx="1503.24" cy="889.45" fill="red" r="10" radius="10" stroke-width="1.0" stroke="#000f" />
<circle cx="1522.70" cy="1022.13" fill="red" r="10" radius="10" stroke-width="1.0" stroke="#000f" />
<circle cx="1542.16" cy="913.15" fill="red" r="10" radius="10" stroke-width="1.0" stroke="#000f" />
<circle cx="1561.62" cy="828.57" fill="red" r="10" radius="10" stroke-width="1.0" stroke="#000f" />
<circle cx="1581.08" cy="951.40" fill="red" r="10" radius="10" stroke-width="1.0" stroke="#000f" />
<circle cx="1600.54" cy="924.37" fill="red" r="10" radius="10" stroke-width="1.0" stroke="#000f" />
<circle cx="1620.00" cy="847.74" fill="red" r="10" radius="10" stroke-width="1.0" stroke="#000f" />
</g>
<polyline fill="none" points="199.46,801.03 218.92,758.53 238.38,736.44 257.84,841.32 277.30,839.93 296.76,767.78 316.22,895.71 335.68,767.56 355.14,830.71 374.59,869.00 394.05,838.12 413.51,851.72 432.97,779.34 452.43,840.25 471.89,752.77 491.35,888.99 510.81,844.24 530.27,824.55 549.73,808.80 569.19,746.78 588.65,896.54 608.11,726.58 627.57,755.92 647.03,767.34 666.49,882.27 685.95,891.11 705.41,853.23 724.86,876.56 744.32,827.52 763.78,938.25 783.24,854.37 802.70,820.03 822.16,891.51 841.62,852.26 861.08,795.23 880.54,875.07 900.00,783.43 919.46,961.56 938.92,839.66 958.38,904.19 977.84,930.61 997.30,770.83 1016.76,790.26 1036.22,823.86 1055.68,858.66 1075.14,919.18 1094.59,759.02 1114.05,1144.80 1133.51,942.51 1152.97,970.34 1172.43,912.68 1191.89,807.04 1211.35,871.40 1230.81,875.93 1250.27,838.92 1269.73,758.78 1289.19,844.03 1308.65,806.71 1328.11,769.57 1347.57,741.87 1367.03,726.87 1386.49,771.65 1405.95,776.43 1425.41,784.34 1444.86,637.40 1464.32,748.67 1483.78,768.19 1503.24,825.55 1522.70,769.03 1542.16,775.51 1561.62,706.80 1581.08,834.73 1600.54,769.40 1620.00,946.94" stroke-dasharray="1.0 1.0" stroke-width="1.0" stroke="green" />
<g>
<circle cx="199.46" cy="801.03" fill="green" r="10" radius="10" stroke-width="1.0" stroke="#000f" />
<circle cx="218.92" cy="758.53" fill="green" r="10" radius="10" stroke-width="1.0" stroke="#000f" />
<circle cx="238.38" cy="736.44" fill="green" r="10" radius="10" stroke-width="1.0" stroke="#000f" />
<circle cx="257.84" cy="841.32" fill="green" r="10" radius="10" stroke-width="1.0" stroke="#000f" />
<circle cx="277.30" cy="839.93" fill="green" r="10" radius="10" stroke-width="1.0" stroke="#000f" />
<circle cx="296.76" cy="767.78" fill="green" r="10" radius="10" stroke-width="1.0" stroke="#000f" />
<circle cx="316.22" cy="895.71" fill="green" r="10" radius="10" stroke-width="1.0" stroke="#000f" />
<circle cx="335.68" cy="767.56" fill="green" r="10" radius="10" stroke-width="1.0" stroke="#000f" />
<circle cx="355.14" cy="830.71" fill="green" r="10" radius="10" stroke-width="1.0" stroke="#000f" />
<circle cx="374.59" cy="869.00" fill="green" r="10" radius="10" stroke-width="1.0" stroke="#000f" />
<circle cx="394.05" cy="838.12" fill="green" r="10" radius="10" stroke-width="1.0" stroke="#000f" />
<circle cx="413.51" cy="851.72" fill="green" r="10" radius="10" stroke-width="1.0" stroke="#000f" />
<circle cx="432.97" cy="779.34" fill="green" r="10" radius="10" stroke-width="1.0" stroke="#000f" />
<circle cx="452.43" cy="840.25" fill="green" r="10" radius="10" stroke-width="1.0" stroke="#000f" />
<circle cx="471.89" cy="752.77" fill="green" r="10" radius="10" stroke-width="1.0" stroke="#000f" />
<circle cx="491.35" cy="888.99" fill="green" r="10" radius="10" stroke-width="1.0" stroke="#000f" />
<circle cx="510.81" cy="844.24" fill="green" r="10" radius="10" stroke-width="1.0" stroke="#000f" />
<circle cx="530.27" cy="824.55" fill="green" r="10" radius="10" stroke-width="1.0" stroke="#000f" />
<circle cx="549.73" cy="808.80" fill="green" r="10" radius="10" stroke-width="1.0" stroke="#000f" />
<circle cx="569.19" cy="746.78" fill="green" r="10" radius="10" stroke-width="1.0" stroke="#000f" />
<circle cx="588.65" cy="896.54" fill="green" r="10" radius="10" stroke-width="1.0" stroke="#000f" />
<circle cx="608.11" cy="726.58" fill="green" r="10" radius="10" stroke-width="1.0" stroke="#000f" />
<circle cx="627.57" cy="755.92" fill="green" r="10" radius="10" stroke-width="1.0" stroke="#000f" />
<circle cx="647.03" cy="767.34" fill="green" r="10" radius="10" stroke-width="1.0" stroke="#000f" />
<circle cx="666.49" cy="882.27" fill="green" r="10" radius="10" stroke-width="1.0" stroke="#000f" />
<circle cx="685.95" cy="891.11" fill="green" r="10" radius="10" stroke-width="1.0" stroke="#000f" />
<circle cx="705.41" cy="853.23" fill="green" r="10" radius="10" stroke-width="1.0" stroke="#000f" />
<circle cx="724.86" cy="876.56" fill="green" r="10" radius="10" stroke-width="1.0" stroke="#000f" />
<circle cx="744.32" cy="827.52" fill="green" r="10" radius="10" stroke-width="1.0" stroke="#000f" />
<circle cx="763.78" cy="938.25" fill="green" r="10" radius="10" stroke-width="1.0" stroke="#000f" />
<circle cx="783.24" cy="854.37" fill="green" r="10" radius="10" stroke-width="1.0" stroke="#000f" />
<circle cx="802.70" cy="820.03" fill="green" r="10" radius="10" stroke-width="1.0" stroke="#000f" />
<circle cx="822.16" cy="891.51" fill="green" r="10" radius="10" stroke-width="1.0" stroke="#000f" />
<circle cx="841.62" cy="852.26" fill="green" r="10" radius="10" stroke-width="1.0" stroke="#000f" />
<circle cx="861.08" cy="795.23" fill="green" r="10" radius="10" stroke-width="1.0" stroke="#000f" />
<circle cx="880.54" cy="875.07" fill="green" r="10" radius="10" stroke-width="1.0" stroke="#000f" />
<circle cx="900.00" cy="783.43" fill="green" r="10" radius="10" stroke-width="1.0" stroke="#000f" />
<circle cx="919.46" cy="961.56" fill="green" r="10" radius="10" stroke-width="1.0" stroke="#000f" />
<circle cx="938.92" cy="839.66" fill="green" r="10" radius="10" stroke-width="1.0" stroke="#000f" />
<circle cx="958.38" cy="904.19" fill="green" r="10" radius="10" stroke-width="1.0" stroke="#000f" />
<circle cx="977.84" cy="930.61" fill="green" r="10" radius="10" stroke-width="1.0" stroke="#000f" />
<circle cx="997.30" cy="770.83" fill="green" r="10" radius="10" stroke-width="1.0" stroke="#000f" />
<circle cx="1016.76" cy="790.26" fill="green" r="10" radius="10" stroke-width="1.0" stroke="#000f" />
<circle cx="1036.22" cy="823.86" fill="green" r="10" radius="10" stroke-width="1.0" stroke="#000f" />
<circle cx="1055.68" cy="858.66" fill="green" r="10" radius="10" stroke-width="1.0" stroke="#000f" />
<circle cx="1075.14" cy="919.18" fill="green" r="10" radius="10" stroke-width="1.0" stroke="#000f" />
<circle cx="1094.59" cy="759.02" fill="green" r="10" radius="10" stroke-width="1.0" stroke="#000f" />
<circle cx="1114.05" cy="1144.80" fill="green" r="10" radius="10" stroke-width="1.0" stroke="#000f" />
<circle cx="1133.51" cy="942.51" fill="green" r="10" radius="10" stroke-width="1.0" stroke="#000f" />
<circle cx="1152.97" cy="970.34" fill="green" r="10" radius="10" stroke-width="1.0" stroke="#000f" />
<circle cx="1172.43" cy="912.68" fill="green" r="10" radius="10" stroke-width="1.0" stroke="#000f" />
<circle cx="1191.89" cy="807.04" fill="green" r="10" radius="10" stroke-width="1.0" stroke="#000f" />
<circle cx="1211.35" cy="871.40" fill="green" r="10" radius="10" stroke-width="1.0" stroke="#000f" />
<circle cx="1230.81" cy="875.93" fill="green" r="10" radius="10" stroke-width="1.0" stroke="#000f" />
<circle cx="1250.27" cy="838.92" fill="green" r="10" radius="10" stroke-width="1.0" stroke="#000f" />
<circle cx="1269.73" cy="758.78" fill="green" r="10" radius="10" stroke-width="1.0" stroke="#000f" />
<circle cx="1289.19" cy="844.03" fill="green" r="10" radius="10" stroke-width="1.0" stroke="#000f" />
<circle cx="1308.65" cy="806.71" fill="green" r="10" radius="10" stroke-width="1.0" stroke="#000f" />
<circle cx="1328.11" cy="769.57" fill="green" r="10" radius="10" stroke-width="1.0" stroke="#000f" />
<circle cx="1347.57" cy="741.87" fill="green" r="10" radius="10" stroke-width="1.0" stroke="#000f" />
<circle cx="1367.03" cy="726.87" fill="green" r="10" radius="10" stroke-width="1.0" stroke="#000f" />
<circle cx="1386.49" cy="771.65" fill="green" r="10" radius="10" stroke-width="1.0" stroke="#000f" />
<circle cx="1405.95" cy="776.43" fill="green" r="10" radius="10" stroke-width="1.0" stroke="#000f" />
<circle cx="1425.41" cy="784.34" fill="green" r="10" radius="10" stroke-width="1.0" stroke="#000f" />
<circle cx="1444.86" cy="637.40" fill="green" r="10" radius="10" stroke-width="1.0" stroke="#000f" />
<circle cx="1464.32" cy="748.67" fill="green" r="10" radius="10" stroke-width="1.0" stroke="#000f" />
<circle cx="1483.78" cy="768.19" fill="green" r="10" radius="10" stroke-width="1.0" stroke="#000f" />
<circle cx="1503.24" cy="825.55" fill="green" r="10" radius="10" stroke-width="1.0" stroke="#000f" />
<circle cx="1522.70" cy="769.03" fill="green" r="10" radius="10" stroke-width="1.0" stroke="#000f" />
<circle cx="1542.16" cy="775.51" fill="green" r="10" radius="10" stroke-width="1.0" stroke="#000f" />
<circle cx="1561.62" cy="706.80" fill="green" r="10" radius="10" stroke-width="1.0" stroke="#000f" />
<circle cx="1581.08" cy="834.73" fill="green" r="10" radius="10" stroke-width="1.0" stroke="#000f" />
<circle cx="1600.54" cy="769.40" fill="green" r="10" radius="10" stroke-width="1.0" stroke="#000f" />
<circle cx="1620.00" cy="946.94" fill="green" r="10" radius="10" stroke-width="1.0" stroke="#000f" />
</g>
<g stroke="black">
<line x1="355.14" x2="355.14" y1="1170.00" y2="1180.00" />
<line x1="549.73" x2="549.73" y1="1170.00" y2="1180.00" />
<line x1="744.32" x2="744.32" y1="1170.00" y2="1180.00" />
<line x1="938.92" x2="938.92" y1="1170.00" y2="1180.00" />
<line x1="1133.51" x2="1133.51" y1="1170.00" y2="1180.00" />
<line x1="1328.11" x2="1328.11" y1="1170.00" y2="1180.00" />
<line x1="1522.70" x2="1522.70" y1="1170.00" y2="1180.00" />
<line x1="180.00" x2="180.00" y1="1170.00" y2="1175.00" />
<line x1="199.46" x2="199.46" y1="1170.00" y2="1175.00" />
<line x1="218.92" x2="218.92" y1="1170.00" y2="1175.00" />
<line x1="238.38" x2="238.38" y1="1170.00" y2="1175.00" />
<line x1="257.84" x2="257.84" y1="1170.00" y2="1175.00" />
<line x1="277.30" x2="277.30" y1="1170.00" y2="1175.00" />
<line x1="296.76" x2="296.76" y1="1170.00" y2="1175.00" />
<line x1="316.22" x2="316.22" y1="1170.00" y2="1175.00" />
<line x1="335.68" x2="335.68" y1="1170.00" y2="1175.00" />
<line x1="355.14" x2="355.14" y1="1170.00" y2="1175.00" />
<line x1="374.59" x2="374.59" y1="1170.00" y2="1175.00" />
<line x1="394.05" x2="394.05" y1="1170.00" y2="1175.00" />
<line x1="413.51" x2="413.51" y1="1170.00" y2="1175.00" />
<line x1="432.97" x2="432.97" y1="1170.00" y2="1175.00" />
<line x1="452.43" x2="452.43" y1="1170.00" y2="1175.00" />
<line x1="471.89" x2="471.89" y1="1170.00" y2="1175.00" />
<line x1="491.35" x2="491.35" y1="1170.00" y2="1175.00" />
<line x1="510.81" x2="510.81" y1="1170.00" y2="1175.00" />
<line x1="530.27" x2="530.27" y1="1170.00" y2="1175.00" />
<line x1="549.73" x2="549.73" y1="1170.00" y2="1175.00" />
<line x1="569.19" x2="569.19" y1="1170.00" y2="1175.00" />
<line x1="588.65" x2="588.65" y1="1170.00" y2="1175.00" />
<line x1="608.11" x2="608.11" y1="1170.00" y2="1175.00" />
<line x1="627.57" x2="627.57" y1="1170.00" y2="1175.00" />
<line x1="647.03" x2="647.03" y1="1170.00" y2="1175.00" />
<line x1="666.49" x2="666.49" y1="1170.00" y2="1175.00" />
<line x1="685.95" x2="685.95" y1="1170.00" y2="1175.00" />
<line x1="705.41" x2="705.41" y1="1170.00" y2="1175.00" />
<line x1="724.86" x2="724.86" y1="1170.00" y2="1175.00" />
<line x1="744.32" x2="744.32" y1="1170.00" y2="1175.00" />
<line x1="763.78" x2="763.78" y1="1170.00" y2="1175.00" />
<line x1="783.24" x2="783.24" y1="1170.00" y2="1175.00" />
<line x1="802.70" x2="802.70" y1="1170.00" y2="1175.00" />
<line x1="822.16" x2="822.16" y1="1170.00" y2="1175.00" />
<line x1="841.62" x2="841.62" y1="1170.00" y2="1175.00" />
<line x1="861.08" x2="861.08" y1="1170.00" y2="1175.00" />
<line x1="880.54" x2="880.54" y1="1170.00" y2="1175.00" />
<line x1="900.00" x2="900.00" y1="1170.00" y2="1175.00" />
<line x1="919.46" x2="919.46" y1="1170.00" y2="1175.00" />
<line x1="938.92" x2="938.92" y1="1170.00" y2="1175.00" />
<line x1="958.38" x2="958.38" y1="1170.00" y2="1175.00" />
<line x1="977.84" x2="977.84" y1="1170.00" y2="1175.00" />
<line x1="997.30" x2="997.30" y1="1170.00" y2="1175.00" />
<line x1="1016.76" x2="1016.76" y1="1170.00" y2="1175.00" />
<line x1="1036.22" x2="1036.22" y1="1170.00" y2="1175.00" />
<line x1="1055.68" x2="1055.68" y1="1170.00" y2="1175.00" />
<line x1="1075.14" x2="1075.14" y1="1170.00" y2="1175.00" />
<line x1="1094.59" x2="1094.59" y1="1170.00" y2="1175.00" />
<line x1="1114.05" x2="1114.05" y1="1170.00" y2="1175.00" />
<line x1="1133.51" x2="1133.51" y1="1170.00" y2="1175.00" />
<line x1="1152.97" x2="1152.97" y1="1170.00" y2="1175.00" />
<line x1="1172.43" x2="1172.43" y1="1170.00" y2="1175.00" />
<line x1="1191.89" x2="1191.89" y1="1170.00" y2="1175.00" />
<line x1="1211.35" x2="1211.35" y1="1170.00" y2="1175.00" />
<g fill="black" font-family="Arial, sans-serif" font-size="50.0" stroke="none" text-anchor="start" transform="translate(25.0 0.0)">
<text x="355.14" y="1227.14">1960</text>
<text x="549.73" y="1227.14">1970</text>
<text x="744.32" y="1227.14">1980</text>
<text x="938.92" y="1227.14">1990</text>
<text x="1133.51" y="1227.14">2000</text>
<text x="1328.11" y="1227.14">2010</text>
<text x="1522.70" y="1227.14">2020</text>
</g>
<line x1="180.00" x2="1620.00" y1="1170.00" y2="1170.00" />
</g>
<g stroke="black">
<line x1="180.00" x2="146.67" y1="1170.00" y2="1170.00" />
<line x1="180.00" x2="146.67" y1="1036.02" y2="1036.02" />
<line x1="180.00" x2="146.67" y1="902.03" y2="902.03" />
<line x1="180.00" x2="146.67" y1="768.05" y2="768.05" />
<line x1="180.00" x2="146.67" y1="634.06" y2="634.06" />
<line x1="180.00" x2="146.67" y1="500.08" y2="500.08" />
<line x1="180.00" x2="146.67" y1="366.09" y2="366.09" />
<line x1="180.00" x2="146.67" y1="232.11" y2="232.11" />
<g fill="black" font-family="Arial, sans-serif" font-size="50.0" stroke="none" text-anchor="end">
<text x="155.00" y="1145.00">0</text>
<text x="155.00" y="1011.02">1000</text>
<text x="155.00" y="877.03">2000</text>
<text x="155.00" y="743.05">3000</text>
<text x="155.00" y="609.06">4000</text>
<text x="155.00" y="475.08">5000</text>
<text x="155.00" y="341.09">6000</text>
<text x="155.00" y="207.11">7000</text>
</g>
<line x1="180.00" x2="180.00" y1="1170.00" y2="130.00" />
</g>
</g>
</svg>
<svg height="1300" version="1.1" viewBox="0 0 1800 1300" width="1800" xmlns:xlink="http://www.w3.org/1999/xlink" xmlns="http://www.w3.org/2000/svg">
<g>
<g>
<text dominant-baseline="hanging" dx="-50.0" dy="50.0" fill="#0088" font-family="Arial, sans-serif" font-size="50.0" font-style="italic" stroke="none" text-anchor="end" text-orientation="sideways" text="d18O" x="1620.00" y="130.00">d18O</text>
</g>
<polyline fill="none" points="-5636.00,840.67 -5614.67,892.67 -5590.67,732.33 -5569.33,728.00 -5545.33,676.00 -5524.00,806.00 -5500.00,910.00 -5478.67,879.67 -5454.67,840.67 -5433.33,853.67 -5412.00,840.67 -5388.00,875.33 -5366.67,801.67 -5345.33,814.67 -5324.00,732.33 -5300.00,758.33 -5278.67,853.67 -5257.33,780.00 -5238.67,814.67 -5217.33,853.67 -5196.00,888.33 -5174.67,758.33 -5156.00,801.67 -5137.33,684.67 -5116.00,832.00 -5097.33,953.33 -5078.67,1105.00 -5060.00,1083.33 -5041.33,832.00 -5025.33,788.67 -5006.67,936.00 -4990.67,801.67 -4974.67,814.67 -4958.67,836.33 -4942.67,918.67 -4926.67,806.00 -4913.33,905.67 -4897.33,823.33 -4884.00,823.33 -4870.67,728.00 -4857.33,784.33 -4846.67,931.67 -4833.33,832.00 -4820.00,966.33 -4809.33,892.67 -4796.00,845.00 -4785.33,793.00 -4774.67,836.33 -4764.00,719.33 -4750.67,641.33 -4740.00,749.67 -4729.33,853.67 -4718.67,823.33 -4708.00,914.33 -4697.33,836.33 -4686.67,836.33 -4676.00,905.67 -4665.33,827.67 -4654.67,931.67 -4644.00,979.33 -4633.33,715.00 -4622.67,771.33 -4612.00,715.00 -4601.33,862.33 -4588.00,992.33 -4577.33,923.00 -4553.33,849.33 -4540.00,892.67 -4526.67,1001.00 -4516.00,1031.33 -4502.67,858.00 -4489.33,897.00 -4476.00,823.33 -4460.00,914.33 -4446.67,819.00 -4433.33,676.00 -4420.00,949.00 -4404.00,715.00 -4390.67,689.00 -4377.33,897.00 -4361.33,979.33 -4348.00,832.00 -4332.00,788.67 -4318.67,741.00 -4302.67,845.00 -4289.33,814.67 -4273.33,780.00 -4257.33,684.67 -4244.00,819.00 -4228.00,910.00 -4214.67,771.33 -4198.67,793.00 -4185.33,676.00 -4172.00,689.00 -4156.00,797.33 -4142.67,645.67 -4129.33,819.00 -4113.33,754.00 -4100.00,684.67 -4086.67,771.33 -4073.33,901.33 -4060.00,879.67 -4046.67,823.33 -4030.67,927.33 -4017.33,1057.33 -4004.00,1105.00 -3990.67,992.33 -3977.33,983.67 -3964.00,832.00 -3948.00,819.00 -3934.67,910.00 -3921.33,923.00 -3908.00,823.33 -3894.67,775.67 -3881.33,784.33 -3868.00,806.00 -3854.67,801.67 -3841.33,762.67 -3828.00,728.00 -3814.67,810.33 -3801.33,715.00 -3774.67,697.67 -3764.00,814.67 -3750.67,680.33 -3737.33,758.33 -3724.00,784.33 -3713.33,758.33 -3700.00,684.67 -3689.33,624.00 -3676.00,749.67 -3665.33,745.33 -3654.67,710.67 -3641.33,710.67 -3630.67,788.67 -3620.00,736.67 -3609.33,632.67 -3596.00,650.00 -3585.33,663.00 -3574.67,684.67 -3564.00,780.00 -3542.67,650.00 -3532.00,762.67 -3521.33,741.00 -3510.67,723.67 -3500.00,654.33 -3486.67,793.00 -3476.00,797.33 -3465.33,671.67 -3454.67,710.67 -3444.00,576.33 -3433.33,797.33 -3420.00,684.67 -3409.33,676.00 -3398.67,706.33 -3385.33,697.67 -3374.67,654.33 -3361.33,585.00 -3350.67,667.33 -3337.33,806.00 -3326.67,875.33 -3313.33,719.33 -3300.00,884.00 -3286.67,780.00 -3273.33,754.00 -3260.00,806.00 -3246.67,693.33 -3230.67,862.33 -3217.33,632.67 -3201.33,797.33 -3188.00,862.33 -3172.00,624.00 -3156.00,710.67 -3142.67,667.33 -3126.67,814.67 -3110.67,697.67 -3094.67,671.67 -3081.33,598.00 -3065.33,654.33 -3052.00,645.67 -3036.00,684.67 -3022.67,598.00 -3006.67,606.67 -2993.33,706.33 -2980.00,611.00 -2966.67,641.33 -2953.33,684.67 -2940.00,671.67 -2926.67,736.67 -2916.00,784.33 -2902.67,723.67 -2892.00,745.33 -2878.67,728.00 -2868.00,598.00 -2857.33,628.33 -2844.00,567.67 -2833.33,736.67 -2822.67,736.67 -2812.00,671.67 -2801.33,801.67 -2790.67,663.00 -2780.00,797.33 -2769.33,632.67 -2758.67,632.67 -2748.00,632.67 -2740.00,810.33 -2729.33,728.00 -2718.67,624.00 -2708.00,658.67 -2697.33,745.33 -2689.33,671.67 -2678.67,918.67 -2668.00,697.67 -2657.33,715.00 -2649.33,758.33 -2638.67,845.00 -2628.00,897.00 -2617.33,849.33 -2606.67,641.33 -2598.67,801.67 -2588.00,697.67 -2577.33,927.33 -2566.67,845.00 -2556.00,905.67 -2545.33,628.33 -2524.00,697.67 -2513.33,775.67 -2500.00,671.67 -2489.33,598.00 -2478.67,671.67 -2465.33,966.33 -2454.67,1044.33 -2441.33,554.67 -2430.67,810.33 -2417.33,554.67 -2406.67,576.33 -2393.33,788.67 -2380.00,892.67 -2366.67,684.67 -2353.33,858.00 -2337.33,923.00 -2324.00,819.00 -2308.00,819.00 -2294.67,606.67 -2278.67,645.67 -2262.67,884.00 -2246.67,806.00 -2230.67,767.00 -2212.00,845.00 -2196.00,845.00 -2180.00,836.33 -2161.33,749.67 -2145.33,762.67 -2126.67,879.67 -2108.00,676.00 -2092.00,507.00 -2073.33,663.00 -2054.67,754.00 -2038.67,871.00 -2020.00,767.00 -2001.33,901.33 -1985.33,762.67 -1966.67,879.67 -1950.67,797.33 -1932.00,897.00 -1916.00,1053.00 -1897.33,840.67 -1881.33,910.00 -1862.67,758.33 -1846.67,793.00 -1830.67,754.00 -1814.67,827.67 -1798.67,832.00 -1782.67,784.33 -1769.33,676.00 -1753.33,702.00 -1740.00,732.33 -1726.67,745.33 -1710.67,910.00 -1697.33,819.00 -1673.33,784.33 -1662.67,836.33 -1649.33,788.67 -1638.67,871.00 -1628.00,797.33 -1617.33,806.00 -1606.67,858.00 -1596.00,684.67 -1585.33,931.67 -1574.67,849.33 -1566.67,775.67 -1556.00,715.00 -1545.33,723.67 -1534.67,723.67 -1526.67,693.33 -1516.00,832.00 -1508.00,827.67 -1497.33,853.67 -1486.67,927.33 -1478.67,676.00 -1468.00,814.67 -1457.33,784.33 -1446.67,853.67 -1436.00,784.33 -1425.33,762.67 -1414.67,901.33 -1404.00,784.33 -1393.33,918.67 -1382.67,788.67 -1369.33,801.67 -1358.67,953.33 -1345.33,888.33 -1332.00,1022.67 -1318.67,892.67 -1308.00,810.33 -1294.67,1040.00 -1281.33,875.33 -1268.00,871.00 -1254.67,944.67 -1241.33,814.67 -1228.00,745.33 -1214.67,663.00 -1201.33,680.33 -1188.00,658.67 -1174.67,741.00 -1161.33,706.33 -1150.67,754.00 -1137.33,684.67 -1124.00,736.67 -1113.33,719.33 -1100.00,736.67 -1089.33,706.33 -1076.00,684.67 -1065.33,706.33 -1054.67,680.33 -1041.33,710.67 -1030.67,949.00 -1020.00,732.33 -1009.33,810.33 -998.67,806.00 -988.00,892.67 -977.33,827.67 -966.67,749.67 -953.33,676.00 -942.67,650.00 -932.00,654.33 -921.33,680.33 -908.00,589.33 -897.33,628.33 -884.00,602.33 -873.33,624.00 -860.00,567.67 -846.67,572.00 -833.33,606.67 -820.00,658.67 -806.67,611.00 -793.33,559.00 -780.00,507.00 -766.67,385.67 -750.67,585.00 -737.33,498.33 -724.00,550.33 -708.00,554.67 -694.67,537.33 -678.67,524.33 -662.67,611.00 -649.33,680.33 -633.33,676.00 -617.33,580.67 -604.00,602.33 -588.00,533.00 -572.00,580.67 -556.00,476.67 -540.00,455.00 -524.00,429.00 -508.00,247.00 -489.33,450.67 -473.33,416.00 -454.67,351.00 -436.00,364.00 -417.33,299.00 -398.67,225.33 -380.00,307.67 -361.33,372.67 -342.67,359.67 -324.00,329.33 -305.33,316.33 -286.67,390.00 -268.00,355.33 -252.00,455.00 -233.33,372.67 -217.33,407.33 -201.33,411.67 -185.33,507.00 -169.33,554.67 -153.33,602.33 -140.00,433.33 -126.67,511.33 -113.33,524.33 -100.00,567.67 -89.33,554.67 -76.00,528.67 -65.33,606.67 -54.67,667.33 -44.00,619.67 -33.33,676.00 -22.67,537.33 -12.00,667.33 -1.33,645.67 9.33,667.33 20.00,741.00 30.67,749.67 41.33,554.67 52.00,663.00 62.67,697.67 70.67,468.00 81.33,593.67 92.00,489.67 105.33,572.00 116.00,589.33 126.67,637.00 137.33,546.00 148.00,619.67 161.33,576.33 172.00,563.33 182.67,567.67 196.00,424.67 206.67,689.00 217.33,892.67 228.00,771.33 241.33,810.33 252.00,476.67 262.67,680.33 276.00,624.00 286.67,407.33 297.33,541.67 310.67,381.33 321.33,459.33 334.67,472.33 345.33,546.00 358.67,407.33 369.33,598.00 382.67,533.00 396.00,429.00 406.67,442.00 420.00,346.67 433.33,459.33 446.67,476.67 460.00,416.00 473.33,429.00 486.67,611.00 500.00,433.33 513.33,507.00 526.67,437.67 542.67,524.33 556.00,416.00 569.33,602.33 585.33,580.67 598.67,433.33 614.67,680.33 628.00,615.33 644.00,537.33 660.00,632.67 673.33,429.00 689.33,589.33 705.33,520.00 718.67,468.00 734.67,684.67 750.67,481.00 766.67,697.67 782.67,580.67 798.67,667.33 814.67,663.00 828.00,637.00 844.00,624.00 860.00,654.33 876.00,593.67 892.00,580.67 908.00,615.33 924.00,450.67 940.00,468.00 956.00,580.67 972.00,572.00 990.67,481.00 1006.67,463.67 1025.33,550.33 1041.33,502.67 1060.00,502.67 1078.67,398.67 1094.67,684.67 1113.33,619.67 1134.67,368.33 1153.33,801.67 1172.00,385.67 1193.33,567.67 1214.67,355.33 1238.67,316.33 1262.67,437.67 1289.33,658.67 1316.00,589.33 1342.67,559.00 1369.33,537.33 1398.67,645.67 1425.33,537.33 1449.33,589.33 1476.00,407.33 1497.33,632.67 1521.33,498.33 1540.00,732.33 1556.00,671.67 1574.67,667.33 1588.00,784.33 1604.00,892.67" stroke-dasharray="1.0 1.0" stroke-width="1.0" stroke="blue" />
<g>
<circle cx="182.67" cy="567.67" fill="blue" r="10" radius="10" stroke-width="1.0" stroke="#000f" />
<circle cx="196.00" cy="424.67" fill="blue" r="10" radius="10" stroke-width="1.0" stroke="#000f" />
<circle cx="206.67" cy="689.00" fill="blue" r="10" radius="10" stroke-width="1.0" stroke="#000f" />
<circle cx="217.33" cy="892.67" fill="blue" r="10" radius="10" stroke-width="1.0" stroke="#000f" />
<circle cx="228.00" cy="771.33" fill="blue" r="10" radius="10" stroke-width="1.0" stroke="#000f" />
<circle cx="241.33" cy="810.33" fill="blue" r="10" radius="10" stroke-width="1.0" stroke="#000f" />
<circle cx="252.00" cy="476.67" fill="blue" r="10" radius="10" stroke-width="1.0" stroke="#000f" />
<circle cx="262.67" cy="680.33" fill="blue" r="10" radius="10" stroke-width="1.0" stroke="#000f" />
<circle cx="276.00" cy="624.00" fill="blue" r="10" radius="10" stroke-width="1.0" stroke="#000f" />
<circle cx="286.67" cy="407.33" fill="blue" r="10" radius="10" stroke-width="1.0" stroke="#000f" />
<circle cx="297.33" cy="541.67" fill="blue" r="10" radius="10" stroke-width="1.0" stroke="#000f" />
<circle cx="310.67" cy="381.33" fill="blue" r="10" radius="10" stroke-width="1.0" stroke="#000f" />
<circle cx="321.33" cy="459.33" fill="blue" r="10" radius="10" stroke-width="1.0" stroke="#000f" />
<circle cx="334.67" cy="472.33" fill="blue" r="10" radius="10" stroke-width="1.0" stroke="#000f" />
<circle cx="345.33" cy="546.00" fill="blue" r="10" radius="10" stroke-width="1.0" stroke="#000f" />
<circle cx="358.67" cy="407.33" fill="blue" r="10" radius="10" stroke-width="1.0" stroke="#000f" />
<circle cx="369.33" cy="598.00" fill="blue" r="10" radius="10" stroke-width="1.0" stroke="#000f" />
<circle cx="382.67" cy="533.00" fill="blue" r="10" radius="10" stroke-width="1.0" stroke="#000f" />
<circle cx="396.00" cy="429.00" fill="blue" r="10" radius="10" stroke-width="1.0" stroke="#000f" />
<circle cx="406.67" cy="442.00" fill="blue" r="10" radius="10" stroke-width="1.0" stroke="#000f" />
<circle cx="420.00" cy="346.67" fill="blue" r="10" radius="10" stroke-width="1.0" stroke="#000f" />
<circle cx="433.33" cy="459.33" fill="blue" r="10" radius="10" stroke-width="1.0" stroke="#000f" />
<circle cx="446.67" cy="476.67" fill="blue" r="10" radius="10" stroke-width="1.0" stroke="#000f" />
<circle cx="460.00" cy="416.00" fill="blue" r="10" radius="10" stroke-width="1.0" stroke="#000f" />
<circle cx="473.33" cy="429.00" fill="blue" r="10" radius="10" stroke-width="1.0" stroke="#000f" />
<circle cx="486.67" cy="611.00" fill="blue" r="10" radius="10" stroke-width="1.0" stroke="#000f" />
<circle cx="500.00" cy="433.33" fill="blue" r="10" radius="10" stroke-width="1.0" stroke="#000f" />
<circle cx="513.33" cy="507.00" fill="blue" r="10" radius="10" stroke-width="1.0" stroke="#000f" />
<circle cx="526.67" cy="437.67" fill="blue" r="10" radius="10" stroke-width="1.0" stroke="#000f" />
<circle cx="542.67" cy="524.33" fill="blue" r="10" radius="10" stroke-width="1.0" stroke="#000f" />
<circle cx="556.00" cy="416.00" fill="blue" r="10" radius="10" stroke-width="1.0" stroke="#000f" />
<circle cx="569.33" cy="602.33" fill="blue" r="10" radius="10" stroke-width="1.0" stroke="#000f" />
<circle cx="585.33" cy="580.67" fill="blue" r="10" radius="10" stroke-width="1.0" stroke="#000f" />
<circle cx="598.67" cy="433.33" fill="blue" r="10" radius="10" stroke-width="1.0" stroke="#000f" />
<circle cx="614.67" cy="680.33" fill="blue" r="10" radius="10" stroke-width="1.0" stroke="#000f" />
<circle cx="628.00" cy="615.33" fill="blue" r="10" radius="10" stroke-width="1.0" stroke="#000f" />
<circle cx="644.00" cy="537.33" fill="blue" r="10" radius="10" stroke-width="1.0" stroke="#000f" />
<circle cx="660.00" cy="632.67" fill="blue" r="10" radius="10" stroke-width="1.0" stroke="#000f" />
<circle cx="673.33" cy="429.00" fill="blue" r="10" radius="10" stroke-width="1.0" stroke="#000f" />
<circle cx="689.33" cy="589.33" fill="blue" r="10" radius="10" stroke-width="1.0" stroke="#000f" />
<circle cx="705.33" cy="520.00" fill="blue" r="10" radius="10" stroke-width="1.0" stroke="#000f" />
<circle cx="718.67" cy="468.00" fill="blue" r="10" radius="10" stroke-width="1.0" stroke="#000f" />
<circle cx="734.67" cy="684.67" fill="blue" r="10" radius="10" stroke-width="1.0" stroke="#000f" />
<circle cx="750.67" cy="481.00" fill="blue" r="10" radius="10" stroke-width="1.0" stroke="#000f" />
<circle cx="766.67" cy="697.67" fill="blue" r="10" radius="10" stroke-width="1.0" stroke="#000f" />
<circle cx="782.67" cy="580.67" fill="blue" r="10" radius="10" stroke-width="1.0" stroke="#000f" />
<circle cx="798.67" cy="667.33" fill="blue" r="10" radius="10" stroke-width="1.0" stroke="#000f" />
<circle cx="814.67" cy="663.00" fill="blue" r="10" radius="10" stroke-width="1.0" stroke="#000f" />
<circle cx="828.00" cy="637.00" fill="blue" r="10" radius="10" stroke-width="1.0" stroke="#000f" />
<circle cx="844.00" cy="624.00" fill="blue" r="10" radius="10" stroke-width="1.0" stroke="#000f" />
<circle cx="860.00" cy="654.33" fill="blue" r="10" radius="10" stroke-width="1.0" stroke="#000f" />
<circle cx="876.00" cy="593.67" fill="blue" r="10" radius="10" stroke-width="1.0" stroke="#000f" />
<circle cx="892.00" cy="580.67" fill="blue" r="10" radius="10" stroke-width="1.0" stroke="#000f" />
<circle cx="908.00" cy="615.33" fill="blue" r="10" radius="10" stroke-width="1.0" stroke="#000f" />
<circle cx="924.00" cy="450.67" fill="blue" r="10" radius="10" stroke-width="1.0" stroke="#000f" />
<circle cx="940.00" cy="468.00" fill="blue" r="10" radius="10" stroke-width="1.0" stroke="#000f" />
<circle cx="956.00" cy="580.67" fill="blue" r="10" radius="10" stroke-width="1.0" stroke="#000f" />
<circle cx="972.00" cy="572.00" fill="blue" r="10" radius="10" stroke-width="1.0" stroke="#000f" />
<circle cx="990.67" cy="481.00" fill="blue" r="10" radius="10" stroke-width="1.0" stroke="#000f" />
<circle cx="1006.67" cy="463.67" fill="blue" r="10" radius="10" stroke-width="1.0" stroke="#000f" />
<circle cx="1025.33" cy="550.33" fill="blue" r="10" radius="10" stroke-width="1.0" stroke="#000f" />
<circle cx="1041.33" cy="502.67" fill="blue" r="10" radius="10" stroke-width="1.0" stroke="#000f" />
<circle cx="1060.00" cy="502.67" fill="blue" r="10" radius="10" stroke-width="1.0" stroke="#000f" />
<circle cx="1078.67" cy="398.67" fill="blue" r="10" radius="10" stroke-width="1.0" stroke="#000f" />
<circle cx="1094.67" cy="684.67" fill="blue" r="10" radius="10" stroke-width="1.0" stroke="#000f" />
<circle cx="1113.33" cy="619.67" fill="blue" r="10" radius="10" stroke-width="1.0" stroke="#000f" />
<circle cx="1134.67" cy="368.33" fill="blue" r="10" radius="10" stroke-width="1.0" stroke="#000f" />
<circle cx="1153.33" cy="801.67" fill="blue" r="10" radius="10" stroke-width="1.0" stroke="#000f" />
<circle cx="1172.00" cy="385.67" fill="blue" r="10" radius="10" stroke-width="1.0" stroke="#000f" />
<circle cx="1193.33" cy="567.67" fill="blue" r="10" radius="10" stroke-width="1.0" stroke="#000f" />
<circle cx="1214.67" cy="355.33" fill="blue" r="10" radius="10" stroke-width="1.0" stroke="#000f" />
<circle cx="1238.67" cy="316.33" fill="blue" r="10" radius="10" stroke-width="1.0" stroke="#000f" />
<circle cx="1262.67" cy="437.67" fill="blue" r="10" radius="10" stroke-width="1.0" stroke="#000f" />
<circle cx="1289.33" cy="658.67" fill="blue" r="10" radius="10" stroke-width="1.0" stroke="#000f" />
<circle cx="1316.00" cy="589.33" fill="blue" r="10" radius="10" stroke-width="1.0" stroke="#000f" />
<circle cx="1342.67" cy="559.00" fill="blue" r="10" radius="10" stroke-width="1.0" stroke="#000f" />
<circle cx="1369.33" cy="537.33" fill="blue" r="10" radius="10" stroke-width="1.0" stroke="#000f" />
<circle cx="1398.67" cy="645.67" fill="blue" r="10" radius="10" stroke-width="1.0" stroke="#000f" />
<circle cx="1425.33" cy="537.33" fill="blue" r="10" radius="10" stroke-width="1.0" stroke="#000f" />
<circle cx="1449.33" cy="589.33" fill="blue" r="10" radius="10" stroke-width="1.0" stroke="#000f" />
<circle cx="1476.00" cy="407.33" fill="blue" r="10" radius="10" stroke-width="1.0" stroke="#000f" />
<circle cx="1497.33" cy="632.67" fill="blue" r="10" radius="10" stroke-width="1.0" stroke="#000f" />
<circle cx="1521.33" cy="498.33" fill="blue" r="10" radius="10" stroke-width="1.0" stroke="#000f" />
<circle cx="1540.00" cy="732.33" fill="blue" r="10" radius="10" stroke-width="1.0" stroke="#000f" />
<circle cx="1556.00" cy="671.67" fill="blue" r="10" radius="10" stroke-width="1.0" stroke="#000f" />
<circle cx="1574.67" cy="667.33" fill="blue" r="10" radius="10" stroke-width="1.0" stroke="#000f" />
<circle cx="1588.00" cy="784.33" fill="blue" r="10" radius="10" stroke-width="1.0" stroke="#000f" />
<circle cx="1604.00" cy="892.67" fill="blue" r="10" radius="10" stroke-width="1.0" stroke="#000f" />
</g>
<g stroke="#0088">
<line x1="420.00" x2="420.00" y1="130.00" y2="113.33" />
<line x1="686.67" x2="686.67" y1="130.00" y2="113.33" />
<line x1="953.33" x2="953.33" y1="130.00" y2="113.33" />
<line x1="1220.00" x2="1220.00" y1="130.00" y2="113.33" />
<line x1="1486.67" x2="1486.67" y1="130.00" y2="113.33" />
<g fill="#0088" font-family="Arial, sans-serif" font-size="50.0" stroke="none" text-anchor="start" transform="translate(25.0 0.0)">
<text x="420.00" y="112.61">1960</text>
<text x="686.67" y="112.61">1970</text>
<text x="953.33" y="112.61">1980</text>
<text x="1220.00" y="112.61">1990</text>
<text x="1486.67" y="112.61">2000</text>
</g>
<line x1="180.00" x2="1620.00" y1="130.00" y2="130.00" />
</g>
<g stroke="#0088">
<line x1="1620.00" x2="1653.33" y1="1083.33" y2="1083.33" />
<line x1="1620.00" x2="1653.33" y1="650.00" y2="650.00" />
<line x1="1620.00" x2="1653.33" y1="216.67" y2="216.67" />
<g fill="#0088" font-family="Arial, sans-serif" font-size="50.0" stroke="none" text-anchor="beginning">
<text x="1645.00" y="1058.33">-6.0</text>
<text x="1645.00" y="625.00">-5.0</text>
<text x="1645.00" y="191.67">-4.0</text>
</g>
<line x1="1620.00" x2="1620.00" y1="1170.00" y2="130.00" />
</g>
</g>
</svg>
</g>
</svg>