<?xml version="1.0"?>
<svg height="1300" version="1.1" viewBox="0 0 1800 1300" width="1800" xmlns:xlink="http://www.w3.org/1999/xlink" xmlns="http://www.w3.org/2000/svg">
<g>
<svg height="1300" version="1.1" viewBox="0 0 1800 1300" width="1800" xmlns:xlink="http://www.w3.org/1999/xlink" xmlns="http://www.w3.org/2000/svg">
<g>
<g>
<text dominant-baseline="hanging" dx="-50.0" dy="50.0" fill="#0088" font-family="Arial, sans-serif" font-size="50.0" font-style="italic" stroke="none" text-anchor="end" text-orientation="sideways" text="d18O" x="1620.00" y="130.00">d18O</text>
</g>
<polyline fill="none" points="-5636.00,840.67 -5614.67,892.67 -5590.67,732.33 -5569.33,728.00 -5545.33,676.00 -5524.00,806.00 -5500.00,910.00 -5478.67,879.67 -5454.67,840.67 -5433.33,853.67 -5412.00,840.67 -5388.00,875.33 -5366.67,801.67 -5345.33,814.67 -5324.00,732.33 -5300.00,758.33 -5278.67,853.67 -5257.33,780.00 -5238.67,814.67 -5217.33,853.67 -5196.00,888.33 -5174.67,758.33 -5156.00,801.67 -5137.33,684.67 -5116.00,832.00 -5097.33,953.33 -5078.67,1105.00 -5060.00,1083.33 -5041.33,832.00 -5025.33,788.67 -5006.67,936.00 -4990.67,801.67 -4974.67,814.67 -4958.67,836.33 -4942.67,918.67 -4926.67,806.00 -4913.33,905.67 -4897.33,823.33 -4884.00,823.33 -4870.67,728.00 -4857.33,784.33 -4846.67,931.67 -4833.33,832.00 -4820.00,966.33 -4809.33,892.67 -4796.00,845.00 -4785.33,793.00 -4774.67,836.33 -4764.00,719.33 -4750.67,641.33 -4740.00,749.67 -4729.33,853.67 -4718.67,823.33 -4708.00,914.33 -4697.33,836.33 -4686.67,836.33 -4676.00,905.67 -4665.33,827.67 -4654.67,931.67 -4644.00,979.33 -4633.33,715.00 -4622.67,771.33 -4612.00,715.00 -4601.33,862.33 -4588.00,992.33 -4577.33,923.00 -4553.33,849.33 -4540.00,892.67 -4526.67,1001.00 -4516.00,1031.33 -4502.67,858.00 -4489.33,897.00 -4476.00,823.33 -4460.00,914.33 -4446.67,819.00 -4433.33,676.00 -4420.00,949.00 -4404.00,715.00 -4390.67,689.00 -4377.33,897.00 -4361.33,979.33 -4348.00,832.00 -4332.00,788.67 -4318.67,741.00 -4302.67,845.00 -4289.33,814.67 -4273.33,780.00 -4257.33,684.67 -4244.00,819.00 -4228.00,910.00 -4214.67,771.33 -4198.67,793.00 -4185.33,676.00 -4172.00,689.00 -4156.00,797.33 -4142.67,645.67 -4129.33,819.00 -4113.33,754.00 -4100.00,684.67 -4086.67,771.33 -4073.33,901.33 -4060.00,879.67 -4046.67,823.33 -4030.67,927.33 -4017.33,1057.33 -4004.00,1105.00 -3990.67,992.33 -3977.33,983.67 -3964.00,832.00 -3948.00,819.00 -3934.67,910.00 -3921.33,923.00 -3908.00,823.33 -3894.67,775.67 -3881.33,784.33 -3868.00,806.00 -3854.67,801.67 -3841.33,762.67 -3828.00,728.00 -3814.67,810.33 -3801.33,715.00 -3774.67,697.67 -3764.00,814.67 -3750.67,680.33 -3737.33,758.33 -3724.00,784.33 -3713.33,758.33 -3700.00,684.67 -3689.33,624.00 -3676.00,749.67 -3665.33,745.33 -3654.67,710.67 -3641.33,710.67 -3630.67,788.67 -3620.00,736.67 -3609.33,632.67 -3596.00,650.00 -3585.33,663.00 -3574.67,684.67 -3564.00,780.00 -3542.67,650.00 -3532.00,762.67 -3521.33,741.00 -3510.67,723.67 -3500.00,654.33 -3486.67,793.00 -3476.00,797.33 -3465.33,671.67 -3454.67,710.67 -3444.00,576.33 -3433.33,797.33 -3420.00,684.67 -3409.33,676.00 -3398.67,706.33 -3385.33,697.67 -3374.67,654.33 -3361.33,585.00 -3350.67,667.33 -3337.33,806.00 -3326.67,875.33 -3313.33,719.33 -3300.00,884.00 -3286.67,780.00 -3273.33,754.00 -3260.00,806.00 -3246.67,693.33 -3230.67,862.33 -3217.33,632.67 -3201.33,797.33 -3188.00,862.33 -3172.00,624.00 -3156.00,710.67 -3142.67,667.33 -3126.67,814.67 -3110.67,697.67 -3094.67,671.67 -3081.33,598.00 -3065.33,654.33 -3052.00,645.67 -3036.00,684.67 -3022.67,598.00 -3006.67,606.67 -2993.33,706.33 -2980.00,611.00 -2966.67,641.33 -2953.33,684.67 -2940.00,671.67 -2926.67,736.67 -2916.00,784.33 -2902.67,723.67 -2892.00,745.33 -2878.67,728.00 -2868.00,598.00 -2857.33,628.33 -2844.00,567.67 -2833.33,736.67 -2822.67,736.67 -2812.00,671.67 -2801.33,801.67 -2790.67,663.00 -2780.00,797.33 -2769.33,632.67 -2758.67,632.67 -2748.00,632.67 -2740.00,810.33 -2729.33,728.00 -2718.67,624.00 -2708.00,658.67 -2697.33,745.33 -2689.33,671.67 -2678.67,918.67 -2668.00,697.67 -2657.33,715.00 -2649.33,758.33 -2638.67,845.00 -2628.00,897.00 -2617.33,849.33 -2606.67,641.33 -2598.67,801.67 -2588.00,697.67 -2577.33,927.33 -2566.67,845.00 -2556.00,905.67 -2545.33,628.33 -2524.00,697.67 -2513.33,775.67 -2500.00,671.67 -2489.33,598.00 -2478.67,671.67 -2465.33,966.33 -2454.67,1044.33 -2441.33,554.67 -2430.67,810.33 -2417.33,554.67 -2406.67,576.33 -2393.33,788.67 -2380.00,892.67 -2366.67,684.67 -2353.33,858.00 -2337.33,923.00 -2324.00,819.00 -2308.00,819.00 -2294.67,606.67 -2278.67,645.67 -2262.67,884.00 -2246.67,806.00 -2230.67,767.00 -2212.00,845.00 -2196.00,845.00 -2180.00,836.33 -2161.33,749.67 -2145.33,762.67 -2126.67,879.67 -2108.00,676.00 -2092.00,507.00 -2073.33,663.00 -2054.67,754.00 -2038.67,871.00 -2020.00,767.00 -2001.33,901.33 -1985.33,762.67 -1966.67,879.67 -1950.67,797.33 -1932.00,897.00 -1916.00,1053.00 -1897.33,840.67 -1881.33,910.00 -1862.67,758.33 -1846.67,793.00 -1830.67,754.00 -1814.67,827.67 -1798.67,832.00 -1782.67,784.33 -1769.33,676.00 -1753.33,702.00 -1740.00,732.33 -1726.67,745.33 -1710.67,910.00 -1697.33,819.00 -1673.33,784.33 -1662.67,836.33 -1649.33,788.67 -1638.67,871.00 -1628.00,797.33 -1617.33,806.00 -1606.67,858.00 -1596.00,684.67 -1585.33,931.67 -1574.67,849.33 -1566.67,775.67 -1556.00,715.00 -1545.33,723.67 -1534.67,723.67 -1526.67,693.33 -1516.00,832.00 -1508.00,827.67 -1497.33,853.67 -1486.67,927.33 -1478.67,676.00 -1468.00,814.67 -1457.33,784.33 -1446.67,853.67 -1436.00,784.33 -1425.33,762.67 -1414.67,901.33 -1404.00,784.33 -1393.33,918.67 -1382.67,788.67 -1369.33,801.67 -1358.67,953.33 -1345.33,888.33 -1332.00,1022.67 -1318.67,892.67 -1308.00,810.33 -1294.67,1040.00 -1281.33,875.33 -1268.00,871.00 -1254.67,944.67 -1241.33,814.67 -1228.00,745.33 -1214.67,663.00 -1201.33,680.33 -1188.00,658.67 -1174.67,741.00 -1161.33,706.33 -1150.67,754.00 -1137.33,684.67 -1124.00,736.67 -1113.33,719.33 -1100.00,736.67 -1089.33,706.33 -1076.00,684.67 -1065.33,706.33 -1054.67,680.33 -1041.33,710.67 -1030.67,949.00 -1020.00,732.33 -1009.33,810.33 -998.67,806.00 -988.00,892.67 -977.33,827.67 -966.67,749.67 -953.33,676.00 -942.67,650.00 -932.00,654.33 -921.33,680.33 -908.00,589.33 -897.33,628.33 -884.00,602.33 -873.33,624.00 -860.00,567.67 -846.67,572.00 -833.33,606.67 -820.00,658.67 -806.67,611.00 -793.33,559.00 -780.00,507.00 -766.67,385.67 -750.67,585.00 -737.33,498.33 -724.00,550.33 -708.00,554.67 -694.67,537.33 -678.67,524.33 -662.67,611.00 -649.33,680.33 -633.33,676.00 -617.33,580.67 -604.00,602.33 -588.00,533.00 -572.00,580.67 -556.00,476.67 -540.00,455.00 -524.00,429.00 -508.00,247.00 -489.33,450.67 -473.33,416.00 -454.67,351.00 -436.00,364.00 -417.33,299.00 -398.67,225.33 -380.00,307.67 -361.33,372.67 -342.67,359.67 -324.00,329.33 -305.33,316.33 -286.67,390.00 -268.00,355.33 -252.00,455.00 -233.33,372.67 -217.33,407.33 -201.33,411.67 -185.33,507.00 -169.33,554.67 -153.33,602.33 -140.00,433.33 -126.67,511.33 -113.33,524.33 -100.00,567.67 -89.33,554.67 -76.00,528.67 -65.33,606.67 -54.67,667.33 -44.00,619.67 -33.33,676.00 -22.67,537.33 -12.00,667.33 -1.33,645.67 9.33,667.33 20.00,741.00 30.67,749.67 41.33,554.67 52.00,663.00 62.67,697.67 70.67,468.00 81.33,593.67 92.00,489.67 105.33,572.00 116.00,589.33 126.67,637.00 137.33,546.00 148.00,619.67 161.33,576.33 172.00,563.33 182.67,567.67 196.00,424.67 206.67,689.00 217.33,892.67 228.00,771.33 241.33,810.33 252.00,476.67 262.67,680.33 276.00,624.00 286.67,407.33 297.33,541.67 310.67,381.33 321.33,459.33 334.67,472.33 345.33,546.00 358.67,407.33 369.33,598.00 382.67,533.00 396.00,429.00 406.67,442.00 420.00,346.67 433.33,459.33 446.67,476.67 460.00,416.00 473.33,429.00 486.67,611.00 500.00,433.33 513.33,507.00 526.67,437.67 542.67,524.33 556.00,416.00 569.33,602.33 585.33,580.67 598.67,433.33 614.67,680.33 628.00,615.33 644.00,537.33 660.00,632.67 673.33,429.00 689.33,589.33 705.33,520.00 718.67,468.00 734.67,684.67 750.67,481.00 766.67,697.67 782.67,580.67 798.67,667.33 814.67,663.00 828.00,637.00 844.00,624.00 860.00,654.33 876.00,593.67 892.00,580.67 908.00,615.33 924.00,450.67 940.00,468.00 956.00,580.67 972.00,572.00 990.67,481.00 1006.67,463.67 1025.33,550.33 1041.33,502.67 1060.00,502.67 1078.67,398.67 1094.67,684.67 1113.33,619.67 1134.67,368.33 1153.33,801.67 1172.00,385.67 1193.33,567.67 1214.67,355.33 1238.67,316.33 1262.67,437.67 1289.33,658.67 1316.00,589.33 1342.67,559.00 1369.33,537.33 1398.67,645.67 1425.33,537.33 1449.33,589.33 1476.00,407.33 1497.33,632.67 1521.33,498.33 1540.00,732.33 1556.00,671.67 1574.67,667.33 1588.00,784.33 1604.00,892.67" stroke-dasharray="1.0 1.0" stroke-width="1.0" stroke="blue" />
<g>
<circle cx="182.67" cy="567.67" fill="#006aad" r="10" radius="10" stroke-width="1.0" stroke="#000f" />
<circle cx="196.00" cy="424.67" fill="#eacd2b" r="10" radius="10" stroke-width="1.0" stroke="#000f" />
<circle cx="206.67" cy="689.00" fill="#0037f3" r="10" radius="10" stroke-width="1.0" stroke="#000f" />
<circle cx="217.33" cy="892.67" fill="#7cb415" r="10" radius="10" stroke-width="1.0" stroke="#000f" />
<circle cx="228.00" cy="771.33" fill="#ff9215" r="10" radius="10" stroke-width="1.0" stroke="#000f" />
<circle cx="241.33" cy="810.33" fill="#3fa224" r="10" radius="10" stroke-width="1.0" stroke="#000f" />
<circle cx="252.00" cy="476.67" fill="#feb623" r="10" radius="10" stroke-width="1.0" stroke="#000f" />
<circle cx="262.67" cy="680.33" fill="#006aad" r="10" radius="10" stroke-width="1.0" stroke="#000f" />
<circle cx="276.00" cy="624.00" fill="#eacd2b" r="10" radius="10" stroke-width="1.0" stroke="#000f" />
<circle cx="286.67" cy="407.33" fill="#0037f3" r="10" radius="10" stroke-width="1.0" stroke="#000f" />
<circle cx="297.33" cy="541.67" fill="#7cb415" r="10" radius="10" stroke-width="1.0" stroke="#000f" />
<circle cx="310.67" cy="381.33" fill="#ff6906" r="10" radius="10" stroke-width="1.0" stroke="#000f" />
<circle cx="321.33" cy="459.33" fill="#3fa224" r="10" radius="10" stroke-width="1.0" stroke="#000f" />
<circle cx="334.67" cy="472.33" fill="#ff9215" r="10" radius="10" stroke-width="1.0" stroke="#000f" />
<circle cx="345.33" cy="546.00" fill="#37886d" r="10" radius="10" stroke-width="1.0" stroke="#000f" />
<circle cx="358.67" cy="407.33" fill="#feb623" r="10" radius="10" stroke-width="1.0" stroke="#000f" />
<circle cx="369.33" cy="598.00" fill="#006aad" r="10" radius="10" stroke-width="1.0" stroke="#000f" />
<circle cx="382.67" cy="533.00" fill="#eacd2b" r="10" radius="10" stroke-width="1.0" stroke="#000f" />
<circle cx="396.00" cy="429.00" fill="#006aad" r="10" radius="10" stroke-width="1.0" stroke="#000f" />
<circle cx="406.67" cy="442.00" fill="#b5c120" r="10" radius="10" stroke-width="1.0" stroke="#000f" />
<circle cx="420.00" cy="346.67" fill="#0037f3" r="10" radius="10" stroke-width="1.0" stroke="#000f" />
<circle cx="433.33" cy="459.33" fill="#b5c120" r="10" radius="10" stroke-width="1.0" stroke="#000f" />
<circle cx="446.67" cy="476.67" fill="#0037f3" r="10" radius="10" stroke-width="1.0" stroke="#000f" />
<circle cx="460.00" cy="416.00" fill="#b5c120" r="10" radius="10" stroke-width="1.0" stroke="#000f" />
<circle cx="473.33" cy="429.00" fill="#0037f3" r="10" radius="10" stroke-width="1.0" stroke="#000f" />
<circle cx="486.67" cy="611.00" fill="#b5c120" r="10" radius="10" stroke-width="1.0" stroke="#000f" />
<circle cx="500.00" cy="433.33" fill="#0037f3" r="10" radius="10" stroke-width="1.0" stroke="#000f" />
<circle cx="513.33" cy="507.00" fill="#b5c120" r="10" radius="10" stroke-width="1.0" stroke="#000f" />
<circle cx="526.67" cy="437.67" fill="#0037f3" r="10" radius="10" stroke-width="1.0" stroke="#000f" />
<circle cx="542.67" cy="524.33" fill="#eacd2b" r="10" radius="10" stroke-width="1.0" stroke="#000f" />
<circle cx="556.00" cy="416.00" fill="#006aad" r="10" radius="10" stroke-width="1.0" stroke="#000f" />
<circle cx="569.33" cy="602.33" fill="#eacd2b" r="10" radius="10" stroke-width="1.0" stroke="#000f" />
<circle cx="585.33" cy="580.67" fill="#37886d" r="10" radius="10" stroke-width="1.0" stroke="#000f" />
<circle cx="598.67" cy="433.33" fill="#feb623" r="10" radius="10" stroke-width="1.0" stroke="#000f" />
<circle cx="614.67" cy="680.33" fill="#3fa224" r="10" radius="10" stroke-width="1.0" stroke="#000f" />
<circle cx="628.00" cy="615.33" fill="#ff9215" r="10" radius="10" stroke-width="1.0" stroke="#000f" />
<circle cx="644.00" cy="537.33" fill="#7cb415" r="10" radius="10" stroke-width="1.0" stroke="#000f" />
<circle cx="660.00" cy="632.67" fill="#0037f3" r="10" radius="10" stroke-width="1.0" stroke="#000f" />
<circle cx="673.33" cy="429.00" fill="#b5c120" r="10" radius="10" stroke-width="1.0" stroke="#000f" />
<circle cx="689.33" cy="589.33" fill="#006aad" r="10" radius="10" stroke-width="1.0" stroke="#000f" />
<circle cx="705.33" cy="520.00" fill="#feb623" r="10" radius="10" stroke-width="1.0" stroke="#000f" />
<circle cx="718.67" cy="468.00" fill="#37886d" r="10" radius="10" stroke-width="1.0" stroke="#000f" />
<circle cx="734.67" cy="684.67" fill="#ff9215" r="10" radius="10" stroke-width="1.0" stroke="#000f" />
<circle cx="750.67" cy="481.00" fill="#7cb415" r="10" radius="10" stroke-width="1.0" stroke="#000f" />
<circle cx="766.67" cy="697.67" fill="#0037f3" r="10" radius="10" stroke-width="1.0" stroke="#000f" />
<circle cx="782.67" cy="580.67" fill="#eacd2b" r="10" radius="10" stroke-width="1.0" stroke="#000f" />
<circle cx="798.67" cy="667.33" fill="#37886d" r="10" radius="10" stroke-width="1.0" stroke="#000f" />
<circle cx="814.67" cy="663.00" fill="#ff9215" r="10" radius="10" stroke-width="1.0" stroke="#000f" />
<circle cx="828.00" cy="637.00" fill="#3fa224" r="10" radius="10" stroke-width="1.0" stroke="#000f" />
<circle cx="844.00" cy="624.00" fill="#ff6906" r="10" radius="10" stroke-width="1.0" stroke="#000f" />
<circle cx="860.00" cy="654.33" fill="#b5c120" r="10" radius="10" stroke-width="1.0" stroke="#000f" />
<circle cx="876.00" cy="593.67" fill="#006aad" r="10" radius="10" stroke-width="1.0" stroke="#000f" />
<circle cx="892.00" cy="580.67" fill="#feb623" r="10" radius="10" stroke-width="1.0" stroke="#000f" />
<circle cx="908.00" cy="615.33" fill="#3fa224" r="10" radius="10" stroke-width="1.0" stroke="#000f" />
<circle cx="924.00" cy="450.67" fill="#ff6906" r="10" radius="10" stroke-width="1.0" stroke="#000f" />
<circle cx="940.00" cy="468.00" fill="#b5c120" r="10" radius="10" stroke-width="1.0" stroke="#000f" />
<circle cx="956.00" cy="580.67" fill="#006aad" r="10" radius="10" stroke-width="1.0" stroke="#000f" />
<circle cx="972.00" cy="572.00" fill="#feb623" r="10" radius="10" stroke-width="1.0" stroke="#000f" />
<circle cx="990.67" cy="481.00" fill="#7cb415" r="10" radius="10" stroke-width="1.0" stroke="#000f" />
<circle cx="1006.67" cy="463.67" fill="#0037f3" r="10" radius="10" stroke-width="1.0" stroke="#000f" />
<circle cx="1025.33" cy="550.33" fill="#feb623" r="10" radius="10" stroke-width="1.0" stroke="#000f" />
<circle cx="1041.33" cy="502.67" fill="#3fa224" r="10" radius="10" stroke-width="1.0" stroke="#000f" />
<circle cx="1060.00" cy="502.67" fill="#0037f3" r="10" radius="10" stroke-width="1.0" stroke="#000f" />
<circle cx="1078.67" cy="398.67" fill="#feb623" r="10" radius="10" stroke-width="1.0" stroke="#000f" />
<circle cx="1094.67" cy="684.67" fill="#3fa224" r="10" radius="10" stroke-width="1.0" stroke="#000f" />
<circle cx="1113.33" cy="619.67" fill="#0037f3" r="10" radius="10" stroke-width="1.0" stroke="#000f" />
<circle cx="1134.67" cy="368.33" fill="#ff9215" r="10" radius="10" stroke-width="1.0" stroke="#000f" />
<circle cx="1153.33" cy="801.67" fill="#b5c120" r="10" radius="10" stroke-width="1.0" stroke="#000f" />
<circle cx="1172.00" cy="385.67" fill="#37886d" r="10" radius="10" stroke-width="1.0" stroke="#000f" />
<circle cx="1193.33" cy="567.67" fill="#0037f3" r="10" radius="10" stroke-width="1.0" stroke="#000f" />
<circle cx="1214.67" cy="355.33" fill="#ff9215" r="10" radius="10" stroke-width="1.0" stroke="#000f" />
<circle cx="1238.67" cy="316.33" fill="#feb623" r="10" radius="10" stroke-width="1.0" stroke="#000f" />
<circle cx="1262.67" cy="437.67" fill="#eacd2b" r="10" radius="10" stroke-width="1.0" stroke="#000f" />
<circle cx="1289.33" cy="658.67" fill="#eacd2b" r="10" radius="10" stroke-width="1.0" stroke="#000f" />
<circle cx="1316.00" cy="589.33" fill="#eacd2b" r="10" radius="10" stroke-width="1.0" stroke="#000f" />
<circle cx="1342.67" cy="559.00" fill="#eacd2b" r="10" radius="10" stroke-width="1.0" stroke="#000f" />
<circle cx="1369.33" cy="537.33" fill="#eacd2b" r="10" radius="10" stroke-width="1.0" stroke="#000f" />
<circle cx="1398.67" cy="645.67" fill="#feb623" r="10" radius="10" stroke-width="1.0" stroke="#000f" />
<circle cx="1425.33" cy="537.33" fill="#feb623" r="10" radius="10" stroke-width="1.0" stroke="#000f" />
<circle cx="1449.33" cy="589.33" fill="#eacd2b" r="10" radius="10" stroke-width="1.0" stroke="#000f" />
<circle cx="1476.00" cy="407.33" fill="#eacd2b" r="10" radius="10" stroke-width="1.0" stroke="#000f" />
<circle cx="1497.33" cy="632.67" fill="#7cb415" r="10" radius="10" stroke-width="1.0" stroke="#000f" />
<circle cx="1521.33" cy="498.33" fill="#3fa224" r="10" radius="10" stroke-width="1.0" stroke="#000f" />
<circle cx="1540.00" cy="732.33" fill="#0037f3" r="10" radius="10" stroke-width="1.0" stroke="#000f" />
<circle cx="1556.00" cy="671.67" fill="#eacd2b" r="10" radius="10" stroke-width="1.0" stroke="#000f" />
<circle cx="1574.67" cy="667.33" fill="#3fa224" r="10" radius="10" stroke-width="1.0" stroke="#000f" />
<circle cx="1588.00" cy="784.33" fill="#ff9215" r="10" radius="10" stroke-width="1.0" stroke="#000f" />
<circle cx="1604.00" cy="892.67" fill="#7cb415" r="10" radius="10" stroke-width="1.0" stroke="#000f" />
</g>
<g stroke="#0088">
<line x1="420.00" x2="420.00" y1="130.00" y2="113.33" />
<line x1="686.67" x2="686.67" y1="130.00" y2="113.33" />
<line x1="953.33" x2="953.33" y1="130.00" y2="113.33" />
<line x1="1220.00" x2="1220.00" y1="130.00" y2="113.33" />
<line x1="1486.67" x2="1486.67" y1="130.00" y2="113.33" />
<g fill="#0088" font-family="Arial, sans-serif" font-size="50.0" stroke="none" text-anchor="start" transform="translate(25.0 0.0)">
<text x="420.00" y="112.61">1960</text>
<text x="686.67" y="112.61">1970</text>
<text x="953.33" y="112.61">1980</text>
<text x="1220.00" y="112.61">1990</text>
<text x="1486.67" y="112.61">2000</text>
</g>
<line x1="180.00" x2="1620.00" y1="130.00" y2="130.00" />
</g>
<g stroke="#0088">
<line x1="1620.00" x2="1653.33" y1="1083.33" y2="1083.33" />
<line x1="1620.00" x2="1653.33" y1="650.00" y2="650.00" />
<line x1="1620.00" x2="1653.33" y1="216.67" y2="216.67" />
<g fill="#0088" font-family="Arial, sans-serif" font-size="50.0" stroke="none" text-anchor="beginning">
<text x="1645.00" y="1058.33">-6.0</text>
<text x="1645.00" y="625.00">-5.0</text>
<text x="1645.00" y="191.67">-4.0</text>
</g>
<line x1="1620.00" x2="1620.00" y1="1170.00" y2="130.00" />
</g>
</g>
</svg>
</g>
</svg>