<?xml version="1.0"?>
<svg height="1300" version="1.1" viewBox="0 0 1800 1300" width="1800" xmlns:xlink="http://www.w3.org/1999/xlink" xmlns="http://www.w3.org/2000/svg">
<g>
<g>
<text dominant-baseline="hanging" dx="-100.0" dy="100.0" fill="#0004" font-family="Arial, sans-serif" font-size="100" stroke-width="3.3333333333333335" stroke="none" text-anchor="end" text="" x="1620.00" y="224.55">
</text>
</g>
<g>
<text dominant-baseline="hanging" dx="50.0" dy="150.0" fill="lightgrey" font-size="50.0" font-style="italic" stroke-width="1.0" stroke="lightgrey" text-anchor="beginning" text="" x="181.44" y="130.10">
</text>
</g>
<g>
<text dominant-baseline="hanging" dx="50.0" dy="216.66666666666669" fill="#aa8800" font-size="50.0" font-style="italic" stroke-width="1.0" text-anchor="beginning" text="SUMMER MONSOON" x="181.44" y="130.10">SUMMER MONSOON</text>
</g>
<g>
<text dominant-baseline="hanging" dx="50.0" dy="283.33333333333337" fill="#00aa88" font-size="50.0" font-style="italic" stroke-width="1.0" text-anchor="beginning" text="WINTER MONSOON" x="181.44" y="130.10">WINTER MONSOON</text>
</g>
<g>
<text dominant-baseline="text-bottom" dy="-25.0" fill="black" font-family="Arial, sans-serif" font-size="50.0" font-style="italic" stroke="none" text-anchor="middle" text="d18O" x="900.00" y="131.04">d18O</text>
</g>
<g>
<text dominant-baseline="hanging" dx="50.0" dy="50.0" fill="#0008" font-family="Arial, sans-serif" font-size="50.0" font-style="italic" stroke="none" text-anchor="beginning" text-orientation="sideways" text="Rain (mm) per bin" x="180.00" y="131.04">Rain (mm) per bin</text>
</g>
<g fill="none" stroke-width="8.571428571428571" stroke="#aa8800">
<line x1="1213.71" x2="1213.71" y1="1106.28" y2="1170.00" />
<line x1="1193.14" x2="1193.14" y1="1111.75" y2="1170.00" />
<line x1="1542.86" x2="1542.86" y1="1169.90" y2="1170.00" />
<line x1="864.00" x2="864.00" y1="1036.96" y2="1170.00" />
<line x1="1028.57" x2="1028.57" y1="726.25" y2="1170.00" />
<line x1="843.43" x2="843.43" y1="1032.84" y2="1170.00" />
<line x1="1296.00" x2="1296.00" y1="1145.47" y2="1170.00" />
<line x1="1110.86" x2="1110.86" y1="803.76" y2="1170.00" />
<line x1="822.86" x2="822.86" y1="1142.41" y2="1170.00" />
<line x1="1398.86" x2="1398.86" y1="1152.04" y2="1170.00" />
<line x1="1008.00" x2="1008.00" y1="898.37" y2="1170.00" />
<line x1="802.29" x2="802.29" y1="1167.46" y2="1170.00" />
<line x1="1254.86" x2="1254.86" y1="1154.24" y2="1170.00" />
<line x1="1152.00" x2="1152.00" y1="914.47" y2="1170.00" />
<line x1="781.71" x2="781.71" y1="1123.29" y2="1170.00" />
<line x1="1419.43" x2="1419.43" y1="1168.90" y2="1170.00" />
<line x1="987.43" x2="987.43" y1="822.06" y2="1170.00" />
<line x1="761.14" x2="761.14" y1="1162.57" y2="1170.00" />
<line x1="1316.57" x2="1316.57" y1="1169.90" y2="1170.00" />
<line x1="1090.29" x2="1090.29" y1="834.39" y2="1170.00" />
<line x1="740.57" x2="740.57" y1="1167.32" y2="1170.00" />
<line x1="966.86" x2="966.86" y1="917.97" y2="1170.00" />
<line x1="720.00" x2="720.00" y1="1134.88" y2="1170.00" />
<line x1="1234.29" x2="1234.29" y1="1145.04" y2="1170.00" />
<line x1="1172.57" x2="1172.57" y1="936.03" y2="1170.00" />
<line x1="699.43" x2="699.43" y1="1142.50" y2="1170.00" />
<line x1="946.29" x2="946.29" y1="916.91" y2="1170.00" />
<line x1="678.86" x2="678.86" y1="1153.38" y2="1170.00" />
<line x1="1069.71" x2="1069.71" y1="844.10" y2="1170.00" />
<line x1="658.29" x2="658.29" y1="1145.76" y2="1170.00" />
<line x1="925.71" x2="925.71" y1="1005.83" y2="1170.00" />
<line x1="1275.43" x2="1275.43" y1="1152.37" y2="1170.00" />
<line x1="1131.43" x2="1131.43" y1="953.46" y2="1170.00" />
<line x1="905.14" x2="905.14" y1="1033.76" y2="1170.00" />
<line x1="1049.14" x2="1049.14" y1="808.55" y2="1170.00" />
<line x1="884.57" x2="884.57" y1="1013.68" y2="1170.00" />
</g>
<g fill="none" stroke-width="8.571428571428571" stroke="#00aa88">
<line x1="1224.00" x2="1224.00" y1="1125.59" y2="1170.00" />
<line x1="1203.43" x2="1203.43" y1="1061.49" y2="1170.00" />
<line x1="874.29" x2="874.29" y1="1028.92" y2="1170.00" />
<line x1="1388.57" x2="1388.57" y1="1154.33" y2="1170.00" />
<line x1="1038.86" x2="1038.86" y1="650.51" y2="1170.00" />
<line x1="853.71" x2="853.71" y1="1094.21" y2="1170.00" />
<line x1="1306.29" x2="1306.29" y1="1149.78" y2="1170.00" />
<line x1="1121.14" x2="1121.14" y1="844.14" y2="1170.00" />
<line x1="833.14" x2="833.14" y1="1062.69" y2="1170.00" />
<line x1="1018.29" x2="1018.29" y1="748.24" y2="1170.00" />
<line x1="812.57" x2="812.57" y1="1136.08" y2="1170.00" />
<line x1="1265.14" x2="1265.14" y1="1164.35" y2="1170.00" />
<line x1="1162.29" x2="1162.29" y1="1025.04" y2="1170.00" />
<line x1="792.00" x2="792.00" y1="1095.89" y2="1170.00" />
<line x1="997.71" x2="997.71" y1="746.35" y2="1170.00" />
<line x1="771.43" x2="771.43" y1="1090.76" y2="1170.00" />
<line x1="1326.86" x2="1326.86" y1="1146.62" y2="1170.00" />
<line x1="1100.57" x2="1100.57" y1="858.18" y2="1170.00" />
<line x1="750.86" x2="750.86" y1="1132.82" y2="1170.00" />
<line x1="977.14" x2="977.14" y1="984.41" y2="1170.00" />
<line x1="730.29" x2="730.29" y1="1077.97" y2="1170.00" />
<line x1="1244.57" x2="1244.57" y1="1112.08" y2="1170.00" />
<line x1="1182.86" x2="1182.86" y1="1064.22" y2="1170.00" />
<line x1="709.71" x2="709.71" y1="1165.21" y2="1170.00" />
<line x1="1470.86" x2="1470.86" y1="1165.64" y2="1170.00" />
<line x1="956.57" x2="956.57" y1="912.36" y2="1170.00" />
<line x1="689.14" x2="689.14" y1="1169.81" y2="1170.00" />
<line x1="1347.43" x2="1347.43" y1="1166.84" y2="1170.00" />
<line x1="1080.00" x2="1080.00" y1="777.51" y2="1170.00" />
<line x1="668.57" x2="668.57" y1="1164.78" y2="1170.00" />
<line x1="936.00" x2="936.00" y1="902.16" y2="1170.00" />
<line x1="648.00" x2="648.00" y1="1147.34" y2="1170.00" />
<line x1="1285.71" x2="1285.71" y1="1158.79" y2="1170.00" />
<line x1="1141.71" x2="1141.71" y1="856.17" y2="1170.00" />
<line x1="627.43" x2="627.43" y1="1137.81" y2="1170.00" />
<line x1="915.43" x2="915.43" y1="998.50" y2="1170.00" />
<line x1="606.86" x2="606.86" y1="1117.21" y2="1170.00" />
<line x1="1368.00" x2="1368.00" y1="1169.81" y2="1170.00" />
<line x1="1059.43" x2="1059.43" y1="826.18" y2="1170.00" />
<line x1="586.29" x2="586.29" y1="1068.06" y2="1170.00" />
<line x1="1532.57" x2="1532.57" y1="1169.33" y2="1170.00" />
<line x1="894.86" x2="894.86" y1="1002.90" y2="1170.00" />
<line x1="545.14" x2="545.14" y1="1132.06" y2="1170.00" />
<line x1="504.00" x2="504.00" y1="1136.47" y2="1170.00" />
<line x1="421.71" x2="421.71" y1="1154.43" y2="1170.00" />
</g>
<g stroke="#0008">
<line x1="385.71" x2="385.71" y1="1170.00" y2="1180.00" />
<line x1="797.14" x2="797.14" y1="1170.00" y2="1180.00" />
<line x1="1208.57" x2="1208.57" y1="1170.00" y2="1180.00" />
<line x1="1620.00" x2="1620.00" y1="1170.00" y2="1180.00" />
<g fill="black" font-family="Arial, sans-serif" font-size="50.0" stroke="none" text-anchor="start" transform="translate(25.0 0.0)">
<text x="385.71" y="1227.14">-20</text>
<text x="797.14" y="1227.14">-10</text>
<text x="1208.57" y="1227.14">0</text>
<text x="1620.00" y="1227.14">10</text>
</g>
<line x1="180.00" x2="1620.00" y1="1170.00" y2="1170.00" />
</g>
<g stroke="#0008">
<line x1="180.00" x2="146.67" y1="1170.00" y2="1170.00" />
<line x1="180.00" x2="146.67" y1="690.94" y2="690.94" />
<line x1="180.00" x2="146.67" y1="211.88" y2="211.88" />
<g fill="#0008" font-family="Arial, sans-serif" font-size="50.0" stroke="none" text-anchor="end">
<text x="155.00" y="1145.00">0</text>
<text x="155.00" y="665.94">1000</text>
<text x="155.00" y="186.88">2000</text>
</g>
<line x1="180.00" x2="180.00" y1="1170.00" y2="130.00" />
</g>
</g>
</svg>