<?xml version='1.0' encoding='UTF-8' standalone='no'?>
<svg width="720pt" xmlns:xlink="http://www.w3.org/1999/xlink" xmlns="http://www.w3.org/2000/svg" viewBox="0 0 720 160" height="160pt">
 <title>Figure 1</title>
 <desc>
Creator: GL2PS 1.4.2, (C) 1999-2020 C. Geuzaine
For: Octave
CreationDate: Mon Jan 13 15:38:40 2025
</desc>
 <defs/>
 <polygon fill="#ffffff" points="0,0 720,0 720,160 0,160"/>
 <g>
  <polygon shape-rendering="crispEdges" fill="#ffffff" points="0,160 720,160 720,0 0,0"/>
  <clipPath id="cp00720160">
   <polygon points="0,160 720,160 720,0 0,0"/>
  </clipPath>
  <g clip-path="url(#cp00720160)">
   <polyline stroke-linejoin="round" fill="none" stroke-linecap="butt" points="93.6007,111.707 94.2982,112.367 94.9957,113.021 95.6932,113.663 96.3907,114.291 97.0882,114.901 97.7857,115.489 98.4832,116.052 99.1807,116.586 99.8782,117.087 100.576,117.554 101.273,117.982 101.971,118.37 102.668,118.715 103.366,119.014 104.063,119.265 104.761,119.468 105.458,119.62 106.156,119.721 106.853,119.768 107.551,119.763 108.248,119.704 108.946,119.591 109.643,119.426 110.341,119.207 111.038,118.936 111.736,118.615 112.433,118.244 113.131,117.825 113.828,117.361 114.526,116.853 115.223,116.304 115.921,115.716 116.618,115.092 117.316,114.436 118.013,113.751 118.711,113.04 119.408,112.306 120.106,111.554 120.803,110.788 121.501,110.011 122.198,109.227 122.896,108.44 123.593,107.655 124.291,106.876 124.988,106.106 125.686,105.35 126.383,104.612 127.081,103.896 127.778,103.206 128.476,102.545 129.173,101.917 129.871,101.326 130.568,100.775 131.266,100.267 131.963,99.8043 132.661,99.3904 133.358,99.0275 134.056,98.7176 134.753,98.4628 135.451,98.2645 136.148,98.124 136.846,98.0425 137.543,98.0206 138.241,98.0586 138.938,98.1566 139.636,98.3143 140.333,98.5311 141.031,98.8061 141.728,99.1379 142.426,99.5251 143.123,99.9656 143.821,100.457 144.518,100.997 145.216,101.583 145.913,102.212 146.611,102.88 147.308,103.583 148.006,104.317 148.703,105.08 149.401,105.865 150.098,106.668 150.796,107.485 151.493,108.311 152.191,109.141 152.888,109.969 153.586,110.79 154.283,111.599 154.981,112.391 155.678,113.159 156.376,113.9 157.073,114.606 157.771,115.274 158.468,115.897 159.166,116.472 159.863,116.991 160.561,117.452 161.258,117.849 161.956,118.177 162.653,118.433 163.351,118.612 164.048,118.711 164.746,118.726 165.443,118.654 166.141,118.493 166.838,118.239 167.536,117.891 168.233,117.447 168.931,116.906 169.628,116.266 170.326,115.527 171.023,114.688 171.721,113.751 172.418,112.716 173.116,111.583 173.813,110.354 174.511,109.031 175.208,107.617 175.906,106.114 176.603,104.525 177.301,102.854 177.998,101.104 178.696,99.2803 179.393,97.3869 180.091,95.4289 180.788,93.4115 181.486,91.3404 182.183,89.2213 182.881,87.0604 183.578,84.864 184.276,82.6387 184.973,80.3912 185.671,78.1286 186.368,75.8577 187.066,73.5858 187.763,71.3202 188.461,69.0681 189.158,66.8369 189.856,64.6338 190.553,62.4662 191.251,60.3413 191.948,58.2662 192.646,56.2478 193.343,54.2932 194.041,52.4088 194.738,50.6012 195.436,48.8766 196.133,47.2409 196.831,45.6999 197.528,44.2587 198.226,42.9226 198.923,41.696 199.621,40.5834 200.318,39.5884 201.016,38.7148 201.713,37.9653 202.411,37.3427 203.108,36.8489 203.806,36.4858 204.503,36.2543 205.201,36.1553 205.898,36.1888 206.596,36.3546 207.293,36.6518 207.991,37.0792 208.688,37.6348 209.386,38.3165 210.083,39.1214 210.781,40.0463 211.478,41.0875 212.176,42.2407 212.873,43.5014 213.571,44.8646 214.268,46.3248 214.966,47.8762 215.663,49.5127 216.361,51.2277 217.058,53.0145 217.756,54.8658 218.453,56.7745 219.151,58.7327 219.848,60.7329 220.546,62.7669 221.243,64.8267 221.941,66.904 222.638,68.9906 223.336,71.078 224.033,73.1579 224.731,75.2221 225.428,77.262 226.126,79.2697 226.823,81.2369 227.521,83.1558 228.218,85.0186 228.916,86.8176 229.613,88.5458 230.311,90.1959 231.008,91.7613 231.706,93.2355 232.403,94.6126 233.101,95.8868 233.798,97.0529 234.496,98.1061 235.193,99.0418 235.891,99.8562 236.588,100.546 237.286,101.108 237.983,101.539 238.681,101.839 239.378,102.004 240.076,102.035 240.773,101.931 241.471,101.693 242.168,101.32 242.866,100.814 243.563,100.177 244.261,99.4117 244.958,98.5199 245.656,97.5053 246.353,96.3717 247.051,95.1234 247.748,93.765 248.446,92.3017 249.143,90.7392 249.841,89.0833 250.538,87.3404 251.236,85.5173 251.933,83.621 252.631,81.6588 253.328,79.6384 254.026,77.5675 254.723,75.4543 255.421,73.3069 256.118,71.1338 256.816,68.9435 257.513,66.7444 258.211,64.5453 258.908,62.3548 259.606,60.1815 260.303,58.034 261.001,55.9206 261.698,53.8499 262.396,51.83 263.093,49.8688 263.791,47.9743 264.488,46.154 265.186,44.415 265.883,42.7645 266.581,41.2091 267.278,39.7551 267.976,38.4083 268.673,37.1744 269.371,36.0584 270.068,35.0649 270.766,34.1981 271.463,33.4619 272.161,32.8593 272.858,32.3932 273.556,32.0658 274.253,31.8787 274.951,31.8333 275.648,31.9301 276.346,32.1692 277.043,32.5504 277.741,33.0727 278.438,33.7347 279.136,34.5345 279.833,35.4697 280.531,36.5372 281.228,37.7338 281.926,39.0555 282.623,40.4982 283.321,42.0569 284.018,43.7267 284.716,45.5021 285.413,47.377 286.111,49.3453 286.808,51.4006 287.506,53.5359 288.203,55.7441 288.901,58.0181 289.598,60.3503 290.296,62.733 290.993,65.1585 291.691,67.6187 292.388,70.1058 293.086,72.6117 293.783,75.1283 294.481,77.6476 295.178,80.1617 295.876,82.6627 296.573,85.1427 297.271,87.5941 297.968,90.0096 298.666,92.3817 299.363,94.7034 300.061,96.9681 300.758,99.169 301.456,101.3 302.153,103.356 302.851,105.33 303.548,107.217 304.246,109.014 304.943,110.714 305.641,112.315 306.338,113.813 307.036,115.205 307.733,116.487 308.431,117.658 309.128,118.717 309.826,119.661 310.523,120.489 311.221,121.203 311.918,121.801 312.616,122.283 313.313,122.652 314.011,122.909 314.708,123.055 315.406,123.092 316.103,123.024 316.801,122.853 317.498,122.582 318.196,122.217 318.893,121.76 319.591,121.216 320.288,120.59 320.986,119.886 321.683,119.111 322.381,118.27 323.078,117.368 323.776,116.411 324.473,115.406 325.171,114.357 325.868,113.272 326.566,112.157 327.263,111.019 327.961,109.862 328.658,108.694 329.356,107.521 330.053,106.35 330.751,105.185 331.448,104.034 332.146,102.902 332.843,101.795 333.541,100.717 334.238,99.6754 334.936,98.6738 335.633,97.7174 336.331,96.8105 337.028,95.9574 337.726,95.1619 338.423,94.4276 339.121,93.7576 339.818,93.155 340.516,92.6221 341.213,92.1611 341.911,91.7739 342.608,91.4619 343.306,91.226 344.003,91.0671 344.701,90.9853 345.398,90.9807 346.096,91.0528 346.793,91.2008 347.491,91.4236 348.188,91.7197 348.886,92.0873 349.583,92.5242 350.281,93.028 350.978,93.5959 351.676,94.2251 352.373,94.9121 353.071,95.6535 353.768,96.4455 354.466,97.2842 355.163,98.1656 355.861,99.0852 356.558,100.039 357.256,101.022 357.953,102.029 358.651,103.057 359.348,104.1 360.046,105.153 360.743,106.212 361.441,107.273 362.138,108.329 362.836,109.377 363.533,110.412 364.231,111.43 364.928,112.427 365.626,113.397 366.323,114.338 367.021,115.246 367.718,116.116 368.416,116.945 369.113,117.731 369.811,118.471 370.508,119.161 371.206,119.8 371.903,120.385 372.601,120.915 373.298,121.388 373.996,121.803 374.693,122.159 375.391,122.455 376.088,122.691 376.786,122.868 377.483,122.985 378.181,123.043 378.878,123.044 379.576,122.987 380.273,122.876 380.971,122.71 381.668,122.493 382.366,122.227 383.063,121.914 383.761,121.557 384.458,121.158 385.156,120.721 385.853,120.25 386.551,119.746 387.248,119.215 387.946,118.659 388.643,118.082 389.341,117.488 390.038,116.88 390.736,116.264 391.433,115.642 392.131,115.018 392.828,114.396 393.526,113.78 394.223,113.173 394.921,112.58 395.618,112.003 396.316,111.445 397.013,110.911 397.711,110.403 398.408,109.923 399.106,109.475 399.803,109.06 400.501,108.681 401.198,108.339 401.896,108.038 402.593,107.776 403.291,107.557 403.988,107.38 404.686,107.246 405.383,107.156 406.081,107.109 406.778,107.106 407.476,107.144 408.173,107.224 408.871,107.345 409.568,107.504 410.266,107.7 410.963,107.931 411.661,108.195 412.358,108.488 413.056,108.81 413.753,109.155 414.451,109.522 415.148,109.906 415.846,110.304 416.543,110.713 417.241,111.128 417.938,111.545 418.636,111.961 419.333,112.37 420.031,112.77 420.728,113.155 421.426,113.521 422.123,113.864 422.821,114.18 423.518,114.464 424.216,114.712 424.913,114.92 425.611,115.084 426.308,115.2 427.006,115.265 427.703,115.276 428.401,115.228 429.098,115.119 429.796,114.945 430.493,114.705 431.191,114.397 431.888,114.017 432.586,113.564 433.283,113.038 433.981,112.436 434.678,111.758 435.376,111.004 436.073,110.173 436.771,109.267 437.468,108.284 438.166,107.227 438.863,106.097 439.561,104.895 440.258,103.623 440.956,102.284 441.653,100.881 442.351,99.4166 443.048,97.8941 443.746,96.3172 444.443,94.69 445.141,93.0168 445.838,91.302 446.536,89.5506 447.233,87.7675 447.931,85.958 448.628,84.1275 449.326,82.2816 450.023,80.4262 450.721,78.567 451.418,76.7101 452.116,74.8616 452.813,73.0275 453.511,71.2141 454.208,69.4275 454.906,67.6737 455.603,65.959 456.301,64.2891 456.998,62.6702 457.696,61.1078 458.393,59.6076 459.091,58.175 459.788,56.8152 460.486,55.5332 461.183,54.3337 461.881,53.2211 462.578,52.1996 463.276,51.273 463.973,50.4447 464.671,49.7179 465.368,49.0954 466.066,48.5796 466.763,48.1723 467.461,47.8751 468.158,47.6893 468.856,47.6154 469.553,47.6538 470.251,47.8043 470.948,48.0662 471.646,48.4386 472.343,48.9199 473.041,49.5081 473.738,50.2009 474.436,50.9955 475.133,51.8886 475.831,52.8766 476.528,53.9555 477.226,55.1207 477.923,56.3676 478.621,57.6909 479.318,59.0852 480.016,60.5446 480.713,62.0631 481.411,63.6342 482.108,65.2515 482.806,66.908 483.503,68.5966 484.201,70.3103 484.898,72.0417 485.596,73.7833 486.293,75.5276 486.991,77.2671 487.688,78.994 488.386,80.701 489.083,82.3803 489.781,84.0246 490.478,85.6265 491.176,87.1788 491.873,88.6743 492.571,90.1063 493.268,91.468 493.966,92.7531 494.663,93.9554 495.361,95.0692 496.058,96.0889 496.756,97.0093 497.453,97.8259 498.151,98.5341 498.848,99.13 499.546,99.6101 500.243,99.9714 500.941,100.211 501.638,100.327 502.336,100.318 503.033,100.183 503.731,99.9206 504.428,99.5311 505.126,99.0149 505.823,98.3728 506.521,97.6063 507.218,96.7172 507.916,95.7081 508.613,94.5817 509.311,93.3416 510.008,91.9915 510.706,90.5359 511.403,88.9794 512.101,87.3274 512.798,85.5853 513.496,83.7593 514.193,81.8556 514.891,79.8811 515.588,77.8426 516.286,75.7476 516.983,73.6037 517.681,71.4185 518.378,69.2003 519.076,66.9571 519.773,64.6974 520.471,62.4295 521.168,60.1619 521.866,57.9033 522.563,55.6623 523.261,53.4473 523.958,51.2669 524.656,49.1295 525.353,47.0434 526.051,45.0167 526.748,43.0574 527.446,41.1731 528.143,39.3715 528.841,37.6596 529.538,36.0444 530.236,34.5324 530.933,33.1299 531.631,31.8426 532.328,30.6759 533.026,29.635 533.723,28.7242 534.421,27.9476 535.118,27.3089 535.816,26.8111 536.513,26.4568 537.211,26.248 537.908,26.1864 538.606,26.2728 539.303,26.5077 540.001,26.8911 540.698,27.4223 541.396,28.1002 542.093,28.9231 542.791,29.8887 543.488,30.9943 544.186,32.2367 544.883,33.6121 545.581,35.1163 546.278,36.7447 546.976,38.492 547.673,40.3528 548.371,42.3211 549.068,44.3905 549.766,46.5544 550.463,48.8058 551.161,51.1372 551.858,53.5412 552.556,56.0098 553.253,58.5351 553.951,61.1088 554.648,63.7225 555.346,66.3677 556.043,69.0359 556.741,71.7184 557.438,74.4065 558.136,77.0916 558.833,79.7652 559.531,82.4187 560.228,85.0438 560.926,87.6322 561.623,90.1758 562.321,92.6668 563.018,95.0976 563.716,97.4608 564.413,99.7493 565.111,101.956 565.808,104.076 566.506,106.102 567.203,108.028 567.901,109.849 568.598,111.561 569.296,113.16 569.993,114.641 570.691,116 571.388,117.236 572.086,118.345 572.783,119.326 573.481,120.177 574.178,120.897 574.876,121.486 575.573,121.944 576.271,122.272 576.968,122.47 577.666,122.541 578.363,122.486 579.061,122.307 579.758,122.009 580.456,121.594 581.153,121.066 581.851,120.43 582.548,119.69 583.246,118.851 583.943,117.919 584.641,116.9 585.338,115.798 586.036,114.621 586.733,113.376 587.431,112.069 588.128,110.706 588.826,109.295 589.523,107.844 590.221,106.359 590.918,104.848 591.616,103.318 592.313,101.778 593.011,100.233 593.708,98.6918 594.406,97.1615 595.103,95.6492 595.801,94.1618 596.498,92.7063 597.196,91.2893 597.893,89.9173 598.591,88.5963 599.288,87.3324 599.986,86.1312 600.683,84.9979 601.381,83.9376 602.078,82.9549 602.776,82.054 603.473,81.2389 604.171,80.5131 604.868,79.8795 605.566,79.3409 606.263,78.8995 606.961,78.5571 607.658,78.3152 608.356,78.1746 609.053,78.1359 609.751,78.1992 610.448,78.364 611.146,78.6296 611.843,78.9949 612.541,79.4582 613.238,80.0174 613.936,80.6703 614.633,81.414 615.331,82.2453 616.028,83.161 616.726,84.157 617.423,85.2294 618.121,86.3737 618.818,87.5854 619.516,88.8594 620.213,90.1907 620.911,91.5741 621.608,93.0039 622.306,94.4746 623.003,95.9805 623.701,97.5157 624.398,99.0744 625.096,100.65 625.793,102.238 626.491,103.831 627.188,105.424 627.886,107.011 628.583,108.586 629.281,110.143 629.978,111.677 630.676,113.183 631.373,114.655 632.071,116.089 632.768,117.479 633.466,118.821 634.163,120.111 634.861,121.345 635.558,122.52 636.256,123.631 636.953,124.675 637.651,125.651 638.348,126.555 639.046,127.386 639.743,128.141 640.441,128.819 641.138,129.42 641.836,129.942 642.533,130.385 643.231,130.749 643.928,131.035 644.626,131.242 645.323,131.373 646.021,131.428 646.718,131.409 647.416,131.319 648.113,131.158 648.811,130.93 649.508,130.638 650.206,130.284 650.903,129.871" stroke-width="0.5" stroke="#0071bc"/>
  </g>
 </g>
</svg>
