<?xml version="1.0"?>
<svg height="400" version="1.1" viewBox="0 0 1000 400" width="1000" xmlns:xlink="http://www.w3.org/1999/xlink" xmlns="http://www.w3.org/2000/svg">
<g>
<g transform="matrix(1.00,0.00,0.00,1.00,0.00,0.00)">
<g>
<g transform="matrix(1.00,0.00,0.00,1.00,0.00,0.00)">
<svg height="200" version="1.1" viewBox="0 0 1000 200" width="1000" xmlns:xlink="http://www.w3.org/1999/xlink" xmlns="http://www.w3.org/2000/svg">
<g>
<g>
<polyline fill="none" points="40.00,90.28 63.00,89.69 86.00,87.81 109.00,84.70 132.00,80.47 155.00,75.15 178.00,69.31 201.00,63.35 224.00,57.80 247.00,53.35 270.00,50.48 293.00,49.32 316.00,50.22 339.00,52.87 362.00,57.00 385.00,62.31 408.00,68.35 431.00,74.64 454.00,80.94 477.00,86.85 500.00,92.00 523.00,96.30 546.00,99.41 569.00,101.19 592.00,101.64 615.00,100.77 638.00,98.56 661.00,95.53 684.00,91.72 707.00,87.64 730.00,83.66 753.00,80.07 776.00,77.04 799.00,74.85 822.00,73.35 845.00,72.52 868.00,72.31 891.00,72.49 914.00,72.93 937.00,73.63 960.00,74.34" stroke-width="7px" stroke="#ffb2b0" />
<g fill="none" stroke-width="4px" stroke="#ffb2b0">
<line x1="960.00" x2="970.00" y1="27.69" y2="27.69" />
<line x1="960.00" x2="970.00" y1="71.92" y2="71.92" />
<line x1="960.00" x2="970.00" y1="116.15" y2="116.15" />
<g dominant-baseline="hanging" fill="black" font-family="Arial, sans-serif" font-size="10" stroke="none" text-anchor="start">
<text x="965.00" y="27.69">550</text>
<text x="965.00" y="71.92">500</text>
<text x="965.00" y="116.15">450</text>
</g>
<line x1="960.00" x2="960.00" y1="133.85" y2="10.00" />
</g>
</g>
<g>
<g stroke-dasharray="1 1" stroke="#ccc">
<line x1="40.00" x2="40.00" y1="10.00" y2="180.00" />
<line x1="63.00" x2="63.00" y1="10.00" y2="180.00" />
<line x1="86.00" x2="86.00" y1="10.00" y2="180.00" />
<line x1="109.00" x2="109.00" y1="10.00" y2="180.00" />
<line x1="132.00" x2="132.00" y1="10.00" y2="180.00" />
<line x1="155.00" x2="155.00" y1="10.00" y2="180.00" />
<line x1="178.00" x2="178.00" y1="10.00" y2="180.00" />
<line x1="201.00" x2="201.00" y1="10.00" y2="180.00" />
<line x1="224.00" x2="224.00" y1="10.00" y2="180.00" />
<line x1="247.00" x2="247.00" y1="10.00" y2="180.00" />
<line x1="270.00" x2="270.00" y1="10.00" y2="180.00" />
<line x1="293.00" x2="293.00" y1="10.00" y2="180.00" />
<line x1="316.00" x2="316.00" y1="10.00" y2="180.00" />
<line x1="339.00" x2="339.00" y1="10.00" y2="180.00" />
<line x1="362.00" x2="362.00" y1="10.00" y2="180.00" />
<line x1="385.00" x2="385.00" y1="10.00" y2="180.00" />
<line x1="408.00" x2="408.00" y1="10.00" y2="180.00" />
<line x1="431.00" x2="431.00" y1="10.00" y2="180.00" />
<line x1="454.00" x2="454.00" y1="10.00" y2="180.00" />
<line x1="477.00" x2="477.00" y1="10.00" y2="180.00" />
<line x1="500.00" x2="500.00" y1="10.00" y2="180.00" />
<line x1="523.00" x2="523.00" y1="10.00" y2="180.00" />
<line x1="546.00" x2="546.00" y1="10.00" y2="180.00" />
<line x1="569.00" x2="569.00" y1="10.00" y2="180.00" />
<line x1="592.00" x2="592.00" y1="10.00" y2="180.00" />
<line x1="615.00" x2="615.00" y1="10.00" y2="180.00" />
<line x1="638.00" x2="638.00" y1="10.00" y2="180.00" />
<line x1="661.00" x2="661.00" y1="10.00" y2="180.00" />
<line x1="684.00" x2="684.00" y1="10.00" y2="180.00" />
<line x1="707.00" x2="707.00" y1="10.00" y2="180.00" />
<line x1="730.00" x2="730.00" y1="10.00" y2="180.00" />
<line x1="753.00" x2="753.00" y1="10.00" y2="180.00" />
<line x1="776.00" x2="776.00" y1="10.00" y2="180.00" />
<line x1="799.00" x2="799.00" y1="10.00" y2="180.00" />
<line x1="822.00" x2="822.00" y1="10.00" y2="180.00" />
<line x1="845.00" x2="845.00" y1="10.00" y2="180.00" />
<line x1="868.00" x2="868.00" y1="10.00" y2="180.00" />
<line x1="891.00" x2="891.00" y1="10.00" y2="180.00" />
<line x1="914.00" x2="914.00" y1="10.00" y2="180.00" />
<line x1="937.00" x2="937.00" y1="10.00" y2="180.00" />
<line x1="40.00" x2="960.00" y1="18.95" y2="18.95" />
<line x1="40.00" x2="960.00" y1="36.84" y2="36.84" />
<line x1="40.00" x2="960.00" y1="54.74" y2="54.74" />
<line x1="40.00" x2="960.00" y1="72.63" y2="72.63" />
<line x1="40.00" x2="960.00" y1="90.53" y2="90.53" />
<line x1="40.00" x2="960.00" y1="108.42" y2="108.42" />
<line x1="40.00" x2="960.00" y1="126.32" y2="126.32" />
<line x1="40.00" x2="960.00" y1="144.21" y2="144.21" />
<line x1="40.00" x2="960.00" y1="162.11" y2="162.11" />
<line x1="40.00" x2="960.00" y1="180.00" y2="180.00" />
</g>
<polyline fill="none" points="40.00,60.82 40.46,62.25 40.88,63.68 41.30,66.73 43.65,66.37 48.99,61.72 49.27,72.99 49.55,68.69 49.83,68.16 50.11,70.31 50.39,68.69 50.67,71.56 50.95,66.55 51.23,70.48 51.51,66.91 51.79,69.59 52.07,69.41 52.35,66.37 52.63,69.23 52.91,61.18 53.19,63.68 53.47,63.15 54.03,63.68 54.59,62.43 54.87,65.65 55.15,61.18 55.43,67.62 55.71,65.83 55.99,77.46 56.27,62.97 56.83,69.05 58.23,78.72 59.62,70.31 61.02,68.87 62.05,66.01 63.07,69.77 63.55,71.74 64.03,76.03 64.50,71.56 64.98,69.77 65.46,63.51 65.94,66.73 66.42,68.87 66.89,66.55 67.37,71.20 67.85,66.55 68.33,68.52 68.81,72.63 69.28,66.73 69.76,74.24 70.54,70.13 71.31,66.01 72.08,67.08 72.86,67.44 74.37,70.13 76.38,67.44 78.38,69.05 80.39,74.78 82.40,65.83 87.62,81.04 88.02,68.87 88.48,73.35 88.93,73.53 89.38,76.39 89.83,74.78 90.28,77.28 90.73,73.71 91.18,66.37 91.63,68.87 92.08,72.63 92.53,66.19 92.98,67.08 93.43,67.98 93.88,67.98 94.33,69.77 94.78,69.05 95.23,76.03 95.68,79.79 96.14,59.93 96.59,84.08 97.04,84.26 97.49,86.23 100.42,65.65 101.01,71.02 101.60,67.80 102.20,72.27 102.79,81.94 103.38,85.16 103.97,73.35 105.15,64.94 106.63,63.51 108.11,72.81 109.58,72.45 111.06,77.64 112.54,75.67 114.01,71.92 116.60,74.78 119.19,71.74 121.79,51.34 123.52,57.06 123.93,60.11 124.35,66.55 124.76,64.58 125.17,66.73 125.59,65.47 126.00,61.54 126.41,56.71 126.83,60.46 127.24,60.46 127.65,59.03 128.07,53.31 128.48,61.18 128.89,61.89 129.31,53.66 129.72,64.04 130.14,61.00 130.55,59.21 130.96,57.42 131.38,59.03 131.79,58.32 132.20,59.21 132.70,58.14 134.71,59.93 134.91,59.39 135.10,55.09 135.30,56.88 135.50,67.26 136.04,62.79 136.58,53.48 137.12,54.56 137.66,63.33 138.28,58.67 139.02,52.77 139.77,50.80 140.51,51.34 141.25,56.53 142.00,53.13 142.74,52.95 143.49,69.59 144.23,53.31 144.98,53.66 145.72,52.95 146.47,64.22 147.64,62.25 148.80,52.41 149.97,52.95 151.14,56.53 152.30,49.91 153.47,55.63 154.64,54.20 155.22,56.53 155.81,54.20 156.39,58.67 156.97,59.75 157.56,54.74 158.14,61.00 158.73,65.12 159.08,66.01 159.37,53.48 159.67,54.02 159.97,64.04 160.26,53.13 160.56,50.26 160.85,54.74 161.15,55.09 161.44,51.69 161.74,59.21 162.04,53.13 162.33,55.63 162.63,53.84 162.92,52.95 163.22,51.34 163.51,53.66 163.81,50.26 163.96,52.05 164.11,50.08 164.32,49.37 164.52,51.87 164.67,52.59 164.82,48.83 164.97,50.08 165.12,59.75 165.42,56.35 165.57,49.55 165.72,45.61 165.86,61.00 166.01,56.88 166.16,47.40 166.31,48.83 166.46,45.25 166.61,53.13 166.76,51.34 166.91,53.66 167.06,48.29 167.20,46.68 167.35,55.09 167.50,45.61 167.65,49.91 167.80,51.87 167.95,52.77 168.10,50.44 168.25,44.54 168.69,54.38 169.29,47.22 169.89,40.96 170.48,40.96 171.08,43.28 171.67,51.69 172.27,38.99 172.99,47.76 173.99,44.89 175.00,47.94 176.00,42.93 177.01,49.19 178.01,47.40 179.02,44.72 180.02,45.97 181.03,42.93 182.03,47.22 183.04,48.29 184.05,43.46 185.05,46.33 185.90,47.22 186.65,52.05 187.40,45.79 188.15,44.89 188.90,44.72 189.65,45.79 190.40,52.95 191.30,47.58 192.27,58.67 193.23,51.69 194.20,54.20 195.16,47.94 196.13,45.07 197.09,56.35 198.06,52.05 199.03,45.07 199.99,53.48 200.95,49.01 201.72,47.04 202.49,51.69 203.18,44.72 203.95,38.45 204.72,47.94 205.49,42.57 206.26,45.43 207.03,43.82 207.80,39.88 208.56,40.60 209.33,44.18 210.10,38.27 211.47,40.96 212.91,40.42 214.35,45.43 215.79,41.67 216.97,41.32 217.52,40.42 218.07,49.73 218.62,42.93 219.17,40.96 219.72,38.99 220.27,40.42 220.82,44.00 221.38,44.89 223.41,42.75 223.69,47.58 223.97,42.57 224.24,51.87 224.52,46.86 224.79,48.47 225.40,49.37 225.57,48.65 225.80,57.24 226.03,54.02 226.26,52.77 228.39,46.86 230.54,39.63 231.02,45.07 231.50,42.75 231.98,44.72 232.46,42.75 232.94,36.66 233.42,40.42 233.90,46.68 234.38,47.76 234.86,46.86 235.47,42.93 236.09,48.12 236.71,37.02 237.32,44.18 237.94,44.72 238.55,38.81 239.17,44.54 239.79,38.81 240.40,42.75 241.02,43.46 241.64,37.92 242.25,36.31 242.87,41.49 243.48,41.14 244.10,46.33 246.94,43.28 247.36,38.45 247.77,40.42 248.18,37.92 248.59,53.13 249.00,61.72 249.41,61.72 250.09,64.04 250.76,59.39 251.43,59.21 252.10,55.99 252.77,52.59 253.44,40.78 254.11,43.46 254.78,42.75 255.45,45.43 256.12,47.58 256.79,47.04 257.46,47.76 258.13,45.07 258.80,42.57 259.47,40.06 260.13,50.26 260.80,56.71 261.47,57.42 262.13,50.08 262.80,45.61 263.47,54.38 264.14,58.67 264.80,46.15 265.47,46.15 266.14,49.01 266.80,48.47 267.47,50.08 268.14,51.87 268.80,61.72 269.47,56.35 269.89,49.55 270.31,54.02 270.73,51.52 271.15,45.25 271.57,44.18 271.99,43.64 272.41,42.93 272.83,47.58 273.25,57.24 273.67,53.13 274.09,51.34 274.51,41.14 274.93,41.32 275.35,46.51 275.77,50.44 276.19,45.79 276.61,47.76 277.03,45.07 277.45,44.18 277.87,50.26 278.29,44.00 278.71,45.79 279.13,47.04 279.57,56.35 280.00,56.53 280.44,50.98 280.88,61.36 281.31,49.37 281.75,46.51 282.18,45.43 282.62,47.04 283.06,43.64 283.93,44.89 284.36,49.55 284.80,48.12 285.24,43.11 285.67,46.33 286.11,58.32 286.54,54.20 286.98,56.17 287.42,50.62 287.85,44.72 288.29,45.79 288.73,47.22 289.16,62.61 289.60,66.37 290.03,67.26 290.47,64.76 290.91,62.43 291.35,59.93 291.79,57.78 292.23,58.67 292.67,49.19 293.11,51.16 293.55,54.38 293.99,56.17 294.43,54.74 294.87,50.62 295.31,55.09 295.75,58.14 296.19,57.60 296.63,54.56 297.07,50.98 297.51,70.48 297.95,73.17 298.39,68.69 298.83,62.79 299.27,57.96 299.70,61.89 300.14,71.74 300.58,69.59 301.02,71.74 301.46,66.19 301.85,66.73 302.24,73.17 302.63,71.92 303.02,73.35 303.41,73.35 303.80,70.13 304.19,72.27 304.57,72.27 305.08,79.68 305.35,78.50 305.63,87.54 305.90,76.46 306.44,78.84 306.71,85.21 306.98,69.11 307.26,81.22 307.51,85.14 307.79,79.02 308.05,70.93 308.32,87.65 308.58,80.34 308.86,75.46 309.11,80.17 309.38,94.61 309.65,78.09 309.93,72.47 310.19,80.02 310.47,74.22 310.74,75.82 311.03,83.53 311.32,78.38 312.31,89.92 313.17,84.57 313.94,73.97 314.70,79.18 315.46,92.48 316.21,83.37 316.97,93.71 317.70,82.92 318.46,84.42 319.23,83.33 319.98,73.22 320.74,90.10 321.52,83.42 322.30,89.06 323.15,93.07 324.08,91.55 324.66,98.72 325.22,84.73 325.74,84.66 326.26,87.81 326.78,79.49 327.33,79.49 327.93,79.54 328.47,83.23 328.96,80.99 329.44,79.56 329.92,77.89 330.40,62.99 330.89,82.13 331.43,83.48 331.84,84.17 332.23,73.85 332.61,74.08 332.99,73.99 333.34,74.92 333.72,76.85 334.10,70.25 334.49,60.30 334.91,66.40 335.17,70.48 335.43,63.15 335.70,67.57 335.96,51.71 336.22,52.57 336.48,62.72 336.75,64.69 337.01,58.75 337.30,61.43 337.60,53.79 337.87,50.55 338.16,54.86 338.44,62.56 338.72,73.11 339.00,70.73 339.28,75.67 339.55,55.33 339.84,57.53 340.12,62.11 340.39,63.90 340.66,69.73 340.93,66.91 341.21,62.38 341.76,42.66 342.02,57.44 342.31,60.61 342.59,65.21 342.86,68.62 343.16,55.70 343.44,67.30 343.73,74.55 344.00,73.19 344.29,62.04 344.59,68.41 344.90,61.48 345.20,49.14 345.50,60.98 345.79,58.89 346.10,55.29 346.38,58.64 346.67,66.89 346.95,67.03 347.23,69.48 347.52,66.62 347.82,50.66 348.10,39.22 348.38,72.56 348.67,63.74 348.96,63.27 349.26,54.84 349.55,53.70 349.82,50.25 350.12,62.86 350.41,64.53 350.70,74.49 350.99,33.78 351.29,58.87 351.59,41.19 351.80,58.07 352.01,60.14 352.20,63.61 352.41,75.26 352.60,50.08 352.80,60.43 353.01,59.69 353.21,44.75 353.41,54.83 353.61,58.48 353.81,51.46 354.01,42.57 354.21,50.98 354.41,58.01 354.61,56.53 354.81,71.33 355.01,52.70 355.21,54.38 355.42,62.18 355.62,58.94 355.81,60.05 356.10,38.08 356.39,56.26 356.68,56.04 356.95,50.50 357.23,62.23 357.52,58.92 357.79,66.96 358.07,64.58 358.35,64.27 358.62,61.38 358.91,65.49 359.18,58.62 359.45,61.09 359.73,74.24 360.01,72.43 360.29,69.95 360.57,69.73 360.86,79.77 361.14,77.36 361.44,65.28 361.72,64.99 362.03,70.81 362.36,73.37 362.67,71.74 362.98,63.09 363.29,67.03 363.59,64.90 363.89,65.97 364.20,60.48 364.50,60.32 364.81,64.01 365.11,67.75 365.42,73.94 365.71,64.81 366.34,54.59 366.66,73.40 367.07,65.19 367.49,63.95 367.91,59.60 368.31,62.31 368.70,67.42 369.11,65.19 369.50,58.37 369.90,57.69 370.30,59.85 370.69,78.93 371.11,74.12 371.51,64.90 371.92,77.57 372.33,65.53 372.72,73.92 373.12,80.76 373.51,79.99 374.33,77.79 374.58,82.49 374.82,89.63 375.08,77.19 375.32,81.04 375.56,78.70 375.80,72.15 376.06,82.29 376.31,93.68 376.57,86.25 376.87,90.47 377.18,85.03 377.49,87.41 377.78,97.58 378.09,101.35 378.40,85.05 378.70,93.57 379.00,94.16 379.61,111.00 380.46,96.29 381.20,105.81 381.91,117.17 382.60,95.30 383.30,100.71 384.05,96.11 384.90,103.29 385.54,94.70 386.13,103.48 386.70,108.47 387.29,110.00 387.94,104.54 388.37,99.03 388.81,100.80 389.23,89.22 389.68,106.86 390.14,115.36 390.60,113.38 391.05,102.80 391.50,99.17 391.97,107.54 392.59,101.07 393.17,102.07 393.75,106.38 394.40,108.51 394.97,109.26 395.49,112.91 396.01,96.16 396.59,95.84 396.88,92.67 397.17,91.96 397.45,101.50 397.75,130.25 398.04,88.52 398.27,87.18 398.50,93.69 398.72,101.33 398.95,91.78 399.19,99.40 399.38,108.39 399.56,105.25 399.74,104.65 399.94,111.14 400.13,108.26 400.36,101.39 400.59,98.69 400.84,95.13 401.26,113.90 401.67,105.88 402.05,101.32 402.45,100.15 402.86,98.63 403.33,116.51 403.79,117.26 404.25,108.31 404.89,105.99 405.47,111.07 406.03,124.01 406.67,115.40 407.83,115.11 408.68,111.84 409.89,119.41 410.10,109.24 410.31,123.15 410.53,122.95 410.75,84.80 410.97,84.05 411.21,98.38 411.45,106.54 411.68,102.44 411.93,84.55 412.80,96.95 413.20,95.32 413.62,93.59 414.13,95.07 414.61,98.20 415.06,102.69 415.57,97.93 416.03,106.54 416.48,110.80 416.94,99.58 417.37,103.89 417.81,82.89 418.23,81.17 418.68,86.11 419.02,82.28 419.33,83.69 419.65,97.88 419.96,90.19 420.28,91.37 420.59,92.42 420.89,93.39 421.19,104.34 421.50,106.24 421.81,109.96 422.46,105.31 423.79,86.98 424.12,99.26 424.78,93.35 425.09,98.08 425.41,79.34 425.71,91.73 426.54,96.00 427.19,98.54 427.86,93.35 428.68,106.65 429.13,87.39 429.57,93.44 430.05,97.59 430.45,97.36 430.84,102.05 431.28,103.36 431.51,98.61 431.75,103.30 431.98,100.98 432.15,95.14 432.32,103.48 432.49,104.95 432.67,113.23 432.87,105.79 433.10,90.74 433.31,94.00 433.54,83.74 433.84,95.86 434.13,80.40 434.42,82.63 434.89,83.24 435.32,82.90 435.75,90.13 436.22,82.81 436.77,79.59 437.05,89.65 437.33,85.23 437.96,85.43 438.53,89.22 439.14,97.63 439.98,92.32 440.66,81.17 441.35,83.96 442.19,87.20 442.86,91.87 443.45,103.84 444.04,99.13 444.68,97.68 445.38,90.97 446.01,103.64 446.73,104.23 447.15,102.50 447.55,102.05 447.94,91.33 448.35,83.35 449.22,98.92 449.95,95.64 450.64,76.16 451.38,77.61 452.22,89.40 453.98,69.05 455.18,83.14 456.38,83.44 458.14,70.14 458.71,85.68 459.24,82.83 459.80,85.64 460.38,75.17 460.73,78.21 461.07,86.00 461.42,84.71 461.76,87.59 462.29,85.57 462.77,83.06 463.30,78.11 463.52,90.72 463.73,89.85 463.94,76.82 464.15,82.35 464.36,76.62 464.58,78.14 464.79,70.56 465.01,73.88 465.27,91.24 465.55,90.81 465.81,74.40 466.08,70.05 466.44,73.47 466.80,72.94 467.16,69.54 467.83,83.55 468.44,86.59 469.15,87.61 469.42,84.85 469.72,86.23 470.01,54.54 470.28,52.32 470.61,68.75 470.92,69.97 471.23,63.90 471.55,68.53 471.88,82.19 472.08,77.41 472.26,74.06 472.45,73.13 472.64,94.19 472.84,81.36 472.98,70.95 473.11,57.06 473.25,71.31 473.38,73.74 473.52,66.35 473.65,67.01 473.83,78.29 473.99,73.99 474.15,90.06 474.32,94.61 474.54,81.76 474.75,74.89 474.96,85.80 475.18,84.30 475.39,79.29 475.62,79.18 475.84,81.15 476.05,81.60 476.26,82.49 476.48,81.65 476.83,72.08 477.17,86.07 477.51,87.13 477.84,91.44 478.07,90.03 478.30,80.51 478.52,81.17 478.75,84.39 478.98,82.13 479.22,83.64 479.46,86.89 479.70,88.07 479.96,78.88 480.21,78.57 480.47,85.98 480.75,93.68 481.04,91.51 481.32,86.36 481.57,78.02 481.82,90.24 482.06,71.47 482.31,78.30 482.55,91.10 482.80,93.96 483.06,89.45 484.18,85.69 485.36,87.31 486.74,95.18 487.21,92.32 487.70,89.81 488.18,86.77 488.63,89.27 489.09,95.18 489.55,99.47 489.99,89.45 490.44,91.60 490.90,96.79 491.35,91.60 491.80,90.53 492.25,86.59 492.69,82.83 493.15,93.39 493.58,99.83 494.04,96.25 494.49,95.00 494.93,87.48 495.38,87.13 495.83,86.59 496.27,87.84 496.72,89.63 497.21,90.88 497.68,95.00 498.17,91.60 498.67,89.81 499.05,83.73 499.40,96.61 499.77,100.37 500.11,97.33 500.46,91.06 500.80,87.66 501.15,101.08 501.51,102.69 501.86,102.52 502.22,94.82 502.99,98.40 503.75,96.43 504.43,97.86 505.12,92.49 505.77,92.49 506.43,97.15 507.10,100.91 507.74,99.12 508.41,98.94 509.06,96.97 509.75,100.19 510.40,96.43 511.04,96.79 511.72,94.46 512.42,89.45 513.17,91.24 513.97,95.54 515.20,92.32 516.24,91.42 517.14,97.51 518.08,104.13 518.97,99.65 519.88,92.85 520.78,94.64 521.72,98.40 522.64,98.76 523.54,103.23 524.47,93.03 525.40,94.28 526.43,92.32 527.63,97.68 528.81,96.25 529.85,101.98 530.77,103.05 531.68,100.19 532.59,100.55 533.50,92.32 534.42,90.53 535.33,101.26 536.26,100.19 537.29,101.44 538.46,96.43 538.94,99.29 539.42,100.01 539.88,100.73 540.35,97.33 540.80,93.39 541.25,99.83 541.72,98.58 542.19,98.58 542.69,95.54 543.16,95.00 544.80,101.80 546.08,86.05 547.25,93.57 548.38,98.40 549.54,104.48 550.70,101.44 551.84,107.17 552.98,105.38 554.18,102.34 557.06,103.59 557.64,104.66 558.20,97.15 558.74,97.15 559.27,100.19 559.79,96.07 560.31,97.51 560.84,100.55 561.35,100.19 561.93,98.94 562.54,100.01 563.51,101.62 564.37,96.25 565.12,98.76 565.90,95.00 566.65,92.14 567.40,96.97 568.16,102.87 568.91,100.91 569.67,101.26 570.45,100.55 571.30,100.55 572.23,96.79 572.54,96.07 572.85,94.46 573.15,103.41 573.45,89.09 573.76,95.18 574.06,91.60 574.36,107.53 574.67,106.27 574.97,97.51 575.29,96.25 575.59,100.01 575.90,98.40 576.68,99.12 577.38,97.15 578.03,96.43 578.67,86.05 579.32,96.25 579.96,98.22 580.66,93.03 581.43,90.35 581.99,92.32 582.51,100.91 583.03,98.04 583.52,95.18 584.01,98.58 584.50,91.60 585.02,99.47 585.55,99.83 586.10,100.91 586.69,106.45 587.26,106.09 587.79,106.09 588.32,102.16 588.84,103.59 589.37,100.91 589.91,106.81 590.48,109.14 591.08,104.66 592.56,119.69 593.68,120.23 594.74,117.01 595.76,111.82 596.78,113.43 597.80,121.13 598.84,118.80 599.88,114.15 600.92,112.36 602.05,108.60 603.47,117.01 603.87,108.24 604.27,112.18 604.65,123.09 605.04,111.11 605.43,103.77 605.82,90.53 606.24,98.40 607.24,93.03 608.12,94.28 608.91,85.87 609.70,93.21 610.48,89.45 611.30,93.03 612.16,93.93 613.14,86.41 613.85,100.19 614.54,98.40 615.18,96.97 615.83,93.03 616.44,90.35 617.07,93.39 617.68,89.81 618.30,91.42 618.90,96.79 619.53,95.00 620.16,99.47 620.82,99.12 621.51,102.34 622.23,97.86 622.53,94.11 622.83,87.66 623.15,95.36 623.45,102.16 623.74,95.72 624.05,100.37 624.36,84.08 624.66,90.17 624.97,90.53 625.28,89.63 626.04,96.61 626.79,98.40 627.48,106.99 628.13,98.40 628.78,98.94 629.43,105.38 630.07,92.85 630.73,96.43 631.38,106.63 632.01,101.08 632.68,95.00 633.32,95.00 633.97,98.94 634.64,102.34 635.29,101.44 635.95,93.39 636.64,93.03 637.36,94.82 638.07,88.38 638.79,89.09 639.51,89.63 640.20,93.75 640.84,96.79 641.51,90.35 642.15,93.03 642.81,89.09 643.45,81.04 644.13,87.84 644.84,79.61 645.61,64.58 646.31,85.16 646.98,96.79 647.63,92.14 648.25,87.31 648.87,94.11 649.50,81.76 650.18,90.35 650.89,86.41 651.36,86.41 651.83,91.60 652.28,92.85 652.73,93.39 653.17,81.76 653.61,76.39 654.05,66.01 654.50,74.42 654.95,82.12 655.41,81.40 655.86,80.15 656.89,77.46 657.87,85.34 658.77,85.87 659.65,76.57 660.52,79.79 661.39,88.56 662.25,84.80 663.13,80.51 663.99,84.62 664.86,89.45 665.74,85.52 666.67,85.52 667.64,79.43 668.64,83.37 669.50,85.52 670.33,78.18 671.13,80.15 671.89,82.12 672.65,80.33 673.42,78.54 674.18,72.99 674.94,80.33 675.67,73.71 676.43,75.14 677.18,73.88 677.94,67.44 678.68,65.29 679.43,64.94 680.22,64.58 681.02,72.99 681.84,70.84 682.72,78.18 683.38,90.88 684.02,86.23 684.66,81.40 685.28,88.56 685.91,76.75 686.55,89.09 687.43,82.47 688.24,85.34 689.03,83.73 689.80,81.58 691.29,83.55 692.06,74.24 692.81,84.08 693.59,80.51 694.42,81.40 695.28,81.94 696.02,81.94 696.73,86.77 698.13,80.33 698.81,73.88 699.48,78.00 700.15,76.39 700.81,69.59 701.50,69.05 702.14,70.31 702.80,70.48 703.46,65.12 704.16,64.04 704.79,60.64 705.48,66.19 706.15,70.84 706.82,54.92 707.52,57.96 708.21,60.46 708.96,60.28 709.68,60.46 710.48,75.49 711.27,73.17 712.00,82.65 712.69,75.67 713.42,75.14 714.13,72.99 714.84,74.96 715.61,77.64 716.41,78.72 717.37,83.37 718.29,84.44 719.14,90.53 719.98,83.91 720.82,75.49 721.65,88.56 722.49,89.27 723.36,81.94 724.28,86.59 725.25,84.44 726.07,84.44 726.88,91.42 727.64,81.22 728.40,86.59 729.15,89.45 729.89,82.29 730.63,82.29 731.36,83.01 732.10,92.14 732.90,90.53 733.67,85.52 734.48,82.29 735.29,84.44 736.13,84.08 736.93,80.68 737.72,80.15 738.50,83.19 739.28,80.68 740.09,78.00 741.06,77.28 742.22,75.67 743.39,80.15 744.51,78.89 745.64,72.09 746.73,64.22 747.79,64.22 748.88,65.29 750.02,70.84 751.07,73.53 752.17,78.36 753.28,75.14 754.40,78.54 755.52,73.71 756.66,76.21 758.26,73.35 759.78,74.60 761.27,73.71 762.80,78.72 764.32,75.85 765.86,79.25 767.46,81.58 769.34,76.21 771.16,84.26 772.85,83.55 774.55,75.14 776.20,72.81 777.89,66.55 779.59,63.33 781.43,63.86 783.56,69.95 784.85,56.71 786.15,63.68 787.39,54.02 788.57,60.11 789.72,57.42 790.88,61.72 792.04,80.33 793.25,79.07 794.43,81.58 795.63,80.15 797.26,73.88 799.02,78.18 800.78,77.82 802.47,75.14 804.15,79.97 805.85,79.43 807.68,72.45 809.52,69.05 811.27,63.51 813.02,64.04 814.69,64.22 816.30,66.37 817.94,69.59 819.57,64.22 821.14,55.81 822.77,71.38 824.35,77.46 826.03,83.91 827.72,76.39 829.35,79.25 830.57,79.43 831.71,77.46 832.83,78.18 834.05,76.57 835.18,80.86 836.36,68.69 837.51,69.77 838.64,68.87 839.85,66.01 840.99,65.29 842.11,62.79 843.25,68.69 844.46,61.18 845.62,57.78 846.81,50.44 848.02,51.52 849.15,54.38 850.65,60.64 852.15,66.55 853.60,61.36 855.09,58.49 856.51,59.21 857.99,76.57 859.43,75.67 860.90,78.18 862.39,72.81 863.94,74.60 865.52,77.46 867.32,87.48 869.00,82.65 870.65,80.86 872.22,80.51 873.84,79.97 875.49,76.39 877.26,79.07 879.13,70.84 881.02,78.72 882.77,64.22 884.42,59.39 886.14,66.91 887.93,63.15 889.86,64.94 890.93,61.72 892.00,59.57 893.06,63.33 894.10,67.62 895.11,61.89 896.13,66.91 897.13,60.64 898.13,63.68 899.14,59.57 900.11,62.97 901.11,60.82 902.13,55.45 903.11,55.81 904.14,56.17 905.17,60.11 906.15,54.56 907.19,61.89 908.25,68.69 909.32,58.67 910.37,66.01 911.17,59.57 911.96,58.49 912.73,52.95 913.53,62.79 914.32,63.86 915.06,66.01 915.85,69.95 916.63,64.40 917.40,61.89 918.19,58.85 918.98,56.71 919.78,61.36 920.53,60.28 921.64,80.15 923.04,84.08 924.34,78.54 925.60,82.47 926.83,82.47 928.05,81.76 929.28,82.83 930.51,88.74 931.77,89.09 932.94,88.20 934.22,91.78 935.48,86.59 936.72,86.23 937.95,84.08 938.92,91.24 939.93,94.82 940.92,83.55 941.91,90.88 942.84,91.06 943.82,90.71 944.87,90.88 945.82,93.75 946.75,91.60 947.76,96.07 948.74,100.19 949.70,97.86 950.67,99.29 951.69,88.38 952.64,81.58 953.62,81.04 954.64,81.76 955.60,84.62 956.63,83.55 957.67,84.26 958.63,79.79 959.38,63.88" stroke="#000000" />
<g stroke="black">
<line x1="40.00" x2="40.00" y1="180.00" y2="190.00" />
<line x1="63.00" x2="63.00" y1="180.00" y2="190.00" />
<line x1="86.00" x2="86.00" y1="180.00" y2="190.00" />
<line x1="109.00" x2="109.00" y1="180.00" y2="190.00" />
<line x1="132.00" x2="132.00" y1="180.00" y2="190.00" />
<line x1="155.00" x2="155.00" y1="180.00" y2="190.00" />
<line x1="178.00" x2="178.00" y1="180.00" y2="190.00" />
<line x1="201.00" x2="201.00" y1="180.00" y2="190.00" />
<line x1="224.00" x2="224.00" y1="180.00" y2="190.00" />
<line x1="247.00" x2="247.00" y1="180.00" y2="190.00" />
<line x1="270.00" x2="270.00" y1="180.00" y2="190.00" />
<line x1="293.00" x2="293.00" y1="180.00" y2="190.00" />
<line x1="316.00" x2="316.00" y1="180.00" y2="190.00" />
<line x1="339.00" x2="339.00" y1="180.00" y2="190.00" />
<line x1="362.00" x2="362.00" y1="180.00" y2="190.00" />
<line x1="385.00" x2="385.00" y1="180.00" y2="190.00" />
<line x1="408.00" x2="408.00" y1="180.00" y2="190.00" />
<line x1="431.00" x2="431.00" y1="180.00" y2="190.00" />
<line x1="454.00" x2="454.00" y1="180.00" y2="190.00" />
<line x1="477.00" x2="477.00" y1="180.00" y2="190.00" />
<line x1="500.00" x2="500.00" y1="180.00" y2="190.00" />
<line x1="523.00" x2="523.00" y1="180.00" y2="190.00" />
<line x1="546.00" x2="546.00" y1="180.00" y2="190.00" />
<line x1="569.00" x2="569.00" y1="180.00" y2="190.00" />
<line x1="592.00" x2="592.00" y1="180.00" y2="190.00" />
<line x1="615.00" x2="615.00" y1="180.00" y2="190.00" />
<line x1="638.00" x2="638.00" y1="180.00" y2="190.00" />
<line x1="661.00" x2="661.00" y1="180.00" y2="190.00" />
<line x1="684.00" x2="684.00" y1="180.00" y2="190.00" />
<line x1="707.00" x2="707.00" y1="180.00" y2="190.00" />
<line x1="730.00" x2="730.00" y1="180.00" y2="190.00" />
<line x1="753.00" x2="753.00" y1="180.00" y2="190.00" />
<line x1="776.00" x2="776.00" y1="180.00" y2="190.00" />
<line x1="799.00" x2="799.00" y1="180.00" y2="190.00" />
<line x1="822.00" x2="822.00" y1="180.00" y2="190.00" />
<line x1="845.00" x2="845.00" y1="180.00" y2="190.00" />
<line x1="868.00" x2="868.00" y1="180.00" y2="190.00" />
<line x1="891.00" x2="891.00" y1="180.00" y2="190.00" />
<line x1="914.00" x2="914.00" y1="180.00" y2="190.00" />
<line x1="937.00" x2="937.00" y1="180.00" y2="190.00" />
<g fill="black" font-family="Arial, sans-serif" font-size="10" stroke="none" text-anchor="middle">
<text x="40.00" y="200.00">0</text>
<text x="63.00" y="200.00">1</text>
<text x="86.00" y="200.00">2</text>
<text x="109.00" y="200.00">3</text>
<text x="132.00" y="200.00">4</text>
<text x="155.00" y="200.00">5</text>
<text x="178.00" y="200.00">6</text>
<text x="201.00" y="200.00">7</text>
<text x="224.00" y="200.00">8</text>
<text x="247.00" y="200.00">9</text>
<text x="270.00" y="200.00">10</text>
<text x="293.00" y="200.00">11</text>
<text x="316.00" y="200.00">12</text>
<text x="339.00" y="200.00">13</text>
<text x="362.00" y="200.00">14</text>
<text x="385.00" y="200.00">15</text>
<text x="408.00" y="200.00">16</text>
<text x="431.00" y="200.00">17</text>
<text x="454.00" y="200.00">18</text>
<text x="477.00" y="200.00">19</text>
<text x="500.00" y="200.00">20</text>
<text x="523.00" y="200.00">21</text>
<text x="546.00" y="200.00">22</text>
<text x="569.00" y="200.00">23</text>
<text x="592.00" y="200.00">24</text>
<text x="615.00" y="200.00">25</text>
<text x="638.00" y="200.00">26</text>
<text x="661.00" y="200.00">27</text>
<text x="684.00" y="200.00">28</text>
<text x="707.00" y="200.00">29</text>
<text x="730.00" y="200.00">30</text>
<text x="753.00" y="200.00">31</text>
<text x="776.00" y="200.00">32</text>
<text x="799.00" y="200.00">33</text>
<text x="822.00" y="200.00">34</text>
<text x="845.00" y="200.00">35</text>
<text x="868.00" y="200.00">36</text>
<text x="891.00" y="200.00">37</text>
<text x="914.00" y="200.00">38</text>
<text x="937.00" y="200.00">39</text>
</g>
<line x1="40.00" x2="960.00" y1="180.00" y2="180.00" />
</g>
<g stroke="black">
<line x1="40.00" x2="30.00" y1="18.95" y2="18.95" />
<line x1="40.00" x2="30.00" y1="36.84" y2="36.84" />
<line x1="40.00" x2="30.00" y1="54.74" y2="54.74" />
<line x1="40.00" x2="30.00" y1="72.63" y2="72.63" />
<line x1="40.00" x2="30.00" y1="90.53" y2="90.53" />
<line x1="40.00" x2="30.00" y1="108.42" y2="108.42" />
<line x1="40.00" x2="30.00" y1="126.32" y2="126.32" />
<line x1="40.00" x2="30.00" y1="144.21" y2="144.21" />
<line x1="40.00" x2="30.00" y1="162.11" y2="162.11" />
<line x1="40.00" x2="30.00" y1="180.00" y2="180.00" />
<g fill="black" font-family="Arial, sans-serif" font-size="10" stroke="none" text-anchor="middle">
<text x="20.00" y="18.95">-12</text>
<text x="20.00" y="36.84">-11</text>
<text x="20.00" y="54.74">-10</text>
<text x="20.00" y="72.63">-9</text>
<text x="20.00" y="90.53">-8</text>
<text x="20.00" y="108.42">-7</text>
<text x="20.00" y="126.32">-6</text>
<text x="20.00" y="144.21">-5</text>
<text x="20.00" y="162.11">-4</text>
<text x="20.00" y="180.00">-3</text>
</g>
<line x1="40.00" x2="40.00" y1="10.00" y2="180.00" />
</g>
</g>
<text fill="black" font-family="Arial, sans-serif" font-size="10" stroke="none" text-anchor="start" x="45.00" y="15.00">δ­18O</text>
<text fill="black" font-family="Arial, sans-serif" font-size="10" stroke="none" text-anchor="end" x="955.00" y="15.00">Summer Solstice (21 June) Insolation at 60 deg North [W/m2]</text>
<text fill="black" font-family="Arial, sans-serif" font-size="10" stroke="none" text-anchor="end" x="955.00" y="175.00">Age in kyrs</text>
</g>
</svg>
</g>
</g>
</g>
<g transform="matrix(1.00,0.00,0.00,1.00,0.00,200.00)">
<g>
<g transform="matrix(1.00,0.00,0.00,1.00,0.00,0.00)">
<svg height="200" version="1.1" viewBox="0 0 1000 200" width="1000" xmlns:xlink="http://www.w3.org/1999/xlink" xmlns="http://www.w3.org/2000/svg">
<g>
<g fill="black" font-family="Arial" font-size="10" stroke="none">
<g>
<rect fill="#868888" height="14.00" rx="3" ry="3" width="147.00" x="37.00" y="3.00" />
<text x="40.00" y="27.00">Present Interglacial</text>
</g>
<g>
<rect fill="#868888" height="14.00" rx="3" ry="3" width="13.28" x="300.20" y="3.00" />
<text x="303.20" y="27.00">MWP1b</text>
</g>
<g>
<rect fill="#868888" height="14.00" rx="3" ry="3" width="34.20" x="354.25" y="3.00" />
<text x="357.25" y="27.00">MWP1a</text>
</g>
<g>
<rect fill="#868888" height="14.00" rx="3" ry="3" width="182.25" x="483.50" y="3.00" />
<text x="486.50" y="27.00">Last Glacial Maximum</text>
</g>
<g>
<rect fill="#868888" height="14.00" rx="3" ry="3" width="53.00" x="718.50" y="3.00" />
<text x="721.50" y="27.00">H3</text>
</g>
<g>
<rect fill="#868888" height="14.00" rx="3" ry="3" width="38.90" x="307.25" y="37.00" />
<text x="310.25" y="61.00">Younger Dryas</text>
</g>
<g>
<rect fill="#868888" height="14.00" rx="3" ry="3" width="18.92" x="358.95" y="37.00" />
<text x="361.95" y="61.00">Older Dryas</text>
</g>
<g>
<rect fill="#868888" height="14.00" rx="3" ry="3" width="53.00" x="554.00" y="37.00" />
<text x="557.00" y="61.00">H2</text>
</g>
<g>
<rect fill="#868888" height="14.00" rx="3" ry="3" width="71.80" x="366.00" y="71.00" />
<text x="369.00" y="95.00">H1</text>
</g>
<g>
<rect fill="#868888" height="14.00" rx="3" ry="3" width="20.10" x="368.35" y="105.00" />
<text x="371.35" y="129.00">Bølling interstadial</text>
</g>
</g>
</g>
</svg>
</g>
</g>
</g>
</g>
</svg>
