<?xml version="1.0"?>
<svg height="900" version="1.1" viewBox="0 0 1800 900" width="1800" xmlns:xlink="http://www.w3.org/1999/xlink" xmlns="http://www.w3.org/2000/svg">
<g>
<g transform="matrix(1.00,0.00,0.00,1.00,0.00,0.00)">
<g>
<g transform="matrix(1.00,0.00,0.00,1.00,0.00,0.00)">
<svg height="900" version="1.1" viewBox="0 0 1800 900" width="1800" xmlns:xlink="http://www.w3.org/1999/xlink" xmlns="http://www.w3.org/2000/svg">
<g>
<g>
<g stroke-dasharray="5.0 10.0" stroke-width="1.0" stroke="#caa">
<line x1="180.00" x2="180.00" y1="810.00" y2="90.00" />
<line x1="660.00" x2="660.00" y1="810.00" y2="90.00" />
<line x1="1140.00" x2="1140.00" y1="810.00" y2="90.00" />
<line x1="1620.00" x2="1620.00" y1="810.00" y2="90.00" />
<line x1="180.00" x2="1620.00" y1="810.00" y2="810.00" />
<line x1="180.00" x2="1620.00" y1="396.41" y2="396.41" />
</g>
<g>
<text dominant-baseline="hanging" dx="-50.0" dy="50.0" fill="#0004" font-family="Arial, sans-serif" font-size="50" stroke-width="1.6666666666666667" stroke="none" text-anchor="end" text="d18O Hist - Index weighted" x="1620.00" y="155.45">d18O Hist - Index weighted</text>
</g>
<g>
<text dominant-baseline="hanging" dx="25.0" dy="75.0" fill="#aa8800" font-size="25.0" font-style="italic" stroke-width="0.5" text-anchor="beginning" text="SUMMER MONSOON" x="181.44" y="90.07">SUMMER MONSOON</text>
</g>
<g>
<text dominant-baseline="hanging" dx="25.0" dy="108.33333333333334" fill="#00aa88" font-size="25.0" font-style="italic" stroke-width="0.5" text-anchor="beginning" text="WINTER MONSOON" x="181.44" y="90.07">WINTER MONSOON</text>
</g>
<g>
<text dominant-baseline="text-bottom" dy="-12.5" fill="black" font-family="Arial, sans-serif" font-size="25.0" font-style="italic" stroke="none" text-anchor="middle" text="d18O" x="900.00" y="90.72">d18O</text>
</g>
<g>
<text dominant-baseline="hanging" dx="25.0" dy="25.0" fill="black" font-family="Arial, sans-serif" font-size="25.0" font-style="italic" stroke="none" text-anchor="beginning" text-orientation="sideways" text="Monsoon fraction per bin" x="180.00" y="90.72">Monsoon fraction per bin</text>
</g>
<g fill="none" opacity="0.5" stroke-width="15" stroke="#aa8800">
<line x1="1531.20" x2="1531.20" y1="802.47" y2="810.00" />
<line x1="1363.20" x2="1363.20" y1="796.26" y2="810.00" />
<line x1="1387.20" x2="1387.20" y1="806.92" y2="810.00" />
<line x1="1243.20" x2="1243.20" y1="801.31" y2="810.00" />
<line x1="1267.20" x2="1267.20" y1="802.13" y2="810.00" />
<line x1="1195.20" x2="1195.20" y1="705.16" y2="810.00" />
<line x1="1219.20" x2="1219.20" y1="772.41" y2="810.00" />
<line x1="1123.20" x2="1123.20" y1="625.00" y2="810.00" />
<line x1="667.20" x2="667.20" y1="780.17" y2="810.00" />
<line x1="691.20" x2="691.20" y1="765.32" y2="810.00" />
<line x1="715.20" x2="715.20" y1="728.70" y2="810.00" />
<line x1="739.20" x2="739.20" y1="683.21" y2="810.00" />
<line x1="571.20" x2="571.20" y1="796.17" y2="810.00" />
<line x1="619.20" x2="619.20" y1="777.85" y2="810.00" />
<line x1="643.20" x2="643.20" y1="782.79" y2="810.00" />
<line x1="499.20" x2="499.20" y1="783.58" y2="810.00" />
<line x1="523.20" x2="523.20" y1="798.06" y2="810.00" />
<line x1="547.20" x2="547.20" y1="804.69" y2="810.00" />
<line x1="1171.20" x2="1171.20" y1="762.58" y2="810.00" />
<line x1="859.20" x2="859.20" y1="470.07" y2="810.00" />
<line x1="883.20" x2="883.20" y1="474.07" y2="810.00" />
<line x1="907.20" x2="907.20" y1="234.16" y2="810.00" />
<line x1="931.20" x2="931.20" y1="155.45" y2="810.00" />
<line x1="763.20" x2="763.20" y1="666.83" y2="810.00" />
<line x1="787.20" x2="787.20" y1="555.04" y2="810.00" />
<line x1="811.20" x2="811.20" y1="556.86" y2="810.00" />
<line x1="835.20" x2="835.20" y1="495.61" y2="810.00" />
<line x1="1147.20" x2="1147.20" y1="709.33" y2="810.00" />
<line x1="1099.20" x2="1099.20" y1="468.34" y2="810.00" />
<line x1="1051.20" x2="1051.20" y1="495.91" y2="810.00" />
<line x1="1075.20" x2="1075.20" y1="279.59" y2="810.00" />
<line x1="955.20" x2="955.20" y1="172.75" y2="810.00" />
<line x1="979.20" x2="979.20" y1="185.97" y2="810.00" />
<line x1="1003.20" x2="1003.20" y1="413.38" y2="810.00" />
<line x1="1027.20" x2="1027.20" y1="237.07" y2="810.00" />
</g>
<g stroke="black">
<line x1="180.00" x2="180.00" y1="810.00" y2="820.00" />
<line x1="660.00" x2="660.00" y1="810.00" y2="820.00" />
<line x1="1140.00" x2="1140.00" y1="810.00" y2="820.00" />
<line x1="1620.00" x2="1620.00" y1="810.00" y2="820.00" />
<g fill="black" font-family="Arial, sans-serif" font-size="25.0" stroke="none" text-anchor="start" transform="translate(12.5 0.0)">
<text x="180.00" y="838.57">-20</text>
<text x="660.00" y="838.57">-10</text>
<text x="1140.00" y="838.57">0</text>
<text x="1620.00" y="838.57">10</text>
</g>
<line x1="180.00" x2="1620.00" y1="810.00" y2="810.00" />
</g>
<g stroke="black">
<line x1="180.00" x2="163.33" y1="810.00" y2="810.00" />
<line x1="180.00" x2="163.33" y1="396.41" y2="396.41" />
<g fill="black" font-family="Arial, sans-serif" font-size="25.0" stroke="none" text-anchor="end">
<text x="167.50" y="797.50">0</text>
<text x="167.50" y="383.91">1</text>
</g>
<line x1="180.00" x2="180.00" y1="810.00" y2="90.00" />
</g>
</g>
<g>
<g stroke-dasharray="5.0 10.0" stroke-width="1.0" stroke="#caa">
<line x1="180.00" x2="180.00" y1="810.00" y2="90.00" />
<line x1="660.00" x2="660.00" y1="810.00" y2="90.00" />
<line x1="1140.00" x2="1140.00" y1="810.00" y2="90.00" />
<line x1="1620.00" x2="1620.00" y1="810.00" y2="90.00" />
<line x1="180.00" x2="1620.00" y1="810.00" y2="810.00" />
<line x1="180.00" x2="1620.00" y1="396.41" y2="396.41" />
</g>
<g>
<text dominant-baseline="hanging" dx="-50.0" dy="50.0" fill="#0004" font-family="Arial, sans-serif" font-size="50" stroke-width="1.6666666666666667" stroke="none" text-anchor="end" text="d18O Hist - Index weighted" x="1620.00" y="155.45">d18O Hist - Index weighted</text>
</g>
<g>
<text dominant-baseline="hanging" dx="25.0" dy="75.0" fill="#aa8800" font-size="25.0" font-style="italic" stroke-width="0.5" text-anchor="beginning" text="SUMMER MONSOON" x="181.44" y="90.07">SUMMER MONSOON</text>
</g>
<g>
<text dominant-baseline="hanging" dx="25.0" dy="108.33333333333334" fill="#00aa88" font-size="25.0" font-style="italic" stroke-width="0.5" text-anchor="beginning" text="WINTER MONSOON" x="181.44" y="90.07">WINTER MONSOON</text>
</g>
<g>
<text dominant-baseline="text-bottom" dy="-12.5" fill="black" font-family="Arial, sans-serif" font-size="25.0" font-style="italic" stroke="none" text-anchor="middle" text="d18O" x="900.00" y="90.72">d18O</text>
</g>
<g>
<text dominant-baseline="hanging" dx="25.0" dy="25.0" fill="black" font-family="Arial, sans-serif" font-size="25.0" font-style="italic" stroke="none" text-anchor="beginning" text-orientation="sideways" text="Monsoon fraction per bin" x="180.00" y="90.72">Monsoon fraction per bin</text>
</g>
<g fill="none" opacity="0.5" stroke-width="15" stroke="#00aa88">
<line x1="460.80" x2="460.80" y1="781.52" y2="810.00" />
<line x1="436.80" x2="436.80" y1="708.20" y2="810.00" />
<line x1="412.80" x2="412.80" y1="602.98" y2="810.00" />
<line x1="556.80" x2="556.80" y1="727.13" y2="810.00" />
<line x1="532.80" x2="532.80" y1="750.99" y2="810.00" />
<line x1="508.80" x2="508.80" y1="748.09" y2="810.00" />
<line x1="484.80" x2="484.80" y1="728.48" y2="810.00" />
<line x1="652.80" x2="652.80" y1="700.40" y2="810.00" />
<line x1="628.80" x2="628.80" y1="771.75" y2="810.00" />
<line x1="604.80" x2="604.80" y1="732.48" y2="810.00" />
<line x1="580.80" x2="580.80" y1="734.78" y2="810.00" />
<line x1="748.80" x2="748.80" y1="608.27" y2="810.00" />
<line x1="724.80" x2="724.80" y1="633.19" y2="810.00" />
<line x1="700.80" x2="700.80" y1="619.03" y2="810.00" />
<line x1="676.80" x2="676.80" y1="643.85" y2="810.00" />
<line x1="220.80" x2="220.80" y1="788.34" y2="810.00" />
<line x1="364.80" x2="364.80" y1="755.30" y2="810.00" />
<line x1="292.80" x2="292.80" y1="787.23" y2="810.00" />
<line x1="844.80" x2="844.80" y1="469.53" y2="810.00" />
<line x1="820.80" x2="820.80" y1="446.65" y2="810.00" />
<line x1="796.80" x2="796.80" y1="610.81" y2="810.00" />
<line x1="772.80" x2="772.80" y1="603.54" y2="810.00" />
<line x1="940.80" x2="940.80" y1="199.69" y2="810.00" />
<line x1="916.80" x2="916.80" y1="445.22" y2="810.00" />
<line x1="892.80" x2="892.80" y1="343.83" y2="810.00" />
<line x1="868.80" x2="868.80" y1="468.49" y2="810.00" />
<line x1="1036.80" x2="1036.80" y1="513.74" y2="810.00" />
<line x1="1012.80" x2="1012.80" y1="385.64" y2="810.00" />
<line x1="988.80" x2="988.80" y1="389.04" y2="810.00" />
<line x1="964.80" x2="964.80" y1="389.35" y2="810.00" />
<line x1="1084.80" x2="1084.80" y1="667.65" y2="810.00" />
<line x1="1060.80" x2="1060.80" y1="605.01" y2="810.00" />
<line x1="1156.80" x2="1156.80" y1="749.44" y2="810.00" />
<line x1="1108.80" x2="1108.80" y1="745.16" y2="810.00" />
<line x1="1420.80" x2="1420.80" y1="804.29" y2="810.00" />
<line x1="1348.80" x2="1348.80" y1="806.62" y2="810.00" />
<line x1="1516.80" x2="1516.80" y1="786.27" y2="810.00" />
<line x1="1444.80" x2="1444.80" y1="809.69" y2="810.00" />
<line x1="1132.80" x2="1132.80" y1="755.40" y2="810.00" />
<line x1="1180.80" x2="1180.80" y1="795.88" y2="810.00" />
<line x1="1228.80" x2="1228.80" y1="800.43" y2="810.00" />
<line x1="1204.80" x2="1204.80" y1="783.73" y2="810.00" />
<line x1="1324.80" x2="1324.80" y1="804.23" y2="810.00" />
<line x1="1300.80" x2="1300.80" y1="809.10" y2="810.00" />
<line x1="1276.80" x2="1276.80" y1="803.02" y2="810.00" />
<line x1="1252.80" x2="1252.80" y1="781.72" y2="810.00" />
</g>
<g stroke="black">
<line x1="180.00" x2="180.00" y1="810.00" y2="820.00" />
<line x1="660.00" x2="660.00" y1="810.00" y2="820.00" />
<line x1="1140.00" x2="1140.00" y1="810.00" y2="820.00" />
<line x1="1620.00" x2="1620.00" y1="810.00" y2="820.00" />
<g fill="black" font-family="Arial, sans-serif" font-size="25.0" stroke="none" text-anchor="start" transform="translate(12.5 0.0)">
<text x="180.00" y="838.57">-20</text>
<text x="660.00" y="838.57">-10</text>
<text x="1140.00" y="838.57">0</text>
<text x="1620.00" y="838.57">10</text>
</g>
<line x1="180.00" x2="1620.00" y1="810.00" y2="810.00" />
</g>
<g stroke="black">
<line x1="180.00" x2="163.33" y1="810.00" y2="810.00" />
<line x1="180.00" x2="163.33" y1="396.41" y2="396.41" />
<g fill="black" font-family="Arial, sans-serif" font-size="25.0" stroke="none" text-anchor="end">
<text x="167.50" y="797.50">0</text>
<text x="167.50" y="383.91">1</text>
</g>
<line x1="180.00" x2="180.00" y1="810.00" y2="90.00" />
</g>
</g>
<g>
<g>
<text dominant-baseline="hanging" dx="-25.0" dy="25.0" fill="#0088" font-family="Arial, sans-serif" font-size="25.0" font-style="italic" stroke="none" text-anchor="end" text-orientation="sideways" text="eCDF (fraction of rain heavier than given amount)" x="1620.00" y="90.00">eCDF (fraction of rain heavier than given amount)</text>
</g>
<polyline fill="none" points="1468.21,809.25 1468.21,808.94 1436.64,808.94 1436.64,808.74 1432.42,808.74 1432.42,808.57 1430.32,808.57 1430.32,807.57 1340.73,807.57 1340.73,807.05 1319.36,807.05 1319.36,806.78 1301.23,806.78 1301.23,806.41 1296.51,806.41 1296.51,806.18 1292.79,806.18 1292.79,805.91 1284.45,805.91 1284.45,805.80 1277.16,805.80 1277.16,805.57 1276.56,805.57 1276.56,805.54 1264.51,805.54 1264.51,803.46 1263.61,803.46 1263.61,802.15 1256.84,802.15 1256.84,801.82 1250.71,801.82 1250.71,795.86 1247.52,795.86 1247.52,794.53 1240.69,794.53 1240.69,793.55 1239.13,793.55 1239.13,792.03 1238.96,792.03 1238.96,791.68 1227.58,791.68 1227.58,791.11 1227.14,791.11 1227.14,789.03 1218.87,789.03 1218.87,788.50 1215.18,788.50 1215.18,788.43 1214.07,788.43 1214.07,787.47 1213.10,787.47 1213.10,786.94 1210.99,786.94 1210.99,786.39 1210.09,786.39 1210.09,786.14 1205.40,786.14 1205.40,785.58 1202.14,785.58 1202.14,785.27 1201.10,785.27 1201.10,784.66 1200.40,784.66 1200.40,784.55 1199.56,784.55 1199.56,784.24 1199.01,784.24 1199.01,783.11 1198.78,783.11 1198.78,783.04 1197.97,783.04 1197.97,782.23 1197.45,782.23 1197.45,781.48 1196.95,781.48 1196.95,781.08 1196.93,781.08 1196.93,781.08 1196.81,781.08 1196.81,780.93 1188.93,780.93 1188.93,779.78 1187.03,779.78 1187.03,778.49 1185.92,778.49 1185.92,777.00 1185.47,777.00 1185.47,776.88 1185.37,776.88 1185.37,775.75 1183.55,775.75 1183.55,773.68 1182.65,773.68 1182.65,772.35 1181.82,772.35 1181.82,770.80 1180.79,770.80 1180.79,770.46 1178.75,770.46 1178.75,769.99 1174.53,769.99 1174.53,769.95 1171.92,769.95 1171.92,768.92 1171.40,768.92 1171.40,768.18 1168.28,768.18 1168.28,768.15 1168.28,768.15 1168.28,768.12 1167.75,768.12 1167.75,767.94 1167.29,767.94 1167.29,766.86 1166.71,766.86 1166.71,766.22 1166.02,766.22 1166.02,765.65 1163.59,765.65 1163.59,765.49 1162.65,765.49 1162.65,765.29 1162.60,765.29 1162.60,764.36 1161.50,764.36 1161.50,763.98 1161.50,763.98 1161.50,763.49 1161.50,763.49 1161.50,761.84 1161.37,761.84 1161.37,760.88 1161.16,760.88 1161.16,760.64 1160.68,760.64 1160.68,760.08 1159.94,760.08 1159.94,758.63 1159.42,758.63 1159.42,758.39 1155.88,758.39 1155.88,758.11 1155.77,758.11 1155.77,757.85 1153.87,757.85 1153.87,756.06 1152.31,756.06 1152.31,755.94 1151.60,755.94 1151.60,755.04 1150.15,755.04 1150.15,754.91 1149.52,754.91 1149.52,754.14 1148.48,754.14 1148.48,753.83 1147.96,753.83 1147.96,752.90 1147.96,752.90 1147.96,751.54 1147.86,751.54 1147.86,750.70 1147.58,750.70 1147.58,750.65 1147.44,750.65 1147.44,750.11 1146.05,750.11 1146.05,749.55 1145.73,749.55 1145.73,748.58 1145.64,748.58 1145.64,748.04 1145.60,748.04 1145.60,746.76 1144.83,746.76 1144.83,746.47 1144.78,746.47 1144.78,745.67 1142.75,745.67 1142.75,743.12 1142.42,743.12 1142.42,742.44 1142.23,742.44 1142.23,741.46 1142.19,741.46 1142.19,740.92 1141.59,740.92 1141.59,740.78 1141.01,740.78 1141.01,738.80 1140.91,738.80 1140.91,738.18 1140.84,738.18 1140.84,737.39 1140.75,737.39 1140.75,737.33 1140.00,737.33 1140.00,735.07 1139.62,735.07 1139.62,733.94 1139.37,733.94 1139.37,733.78 1139.10,733.78 1139.10,733.52 1138.76,733.52 1138.76,733.04 1138.73,733.04 1138.73,731.60 1137.80,731.60 1137.80,731.59 1137.41,731.59 1137.41,731.27 1137.02,731.27 1137.02,729.44 1137.02,729.44 1137.02,728.92 1137.02,728.92 1137.02,728.66 1136.67,728.66 1136.67,727.67 1136.47,727.67 1136.47,726.67 1134.92,726.67 1134.92,725.15 1134.41,725.15 1134.41,724.36 1133.37,724.36 1133.37,724.25 1132.33,724.25 1132.33,722.17 1131.81,722.17 1131.81,721.62 1130.74,721.62 1130.74,720.79 1130.51,720.79 1130.51,719.44 1130.24,719.44 1130.24,718.19 1129.26,718.19 1129.26,716.42 1128.95,716.42 1128.95,715.58 1128.62,715.58 1128.62,713.45 1128.45,713.45 1128.45,712.06 1128.16,712.06 1128.16,711.02 1128.16,711.02 1128.16,710.10 1126.88,710.10 1126.88,710.03 1126.10,710.03 1126.10,707.77 1126.08,707.77 1126.08,707.01 1126.08,707.01 1126.08,706.64 1125.84,706.64 1125.84,705.92 1125.48,705.92 1125.48,704.94 1125.14,704.94 1125.14,703.69 1124.00,703.69 1124.00,703.29 1123.77,703.29 1123.77,703.05 1122.95,703.05 1122.95,702.74 1122.95,702.74 1122.95,701.50 1122.95,701.50 1122.95,700.99 1122.00,700.99 1122.00,699.91 1121.55,699.91 1121.55,698.97 1121.39,698.97 1121.39,697.93 1120.87,697.93 1120.87,696.98 1120.35,696.98 1120.35,696.58 1119.83,696.58 1119.83,695.30 1119.83,695.30 1119.83,694.29 1119.03,694.29 1119.03,692.84 1118.77,692.84 1118.77,691.38 1117.60,691.38 1117.60,689.39 1116.70,689.39 1116.70,688.57 1116.04,688.57 1116.04,687.75 1115.73,687.75 1115.73,686.38 1115.70,686.38 1115.70,686.17 1115.14,686.17 1115.14,686.09 1114.62,686.09 1114.62,684.04 1114.28,684.04 1114.28,683.48 1113.13,683.48 1113.13,681.57 1113.05,681.57 1113.05,681.28 1112.53,681.28 1112.53,680.26 1112.01,680.26 1112.01,679.86 1111.37,679.86 1111.37,677.18 1109.93,677.18 1109.93,676.63 1109.41,676.63 1109.41,675.62 1108.36,675.62 1108.36,674.72 1108.36,674.72 1108.36,673.25 1107.32,673.25 1107.32,673.17 1107.32,673.17 1107.32,671.24 1106.47,671.24 1106.47,670.93 1106.28,670.93 1106.28,670.20 1105.39,670.20 1105.39,669.45 1105.39,669.45 1105.39,668.35 1104.20,668.35 1104.20,667.48 1103.15,667.48 1103.15,666.99 1102.63,666.99 1102.63,666.86 1101.07,666.86 1101.07,666.10 1100.43,666.10 1100.43,665.56 1100.04,665.56 1100.04,665.07 1098.47,665.07 1098.47,664.56 1097.42,664.56 1097.42,663.99 1096.82,663.99 1096.82,662.82 1095.86,662.82 1095.86,661.37 1095.68,661.37 1095.68,661.17 1095.12,661.17 1095.12,660.64 1094.91,660.64 1094.91,659.84 1094.82,659.84 1094.82,658.96 1093.32,658.96 1093.32,658.58 1091.93,658.58 1091.93,657.03 1091.52,657.03 1091.52,656.66 1091.11,656.66 1091.11,656.43 1089.47,656.43 1089.47,655.36 1089.31,655.36 1089.31,655.35 1088.15,655.35 1088.15,653.63 1086.48,653.63 1086.48,652.45 1086.48,652.45 1086.48,650.98 1086.48,650.98 1086.48,649.49 1085.96,649.49 1085.96,646.20 1084.49,646.20 1084.49,644.06 1083.86,644.06 1083.86,643.85 1082.45,643.85 1082.45,642.54 1081.79,642.54 1081.79,642.50 1081.59,642.50 1081.59,641.64 1081.27,641.64 1081.27,641.35 1081.27,641.35 1081.27,641.18 1081.27,641.18 1081.27,639.85 1080.75,639.85 1080.75,639.14 1080.75,639.14 1080.75,638.93 1080.62,638.93 1080.62,638.73 1080.23,638.73 1080.23,637.10 1079.19,637.10 1079.19,636.35 1078.67,636.35 1078.67,633.71 1078.67,633.71 1078.67,633.07 1076.59,633.07 1076.59,632.37 1076.44,632.37 1076.44,632.07 1076.06,632.07 1076.06,631.18 1076.06,631.18 1076.06,628.89 1075.54,628.89 1075.54,628.77 1075.02,628.77 1075.02,627.40 1074.50,627.40 1074.50,625.91 1074.50,625.91 1074.50,624.97 1074.50,624.97 1074.50,624.13 1073.46,624.13 1073.46,622.65 1071.94,622.65 1071.94,619.90 1071.90,619.90 1071.90,618.77 1071.90,618.77 1071.90,618.05 1071.38,618.05 1071.38,617.81 1071.38,617.81 1071.38,617.04 1071.22,617.04 1071.22,616.79 1070.85,616.79 1070.85,615.38 1070.46,615.38 1070.46,614.72 1069.81,614.72 1069.81,614.58 1066.75,614.58 1066.75,613.95 1066.68,613.95 1066.68,611.89 1066.17,611.89 1066.17,607.71 1066.10,607.71 1066.10,607.60 1065.65,607.60 1065.65,605.34 1065.65,605.34 1065.65,603.77 1065.65,603.77 1065.65,603.04 1065.12,603.04 1065.12,601.81 1065.06,601.81 1065.06,601.26 1064.16,601.26 1064.16,601.03 1063.56,601.03 1063.56,599.03 1063.56,599.03 1063.56,598.64 1063.24,598.64 1063.24,598.13 1063.04,598.13 1063.04,597.96 1062.80,597.96 1062.80,597.25 1062.64,597.25 1062.64,597.08 1062.00,597.08 1062.00,596.54 1061.34,596.54 1061.34,595.62 1060.90,595.62 1060.90,594.86 1060.89,594.86 1060.89,594.13 1060.58,594.13 1060.58,593.37 1060.44,593.37 1060.44,591.89 1059.91,591.89 1059.91,591.57 1059.51,591.57 1059.51,590.66 1059.39,590.66 1059.39,588.52 1058.36,588.52 1058.36,587.81 1057.58,587.81 1057.58,586.78 1057.31,586.78 1057.31,586.34 1057.05,586.34 1057.05,585.90 1056.79,585.90 1056.79,584.80 1056.79,584.80 1056.79,583.95 1055.77,583.95 1055.77,583.15 1055.75,583.15 1055.75,582.60 1055.22,582.60 1055.22,580.75 1053.90,580.75 1053.90,579.74 1052.94,579.74 1052.94,578.86 1052.62,578.86 1052.62,578.33 1052.10,578.33 1052.10,575.34 1050.02,575.34 1050.02,574.96 1050.02,574.96 1050.02,573.96 1049.87,573.96 1049.87,573.12 1048.91,573.12 1048.91,570.77 1048.66,570.77 1048.66,570.21 1048.45,570.21 1048.45,569.62 1047.93,569.62 1047.93,568.90 1046.89,568.90 1046.89,567.97 1046.61,567.97 1046.61,566.56 1046.37,566.56 1046.37,565.61 1044.88,565.61 1044.88,565.50 1044.81,565.50 1044.81,563.28 1044.29,563.28 1044.29,562.41 1042.20,562.41 1042.20,561.59 1041.57,561.59 1041.57,560.64 1041.04,560.64 1041.04,560.10 1040.64,560.10 1040.64,559.70 1040.50,559.70 1040.50,559.21 1040.12,559.21 1040.12,558.59 1039.78,558.59 1039.78,558.50 1039.60,558.50 1039.60,558.25 1039.60,558.25 1039.60,557.95 1039.15,557.95 1039.15,557.15 1039.08,557.15 1039.08,556.79 1039.08,556.79 1039.08,555.50 1038.67,555.50 1038.67,555.19 1038.35,555.19 1038.35,554.84 1035.95,554.84 1035.95,552.37 1035.29,552.37 1035.29,552.18 1035.26,552.18 1035.26,551.38 1034.39,551.38 1034.39,550.28 1033.87,550.28 1033.87,549.31 1033.73,549.31 1033.73,548.06 1030.74,548.06 1030.74,547.55 1030.73,547.55 1030.73,546.35 1030.07,546.35 1030.07,545.47 1029.32,545.47 1029.32,545.01 1029.18,545.01 1029.18,542.96 1028.66,542.96 1028.66,542.00 1028.66,542.00 1028.66,540.33 1028.46,540.33 1028.46,539.90 1028.14,539.90 1028.14,539.61 1027.61,539.61 1027.61,538.62 1027.08,538.62 1027.08,536.73 1026.57,536.73 1026.57,536.21 1026.39,536.21 1026.39,534.53 1026.06,534.53 1026.06,534.27 1026.05,534.27 1026.05,534.07 1025.01,534.07 1025.01,531.43 1025.01,531.43 1025.01,530.50 1024.49,530.50 1024.49,530.34 1024.49,530.34 1024.49,529.12 1023.97,529.12 1023.97,528.39 1023.97,528.39 1023.97,525.89 1023.97,525.89 1023.97,525.33 1023.97,525.33 1023.97,522.55 1023.97,522.55 1023.97,521.08 1023.45,521.08 1023.45,518.81 1023.45,518.81 1023.45,518.30 1023.45,518.30 1023.45,516.95 1022.40,516.95 1022.40,516.81 1022.40,516.81 1022.40,515.43 1020.84,515.43 1020.84,514.46 1020.20,514.46 1020.20,512.76 1018.76,512.76 1018.76,510.78 1018.52,510.78 1018.52,509.79 1017.30,509.79 1017.30,508.45 1016.75,508.45 1016.75,507.59 1016.67,507.59 1016.67,507.34 1016.67,507.34 1016.67,504.44 1016.67,504.44 1016.67,502.74 1016.64,502.74 1016.64,501.60 1016.15,501.60 1016.15,500.49 1014.95,500.49 1014.95,498.73 1014.64,498.73 1014.64,496.17 1014.59,496.17 1014.59,495.37 1014.20,495.37 1014.20,494.51 1013.55,494.51 1013.55,492.43 1011.50,492.43 1011.50,492.26 1011.46,492.26 1011.46,491.03 1010.94,491.03 1010.94,490.80 1010.02,490.80 1010.02,489.93 1008.72,489.93 1008.72,488.04 1006.25,488.04 1006.25,487.85 1005.73,487.85 1005.73,486.81 1005.45,486.81 1005.45,486.56 1005.06,486.56 1005.06,482.37 1003.13,482.37 1003.13,481.03 1003.13,481.03 1003.13,480.60 1002.96,480.60 1002.96,480.02 1002.52,480.02 1002.52,479.25 1002.30,479.25 1002.30,478.58 1000.52,478.58 1000.52,477.25 1000.52,477.25 1000.52,476.78 1000.07,476.78 1000.07,475.84 1000.00,475.84 1000.00,474.23 998.56,474.23 998.56,473.40 998.44,473.40 998.44,473.08 997.92,473.08 997.92,472.86 997.92,472.86 997.92,472.45 997.92,472.45 997.92,471.01 997.92,471.01 997.92,469.91 997.91,469.91 997.91,469.61 997.51,469.61 997.51,468.52 995.43,468.52 995.43,467.55 995.31,467.55 995.31,466.50 995.00,466.50 995.00,465.59 994.79,465.59 994.79,464.70 994.79,464.70 994.79,462.96 994.79,462.96 994.79,462.05 994.79,462.05 994.79,461.00 993.23,461.00 993.23,460.07 992.92,460.07 992.92,457.14 992.71,457.14 992.71,456.15 992.42,456.15 992.42,455.77 992.19,455.77 992.19,454.26 992.19,454.26 992.19,452.93 991.67,452.93 991.67,452.07 991.61,452.07 991.61,448.84 991.43,448.84 991.43,447.90 990.14,447.90 990.14,446.88 990.10,446.88 990.10,445.48 990.10,445.48 990.10,443.77 987.08,443.77 987.08,442.92 986.98,442.92 986.98,442.20 986.46,442.20 986.46,440.45 985.42,440.45 985.42,439.50 985.42,439.50 985.42,437.64 984.89,437.64 984.89,437.06 984.77,437.06 984.77,435.85 984.37,435.85 984.37,434.95 984.37,434.95 984.37,432.76 984.17,432.76 984.17,431.88 983.85,431.88 983.85,430.87 983.33,430.87 983.33,429.85 982.75,429.85 982.75,428.82 982.29,428.82 982.29,427.11 982.29,427.11 982.29,426.94 979.21,426.94 979.21,425.40 978.41,425.40 978.41,423.90 977.73,423.90 977.73,423.51 977.20,423.51 977.20,423.44 977.08,423.44 977.08,420.91 977.08,420.91 977.08,417.69 977.08,417.69 977.08,416.92 976.56,416.92 976.56,415.86 976.56,415.86 976.56,415.37 975.70,415.37 975.70,414.28 974.48,414.28 974.48,413.00 974.48,413.00 974.48,408.72 974.06,408.72 974.06,406.91 973.71,406.91 973.71,406.48 973.43,406.48 973.43,405.15 972.21,405.15 972.21,404.21 971.87,404.21 971.87,403.61 971.87,403.61 971.87,402.48 971.87,402.48 971.87,400.95 971.87,400.95 971.87,400.53 971.78,400.53 971.78,400.03 971.35,400.03 971.35,398.65 970.81,398.65 970.81,398.16 970.62,398.16 970.62,397.20 970.31,397.20 970.31,396.68 970.31,396.68 970.31,395.05 969.27,395.05 969.27,393.81 967.18,393.81 967.18,393.30 966.91,393.30 966.91,392.38 966.66,392.38 966.66,392.26 966.66,392.26 966.66,390.95 966.66,390.95 966.66,389.45 966.66,389.45 966.66,387.57 966.22,387.57 966.22,385.36 965.62,385.36 965.62,384.94 965.62,384.94 965.62,384.66 964.58,384.66 964.58,384.08 964.49,384.08 964.49,382.92 964.06,382.92 964.06,382.27 962.49,382.27 962.49,380.80 962.49,380.80 962.49,379.53 961.97,379.53 961.97,378.66 961.79,378.66 961.79,377.28 961.77,377.28 961.77,376.39 961.45,376.39 961.45,374.75 961.05,374.75 961.05,372.76 960.24,372.76 960.24,370.03 959.89,370.03 959.89,368.92 959.67,368.92 959.67,367.54 959.37,367.54 959.37,366.09 958.85,366.09 958.85,364.80 957.28,364.80 957.28,364.62 957.28,364.62 957.28,364.12 956.76,364.12 956.76,361.69 956.24,361.69 956.24,360.79 955.72,360.79 955.72,360.50 955.35,360.50 955.35,360.49 954.68,360.49 954.68,358.73 953.12,358.73 953.12,356.56 952.97,356.56 952.97,355.38 952.59,355.38 952.59,355.00 952.03,355.00 952.03,354.79 951.55,354.79 951.55,352.77 951.55,352.77 951.55,352.10 951.03,352.10 951.03,351.51 950.51,351.51 950.51,350.67 950.51,350.67 950.51,349.85 950.31,349.85 950.31,347.43 949.99,347.43 949.99,347.04 949.99,347.04 949.99,346.42 948.43,346.42 948.43,346.25 947.29,346.25 947.29,344.90 946.86,344.90 946.86,344.29 946.86,344.29 946.86,343.50 946.78,343.50 946.78,341.45 945.82,341.45 945.82,340.71 945.82,340.71 945.82,337.51 943.95,337.51 943.95,336.27 943.74,336.27 943.74,334.58 943.60,334.58 943.60,333.15 942.18,333.15 942.18,332.81 941.76,332.81 941.76,331.67 941.15,331.67 941.15,330.70 940.61,330.70 940.61,328.70 940.61,328.70 940.61,326.99 940.09,326.99 940.09,326.75 940.09,326.75 940.09,325.31 939.57,325.31 939.57,324.56 939.57,324.56 939.57,324.10 939.13,324.10 939.13,323.77 939.05,323.77 939.05,321.67 938.04,321.67 938.04,320.01 938.01,320.01 938.01,319.31 937.78,319.31 937.78,317.34 937.59,317.34 937.59,316.72 937.49,316.72 937.49,316.46 935.92,316.46 935.92,315.95 935.40,315.95 935.40,315.74 934.88,315.74 934.88,315.33 934.25,315.33 934.25,314.49 934.10,314.49 934.10,314.06 933.93,314.06 933.93,311.53 933.84,311.53 933.84,310.62 931.76,310.62 931.76,310.25 931.58,310.25 931.58,308.97 929.79,308.97 929.79,307.35 929.67,307.35 929.67,306.58 928.81,306.58 928.81,306.21 928.69,306.21 928.69,305.67 928.57,305.67 928.57,305.03 927.07,305.03 927.07,302.87 926.03,302.87 926.03,300.07 924.98,300.07 924.98,298.06 924.98,298.06 924.98,293.96 924.46,293.96 924.46,293.43 923.73,293.43 923.73,292.95 923.42,292.95 923.42,292.81 923.42,292.81 923.42,291.23 922.55,291.23 922.55,289.86 921.86,289.86 921.86,288.06 919.77,288.06 919.77,287.36 919.77,287.36 919.77,286.02 919.25,286.02 919.25,285.53 917.69,285.53 917.69,283.61 915.61,283.61 915.61,282.93 915.09,282.93 915.09,282.89 915.09,282.89 915.09,282.18 914.56,282.18 914.56,281.99 914.56,281.99 914.56,278.39 914.04,278.39 914.04,275.57 913.00,275.57 913.00,275.40 912.48,275.40 912.48,275.19 911.96,275.19 911.96,274.04 909.61,274.04 909.61,273.38 908.83,273.38 908.83,272.90 907.98,272.90 907.98,272.25 907.96,272.25 907.96,270.84 907.94,270.84 907.94,269.98 907.79,269.98 907.79,269.24 906.75,269.24 906.75,266.45 906.75,266.45 906.75,265.08 906.23,265.08 906.23,264.59 904.15,264.59 904.15,263.69 903.62,263.69 903.62,262.76 902.58,262.76 902.58,262.38 899.98,262.38 899.98,262.27 899.98,262.27 899.98,260.61 898.94,260.61 898.94,260.39 898.23,260.39 898.23,258.36 897.37,258.36 897.37,257.76 896.85,257.76 896.85,256.71 896.85,256.71 896.85,254.86 894.83,254.86 894.83,254.81 894.25,254.81 894.25,253.95 893.32,253.95 893.32,252.17 892.68,252.17 892.68,251.08 892.16,251.08 892.16,249.89 891.67,249.89 891.67,248.77 889.56,248.77 889.56,247.66 889.04,247.66 889.04,246.58 888.52,246.58 888.52,245.47 888.22,245.47 888.22,244.87 886.95,244.87 886.95,242.81 886.43,242.81 886.43,242.29 885.91,242.29 885.91,240.78 885.39,240.78 885.39,239.13 884.24,239.13 884.24,236.38 883.31,236.38 883.31,235.11 883.05,235.11 883.05,233.97 881.74,233.97 881.74,232.44 880.70,232.44 880.70,231.35 880.70,231.35 880.70,230.31 879.14,230.31 879.14,230.05 874.77,230.05 874.77,229.35 874.45,229.35 874.45,228.08 872.89,228.08 872.89,227.55 872.89,227.55 872.89,226.84 872.89,226.84 872.89,226.42 872.63,226.42 872.63,224.48 870.28,224.48 870.28,222.70 868.20,222.70 868.20,221.41 868.20,221.41 868.20,220.43 867.08,220.43 867.08,219.85 865.27,219.85 865.27,218.45 865.07,218.45 865.07,216.93 864.86,216.93 864.86,215.65 864.03,215.65 864.03,214.72 862.47,214.72 862.47,214.54 862.30,214.54 862.30,211.56 861.95,211.56 861.95,211.16 861.95,211.16 861.95,210.17 860.48,210.17 860.48,209.20 859.34,209.20 859.34,208.44 858.71,208.44 858.71,206.74 856.74,206.74 856.74,206.20 855.70,206.20 855.70,204.36 855.70,204.36 855.70,203.92 854.85,203.92 854.85,203.64 854.13,203.64 854.13,202.28 852.57,202.28 852.57,201.42 851.01,201.42 851.01,200.45 850.45,200.45 850.45,199.82 849.44,199.82 849.44,199.35 847.20,199.35 847.20,196.55 846.84,196.55 846.84,195.00 846.38,195.00 846.38,194.54 842.21,194.54 842.21,193.66 841.63,193.66 841.63,191.84 840.06,191.84 840.06,191.67 839.02,191.67 839.02,190.35 838.86,190.35 838.86,186.57 836.42,186.57 836.42,185.51 835.90,185.51 835.90,185.43 833.99,185.43 833.99,185.30 831.18,185.30 831.18,179.06 830.69,179.06 830.69,178.39 830.68,178.39 830.68,177.69 830.25,177.69 830.25,176.33 829.91,176.33 829.91,174.93 829.12,174.93 829.12,172.49 827.04,172.49 827.04,171.64 826.00,171.64 826.00,170.43 821.65,170.43 821.65,169.71 820.69,169.71 820.69,168.23 820.04,168.23 820.04,167.24 815.58,167.24 815.58,165.55 814.99,165.55 814.99,163.69 809.93,163.69 809.93,162.84 809.81,162.84 809.81,162.50 809.05,162.50 809.05,160.64 808.81,160.64 808.81,159.12 806.20,159.12 806.20,156.68 805.16,156.68 805.16,153.27 800.47,153.27 800.47,151.60 799.95,151.60 799.95,150.53 799.95,150.53 799.95,150.24 799.43,150.24 799.43,149.34 799.30,149.34 799.30,147.96 798.43,147.96 798.43,145.15 797.87,145.15 797.87,144.81 794.74,144.81 794.74,144.23 791.10,144.23 791.10,143.60 786.41,143.60 786.41,141.40 784.99,141.40 784.99,141.15 784.84,141.15 784.84,139.65 781.72,139.65 781.72,139.04 780.68,139.04 780.68,138.81 780.15,138.81 780.15,137.77 779.17,137.77 779.17,136.52 779.11,136.52 779.11,133.85 778.05,133.85 778.05,131.69 768.69,131.69 768.69,131.33 768.69,131.33 768.69,129.92 766.61,129.92 766.61,129.10 764.89,129.10 764.89,128.42 764.00,128.42 764.00,127.52 762.96,127.52 762.96,126.22 762.44,126.22 762.44,125.57 757.75,125.57 757.75,123.88 757.23,123.88 757.23,123.76 754.55,123.76 754.55,123.29 754.37,123.29 754.37,121.85 754.23,121.85 754.23,121.54 754.11,121.54 754.11,121.46 749.42,121.46 749.42,119.84 746.38,119.84 746.38,119.57 743.76,119.57 743.76,117.74 742.65,117.74 742.65,117.25 740.04,117.25 740.04,116.13 737.67,116.13 737.67,115.12 736.91,115.12 736.91,114.51 736.61,114.51 736.61,112.65 735.87,112.65 735.87,111.59 725.45,111.59 725.45,110.18 721.81,110.18 721.81,109.61 718.38,109.61 718.38,109.13 703.57,109.13 703.57,108.84 701.40,108.84 701.40,106.14 700.45,106.14 700.45,104.99 700.45,104.99 700.45,104.66 672.98,104.66 672.98,103.64 669.60,103.64 669.60,101.68 663.65,101.68 663.65,101.10 645.75,101.10 645.75,98.96 625.43,98.96 625.43,97.89 622.30,97.89 622.30,96.20 616.05,96.20 616.05,95.75 584.96,95.75 584.96,94.36 542.42,94.36 542.42,93.83 523.40,93.83 523.40,92.64 506.13,92.64 506.13,92.13 503.00,92.13 503.00,90.56 497.79,90.56 497.79,90.00 497.79,90.00 497.79,90.00" stroke-width="3.6" stroke="#aa8800" />
<polyline fill="none" points="1516.54,807.51 1516.54,807.48 1503.26,807.48 1503.26,806.88 1423.14,806.88 1423.14,806.52 1403.99,806.52 1403.99,806.29 1397.69,806.29 1397.69,805.92 1367.81,805.92 1367.81,805.82 1351.92,805.82 1351.92,805.61 1350.93,805.61 1350.93,805.44 1337.11,805.44 1337.11,805.09 1324.57,805.09 1324.57,803.83 1322.48,803.83 1322.48,803.44 1313.96,803.44 1313.96,803.01 1313.63,803.01 1313.63,802.83 1307.05,802.83 1307.05,802.52 1305.29,802.52 1305.29,802.13 1294.87,802.13 1294.87,802.02 1287.14,802.02 1287.14,801.35 1279.19,801.35 1279.19,801.12 1271.57,801.12 1271.57,800.60 1269.28,800.60 1269.28,800.19 1265.96,800.19 1265.96,799.66 1264.13,799.66 1264.13,799.29 1260.49,799.29 1260.49,798.94 1259.08,798.94 1259.08,798.57 1255.49,798.57 1255.49,798.41 1253.19,798.41 1253.19,798.37 1238.89,798.37 1238.89,798.05 1235.29,798.05 1235.29,797.96 1231.31,797.96 1231.31,797.31 1230.00,797.31 1230.00,797.08 1225.93,797.08 1225.93,796.89 1220.89,796.89 1220.89,796.76 1219.85,796.76 1219.85,796.50 1219.70,796.50 1219.70,796.01 1218.29,796.01 1218.29,795.65 1217.77,795.65 1217.77,795.37 1217.35,795.37 1217.35,795.13 1216.20,795.13 1216.20,794.64 1214.37,794.64 1214.37,793.48 1211.52,793.48 1211.52,793.30 1209.95,793.30 1209.95,792.88 1207.87,792.88 1207.87,792.83 1207.66,792.83 1207.66,792.44 1203.18,792.44 1203.18,792.25 1203.18,792.25 1203.18,792.04 1202.09,792.04 1202.09,791.26 1198.32,791.26 1198.32,791.04 1197.78,791.04 1197.78,790.63 1196.27,790.63 1196.27,790.53 1195.05,790.53 1195.05,790.42 1192.76,790.42 1192.76,790.31 1189.72,790.31 1189.72,790.20 1188.39,790.20 1188.39,790.02 1186.45,790.02 1186.45,790.02 1185.99,790.02 1185.99,789.91 1185.47,789.91 1185.47,788.82 1185.47,788.82 1185.47,788.75 1185.47,788.75 1185.47,788.73 1185.47,788.73 1185.47,788.65 1183.49,788.65 1183.49,788.51 1181.24,788.51 1181.24,787.89 1180.80,787.89 1180.80,787.58 1180.78,787.58 1180.78,787.48 1178.45,787.48 1178.45,787.05 1176.56,787.05 1176.56,786.68 1173.88,786.68 1173.88,785.86 1172.57,785.86 1172.57,784.81 1169.32,784.81 1169.32,784.73 1167.23,784.73 1167.23,784.71 1167.03,784.71 1167.03,784.23 1165.15,784.23 1165.15,783.91 1163.84,783.91 1163.84,783.38 1160.46,783.38 1160.46,782.63 1159.42,782.63 1159.42,782.44 1159.11,782.44 1159.11,782.22 1158.38,782.22 1158.38,781.30 1157.86,781.30 1157.86,780.86 1155.25,780.86 1155.25,780.64 1154.21,780.64 1154.21,780.10 1152.54,780.10 1152.54,779.77 1150.90,779.77 1150.90,779.72 1149.52,779.72 1149.52,779.34 1149.00,779.34 1149.00,778.99 1149.00,778.99 1149.00,778.66 1148.98,778.66 1148.98,778.60 1147.42,778.60 1147.42,778.24 1145.35,778.24 1145.35,778.04 1144.83,778.04 1144.83,778.01 1142.23,778.01 1142.23,777.85 1142.12,777.85 1142.12,777.71 1141.71,777.71 1141.71,777.47 1141.71,777.47 1141.71,777.44 1140.97,777.44 1140.97,777.34 1140.66,777.34 1140.66,777.10 1139.10,777.10 1139.10,776.91 1138.49,776.91 1138.49,776.42 1137.83,776.42 1137.83,775.89 1137.02,775.89 1137.02,775.72 1136.50,775.72 1136.50,775.63 1134.25,775.63 1134.25,775.50 1133.37,775.50 1133.37,775.41 1133.37,775.41 1133.37,775.27 1133.37,775.27 1133.37,775.20 1132.85,775.20 1132.85,774.31 1131.80,774.31 1131.80,774.11 1131.36,774.11 1131.36,773.29 1130.73,773.29 1130.73,771.06 1130.33,771.06 1130.33,770.68 1128.68,770.68 1128.68,770.15 1128.68,770.15 1128.68,769.68 1128.16,769.68 1128.16,769.18 1128.16,769.18 1128.16,769.06 1128.16,769.06 1128.16,768.36 1127.99,768.36 1127.99,768.05 1127.64,768.05 1127.64,768.02 1126.44,768.02 1126.44,767.47 1126.08,767.47 1126.08,767.39 1125.04,767.39 1125.04,767.32 1125.04,767.32 1125.04,767.21 1124.51,767.21 1124.51,766.30 1124.51,766.30 1124.51,766.04 1123.99,766.04 1123.99,765.86 1123.99,765.86 1123.99,765.61 1123.91,765.61 1123.91,765.46 1120.96,765.46 1120.96,764.88 1119.92,764.88 1119.92,764.66 1119.90,764.66 1119.90,764.53 1118.26,764.53 1118.26,764.23 1117.81,764.23 1117.81,764.18 1117.74,764.18 1117.74,763.57 1117.74,763.57 1117.74,763.08 1117.68,763.08 1117.68,761.97 1117.64,761.97 1117.64,761.18 1117.31,761.18 1117.31,760.82 1116.18,760.82 1116.18,760.62 1116.18,760.62 1116.18,760.04 1114.91,760.04 1114.91,759.90 1114.67,759.90 1114.67,759.61 1113.61,759.61 1113.61,759.22 1113.05,759.22 1113.05,758.98 1112.53,758.98 1112.53,757.99 1111.33,757.99 1111.33,757.79 1110.97,757.79 1110.97,757.69 1110.45,757.69 1110.45,757.36 1108.36,757.36 1108.36,756.98 1108.26,756.98 1108.26,756.57 1107.32,756.57 1107.32,756.50 1107.32,756.50 1107.32,756.17 1107.32,756.17 1107.32,756.16 1106.65,756.16 1106.65,755.09 1105.24,755.09 1105.24,754.68 1105.24,754.68 1105.24,753.91 1103.37,753.91 1103.37,753.76 1103.15,753.76 1103.15,753.48 1102.11,753.48 1102.11,753.05 1102.11,753.05 1102.11,752.87 1102.11,752.87 1102.11,750.59 1101.28,750.59 1101.28,750.19 1100.52,750.19 1100.52,749.70 1100.03,749.70 1100.03,749.17 1099.58,749.17 1099.58,749.16 1099.39,749.16 1099.39,748.57 1098.62,748.57 1098.62,748.09 1097.42,748.09 1097.42,747.36 1096.90,747.36 1096.90,747.07 1096.90,747.07 1096.90,746.32 1094.17,746.32 1094.17,744.68 1093.78,744.68 1093.78,744.58 1092.73,744.58 1092.73,742.60 1092.21,742.60 1092.21,742.40 1092.21,742.40 1092.21,742.15 1091.69,742.15 1091.69,741.65 1091.69,741.65 1091.69,741.58 1090.69,741.58 1090.69,741.25 1090.13,741.25 1090.13,740.53 1090.13,740.53 1090.13,740.44 1090.13,740.44 1090.13,740.15 1090.04,740.15 1090.04,739.94 1090.03,739.94 1090.03,739.71 1089.61,739.71 1089.61,739.64 1089.60,739.64 1089.60,739.60 1089.09,739.60 1089.09,739.48 1089.09,739.48 1089.09,739.16 1088.57,739.16 1088.57,738.49 1088.57,738.49 1088.57,738.24 1087.53,738.24 1087.53,737.57 1087.26,737.57 1087.26,736.65 1087.02,736.65 1087.02,736.55 1087.01,736.55 1087.01,735.16 1086.83,735.16 1086.83,734.82 1086.69,734.82 1086.69,734.37 1086.48,734.37 1086.48,733.18 1086.48,733.18 1086.48,733.05 1086.48,733.05 1086.48,732.57 1086.48,732.57 1086.48,732.44 1086.48,732.44 1086.48,732.23 1085.44,732.23 1085.44,731.37 1084.34,731.37 1084.34,730.95 1083.36,730.95 1083.36,730.71 1083.36,730.71 1083.36,730.30 1082.84,730.30 1082.84,730.06 1082.84,730.06 1082.84,729.65 1082.32,729.65 1082.32,729.29 1081.63,729.29 1081.63,728.89 1081.27,728.89 1081.27,728.73 1079.64,728.73 1079.64,728.09 1079.37,728.09 1079.37,727.46 1079.07,727.46 1079.07,727.14 1078.83,727.14 1078.83,726.59 1078.29,726.59 1078.29,726.59 1077.63,726.59 1077.63,726.45 1077.26,726.45 1077.26,726.07 1077.11,726.07 1077.11,725.77 1076.59,725.77 1076.59,725.60 1076.06,725.60 1076.06,725.35 1076.06,725.35 1076.06,725.30 1076.06,725.30 1076.06,724.60 1075.54,724.60 1075.54,724.28 1075.54,724.28 1075.54,723.88 1074.67,723.88 1074.67,721.80 1074.64,721.80 1074.64,720.57 1074.50,720.57 1074.50,720.24 1074.31,720.24 1074.31,719.85 1073.46,719.85 1073.46,719.71 1073.46,719.71 1073.46,719.39 1073.16,719.39 1073.16,718.81 1072.94,718.81 1072.94,718.76 1072.94,718.76 1072.94,718.11 1072.42,718.11 1072.42,716.80 1071.38,716.80 1071.38,716.47 1070.85,716.47 1070.85,716.11 1068.84,716.11 1068.84,715.59 1068.27,715.59 1068.27,713.98 1068.16,713.98 1068.16,713.64 1066.69,713.64 1066.69,711.56 1065.65,711.56 1065.65,711.38 1065.65,711.38 1065.65,710.51 1065.35,710.51 1065.35,709.11 1065.12,709.11 1065.12,708.82 1064.60,708.82 1064.60,708.23 1064.08,708.23 1064.08,708.20 1063.56,708.20 1063.56,707.37 1063.04,707.37 1063.04,706.68 1062.52,706.68 1062.52,706.35 1062.00,706.35 1062.00,705.16 1061.48,705.16 1061.48,704.18 1060.97,704.18 1060.97,704.08 1060.96,704.08 1060.96,703.38 1060.44,703.38 1060.44,702.56 1060.44,702.56 1060.44,701.89 1060.44,701.89 1060.44,700.49 1060.44,700.49 1060.44,700.24 1060.33,700.24 1060.33,699.73 1059.39,699.73 1059.39,699.08 1059.24,699.08 1059.24,697.80 1058.03,697.80 1058.03,696.73 1057.31,696.73 1057.31,696.10 1056.79,696.10 1056.79,695.45 1056.60,695.45 1056.60,694.61 1056.36,694.61 1056.36,694.07 1056.27,694.07 1056.27,694.06 1055.75,694.06 1055.75,693.00 1055.74,693.00 1055.74,692.00 1055.38,692.00 1055.38,692.00 1055.23,692.00 1055.23,688.66 1055.23,688.66 1055.23,687.66 1055.23,687.66 1055.23,687.46 1055.23,687.46 1055.23,687.11 1055.16,687.11 1055.16,686.35 1055.16,686.35 1055.16,685.45 1052.74,685.45 1052.74,685.29 1052.62,685.29 1052.62,684.51 1051.58,684.51 1051.58,684.50 1051.30,684.50 1051.30,684.24 1051.06,684.24 1051.06,682.87 1050.02,682.87 1050.02,681.89 1048.72,681.89 1048.72,681.52 1048.51,681.52 1048.51,681.12 1046.89,681.12 1046.89,679.60 1046.89,679.60 1046.89,679.53 1046.37,679.53 1046.37,679.26 1045.93,679.26 1045.93,678.41 1045.90,678.41 1045.90,677.99 1044.84,677.99 1044.84,677.57 1044.81,677.57 1044.81,677.10 1044.81,677.10 1044.81,676.69 1044.81,676.69 1044.81,675.18 1044.81,675.18 1044.81,674.89 1044.71,674.89 1044.71,674.61 1044.29,674.61 1044.29,673.50 1043.55,673.50 1043.55,672.80 1043.28,672.80 1043.28,671.58 1043.24,671.58 1043.24,671.08 1042.72,671.08 1042.72,670.73 1041.77,670.73 1041.77,669.28 1041.68,669.28 1041.68,668.69 1039.60,668.69 1039.60,668.11 1039.60,668.11 1039.60,667.92 1039.60,667.92 1039.60,667.34 1039.60,667.34 1039.60,666.64 1039.60,666.64 1039.60,666.08 1039.60,666.08 1039.60,666.00 1038.55,666.00 1038.55,665.50 1038.03,665.50 1038.03,664.98 1036.99,664.98 1036.99,664.73 1036.86,664.73 1036.86,664.42 1036.47,664.42 1036.47,663.65 1036.42,663.65 1036.42,663.11 1036.24,663.11 1036.24,662.64 1035.95,662.64 1035.95,662.06 1035.49,662.06 1035.49,660.93 1035.37,660.93 1035.37,660.43 1034.91,660.43 1034.91,660.19 1034.74,660.19 1034.74,660.18 1034.39,660.18 1034.39,660.00 1033.34,660.00 1033.34,659.76 1032.64,659.76 1032.64,659.68 1032.30,659.68 1032.30,659.39 1031.78,659.39 1031.78,658.84 1031.02,658.84 1031.02,658.06 1029.90,658.06 1029.90,657.56 1029.60,657.56 1029.60,657.38 1028.89,657.38 1028.89,657.10 1028.66,657.10 1028.66,656.45 1028.29,656.45 1028.29,653.61 1028.17,653.61 1028.17,653.00 1028.14,653.00 1028.14,652.62 1028.14,652.62 1028.14,652.20 1027.61,652.20 1027.61,651.99 1027.61,651.99 1027.61,651.65 1027.10,651.65 1027.10,651.39 1026.88,651.39 1026.88,651.12 1025.53,651.12 1025.53,650.72 1025.01,650.72 1025.01,650.00 1023.97,650.00 1023.97,649.35 1023.97,649.35 1023.97,649.30 1023.53,649.30 1023.53,648.49 1023.45,648.49 1023.45,648.22 1023.18,648.22 1023.18,647.74 1022.78,647.74 1022.78,647.20 1022.40,647.20 1022.40,647.08 1021.86,647.08 1021.86,646.25 1021.30,646.25 1021.30,645.74 1020.84,645.74 1020.84,645.20 1020.32,645.20 1020.32,643.31 1020.32,643.31 1020.32,642.43 1020.32,642.43 1020.32,642.02 1020.32,642.02 1020.32,641.63 1020.15,641.63 1020.15,640.77 1019.28,640.77 1019.28,639.48 1019.28,639.48 1019.28,638.85 1018.76,638.85 1018.76,638.69 1018.76,638.69 1018.76,638.26 1018.24,638.26 1018.24,637.90 1018.13,637.90 1018.13,637.35 1018.01,637.35 1018.01,637.05 1017.72,637.05 1017.72,634.74 1017.46,634.74 1017.46,632.88 1017.42,632.88 1017.42,632.44 1017.19,632.44 1017.19,632.08 1016.67,632.08 1016.67,631.17 1016.15,631.17 1016.15,630.10 1015.78,630.10 1015.78,627.70 1015.57,627.70 1015.57,627.18 1015.11,627.18 1015.11,627.06 1015.11,627.06 1015.11,625.83 1013.55,625.83 1013.55,625.56 1013.55,625.56 1013.55,625.14 1013.55,625.14 1013.55,623.36 1013.55,623.36 1013.55,623.04 1013.55,623.04 1013.55,621.85 1013.47,621.85 1013.47,621.68 1011.46,621.68 1011.46,621.29 1011.46,621.29 1011.46,620.68 1011.36,620.68 1011.36,619.44 1011.08,619.44 1011.08,618.92 1010.94,618.92 1010.94,618.35 1010.94,618.35 1010.94,617.63 1010.55,617.63 1010.55,614.85 1010.42,614.85 1010.42,614.57 1010.37,614.57 1010.37,613.75 1009.92,613.75 1009.92,613.20 1009.90,613.20 1009.90,612.08 1009.90,612.08 1009.90,611.41 1009.52,611.41 1009.52,611.40 1009.38,611.40 1009.38,610.56 1008.78,610.56 1008.78,610.08 1008.34,610.08 1008.34,609.98 1008.34,609.98 1008.34,609.08 1008.34,609.08 1008.34,607.37 1008.34,607.37 1008.34,606.77 1007.82,606.77 1007.82,604.19 1007.62,604.19 1007.62,603.96 1006.78,603.96 1006.78,603.68 1006.78,603.68 1006.78,603.44 1006.75,603.44 1006.75,603.19 1006.05,603.19 1006.05,602.51 1005.86,602.51 1005.86,601.85 1005.73,601.85 1005.73,601.64 1004.69,601.64 1004.69,601.38 1004.17,601.38 1004.17,601.09 1003.99,601.09 1003.99,600.88 1003.48,600.88 1003.48,600.33 1003.23,600.33 1003.23,599.72 1003.13,599.72 1003.13,599.62 1003.13,599.62 1003.13,598.89 1003.13,598.89 1003.13,598.87 1002.09,598.87 1002.09,598.55 1001.41,598.55 1001.41,597.79 1000.84,597.79 1000.84,597.55 1000.63,597.55 1000.63,597.01 1000.00,597.01 1000.00,595.69 998.96,595.69 998.96,594.86 998.96,594.86 998.96,594.18 997.92,594.18 997.92,593.85 996.65,593.85 996.65,593.79 995.77,593.79 995.77,593.61 995.31,593.61 995.31,592.21 995.23,592.21 995.23,587.96 992.71,587.96 992.71,586.97 992.71,586.97 992.71,586.84 992.71,586.84 992.71,586.37 992.71,586.37 992.71,585.67 992.02,585.67 992.02,585.22 991.82,585.22 991.82,585.03 991.66,585.03 991.66,584.58 991.34,584.58 991.34,584.21 991.33,584.21 991.33,582.79 990.63,582.79 990.63,582.00 989.58,582.00 989.58,581.47 989.16,581.47 989.16,581.40 989.06,581.40 989.06,581.00 988.54,581.00 988.54,580.55 988.54,580.55 988.54,580.13 988.35,580.13 988.35,579.43 988.29,579.43 988.29,577.73 987.50,577.73 987.50,577.52 987.50,577.52 987.50,577.00 987.50,577.00 987.50,575.96 987.50,575.96 987.50,574.61 986.98,574.61 986.98,573.58 985.94,573.58 985.94,573.02 985.42,573.02 985.42,572.83 984.99,572.83 984.99,572.12 984.89,572.12 984.89,571.47 984.89,571.47 984.89,571.27 984.37,571.27 984.37,570.98 983.33,570.98 983.33,570.60 983.33,570.60 983.33,570.25 982.32,570.25 982.32,570.04 982.29,570.04 982.29,569.07 982.29,569.07 982.29,568.25 981.81,568.25 981.81,567.95 981.77,567.95 981.77,567.20 981.77,567.20 981.77,567.03 981.49,567.03 981.49,566.22 981.25,566.22 981.25,565.62 981.25,565.62 981.25,565.28 980.73,565.28 980.73,564.02 980.70,564.02 980.70,563.83 980.21,563.83 980.21,563.48 980.21,563.48 980.21,562.72 979.69,562.72 979.69,561.03 979.16,561.03 979.16,560.51 978.64,560.51 978.64,560.09 977.60,560.09 977.60,558.89 977.08,558.89 977.08,550.12 977.08,550.12 977.08,547.08 977.08,547.08 977.08,546.28 976.88,546.28 976.88,545.67 976.27,545.67 976.27,545.37 976.04,545.37 976.04,543.49 975.76,543.49 975.76,542.49 975.46,542.49 975.46,540.58 974.56,540.58 974.56,540.15 974.32,540.15 974.32,539.99 973.95,539.99 973.95,538.94 973.95,538.94 973.95,538.53 973.43,538.53 973.43,538.07 973.43,538.07 973.43,537.48 973.03,537.48 973.03,536.30 972.39,536.30 972.39,536.02 971.87,536.02 971.87,535.04 971.87,535.04 971.87,534.45 970.45,534.45 970.45,533.63 970.21,533.63 970.21,532.81 969.79,532.81 969.79,532.11 969.27,532.11 969.27,531.91 968.74,531.91 968.74,530.49 968.74,530.49 968.74,529.25 968.47,529.25 968.47,528.12 968.45,528.12 968.45,527.69 968.22,527.69 968.22,527.46 968.22,527.46 968.22,525.50 967.70,525.50 967.70,524.43 966.66,524.43 966.66,524.13 966.14,524.13 966.14,523.57 965.10,523.57 965.10,522.84 964.06,522.84 964.06,522.00 963.54,522.00 963.54,521.39 963.01,521.39 963.01,520.90 962.85,520.90 962.85,519.02 962.49,519.02 962.49,517.86 962.49,517.86 962.49,517.34 962.49,517.34 962.49,516.80 961.97,516.80 961.97,515.28 961.97,515.28 961.97,514.69 961.67,514.69 961.67,514.32 961.62,514.32 961.62,513.72 961.45,513.72 961.45,513.14 961.45,513.14 961.45,512.62 960.93,512.62 960.93,512.51 960.93,512.51 960.93,511.84 960.27,511.84 960.27,511.48 959.89,511.48 959.89,509.17 959.37,509.17 959.37,508.89 958.85,508.89 958.85,508.04 958.85,508.04 958.85,507.09 958.11,507.09 958.11,506.78 957.28,506.78 957.28,506.72 956.76,506.72 956.76,506.05 956.24,506.05 956.24,505.26 956.24,505.26 956.24,504.93 956.24,504.93 956.24,504.57 956.24,504.57 956.24,504.20 956.24,504.20 956.24,503.48 956.24,503.48 956.24,503.43 955.78,503.43 955.78,503.19 955.72,503.19 955.72,502.94 955.57,502.94 955.57,502.82 955.20,502.82 955.20,501.63 955.20,501.63 955.20,501.34 953.87,501.34 953.87,500.89 953.41,500.89 953.41,500.40 951.03,500.40 951.03,499.54 951.03,499.54 951.03,496.41 949.99,496.41 949.99,495.77 949.99,495.77 949.99,494.67 949.85,494.67 949.85,494.17 949.47,494.17 949.47,493.12 948.43,493.12 948.43,492.48 948.43,492.48 948.43,487.98 948.31,487.98 948.31,487.22 946.86,487.22 946.86,486.22 945.82,486.22 945.82,485.59 944.26,485.59 944.26,485.04 943.74,485.04 943.74,484.67 943.62,484.67 943.62,483.46 942.70,483.46 942.70,482.71 942.18,482.71 942.18,481.00 941.37,481.00 941.37,480.38 940.67,480.38 940.67,479.87 940.61,479.87 940.61,479.71 940.09,479.71 940.09,479.35 939.83,479.35 939.83,479.17 939.57,479.17 939.57,479.03 939.57,479.03 939.57,478.69 939.21,478.69 939.21,478.44 939.05,478.44 939.05,478.39 939.05,478.39 939.05,477.80 938.77,477.80 938.77,477.39 938.43,477.39 938.43,477.07 937.11,477.07 937.11,476.99 936.97,476.99 936.97,476.22 936.92,476.22 936.92,475.46 935.40,475.46 935.40,473.88 935.40,473.88 935.40,473.64 935.40,473.64 935.40,473.45 935.40,473.45 935.40,473.07 934.97,473.07 934.97,472.90 934.36,472.90 934.36,471.52 933.77,471.52 933.77,469.32 933.53,469.32 933.53,469.22 932.80,469.22 932.80,468.04 932.80,468.04 932.80,467.51 932.80,467.51 932.80,466.76 932.51,466.76 932.51,466.58 932.28,466.58 932.28,465.21 932.28,465.21 932.28,464.21 931.76,464.21 931.76,464.06 931.24,464.06 931.24,463.82 930.45,463.82 930.45,463.36 930.19,463.36 930.19,462.53 930.19,462.53 930.19,461.47 930.19,461.47 930.19,461.40 929.26,461.40 929.26,461.37 929.15,461.37 929.15,461.17 929.15,461.17 929.15,460.62 927.07,460.62 927.07,459.80 927.07,459.80 927.07,459.23 927.00,459.23 927.00,458.69 926.55,458.69 926.55,458.22 926.55,458.22 926.55,456.70 926.30,456.70 926.30,455.91 925.50,455.91 925.50,455.12 924.98,455.12 924.98,452.42 924.98,452.42 924.98,451.22 924.46,451.22 924.46,450.87 924.46,450.87 924.46,450.07 923.75,450.07 923.75,449.69 922.90,449.69 922.90,449.23 921.86,449.23 921.86,444.85 921.86,444.85 921.86,443.78 921.34,443.78 921.34,443.45 921.34,443.45 921.34,443.31 921.32,443.31 921.32,442.54 920.82,442.54 920.82,441.97 920.29,441.97 920.29,440.85 920.22,440.85 920.22,439.77 919.77,439.77 919.77,439.60 919.77,439.60 919.77,439.29 919.77,439.29 919.77,438.66 919.46,438.66 919.46,437.98 919.07,437.98 919.07,437.42 916.85,437.42 916.85,436.90 916.84,436.90 916.84,436.88 915.99,436.88 915.99,435.86 915.09,435.86 915.09,435.30 914.56,435.30 914.56,433.17 914.56,433.17 914.56,431.81 914.56,431.81 914.56,431.47 914.56,431.47 914.56,430.79 914.56,430.79 914.56,429.97 913.52,429.97 913.52,429.68 911.96,429.68 911.96,428.99 911.71,428.99 911.71,428.55 911.45,428.55 911.45,428.28 911.44,428.28 911.44,427.83 910.40,427.83 910.40,427.36 910.40,427.36 910.40,426.57 910.33,426.57 910.33,426.57 909.35,426.57 909.35,426.06 909.35,426.06 909.35,425.81 909.35,425.81 909.35,425.12 909.35,425.12 909.35,424.35 909.35,424.35 909.35,423.87 908.83,423.87 908.83,422.35 908.83,422.35 908.83,421.81 908.83,421.81 908.83,421.00 908.11,421.00 908.11,420.54 907.79,420.54 907.79,419.74 907.79,419.74 907.79,418.72 907.79,418.72 907.79,418.36 906.80,418.36 906.80,417.08 906.75,417.08 906.75,416.24 906.23,416.24 906.23,415.44 905.04,415.44 905.04,415.07 904.67,415.07 904.67,414.73 904.67,414.73 904.67,412.95 904.32,412.95 904.32,412.46 904.15,412.46 904.15,411.54 902.58,411.54 902.58,411.21 902.16,411.21 902.16,410.56 901.88,410.56 901.88,410.17 901.57,410.17 901.57,409.01 901.02,409.01 901.02,408.65 898.94,408.65 898.94,408.20 897.37,408.20 897.37,406.99 896.85,406.99 896.85,406.34 896.33,406.34 896.33,405.00 894.99,405.00 894.99,404.10 893.73,404.10 893.73,403.91 893.73,403.91 893.73,402.55 893.32,402.55 893.32,401.71 891.64,401.71 891.64,400.66 891.37,400.66 891.37,398.66 890.88,398.66 890.88,397.35 890.85,397.35 890.85,396.92 888.52,396.92 888.52,396.09 888.19,396.09 888.19,395.43 887.69,395.43 887.69,395.28 886.17,395.28 886.17,394.77 885.39,394.77 885.39,392.67 884.87,392.67 884.87,391.90 884.87,391.90 884.87,391.26 883.83,391.26 883.83,390.75 883.31,390.75 883.31,389.76 883.31,389.76 883.31,388.74 883.31,388.74 883.31,388.16 880.70,388.16 880.70,388.03 880.35,388.03 880.35,387.22 879.75,387.22 879.75,386.33 879.10,386.33 879.10,386.07 878.62,386.07 878.62,385.25 878.37,385.25 878.37,382.03 878.10,382.03 878.10,381.78 877.79,381.78 877.79,381.55 877.58,381.55 877.58,380.52 877.58,380.52 877.58,377.89 877.41,377.89 877.41,376.48 876.53,376.48 876.53,375.91 876.09,375.91 876.09,375.30 875.49,375.30 875.49,374.20 874.78,374.20 874.78,373.84 874.11,373.84 874.11,373.49 873.93,373.49 873.93,373.09 873.93,373.09 873.93,372.13 873.60,372.13 873.60,370.82 872.89,370.82 872.89,370.29 872.89,370.29 872.89,370.12 872.37,370.12 872.37,368.93 872.32,368.93 872.32,368.11 871.32,368.11 871.32,367.37 869.76,367.37 869.76,366.80 869.24,366.80 869.24,365.28 869.11,365.28 869.11,364.64 868.23,364.64 868.23,363.61 868.20,363.61 868.20,363.05 868.08,363.05 868.08,362.54 867.87,362.54 867.87,361.75 867.68,361.75 867.68,361.44 867.68,361.44 867.68,361.27 866.86,361.27 866.86,360.47 866.11,360.47 866.11,359.21 865.06,359.21 865.06,358.52 864.34,358.52 864.34,357.67 863.51,357.67 863.51,357.33 862.33,357.33 862.33,356.64 861.95,356.64 861.95,356.42 861.95,356.42 861.95,355.49 857.30,355.49 857.30,355.04 856.22,355.04 856.22,354.75 854.13,354.75 854.13,354.30 854.13,354.30 854.13,353.14 853.83,353.14 853.83,352.74 853.61,352.74 853.61,351.21 853.52,351.21 853.52,350.55 852.57,350.55 852.57,350.37 851.53,350.37 851.53,349.06 850.84,349.06 850.84,348.59 850.49,348.59 850.49,348.46 849.96,348.46 849.96,347.53 849.44,347.53 849.44,344.94 848.92,344.94 848.92,344.40 848.83,344.40 848.83,340.37 847.88,340.37 847.88,339.12 847.88,339.12 847.88,338.93 847.39,338.93 847.39,337.55 846.84,337.55 846.84,336.79 846.84,336.79 846.84,335.18 845.60,335.18 845.60,334.68 844.75,334.68 844.75,334.24 844.23,334.24 844.23,332.55 843.71,332.55 843.71,330.66 842.67,330.66 842.67,330.16 842.67,330.16 842.67,328.57 842.49,328.57 842.49,327.57 842.49,327.57 842.49,326.18 841.63,326.18 841.63,325.20 841.63,325.20 841.63,324.95 839.54,324.95 839.54,324.38 837.21,324.38 837.21,321.90 836.04,321.90 836.04,320.69 834.86,320.69 834.86,320.19 833.49,320.19 833.49,319.88 832.77,319.88 832.77,318.48 832.36,318.48 832.36,317.35 831.73,317.35 831.73,316.93 829.07,316.93 829.07,316.63 824.44,316.63 824.44,316.58 823.92,316.58 823.92,316.26 823.80,316.26 823.80,314.11 822.35,314.11 822.35,313.80 820.27,313.80 820.27,312.04 818.19,312.04 818.19,310.15 817.52,310.15 817.52,307.11 815.58,307.11 815.58,306.26 815.58,306.26 815.58,305.71 814.54,305.71 814.54,305.04 812.45,305.04 812.45,304.02 811.41,304.02 811.41,303.66 811.41,303.66 811.41,303.15 811.37,303.15 811.37,302.48 811.23,302.48 811.23,302.25 810.37,302.25 810.37,299.75 810.37,299.75 810.37,299.61 809.85,299.61 809.85,299.02 809.80,299.02 809.80,298.10 808.29,298.10 808.29,297.59 807.96,297.59 807.96,296.37 805.95,296.37 805.95,296.04 804.64,296.04 804.64,294.43 803.60,294.43 803.60,293.83 802.56,293.83 802.56,293.19 802.56,293.19 802.56,291.10 802.56,291.10 802.56,290.07 802.51,290.07 802.51,289.69 799.95,289.69 799.95,288.93 799.43,288.93 799.43,288.02 799.36,288.02 799.36,287.55 798.39,287.55 798.39,286.47 798.39,286.47 798.39,285.72 797.01,285.72 797.01,285.06 792.39,285.06 792.39,283.48 792.14,283.48 792.14,282.50 791.62,282.50 791.62,279.00 791.10,279.00 791.10,278.69 789.99,278.69 789.99,278.37 789.53,278.37 789.53,278.11 784.32,278.11 784.32,277.71 784.32,277.71 784.32,277.37 784.32,277.37 784.32,276.77 781.72,276.77 781.72,275.73 779.63,275.73 779.63,274.38 779.11,274.38 779.11,272.83 775.99,272.83 775.99,272.51 775.34,272.51 775.34,271.84 773.90,271.84 773.90,271.34 770.78,271.34 770.78,270.92 770.26,270.92 770.26,269.57 770.26,269.57 770.26,267.64 769.54,267.64 769.54,266.41 769.21,266.41 769.21,265.42 768.69,265.42 768.69,264.40 768.69,264.40 768.69,262.95 767.90,262.95 767.90,261.32 766.61,261.32 766.61,260.37 765.16,260.37 765.16,258.85 762.44,258.85 762.44,257.94 762.44,257.94 762.44,256.92 757.75,256.92 757.75,256.40 757.01,256.40 757.01,255.73 754.25,255.73 754.25,255.26 753.59,255.26 753.59,253.23 750.59,253.23 750.59,251.97 748.38,251.97 748.38,247.88 746.29,247.88 746.29,247.45 745.25,247.45 745.25,246.69 744.21,246.69 744.21,243.00 742.65,243.00 742.65,241.19 738.48,241.19 738.48,239.94 737.44,239.94 737.44,239.63 735.26,239.63 735.26,238.29 734.70,238.29 734.70,236.68 734.31,236.68 734.31,234.68 727.02,234.68 727.02,233.80 725.51,233.80 725.51,233.60 724.93,233.60 724.93,232.86 717.64,232.86 717.64,232.41 717.12,232.41 717.12,231.28 716.60,231.28 716.60,230.74 716.60,230.74 716.60,230.28 716.08,230.28 716.08,229.40 715.03,229.40 715.03,226.53 711.39,226.53 711.39,226.20 706.56,226.20 706.56,225.41 706.18,225.41 706.18,219.61 704.71,219.61 704.71,218.89 704.61,218.89 704.61,217.76 704.57,217.76 704.57,217.06 702.53,217.06 702.53,216.29 702.36,216.29 702.36,214.65 696.80,214.65 696.80,213.71 692.63,213.71 692.63,211.48 690.55,211.48 690.55,209.40 690.55,209.40 690.55,206.20 690.03,206.20 690.03,205.52 681.69,205.52 681.69,203.48 680.65,203.48 680.65,197.23 672.71,197.23 672.71,196.73 671.72,196.73 671.72,195.82 666.06,195.82 666.06,194.63 666.06,194.63 666.06,193.54 663.98,193.54 663.98,190.76 661.37,190.76 661.37,189.52 659.39,189.52 659.39,188.75 659.29,188.75 659.29,186.26 654.08,186.26 654.08,185.73 647.31,185.73 647.31,184.54 643.66,184.54 643.66,183.87 640.24,183.87 640.24,183.51 633.76,183.51 633.76,182.76 625.44,182.76 625.44,181.72 622.82,181.72 622.82,181.33 621.78,181.33 621.78,180.32 619.91,180.32 619.91,179.40 617.61,179.40 617.61,179.14 617.61,179.14 617.61,177.30 613.45,177.30 613.45,174.78 612.35,174.78 612.35,174.35 605.63,174.35 605.63,173.59 592.09,173.59 592.09,172.15 591.56,172.15 591.56,170.37 585.31,170.37 585.31,168.42 584.15,168.42 584.15,167.20 583.09,167.20 583.09,165.70 569.68,165.70 569.68,162.39 567.60,162.39 567.60,160.90 565.52,160.90 565.52,159.95 554.18,159.95 554.18,157.01 544.68,157.01 544.68,151.50 527.67,151.50 527.67,150.82 508.21,150.82 508.21,149.93 505.60,149.93 505.60,146.14 497.59,146.14 497.59,144.32 485.74,144.32 485.74,139.70 476.95,139.70 476.95,135.77 461.32,135.77 461.32,132.79 438.40,132.79 438.40,128.61 437.88,128.61 437.88,126.41 434.75,126.41 434.75,122.11 409.23,122.11 409.23,115.81 409.23,115.81 409.23,113.08 408.70,113.08 408.70,110.22 401.93,110.22 401.93,107.76 399.33,107.76 399.33,100.40 350.88,100.40 350.88,94.66 278.98,94.66 278.98,92.27 180.00,92.27 180.00,90.00 180.00,90.00 180.00,90.00" stroke-width="3.6" stroke="#00aa88" />
<g stroke="#0088">
<line x1="1620.00" x2="1636.67" y1="810.00" y2="810.00" />
<line x1="1620.00" x2="1636.67" y1="90.00" y2="90.00" />
<g fill="#0088" font-family="Arial, sans-serif" font-size="25.0" stroke="none" text-anchor="beginning">
<text x="1632.50" y="797.50">0.0</text>
<text x="1632.50" y="77.50">1.0</text>
</g>
<line x1="1620.00" x2="1620.00" y1="810.00" y2="90.00" />
</g>
</g>
</g>
</svg>
</g>
</g>
</g>
</g>
</svg>