<?xml version="1.0"?>
<svg height="900" version="1.1" viewBox="0 0 1800 900" width="1800" xmlns:xlink="http://www.w3.org/1999/xlink" xmlns="http://www.w3.org/2000/svg">
<g>
<g transform="matrix(1.00,0.00,0.00,1.00,0.00,0.00)">
<g>
<g transform="matrix(1.00,0.00,0.00,1.00,0.00,0.00)">
<svg height="900" version="1.1" viewBox="0 0 1800 900" width="1800" xmlns:xlink="http://www.w3.org/1999/xlink" xmlns="http://www.w3.org/2000/svg">
<g>
<g>
<g stroke-dasharray="5.0 10.0" stroke-width="1.0" stroke="#caa">
<line x1="792.84" x2="792.84" y1="810.00" y2="90.00" />
<line x1="1462.60" x2="1462.60" y1="810.00" y2="90.00" />
<line x1="180.00" x2="1620.00" y1="810.00" y2="810.00" />
<line x1="180.00" x2="1620.00" y1="661.92" y2="661.92" />
<line x1="180.00" x2="1620.00" y1="513.84" y2="513.84" />
<line x1="180.00" x2="1620.00" y1="365.76" y2="365.76" />
<line x1="180.00" x2="1620.00" y1="217.68" y2="217.68" />
</g>
<g>
<text dominant-baseline="hanging" dx="-50.0" dy="50.0" fill="#0004" font-family="Arial, sans-serif" font-size="50" stroke-width="1.6666666666666667" stroke="none" text-anchor="end" text="d18O Hist - Index weighted" x="1620.00" y="154.53">d18O Hist - Index weighted</text>
</g>
<g>
<text dominant-baseline="text-bottom" dy="-12.5" fill="black" font-family="Arial, sans-serif" font-size="25.0" font-style="italic" stroke="none" text-anchor="middle" text="d18O" x="900.00" y="90.72">d18O</text>
</g>
<g>
<text dominant-baseline="hanging" dx="25.0" dy="25.0" fill="black" font-family="Arial, sans-serif" font-size="25.0" font-style="italic" stroke="none" text-anchor="beginning" text-orientation="sideways" text="Monsoon fraction per bin" x="180.00" y="90.72">Monsoon fraction per bin</text>
</g>
<g fill="none" opacity="0.5" stroke-width="15" stroke="#aa8800">
<line x1="1539.63" x2="1539.63" y1="596.67" y2="810.00" />
<line x1="1439.16" x2="1439.16" y1="792.62" y2="810.00" />
<line x1="802.88" x2="802.88" y1="739.66" y2="810.00" />
<line x1="836.37" x2="836.37" y1="799.85" y2="810.00" />
<line x1="869.86" x2="869.86" y1="772.29" y2="810.00" />
<line x1="903.35" x2="903.35" y1="763.24" y2="810.00" />
<line x1="769.40" x2="769.40" y1="733.37" y2="810.00" />
<line x1="568.47" x2="568.47" y1="753.78" y2="810.00" />
<line x1="601.95" x2="601.95" y1="767.25" y2="810.00" />
<line x1="1070.79" x2="1070.79" y1="447.14" y2="810.00" />
<line x1="1104.28" x2="1104.28" y1="565.19" y2="810.00" />
<line x1="1137.77" x2="1137.77" y1="428.07" y2="810.00" />
<line x1="1171.26" x2="1171.26" y1="208.99" y2="810.00" />
<line x1="936.84" x2="936.84" y1="540.03" y2="810.00" />
<line x1="970.33" x2="970.33" y1="522.34" y2="810.00" />
<line x1="1003.81" x2="1003.81" y1="586.65" y2="810.00" />
<line x1="1037.30" x2="1037.30" y1="597.09" y2="810.00" />
<line x1="1472.65" x2="1472.65" y1="768.84" y2="810.00" />
<line x1="1405.67" x2="1405.67" y1="611.79" y2="810.00" />
<line x1="1338.70" x2="1338.70" y1="700.86" y2="810.00" />
<line x1="1372.19" x2="1372.19" y1="592.01" y2="810.00" />
<line x1="1204.74" x2="1204.74" y1="154.53" y2="810.00" />
<line x1="1238.23" x2="1238.23" y1="363.25" y2="810.00" />
<line x1="1271.72" x2="1271.72" y1="702.66" y2="810.00" />
<line x1="1305.21" x2="1305.21" y1="536.29" y2="810.00" />
</g>
<g stroke="black">
<line x1="792.84" x2="792.84" y1="810.00" y2="820.00" />
<line x1="1462.60" x2="1462.60" y1="810.00" y2="820.00" />
<g fill="black" font-family="Arial, sans-serif" font-size="25.0" stroke="none" text-anchor="start" transform="translate(12.5 0.0)">
<text x="792.84" y="838.57">-10</text>
<text x="1462.60" y="838.57">0</text>
</g>
<line x1="180.00" x2="1620.00" y1="810.00" y2="810.00" />
</g>
<g stroke="black">
<line x1="180.00" x2="163.33" y1="810.00" y2="810.00" />
<line x1="180.00" x2="163.33" y1="661.92" y2="661.92" />
<line x1="180.00" x2="163.33" y1="513.84" y2="513.84" />
<line x1="180.00" x2="163.33" y1="365.76" y2="365.76" />
<line x1="180.00" x2="163.33" y1="217.68" y2="217.68" />
<g fill="black" font-family="Arial, sans-serif" font-size="25.0" stroke="none" text-anchor="end">
<text x="167.50" y="797.50">0.0</text>
<text x="167.50" y="649.42">0.1</text>
<text x="167.50" y="501.34">0.2</text>
<text x="167.50" y="353.26">0.3</text>
<text x="167.50" y="205.18">0.4</text>
</g>
<line x1="180.00" x2="180.00" y1="810.00" y2="90.00" />
</g>
</g>
<g>
<g stroke-dasharray="5.0 10.0" stroke-width="1.0" stroke="#caa">
<line x1="792.84" x2="792.84" y1="810.00" y2="90.00" />
<line x1="1462.60" x2="1462.60" y1="810.00" y2="90.00" />
<line x1="180.00" x2="1620.00" y1="810.00" y2="810.00" />
<line x1="180.00" x2="1620.00" y1="661.92" y2="661.92" />
<line x1="180.00" x2="1620.00" y1="513.84" y2="513.84" />
<line x1="180.00" x2="1620.00" y1="365.76" y2="365.76" />
<line x1="180.00" x2="1620.00" y1="217.68" y2="217.68" />
</g>
<g>
<text dominant-baseline="hanging" dx="-50.0" dy="50.0" fill="#0004" font-family="Arial, sans-serif" font-size="50" stroke-width="1.6666666666666667" stroke="none" text-anchor="end" text="d18O Hist - Index weighted" x="1620.00" y="154.53">d18O Hist - Index weighted</text>
</g>
<g>
<text dominant-baseline="text-bottom" dy="-12.5" fill="black" font-family="Arial, sans-serif" font-size="25.0" font-style="italic" stroke="none" text-anchor="middle" text="d18O" x="900.00" y="90.72">d18O</text>
</g>
<g>
<text dominant-baseline="hanging" dx="25.0" dy="25.0" fill="black" font-family="Arial, sans-serif" font-size="25.0" font-style="italic" stroke="none" text-anchor="beginning" text-orientation="sideways" text="Monsoon fraction per bin" x="180.00" y="90.72">Monsoon fraction per bin</text>
</g>
<g fill="none" opacity="0.5" stroke-width="15" stroke="#00aa88">
<line x1="481.40" x2="481.40" y1="588.06" y2="810.00" />
<line x1="447.91" x2="447.91" y1="245.90" y2="810.00" />
<line x1="648.84" x2="648.84" y1="564.43" y2="810.00" />
<line x1="548.37" x2="548.37" y1="652.16" y2="810.00" />
<line x1="782.79" x2="782.79" y1="677.69" y2="810.00" />
<line x1="749.30" x2="749.30" y1="731.69" y2="810.00" />
<line x1="715.81" x2="715.81" y1="752.67" y2="810.00" />
<line x1="682.33" x2="682.33" y1="692.02" y2="810.00" />
<line x1="916.74" x2="916.74" y1="686.10" y2="810.00" />
<line x1="883.26" x2="883.26" y1="602.08" y2="810.00" />
<line x1="849.77" x2="849.77" y1="684.37" y2="810.00" />
<line x1="816.28" x2="816.28" y1="564.32" y2="810.00" />
<line x1="180.00" x2="180.00" y1="732.45" y2="810.00" />
<line x1="380.93" x2="380.93" y1="614.14" y2="810.00" />
<line x1="280.47" x2="280.47" y1="728.48" y2="810.00" />
<line x1="1050.70" x2="1050.70" y1="473.32" y2="810.00" />
<line x1="1017.21" x2="1017.21" y1="527.06" y2="810.00" />
<line x1="983.72" x2="983.72" y1="695.22" y2="810.00" />
<line x1="950.23" x2="950.23" y1="657.67" y2="810.00" />
<line x1="1184.65" x2="1184.65" y1="339.38" y2="810.00" />
<line x1="1151.16" x2="1151.16" y1="634.98" y2="810.00" />
<line x1="1117.67" x2="1117.67" y1="613.83" y2="810.00" />
<line x1="1084.19" x2="1084.19" y1="445.97" y2="810.00" />
<line x1="1318.60" x2="1318.60" y1="783.42" y2="810.00" />
<line x1="1285.12" x2="1285.12" y1="557.57" y2="810.00" />
<line x1="1251.63" x2="1251.63" y1="781.73" y2="810.00" />
<line x1="1218.14" x2="1218.14" y1="711.56" y2="810.00" />
<line x1="1385.58" x2="1385.58" y1="790.99" y2="810.00" />
<line x1="1352.09" x2="1352.09" y1="772.08" y2="810.00" />
<line x1="1419.07" x2="1419.07" y1="797.63" y2="810.00" />
<line x1="1620.00" x2="1620.00" y1="766.80" y2="810.00" />
</g>
<g stroke="black">
<line x1="792.84" x2="792.84" y1="810.00" y2="820.00" />
<line x1="1462.60" x2="1462.60" y1="810.00" y2="820.00" />
<g fill="black" font-family="Arial, sans-serif" font-size="25.0" stroke="none" text-anchor="start" transform="translate(12.5 0.0)">
<text x="792.84" y="838.57">-10</text>
<text x="1462.60" y="838.57">0</text>
</g>
<line x1="180.00" x2="1620.00" y1="810.00" y2="810.00" />
</g>
<g stroke="black">
<line x1="180.00" x2="163.33" y1="810.00" y2="810.00" />
<line x1="180.00" x2="163.33" y1="661.92" y2="661.92" />
<line x1="180.00" x2="163.33" y1="513.84" y2="513.84" />
<line x1="180.00" x2="163.33" y1="365.76" y2="365.76" />
<line x1="180.00" x2="163.33" y1="217.68" y2="217.68" />
<g fill="black" font-family="Arial, sans-serif" font-size="25.0" stroke="none" text-anchor="end">
<text x="167.50" y="797.50">0.0</text>
<text x="167.50" y="649.42">0.1</text>
<text x="167.50" y="501.34">0.2</text>
<text x="167.50" y="353.26">0.3</text>
<text x="167.50" y="205.18">0.4</text>
</g>
<line x1="180.00" x2="180.00" y1="810.00" y2="90.00" />
</g>
</g>
<g>
<g>
<text dominant-baseline="hanging" dx="-25.0" dy="25.0" fill="#0088" font-family="Arial, sans-serif" font-size="25.0" font-style="italic" stroke="none" text-anchor="end" text-orientation="sideways" text="eCDF (fraction of rain heavier than given amount)" x="1620.00" y="90.00">eCDF (fraction of rain heavier than given amount)</text>
</g>
<polyline fill="none" points="1449.35,780.49 1449.35,774.80 1414.85,774.80 1414.85,772.40 1394.84,772.40 1394.84,766.03 1387.79,766.03 1387.79,754.84 1383.60,754.84 1383.60,749.95 1383.36,749.95 1383.36,744.98 1374.28,744.98 1374.28,736.21 1370.31,736.21 1370.31,724.98 1355.86,724.98 1355.86,714.83 1344.25,714.83 1344.25,709.38 1337.52,709.38 1337.52,706.95 1332.26,706.95 1332.26,699.73 1310.63,699.73 1310.63,686.65 1302.17,686.65 1302.17,673.02 1300.30,673.02 1300.30,669.76 1288.26,669.76 1288.26,666.11 1283.10,666.11 1283.10,661.88 1270.65,661.88 1270.65,657.24 1260.91,657.24 1260.91,653.25 1254.09,653.25 1254.09,647.03 1245.72,647.03 1245.72,637.66 1245.09,637.66 1245.09,635.09 1244.44,635.09 1244.44,633.78 1241.81,633.78 1241.81,631.03 1241.81,631.03 1241.81,617.21 1233.43,617.21 1233.43,610.61 1232.64,610.61 1232.64,602.21 1228.70,602.21 1228.70,591.87 1215.59,591.87 1215.59,585.24 1212.32,585.24 1212.32,578.68 1209.04,578.68 1209.04,576.64 1209.04,576.64 1209.04,569.48 1209.03,569.48 1209.03,567.97 1202.76,567.97 1202.76,553.44 1201.83,553.44 1201.83,545.98 1201.17,545.98 1201.17,541.71 1201.10,541.71 1201.10,525.70 1199.21,525.70 1199.21,517.21 1195.40,517.21 1195.40,513.04 1194.62,513.04 1194.62,504.34 1193.31,504.34 1193.31,499.65 1190.69,499.65 1190.69,494.58 1179.54,494.58 1179.54,473.35 1176.27,473.35 1176.27,471.26 1174.70,471.26 1174.70,466.48 1169.71,466.48 1169.71,459.04 1169.16,459.04 1169.16,448.11 1163.81,448.11 1163.81,443.83 1161.64,443.83 1161.64,430.33 1160.92,430.33 1160.92,423.50 1157.26,423.50 1157.26,411.45 1145.34,411.45 1145.34,404.75 1144.70,404.75 1144.70,394.62 1143.50,394.62 1143.50,390.96 1138.38,390.96 1138.38,385.30 1134.97,385.30 1134.97,374.89 1125.58,374.89 1125.58,368.55 1117.28,368.55 1117.28,358.62 1115.70,358.62 1115.70,356.22 1110.72,356.22 1110.72,349.61 1104.17,349.61 1104.17,331.79 1095.86,331.79 1095.86,324.76 1081.88,324.76 1081.88,315.60 1076.64,315.60 1076.64,310.22 1075.37,310.22 1075.37,304.67 1071.40,304.67 1071.40,299.18 1066.02,299.18 1066.02,285.58 1053.70,285.58 1053.70,279.31 1051.73,279.31 1051.73,276.66 1051.73,276.66 1051.73,274.57 1048.46,274.57 1048.46,265.77 1041.64,265.77 1041.64,259.43 1040.59,259.43 1040.59,254.84 1037.97,254.84 1037.97,249.93 1031.42,249.93 1031.42,247.28 1030.10,247.28 1030.10,245.12 999.26,245.12 999.26,214.23 986.06,214.23 986.06,206.92 971.12,206.92 971.12,199.43 967.84,199.43 967.84,187.31 960.63,187.31 960.63,179.01 957.35,179.01 957.35,177.35 953.42,177.35 953.42,174.44 942.93,174.44 942.93,163.53 933.83,163.53 933.83,157.32 933.76,157.32 933.76,144.09 920.65,144.09 920.65,137.10 918.02,137.10 918.02,133.06 887.87,133.06 887.87,130.64 879.35,130.64 879.35,125.42 838.72,125.42 838.72,124.02 795.98,124.02 795.98,114.29 765.96,114.29 765.96,103.69 612.04,103.69 612.04,97.78 586.37,97.78 586.37,90.00 586.37,90.00 586.37,90.00" stroke-width="3.6" stroke="#aa8800" />
<polyline fill="none" points="1403.57,804.07 1403.57,802.50 1393.87,802.50 1393.87,802.37 1370.74,802.37 1370.74,799.76 1359.25,799.76 1359.25,798.06 1356.23,798.06 1356.23,797.43 1344.06,797.43 1344.06,795.51 1327.67,795.51 1327.67,794.55 1315.88,794.55 1315.88,792.60 1300.80,792.60 1300.80,790.90 1293.88,790.90 1293.88,784.35 1293.59,784.35 1293.59,783.00 1287.69,783.00 1287.69,779.85 1281.14,779.85 1281.14,764.16 1276.55,764.16 1276.55,764.10 1274.58,764.10 1274.58,759.53 1261.47,759.53 1261.47,756.25 1250.69,756.25 1250.69,752.59 1241.81,752.59 1241.81,752.37 1223.46,752.37 1223.46,748.41 1221.24,748.41 1221.24,747.34 1219.27,747.34 1219.27,744.15 1213.43,744.15 1213.43,740.58 1212.71,740.58 1212.71,739.46 1202.49,739.46 1202.49,738.85 1192.78,738.85 1192.78,735.55 1192.65,735.55 1192.65,732.51 1188.72,732.51 1188.72,729.01 1188.07,729.01 1188.07,726.19 1188.07,726.19 1188.07,724.62 1185.44,724.62 1185.44,722.20 1182.82,722.20 1182.82,681.07 1181.80,681.07 1181.80,679.65 1164.47,679.65 1164.47,674.24 1158.95,674.24 1158.95,672.74 1156.60,672.74 1156.60,671.05 1156.60,671.05 1156.60,670.80 1148.08,670.80 1148.08,665.87 1144.81,665.87 1144.81,661.19 1140.87,661.19 1140.87,659.42 1140.73,659.42 1140.73,653.76 1132.30,653.76 1132.30,650.21 1128.03,650.21 1128.03,649.75 1124.16,649.75 1124.16,647.60 1123.83,647.60 1123.83,643.70 1123.83,643.70 1123.83,638.74 1119.81,638.74 1119.81,636.19 1112.69,636.19 1112.69,635.54 1109.84,635.54 1109.84,632.89 1104.82,632.89 1104.82,630.28 1104.17,630.28 1104.17,627.08 1104.17,627.08 1104.17,623.27 1097.61,623.27 1097.61,622.11 1096.96,622.11 1096.96,614.99 1095.65,614.99 1095.65,610.20 1094.34,610.20 1094.34,606.25 1093.68,606.25 1093.68,602.51 1091.72,602.51 1091.72,600.90 1091.72,600.90 1091.72,592.55 1091.06,592.55 1091.06,588.24 1088.56,588.24 1088.56,585.17 1087.13,585.17 1087.13,583.50 1077.44,583.50 1077.44,579.60 1071.40,579.60 1071.40,575.71 1068.45,575.71 1068.45,573.30 1058.64,573.30 1058.64,558.20 1057.63,558.20 1057.63,545.87 1057.43,545.87 1057.43,539.29 1056.32,539.29 1056.32,536.62 1051.73,536.62 1051.73,534.12 1045.18,534.12 1045.18,532.67 1040.98,532.67 1040.98,528.71 1039.94,528.71 1039.94,527.07 1027.37,527.07 1027.37,523.97 1023.55,523.97 1023.55,523.36 1020.27,523.36 1020.27,522.49 1018.96,522.49 1018.96,514.91 1013.49,514.91 1013.49,508.37 1006.85,508.37 1006.85,496.76 1001.27,496.76 1001.27,490.18 999.95,490.18 999.95,488.22 985.53,488.22 985.53,480.00 974.39,480.00 974.39,478.34 972.36,478.34 972.36,474.02 967.51,474.02 967.51,472.47 965.87,472.47 965.87,464.94 959.22,464.94 959.22,462.72 937.03,462.72 937.03,457.84 934.41,457.84 934.41,451.55 921.30,451.55 921.30,446.93 919.65,446.93 919.65,439.29 912.78,439.29 912.78,434.54 891.15,434.54 891.15,430.98 889.84,430.98 889.84,413.71 881.32,413.71 881.32,412.27 878.58,412.27 878.58,406.00 855.76,406.00 855.76,400.70 840.15,400.70 840.15,397.29 840.03,397.29 840.03,392.02 839.98,392.02 839.98,388.75 830.20,388.75 830.20,384.35 809.88,384.35 809.88,355.02 791.52,355.02 791.52,349.88 788.90,349.88 788.90,336.85 767.93,336.85 767.93,331.28 759.04,331.28 759.04,329.61 750.89,329.61 750.89,326.10 733.46,326.10 733.46,321.80 715.49,321.80 715.49,318.23 689.93,318.23 689.93,309.07 687.13,309.07 687.13,302.03 670.27,302.03 670.27,286.54 665.03,286.54 665.03,282.09 650.76,282.09 650.76,268.32 564.65,268.32 564.65,246.65 504.44,246.65 504.44,236.35 500.51,236.35 500.51,216.18 468.39,216.18 468.39,186.63 467.74,186.63 467.74,173.24 455.94,173.24 455.94,138.73 394.98,138.73 394.98,111.84 304.53,111.84 304.53,100.65 180.00,100.65 180.00,90.00 180.00,90.00 180.00,90.00" stroke-width="3.6" stroke="#00aa88" />
<g stroke="#0088">
<line x1="1620.00" x2="1636.67" y1="810.00" y2="810.00" />
<line x1="1620.00" x2="1636.67" y1="90.00" y2="90.00" />
<g fill="#0088" font-family="Arial, sans-serif" font-size="25.0" stroke="none" text-anchor="beginning">
<text x="1632.50" y="797.50">0.0</text>
<text x="1632.50" y="77.50">1.0</text>
</g>
<line x1="1620.00" x2="1620.00" y1="810.00" y2="90.00" />
</g>
</g>
</g>
</svg>
</g>
</g>
</g>
</g>
</svg>