<?xml version="1.0"?>
<svg height="900" version="1.1" viewBox="0 0 1800 900" width="1800" xmlns:xlink="http://www.w3.org/1999/xlink" xmlns="http://www.w3.org/2000/svg">
<g>
<g transform="matrix(1.00,0.00,0.00,1.00,0.00,0.00)">
<g>
<g transform="matrix(1.00,0.00,0.00,1.00,0.00,0.00)">
<svg height="900" version="1.1" viewBox="0 0 1800 900" width="1800" xmlns:xlink="http://www.w3.org/1999/xlink" xmlns="http://www.w3.org/2000/svg">
<g>
<g>
<g stroke-dasharray="5.0 10.0" stroke-width="1.0" stroke="#caa">
<line x1="180.00" x2="180.00" y1="810.00" y2="90.00" />
<line x1="660.00" x2="660.00" y1="810.00" y2="90.00" />
<line x1="1140.00" x2="1140.00" y1="810.00" y2="90.00" />
<line x1="1620.00" x2="1620.00" y1="810.00" y2="90.00" />
<line x1="180.00" x2="1620.00" y1="810.00" y2="810.00" />
<line x1="180.00" x2="1620.00" y1="173.78" y2="173.78" />
</g>
<g>
<text dominant-baseline="hanging" dx="-50.0" dy="50.0" fill="#0004" font-family="Arial, sans-serif" font-size="50" stroke-width="1.6666666666666667" stroke="none" text-anchor="end" text="d18O Hist - Rain weighted" x="1620.00" y="155.45">d18O Hist - Rain weighted</text>
</g>
<g>
<text dominant-baseline="hanging" dx="25.0" dy="75.0" fill="#aa8800" font-size="25.0" font-style="italic" stroke-width="0.5" text-anchor="beginning" text="SUMMER MONSOON" x="181.44" y="90.07">SUMMER MONSOON</text>
</g>
<g>
<text dominant-baseline="hanging" dx="25.0" dy="108.33333333333334" fill="#00aa88" font-size="25.0" font-style="italic" stroke-width="0.5" text-anchor="beginning" text="WINTER MONSOON" x="181.44" y="90.07">WINTER MONSOON</text>
</g>
<g>
<text dominant-baseline="hanging" dx="25.0" dy="141.66666666666669" fill="#0004" font-size="25.0" font-style="italic" stroke-width="0.5" text-anchor="beginning" text="TOTAL" x="181.44" y="90.07">TOTAL</text>
</g>
<g>
<text dominant-baseline="text-bottom" dy="-12.5" fill="black" font-family="Arial, sans-serif" font-size="25.0" font-style="italic" stroke="none" text-anchor="middle" text="d18O" x="900.00" y="90.72">d18O</text>
</g>
<g>
<text dominant-baseline="hanging" dx="25.0" dy="25.0" fill="black" font-family="Arial, sans-serif" font-size="25.0" font-style="italic" stroke="none" text-anchor="beginning" text-orientation="sideways" text="Rain (mm) per bin" x="180.00" y="90.72">Rain (mm) per bin</text>
</g>
<g fill="#0000" stroke-width="15" stroke="#0002">
<line x1="1128.00" x2="1128.00" y1="773.48" y2="810.00" />
<line x1="744.00" x2="744.00" y1="668.70" y2="810.00" />
<line x1="936.00" x2="936.00" y1="230.97" y2="810.00" />
<line x1="720.00" x2="720.00" y1="570.14" y2="810.00" />
<line x1="1032.00" x2="1032.00" y1="492.59" y2="810.00" />
<line x1="696.00" x2="696.00" y1="645.85" y2="810.00" />
<line x1="912.00" x2="912.00" y1="323.10" y2="810.00" />
<line x1="672.00" x2="672.00" y1="781.37" y2="810.00" />
<line x1="1200.00" x2="1200.00" y1="772.78" y2="810.00" />
<line x1="1080.00" x2="1080.00" y1="628.55" y2="810.00" />
<line x1="648.00" x2="648.00" y1="663.22" y2="810.00" />
<line x1="888.00" x2="888.00" y1="206.67" y2="810.00" />
<line x1="624.00" x2="624.00" y1="724.75" y2="810.00" />
<line x1="1272.00" x2="1272.00" y1="781.75" y2="810.00" />
<line x1="1008.00" x2="1008.00" y1="601.64" y2="810.00" />
<line x1="600.00" x2="600.00" y1="779.46" y2="810.00" />
<line x1="864.00" x2="864.00" y1="426.55" y2="810.00" />
<line x1="576.00" x2="576.00" y1="659.92" y2="810.00" />
<line x1="1104.00" x2="1104.00" y1="693.38" y2="810.00" />
<line x1="552.00" x2="552.00" y1="790.28" y2="810.00" />
<line x1="840.00" x2="840.00" y1="218.63" y2="810.00" />
<line x1="528.00" x2="528.00" y1="767.37" y2="810.00" />
<line x1="984.00" x2="984.00" y1="398.36" y2="810.00" />
<line x1="504.00" x2="504.00" y1="784.93" y2="810.00" />
<line x1="816.00" x2="816.00" y1="561.87" y2="810.00" />
<line x1="480.00" x2="480.00" y1="777.30" y2="810.00" />
<line x1="1056.00" x2="1056.00" y1="690.20" y2="810.00" />
<line x1="456.00" x2="456.00" y1="779.33" y2="810.00" />
<line x1="792.00" x2="792.00" y1="520.58" y2="810.00" />
<line x1="432.00" x2="432.00" y1="728.31" y2="810.00" />
<line x1="960.00" x2="960.00" y1="155.45" y2="810.00" />
<line x1="408.00" x2="408.00" y1="687.72" y2="810.00" />
<line x1="768.00" x2="768.00" y1="572.56" y2="810.00" />
<line x1="360.00" x2="360.00" y1="759.61" y2="810.00" />
<line x1="312.00" x2="312.00" y1="765.46" y2="810.00" />
<line x1="216.00" x2="216.00" y1="730.41" y2="810.00" />
</g>
<g stroke="black">
<line x1="180.00" x2="180.00" y1="810.00" y2="820.00" />
<line x1="660.00" x2="660.00" y1="810.00" y2="820.00" />
<line x1="1140.00" x2="1140.00" y1="810.00" y2="820.00" />
<line x1="1620.00" x2="1620.00" y1="810.00" y2="820.00" />
<g fill="black" font-family="Arial, sans-serif" font-size="25.0" stroke="none" text-anchor="start" transform="translate(12.5 0.0)">
<text x="180.00" y="838.57">-20</text>
<text x="660.00" y="838.57">-10</text>
<text x="1140.00" y="838.57">0</text>
<text x="1620.00" y="838.57">10</text>
</g>
<line x1="180.00" x2="1620.00" y1="810.00" y2="810.00" />
</g>
<g stroke="black">
<line x1="180.00" x2="163.33" y1="810.00" y2="810.00" />
<line x1="180.00" x2="163.33" y1="173.78" y2="173.78" />
<g fill="black" font-family="Arial, sans-serif" font-size="25.0" stroke="none" text-anchor="end">
<text x="167.50" y="797.50">0</text>
<text x="167.50" y="161.28">1000</text>
</g>
<line x1="180.00" x2="180.00" y1="810.00" y2="90.00" />
</g>
</g>
<g>
<g stroke-dasharray="5.0 10.0" stroke-width="1.0" stroke="#caa">
<line x1="180.00" x2="180.00" y1="810.00" y2="90.00" />
<line x1="660.00" x2="660.00" y1="810.00" y2="90.00" />
<line x1="1140.00" x2="1140.00" y1="810.00" y2="90.00" />
<line x1="1620.00" x2="1620.00" y1="810.00" y2="90.00" />
<line x1="180.00" x2="1620.00" y1="810.00" y2="810.00" />
<line x1="180.00" x2="1620.00" y1="173.78" y2="173.78" />
</g>
<g>
<text dominant-baseline="hanging" dx="-50.0" dy="50.0" fill="#0004" font-family="Arial, sans-serif" font-size="50" stroke-width="1.6666666666666667" stroke="none" text-anchor="end" text="d18O Hist - Rain weighted" x="1620.00" y="155.45">d18O Hist - Rain weighted</text>
</g>
<g>
<text dominant-baseline="hanging" dx="25.0" dy="75.0" fill="#aa8800" font-size="25.0" font-style="italic" stroke-width="0.5" text-anchor="beginning" text="SUMMER MONSOON" x="181.44" y="90.07">SUMMER MONSOON</text>
</g>
<g>
<text dominant-baseline="hanging" dx="25.0" dy="108.33333333333334" fill="#00aa88" font-size="25.0" font-style="italic" stroke-width="0.5" text-anchor="beginning" text="WINTER MONSOON" x="181.44" y="90.07">WINTER MONSOON</text>
</g>
<g>
<text dominant-baseline="hanging" dx="25.0" dy="141.66666666666669" fill="#0004" font-size="25.0" font-style="italic" stroke-width="0.5" text-anchor="beginning" text="TOTAL" x="181.44" y="90.07">TOTAL</text>
</g>
<g>
<text dominant-baseline="text-bottom" dy="-12.5" fill="black" font-family="Arial, sans-serif" font-size="25.0" font-style="italic" stroke="none" text-anchor="middle" text="d18O" x="900.00" y="90.72">d18O</text>
</g>
<g>
<text dominant-baseline="hanging" dx="25.0" dy="25.0" fill="black" font-family="Arial, sans-serif" font-size="25.0" font-style="italic" stroke="none" text-anchor="beginning" text-orientation="sideways" text="Rain (mm) per bin" x="180.00" y="90.72">Rain (mm) per bin</text>
</g>
<g fill="none" opacity="0.5" stroke-width="15" stroke="#aa8800">
<line x1="1195.20" x2="1195.20" y1="772.78" y2="810.00" />
<line x1="1123.20" x2="1123.20" y1="782.01" y2="810.00" />
<line x1="667.20" x2="667.20" y1="778.83" y2="810.00" />
<line x1="691.20" x2="691.20" y1="787.73" y2="810.00" />
<line x1="715.20" x2="715.20" y1="767.12" y2="810.00" />
<line x1="739.20" x2="739.20" y1="763.43" y2="810.00" />
<line x1="643.20" x2="643.20" y1="780.22" y2="810.00" />
<line x1="499.20" x2="499.20" y1="784.93" y2="810.00" />
<line x1="523.20" x2="523.20" y1="767.37" y2="810.00" />
<line x1="859.20" x2="859.20" y1="511.87" y2="810.00" />
<line x1="883.20" x2="883.20" y1="663.73" y2="810.00" />
<line x1="907.20" x2="907.20" y1="526.88" y2="810.00" />
<line x1="931.20" x2="931.20" y1="557.80" y2="810.00" />
<line x1="763.20" x2="763.20" y1="639.37" y2="810.00" />
<line x1="787.20" x2="787.20" y1="652.79" y2="810.00" />
<line x1="811.20" x2="811.20" y1="771.70" y2="810.00" />
<line x1="835.20" x2="835.20" y1="571.48" y2="810.00" />
<line x1="1147.20" x2="1147.20" y1="773.48" y2="810.00" />
<line x1="1099.20" x2="1099.20" y1="724.17" y2="810.00" />
<line x1="1051.20" x2="1051.20" y1="733.46" y2="810.00" />
<line x1="1075.20" x2="1075.20" y1="732.83" y2="810.00" />
<line x1="955.20" x2="955.20" y1="395.88" y2="810.00" />
<line x1="979.20" x2="979.20" y1="531.84" y2="810.00" />
<line x1="1003.20" x2="1003.20" y1="710.62" y2="810.00" />
<line x1="1027.20" x2="1027.20" y1="642.29" y2="810.00" />
</g>
<g stroke="black">
<line x1="180.00" x2="180.00" y1="810.00" y2="820.00" />
<line x1="660.00" x2="660.00" y1="810.00" y2="820.00" />
<line x1="1140.00" x2="1140.00" y1="810.00" y2="820.00" />
<line x1="1620.00" x2="1620.00" y1="810.00" y2="820.00" />
<g fill="black" font-family="Arial, sans-serif" font-size="25.0" stroke="none" text-anchor="start" transform="translate(12.5 0.0)">
<text x="180.00" y="838.57">-20</text>
<text x="660.00" y="838.57">-10</text>
<text x="1140.00" y="838.57">0</text>
<text x="1620.00" y="838.57">10</text>
</g>
<line x1="180.00" x2="1620.00" y1="810.00" y2="810.00" />
</g>
<g stroke="black">
<line x1="180.00" x2="163.33" y1="810.00" y2="810.00" />
<line x1="180.00" x2="163.33" y1="173.78" y2="173.78" />
<g fill="black" font-family="Arial, sans-serif" font-size="25.0" stroke="none" text-anchor="end">
<text x="167.50" y="797.50">0</text>
<text x="167.50" y="161.28">1000</text>
</g>
<line x1="180.00" x2="180.00" y1="810.00" y2="90.00" />
</g>
</g>
<g>
<g stroke-dasharray="5.0 10.0" stroke-width="1.0" stroke="#caa">
<line x1="180.00" x2="180.00" y1="810.00" y2="90.00" />
<line x1="660.00" x2="660.00" y1="810.00" y2="90.00" />
<line x1="1140.00" x2="1140.00" y1="810.00" y2="90.00" />
<line x1="1620.00" x2="1620.00" y1="810.00" y2="90.00" />
<line x1="180.00" x2="1620.00" y1="810.00" y2="810.00" />
<line x1="180.00" x2="1620.00" y1="173.78" y2="173.78" />
</g>
<g>
<text dominant-baseline="hanging" dx="-50.0" dy="50.0" fill="#0004" font-family="Arial, sans-serif" font-size="50" stroke-width="1.6666666666666667" stroke="none" text-anchor="end" text="d18O Hist - Rain weighted" x="1620.00" y="155.45">d18O Hist - Rain weighted</text>
</g>
<g>
<text dominant-baseline="hanging" dx="25.0" dy="75.0" fill="#aa8800" font-size="25.0" font-style="italic" stroke-width="0.5" text-anchor="beginning" text="SUMMER MONSOON" x="181.44" y="90.07">SUMMER MONSOON</text>
</g>
<g>
<text dominant-baseline="hanging" dx="25.0" dy="108.33333333333334" fill="#00aa88" font-size="25.0" font-style="italic" stroke-width="0.5" text-anchor="beginning" text="WINTER MONSOON" x="181.44" y="90.07">WINTER MONSOON</text>
</g>
<g>
<text dominant-baseline="hanging" dx="25.0" dy="141.66666666666669" fill="#0004" font-size="25.0" font-style="italic" stroke-width="0.5" text-anchor="beginning" text="TOTAL" x="181.44" y="90.07">TOTAL</text>
</g>
<g>
<text dominant-baseline="text-bottom" dy="-12.5" fill="black" font-family="Arial, sans-serif" font-size="25.0" font-style="italic" stroke="none" text-anchor="middle" text="d18O" x="900.00" y="90.72">d18O</text>
</g>
<g>
<text dominant-baseline="hanging" dx="25.0" dy="25.0" fill="black" font-family="Arial, sans-serif" font-size="25.0" font-style="italic" stroke="none" text-anchor="beginning" text-orientation="sideways" text="Rain (mm) per bin" x="180.00" y="90.72">Rain (mm) per bin</text>
</g>
<g fill="none" opacity="0.5" stroke-width="15" stroke="#00aa88">
<line x1="436.80" x2="436.80" y1="720.17" y2="810.00" />
<line x1="412.80" x2="412.80" y1="665.20" y2="810.00" />
<line x1="556.80" x2="556.80" y1="732.83" y2="810.00" />
<line x1="484.80" x2="484.80" y1="777.30" y2="810.00" />
<line x1="652.80" x2="652.80" y1="750.89" y2="810.00" />
<line x1="628.80" x2="628.80" y1="738.17" y2="810.00" />
<line x1="604.80" x2="604.80" y1="739.32" y2="810.00" />
<line x1="580.80" x2="580.80" y1="717.37" y2="810.00" />
<line x1="748.80" x2="748.80" y1="740.59" y2="810.00" />
<line x1="724.80" x2="724.80" y1="639.49" y2="810.00" />
<line x1="700.80" x2="700.80" y1="696.88" y2="810.00" />
<line x1="676.80" x2="676.80" y1="752.61" y2="810.00" />
<line x1="220.80" x2="220.80" y1="730.41" y2="810.00" />
<line x1="364.80" x2="364.80" y1="759.61" y2="810.00" />
<line x1="292.80" x2="292.80" y1="765.46" y2="810.00" />
<line x1="844.80" x2="844.80" y1="563.15" y2="810.00" />
<line x1="820.80" x2="820.80" y1="580.83" y2="810.00" />
<line x1="796.80" x2="796.80" y1="698.28" y2="810.00" />
<line x1="772.80" x2="772.80" y1="670.92" y2="810.00" />
<line x1="940.80" x2="940.80" y1="497.04" y2="810.00" />
<line x1="916.80" x2="916.80" y1="587.45" y2="810.00" />
<line x1="892.80" x2="892.80" y1="570.27" y2="810.00" />
<line x1="868.80" x2="868.80" y1="358.73" y2="810.00" />
<line x1="1036.80" x2="1036.80" y1="741.92" y2="810.00" />
<line x1="1012.80" x2="1012.80" y1="596.10" y2="810.00" />
<line x1="988.80" x2="988.80" y1="735.56" y2="810.00" />
<line x1="964.80" x2="964.80" y1="600.68" y2="810.00" />
<line x1="1084.80" x2="1084.80" y1="789.39" y2="810.00" />
<line x1="1060.80" x2="1060.80" y1="725.26" y2="810.00" />
<line x1="1108.80" x2="1108.80" y1="765.02" y2="810.00" />
<line x1="1252.80" x2="1252.80" y1="781.75" y2="810.00" />
</g>
<g stroke="black">
<line x1="180.00" x2="180.00" y1="810.00" y2="820.00" />
<line x1="660.00" x2="660.00" y1="810.00" y2="820.00" />
<line x1="1140.00" x2="1140.00" y1="810.00" y2="820.00" />
<line x1="1620.00" x2="1620.00" y1="810.00" y2="820.00" />
<g fill="black" font-family="Arial, sans-serif" font-size="25.0" stroke="none" text-anchor="start" transform="translate(12.5 0.0)">
<text x="180.00" y="838.57">-20</text>
<text x="660.00" y="838.57">-10</text>
<text x="1140.00" y="838.57">0</text>
<text x="1620.00" y="838.57">10</text>
</g>
<line x1="180.00" x2="1620.00" y1="810.00" y2="810.00" />
</g>
<g stroke="black">
<line x1="180.00" x2="163.33" y1="810.00" y2="810.00" />
<line x1="180.00" x2="163.33" y1="173.78" y2="173.78" />
<g fill="black" font-family="Arial, sans-serif" font-size="25.0" stroke="none" text-anchor="end">
<text x="167.50" y="797.50">0</text>
<text x="167.50" y="161.28">1000</text>
</g>
<line x1="180.00" x2="180.00" y1="810.00" y2="90.00" />
</g>
</g>
<g>
<g>
<text dominant-baseline="hanging" dx="-25.0" dy="25.0" fill="#0088" font-family="Arial, sans-serif" font-size="25.0" font-style="italic" stroke="none" text-anchor="end" text-orientation="sideways" text="eCDF (fraction of rain heavier than given amount)" x="1620.00" y="90.00">eCDF (fraction of rain heavier than given amount)</text>
</g>
<polyline fill="none" points="1449.35,801.43 1449.35,793.01 1414.85,793.01 1414.85,786.56 1394.84,786.56 1394.84,781.70 1387.79,781.70 1387.79,776.51 1383.60,776.51 1383.60,771.78 1383.36,771.78 1383.36,766.79 1374.28,766.79 1374.28,762.06 1370.31,762.06 1370.31,755.61 1355.86,755.61 1355.86,749.01 1344.25,749.01 1344.25,744.26 1337.52,744.26 1337.52,736.10 1332.26,736.10 1332.26,731.38 1310.63,731.38 1310.63,722.00 1302.17,722.00 1302.17,714.91 1300.30,714.91 1300.30,704.68 1288.26,704.68 1288.26,700.16 1283.10,700.16 1283.10,692.75 1270.65,692.75 1270.65,685.09 1260.91,685.09 1260.91,675.22 1254.09,675.22 1254.09,669.85 1245.72,669.85 1245.72,664.30 1245.09,664.30 1245.09,659.43 1244.44,659.43 1244.44,654.07 1241.81,654.07 1241.81,646.47 1241.81,646.47 1241.81,636.60 1233.43,636.60 1233.43,632.18 1232.64,632.18 1232.64,617.70 1228.70,617.70 1228.70,611.22 1215.59,611.22 1215.59,605.77 1212.32,605.77 1212.32,597.68 1209.04,597.68 1209.04,591.70 1209.04,591.70 1209.04,587.22 1209.03,587.22 1209.03,582.47 1202.76,582.47 1202.76,570.80 1201.83,570.80 1201.83,565.58 1201.17,565.58 1201.17,560.31 1201.10,560.31 1201.10,553.56 1199.21,553.56 1199.21,544.42 1195.40,544.42 1195.40,538.56 1194.62,538.56 1194.62,531.17 1193.31,531.17 1193.31,518.08 1190.69,518.08 1190.69,510.37 1179.54,510.37 1179.54,500.90 1176.27,500.90 1176.27,496.48 1174.70,496.48 1174.70,491.41 1169.71,491.41 1169.71,485.92 1169.16,485.92 1169.16,477.97 1163.81,477.97 1163.81,472.42 1161.64,472.42 1161.64,467.34 1160.92,467.34 1160.92,460.39 1157.26,460.39 1157.26,452.27 1145.34,452.27 1145.34,441.53 1144.70,441.53 1144.70,423.78 1143.50,423.78 1143.50,416.83 1138.38,416.83 1138.38,411.20 1134.97,411.20 1134.97,401.62 1125.58,401.62 1125.58,396.87 1117.28,396.87 1117.28,387.05 1115.70,387.05 1115.70,380.72 1110.72,380.72 1110.72,375.28 1104.17,375.28 1104.17,366.13 1095.86,366.13 1095.86,353.35 1081.88,353.35 1081.88,339.55 1076.64,339.55 1076.64,335.03 1075.37,335.03 1075.37,328.50 1071.40,328.50 1071.40,322.54 1066.02,322.54 1066.02,309.94 1053.70,309.94 1053.70,302.58 1051.73,302.58 1051.73,293.64 1051.73,293.64 1051.73,284.67 1048.46,284.67 1048.46,279.81 1041.64,279.81 1041.64,274.16 1040.59,274.16 1040.59,264.58 1037.97,264.58 1037.97,254.49 1031.42,254.49 1031.42,234.33 1030.10,234.33 1030.10,229.72 999.26,229.72 999.26,220.90 986.06,220.90 986.06,213.94 971.12,213.94 971.12,207.46 967.84,207.46 967.84,199.31 960.63,199.31 960.63,194.50 957.35,194.50 957.35,189.90 953.42,189.90 953.42,184.68 942.93,184.68 942.93,174.13 933.83,174.13 933.83,163.43 933.76,163.43 933.76,157.30 920.65,157.30 920.65,145.37 918.02,145.37 918.02,140.74 887.87,140.74 887.87,134.64 879.35,134.64 879.35,124.77 838.72,124.77 838.72,119.64 795.98,119.64 795.98,112.45 765.96,112.45 765.96,105.59 612.04,105.59 612.04,95.77 586.37,95.77 586.37,90.00 586.37,90.00 586.37,90.00" stroke-width="3.6" stroke="#aa8800" />
<polyline fill="none" points="1403.57,804.81 1403.57,801.11 1393.87,801.11 1393.87,796.55 1370.74,796.55 1370.74,792.77 1359.25,792.77 1359.25,789.01 1356.23,789.01 1356.23,785.15 1344.06,785.15 1344.06,781.18 1327.67,781.18 1327.67,777.21 1315.88,777.21 1315.88,771.09 1300.80,771.09 1300.80,764.71 1293.88,764.71 1293.88,760.73 1293.59,760.73 1293.59,756.92 1287.69,756.92 1287.69,743.81 1281.14,743.81 1281.14,740.28 1276.55,740.28 1276.55,734.07 1274.58,734.07 1274.58,730.25 1261.47,730.25 1261.47,725.44 1250.69,725.44 1250.69,720.86 1241.81,720.86 1241.81,711.77 1223.46,711.77 1223.46,700.86 1221.24,700.86 1221.24,692.79 1219.27,692.79 1219.27,688.49 1213.43,688.49 1213.43,681.58 1212.71,681.58 1212.71,677.92 1202.49,677.92 1202.49,673.34 1192.78,673.34 1192.78,664.73 1192.65,664.73 1192.65,661.06 1188.72,661.06 1188.72,649.52 1188.07,649.52 1188.07,644.49 1188.07,644.49 1188.07,638.12 1185.44,638.12 1185.44,634.49 1182.82,634.49 1182.82,625.74 1181.80,625.74 1181.80,620.96 1164.47,620.96 1164.47,615.87 1158.95,615.87 1158.95,612.11 1156.60,612.11 1156.60,605.56 1156.60,605.56 1156.60,601.05 1148.08,601.05 1148.08,596.80 1144.81,596.80 1144.81,591.10 1140.87,591.10 1140.87,583.15 1140.73,583.15 1140.73,579.56 1132.30,579.56 1132.30,575.01 1128.03,575.01 1128.03,569.19 1124.16,569.19 1124.16,563.28 1123.83,563.28 1123.83,559.76 1123.83,559.76 1123.83,555.81 1119.81,555.81 1119.81,552.07 1112.69,552.07 1112.69,547.61 1109.84,547.61 1109.84,543.80 1104.82,543.80 1104.82,539.71 1104.17,539.71 1104.17,534.85 1104.17,534.85 1104.17,530.99 1097.61,530.99 1097.61,523.06 1096.96,523.06 1096.96,518.97 1095.65,518.97 1095.65,514.21 1094.34,514.21 1094.34,505.26 1093.68,505.26 1093.68,500.52 1091.72,500.52 1091.72,491.83 1091.72,491.83 1091.72,484.44 1091.06,484.44 1091.06,479.71 1088.56,479.71 1088.56,470.02 1087.13,470.02 1087.13,465.93 1077.44,465.93 1077.44,462.41 1071.40,462.41 1071.40,454.16 1068.45,454.16 1068.45,448.14 1058.64,448.14 1058.64,443.91 1057.63,443.91 1057.63,440.24 1057.43,440.24 1057.43,436.41 1056.32,436.41 1056.32,432.31 1051.73,432.31 1051.73,427.87 1045.18,427.87 1045.18,422.92 1040.98,422.92 1040.98,412.53 1039.94,412.53 1039.94,402.81 1027.37,402.81 1027.37,399.26 1023.55,399.26 1023.55,395.43 1020.27,395.43 1020.27,391.29 1018.96,391.29 1018.96,383.23 1013.49,383.23 1013.49,377.74 1006.85,377.74 1006.85,368.51 1001.27,368.51 1001.27,364.66 999.95,364.66 999.95,360.73 985.53,360.73 985.53,356.72 974.39,356.72 974.39,353.00 972.36,353.00 972.36,344.99 967.51,344.99 967.51,340.22 965.87,340.22 965.87,328.63 959.22,328.63 959.22,323.72 937.03,323.72 937.03,319.63 934.41,319.63 934.41,314.69 921.30,314.69 921.30,310.60 919.65,310.60 919.65,306.99 912.78,306.99 912.78,301.94 891.15,301.94 891.15,296.98 889.84,296.98 889.84,292.96 881.32,292.96 881.32,281.26 878.58,281.26 878.58,270.63 855.76,270.63 855.76,266.80 840.15,266.80 840.15,263.06 840.03,263.06 840.03,255.31 839.98,255.31 839.98,249.86 830.20,249.86 830.20,244.58 809.88,244.58 809.88,239.33 791.52,239.33 791.52,232.15 788.90,232.15 788.90,228.47 767.93,228.47 767.93,223.57 759.04,223.57 759.04,220.05 750.89,220.05 750.89,215.29 733.46,215.29 733.46,207.91 715.49,207.91 715.49,202.31 689.93,202.31 689.93,192.07 687.13,192.07 687.13,185.30 670.27,185.30 670.27,181.46 665.03,181.46 665.03,174.75 650.76,174.75 650.76,171.13 564.65,171.13 564.65,165.12 504.44,165.12 504.44,159.49 500.51,159.49 500.51,148.63 468.39,148.63 468.39,144.50 467.74,144.50 467.74,137.32 455.94,137.32 455.94,122.04 394.98,122.04 394.98,112.79 304.53,112.79 304.53,104.61 180.00,104.61 180.00,90.00 180.00,90.00 180.00,90.00" stroke-width="3.6" stroke="#00aa88" />
<polyline fill="none" points="1527.08,807.11 1527.08,803.31 1449.35,803.31 1449.35,799.58 1414.85,799.58 1414.85,796.72 1403.57,796.72 1403.57,794.66 1394.84,794.66 1394.84,792.50 1393.87,792.50 1393.87,789.97 1387.79,789.97 1387.79,787.66 1383.60,787.66 1383.60,785.56 1383.36,785.56 1383.36,783.35 1374.28,783.35 1374.28,781.25 1370.74,781.25 1370.74,779.15 1370.31,779.15 1370.31,776.29 1359.25,776.29 1359.25,774.19 1356.23,774.19 1356.23,772.05 1355.86,772.05 1355.86,769.12 1344.25,769.12 1344.25,767.02 1344.06,767.02 1344.06,764.81 1337.52,764.81 1337.52,761.19 1332.26,761.19 1332.26,759.09 1327.67,759.09 1327.67,756.88 1315.88,756.88 1315.88,753.48 1310.63,753.48 1310.63,749.32 1302.17,749.32 1302.17,746.17 1300.80,746.17 1300.80,742.62 1300.30,742.62 1300.30,738.08 1293.88,738.08 1293.88,735.87 1293.59,735.87 1293.59,733.75 1288.26,733.75 1288.26,731.75 1287.69,731.75 1287.69,724.45 1283.10,724.45 1283.10,721.16 1281.14,721.16 1281.14,719.20 1276.55,719.20 1276.55,715.74 1274.58,715.74 1274.58,713.62 1270.65,713.62 1270.65,710.22 1261.47,710.22 1261.47,707.54 1260.91,707.54 1260.91,703.16 1254.09,703.16 1254.09,700.78 1250.69,700.78 1250.69,698.24 1245.72,698.24 1245.72,695.77 1245.09,695.77 1245.09,693.61 1244.44,693.61 1244.44,691.23 1241.81,691.23 1241.81,687.87 1241.81,687.87 1241.81,683.49 1241.81,683.49 1241.81,678.43 1233.43,678.43 1233.43,676.47 1232.64,676.47 1232.64,670.05 1228.70,670.05 1228.70,667.18 1223.46,667.18 1223.46,661.10 1221.24,661.10 1221.24,656.61 1219.27,656.61 1219.27,654.22 1215.59,654.22 1215.59,651.80 1213.43,651.80 1213.43,647.96 1212.71,647.96 1212.71,645.92 1212.32,645.92 1212.32,642.33 1209.04,642.33 1209.04,639.68 1209.04,639.68 1209.04,637.69 1209.03,637.69 1209.03,635.58 1202.76,635.58 1202.76,630.41 1202.49,630.41 1202.49,627.86 1201.83,627.86 1201.83,625.55 1201.17,625.55 1201.17,623.21 1201.10,623.21 1201.10,620.21 1199.21,620.21 1199.21,616.16 1195.40,616.16 1195.40,613.56 1194.62,613.56 1194.62,610.28 1193.31,610.28 1193.31,604.48 1192.78,604.48 1192.78,599.69 1192.65,599.69 1192.65,597.64 1190.69,597.64 1190.69,594.23 1188.72,594.23 1188.72,587.80 1188.07,587.80 1188.07,585.01 1188.07,585.01 1188.07,581.46 1185.44,581.46 1185.44,579.44 1182.82,579.44 1182.82,574.57 1181.80,574.57 1181.80,571.91 1179.54,571.91 1179.54,567.71 1176.27,567.71 1176.27,565.75 1174.70,565.75 1174.70,563.50 1169.71,563.50 1169.71,561.07 1169.16,561.07 1169.16,557.54 1164.47,557.54 1164.47,554.71 1163.81,554.71 1163.81,552.25 1161.64,552.25 1161.64,550.00 1160.92,550.00 1160.92,546.91 1158.95,546.91 1158.95,544.82 1157.26,544.82 1157.26,541.22 1156.60,541.22 1156.60,537.57 1156.60,537.57 1156.60,535.06 1148.08,535.06 1148.08,532.70 1145.34,532.70 1145.34,527.93 1144.81,527.93 1144.81,524.76 1144.70,524.76 1144.70,516.89 1143.50,516.89 1143.50,513.81 1140.87,513.81 1140.87,509.39 1140.73,509.39 1140.73,507.38 1138.38,507.38 1138.38,504.89 1134.97,504.89 1134.97,500.64 1132.30,500.64 1132.30,498.11 1128.03,498.11 1128.03,494.87 1125.58,494.87 1125.58,492.76 1124.16,492.76 1124.16,489.47 1123.83,489.47 1123.83,487.51 1123.83,487.51 1123.83,485.31 1119.81,485.31 1119.81,483.23 1117.28,483.23 1117.28,478.88 1115.70,478.88 1115.70,476.07 1112.69,476.07 1112.69,473.59 1110.72,473.59 1110.72,471.18 1109.84,471.18 1109.84,469.06 1104.82,469.06 1104.82,466.78 1104.17,466.78 1104.17,462.72 1104.17,462.72 1104.17,460.02 1104.17,460.02 1104.17,457.88 1097.61,457.88 1097.61,453.46 1096.96,453.46 1096.96,451.19 1095.86,451.19 1095.86,445.52 1095.65,445.52 1095.65,442.87 1094.34,442.87 1094.34,437.89 1093.68,437.89 1093.68,435.25 1091.72,435.25 1091.72,430.41 1091.72,430.41 1091.72,426.30 1091.06,426.30 1091.06,423.67 1088.56,423.67 1088.56,418.27 1087.13,418.27 1087.13,416.00 1081.88,416.00 1081.88,409.88 1077.44,409.88 1077.44,407.92 1076.64,407.92 1076.64,405.92 1075.37,405.92 1075.37,403.02 1071.40,403.02 1071.40,398.43 1071.40,398.43 1071.40,395.79 1068.45,395.79 1068.45,392.43 1066.02,392.43 1066.02,386.84 1058.64,386.84 1058.64,384.49 1057.63,384.49 1057.63,382.45 1057.43,382.45 1057.43,380.32 1056.32,380.32 1056.32,378.04 1053.70,378.04 1053.70,374.77 1051.73,374.77 1051.73,372.30 1051.73,372.30 1051.73,368.34 1051.73,368.34 1051.73,364.36 1048.46,364.36 1048.46,362.20 1045.18,362.20 1045.18,359.44 1041.64,359.44 1041.64,356.94 1040.98,356.94 1040.98,351.16 1040.59,351.16 1040.59,346.91 1039.94,346.91 1039.94,341.50 1037.97,341.50 1037.97,337.03 1031.42,337.03 1031.42,328.08 1030.10,328.08 1030.10,326.04 1027.37,326.04 1027.37,324.07 1023.55,324.07 1023.55,321.93 1020.27,321.93 1020.27,319.63 1018.96,319.63 1018.96,315.15 1013.49,315.15 1013.49,312.09 1006.85,312.09 1006.85,306.96 1001.27,306.96 1001.27,304.81 999.95,304.81 999.95,302.63 999.26,302.63 999.26,298.71 986.06,298.71 986.06,295.63 985.53,295.63 985.53,293.39 974.39,293.39 974.39,291.32 972.36,291.32 972.36,286.86 971.12,286.86 971.12,283.99 967.84,283.99 967.84,280.38 967.51,280.38 967.51,277.72 965.87,277.72 965.87,271.28 960.63,271.28 960.63,269.14 959.22,269.14 959.22,266.41 957.35,266.41 957.35,264.37 953.42,264.37 953.42,262.05 942.93,262.05 942.93,257.37 937.03,257.37 937.03,255.10 934.41,255.10 934.41,252.35 933.83,252.35 933.83,247.60 933.76,247.60 933.76,244.88 921.30,244.88 921.30,242.61 920.65,242.61 920.65,237.32 919.65,237.32 919.65,235.31 918.02,235.31 918.02,233.25 912.78,233.25 912.78,230.45 891.15,230.45 891.15,227.68 889.84,227.68 889.84,225.45 887.87,225.45 887.87,222.74 881.32,222.74 881.32,216.24 879.35,216.24 879.35,211.85 878.58,211.85 878.58,205.94 855.76,205.94 855.76,203.81 840.15,203.81 840.15,201.73 840.03,201.73 840.03,197.41 839.98,197.41 839.98,194.38 838.72,194.38 838.72,192.10 830.20,192.10 830.20,189.17 809.88,189.17 809.88,186.24 795.98,186.24 795.98,183.06 791.52,183.06 791.52,179.06 788.90,179.06 788.90,177.02 767.93,177.02 767.93,174.29 765.96,174.29 765.96,171.24 759.04,171.24 759.04,169.29 750.89,169.29 750.89,166.64 733.46,166.64 733.46,162.53 715.49,162.53 715.49,159.41 689.93,159.41 689.93,153.72 687.13,153.72 687.13,149.95 670.27,149.95 670.27,147.81 665.03,147.81 665.03,144.08 650.76,144.08 650.76,142.06 612.04,142.06 612.04,137.71 586.37,137.71 586.37,135.15 564.65,135.15 564.65,131.81 504.44,131.81 504.44,128.67 500.51,128.67 500.51,122.63 468.39,122.63 468.39,120.33 467.74,120.33 467.74,116.33 455.94,116.33 455.94,107.83 394.98,107.83 394.98,102.68 304.53,102.68 304.53,98.13 180.00,98.13 180.00,90.00 180.00,90.00 180.00,90.00" stroke-width="3.6" stroke="#0007" />
<g stroke="#0088">
<line x1="1620.00" x2="1636.67" y1="810.00" y2="810.00" />
<line x1="1620.00" x2="1636.67" y1="90.00" y2="90.00" />
<g fill="#0088" font-family="Arial, sans-serif" font-size="25.0" stroke="none" text-anchor="beginning">
<text x="1632.50" y="797.50">0.0</text>
<text x="1632.50" y="77.50">1.0</text>
</g>
<line x1="1620.00" x2="1620.00" y1="810.00" y2="90.00" />
</g>
</g>
</g>
</svg>
</g>
</g>
</g>
</g>
</svg>