<?xml version="1.0"?>
<svg height="900" version="1.1" viewBox="0 0 1800 900" width="1800" xmlns:xlink="http://www.w3.org/1999/xlink" xmlns="http://www.w3.org/2000/svg">
<g>
<g transform="matrix(1.00,0.00,0.00,1.00,0.00,0.00)">
<g>
<g transform="matrix(1.00,0.00,0.00,1.00,0.00,0.00)">
<svg height="900" version="1.1" viewBox="0 0 1800 900" width="1800" xmlns:xlink="http://www.w3.org/1999/xlink" xmlns="http://www.w3.org/2000/svg">
<g>
<g>
<g stroke-dasharray="5.0 10.0" stroke-width="1.0" stroke="#caa">
<line x1="180.00" x2="180.00" y1="810.00" y2="90.00" />
<line x1="660.00" x2="660.00" y1="810.00" y2="90.00" />
<line x1="1140.00" x2="1140.00" y1="810.00" y2="90.00" />
<line x1="1620.00" x2="1620.00" y1="810.00" y2="90.00" />
<line x1="180.00" x2="1620.00" y1="810.00" y2="810.00" />
<line x1="180.00" x2="1620.00" y1="662.13" y2="662.13" />
<line x1="180.00" x2="1620.00" y1="514.26" y2="514.26" />
<line x1="180.00" x2="1620.00" y1="366.38" y2="366.38" />
<line x1="180.00" x2="1620.00" y1="218.51" y2="218.51" />
</g>
<g>
<text dominant-baseline="hanging" dx="-50.0" dy="50.0" fill="#0004" font-family="Arial, sans-serif" font-size="50" stroke-width="1.6666666666666667" stroke="none" text-anchor="end" text="d18O Hist - Index weighted" x="1620.00" y="155.45">d18O Hist - Index weighted</text>
</g>
<g>
<text dominant-baseline="hanging" dx="25.0" dy="75.0" fill="#aa8800" font-size="25.0" font-style="italic" stroke-width="0.5" text-anchor="beginning" text="SUMMER MONSOON" x="181.44" y="90.07">SUMMER MONSOON</text>
</g>
<g>
<text dominant-baseline="hanging" dx="25.0" dy="108.33333333333334" fill="#00aa88" font-size="25.0" font-style="italic" stroke-width="0.5" text-anchor="beginning" text="WINTER MONSOON" x="181.44" y="90.07">WINTER MONSOON</text>
</g>
<g>
<text dominant-baseline="text-bottom" dy="-12.5" fill="black" font-family="Arial, sans-serif" font-size="25.0" font-style="italic" stroke="none" text-anchor="middle" text="d18O" x="900.00" y="90.72">d18O</text>
</g>
<g>
<text dominant-baseline="hanging" dx="25.0" dy="25.0" fill="black" font-family="Arial, sans-serif" font-size="25.0" font-style="italic" stroke="none" text-anchor="beginning" text-orientation="sideways" text="Monsoon fraction per bin" x="180.00" y="90.72">Monsoon fraction per bin</text>
</g>
<g fill="none" opacity="0.5" stroke-width="15" stroke="#aa8800">
<line x1="1195.20" x2="1195.20" y1="596.97" y2="810.00" />
<line x1="1123.20" x2="1123.20" y1="792.64" y2="810.00" />
<line x1="667.20" x2="667.20" y1="739.76" y2="810.00" />
<line x1="691.20" x2="691.20" y1="799.87" y2="810.00" />
<line x1="715.20" x2="715.20" y1="772.34" y2="810.00" />
<line x1="739.20" x2="739.20" y1="763.30" y2="810.00" />
<line x1="643.20" x2="643.20" y1="733.48" y2="810.00" />
<line x1="499.20" x2="499.20" y1="753.86" y2="810.00" />
<line x1="523.20" x2="523.20" y1="767.31" y2="810.00" />
<line x1="859.20" x2="859.20" y1="447.65" y2="810.00" />
<line x1="883.20" x2="883.20" y1="565.54" y2="810.00" />
<line x1="907.20" x2="907.20" y1="428.61" y2="810.00" />
<line x1="931.20" x2="931.20" y1="209.83" y2="810.00" />
<line x1="763.20" x2="763.20" y1="540.41" y2="810.00" />
<line x1="787.20" x2="787.20" y1="522.75" y2="810.00" />
<line x1="811.20" x2="811.20" y1="586.96" y2="810.00" />
<line x1="835.20" x2="835.20" y1="597.39" y2="810.00" />
<line x1="1147.20" x2="1147.20" y1="768.90" y2="810.00" />
<line x1="1099.20" x2="1099.20" y1="612.07" y2="810.00" />
<line x1="1051.20" x2="1051.20" y1="701.02" y2="810.00" />
<line x1="1075.20" x2="1075.20" y1="592.32" y2="810.00" />
<line x1="955.20" x2="955.20" y1="155.45" y2="810.00" />
<line x1="979.20" x2="979.20" y1="363.88" y2="810.00" />
<line x1="1003.20" x2="1003.20" y1="702.81" y2="810.00" />
<line x1="1027.20" x2="1027.20" y1="536.68" y2="810.00" />
</g>
<g stroke="black">
<line x1="180.00" x2="180.00" y1="810.00" y2="820.00" />
<line x1="660.00" x2="660.00" y1="810.00" y2="820.00" />
<line x1="1140.00" x2="1140.00" y1="810.00" y2="820.00" />
<line x1="1620.00" x2="1620.00" y1="810.00" y2="820.00" />
<g fill="black" font-family="Arial, sans-serif" font-size="25.0" stroke="none" text-anchor="start" transform="translate(12.5 0.0)">
<text x="180.00" y="838.57">-20</text>
<text x="660.00" y="838.57">-10</text>
<text x="1140.00" y="838.57">0</text>
<text x="1620.00" y="838.57">10</text>
</g>
<line x1="180.00" x2="1620.00" y1="810.00" y2="810.00" />
</g>
<g stroke="black">
<line x1="180.00" x2="163.33" y1="810.00" y2="810.00" />
<line x1="180.00" x2="163.33" y1="662.13" y2="662.13" />
<line x1="180.00" x2="163.33" y1="514.26" y2="514.26" />
<line x1="180.00" x2="163.33" y1="366.38" y2="366.38" />
<line x1="180.00" x2="163.33" y1="218.51" y2="218.51" />
<g fill="black" font-family="Arial, sans-serif" font-size="25.0" stroke="none" text-anchor="end">
<text x="167.50" y="797.50">0.0</text>
<text x="167.50" y="649.63">0.1</text>
<text x="167.50" y="501.76">0.2</text>
<text x="167.50" y="353.88">0.3</text>
<text x="167.50" y="206.01">0.4</text>
</g>
<line x1="180.00" x2="180.00" y1="810.00" y2="90.00" />
</g>
</g>
<g>
<g stroke-dasharray="5.0 10.0" stroke-width="1.0" stroke="#caa">
<line x1="180.00" x2="180.00" y1="810.00" y2="90.00" />
<line x1="660.00" x2="660.00" y1="810.00" y2="90.00" />
<line x1="1140.00" x2="1140.00" y1="810.00" y2="90.00" />
<line x1="1620.00" x2="1620.00" y1="810.00" y2="90.00" />
<line x1="180.00" x2="1620.00" y1="810.00" y2="810.00" />
<line x1="180.00" x2="1620.00" y1="662.13" y2="662.13" />
<line x1="180.00" x2="1620.00" y1="514.26" y2="514.26" />
<line x1="180.00" x2="1620.00" y1="366.38" y2="366.38" />
<line x1="180.00" x2="1620.00" y1="218.51" y2="218.51" />
</g>
<g>
<text dominant-baseline="hanging" dx="-50.0" dy="50.0" fill="#0004" font-family="Arial, sans-serif" font-size="50" stroke-width="1.6666666666666667" stroke="none" text-anchor="end" text="d18O Hist - Index weighted" x="1620.00" y="155.45">d18O Hist - Index weighted</text>
</g>
<g>
<text dominant-baseline="hanging" dx="25.0" dy="75.0" fill="#aa8800" font-size="25.0" font-style="italic" stroke-width="0.5" text-anchor="beginning" text="SUMMER MONSOON" x="181.44" y="90.07">SUMMER MONSOON</text>
</g>
<g>
<text dominant-baseline="hanging" dx="25.0" dy="108.33333333333334" fill="#00aa88" font-size="25.0" font-style="italic" stroke-width="0.5" text-anchor="beginning" text="WINTER MONSOON" x="181.44" y="90.07">WINTER MONSOON</text>
</g>
<g>
<text dominant-baseline="text-bottom" dy="-12.5" fill="black" font-family="Arial, sans-serif" font-size="25.0" font-style="italic" stroke="none" text-anchor="middle" text="d18O" x="900.00" y="90.72">d18O</text>
</g>
<g>
<text dominant-baseline="hanging" dx="25.0" dy="25.0" fill="black" font-family="Arial, sans-serif" font-size="25.0" font-style="italic" stroke="none" text-anchor="beginning" text-orientation="sideways" text="Monsoon fraction per bin" x="180.00" y="90.72">Monsoon fraction per bin</text>
</g>
<g fill="none" opacity="0.5" stroke-width="15" stroke="#00aa88">
<line x1="436.80" x2="436.80" y1="588.37" y2="810.00" />
<line x1="412.80" x2="412.80" y1="246.70" y2="810.00" />
<line x1="556.80" x2="556.80" y1="564.78" y2="810.00" />
<line x1="484.80" x2="484.80" y1="652.38" y2="810.00" />
<line x1="652.80" x2="652.80" y1="677.87" y2="810.00" />
<line x1="628.80" x2="628.80" y1="731.80" y2="810.00" />
<line x1="604.80" x2="604.80" y1="752.75" y2="810.00" />
<line x1="580.80" x2="580.80" y1="692.19" y2="810.00" />
<line x1="748.80" x2="748.80" y1="686.28" y2="810.00" />
<line x1="724.80" x2="724.80" y1="602.38" y2="810.00" />
<line x1="700.80" x2="700.80" y1="684.55" y2="810.00" />
<line x1="676.80" x2="676.80" y1="564.67" y2="810.00" />
<line x1="220.80" x2="220.80" y1="732.56" y2="810.00" />
<line x1="364.80" x2="364.80" y1="614.42" y2="810.00" />
<line x1="292.80" x2="292.80" y1="728.60" y2="810.00" />
<line x1="844.80" x2="844.80" y1="473.79" y2="810.00" />
<line x1="820.80" x2="820.80" y1="527.46" y2="810.00" />
<line x1="796.80" x2="796.80" y1="695.38" y2="810.00" />
<line x1="772.80" x2="772.80" y1="657.88" y2="810.00" />
<line x1="940.80" x2="940.80" y1="340.04" y2="810.00" />
<line x1="916.80" x2="916.80" y1="635.23" y2="810.00" />
<line x1="892.80" x2="892.80" y1="614.10" y2="810.00" />
<line x1="868.80" x2="868.80" y1="446.48" y2="810.00" />
<line x1="1036.80" x2="1036.80" y1="783.46" y2="810.00" />
<line x1="1012.80" x2="1012.80" y1="557.93" y2="810.00" />
<line x1="988.80" x2="988.80" y1="781.77" y2="810.00" />
<line x1="964.80" x2="964.80" y1="711.70" y2="810.00" />
<line x1="1084.80" x2="1084.80" y1="791.02" y2="810.00" />
<line x1="1060.80" x2="1060.80" y1="772.13" y2="810.00" />
<line x1="1108.80" x2="1108.80" y1="797.65" y2="810.00" />
<line x1="1252.80" x2="1252.80" y1="766.86" y2="810.00" />
</g>
<g stroke="black">
<line x1="180.00" x2="180.00" y1="810.00" y2="820.00" />
<line x1="660.00" x2="660.00" y1="810.00" y2="820.00" />
<line x1="1140.00" x2="1140.00" y1="810.00" y2="820.00" />
<line x1="1620.00" x2="1620.00" y1="810.00" y2="820.00" />
<g fill="black" font-family="Arial, sans-serif" font-size="25.0" stroke="none" text-anchor="start" transform="translate(12.5 0.0)">
<text x="180.00" y="838.57">-20</text>
<text x="660.00" y="838.57">-10</text>
<text x="1140.00" y="838.57">0</text>
<text x="1620.00" y="838.57">10</text>
</g>
<line x1="180.00" x2="1620.00" y1="810.00" y2="810.00" />
</g>
<g stroke="black">
<line x1="180.00" x2="163.33" y1="810.00" y2="810.00" />
<line x1="180.00" x2="163.33" y1="662.13" y2="662.13" />
<line x1="180.00" x2="163.33" y1="514.26" y2="514.26" />
<line x1="180.00" x2="163.33" y1="366.38" y2="366.38" />
<line x1="180.00" x2="163.33" y1="218.51" y2="218.51" />
<g fill="black" font-family="Arial, sans-serif" font-size="25.0" stroke="none" text-anchor="end">
<text x="167.50" y="797.50">0.0</text>
<text x="167.50" y="649.63">0.1</text>
<text x="167.50" y="501.76">0.2</text>
<text x="167.50" y="353.88">0.3</text>
<text x="167.50" y="206.01">0.4</text>
</g>
<line x1="180.00" x2="180.00" y1="810.00" y2="90.00" />
</g>
</g>
<g>
<g>
<text dominant-baseline="hanging" dx="-25.0" dy="25.0" fill="#0088" font-family="Arial, sans-serif" font-size="25.0" font-style="italic" stroke="none" text-anchor="end" text-orientation="sideways" text="eCDF (fraction of rain heavier than given amount)" x="1620.00" y="90.00">eCDF (fraction of rain heavier than given amount)</text>
</g>
<polyline fill="none" points="1449.35,780.49 1449.35,774.80 1414.85,774.80 1414.85,772.40 1394.84,772.40 1394.84,766.03 1387.79,766.03 1387.79,754.84 1383.60,754.84 1383.60,749.95 1383.36,749.95 1383.36,744.98 1374.28,744.98 1374.28,736.21 1370.31,736.21 1370.31,724.98 1355.86,724.98 1355.86,714.83 1344.25,714.83 1344.25,709.38 1337.52,709.38 1337.52,706.95 1332.26,706.95 1332.26,699.73 1310.63,699.73 1310.63,686.65 1302.17,686.65 1302.17,673.02 1300.30,673.02 1300.30,669.76 1288.26,669.76 1288.26,666.11 1283.10,666.11 1283.10,661.88 1270.65,661.88 1270.65,657.24 1260.91,657.24 1260.91,653.25 1254.09,653.25 1254.09,647.03 1245.72,647.03 1245.72,637.66 1245.09,637.66 1245.09,635.09 1244.44,635.09 1244.44,633.78 1241.81,633.78 1241.81,631.03 1241.81,631.03 1241.81,617.21 1233.43,617.21 1233.43,610.61 1232.64,610.61 1232.64,602.21 1228.70,602.21 1228.70,591.87 1215.59,591.87 1215.59,585.24 1212.32,585.24 1212.32,578.68 1209.04,578.68 1209.04,576.64 1209.04,576.64 1209.04,569.48 1209.03,569.48 1209.03,567.97 1202.76,567.97 1202.76,553.44 1201.83,553.44 1201.83,545.98 1201.17,545.98 1201.17,541.71 1201.10,541.71 1201.10,525.70 1199.21,525.70 1199.21,517.21 1195.40,517.21 1195.40,513.04 1194.62,513.04 1194.62,504.34 1193.31,504.34 1193.31,499.65 1190.69,499.65 1190.69,494.58 1179.54,494.58 1179.54,473.35 1176.27,473.35 1176.27,471.26 1174.70,471.26 1174.70,466.48 1169.71,466.48 1169.71,459.04 1169.16,459.04 1169.16,448.11 1163.81,448.11 1163.81,443.83 1161.64,443.83 1161.64,430.33 1160.92,430.33 1160.92,423.50 1157.26,423.50 1157.26,411.45 1145.34,411.45 1145.34,404.75 1144.70,404.75 1144.70,394.62 1143.50,394.62 1143.50,390.96 1138.38,390.96 1138.38,385.30 1134.97,385.30 1134.97,374.89 1125.58,374.89 1125.58,368.55 1117.28,368.55 1117.28,358.62 1115.70,358.62 1115.70,356.22 1110.72,356.22 1110.72,349.61 1104.17,349.61 1104.17,331.79 1095.86,331.79 1095.86,324.76 1081.88,324.76 1081.88,315.60 1076.64,315.60 1076.64,310.22 1075.37,310.22 1075.37,304.67 1071.40,304.67 1071.40,299.18 1066.02,299.18 1066.02,285.58 1053.70,285.58 1053.70,279.31 1051.73,279.31 1051.73,276.66 1051.73,276.66 1051.73,274.57 1048.46,274.57 1048.46,265.77 1041.64,265.77 1041.64,259.43 1040.59,259.43 1040.59,254.84 1037.97,254.84 1037.97,249.93 1031.42,249.93 1031.42,247.28 1030.10,247.28 1030.10,245.12 999.26,245.12 999.26,214.23 986.06,214.23 986.06,206.92 971.12,206.92 971.12,199.43 967.84,199.43 967.84,187.31 960.63,187.31 960.63,179.01 957.35,179.01 957.35,177.35 953.42,177.35 953.42,174.44 942.93,174.44 942.93,163.53 933.83,163.53 933.83,157.32 933.76,157.32 933.76,144.09 920.65,144.09 920.65,137.10 918.02,137.10 918.02,133.06 887.87,133.06 887.87,130.64 879.35,130.64 879.35,125.42 838.72,125.42 838.72,124.02 795.98,124.02 795.98,114.29 765.96,114.29 765.96,103.69 612.04,103.69 612.04,97.78 586.37,97.78 586.37,90.00 586.37,90.00 586.37,90.00" stroke-width="3.6" stroke="#aa8800" />
<polyline fill="none" points="1403.57,804.07 1403.57,802.50 1393.87,802.50 1393.87,802.37 1370.74,802.37 1370.74,799.76 1359.25,799.76 1359.25,798.06 1356.23,798.06 1356.23,797.43 1344.06,797.43 1344.06,795.51 1327.67,795.51 1327.67,794.55 1315.88,794.55 1315.88,792.60 1300.80,792.60 1300.80,790.90 1293.88,790.90 1293.88,784.35 1293.59,784.35 1293.59,783.00 1287.69,783.00 1287.69,779.85 1281.14,779.85 1281.14,764.16 1276.55,764.16 1276.55,764.10 1274.58,764.10 1274.58,759.53 1261.47,759.53 1261.47,756.25 1250.69,756.25 1250.69,752.59 1241.81,752.59 1241.81,752.37 1223.46,752.37 1223.46,748.41 1221.24,748.41 1221.24,747.34 1219.27,747.34 1219.27,744.15 1213.43,744.15 1213.43,740.58 1212.71,740.58 1212.71,739.46 1202.49,739.46 1202.49,738.85 1192.78,738.85 1192.78,735.55 1192.65,735.55 1192.65,732.51 1188.72,732.51 1188.72,729.01 1188.07,729.01 1188.07,726.19 1188.07,726.19 1188.07,724.62 1185.44,724.62 1185.44,722.20 1182.82,722.20 1182.82,681.07 1181.80,681.07 1181.80,679.65 1164.47,679.65 1164.47,674.24 1158.95,674.24 1158.95,672.74 1156.60,672.74 1156.60,671.05 1156.60,671.05 1156.60,670.80 1148.08,670.80 1148.08,665.87 1144.81,665.87 1144.81,661.19 1140.87,661.19 1140.87,659.42 1140.73,659.42 1140.73,653.76 1132.30,653.76 1132.30,650.21 1128.03,650.21 1128.03,649.75 1124.16,649.75 1124.16,647.60 1123.83,647.60 1123.83,643.70 1123.83,643.70 1123.83,638.74 1119.81,638.74 1119.81,636.19 1112.69,636.19 1112.69,635.54 1109.84,635.54 1109.84,632.89 1104.82,632.89 1104.82,630.28 1104.17,630.28 1104.17,627.08 1104.17,627.08 1104.17,623.27 1097.61,623.27 1097.61,622.11 1096.96,622.11 1096.96,614.99 1095.65,614.99 1095.65,610.20 1094.34,610.20 1094.34,606.25 1093.68,606.25 1093.68,602.51 1091.72,602.51 1091.72,600.90 1091.72,600.90 1091.72,592.55 1091.06,592.55 1091.06,588.24 1088.56,588.24 1088.56,585.17 1087.13,585.17 1087.13,583.50 1077.44,583.50 1077.44,579.60 1071.40,579.60 1071.40,575.71 1068.45,575.71 1068.45,573.30 1058.64,573.30 1058.64,558.20 1057.63,558.20 1057.63,545.87 1057.43,545.87 1057.43,539.29 1056.32,539.29 1056.32,536.62 1051.73,536.62 1051.73,534.12 1045.18,534.12 1045.18,532.67 1040.98,532.67 1040.98,528.71 1039.94,528.71 1039.94,527.07 1027.37,527.07 1027.37,523.97 1023.55,523.97 1023.55,523.36 1020.27,523.36 1020.27,522.49 1018.96,522.49 1018.96,514.91 1013.49,514.91 1013.49,508.37 1006.85,508.37 1006.85,496.76 1001.27,496.76 1001.27,490.18 999.95,490.18 999.95,488.22 985.53,488.22 985.53,480.00 974.39,480.00 974.39,478.34 972.36,478.34 972.36,474.02 967.51,474.02 967.51,472.47 965.87,472.47 965.87,464.94 959.22,464.94 959.22,462.72 937.03,462.72 937.03,457.84 934.41,457.84 934.41,451.55 921.30,451.55 921.30,446.93 919.65,446.93 919.65,439.29 912.78,439.29 912.78,434.54 891.15,434.54 891.15,430.98 889.84,430.98 889.84,413.71 881.32,413.71 881.32,412.27 878.58,412.27 878.58,406.00 855.76,406.00 855.76,400.70 840.15,400.70 840.15,397.29 840.03,397.29 840.03,392.02 839.98,392.02 839.98,388.75 830.20,388.75 830.20,384.35 809.88,384.35 809.88,355.02 791.52,355.02 791.52,349.88 788.90,349.88 788.90,336.85 767.93,336.85 767.93,331.28 759.04,331.28 759.04,329.61 750.89,329.61 750.89,326.10 733.46,326.10 733.46,321.80 715.49,321.80 715.49,318.23 689.93,318.23 689.93,309.07 687.13,309.07 687.13,302.03 670.27,302.03 670.27,286.54 665.03,286.54 665.03,282.09 650.76,282.09 650.76,268.32 564.65,268.32 564.65,246.65 504.44,246.65 504.44,236.35 500.51,236.35 500.51,216.18 468.39,216.18 468.39,186.63 467.74,186.63 467.74,173.24 455.94,173.24 455.94,138.73 394.98,138.73 394.98,111.84 304.53,111.84 304.53,100.65 180.00,100.65 180.00,90.00 180.00,90.00 180.00,90.00" stroke-width="3.6" stroke="#00aa88" />
<g stroke="#0088">
<line x1="1620.00" x2="1636.67" y1="810.00" y2="810.00" />
<line x1="1620.00" x2="1636.67" y1="90.00" y2="90.00" />
<g fill="#0088" font-family="Arial, sans-serif" font-size="25.0" stroke="none" text-anchor="beginning">
<text x="1632.50" y="797.50">0.0</text>
<text x="1632.50" y="77.50">1.0</text>
</g>
<line x1="1620.00" x2="1620.00" y1="810.00" y2="90.00" />
</g>
</g>
</g>
</svg>
</g>
</g>
</g>
</g>
</svg>