<?xml version="1.0"?>
<svg height="900" version="1.1" viewBox="0 0 1800 900" width="1800" xmlns:xlink="http://www.w3.org/1999/xlink" xmlns="http://www.w3.org/2000/svg">
<g>
<g transform="matrix(1.00,0.00,0.00,1.00,0.00,0.00)">
<g>
<g transform="matrix(1.00,0.00,0.00,1.00,0.00,0.00)">
<svg height="900" version="1.1" viewBox="0 0 1800 900" width="1800" xmlns:xlink="http://www.w3.org/1999/xlink" xmlns="http://www.w3.org/2000/svg">
<g>
<g>
<g stroke-dasharray="5.0 10.0" stroke-width="1.0" stroke="#caa">
<line x1="780.11" x2="780.11" y1="810.00" y2="90.00" />
<line x1="1435.55" x2="1435.55" y1="810.00" y2="90.00" />
<line x1="180.00" x2="1620.00" y1="810.00" y2="810.00" />
<line x1="180.00" x2="1620.00" y1="496.96" y2="496.96" />
<line x1="180.00" x2="1620.00" y1="183.91" y2="183.91" />
</g>
<g>
<text dominant-baseline="hanging" dx="-50.0" dy="50.0" fill="#0004" font-family="Arial, sans-serif" font-size="50" stroke-width="1.6666666666666667" stroke="none" text-anchor="end" text="d18O Hist" x="1620.00" y="152.61">d18O Hist</text>
</g>
<g>
<text dominant-baseline="text-bottom" dy="-12.5" fill="black" font-family="Arial, sans-serif" font-size="25.0" font-style="italic" stroke="none" text-anchor="middle" text="d18O" x="900.00" y="90.72">d18O</text>
</g>
<g>
<text dominant-baseline="hanging" dx="25.0" dy="25.0" fill="black" font-family="Arial, sans-serif" font-size="25.0" font-style="italic" stroke="none" text-anchor="beginning" text-orientation="sideways" text="Count" x="180.00" y="90.72">Count</text>
</g>
<g fill="#0000" stroke-width="15" stroke="#0002">
<line x1="468.00" x2="468.00" y1="778.70" y2="810.00" />
<line x1="1140.00" x2="1140.00" y1="277.83" y2="810.00" />
<line x1="916.00" x2="916.00" y1="528.26" y2="810.00" />
<line x1="756.00" x2="756.00" y1="716.09" y2="810.00" />
<line x1="180.00" x2="180.00" y1="778.70" y2="810.00" />
<line x1="1076.00" x2="1076.00" y1="246.52" y2="810.00" />
<line x1="596.00" x2="596.00" y1="778.70" y2="810.00" />
<line x1="436.00" x2="436.00" y1="747.39" y2="810.00" />
<line x1="1364.00" x2="1364.00" y1="559.57" y2="810.00" />
<line x1="884.00" x2="884.00" y1="684.78" y2="810.00" />
<line x1="1396.00" x2="1396.00" y1="747.39" y2="810.00" />
<line x1="372.00" x2="372.00" y1="778.70" y2="810.00" />
<line x1="660.00" x2="660.00" y1="684.78" y2="810.00" />
<line x1="788.00" x2="788.00" y1="684.78" y2="810.00" />
<line x1="1172.00" x2="1172.00" y1="152.61" y2="810.00" />
<line x1="1268.00" x2="1268.00" y1="528.26" y2="810.00" />
<line x1="1012.00" x2="1012.00" y1="434.35" y2="810.00" />
<line x1="564.00" x2="564.00" y1="747.39" y2="810.00" />
<line x1="1236.00" x2="1236.00" y1="496.96" y2="810.00" />
<line x1="1108.00" x2="1108.00" y1="371.74" y2="810.00" />
<line x1="692.00" x2="692.00" y1="778.70" y2="810.00" />
<line x1="1524.00" x2="1524.00" y1="778.70" y2="810.00" />
<line x1="276.00" x2="276.00" y1="778.70" y2="810.00" />
<line x1="1428.00" x2="1428.00" y1="778.70" y2="810.00" />
<line x1="1204.00" x2="1204.00" y1="403.04" y2="810.00" />
<line x1="1300.00" x2="1300.00" y1="622.17" y2="810.00" />
<line x1="852.00" x2="852.00" y1="684.78" y2="810.00" />
<line x1="948.00" x2="948.00" y1="496.96" y2="810.00" />
<line x1="1332.00" x2="1332.00" y1="590.87" y2="810.00" />
<line x1="980.00" x2="980.00" y1="622.17" y2="810.00" />
<line x1="500.00" x2="500.00" y1="747.39" y2="810.00" />
<line x1="1044.00" x2="1044.00" y1="340.43" y2="810.00" />
<line x1="1620.00" x2="1620.00" y1="778.70" y2="810.00" />
<line x1="628.00" x2="628.00" y1="778.70" y2="810.00" />
<line x1="820.00" x2="820.00" y1="653.48" y2="810.00" />
<line x1="724.00" x2="724.00" y1="747.39" y2="810.00" />
</g>
<g stroke="black">
<line x1="780.11" x2="780.11" y1="810.00" y2="820.00" />
<line x1="1435.55" x2="1435.55" y1="810.00" y2="820.00" />
<g fill="black" font-family="Arial, sans-serif" font-size="25.0" stroke="none" text-anchor="start" transform="translate(12.5 0.0)">
<text x="780.11" y="838.57">-10</text>
<text x="1435.55" y="838.57">0</text>
</g>
<line x1="180.00" x2="1620.00" y1="810.00" y2="810.00" />
</g>
<g stroke="black">
<line x1="180.00" x2="163.33" y1="810.00" y2="810.00" />
<line x1="180.00" x2="163.33" y1="496.96" y2="496.96" />
<line x1="180.00" x2="163.33" y1="183.91" y2="183.91" />
<g fill="black" font-family="Arial, sans-serif" font-size="25.0" stroke="none" text-anchor="end">
<text x="167.50" y="797.50">0</text>
<text x="167.50" y="484.46">10</text>
<text x="167.50" y="171.41">20</text>
</g>
<line x1="180.00" x2="180.00" y1="810.00" y2="90.00" />
</g>
</g>
<g>
<g stroke-dasharray="5.0 10.0" stroke-width="1.0" stroke="#caa">
<line x1="780.11" x2="780.11" y1="810.00" y2="90.00" />
<line x1="1435.55" x2="1435.55" y1="810.00" y2="90.00" />
<line x1="180.00" x2="1620.00" y1="810.00" y2="810.00" />
<line x1="180.00" x2="1620.00" y1="496.96" y2="496.96" />
<line x1="180.00" x2="1620.00" y1="183.91" y2="183.91" />
</g>
<g>
<text dominant-baseline="hanging" dx="-50.0" dy="50.0" fill="#0004" font-family="Arial, sans-serif" font-size="50" stroke-width="1.6666666666666667" stroke="none" text-anchor="end" text="d18O Hist" x="1620.00" y="152.61">d18O Hist</text>
</g>
<g>
<text dominant-baseline="text-bottom" dy="-12.5" fill="black" font-family="Arial, sans-serif" font-size="25.0" font-style="italic" stroke="none" text-anchor="middle" text="d18O" x="900.00" y="90.72">d18O</text>
</g>
<g>
<text dominant-baseline="hanging" dx="25.0" dy="25.0" fill="black" font-family="Arial, sans-serif" font-size="25.0" font-style="italic" stroke="none" text-anchor="beginning" text-orientation="sideways" text="Count" x="180.00" y="90.72">Count</text>
</g>
<g fill="none" opacity="0.5" stroke-width="15" stroke="#aa8800">
<line x1="958.42" x2="958.42" y1="669.13" y2="810.00" />
<line x1="1240.63" x2="1240.63" y1="622.17" y2="810.00" />
<line x1="1311.18" x2="1311.18" y1="716.09" y2="810.00" />
<line x1="582.13" x2="582.13" y1="763.04" y2="810.00" />
<line x1="1428.77" x2="1428.77" y1="763.04" y2="810.00" />
<line x1="1076.01" x2="1076.01" y1="716.09" y2="810.00" />
<line x1="1005.45" x2="1005.45" y1="716.09" y2="810.00" />
<line x1="1217.11" x2="1217.11" y1="528.26" y2="810.00" />
<line x1="1287.67" x2="1287.67" y1="669.13" y2="810.00" />
<line x1="1146.56" x2="1146.56" y1="528.26" y2="810.00" />
<line x1="1381.74" x2="1381.74" y1="716.09" y2="810.00" />
<line x1="1123.04" x2="1123.04" y1="575.22" y2="810.00" />
<line x1="981.93" x2="981.93" y1="763.04" y2="810.00" />
<line x1="746.76" x2="746.76" y1="763.04" y2="810.00" />
<line x1="1522.84" x2="1522.84" y1="763.04" y2="810.00" />
<line x1="1099.52" x2="1099.52" y1="575.22" y2="810.00" />
<line x1="1358.22" x2="1358.22" y1="622.17" y2="810.00" />
<line x1="864.34" x2="864.34" y1="716.09" y2="810.00" />
<line x1="934.90" x2="934.90" y1="622.17" y2="810.00" />
<line x1="1405.25" x2="1405.25" y1="763.04" y2="810.00" />
<line x1="1028.97" x2="1028.97" y1="481.30" y2="810.00" />
<line x1="1170.08" x2="1170.08" y1="481.30" y2="810.00" />
<line x1="770.27" x2="770.27" y1="763.04" y2="810.00" />
<line x1="817.31" x2="817.31" y1="763.04" y2="810.00" />
<line x1="1052.49" x2="1052.49" y1="622.17" y2="810.00" />
<line x1="1193.59" x2="1193.59" y1="340.43" y2="810.00" />
<line x1="1334.70" x2="1334.70" y1="716.09" y2="810.00" />
<line x1="911.38" x2="911.38" y1="622.17" y2="810.00" />
<line x1="1264.15" x2="1264.15" y1="669.13" y2="810.00" />
<line x1="605.65" x2="605.65" y1="763.04" y2="810.00" />
</g>
<g stroke="black">
<line x1="780.11" x2="780.11" y1="810.00" y2="820.00" />
<line x1="1435.55" x2="1435.55" y1="810.00" y2="820.00" />
<g fill="black" font-family="Arial, sans-serif" font-size="25.0" stroke="none" text-anchor="start" transform="translate(12.5 0.0)">
<text x="780.11" y="838.57">-10</text>
<text x="1435.55" y="838.57">0</text>
</g>
<line x1="180.00" x2="1620.00" y1="810.00" y2="810.00" />
</g>
<g stroke="black">
<line x1="180.00" x2="163.33" y1="810.00" y2="810.00" />
<line x1="180.00" x2="163.33" y1="496.96" y2="496.96" />
<line x1="180.00" x2="163.33" y1="183.91" y2="183.91" />
<g fill="black" font-family="Arial, sans-serif" font-size="25.0" stroke="none" text-anchor="end">
<text x="167.50" y="797.50">0</text>
<text x="167.50" y="484.46">10</text>
<text x="167.50" y="171.41">20</text>
</g>
<line x1="180.00" x2="180.00" y1="810.00" y2="90.00" />
</g>
</g>
<g>
<g stroke-dasharray="5.0 10.0" stroke-width="1.0" stroke="#caa">
<line x1="780.11" x2="780.11" y1="810.00" y2="90.00" />
<line x1="1435.55" x2="1435.55" y1="810.00" y2="90.00" />
<line x1="180.00" x2="1620.00" y1="810.00" y2="810.00" />
<line x1="180.00" x2="1620.00" y1="496.96" y2="496.96" />
<line x1="180.00" x2="1620.00" y1="183.91" y2="183.91" />
</g>
<g>
<text dominant-baseline="hanging" dx="-50.0" dy="50.0" fill="#0004" font-family="Arial, sans-serif" font-size="50" stroke-width="1.6666666666666667" stroke="none" text-anchor="end" text="d18O Hist" x="1620.00" y="152.61">d18O Hist</text>
</g>
<g>
<text dominant-baseline="text-bottom" dy="-12.5" fill="black" font-family="Arial, sans-serif" font-size="25.0" font-style="italic" stroke="none" text-anchor="middle" text="d18O" x="900.00" y="90.72">d18O</text>
</g>
<g>
<text dominant-baseline="hanging" dx="25.0" dy="25.0" fill="black" font-family="Arial, sans-serif" font-size="25.0" font-style="italic" stroke="none" text-anchor="beginning" text-orientation="sideways" text="Count" x="180.00" y="90.72">Count</text>
</g>
<g fill="none" opacity="0.5" stroke-width="15" stroke="#00aa88">
<line x1="470.00" x2="470.00" y1="747.39" y2="810.00" />
<line x1="902.00" x2="902.00" y1="684.78" y2="810.00" />
<line x1="1370.00" x2="1370.00" y1="716.09" y2="810.00" />
<line x1="1154.00" x2="1154.00" y1="590.87" y2="810.00" />
<line x1="758.00" x2="758.00" y1="684.78" y2="810.00" />
<line x1="290.00" x2="290.00" y1="778.70" y2="810.00" />
<line x1="1010.00" x2="1010.00" y1="590.87" y2="810.00" />
<line x1="434.00" x2="434.00" y1="747.39" y2="810.00" />
<line x1="650.00" x2="650.00" y1="716.09" y2="810.00" />
<line x1="1190.00" x2="1190.00" y1="465.65" y2="810.00" />
<line x1="794.00" x2="794.00" y1="778.70" y2="810.00" />
<line x1="1082.00" x2="1082.00" y1="340.43" y2="810.00" />
<line x1="542.00" x2="542.00" y1="778.70" y2="810.00" />
<line x1="182.00" x2="182.00" y1="778.70" y2="810.00" />
<line x1="686.00" x2="686.00" y1="716.09" y2="810.00" />
<line x1="1226.00" x2="1226.00" y1="747.39" y2="810.00" />
<line x1="830.00" x2="830.00" y1="653.48" y2="810.00" />
<line x1="506.00" x2="506.00" y1="778.70" y2="810.00" />
<line x1="938.00" x2="938.00" y1="684.78" y2="810.00" />
<line x1="722.00" x2="722.00" y1="747.39" y2="810.00" />
<line x1="1262.00" x2="1262.00" y1="590.87" y2="810.00" />
<line x1="974.00" x2="974.00" y1="622.17" y2="810.00" />
<line x1="1118.00" x2="1118.00" y1="496.96" y2="810.00" />
<line x1="1298.00" x2="1298.00" y1="716.09" y2="810.00" />
<line x1="1334.00" x2="1334.00" y1="716.09" y2="810.00" />
<line x1="362.00" x2="362.00" y1="778.70" y2="810.00" />
<line x1="866.00" x2="866.00" y1="684.78" y2="810.00" />
<line x1="1046.00" x2="1046.00" y1="528.26" y2="810.00" />
</g>
<g stroke="black">
<line x1="780.11" x2="780.11" y1="810.00" y2="820.00" />
<line x1="1435.55" x2="1435.55" y1="810.00" y2="820.00" />
<g fill="black" font-family="Arial, sans-serif" font-size="25.0" stroke="none" text-anchor="start" transform="translate(12.5 0.0)">
<text x="780.11" y="838.57">-10</text>
<text x="1435.55" y="838.57">0</text>
</g>
<line x1="180.00" x2="1620.00" y1="810.00" y2="810.00" />
</g>
<g stroke="black">
<line x1="180.00" x2="163.33" y1="810.00" y2="810.00" />
<line x1="180.00" x2="163.33" y1="496.96" y2="496.96" />
<line x1="180.00" x2="163.33" y1="183.91" y2="183.91" />
<g fill="black" font-family="Arial, sans-serif" font-size="25.0" stroke="none" text-anchor="end">
<text x="167.50" y="797.50">0</text>
<text x="167.50" y="484.46">10</text>
<text x="167.50" y="171.41">20</text>
</g>
<line x1="180.00" x2="180.00" y1="810.00" y2="90.00" />
</g>
</g>
<g>
<g>
<text dominant-baseline="hanging" dx="-25.0" dy="25.0" fill="#0088" font-family="Arial, sans-serif" font-size="25.0" font-style="italic" stroke="none" text-anchor="end" text-orientation="sideways" text="eCDF" x="1620.00" y="90.00">eCDF</text>
</g>
<polyline fill="none" points="586.37,810.00 586.37,802.50 612.04,802.50 612.04,795.00 765.96,795.00 765.96,787.50 795.98,787.50 795.98,780.00 838.72,780.00 838.72,772.50 879.35,772.50 879.35,765.00 887.87,765.00 887.87,757.50 918.02,757.50 918.02,750.00 920.65,750.00 920.65,742.50 933.76,742.50 933.76,735.00 933.83,735.00 933.83,727.50 942.93,727.50 942.93,720.00 953.42,720.00 953.42,712.50 957.35,712.50 957.35,705.00 960.63,705.00 960.63,697.50 967.84,697.50 967.84,690.00 971.12,690.00 971.12,682.50 986.06,682.50 986.06,675.00 999.26,675.00 999.26,667.50 1030.10,667.50 1030.10,660.00 1031.42,660.00 1031.42,652.50 1037.97,652.50 1037.97,645.00 1040.59,645.00 1040.59,637.50 1041.64,637.50 1041.64,630.00 1048.46,630.00 1048.46,622.50 1051.73,622.50 1051.73,615.00 1051.73,615.00 1051.73,607.50 1053.70,607.50 1053.70,600.00 1066.02,600.00 1066.02,592.50 1071.40,592.50 1071.40,585.00 1075.37,585.00 1075.37,577.50 1076.64,577.50 1076.64,570.00 1081.88,570.00 1081.88,562.50 1095.86,562.50 1095.86,555.00 1104.17,555.00 1104.17,547.50 1110.72,547.50 1110.72,540.00 1115.70,540.00 1115.70,532.50 1117.28,532.50 1117.28,525.00 1125.58,525.00 1125.58,517.50 1134.97,517.50 1134.97,510.00 1138.38,510.00 1138.38,502.50 1143.50,502.50 1143.50,495.00 1144.70,495.00 1144.70,487.50 1145.34,487.50 1145.34,480.00 1157.26,480.00 1157.26,472.50 1160.92,472.50 1160.92,465.00 1161.64,465.00 1161.64,457.50 1163.81,457.50 1163.81,450.00 1169.16,450.00 1169.16,442.50 1169.71,442.50 1169.71,435.00 1174.70,435.00 1174.70,427.50 1176.27,427.50 1176.27,420.00 1179.54,420.00 1179.54,412.50 1190.69,412.50 1190.69,405.00 1193.31,405.00 1193.31,397.50 1194.62,397.50 1194.62,390.00 1195.40,390.00 1195.40,382.50 1199.21,382.50 1199.21,375.00 1201.10,375.00 1201.10,367.50 1201.17,367.50 1201.17,360.00 1201.83,360.00 1201.83,352.50 1202.76,352.50 1202.76,345.00 1209.03,345.00 1209.03,337.50 1209.04,337.50 1209.04,330.00 1209.04,330.00 1209.04,322.50 1212.32,322.50 1212.32,315.00 1215.59,315.00 1215.59,307.50 1228.70,307.50 1228.70,300.00 1232.64,300.00 1232.64,292.50 1233.43,292.50 1233.43,285.00 1241.81,285.00 1241.81,277.50 1241.81,277.50 1241.81,270.00 1244.44,270.00 1244.44,262.50 1245.09,262.50 1245.09,255.00 1245.72,255.00 1245.72,247.50 1254.09,247.50 1254.09,240.00 1260.91,240.00 1260.91,232.50 1270.65,232.50 1270.65,225.00 1283.10,225.00 1283.10,217.50 1288.26,217.50 1288.26,210.00 1300.30,210.00 1300.30,202.50 1302.17,202.50 1302.17,195.00 1310.63,195.00 1310.63,187.50 1332.26,187.50 1332.26,180.00 1337.52,180.00 1337.52,172.50 1344.25,172.50 1344.25,165.00 1355.86,165.00 1355.86,157.50 1370.31,157.50 1370.31,150.00 1374.28,150.00 1374.28,142.50 1383.36,142.50 1383.36,135.00 1383.60,135.00 1383.60,127.50 1387.79,127.50 1387.79,120.00 1394.84,120.00 1394.84,112.50 1414.85,112.50 1414.85,105.00 1449.35,105.00 1449.35,97.50 1527.08,97.50 1527.08,90.00" stroke-width="3.6" stroke="#aa8800" />
<polyline fill="none" points="180.00,810.00 180.00,804.15 304.53,804.15 304.53,798.29 394.98,798.29 394.98,792.44 455.94,792.44 455.94,786.59 467.74,786.59 467.74,780.73 468.39,780.73 468.39,774.88 500.51,774.88 500.51,769.02 504.44,769.02 504.44,763.17 564.65,763.17 564.65,757.32 650.76,757.32 650.76,751.46 665.03,751.46 665.03,745.61 670.27,745.61 670.27,739.76 687.13,739.76 687.13,733.90 689.93,733.90 689.93,728.05 715.49,728.05 715.49,722.20 733.46,722.20 733.46,716.34 750.89,716.34 750.89,710.49 759.04,710.49 759.04,704.63 767.93,704.63 767.93,698.78 788.90,698.78 788.90,692.93 791.52,692.93 791.52,687.07 809.88,687.07 809.88,681.22 830.20,681.22 830.20,675.37 839.98,675.37 839.98,669.51 840.03,669.51 840.03,663.66 840.15,663.66 840.15,657.80 855.76,657.80 855.76,651.95 878.58,651.95 878.58,646.10 881.32,646.10 881.32,640.24 889.84,640.24 889.84,634.39 891.15,634.39 891.15,628.54 912.78,628.54 912.78,622.68 919.65,622.68 919.65,616.83 921.30,616.83 921.30,610.98 934.41,610.98 934.41,605.12 937.03,605.12 937.03,599.27 959.22,599.27 959.22,593.41 965.87,593.41 965.87,587.56 967.51,587.56 967.51,581.71 972.36,581.71 972.36,575.85 974.39,575.85 974.39,570.00 985.53,570.00 985.53,564.15 999.95,564.15 999.95,558.29 1001.27,558.29 1001.27,552.44 1006.85,552.44 1006.85,546.59 1013.49,546.59 1013.49,540.73 1018.96,540.73 1018.96,534.88 1020.27,534.88 1020.27,529.02 1023.55,529.02 1023.55,523.17 1027.37,523.17 1027.37,517.32 1039.94,517.32 1039.94,511.46 1040.98,511.46 1040.98,505.61 1045.18,505.61 1045.18,499.76 1051.73,499.76 1051.73,493.90 1056.32,493.90 1056.32,488.05 1057.43,488.05 1057.43,482.20 1057.63,482.20 1057.63,476.34 1058.64,476.34 1058.64,470.49 1068.45,470.49 1068.45,464.63 1071.40,464.63 1071.40,458.78 1077.44,458.78 1077.44,452.93 1087.13,452.93 1087.13,447.07 1088.56,447.07 1088.56,441.22 1091.06,441.22 1091.06,435.37 1091.72,435.37 1091.72,429.51 1091.72,429.51 1091.72,423.66 1093.68,423.66 1093.68,417.80 1094.34,417.80 1094.34,411.95 1095.65,411.95 1095.65,406.10 1096.96,406.10 1096.96,400.24 1097.61,400.24 1097.61,394.39 1104.17,394.39 1104.17,388.54 1104.17,388.54 1104.17,382.68 1104.82,382.68 1104.82,376.83 1109.84,376.83 1109.84,370.98 1112.69,370.98 1112.69,365.12 1119.81,365.12 1119.81,359.27 1123.83,359.27 1123.83,353.41 1123.83,353.41 1123.83,347.56 1124.16,347.56 1124.16,341.71 1128.03,341.71 1128.03,335.85 1132.30,335.85 1132.30,330.00 1140.73,330.00 1140.73,324.15 1140.87,324.15 1140.87,318.29 1144.81,318.29 1144.81,312.44 1148.08,312.44 1148.08,306.59 1156.60,306.59 1156.60,300.73 1156.60,300.73 1156.60,294.88 1158.95,294.88 1158.95,289.02 1164.47,289.02 1164.47,283.17 1181.80,283.17 1181.80,277.32 1182.82,277.32 1182.82,271.46 1185.44,271.46 1185.44,265.61 1188.07,265.61 1188.07,259.76 1188.07,259.76 1188.07,253.90 1188.72,253.90 1188.72,248.05 1192.65,248.05 1192.65,242.20 1192.78,242.20 1192.78,236.34 1202.49,236.34 1202.49,230.49 1212.71,230.49 1212.71,224.63 1213.43,224.63 1213.43,218.78 1219.27,218.78 1219.27,212.93 1221.24,212.93 1221.24,207.07 1223.46,207.07 1223.46,201.22 1241.81,201.22 1241.81,195.37 1250.69,195.37 1250.69,189.51 1261.47,189.51 1261.47,183.66 1274.58,183.66 1274.58,177.80 1276.55,177.80 1276.55,171.95 1281.14,171.95 1281.14,166.10 1287.69,166.10 1287.69,160.24 1293.59,160.24 1293.59,154.39 1293.88,154.39 1293.88,148.54 1300.80,148.54 1300.80,142.68 1315.88,142.68 1315.88,136.83 1327.67,136.83 1327.67,130.98 1344.06,130.98 1344.06,125.12 1356.23,125.12 1356.23,119.27 1359.25,119.27 1359.25,113.41 1370.74,113.41 1370.74,107.56 1393.87,107.56 1393.87,101.71 1403.57,101.71 1403.57,95.85 1620.00,95.85 1620.00,90.00" stroke-width="3.6" stroke="#00aa88" />
<polyline fill="none" points="180.00,810.00 180.00,806.71 304.53,806.71 304.53,803.42 394.98,803.42 394.98,800.14 455.94,800.14 455.94,796.85 467.74,796.85 467.74,793.56 468.39,793.56 468.39,790.27 500.51,790.27 500.51,786.99 504.44,786.99 504.44,783.70 564.65,783.70 564.65,780.41 586.37,780.41 586.37,777.12 612.04,777.12 612.04,773.84 650.76,773.84 650.76,770.55 665.03,770.55 665.03,767.26 670.27,767.26 670.27,763.97 687.13,763.97 687.13,760.68 689.93,760.68 689.93,757.40 715.49,757.40 715.49,754.11 733.46,754.11 733.46,750.82 750.89,750.82 750.89,747.53 759.04,747.53 759.04,744.25 765.96,744.25 765.96,740.96 767.93,740.96 767.93,737.67 788.90,737.67 788.90,734.38 791.52,734.38 791.52,731.10 795.98,731.10 795.98,727.81 809.88,727.81 809.88,724.52 830.20,724.52 830.20,721.23 838.72,721.23 838.72,717.95 839.98,717.95 839.98,714.66 840.03,714.66 840.03,711.37 840.15,711.37 840.15,708.08 855.76,708.08 855.76,704.79 878.58,704.79 878.58,701.51 879.35,701.51 879.35,698.22 881.32,698.22 881.32,694.93 887.87,694.93 887.87,691.64 889.84,691.64 889.84,688.36 891.15,688.36 891.15,685.07 912.78,685.07 912.78,681.78 918.02,681.78 918.02,678.49 919.65,678.49 919.65,675.21 920.65,675.21 920.65,671.92 921.30,671.92 921.30,668.63 933.76,668.63 933.76,665.34 933.83,665.34 933.83,662.05 934.41,662.05 934.41,658.77 937.03,658.77 937.03,655.48 942.93,655.48 942.93,652.19 953.42,652.19 953.42,648.90 957.35,648.90 957.35,645.62 959.22,645.62 959.22,642.33 960.63,642.33 960.63,639.04 965.87,639.04 965.87,635.75 967.51,635.75 967.51,632.47 967.84,632.47 967.84,629.18 971.12,629.18 971.12,625.89 972.36,625.89 972.36,622.60 974.39,622.60 974.39,619.32 985.53,619.32 985.53,616.03 986.06,616.03 986.06,612.74 999.26,612.74 999.26,609.45 999.95,609.45 999.95,606.16 1001.27,606.16 1001.27,602.88 1006.85,602.88 1006.85,599.59 1013.49,599.59 1013.49,596.30 1018.96,596.30 1018.96,593.01 1020.27,593.01 1020.27,589.73 1023.55,589.73 1023.55,586.44 1027.37,586.44 1027.37,583.15 1030.10,583.15 1030.10,579.86 1031.42,579.86 1031.42,576.58 1037.97,576.58 1037.97,573.29 1039.94,573.29 1039.94,570.00 1040.59,570.00 1040.59,566.71 1040.98,566.71 1040.98,563.42 1041.64,563.42 1041.64,560.14 1045.18,560.14 1045.18,556.85 1048.46,556.85 1048.46,553.56 1051.73,553.56 1051.73,550.27 1051.73,550.27 1051.73,546.99 1051.73,546.99 1051.73,543.70 1053.70,543.70 1053.70,540.41 1056.32,540.41 1056.32,537.12 1057.43,537.12 1057.43,533.84 1057.63,533.84 1057.63,530.55 1058.64,530.55 1058.64,527.26 1066.02,527.26 1066.02,523.97 1068.45,523.97 1068.45,520.68 1071.40,520.68 1071.40,517.40 1071.40,517.40 1071.40,514.11 1075.37,514.11 1075.37,510.82 1076.64,510.82 1076.64,507.53 1077.44,507.53 1077.44,504.25 1081.88,504.25 1081.88,500.96 1087.13,500.96 1087.13,497.67 1088.56,497.67 1088.56,494.38 1091.06,494.38 1091.06,491.10 1091.72,491.10 1091.72,487.81 1091.72,487.81 1091.72,484.52 1093.68,484.52 1093.68,481.23 1094.34,481.23 1094.34,477.95 1095.65,477.95 1095.65,474.66 1095.86,474.66 1095.86,471.37 1096.96,471.37 1096.96,468.08 1097.61,468.08 1097.61,464.79 1104.17,464.79 1104.17,461.51 1104.17,461.51 1104.17,458.22 1104.17,458.22 1104.17,454.93 1104.82,454.93 1104.82,451.64 1109.84,451.64 1109.84,448.36 1110.72,448.36 1110.72,445.07 1112.69,445.07 1112.69,441.78 1115.70,441.78 1115.70,438.49 1117.28,438.49 1117.28,435.21 1119.81,435.21 1119.81,431.92 1123.83,431.92 1123.83,428.63 1123.83,428.63 1123.83,425.34 1124.16,425.34 1124.16,422.05 1125.58,422.05 1125.58,418.77 1128.03,418.77 1128.03,415.48 1132.30,415.48 1132.30,412.19 1134.97,412.19 1134.97,408.90 1138.38,408.90 1138.38,405.62 1140.73,405.62 1140.73,402.33 1140.87,402.33 1140.87,399.04 1143.50,399.04 1143.50,395.75 1144.70,395.75 1144.70,392.47 1144.81,392.47 1144.81,389.18 1145.34,389.18 1145.34,385.89 1148.08,385.89 1148.08,382.60 1156.60,382.60 1156.60,379.32 1156.60,379.32 1156.60,376.03 1157.26,376.03 1157.26,372.74 1158.95,372.74 1158.95,369.45 1160.92,369.45 1160.92,366.16 1161.64,366.16 1161.64,362.88 1163.81,362.88 1163.81,359.59 1164.47,359.59 1164.47,356.30 1169.16,356.30 1169.16,353.01 1169.71,353.01 1169.71,349.73 1174.70,349.73 1174.70,346.44 1176.27,346.44 1176.27,343.15 1179.54,343.15 1179.54,339.86 1181.80,339.86 1181.80,336.58 1182.82,336.58 1182.82,333.29 1185.44,333.29 1185.44,330.00 1188.07,330.00 1188.07,326.71 1188.07,326.71 1188.07,323.42 1188.72,323.42 1188.72,320.14 1190.69,320.14 1190.69,316.85 1192.65,316.85 1192.65,313.56 1192.78,313.56 1192.78,310.27 1193.31,310.27 1193.31,306.99 1194.62,306.99 1194.62,303.70 1195.40,303.70 1195.40,300.41 1199.21,300.41 1199.21,297.12 1201.10,297.12 1201.10,293.84 1201.17,293.84 1201.17,290.55 1201.83,290.55 1201.83,287.26 1202.49,287.26 1202.49,283.97 1202.76,283.97 1202.76,280.68 1209.03,280.68 1209.03,277.40 1209.04,277.40 1209.04,274.11 1209.04,274.11 1209.04,270.82 1212.32,270.82 1212.32,267.53 1212.71,267.53 1212.71,264.25 1213.43,264.25 1213.43,260.96 1215.59,260.96 1215.59,257.67 1219.27,257.67 1219.27,254.38 1221.24,254.38 1221.24,251.10 1223.46,251.10 1223.46,247.81 1228.70,247.81 1228.70,244.52 1232.64,244.52 1232.64,241.23 1233.43,241.23 1233.43,237.95 1241.81,237.95 1241.81,234.66 1241.81,234.66 1241.81,231.37 1241.81,231.37 1241.81,228.08 1244.44,228.08 1244.44,224.79 1245.09,224.79 1245.09,221.51 1245.72,221.51 1245.72,218.22 1250.69,218.22 1250.69,214.93 1254.09,214.93 1254.09,211.64 1260.91,211.64 1260.91,208.36 1261.47,208.36 1261.47,205.07 1270.65,205.07 1270.65,201.78 1274.58,201.78 1274.58,198.49 1276.55,198.49 1276.55,195.21 1281.14,195.21 1281.14,191.92 1283.10,191.92 1283.10,188.63 1287.69,188.63 1287.69,185.34 1288.26,185.34 1288.26,182.05 1293.59,182.05 1293.59,178.77 1293.88,178.77 1293.88,175.48 1300.30,175.48 1300.30,172.19 1300.80,172.19 1300.80,168.90 1302.17,168.90 1302.17,165.62 1310.63,165.62 1310.63,162.33 1315.88,162.33 1315.88,159.04 1327.67,159.04 1327.67,155.75 1332.26,155.75 1332.26,152.47 1337.52,152.47 1337.52,149.18 1344.06,149.18 1344.06,145.89 1344.25,145.89 1344.25,142.60 1355.86,142.60 1355.86,139.32 1356.23,139.32 1356.23,136.03 1359.25,136.03 1359.25,132.74 1370.31,132.74 1370.31,129.45 1370.74,129.45 1370.74,126.16 1374.28,126.16 1374.28,122.88 1383.36,122.88 1383.36,119.59 1383.60,119.59 1383.60,116.30 1387.79,116.30 1387.79,113.01 1393.87,113.01 1393.87,109.73 1394.84,109.73 1394.84,106.44 1403.57,106.44 1403.57,103.15 1414.85,103.15 1414.85,99.86 1449.35,99.86 1449.35,96.58 1527.08,96.58 1527.08,93.29 1620.00,93.29 1620.00,90.00" stroke-width="3.6" stroke="#0007" />
<g stroke="#0088">
<line x1="1620.00" x2="1636.67" y1="810.00" y2="810.00" />
<line x1="1620.00" x2="1636.67" y1="90.00" y2="90.00" />
<g fill="#0088" font-family="Arial, sans-serif" font-size="25.0" stroke="none" text-anchor="beginning">
<text x="1632.50" y="797.50">0.0</text>
<text x="1632.50" y="77.50">1.0</text>
</g>
<line x1="1620.00" x2="1620.00" y1="810.00" y2="90.00" />
</g>
</g>
</g>
</svg>
</g>
</g>
</g>
</g>
</svg>