<?xml version="1.0"?>
<svg height="900" version="1.1" viewBox="0 0 1800 900" width="1800" xmlns:xlink="http://www.w3.org/1999/xlink" xmlns="http://www.w3.org/2000/svg">
<g>
<g transform="matrix(1.00,0.00,0.00,1.00,0.00,0.00)">
<g>
<g transform="matrix(1.00,0.00,0.00,1.00,0.00,0.00)">
<svg height="900" version="1.1" viewBox="0 0 1800 900" width="1800" xmlns:xlink="http://www.w3.org/1999/xlink" xmlns="http://www.w3.org/2000/svg">
<g>
<g>
<g stroke-dasharray="5.0 10.0" stroke-width="1.0" stroke="#caa">
<line x1="785.45" x2="785.45" y1="810.00" y2="90.00" />
<line x1="1440.00" x2="1440.00" y1="810.00" y2="90.00" />
<line x1="180.00" x2="1620.00" y1="810.00" y2="810.00" />
<line x1="180.00" x2="1620.00" y1="496.96" y2="496.96" />
<line x1="180.00" x2="1620.00" y1="183.91" y2="183.91" />
</g>
<g>
<text dominant-baseline="hanging" dx="-50.0" dy="50.0" fill="#0004" font-family="Arial, sans-serif" font-size="50" stroke-width="1.6666666666666667" stroke="none" text-anchor="end" text="d18O Hist" x="1620.00" y="152.61">d18O Hist</text>
</g>
<g>
<text dominant-baseline="text-bottom" dy="-12.5" fill="black" font-family="Arial, sans-serif" font-size="25.0" font-style="italic" stroke="none" text-anchor="middle" text="d18O" x="900.00" y="90.72">d18O</text>
</g>
<g>
<text dominant-baseline="hanging" dx="25.0" dy="25.0" fill="black" font-family="Arial, sans-serif" font-size="25.0" font-style="italic" stroke="none" text-anchor="beginning" text-orientation="sideways" text="Count (rainy days in bin)" x="180.00" y="90.72">Count (rainy days in bin)</text>
</g>
<g fill="#0000" stroke-width="15" stroke="#0002">
<line x1="1423.64" x2="1423.64" y1="778.70" y2="810.00" />
<line x1="900.00" x2="900.00" y1="653.48" y2="810.00" />
<line x1="1161.82" x2="1161.82" y1="215.22" y2="810.00" />
<line x1="867.27" x2="867.27" y1="622.17" y2="810.00" />
<line x1="1292.73" x2="1292.73" y1="528.26" y2="810.00" />
<line x1="834.55" x2="834.55" y1="622.17" y2="810.00" />
<line x1="1129.09" x2="1129.09" y1="340.43" y2="810.00" />
<line x1="801.82" x2="801.82" y1="778.70" y2="810.00" />
<line x1="1521.82" x2="1521.82" y1="778.70" y2="810.00" />
<line x1="1358.18" x2="1358.18" y1="559.57" y2="810.00" />
<line x1="769.09" x2="769.09" y1="653.48" y2="810.00" />
<line x1="1096.36" x2="1096.36" y1="215.22" y2="810.00" />
<line x1="736.36" x2="736.36" y1="716.09" y2="810.00" />
<line x1="1620.00" x2="1620.00" y1="778.70" y2="810.00" />
<line x1="1260.00" x2="1260.00" y1="590.87" y2="810.00" />
<line x1="703.64" x2="703.64" y1="778.70" y2="810.00" />
<line x1="1063.64" x2="1063.64" y1="465.65" y2="810.00" />
<line x1="670.91" x2="670.91" y1="684.78" y2="810.00" />
<line x1="1390.91" x2="1390.91" y1="653.48" y2="810.00" />
<line x1="638.18" x2="638.18" y1="778.70" y2="810.00" />
<line x1="1030.91" x2="1030.91" y1="277.83" y2="810.00" />
<line x1="605.45" x2="605.45" y1="778.70" y2="810.00" />
<line x1="1227.27" x2="1227.27" y1="434.35" y2="810.00" />
<line x1="572.73" x2="572.73" y1="778.70" y2="810.00" />
<line x1="998.18" x2="998.18" y1="559.57" y2="810.00" />
<line x1="540.00" x2="540.00" y1="778.70" y2="810.00" />
<line x1="1325.45" x2="1325.45" y1="653.48" y2="810.00" />
<line x1="507.27" x2="507.27" y1="778.70" y2="810.00" />
<line x1="965.45" x2="965.45" y1="528.26" y2="810.00" />
<line x1="474.55" x2="474.55" y1="747.39" y2="810.00" />
<line x1="1194.55" x2="1194.55" y1="152.61" y2="810.00" />
<line x1="441.82" x2="441.82" y1="747.39" y2="810.00" />
<line x1="932.73" x2="932.73" y1="559.57" y2="810.00" />
<line x1="376.36" x2="376.36" y1="778.70" y2="810.00" />
<line x1="310.91" x2="310.91" y1="778.70" y2="810.00" />
<line x1="180.00" x2="180.00" y1="778.70" y2="810.00" />
</g>
<g stroke="black">
<line x1="785.45" x2="785.45" y1="810.00" y2="820.00" />
<line x1="1440.00" x2="1440.00" y1="810.00" y2="820.00" />
<g fill="black" font-family="Arial, sans-serif" font-size="25.0" stroke="none" text-anchor="start" transform="translate(12.5 0.0)">
<text x="785.45" y="838.57">-10</text>
<text x="1440.00" y="838.57">0</text>
</g>
<line x1="180.00" x2="1620.00" y1="810.00" y2="810.00" />
</g>
<g stroke="black">
<line x1="180.00" x2="163.33" y1="810.00" y2="810.00" />
<line x1="180.00" x2="163.33" y1="496.96" y2="496.96" />
<line x1="180.00" x2="163.33" y1="183.91" y2="183.91" />
<g fill="black" font-family="Arial, sans-serif" font-size="25.0" stroke="none" text-anchor="end">
<text x="167.50" y="797.50">0</text>
<text x="167.50" y="484.46">10</text>
<text x="167.50" y="171.41">20</text>
</g>
<line x1="180.00" x2="180.00" y1="810.00" y2="90.00" />
</g>
</g>
<g>
<g stroke-dasharray="5.0 10.0" stroke-width="1.0" stroke="#caa">
<line x1="785.45" x2="785.45" y1="810.00" y2="90.00" />
<line x1="1440.00" x2="1440.00" y1="810.00" y2="90.00" />
<line x1="180.00" x2="1620.00" y1="810.00" y2="810.00" />
<line x1="180.00" x2="1620.00" y1="496.96" y2="496.96" />
<line x1="180.00" x2="1620.00" y1="183.91" y2="183.91" />
</g>
<g>
<text dominant-baseline="hanging" dx="-50.0" dy="50.0" fill="#0004" font-family="Arial, sans-serif" font-size="50" stroke-width="1.6666666666666667" stroke="none" text-anchor="end" text="d18O Hist" x="1620.00" y="152.61">d18O Hist</text>
</g>
<g>
<text dominant-baseline="text-bottom" dy="-12.5" fill="black" font-family="Arial, sans-serif" font-size="25.0" font-style="italic" stroke="none" text-anchor="middle" text="d18O" x="900.00" y="90.72">d18O</text>
</g>
<g>
<text dominant-baseline="hanging" dx="25.0" dy="25.0" fill="black" font-family="Arial, sans-serif" font-size="25.0" font-style="italic" stroke="none" text-anchor="beginning" text-orientation="sideways" text="Count (rainy days in bin)" x="180.00" y="90.72">Count (rainy days in bin)</text>
</g>
<g fill="none" opacity="0.5" stroke-width="15" stroke="#aa8800">
<line x1="1515.27" x2="1515.27" y1="763.04" y2="810.00" />
<line x1="1417.09" x2="1417.09" y1="763.04" y2="810.00" />
<line x1="795.27" x2="795.27" y1="763.04" y2="810.00" />
<line x1="828.00" x2="828.00" y1="763.04" y2="810.00" />
<line x1="860.73" x2="860.73" y1="763.04" y2="810.00" />
<line x1="893.45" x2="893.45" y1="716.09" y2="810.00" />
<line x1="762.55" x2="762.55" y1="763.04" y2="810.00" />
<line x1="566.18" x2="566.18" y1="763.04" y2="810.00" />
<line x1="598.91" x2="598.91" y1="763.04" y2="810.00" />
<line x1="1057.09" x2="1057.09" y1="434.35" y2="810.00" />
<line x1="1089.82" x2="1089.82" y1="622.17" y2="810.00" />
<line x1="1122.55" x2="1122.55" y1="481.30" y2="810.00" />
<line x1="1155.27" x2="1155.27" y1="387.39" y2="810.00" />
<line x1="926.18" x2="926.18" y1="622.17" y2="810.00" />
<line x1="958.91" x2="958.91" y1="528.26" y2="810.00" />
<line x1="991.64" x2="991.64" y1="763.04" y2="810.00" />
<line x1="1024.36" x2="1024.36" y1="528.26" y2="810.00" />
<line x1="1449.82" x2="1449.82" y1="763.04" y2="810.00" />
<line x1="1384.36" x2="1384.36" y1="622.17" y2="810.00" />
<line x1="1318.91" x2="1318.91" y1="669.13" y2="810.00" />
<line x1="1351.64" x2="1351.64" y1="669.13" y2="810.00" />
<line x1="1188.00" x2="1188.00" y1="199.57" y2="810.00" />
<line x1="1220.73" x2="1220.73" y1="387.39" y2="810.00" />
<line x1="1253.45" x2="1253.45" y1="669.13" y2="810.00" />
<line x1="1286.18" x2="1286.18" y1="575.22" y2="810.00" />
</g>
<g stroke="black">
<line x1="785.45" x2="785.45" y1="810.00" y2="820.00" />
<line x1="1440.00" x2="1440.00" y1="810.00" y2="820.00" />
<g fill="black" font-family="Arial, sans-serif" font-size="25.0" stroke="none" text-anchor="start" transform="translate(12.5 0.0)">
<text x="785.45" y="838.57">-10</text>
<text x="1440.00" y="838.57">0</text>
</g>
<line x1="180.00" x2="1620.00" y1="810.00" y2="810.00" />
</g>
<g stroke="black">
<line x1="180.00" x2="163.33" y1="810.00" y2="810.00" />
<line x1="180.00" x2="163.33" y1="496.96" y2="496.96" />
<line x1="180.00" x2="163.33" y1="183.91" y2="183.91" />
<g fill="black" font-family="Arial, sans-serif" font-size="25.0" stroke="none" text-anchor="end">
<text x="167.50" y="797.50">0</text>
<text x="167.50" y="484.46">10</text>
<text x="167.50" y="171.41">20</text>
</g>
<line x1="180.00" x2="180.00" y1="810.00" y2="90.00" />
</g>
</g>
<g>
<g stroke-dasharray="5.0 10.0" stroke-width="1.0" stroke="#caa">
<line x1="785.45" x2="785.45" y1="810.00" y2="90.00" />
<line x1="1440.00" x2="1440.00" y1="810.00" y2="90.00" />
<line x1="180.00" x2="1620.00" y1="810.00" y2="810.00" />
<line x1="180.00" x2="1620.00" y1="496.96" y2="496.96" />
<line x1="180.00" x2="1620.00" y1="183.91" y2="183.91" />
</g>
<g>
<text dominant-baseline="hanging" dx="-50.0" dy="50.0" fill="#0004" font-family="Arial, sans-serif" font-size="50" stroke-width="1.6666666666666667" stroke="none" text-anchor="end" text="d18O Hist" x="1620.00" y="152.61">d18O Hist</text>
</g>
<g>
<text dominant-baseline="text-bottom" dy="-12.5" fill="black" font-family="Arial, sans-serif" font-size="25.0" font-style="italic" stroke="none" text-anchor="middle" text="d18O" x="900.00" y="90.72">d18O</text>
</g>
<g>
<text dominant-baseline="hanging" dx="25.0" dy="25.0" fill="black" font-family="Arial, sans-serif" font-size="25.0" font-style="italic" stroke="none" text-anchor="beginning" text-orientation="sideways" text="Count (rainy days in bin)" x="180.00" y="90.72">Count (rainy days in bin)</text>
</g>
<g fill="none" opacity="0.5" stroke-width="15" stroke="#00aa88">
<line x1="481.09" x2="481.09" y1="747.39" y2="810.00" />
<line x1="448.36" x2="448.36" y1="716.09" y2="810.00" />
<line x1="644.73" x2="644.73" y1="716.09" y2="810.00" />
<line x1="546.55" x2="546.55" y1="778.70" y2="810.00" />
<line x1="775.64" x2="775.64" y1="747.39" y2="810.00" />
<line x1="742.91" x2="742.91" y1="716.09" y2="810.00" />
<line x1="710.18" x2="710.18" y1="747.39" y2="810.00" />
<line x1="677.45" x2="677.45" y1="747.39" y2="810.00" />
<line x1="906.55" x2="906.55" y1="716.09" y2="810.00" />
<line x1="873.82" x2="873.82" y1="684.78" y2="810.00" />
<line x1="841.09" x2="841.09" y1="684.78" y2="810.00" />
<line x1="808.36" x2="808.36" y1="747.39" y2="810.00" />
<line x1="186.55" x2="186.55" y1="778.70" y2="810.00" />
<line x1="382.91" x2="382.91" y1="778.70" y2="810.00" />
<line x1="284.73" x2="284.73" y1="778.70" y2="810.00" />
<line x1="1037.45" x2="1037.45" y1="559.57" y2="810.00" />
<line x1="1004.73" x2="1004.73" y1="559.57" y2="810.00" />
<line x1="972.00" x2="972.00" y1="684.78" y2="810.00" />
<line x1="939.27" x2="939.27" y1="684.78" y2="810.00" />
<line x1="1168.36" x2="1168.36" y1="528.26" y2="810.00" />
<line x1="1135.64" x2="1135.64" y1="559.57" y2="810.00" />
<line x1="1102.91" x2="1102.91" y1="496.96" y2="810.00" />
<line x1="1070.18" x2="1070.18" y1="403.04" y2="810.00" />
<line x1="1299.27" x2="1299.27" y1="747.39" y2="810.00" />
<line x1="1266.55" x2="1266.55" y1="590.87" y2="810.00" />
<line x1="1233.82" x2="1233.82" y1="747.39" y2="810.00" />
<line x1="1201.09" x2="1201.09" y1="622.17" y2="810.00" />
<line x1="1364.73" x2="1364.73" y1="778.70" y2="810.00" />
<line x1="1332.00" x2="1332.00" y1="684.78" y2="810.00" />
<line x1="1397.45" x2="1397.45" y1="747.39" y2="810.00" />
<line x1="1593.82" x2="1593.82" y1="778.70" y2="810.00" />
</g>
<g stroke="black">
<line x1="785.45" x2="785.45" y1="810.00" y2="820.00" />
<line x1="1440.00" x2="1440.00" y1="810.00" y2="820.00" />
<g fill="black" font-family="Arial, sans-serif" font-size="25.0" stroke="none" text-anchor="start" transform="translate(12.5 0.0)">
<text x="785.45" y="838.57">-10</text>
<text x="1440.00" y="838.57">0</text>
</g>
<line x1="180.00" x2="1620.00" y1="810.00" y2="810.00" />
</g>
<g stroke="black">
<line x1="180.00" x2="163.33" y1="810.00" y2="810.00" />
<line x1="180.00" x2="163.33" y1="496.96" y2="496.96" />
<line x1="180.00" x2="163.33" y1="183.91" y2="183.91" />
<g fill="black" font-family="Arial, sans-serif" font-size="25.0" stroke="none" text-anchor="end">
<text x="167.50" y="797.50">0</text>
<text x="167.50" y="484.46">10</text>
<text x="167.50" y="171.41">20</text>
</g>
<line x1="180.00" x2="180.00" y1="810.00" y2="90.00" />
</g>
</g>
<g>
<g>
<text dominant-baseline="hanging" dx="-25.0" dy="25.0" fill="#0088" font-family="Arial, sans-serif" font-size="25.0" font-style="italic" stroke="none" text-anchor="end" text-orientation="sideways" text="eCDF" x="1620.00" y="90.00">eCDF</text>
</g>
<polyline fill="none" points="1527.08,810.00 1527.08,802.50 1449.35,802.50 1449.35,795.00 1414.85,795.00 1414.85,787.50 1394.84,787.50 1394.84,780.00 1387.79,780.00 1387.79,772.50 1383.60,772.50 1383.60,765.00 1383.36,765.00 1383.36,757.50 1374.28,757.50 1374.28,750.00 1370.31,750.00 1370.31,742.50 1355.86,742.50 1355.86,735.00 1344.25,735.00 1344.25,727.50 1337.52,727.50 1337.52,720.00 1332.26,720.00 1332.26,712.50 1310.63,712.50 1310.63,705.00 1302.17,705.00 1302.17,697.50 1300.30,697.50 1300.30,690.00 1288.26,690.00 1288.26,682.50 1283.10,682.50 1283.10,675.00 1270.65,675.00 1270.65,667.50 1260.91,667.50 1260.91,660.00 1254.09,660.00 1254.09,652.50 1245.72,652.50 1245.72,645.00 1245.09,645.00 1245.09,637.50 1244.44,637.50 1244.44,630.00 1241.81,630.00 1241.81,622.50 1241.81,622.50 1241.81,615.00 1233.43,615.00 1233.43,607.50 1232.64,607.50 1232.64,600.00 1228.70,600.00 1228.70,592.50 1215.59,592.50 1215.59,585.00 1212.32,585.00 1212.32,577.50 1209.04,577.50 1209.04,570.00 1209.04,570.00 1209.04,562.50 1209.03,562.50 1209.03,555.00 1202.76,555.00 1202.76,547.50 1201.83,547.50 1201.83,540.00 1201.17,540.00 1201.17,532.50 1201.10,532.50 1201.10,525.00 1199.21,525.00 1199.21,517.50 1195.40,517.50 1195.40,510.00 1194.62,510.00 1194.62,502.50 1193.31,502.50 1193.31,495.00 1190.69,495.00 1190.69,487.50 1179.54,487.50 1179.54,480.00 1176.27,480.00 1176.27,472.50 1174.70,472.50 1174.70,465.00 1169.71,465.00 1169.71,457.50 1169.16,457.50 1169.16,450.00 1163.81,450.00 1163.81,442.50 1161.64,442.50 1161.64,435.00 1160.92,435.00 1160.92,427.50 1157.26,427.50 1157.26,420.00 1145.34,420.00 1145.34,412.50 1144.70,412.50 1144.70,405.00 1143.50,405.00 1143.50,397.50 1138.38,397.50 1138.38,390.00 1134.97,390.00 1134.97,382.50 1125.58,382.50 1125.58,375.00 1117.28,375.00 1117.28,367.50 1115.70,367.50 1115.70,360.00 1110.72,360.00 1110.72,352.50 1104.17,352.50 1104.17,345.00 1095.86,345.00 1095.86,337.50 1081.88,337.50 1081.88,330.00 1076.64,330.00 1076.64,322.50 1075.37,322.50 1075.37,315.00 1071.40,315.00 1071.40,307.50 1066.02,307.50 1066.02,300.00 1053.70,300.00 1053.70,292.50 1051.73,292.50 1051.73,285.00 1051.73,285.00 1051.73,277.50 1048.46,277.50 1048.46,270.00 1041.64,270.00 1041.64,262.50 1040.59,262.50 1040.59,255.00 1037.97,255.00 1037.97,247.50 1031.42,247.50 1031.42,240.00 1030.10,240.00 1030.10,232.50 999.26,232.50 999.26,225.00 986.06,225.00 986.06,217.50 971.12,217.50 971.12,210.00 967.84,210.00 967.84,202.50 960.63,202.50 960.63,195.00 957.35,195.00 957.35,187.50 953.42,187.50 953.42,180.00 942.93,180.00 942.93,172.50 933.83,172.50 933.83,165.00 933.76,165.00 933.76,157.50 920.65,157.50 920.65,150.00 918.02,150.00 918.02,142.50 887.87,142.50 887.87,135.00 879.35,135.00 879.35,127.50 838.72,127.50 838.72,120.00 795.98,120.00 795.98,112.50 765.96,112.50 765.96,105.00 612.04,105.00 612.04,97.50 586.37,97.50 586.37,90.00" stroke-width="3.6" stroke="#aa8800" />
<polyline fill="none" points="1620.00,810.00 1620.00,804.15 1403.57,804.15 1403.57,798.29 1393.87,798.29 1393.87,792.44 1370.74,792.44 1370.74,786.59 1359.25,786.59 1359.25,780.73 1356.23,780.73 1356.23,774.88 1344.06,774.88 1344.06,769.02 1327.67,769.02 1327.67,763.17 1315.88,763.17 1315.88,757.32 1300.80,757.32 1300.80,751.46 1293.88,751.46 1293.88,745.61 1293.59,745.61 1293.59,739.76 1287.69,739.76 1287.69,733.90 1281.14,733.90 1281.14,728.05 1276.55,728.05 1276.55,722.20 1274.58,722.20 1274.58,716.34 1261.47,716.34 1261.47,710.49 1250.69,710.49 1250.69,704.63 1241.81,704.63 1241.81,698.78 1223.46,698.78 1223.46,692.93 1221.24,692.93 1221.24,687.07 1219.27,687.07 1219.27,681.22 1213.43,681.22 1213.43,675.37 1212.71,675.37 1212.71,669.51 1202.49,669.51 1202.49,663.66 1192.78,663.66 1192.78,657.80 1192.65,657.80 1192.65,651.95 1188.72,651.95 1188.72,646.10 1188.07,646.10 1188.07,640.24 1188.07,640.24 1188.07,634.39 1185.44,634.39 1185.44,628.54 1182.82,628.54 1182.82,622.68 1181.80,622.68 1181.80,616.83 1164.47,616.83 1164.47,610.98 1158.95,610.98 1158.95,605.12 1156.60,605.12 1156.60,599.27 1156.60,599.27 1156.60,593.41 1148.08,593.41 1148.08,587.56 1144.81,587.56 1144.81,581.71 1140.87,581.71 1140.87,575.85 1140.73,575.85 1140.73,570.00 1132.30,570.00 1132.30,564.15 1128.03,564.15 1128.03,558.29 1124.16,558.29 1124.16,552.44 1123.83,552.44 1123.83,546.59 1123.83,546.59 1123.83,540.73 1119.81,540.73 1119.81,534.88 1112.69,534.88 1112.69,529.02 1109.84,529.02 1109.84,523.17 1104.82,523.17 1104.82,517.32 1104.17,517.32 1104.17,511.46 1104.17,511.46 1104.17,505.61 1097.61,505.61 1097.61,499.76 1096.96,499.76 1096.96,493.90 1095.65,493.90 1095.65,488.05 1094.34,488.05 1094.34,482.20 1093.68,482.20 1093.68,476.34 1091.72,476.34 1091.72,470.49 1091.72,470.49 1091.72,464.63 1091.06,464.63 1091.06,458.78 1088.56,458.78 1088.56,452.93 1087.13,452.93 1087.13,447.07 1077.44,447.07 1077.44,441.22 1071.40,441.22 1071.40,435.37 1068.45,435.37 1068.45,429.51 1058.64,429.51 1058.64,423.66 1057.63,423.66 1057.63,417.80 1057.43,417.80 1057.43,411.95 1056.32,411.95 1056.32,406.10 1051.73,406.10 1051.73,400.24 1045.18,400.24 1045.18,394.39 1040.98,394.39 1040.98,388.54 1039.94,388.54 1039.94,382.68 1027.37,382.68 1027.37,376.83 1023.55,376.83 1023.55,370.98 1020.27,370.98 1020.27,365.12 1018.96,365.12 1018.96,359.27 1013.49,359.27 1013.49,353.41 1006.85,353.41 1006.85,347.56 1001.27,347.56 1001.27,341.71 999.95,341.71 999.95,335.85 985.53,335.85 985.53,330.00 974.39,330.00 974.39,324.15 972.36,324.15 972.36,318.29 967.51,318.29 967.51,312.44 965.87,312.44 965.87,306.59 959.22,306.59 959.22,300.73 937.03,300.73 937.03,294.88 934.41,294.88 934.41,289.02 921.30,289.02 921.30,283.17 919.65,283.17 919.65,277.32 912.78,277.32 912.78,271.46 891.15,271.46 891.15,265.61 889.84,265.61 889.84,259.76 881.32,259.76 881.32,253.90 878.58,253.90 878.58,248.05 855.76,248.05 855.76,242.20 840.15,242.20 840.15,236.34 840.03,236.34 840.03,230.49 839.98,230.49 839.98,224.63 830.20,224.63 830.20,218.78 809.88,218.78 809.88,212.93 791.52,212.93 791.52,207.07 788.90,207.07 788.90,201.22 767.93,201.22 767.93,195.37 759.04,195.37 759.04,189.51 750.89,189.51 750.89,183.66 733.46,183.66 733.46,177.80 715.49,177.80 715.49,171.95 689.93,171.95 689.93,166.10 687.13,166.10 687.13,160.24 670.27,160.24 670.27,154.39 665.03,154.39 665.03,148.54 650.76,148.54 650.76,142.68 564.65,142.68 564.65,136.83 504.44,136.83 504.44,130.98 500.51,130.98 500.51,125.12 468.39,125.12 468.39,119.27 467.74,119.27 467.74,113.41 455.94,113.41 455.94,107.56 394.98,107.56 394.98,101.71 304.53,101.71 304.53,95.85 180.00,95.85 180.00,90.00" stroke-width="3.6" stroke="#00aa88" />
<polyline fill="none" points="1620.00,810.00 1620.00,806.71 1527.08,806.71 1527.08,803.42 1449.35,803.42 1449.35,800.14 1414.85,800.14 1414.85,796.85 1403.57,796.85 1403.57,793.56 1394.84,793.56 1394.84,790.27 1393.87,790.27 1393.87,786.99 1387.79,786.99 1387.79,783.70 1383.60,783.70 1383.60,780.41 1383.36,780.41 1383.36,777.12 1374.28,777.12 1374.28,773.84 1370.74,773.84 1370.74,770.55 1370.31,770.55 1370.31,767.26 1359.25,767.26 1359.25,763.97 1356.23,763.97 1356.23,760.68 1355.86,760.68 1355.86,757.40 1344.25,757.40 1344.25,754.11 1344.06,754.11 1344.06,750.82 1337.52,750.82 1337.52,747.53 1332.26,747.53 1332.26,744.25 1327.67,744.25 1327.67,740.96 1315.88,740.96 1315.88,737.67 1310.63,737.67 1310.63,734.38 1302.17,734.38 1302.17,731.10 1300.80,731.10 1300.80,727.81 1300.30,727.81 1300.30,724.52 1293.88,724.52 1293.88,721.23 1293.59,721.23 1293.59,717.95 1288.26,717.95 1288.26,714.66 1287.69,714.66 1287.69,711.37 1283.10,711.37 1283.10,708.08 1281.14,708.08 1281.14,704.79 1276.55,704.79 1276.55,701.51 1274.58,701.51 1274.58,698.22 1270.65,698.22 1270.65,694.93 1261.47,694.93 1261.47,691.64 1260.91,691.64 1260.91,688.36 1254.09,688.36 1254.09,685.07 1250.69,685.07 1250.69,681.78 1245.72,681.78 1245.72,678.49 1245.09,678.49 1245.09,675.21 1244.44,675.21 1244.44,671.92 1241.81,671.92 1241.81,668.63 1241.81,668.63 1241.81,665.34 1241.81,665.34 1241.81,662.05 1233.43,662.05 1233.43,658.77 1232.64,658.77 1232.64,655.48 1228.70,655.48 1228.70,652.19 1223.46,652.19 1223.46,648.90 1221.24,648.90 1221.24,645.62 1219.27,645.62 1219.27,642.33 1215.59,642.33 1215.59,639.04 1213.43,639.04 1213.43,635.75 1212.71,635.75 1212.71,632.47 1212.32,632.47 1212.32,629.18 1209.04,629.18 1209.04,625.89 1209.04,625.89 1209.04,622.60 1209.03,622.60 1209.03,619.32 1202.76,619.32 1202.76,616.03 1202.49,616.03 1202.49,612.74 1201.83,612.74 1201.83,609.45 1201.17,609.45 1201.17,606.16 1201.10,606.16 1201.10,602.88 1199.21,602.88 1199.21,599.59 1195.40,599.59 1195.40,596.30 1194.62,596.30 1194.62,593.01 1193.31,593.01 1193.31,589.73 1192.78,589.73 1192.78,586.44 1192.65,586.44 1192.65,583.15 1190.69,583.15 1190.69,579.86 1188.72,579.86 1188.72,576.58 1188.07,576.58 1188.07,573.29 1188.07,573.29 1188.07,570.00 1185.44,570.00 1185.44,566.71 1182.82,566.71 1182.82,563.42 1181.80,563.42 1181.80,560.14 1179.54,560.14 1179.54,556.85 1176.27,556.85 1176.27,553.56 1174.70,553.56 1174.70,550.27 1169.71,550.27 1169.71,546.99 1169.16,546.99 1169.16,543.70 1164.47,543.70 1164.47,540.41 1163.81,540.41 1163.81,537.12 1161.64,537.12 1161.64,533.84 1160.92,533.84 1160.92,530.55 1158.95,530.55 1158.95,527.26 1157.26,527.26 1157.26,523.97 1156.60,523.97 1156.60,520.68 1156.60,520.68 1156.60,517.40 1148.08,517.40 1148.08,514.11 1145.34,514.11 1145.34,510.82 1144.81,510.82 1144.81,507.53 1144.70,507.53 1144.70,504.25 1143.50,504.25 1143.50,500.96 1140.87,500.96 1140.87,497.67 1140.73,497.67 1140.73,494.38 1138.38,494.38 1138.38,491.10 1134.97,491.10 1134.97,487.81 1132.30,487.81 1132.30,484.52 1128.03,484.52 1128.03,481.23 1125.58,481.23 1125.58,477.95 1124.16,477.95 1124.16,474.66 1123.83,474.66 1123.83,471.37 1123.83,471.37 1123.83,468.08 1119.81,468.08 1119.81,464.79 1117.28,464.79 1117.28,461.51 1115.70,461.51 1115.70,458.22 1112.69,458.22 1112.69,454.93 1110.72,454.93 1110.72,451.64 1109.84,451.64 1109.84,448.36 1104.82,448.36 1104.82,445.07 1104.17,445.07 1104.17,441.78 1104.17,441.78 1104.17,438.49 1104.17,438.49 1104.17,435.21 1097.61,435.21 1097.61,431.92 1096.96,431.92 1096.96,428.63 1095.86,428.63 1095.86,425.34 1095.65,425.34 1095.65,422.05 1094.34,422.05 1094.34,418.77 1093.68,418.77 1093.68,415.48 1091.72,415.48 1091.72,412.19 1091.72,412.19 1091.72,408.90 1091.06,408.90 1091.06,405.62 1088.56,405.62 1088.56,402.33 1087.13,402.33 1087.13,399.04 1081.88,399.04 1081.88,395.75 1077.44,395.75 1077.44,392.47 1076.64,392.47 1076.64,389.18 1075.37,389.18 1075.37,385.89 1071.40,385.89 1071.40,382.60 1071.40,382.60 1071.40,379.32 1068.45,379.32 1068.45,376.03 1066.02,376.03 1066.02,372.74 1058.64,372.74 1058.64,369.45 1057.63,369.45 1057.63,366.16 1057.43,366.16 1057.43,362.88 1056.32,362.88 1056.32,359.59 1053.70,359.59 1053.70,356.30 1051.73,356.30 1051.73,353.01 1051.73,353.01 1051.73,349.73 1051.73,349.73 1051.73,346.44 1048.46,346.44 1048.46,343.15 1045.18,343.15 1045.18,339.86 1041.64,339.86 1041.64,336.58 1040.98,336.58 1040.98,333.29 1040.59,333.29 1040.59,330.00 1039.94,330.00 1039.94,326.71 1037.97,326.71 1037.97,323.42 1031.42,323.42 1031.42,320.14 1030.10,320.14 1030.10,316.85 1027.37,316.85 1027.37,313.56 1023.55,313.56 1023.55,310.27 1020.27,310.27 1020.27,306.99 1018.96,306.99 1018.96,303.70 1013.49,303.70 1013.49,300.41 1006.85,300.41 1006.85,297.12 1001.27,297.12 1001.27,293.84 999.95,293.84 999.95,290.55 999.26,290.55 999.26,287.26 986.06,287.26 986.06,283.97 985.53,283.97 985.53,280.68 974.39,280.68 974.39,277.40 972.36,277.40 972.36,274.11 971.12,274.11 971.12,270.82 967.84,270.82 967.84,267.53 967.51,267.53 967.51,264.25 965.87,264.25 965.87,260.96 960.63,260.96 960.63,257.67 959.22,257.67 959.22,254.38 957.35,254.38 957.35,251.10 953.42,251.10 953.42,247.81 942.93,247.81 942.93,244.52 937.03,244.52 937.03,241.23 934.41,241.23 934.41,237.95 933.83,237.95 933.83,234.66 933.76,234.66 933.76,231.37 921.30,231.37 921.30,228.08 920.65,228.08 920.65,224.79 919.65,224.79 919.65,221.51 918.02,221.51 918.02,218.22 912.78,218.22 912.78,214.93 891.15,214.93 891.15,211.64 889.84,211.64 889.84,208.36 887.87,208.36 887.87,205.07 881.32,205.07 881.32,201.78 879.35,201.78 879.35,198.49 878.58,198.49 878.58,195.21 855.76,195.21 855.76,191.92 840.15,191.92 840.15,188.63 840.03,188.63 840.03,185.34 839.98,185.34 839.98,182.05 838.72,182.05 838.72,178.77 830.20,178.77 830.20,175.48 809.88,175.48 809.88,172.19 795.98,172.19 795.98,168.90 791.52,168.90 791.52,165.62 788.90,165.62 788.90,162.33 767.93,162.33 767.93,159.04 765.96,159.04 765.96,155.75 759.04,155.75 759.04,152.47 750.89,152.47 750.89,149.18 733.46,149.18 733.46,145.89 715.49,145.89 715.49,142.60 689.93,142.60 689.93,139.32 687.13,139.32 687.13,136.03 670.27,136.03 670.27,132.74 665.03,132.74 665.03,129.45 650.76,129.45 650.76,126.16 612.04,126.16 612.04,122.88 586.37,122.88 586.37,119.59 564.65,119.59 564.65,116.30 504.44,116.30 504.44,113.01 500.51,113.01 500.51,109.73 468.39,109.73 468.39,106.44 467.74,106.44 467.74,103.15 455.94,103.15 455.94,99.86 394.98,99.86 394.98,96.58 304.53,96.58 304.53,93.29 180.00,93.29 180.00,90.00" stroke-width="3.6" stroke="#0007" />
<g stroke="#0088">
<line x1="1620.00" x2="1636.67" y1="810.00" y2="810.00" />
<line x1="1620.00" x2="1636.67" y1="90.00" y2="90.00" />
<g fill="#0088" font-family="Arial, sans-serif" font-size="25.0" stroke="none" text-anchor="beginning">
<text x="1632.50" y="797.50">0.0</text>
<text x="1632.50" y="77.50">1.0</text>
</g>
<line x1="1620.00" x2="1620.00" y1="810.00" y2="90.00" />
</g>
</g>
</g>
</svg>
</g>
</g>
</g>
</g>
</svg>