<?xml version='1.0' encoding='UTF-8' standalone='no'?>
<svg height="160pt" xmlns:xlink="http://www.w3.org/1999/xlink" viewBox="0 0 720 160" xmlns="http://www.w3.org/2000/svg" width="720pt">
 <title>Figure 1</title>
 <desc>
Creator: GL2PS 1.4.2, (C) 1999-2020 C. Geuzaine
For: Octave
CreationDate: Mon Jan 13 15:40:43 2025
</desc>
 <defs/>
 <polygon fill="#ffffff" points="0,0 720,0 720,160 0,160"/>
 <g>
  <polygon fill="#ffffff" points="0,160 720,160 720,0 0,0" shape-rendering="crispEdges"/>
  <clipPath id="cp00720160">
   <polygon points="0,160 720,160 720,0 0,0"/>
  </clipPath>
  <g clip-path="url(#cp00720160)">
   <polyline stroke="#0071bc" stroke-linejoin="round" fill="none" stroke-width="0.5" points="93.6007,57.9006 94.2982,64.707 94.9957,71.6533 95.6932,78.5665 96.3907,85.2755 97.0882,91.6156 97.7857,97.432 98.4832,102.584 99.1807,106.948 99.8782,110.422 100.576,112.924 101.273,114.398 101.971,114.816 102.668,114.172 103.366,112.489 104.063,109.817 104.761,106.228 105.458,101.818 106.156,96.7034 106.853,91.0164 107.551,84.9043 108.248,78.5246 108.946,72.0407 109.643,65.6188 110.341,59.4228 111.038,53.6108 111.736,48.3313 112.433,43.7192 113.131,39.8925 113.828,36.9495 114.526,34.9665 115.223,33.9957 115.921,34.0638 116.618,35.1716 117.316,37.2941 118.013,40.3804 118.711,44.3557 119.408,49.1227 120.106,54.564 120.803,60.5453 121.501,66.9181 122.198,73.5238 122.896,80.1973 123.593,86.7714 124.291,93.0804 124.988,98.9645 125.686,104.274 126.383,108.872 127.081,112.639 127.778,115.475 128.476,117.302 129.173,118.068 129.871,117.745 130.568,116.332 131.266,113.854 131.963,110.363 132.661,105.936 133.358,100.671 134.056,94.6904 134.753,88.1315 135.451,81.1481 136.148,73.9046 136.846,66.5728 137.543,59.3275 138.241,52.3427 138.938,45.7871 139.636,39.8201 140.333,34.5883 141.031,30.2216 141.728,26.8299 142.426,24.5011 143.123,23.2982 143.821,23.258 144.518,24.3902 145.216,26.6772 145.913,30.0739 146.611,34.5091 147.308,39.8871 148.006,46.0895 148.703,52.9783 149.401,60.3988 150.098,68.1835 150.796,76.1554 151.493,84.1328 152.191,91.9328 152.888,99.3763 153.586,106.291 154.283,112.518 154.981,117.912 155.678,122.347 156.376,125.719 157.073,127.947 157.771,128.978 158.468,128.784 159.166,127.367 159.863,124.756 160.561,121.007 161.258,116.202 161.956,110.448 162.653,103.874 163.351,96.6252 164.048,88.8648 164.746,80.7665 165.443,72.5118 166.141,64.2856 166.838,56.2721 167.536,48.6504 168.233,41.5905 168.931,35.2493 169.628,29.7674 170.326,25.2655 171.023,21.8417 171.721,19.5696 172.418,18.4965 173.116,18.6424 173.813,19.9996 174.511,22.5331 175.208,26.1811 175.906,30.8573 176.603,36.452 177.301,42.8355 177.998,49.8608 178.696,57.3668 179.393,65.1828 180.091,73.1316 180.788,81.0343 181.486,88.714 182.183,95.9999 182.881,102.731 183.578,108.762 184.276,113.96 184.973,118.217 185.671,121.445 186.368,123.58 187.066,124.584 187.763,124.445 188.461,123.178 189.158,120.821 189.856,117.441 190.553,113.124 191.251,107.98 191.948,102.134 192.646,95.7283 193.343,88.9162 194.041,81.8585 194.738,74.7203 195.436,67.6671 196.133,60.8606 196.831,54.4551 197.528,48.5938 198.226,43.4061 198.923,39.0039 199.621,35.4795 200.318,32.9038 201.016,31.3244 201.713,30.765 202.411,31.2247 203.108,32.6789 203.806,35.0794 204.503,38.3561 205.201,42.4187 205.898,47.1594 206.596,52.4552 207.293,58.1711 207.991,64.1637 208.688,70.2844 209.386,76.3832 210.083,82.3121 210.781,87.9291 211.478,93.1009 212.176,97.7068 212.873,101.641 213.571,104.815 214.268,107.16 214.966,108.628 215.663,109.194 216.361,108.854 217.058,107.628 217.756,105.555 218.453,102.698 219.151,99.1358 219.848,94.9668 220.546,90.3021 221.243,85.2647 221.941,79.986 222.638,74.6024 223.336,69.2523 224.033,64.0721 224.731,59.1933 225.428,54.7391 226.126,50.8214 226.823,47.5381 227.521,44.9706 228.218,43.182 228.916,42.2157 229.613,42.0941 230.311,42.8184 231.008,44.3683 231.706,46.7029 232.403,49.7615 233.101,53.4653 233.798,57.7193 234.496,62.4146 235.193,67.4314 235.891,72.6417 236.588,77.9123 237.286,83.1087 237.983,88.0979 238.681,92.7517 239.378,96.9502 240.076,100.584 240.773,103.559 241.471,105.796 242.168,107.232 242.866,107.828 243.563,107.563 244.261,106.436 244.958,104.469 245.656,101.706 246.353,98.2071 247.051,94.0543 247.748,89.3439 248.446,84.1872 249.143,78.7066 249.841,73.0332 250.538,67.3035 251.236,61.6561 251.933,56.2286 252.631,51.1538 253.328,46.5571 254.026,42.5531 254.723,39.243 255.421,36.712 256.118,35.0271 256.816,34.2361 257.513,34.3654 258.211,35.4202 258.908,37.3837 259.606,40.2178 260.303,43.8636 261.001,48.2431 261.698,53.2604 262.396,58.8046 263.093,64.7517 263.791,70.9677 264.488,77.312 265.186,83.64 265.883,89.8071 266.581,95.6714 267.278,101.098 267.976,105.96 268.673,110.145 269.371,113.554 270.068,116.106 270.766,117.739 271.463,118.412 272.161,118.105 272.858,116.822 273.556,114.586 274.253,111.444 274.951,107.463 275.648,102.728 276.346,97.3427 277.043,91.4245 277.741,85.1031 278.438,78.5173 279.136,71.812 279.833,65.1347 280.531,58.6325 281.228,52.4482 281.926,46.7178 282.623,41.5669 283.321,37.1082 284.018,33.4387 284.716,30.6379 285.413,28.7657 286.111,27.8616 286.808,27.9431 287.506,29.0061 288.203,31.0249 288.901,33.9524 289.598,37.7218 290.296,42.2479 290.993,47.4291 291.691,53.1498 292.388,59.2831 293.086,65.6934 293.783,72.2399 294.481,78.7795 295.178,85.1701 295.876,91.2739 296.573,96.96 297.271,102.108 297.968,106.61 298.666,110.373 299.363,113.321 300.061,115.398 300.758,116.565 301.456,116.807 302.153,116.126 302.851,114.547 303.548,112.113 304.246,108.887 304.943,104.949 305.641,100.392 306.338,95.3245 307.036,89.8629 307.733,84.1325 308.431,78.2627 309.128,72.3848 309.826,66.6285 310.523,61.1194 311.221,55.9759 311.918,51.3068 312.616,47.209 313.313,43.7649 314.011,41.0415 314.708,39.0884 315.406,37.9372 316.103,37.6007 316.801,38.0732 317.498,39.3307 318.196,41.3314 318.893,44.0174 319.591,47.3158 320.288,51.1407 320.986,55.3954 321.683,59.9749 322.381,64.768 323.078,69.6604 323.776,74.5373 324.473,79.2859 325.171,83.7981 325.868,87.9733 326.566,91.7199 327.263,94.9582 327.961,97.6215 328.658,99.6578 329.356,101.031 330.053,101.72 330.751,101.723 331.448,101.052 332.146,99.7363 332.843,97.8197 333.541,95.3601 334.238,92.4277 334.936,89.1031 335.633,85.4751 336.331,81.6388 337.028,77.693 337.726,73.738 338.423,69.8726 339.121,66.1926 339.818,62.7876 340.516,59.7396 341.213,57.1205 341.911,54.9909 342.608,53.3985 343.306,52.377 344.003,51.9455 344.701,52.1082 345.398,52.8544 346.096,54.1586 346.793,55.9816 347.491,58.2715 348.188,60.9648 348.886,63.9885 349.583,67.2612 350.281,70.6962 350.978,74.2028 351.676,77.6888 352.373,81.063 353.071,84.2373 353.768,87.1288 354.466,89.6619 355.163,91.7702 355.861,93.398 356.558,94.5018 357.256,95.0513 357.953,95.0301 358.651,94.4359 359.348,93.2812 360.046,91.5921 360.743,89.4087 361.441,86.783 362.138,83.7786 362.836,80.4687 363.533,76.9343 364.231,73.2626 364.928,69.5446 365.626,65.8728 366.323,62.3394 367.021,59.0337 367.718,56.0401 368.416,53.436 369.113,51.2901 369.811,49.6602 370.508,48.5926 371.206,48.12 371.903,48.2615 372.601,49.0215 373.298,50.3898 373.996,52.3418 374.693,54.8388 375.391,57.8289 376.088,61.2482 376.786,65.0224 377.483,69.0681 378.181,73.2948 378.878,77.6071 379.576,81.907 380.273,86.0957 380.971,90.0761 381.668,93.7553 382.366,97.0463 383.063,99.8702 383.761,102.158 384.458,103.853 385.156,104.91 385.853,105.299 386.551,105.005 387.248,104.026 387.946,102.378 388.643,100.091 389.341,97.209 390.038,93.789 390.736,89.9015 391.433,85.6269 392.131,81.0549 392.828,76.2823 393.526,71.4104 394.223,66.5437 394.921,61.7868 395.618,57.2424 396.316,53.0093 397.013,49.1796 397.711,45.8374 398.408,43.0563 399.106,40.8982 399.803,39.4117 400.501,38.6313 401.198,38.5761 401.896,39.2501 402.593,40.6414 403.291,42.7229 403.988,45.4526 404.686,48.7749 405.383,52.6212 406.081,56.9118 406.778,61.5578 407.476,66.4625 408.173,71.5236 408.871,76.6358 409.568,81.6926 410.266,86.5891 410.963,91.2234 411.661,95.4998 412.358,99.3301 413.056,102.636 413.753,105.349 414.451,107.416 415.148,108.795 415.846,109.46 416.543,109.4 417.241,108.619 417.938,107.136 418.636,104.985 419.333,102.215 420.031,98.8846 420.728,95.0673 421.426,90.8445 422.123,86.3062 422.821,81.5483 423.518,76.6708 424.216,71.7756 424.913,66.9642 425.611,62.3355 426.308,57.9839 427.006,53.9971 427.703,50.4547 428.401,47.4258 429.098,44.9683 429.796,43.1276 430.493,41.9355 431.191,41.4096 431.888,41.5535 432.586,42.3565 433.283,43.7938 433.981,45.8275 434.678,48.4076 435.376,51.4728 436.073,54.9521 436.771,58.7665 437.468,62.831 438.166,67.056 438.863,71.3496 439.561,75.6196 440.258,79.7756 440.956,83.7306 441.653,87.4034 442.351,90.7197 443.048,93.6142 443.746,96.0316 444.443,97.9277 445.141,99.2706 445.838,100.041 446.536,100.231 447.233,99.8487 447.931,98.912 448.628,97.4518 449.326,95.5103 450.023,93.1396 450.721,90.4005 451.418,87.3615 452.116,84.0964 452.813,80.6832 453.511,77.202 454.208,73.7333 454.906,70.3559 455.603,67.1453 456.301,64.1723 456.998,61.5008 457.696,59.187 458.393,57.2776 459.091,55.8097 459.788,54.8092 460.486,54.2905 461.183,54.2569 461.881,54.6997 462.578,55.5993 463.276,56.9254 463.973,58.638 464.671,60.688 465.368,63.0193 466.066,65.5692 466.763,68.2707 467.461,71.0538 468.158,73.8473 468.856,76.5803 469.553,79.1843 470.251,81.5944 470.948,83.7513 471.646,85.6023 472.343,87.1026 473.041,88.2166 473.738,88.9185 474.436,89.1931 475.133,89.0357 475.831,88.4529 476.528,87.4615 477.226,86.089 477.923,84.3723 478.621,82.3571 479.318,80.0964 480.016,77.6498 480.713,75.0816 481.411,72.4592 482.108,69.8518 482.806,67.3285 483.503,64.9566 484.201,62.7998 484.898,60.9171 485.596,59.3607 486.293,58.1753 486.991,57.3965 487.688,57.0499 488.386,57.151 489.083,57.7038 489.781,58.7014 490.478,60.1257 491.176,61.9476 491.873,64.1282 492.571,66.619 493.268,69.3631 493.966,72.297 494.663,75.3512 495.361,78.4526 496.058,81.5258 496.756,84.4946 497.453,87.2846 498.151,89.8241 498.848,92.0465 499.546,93.8917 500.243,95.3072 500.941,96.2503 501.638,96.6884 502.336,96.6003 503.033,95.9769 503.731,94.8212 504.428,93.1489 505.126,90.9879 505.823,88.3777 506.521,85.3689 507.218,82.0221 507.916,78.4068 508.613,74.5996 509.311,70.6828 510.008,66.7424 510.706,62.8666 511.403,59.1434 512.101,55.6586 512.798,52.4944 513.496,49.7267 514.193,47.4239 514.891,45.6452 515.588,44.4387 516.286,43.8409 516.983,43.875 517.681,44.5509 518.378,45.8643 519.076,47.7968 519.773,50.3164 520.471,53.3775 521.168,56.9223 521.866,60.8815 522.563,65.176 523.261,69.7185 523.958,74.415 524.656,79.1674 525.353,83.8749 526.051,88.4368 526.748,92.7543 527.446,96.7328 528.143,100.284 528.841,103.328 529.538,105.795 530.236,107.627 530.933,108.779 531.631,109.22 532.328,108.935 533.026,107.922 533.723,106.197 534.421,103.79 535.118,100.748 535.816,97.1276 536.513,93.0025 537.211,88.4554 537.908,83.579 538.606,78.4736 539.303,73.2451 540.001,68.0023 540.698,62.8551 541.396,57.9119 542.093,53.2772 542.791,49.0491 543.488,45.3179 544.186,42.1632 544.883,39.6529 545.581,37.841 546.278,36.7672 546.976,36.4552 547.673,36.9124 548.371,38.1302 549.068,40.0832 549.766,42.7307 550.463,46.0169 551.161,49.8721 551.858,54.2147 552.556,58.9523 553.253,63.9845 553.951,69.2041 554.648,74.5002 555.346,79.7604 556.043,84.8731 556.741,89.7302 557.438,94.2292 558.136,98.2755 558.833,101.785 559.531,104.685 560.228,106.916 560.926,108.433 561.623,109.209 562.321,109.231 563.018,108.502 563.716,107.045 564.413,104.893 565.111,102.101 565.808,98.7319 566.506,94.8648 567.203,90.5876 567.901,85.9974 568.598,81.1976 569.296,76.2956 569.993,71.4005 570.691,66.6206 571.388,62.0607 572.086,57.8201 572.783,53.9904 573.481,50.6531 574.178,47.8781 574.876,45.7218 575.573,44.2264 576.271,43.4186 576.968,43.3092 577.666,43.8929 578.363,45.1485 579.061,47.0393 579.758,49.5145 580.456,52.5098 581.153,55.9496 581.851,59.7482 582.548,63.8123 583.246,68.0432 583.943,72.3389 584.641,76.5966 585.338,80.7151 586.036,84.5975 586.733,88.1531 587.431,91.2995 588.128,93.965 588.826,96.0898 589.523,97.6276 590.221,98.5464 590.918,98.8299 591.616,98.477 592.313,97.5023 593.011,95.9356 593.708,93.8212 594.406,91.2164 595.103,88.1908 595.801,84.8239 596.498,81.2036 597.196,77.4237 597.893,73.5819 598.591,69.7771 599.288,66.1074 599.986,62.6672 600.683,59.545 601.381,56.8214 602.078,54.5671 602.776,52.8409 603.473,51.6882 604.171,51.1401 604.868,51.2125 605.566,51.9054 606.263,53.2033 606.961,55.0751 607.658,57.475 608.356,60.3435 609.053,63.6088 609.751,67.1887 610.448,70.9923 611.146,74.9224 611.843,78.8778 612.541,82.7557 613.238,86.4544 613.936,89.8758 614.633,92.9278 615.331,95.5265 616.028,97.5988 616.726,99.0837 617.423,99.9345 618.121,100.12 618.818,99.6237 619.516,98.4484 620.213,96.6121 620.911,94.1499 621.608,91.113 622.306,87.5672 623.003,83.592 623.701,79.2785 624.398,74.7275 625.096,70.047 625.793,65.3496 626.491,60.7502 627.188,56.3627 627.886,52.2979 628.583,48.6603 629.281,45.5455 629.978,43.0382 630.676,41.2097 631.373,40.1161 632.071,39.7967 632.768,40.2733 633.466,41.5488 634.163,43.6072 634.861,46.4141 635.558,49.9166 636.256,54.0448 636.953,58.7133 637.651,63.8225 638.348,69.2614 639.046,74.9096 639.743,80.6403 640.441,86.323 641.138,91.8265 641.836,97.0222 642.533,101.787 643.231,106.005 643.928,109.574 644.626,112.402 645.323,114.416 646.021,115.559 646.718,115.794 647.416,115.103 648.113,113.491 648.811,110.981 649.508,107.621 650.206,103.474 650.903,98.6241" stroke-linecap="butt"/>
  </g>
 </g>
</svg>
