<?xml version='1.0' encoding='UTF-8' standalone='no'?>
<svg viewBox="0 0 720 160" xmlns="http://www.w3.org/2000/svg" xmlns:xlink="http://www.w3.org/1999/xlink" width="720pt" height="160pt">
 <title>Figure 1</title>
 <desc>
Creator: GL2PS 1.4.2, (C) 1999-2020 C. Geuzaine
For: Octave
CreationDate: Mon Jan 13 15:38:40 2025
</desc>
 <defs/>
 <polygon fill="#ffffff" points="0,0 720,0 720,160 0,160"/>
 <g>
  <polygon fill="#ffffff" points="0,160 720,160 720,0 0,0" shape-rendering="crispEdges"/>
  <clipPath id="cp00720160">
   <polygon points="0,160 720,160 720,0 0,0"/>
  </clipPath>
  <g clip-path="url(#cp00720160)">
   <polyline fill="none" stroke-linecap="butt" stroke-linejoin="round" stroke="#0071bc" stroke-width="0.5" points="93.6007,82.5128 94.2982,86.5156 94.9957,89.0641 95.6932,89.9477 96.3907,89.1344 97.0882,86.771 97.7857,83.1645 98.4832,78.7457 99.1807,74.0216 99.8782,69.5189 100.576,65.7269 101.273,63.0449 101.971,61.7395 102.668,61.9178 103.366,63.5174 104.063,66.3156 104.761,69.956 105.458,73.9897 106.156,77.9268 106.853,81.2919 107.551,83.6782 108.248,84.7937 108.946,84.4944 109.643,82.8014 110.341,79.8998 111.038,76.1181 111.736,71.8931 112.433,67.7208 113.131,64.1017 113.828,61.4838 114.526,60.2113 115.223,60.4844 115.921,62.3339 116.618,65.6143 117.316,70.0162 118.013,75.0965 118.711,80.3238 119.408,85.1343 120.106,88.9916 120.803,91.4452 121.501,92.1801 122.198,91.0537 122.896,88.1141 123.593,83.5995 124.291,77.9172 124.988,71.6043 125.686,65.2756 126.383,59.5616 127.081,55.0442 127.778,52.1978 128.476,51.3392 129.173,52.5942 129.871,55.8826 130.568,60.9243 131.266,67.2652 131.963,74.3209 132.661,81.4333 133.358,87.9345 134.056,93.2122 134.753,96.769 135.451,98.2705 136.148,97.5768 136.846,94.7552 137.543,90.0722 138.241,83.966 138.938,77.0032 139.636,69.8229 140.333,63.0748 141.031,57.3579 141.728,53.1646 142.426,50.8366 143.123,50.5363 143.821,52.2369 144.518,55.73 145.216,60.6514 145.913,66.5205 146.611,72.7902 147.308,78.9005 148.006,84.3314 148.703,88.6501 149.401,91.5468 150.098,92.8567 150.796,92.5672 151.493,90.8089 152.191,87.8337 152.888,83.9819 153.586,79.6431 154.283,75.2144 154.981,71.0618 155.678,67.4879 156.376,64.7089 157.073,62.8428 157.771,61.9102 158.468,61.8452 159.166,62.5146 159.863,63.744 160.561,65.3444 161.258,67.1379 161.956,68.9785 162.653,70.7656 163.351,72.4484 164.048,74.022 164.746,75.516 165.443,76.9764 166.141,78.446 166.838,79.9448 167.536,81.4543 168.233,82.9083 168.931,84.1921 169.628,85.1505 170.326,85.6055 171.023,85.3792 171.721,84.3223 172.418,82.3416 173.116,79.4253 173.813,75.6604 174.511,71.24 175.208,66.4584 175.906,61.693 176.603,57.3748 177.301,53.9486 177.998,51.827 178.696,51.3444 179.393,52.7131 180.091,55.9901 180.788,61.0558 181.486,67.6108 182.183,75.1896 182.881,83.1934 183.578,90.9383 184.276,97.7156 184.973,102.858 185.671,105.807 186.368,106.171 187.066,103.775 187.763,98.686 188.461,91.2203 189.158,81.9264 189.856,71.5437 190.553,60.9422 191.251,51.0471 191.948,42.755 192.646,36.8502 193.343,33.929 194.041,34.3385 194.738,38.1381 195.436,45.0855 196.133,54.6518 196.831,66.0625 197.528,78.3631 198.226,90.5013 198.923,101.421 199.621,110.159 200.318,115.928 201.016,118.197 201.713,116.734 202.411,111.636 203.108,103.317 203.806,92.4764 204.503,80.0342 205.201,67.0527 205.898,54.6403 206.596,43.8534 207.293,35.6032 207.991,30.5762 208.688,29.1752 209.386,31.4867 210.083,37.2769 210.781,46.0163 211.478,56.9304 212.176,69.0717 212.873,81.4056 213.571,92.9021 214.268,102.625 214.966,109.811 215.663,113.931 216.361,114.729 217.058,112.233 217.756,106.749 218.453,98.8184 219.151,89.166 219.848,78.6305 220.546,68.0881 221.243,58.3765 221.941,50.2267 222.638,44.207 223.336,40.6847 224.033,39.8072 224.731,41.5037 225.428,45.5051 226.126,51.38 226.823,58.5817 227.521,66.5011 228.218,74.5205 228.916,82.0631 229.613,88.6345 230.311,93.8525 231.008,97.4643 231.706,99.3509 232.403,99.52 233.101,98.0891 233.798,95.2629 234.496,91.3068 235.193,86.5214 235.891,81.2186 236.588,75.7031 237.286,70.2588 237.983,65.1412 238.681,60.5742 239.378,56.7498 240.076,53.8302 240.773,51.9481 241.471,51.2066 242.168,51.6751 242.866,53.3826 243.563,56.3095 244.261,60.3769 244.958,65.4381 245.656,71.2729 246.353,77.5874 247.051,84.0211 247.748,90.1621 248.446,95.5708 249.143,99.811 249.841,102.486 250.538,103.278 251.236,101.983 251.933,98.5429 252.631,93.0652 253.328,85.8324 254.026,77.293 254.723,68.0379 255.421,58.7608 256.118,50.2057 256.816,43.1052 257.513,38.1155 258.211,35.7532 258.908,36.341 259.606,39.9678 260.303,46.4676 261.001,55.4208 261.698,66.1786 262.396,77.91 263.093,89.6671 263.791,100.464 264.488,109.364 265.186,115.561 265.883,118.46 266.581,117.732 267.278,113.355 267.976,105.62 268.673,95.1156 269.371,82.6823 270.068,69.343 270.766,56.216 271.463,44.4177 272.161,34.9641 272.858,28.6793 273.556,26.1208 274.253,27.5278 274.951,32.7976 275.648,41.4928 276.346,52.8786 277.043,65.987 277.741,79.7019 278.438,92.858 279.136,104.343 279.833,113.197 280.531,118.692 281.228,120.401 281.926,118.223 282.623,112.399 283.321,103.475 284.018,92.2594 284.716,79.7397 285.413,66.9971 286.111,55.1078 286.808,45.0489 287.506,37.6158 288.203,33.3567 288.901,32.532 289.598,35.1004 290.296,40.7326 290.993,48.8497 291.691,58.6835 292.388,69.3511 293.086,79.9367 293.783,89.5727 294.481,97.5136 295.178,103.195 295.876,106.271 296.573,106.637 297.271,104.42 297.968,99.9551 298.666,93.7429 299.363,86.3945 300.061,78.5707 300.758,70.9202 301.456,64.0249 302.153,58.3551 302.851,54.2389 303.548,51.8476 304.246,51.1969 304.943,52.1629 305.641,54.5089 306.338,57.9202 307.036,62.0419 307.733,66.5156 308.431,71.0107 309.128,75.2488 309.826,79.018 310.523,82.1772 311.221,84.652 311.918,86.4232 312.616,87.5111 313.313,87.9582 314.011,87.8135 314.708,87.1211 315.406,85.914 316.103,84.2145 316.801,82.0408 317.498,79.4171 318.196,76.3878 318.893,73.0296 319.591,69.4622 320.288,65.8528 320.986,62.4131 321.683,59.3894 322.381,57.0438 323.078,55.6298 323.776,55.3641 324.473,56.3971 325.171,58.7874 325.868,62.482 326.566,67.3068 327.263,72.9687 327.961,79.0707 328.658,85.1399 329.356,90.6651 330.053,95.1428 330.751,98.1256 331.448,99.2691 332.146,98.3717 332.843,95.4033 333.541,90.5184 334.238,84.0521 334.936,76.4984 335.633,68.4717 336.331,60.6546 337.028,53.7371 337.726,48.3527 338.423,45.0166 339.121,44.0743 339.818,45.664 340.516,49.6979 341.213,55.8645 341.911,63.6529 342.608,72.3959 343.306,81.3294 344.003,89.6622 344.701,96.6491 345.398,101.661 346.096,104.245 346.793,104.168 347.491,101.438 348.188,96.3087 348.886,89.2506 349.583,80.9111 350.281,72.0521 350.978,63.4778 351.676,55.9593 352.373,50.1619 353.071,46.5835 353.768,45.509 354.466,46.9859 355.163,50.823 355.861,56.6122 356.558,63.771 357.256,71.6017 357.953,79.36 358.651,86.3282 359.348,91.8836 360.046,95.5566 360.743,97.0725 361.441,96.3732 362.138,93.6163 362.836,89.1541 363.533,83.4918 364.231,77.2329 364.928,71.0155 365.626,65.4469 366.323,61.0434 367.021,58.1807 367.718,57.0607 368.416,57.6973 369.113,59.9219 369.811,63.408 370.508,67.7116 371.206,72.3232 371.903,76.7248 372.601,80.446 373.298,83.1137 373.996,84.4896 374.693,84.4915 375.391,83.1975 376.088,80.8321 376.786,77.7356 377.483,74.3228 378.181,71.0326 378.878,68.2769 379.576,66.3932 380.273,65.6064 380.971,66.004 381.668,67.5277 382.366,69.981 383.063,73.0536 383.761,76.358 384.458,79.4753 385.156,82.0042 385.853,83.6084 386.551,84.0561 387.248,83.2484 387.946,81.2321 388.643,78.1966 389.341,74.4541 390.038,70.4065 390.736,66.5013 391.433,63.1822 392.131,60.84 392.828,59.7683 393.526,60.1296 394.223,61.9354 394.921,65.0426 395.618,69.1664 396.316,73.909 397.013,78.7998 397.711,83.3448 398.408,87.0779 399.106,89.6099 399.803,90.6696 400.501,90.1327 401.198,88.0349 401.896,84.5692 402.593,80.0658 403.291,74.9587 403.988,69.7408 404.686,64.914 405.383,60.9382 406.081,58.1851 406.778,56.9019 407.476,57.188 408.173,58.9872 408.871,62.0964 409.568,66.1888 410.266,70.85 410.963,75.622 411.661,80.0504 412.358,83.7311 413.056,86.3489 413.753,87.7071 414.451,87.7431 415.148,86.5289 415.846,84.2584 416.543,81.2207 417.241,77.7655 417.938,74.2624 418.636,71.0601 419.333,68.4495 420.031,66.635 420.728,65.717 421.426,65.6867 422.123,66.4344 422.821,67.7692 423.518,69.4473 424.216,71.2064 424.913,72.7999 425.611,74.0292 426.308,74.7676 427.006,74.9752 427.703,74.7014 428.401,74.0755 429.098,73.2865 429.796,72.5545 430.493,72.0981 431.191,72.1001 431.888,72.6786 432.586,73.8647 433.283,75.5918 433.981,77.6975 434.678,79.9381 435.376,82.0151 436.073,83.6102 436.771,84.426 437.468,84.2259 438.166,82.87 438.863,80.3418 439.561,76.7615 440.258,72.3848 440.956,67.5848 441.653,62.8202 442.351,58.5907 443.048,55.3851 443.746,53.6276 444.443,53.6269 445.141,55.5351 445.838,59.3213 446.536,64.7623 447.233,71.4533 447.931,78.8388 448.628,86.2597 449.326,93.0139 450.023,98.4243 450.721,101.907 451.418,103.034 452.116,101.581 452.813,97.5592 453.511,91.2242 454.208,83.0595 454.906,73.7395 455.603,64.0714 456.301,54.9226 456.998,47.14 457.696,41.47 458.393,38.4848 459.091,38.5251 459.788,41.6622 460.486,47.6864 461.183,56.1207 461.881,66.2603 462.578,77.2349 463.276,88.0857 463.973,97.8532 464.671,105.665 465.368,110.816 466.066,112.834 466.763,111.524 467.461,106.987 468.158,99.6089 468.856,90.0288 469.553,79.0783 470.251,67.7068 470.948,56.8954 471.646,47.5685 472.343,40.512 473.041,36.3052 473.738,35.2714 474.436,37.4537 475.133,42.6163 475.831,50.2706 476.528,59.7239 477.226,70.1454 477.923,80.6427 478.621,90.3415 479.318,98.4614 480.016,104.381 480.713,107.686 481.411,108.197 482.108,105.974 482.806,101.305 483.503,94.6641 484.201,86.6681 484.898,78.0118 485.596,69.4069 486.293,61.52 486.991,54.9202 487.688,50.0375 488.386,47.1376 489.083,46.3127 489.781,47.4877 490.478,50.4414 491.176,54.8382 491.873,60.2655 492.571,66.2752 493.268,72.4224 493.966,78.2988 494.663,83.5585 495.361,87.9345 496.058,91.2454 496.756,93.3935 497.453,94.3557 498.151,94.1705 498.848,92.9229 499.546,90.7294 500.243,87.7269 500.941,84.0639 501.638,79.8977 502.336,75.394 503.033,70.7298 503.731,66.0973 504.428,61.7054 505.126,57.7793 505.823,54.5546 506.521,52.266 507.218,51.1304 507.916,51.3269 508.613,52.9727 509.311,56.1017 510.008,60.6444 510.706,66.417 511.403,73.1181 512.101,80.3379 512.798,87.5793 513.496,94.2908 514.193,99.9086 514.891,103.906 515.588,105.844 516.286,105.418 516.983,102.499 517.681,97.1598 518.378,89.6839 519.076,80.557 519.773,70.438 520.471,60.1115 521.168,50.4263 521.866,42.2225 522.563,36.2567 523.261,33.1294 523.958,33.2237 524.656,36.6605 525.353,43.2764 526.051,52.6256 526.748,64.0091 527.446,76.5269 528.143,89.1517 528.841,100.816 529.538,110.504 530.236,117.348 530.933,120.704 531.631,120.216 532.328,115.856 533.026,107.929 533.723,97.0574 534.421,84.1245 535.118,70.2054 535.816,56.4722 536.513,44.0915 537.211,34.1224 537.908,27.4214 538.606,24.5669 539.303,25.8064 540.001,31.0348 540.698,39.8036 541.396,51.3604 542.093,64.7165 542.791,78.7343 543.488,92.2282 544.186,104.069 544.883,113.28 545.581,119.123 546.278,121.16 546.976,119.281 547.673,113.716 548.371,104.999 549.068,93.9255 549.766,81.4682 550.463,68.6939 551.161,56.6665 551.858,46.3558 552.556,38.5566 553.253,33.8262 553.951,32.4449 554.648,34.4026 555.346,39.4112 556.043,46.9417 556.741,56.2795 557.438,66.595 558.136,77.0194 558.833,86.7207 559.531,94.972 560.228,101.206 560.926,105.054 561.623,106.361 562.321,105.187 563.018,101.781 563.716,96.5507 564.413,90.0129 565.111,82.7418 565.808,75.317 566.506,68.2768 567.203,62.0788 567.901,57.0734 568.598,53.4892 569.296,51.4308 569.993,50.8888 570.691,51.7567 571.388,53.8548 572.086,56.9552 572.783,60.8062 573.481,65.153 574.178,69.7525 574.876,74.3835 575.573,78.8492 576.271,82.9767 576.968,86.6127 577.666,89.6186 578.363,91.8678 579.061,93.2443 579.758,93.6474 580.456,92.9989 581.153,91.2552 581.851,88.4207 582.548,84.5614 583.246,79.8157 583.943,74.4003 584.641,68.6085 585.338,62.7995 586.036,57.3793 586.733,52.7722 587.431,49.3862 588.128,47.5751 588.826,47.6001 589.523,49.5959 590.221,53.5459 590.918,59.2683 591.616,66.4178 592.313,74.5027 593.011,82.9174 593.708,90.9886 594.406,98.0312 595.103,103.41 595.801,106.597 596.498,107.231 597.196,105.154 597.893,100.436 598.591,93.3813 599.288,84.5111 599.986,74.5233 600.683,64.2376 601.381,54.5252 602.078,46.2317 602.776,40.1003 603.473,36.7016 604.171,36.3777 604.868,39.2064 605.566,44.9884 606.263,53.2605 606.961,63.3335 607.658,74.3505 608.356,85.3636 609.053,95.4176 609.751,103.637 610.448,109.307 611.146,111.935 611.843,111.301 612.541,107.474 613.238,100.808 613.936,91.9065 614.633,81.568 615.331,70.7123 616.028,60.2951 616.726,51.2209 617.423,44.2614 618.121,39.9862 618.818,38.7147 619.516,40.4903 620.213,45.0821 620.911,52.0117 621.608,60.6025 622.306,70.0466 623.003,79.483 623.701,88.0783 624.398,95.1031 625.096,99.9964 625.793,102.412 626.491,102.243 627.188,99.6235 627.886,94.9062 628.583,88.6201 629.281,81.413 629.978,73.9849 630.676,67.0188 631.373,61.1164 632.071,56.7441 632.768,54.1956 633.466,53.5728 634.163,54.787 634.861,57.5795 635.558,61.5573 636.256,66.2421 636.953,71.1237 637.651,75.7147 638.348,79.5993 639.046,82.4716 639.743,84.1595 640.441,84.6331 641.138,83.9969 641.836,82.4673 642.533,80.3388 643.231,77.944 643.928,75.6109 644.626,73.6235 645.323,72.1901 646.021,71.4222 646.718,71.3269 647.416,71.8121 648.113,72.7046 648.811,73.7779 649.508,74.786 650.206,75.499 650.903,75.736"/>
   <polyline fill="none" stroke-linecap="butt" stroke-linejoin="round" stroke="#ff0000" stroke-dasharray="9,7" stroke-width="0.5" points="93.6007,53.5447 94.2982,53.8197 94.9957,54.0919 95.6932,54.3597 96.3907,54.6214 97.0882,54.8756 97.7857,55.1206 98.4832,55.355 99.1807,55.5774 99.8782,55.7864 100.576,55.9808 101.273,56.1593 101.971,56.3208 102.668,56.4644 103.366,56.589 104.063,56.6939 104.761,56.7783 105.458,56.8417 106.156,56.8836 106.853,56.9035 107.551,56.9012 108.248,56.8766 108.946,56.8297 109.643,56.7606 110.341,56.6695 111.038,56.5568 111.736,56.4228 112.433,56.2683 113.131,56.0939 113.828,55.9004 114.526,55.6887 115.223,55.4598 115.921,55.2149 116.618,54.9551 117.316,54.6818 118.013,54.3962 118.711,54.0999 119.408,53.7943 120.106,53.481 120.803,53.1616 121.501,52.8378 122.198,52.5111 122.896,52.1833 123.593,51.8562 124.291,51.5315 124.988,51.2108 125.686,50.8959 126.383,50.5884 127.081,50.29 127.778,50.0024 128.476,49.7271 129.173,49.4655 129.871,49.2192 130.568,48.9896 131.266,48.7778 131.963,48.5851 132.661,48.4127 133.358,48.2614 134.056,48.1323 134.753,48.0261 135.451,47.9435 136.148,47.885 136.846,47.851 137.543,47.8419 138.241,47.8577 138.938,47.8986 139.636,47.9643 140.333,48.0546 141.031,48.1692 141.728,48.3075 142.426,48.4688 143.123,48.6523 143.821,48.8572 144.518,49.0823 145.216,49.3264 145.913,49.5883 146.611,49.8665 147.308,50.1595 148.006,50.4656 148.703,50.7831 149.401,51.1102 150.098,51.445 150.796,51.7855 151.493,52.1296 152.191,52.4753 152.888,52.8203 153.586,53.1624 154.283,53.4995 154.981,53.8294 155.678,54.1497 156.376,54.4581 157.073,54.7526 157.771,55.0308 158.468,55.2906 159.166,55.5298 159.863,55.7464 160.561,55.9383 161.258,56.1036 161.956,56.2404 162.653,56.347 163.351,56.4216 164.048,56.4628 164.746,56.4691 165.443,56.4392 166.141,56.372 166.838,56.2663 167.536,56.1213 168.233,55.9363 168.931,55.7106 169.628,55.444 170.326,55.136 171.023,54.7868 171.721,54.3963 172.418,53.9648 173.116,53.4928 173.813,52.9808 174.511,52.4297 175.208,51.8405 175.906,51.2141 176.603,50.5521 177.301,49.8557 177.998,49.1267 178.696,48.3668 179.393,47.5779 180.091,46.762 180.788,45.9215 181.486,45.0585 182.183,44.1755 182.881,43.2751 183.578,42.36 184.276,41.4328 184.973,40.4963 185.671,39.5536 186.368,38.6074 187.066,37.6608 187.763,36.7167 188.461,35.7784 189.158,34.8487 189.856,33.9307 190.553,33.0276 191.251,32.1422 191.948,31.2776 192.646,30.4366 193.343,29.6222 194.041,28.837 194.738,28.0838 195.436,27.3652 196.133,26.6837 196.831,26.0416 197.528,25.4411 198.226,24.8844 198.923,24.3733 199.621,23.9097 200.318,23.4952 201.016,23.1311 201.713,22.8189 202.411,22.5594 203.108,22.3537 203.806,22.2024 204.503,22.106 205.201,22.0647 205.898,22.0787 206.596,22.1478 207.293,22.2716 207.991,22.4497 208.688,22.6812 209.386,22.9652 210.083,23.3006 210.781,23.686 211.478,24.1198 212.176,24.6003 212.873,25.1256 213.571,25.6936 214.268,26.302 214.966,26.9484 215.663,27.6303 216.361,28.3449 217.058,29.0894 217.756,29.8608 218.453,30.656 219.151,31.472 219.848,32.3054 220.546,33.1529 221.243,34.0111 221.941,34.8767 222.638,35.7461 223.336,36.6158 224.033,37.4825 224.731,38.3425 225.428,39.1925 226.126,40.029 226.823,40.8487 227.521,41.6482 228.218,42.4244 228.916,43.174 229.613,43.8941 230.311,44.5816 231.008,45.2339 231.706,45.8481 232.403,46.4219 233.101,46.9529 233.798,47.4387 234.496,47.8775 235.193,48.2674 235.891,48.6068 236.588,48.8941 237.286,49.1282 237.983,49.308 238.681,49.4327 239.378,49.5017 240.076,49.5147 240.773,49.4714 241.471,49.372 242.168,49.2166 242.866,49.0059 243.563,48.7406 244.261,48.4215 244.958,48.05 245.656,47.6272 246.353,47.1549 247.051,46.6347 247.748,46.0687 248.446,45.459 249.143,44.808 249.841,44.118 250.538,43.3918 251.236,42.6322 251.933,41.8421 252.631,41.0245 253.328,40.1827 254.026,39.3198 254.723,38.4393 255.421,37.5445 256.118,36.6391 256.816,35.7264 257.513,34.8102 258.211,33.8939 258.908,32.9812 259.606,32.0756 260.303,31.1808 261.001,30.3003 261.698,29.4375 262.396,28.5958 263.093,27.7787 263.791,26.9893 264.488,26.2308 265.186,25.5063 265.883,24.8186 266.581,24.1705 267.278,23.5646 267.976,23.0035 268.673,22.4893 269.371,22.0243 270.068,21.6104 270.766,21.2492 271.463,20.9424 272.161,20.6914 272.858,20.4972 273.556,20.3607 274.253,20.2828 274.951,20.2639 275.648,20.3042 276.346,20.4038 277.043,20.5627 277.741,20.7803 278.438,21.0561 279.136,21.3894 279.833,21.779 280.531,22.2238 281.228,22.7224 281.926,23.2731 282.623,23.8742 283.321,24.5237 284.018,25.2195 284.716,25.9592 285.413,26.7404 286.111,27.5605 286.808,28.4169 287.506,29.3066 288.203,30.2267 288.901,31.1742 289.598,32.146 290.296,33.1388 290.993,34.1494 291.691,35.1745 292.388,36.2107 293.086,37.2549 293.783,38.3034 294.481,39.3532 295.178,40.4007 295.876,41.4428 296.573,42.4761 297.271,43.4976 297.968,44.504 298.666,45.4924 299.363,46.4598 300.061,47.4034 300.758,48.3204 301.456,49.2084 302.153,50.0648 302.851,50.8873 303.548,51.6738 304.246,52.4223 304.943,53.1309 305.641,53.798 306.338,54.4221 307.036,55.0019 307.733,55.5363 308.431,56.0243 309.128,56.4652 309.826,56.8586 310.523,57.2039 311.221,57.5011 311.918,57.7502 312.616,57.9514 313.313,58.1052 314.011,58.212 314.708,58.2728 315.406,58.2883 316.103,58.2598 316.801,58.1886 317.498,58.0759 318.196,57.9236 318.893,57.7331 319.591,57.5065 320.288,57.2457 320.986,56.9527 321.683,56.6298 322.381,56.2792 323.078,55.9034 323.776,55.5047 324.473,55.0857 325.171,54.6489 325.868,54.1969 326.566,53.7323 327.263,53.2577 327.961,52.7758 328.658,52.2892 329.356,51.8006 330.053,51.3124 330.751,50.8272 331.448,50.3476 332.146,49.8759 332.843,49.4144 333.541,48.9655 334.238,48.5314 334.936,48.1141 335.633,47.7156 336.331,47.3377 337.028,46.9822 337.726,46.6508 338.423,46.3448 339.121,46.0657 339.818,45.8146 340.516,45.5925 341.213,45.4005 341.911,45.2391 342.608,45.1091 343.306,45.0108 344.003,44.9446 344.701,44.9106 345.398,44.9086 346.096,44.9387 346.793,45.0003 347.491,45.0932 348.188,45.2165 348.886,45.3697 349.583,45.5517 350.281,45.7617 350.978,45.9983 351.676,46.2604 352.373,46.5467 353.071,46.8556 353.768,47.1856 354.466,47.5351 355.163,47.9023 355.861,48.2855 356.558,48.6828 357.256,49.0923 357.953,49.5121 358.651,49.9403 359.348,50.3749 360.046,50.8138 360.743,51.2551 361.441,51.6969 362.138,52.1371 362.836,52.5738 363.533,53.0052 364.231,53.4294 364.928,53.8445 365.626,54.2489 366.323,54.6409 367.021,55.019 367.718,55.3816 368.416,55.7272 369.113,56.0547 369.811,56.3629 370.508,56.6505 371.206,56.9166 371.903,57.1605 372.601,57.3812 373.298,57.5783 373.996,57.7511 374.693,57.8994 375.391,58.0229 376.088,58.1214 376.786,58.195 377.483,58.2438 378.181,58.2681 378.878,58.2682 379.576,58.2447 380.273,58.1981 380.971,58.1293 381.668,58.0389 382.366,57.928 383.063,57.7975 383.761,57.6487 384.458,57.4826 385.156,57.3006 385.853,57.104 386.551,56.8942 387.248,56.6728 387.946,56.4411 388.643,56.2007 389.341,55.9532 390.038,55.7002 390.736,55.4432 391.433,55.184 392.131,54.924 392.828,54.665 393.526,54.4083 394.223,54.1556 394.921,53.9082 395.618,53.6678 396.316,53.4356 397.013,53.213 397.711,53.0011 398.408,52.8012 399.106,52.6144 399.803,52.4416 400.501,52.2837 401.198,52.1414 401.896,52.0156 402.593,51.9068 403.291,51.8154 403.988,51.7417 404.686,51.686 405.383,51.6484 406.081,51.6289 406.778,51.6273 407.476,51.6434 408.173,51.6768 408.871,51.7269 409.568,51.7932 410.266,51.8749 410.963,51.9712 411.661,52.0811 412.358,52.2035 413.056,52.3373 413.753,52.4813 414.451,52.634 415.148,52.7941 415.846,52.96 416.543,53.1303 417.241,53.3032 417.938,53.4771 418.636,53.6503 419.333,53.821 420.031,53.9875 420.728,54.1479 421.426,54.3005 422.123,54.4434 422.821,54.5749 423.518,54.6932 424.216,54.7965 424.913,54.8832 425.611,54.9516 426.308,55.0001 427.006,55.0273 427.703,55.0315 428.401,55.0115 429.098,54.9661 429.796,54.8939 430.493,54.7939 431.191,54.6653 431.888,54.507 432.586,54.3185 433.283,54.0991 433.981,53.8484 434.678,53.566 435.376,53.2517 436.073,52.9056 436.771,52.5277 437.468,52.1184 438.166,51.6779 438.863,51.2069 439.561,50.7061 440.258,50.1763 440.956,49.6185 441.653,49.0338 442.351,48.4236 443.048,47.7892 443.746,47.1322 444.443,46.4542 445.141,45.757 445.838,45.0425 446.536,44.3127 447.233,43.5698 447.931,42.8158 448.628,42.0531 449.326,41.284 450.023,40.5109 450.721,39.7362 451.418,38.9625 452.116,38.1923 452.813,37.4281 453.511,36.6725 454.208,35.9281 454.906,35.1974 455.603,34.4829 456.301,33.7871 456.998,33.1126 457.696,32.4616 458.393,31.8365 459.091,31.2396 459.788,30.673 460.486,30.1388 461.183,29.639 461.881,29.1755 462.578,28.7498 463.276,28.3637 463.973,28.0186 464.671,27.7158 465.368,27.4564 466.066,27.2415 466.763,27.0718 467.461,26.948 468.158,26.8705 468.856,26.8398 469.553,26.8557 470.251,26.9185 470.948,27.0276 471.646,27.1828 472.343,27.3833 473.041,27.6284 473.738,27.9171 474.436,28.2481 475.133,28.6203 475.831,29.0319 476.528,29.4814 477.226,29.967 477.923,30.4865 478.621,31.0379 479.318,31.6188 480.016,32.2269 480.713,32.8596 481.411,33.5143 482.108,34.1881 482.806,34.8783 483.503,35.5819 484.201,36.296 484.898,37.0174 485.596,37.743 486.293,38.4698 486.991,39.1946 487.688,39.9142 488.386,40.6254 489.083,41.3251 489.781,42.0103 490.478,42.6777 491.176,43.3245 491.873,43.9476 492.571,44.5443 493.268,45.1117 493.966,45.6471 494.663,46.1481 495.361,46.6121 496.058,47.037 496.756,47.4206 497.453,47.7608 498.151,48.0559 498.848,48.3042 499.546,48.5042 500.243,48.6547 500.941,48.7547 501.638,48.8031 502.336,48.7993 503.033,48.7429 503.731,48.6336 504.428,48.4713 505.126,48.2562 505.823,47.9887 506.521,47.6693 507.218,47.2988 507.916,46.8784 508.613,46.409 509.311,45.8923 510.008,45.3298 510.706,44.7233 511.403,44.0748 512.101,43.3864 512.798,42.6605 513.496,41.8997 514.193,41.1065 514.891,40.2838 515.588,39.4344 516.286,38.5615 516.983,37.6682 517.681,36.7577 518.378,35.8335 519.076,34.8988 519.773,33.9572 520.471,33.0123 521.168,32.0675 521.866,31.1264 522.563,30.1926 523.261,29.2697 523.958,28.3612 524.656,27.4706 525.353,26.6014 526.051,25.757 526.748,24.9406 527.446,24.1555 528.143,23.4048 528.841,22.6915 529.538,22.0185 530.236,21.3885 530.933,20.8041 531.631,20.2677 532.328,19.7816 533.026,19.3479 533.723,18.9684 534.421,18.6449 535.118,18.3787 535.816,18.1713 536.513,18.0237 537.211,17.9367 537.908,17.911 538.606,17.947 539.303,18.0449 540.001,18.2046 540.698,18.426 541.396,18.7084 542.093,19.0513 542.791,19.4536 543.488,19.9143 544.186,20.4319 544.883,21.005 545.581,21.6318 546.278,22.3103 546.976,23.0383 547.673,23.8137 548.371,24.6338 549.068,25.4961 549.766,26.3977 550.463,27.3357 551.161,28.3072 551.858,29.3088 552.556,30.3374 553.253,31.3896 553.951,32.462 554.648,33.551 555.346,34.6532 556.043,35.765 556.741,36.8826 557.438,38.0027 558.136,39.1215 558.833,40.2355 559.531,41.3411 560.228,42.4349 560.926,43.5134 561.623,44.5732 562.321,45.6112 563.018,46.624 563.716,47.6087 564.413,48.5622 565.111,49.4819 565.808,50.365 566.506,51.209 567.203,52.0116 567.901,52.7705 568.598,53.4839 569.296,54.1499 569.993,54.7669 570.691,55.3334 571.388,55.8482 572.086,56.3104 572.783,56.719 573.481,57.0736 574.178,57.3737 574.876,57.6192 575.573,57.8101 576.271,57.9466 576.968,58.0292 577.666,58.0586 578.363,58.0356 579.061,57.9614 579.758,57.8371 580.456,57.6642 581.153,57.4443 581.851,57.1792 582.548,56.8709 583.246,56.5214 583.943,56.133 584.641,55.7081 585.338,55.2492 586.036,54.7589 586.733,54.24 587.431,53.6952 588.128,53.1275 588.826,52.5397 589.523,51.935 590.221,51.3162 590.918,50.6867 591.616,50.0493 592.313,49.4073 593.011,48.7637 593.708,48.1216 594.406,47.4839 595.103,46.8538 595.801,46.2341 596.498,45.6276 597.196,45.0372 597.893,44.4655 598.591,43.9151 599.288,43.3885 599.986,42.888 600.683,42.4158 601.381,41.974 602.078,41.5645 602.776,41.1892 603.473,40.8495 604.171,40.5471 604.868,40.2831 605.566,40.0587 606.263,39.8748 606.961,39.7321 607.658,39.6313 608.356,39.5728 609.053,39.5566 609.751,39.583 610.448,39.6517 611.146,39.7623 611.843,39.9145 612.541,40.1076 613.238,40.3406 613.936,40.6126 614.633,40.9225 615.331,41.2689 616.028,41.6504 616.726,42.0654 617.423,42.5122 618.121,42.9891 618.818,43.4939 619.516,44.0247 620.213,44.5795 620.911,45.1559 621.608,45.7516 622.306,46.3644 623.003,46.9919 623.701,47.6316 624.398,48.281 625.096,48.9377 625.793,49.5992 626.491,50.2631 627.188,50.9268 627.886,51.588 628.583,52.2441 629.281,52.893 629.978,53.5322 630.676,54.1596 631.373,54.773 632.071,55.3703 632.768,55.9495 633.466,56.5088 634.163,57.0464 634.861,57.5606 635.558,58.0499 636.256,58.5128 636.953,58.9481 637.651,59.3546 638.348,59.7313 639.046,60.0774 639.743,60.392 640.441,60.6747 641.138,60.9249 641.836,61.1424 642.533,61.327 643.231,61.4787 643.928,61.5977 644.626,61.6843 645.323,61.7388 646.021,61.7617 646.718,61.7539 647.416,61.7161 648.113,61.6492 648.811,61.5542 649.508,61.4323 650.206,61.2848 650.903,61.113"/>
  </g>
 </g>
</svg>
