<?xml version="1.0"?>
<svg version="1.1" viewBox="0 0 1000 600" xmlns:xlink="http://www.w3.org/1999/xlink" xmlns="http://www.w3.org/2000/svg">
<g>
<g>
<g stroke-dasharray="3.6 7.2" stroke-width="0.72" stroke="#caa">
<line x1="150.00" x2="150.00" y1="510.00" y2="90.00" />
<line x1="226.09" x2="226.09" y1="510.00" y2="90.00" />
<line x1="302.17" x2="302.17" y1="510.00" y2="90.00" />
<line x1="378.26" x2="378.26" y1="510.00" y2="90.00" />
<line x1="454.35" x2="454.35" y1="510.00" y2="90.00" />
<line x1="530.43" x2="530.43" y1="510.00" y2="90.00" />
<line x1="606.52" x2="606.52" y1="510.00" y2="90.00" />
<line x1="682.61" x2="682.61" y1="510.00" y2="90.00" />
<line x1="758.70" x2="758.70" y1="510.00" y2="90.00" />
<line x1="834.78" x2="834.78" y1="510.00" y2="90.00" />
<line x1="150.00" x2="850.00" y1="487.73" y2="487.73" />
<line x1="150.00" x2="850.00" y1="408.18" y2="408.18" />
<line x1="150.00" x2="850.00" y1="328.64" y2="328.64" />
<line x1="150.00" x2="850.00" y1="249.09" y2="249.09" />
<line x1="150.00" x2="850.00" y1="169.55" y2="169.55" />
<line x1="150.00" x2="850.00" y1="90.00" y2="90.00" />
</g>
<g>
<text dominant-baseline="hanging" dx="-18.0" dy="18.0" fill="#0004" font-family="Arial, sans-serif" font-size="36" stroke="none" text-anchor="end" x="850.00" y="90.00">d18O</text>
</g>
<g>
<text dominant-baseline="hanging" dy="24.0" fill="black" font-family="Arial, sans-serif" font-size="13.090909090909092" stroke="none" text-anchor="middle" x="500.00" y="90.00">Days</text>
</g>
<g>
<text dominant-baseline="bottom" dx="-36.0" fill="#0004" font-family="Arial, sans-serif" font-size="13.090909090909092" stroke="none" text-anchor="middle" text-orientation="sideways" writing-mode="vertical-lr" x="150.00" y="90.00">d18O</text>
</g>
<polyline fill="none" points="150.00,459.89 157.61,462.27 165.22,469.43 172.83,456.70 180.43,448.75 188.04,451.93 195.65,446.36 203.26,452.73 210.87,455.91 210.87,453.52 218.48,467.05 530.43,444.77 538.04,460.68 545.65,454.32 553.26,434.43 560.87,448.75 568.48,452.73 576.09,366.02 583.70,440.80 591.30,456.70 598.91,456.70 606.52,404.20 614.13,446.36 621.74,442.39 629.35,450.34 636.96,451.14 644.57,373.18 652.17,447.16 659.78,445.57 667.39,440.00 675.00,434.43 682.61,437.61 690.22,443.18 697.83,438.41 697.83,441.59 705.43,436.02 713.04,438.41 720.65,440.80 728.26,442.39 735.87,418.52 743.48,440.80 751.09,441.59 758.70,448.75 766.30,455.91 773.91,449.55 773.91,452.73 781.52,455.91 789.13,455.91 796.74,458.30 804.35,459.89 811.96,456.70 819.57,451.93 827.17,454.32 834.78,459.89 842.39,459.89 850.00,455.91" stroke="magenta" />
<g stroke="magenta">
<circle cx="150.00" cy="459.89" r="3" />
<circle cx="157.61" cy="462.27" r="3" />
<circle cx="165.22" cy="469.43" r="3" />
<circle cx="172.83" cy="456.70" r="3" />
<circle cx="180.43" cy="448.75" r="3" />
<circle cx="188.04" cy="451.93" r="3" />
<circle cx="195.65" cy="446.36" r="3" />
<circle cx="203.26" cy="452.73" r="3" />
<circle cx="210.87" cy="455.91" r="3" />
<circle cx="210.87" cy="453.52" r="3" />
<circle cx="218.48" cy="467.05" r="3" />
<circle cx="530.43" cy="444.77" r="3" />
<circle cx="538.04" cy="460.68" r="3" />
<circle cx="545.65" cy="454.32" r="3" />
<circle cx="553.26" cy="434.43" r="3" />
<circle cx="560.87" cy="448.75" r="3" />
<circle cx="568.48" cy="452.73" r="3" />
<circle cx="576.09" cy="366.02" r="3" />
<circle cx="583.70" cy="440.80" r="3" />
<circle cx="591.30" cy="456.70" r="3" />
<circle cx="598.91" cy="456.70" r="3" />
<circle cx="606.52" cy="404.20" r="3" />
<circle cx="614.13" cy="446.36" r="3" />
<circle cx="621.74" cy="442.39" r="3" />
<circle cx="629.35" cy="450.34" r="3" />
<circle cx="636.96" cy="451.14" r="3" />
<circle cx="644.57" cy="373.18" r="3" />
<circle cx="652.17" cy="447.16" r="3" />
<circle cx="659.78" cy="445.57" r="3" />
<circle cx="667.39" cy="440.00" r="3" />
<circle cx="675.00" cy="434.43" r="3" />
<circle cx="682.61" cy="437.61" r="3" />
<circle cx="690.22" cy="443.18" r="3" />
<circle cx="697.83" cy="438.41" r="3" />
<circle cx="697.83" cy="441.59" r="3" />
<circle cx="705.43" cy="436.02" r="3" />
<circle cx="713.04" cy="438.41" r="3" />
<circle cx="720.65" cy="440.80" r="3" />
<circle cx="728.26" cy="442.39" r="3" />
<circle cx="735.87" cy="418.52" r="3" />
<circle cx="743.48" cy="440.80" r="3" />
<circle cx="751.09" cy="441.59" r="3" />
<circle cx="758.70" cy="448.75" r="3" />
<circle cx="766.30" cy="455.91" r="3" />
<circle cx="773.91" cy="449.55" r="3" />
<circle cx="773.91" cy="452.73" r="3" />
<circle cx="781.52" cy="455.91" r="3" />
<circle cx="789.13" cy="455.91" r="3" />
<circle cx="796.74" cy="458.30" r="3" />
<circle cx="804.35" cy="459.89" r="3" />
<circle cx="811.96" cy="456.70" r="3" />
<circle cx="819.57" cy="451.93" r="3" />
<circle cx="827.17" cy="454.32" r="3" />
<circle cx="834.78" cy="459.89" r="3" />
<circle cx="842.39" cy="459.89" r="3" />
<circle cx="850.00" cy="455.91" r="3" />
</g>
<g stroke="black">
<line x1="150.00" x2="150.00" y1="510.00" y2="520.00" />
<line x1="226.09" x2="226.09" y1="510.00" y2="520.00" />
<line x1="302.17" x2="302.17" y1="510.00" y2="520.00" />
<line x1="378.26" x2="378.26" y1="510.00" y2="520.00" />
<line x1="454.35" x2="454.35" y1="510.00" y2="520.00" />
<line x1="530.43" x2="530.43" y1="510.00" y2="520.00" />
<line x1="606.52" x2="606.52" y1="510.00" y2="520.00" />
<line x1="682.61" x2="682.61" y1="510.00" y2="520.00" />
<line x1="758.70" x2="758.70" y1="510.00" y2="520.00" />
<line x1="834.78" x2="834.78" y1="510.00" y2="520.00" />
<g fill="black" font-family="Arial, sans-serif" font-size="18.0" stroke="none" text-anchor="start" transform="translate(9.0 0.0)">
<text x="150.00" y="530.57">0</text>
<text x="226.09" y="530.57">10</text>
<text x="302.17" y="530.57">20</text>
<text x="378.26" y="530.57">30</text>
<text x="454.35" y="530.57">40</text>
<text x="530.43" y="530.57">50</text>
<text x="606.52" y="530.57">60</text>
<text x="682.61" y="530.57">70</text>
<text x="758.70" y="530.57">80</text>
<text x="834.78" y="530.57">90</text>
</g>
<line x1="150.00" x2="850.00" y1="510.00" y2="510.00" />
</g>
<g stroke="#0004">
<line x1="150.00" x2="140.00" y1="487.73" y2="487.73" />
<line x1="150.00" x2="140.00" y1="408.18" y2="408.18" />
<line x1="150.00" x2="140.00" y1="328.64" y2="328.64" />
<line x1="150.00" x2="140.00" y1="249.09" y2="249.09" />
<line x1="150.00" x2="140.00" y1="169.55" y2="169.55" />
<line x1="150.00" x2="140.00" y1="90.00" y2="90.00" />
<g fill="black" font-family="Arial, sans-serif" font-size="18.0" stroke="none" text-anchor="end">
<text x="141.00" y="478.73">-5</text>
<text x="141.00" y="399.18">-4</text>
<text x="141.00" y="319.64">-3</text>
<text x="141.00" y="240.09">-2</text>
<text x="141.00" y="160.55">-1</text>
<text x="141.00" y="81.00">0</text>
</g>
<line x1="150.00" x2="150.00" y1="510.00" y2="90.00" />
</g>
</g>
<g>
<g stroke-dasharray="3.6 7.2" stroke-width="0.72" stroke="#caa">
<line x1="150.00" x2="150.00" y1="510.00" y2="90.00" />
<line x1="226.09" x2="226.09" y1="510.00" y2="90.00" />
<line x1="302.17" x2="302.17" y1="510.00" y2="90.00" />
<line x1="378.26" x2="378.26" y1="510.00" y2="90.00" />
<line x1="454.35" x2="454.35" y1="510.00" y2="90.00" />
<line x1="530.43" x2="530.43" y1="510.00" y2="90.00" />
<line x1="606.52" x2="606.52" y1="510.00" y2="90.00" />
<line x1="682.61" x2="682.61" y1="510.00" y2="90.00" />
<line x1="758.70" x2="758.70" y1="510.00" y2="90.00" />
<line x1="834.78" x2="834.78" y1="510.00" y2="90.00" />
<line x1="150.00" x2="850.00" y1="487.73" y2="487.73" />
<line x1="150.00" x2="850.00" y1="408.18" y2="408.18" />
<line x1="150.00" x2="850.00" y1="328.64" y2="328.64" />
<line x1="150.00" x2="850.00" y1="249.09" y2="249.09" />
<line x1="150.00" x2="850.00" y1="169.55" y2="169.55" />
<line x1="150.00" x2="850.00" y1="90.00" y2="90.00" />
</g>
<g>
<text dominant-baseline="hanging" dx="-18.0" dy="18.0" fill="#0004" font-family="Arial, sans-serif" font-size="36" stroke="none" text-anchor="end" x="850.00" y="90.00">d18O</text>
</g>
<g>
<text dominant-baseline="hanging" dy="24.0" fill="black" font-family="Arial, sans-serif" font-size="13.090909090909092" stroke="none" text-anchor="middle" x="500.00" y="90.00">Days</text>
</g>
<g>
<text dominant-baseline="bottom" dx="-36.0" fill="#0004" font-family="Arial, sans-serif" font-size="13.090909090909092" stroke="none" text-anchor="middle" text-orientation="sideways" writing-mode="vertical-lr" x="150.00" y="90.00">d18O</text>
</g>
<polyline fill="none" points="332.61,456.70 439.13,459.89 530.43,462.27 591.30,471.82 697.83,464.66 773.91,464.66 850.00,463.07" stroke="blue" />
<g stroke="blue">
<circle cx="332.61" cy="456.70" r="3" />
<circle cx="439.13" cy="459.89" r="3" />
<circle cx="530.43" cy="462.27" r="3" />
<circle cx="591.30" cy="471.82" r="3" />
<circle cx="697.83" cy="464.66" r="3" />
<circle cx="773.91" cy="464.66" r="3" />
<circle cx="850.00" cy="463.07" r="3" />
</g>
<g stroke="black">
<line x1="150.00" x2="150.00" y1="510.00" y2="520.00" />
<line x1="226.09" x2="226.09" y1="510.00" y2="520.00" />
<line x1="302.17" x2="302.17" y1="510.00" y2="520.00" />
<line x1="378.26" x2="378.26" y1="510.00" y2="520.00" />
<line x1="454.35" x2="454.35" y1="510.00" y2="520.00" />
<line x1="530.43" x2="530.43" y1="510.00" y2="520.00" />
<line x1="606.52" x2="606.52" y1="510.00" y2="520.00" />
<line x1="682.61" x2="682.61" y1="510.00" y2="520.00" />
<line x1="758.70" x2="758.70" y1="510.00" y2="520.00" />
<line x1="834.78" x2="834.78" y1="510.00" y2="520.00" />
<g fill="black" font-family="Arial, sans-serif" font-size="18.0" stroke="none" text-anchor="start" transform="translate(9.0 0.0)">
<text x="150.00" y="530.57">0</text>
<text x="226.09" y="530.57">10</text>
<text x="302.17" y="530.57">20</text>
<text x="378.26" y="530.57">30</text>
<text x="454.35" y="530.57">40</text>
<text x="530.43" y="530.57">50</text>
<text x="606.52" y="530.57">60</text>
<text x="682.61" y="530.57">70</text>
<text x="758.70" y="530.57">80</text>
<text x="834.78" y="530.57">90</text>
</g>
<line x1="150.00" x2="850.00" y1="510.00" y2="510.00" />
</g>
<g stroke="#0004">
<line x1="150.00" x2="140.00" y1="487.73" y2="487.73" />
<line x1="150.00" x2="140.00" y1="408.18" y2="408.18" />
<line x1="150.00" x2="140.00" y1="328.64" y2="328.64" />
<line x1="150.00" x2="140.00" y1="249.09" y2="249.09" />
<line x1="150.00" x2="140.00" y1="169.55" y2="169.55" />
<line x1="150.00" x2="140.00" y1="90.00" y2="90.00" />
<g fill="black" font-family="Arial, sans-serif" font-size="18.0" stroke="none" text-anchor="end">
<text x="141.00" y="478.73">-5</text>
<text x="141.00" y="399.18">-4</text>
<text x="141.00" y="319.64">-3</text>
<text x="141.00" y="240.09">-2</text>
<text x="141.00" y="160.55">-1</text>
<text x="141.00" y="81.00">0</text>
</g>
<line x1="150.00" x2="150.00" y1="510.00" y2="90.00" />
</g>
</g>
<g>
<g stroke-dasharray="3.6 7.2" stroke-width="0.72" stroke="#caa">
<line x1="150.00" x2="150.00" y1="510.00" y2="90.00" />
<line x1="226.09" x2="226.09" y1="510.00" y2="90.00" />
<line x1="302.17" x2="302.17" y1="510.00" y2="90.00" />
<line x1="378.26" x2="378.26" y1="510.00" y2="90.00" />
<line x1="454.35" x2="454.35" y1="510.00" y2="90.00" />
<line x1="530.43" x2="530.43" y1="510.00" y2="90.00" />
<line x1="606.52" x2="606.52" y1="510.00" y2="90.00" />
<line x1="682.61" x2="682.61" y1="510.00" y2="90.00" />
<line x1="758.70" x2="758.70" y1="510.00" y2="90.00" />
<line x1="834.78" x2="834.78" y1="510.00" y2="90.00" />
<line x1="150.00" x2="850.00" y1="487.73" y2="487.73" />
<line x1="150.00" x2="850.00" y1="408.18" y2="408.18" />
<line x1="150.00" x2="850.00" y1="328.64" y2="328.64" />
<line x1="150.00" x2="850.00" y1="249.09" y2="249.09" />
<line x1="150.00" x2="850.00" y1="169.55" y2="169.55" />
<line x1="150.00" x2="850.00" y1="90.00" y2="90.00" />
</g>
<g>
<text dominant-baseline="hanging" dx="-18.0" dy="18.0" fill="#0004" font-family="Arial, sans-serif" font-size="36" stroke="none" text-anchor="end" x="850.00" y="90.00">d18O</text>
</g>
<g>
<text dominant-baseline="hanging" dy="24.0" fill="black" font-family="Arial, sans-serif" font-size="13.090909090909092" stroke="none" text-anchor="middle" x="500.00" y="90.00">Days</text>
</g>
<g>
<text dominant-baseline="bottom" dx="-36.0" fill="#0004" font-family="Arial, sans-serif" font-size="13.090909090909092" stroke="none" text-anchor="middle" text-orientation="sideways" writing-mode="vertical-lr" x="150.00" y="90.00">d18O</text>
</g>
<polyline fill="none" points="210.87,240.34 332.61,447.95 439.13,266.59 530.43,454.32 591.30,445.57 697.83,445.57 773.91,440.00 850.00,459.09" stroke="cyan" />
<g stroke="cyan">
<circle cx="210.87" cy="240.34" r="3" />
<circle cx="332.61" cy="447.95" r="3" />
<circle cx="439.13" cy="266.59" r="3" />
<circle cx="530.43" cy="454.32" r="3" />
<circle cx="591.30" cy="445.57" r="3" />
<circle cx="697.83" cy="445.57" r="3" />
<circle cx="773.91" cy="440.00" r="3" />
<circle cx="850.00" cy="459.09" r="3" />
</g>
<g stroke="black">
<line x1="150.00" x2="150.00" y1="510.00" y2="520.00" />
<line x1="226.09" x2="226.09" y1="510.00" y2="520.00" />
<line x1="302.17" x2="302.17" y1="510.00" y2="520.00" />
<line x1="378.26" x2="378.26" y1="510.00" y2="520.00" />
<line x1="454.35" x2="454.35" y1="510.00" y2="520.00" />
<line x1="530.43" x2="530.43" y1="510.00" y2="520.00" />
<line x1="606.52" x2="606.52" y1="510.00" y2="520.00" />
<line x1="682.61" x2="682.61" y1="510.00" y2="520.00" />
<line x1="758.70" x2="758.70" y1="510.00" y2="520.00" />
<line x1="834.78" x2="834.78" y1="510.00" y2="520.00" />
<g fill="black" font-family="Arial, sans-serif" font-size="18.0" stroke="none" text-anchor="start" transform="translate(9.0 0.0)">
<text x="150.00" y="530.57">0</text>
<text x="226.09" y="530.57">10</text>
<text x="302.17" y="530.57">20</text>
<text x="378.26" y="530.57">30</text>
<text x="454.35" y="530.57">40</text>
<text x="530.43" y="530.57">50</text>
<text x="606.52" y="530.57">60</text>
<text x="682.61" y="530.57">70</text>
<text x="758.70" y="530.57">80</text>
<text x="834.78" y="530.57">90</text>
</g>
<line x1="150.00" x2="850.00" y1="510.00" y2="510.00" />
</g>
<g stroke="#0004">
<line x1="150.00" x2="140.00" y1="487.73" y2="487.73" />
<line x1="150.00" x2="140.00" y1="408.18" y2="408.18" />
<line x1="150.00" x2="140.00" y1="328.64" y2="328.64" />
<line x1="150.00" x2="140.00" y1="249.09" y2="249.09" />
<line x1="150.00" x2="140.00" y1="169.55" y2="169.55" />
<line x1="150.00" x2="140.00" y1="90.00" y2="90.00" />
<g fill="black" font-family="Arial, sans-serif" font-size="18.0" stroke="none" text-anchor="end">
<text x="141.00" y="478.73">-5</text>
<text x="141.00" y="399.18">-4</text>
<text x="141.00" y="319.64">-3</text>
<text x="141.00" y="240.09">-2</text>
<text x="141.00" y="160.55">-1</text>
<text x="141.00" y="81.00">0</text>
</g>
<line x1="150.00" x2="150.00" y1="510.00" y2="90.00" />
</g>
</g>
<g>
<g stroke-dasharray="3.6 7.2" stroke-width="0.72" stroke="#caa">
<line x1="150.00" x2="150.00" y1="510.00" y2="90.00" />
<line x1="226.09" x2="226.09" y1="510.00" y2="90.00" />
<line x1="302.17" x2="302.17" y1="510.00" y2="90.00" />
<line x1="378.26" x2="378.26" y1="510.00" y2="90.00" />
<line x1="454.35" x2="454.35" y1="510.00" y2="90.00" />
<line x1="530.43" x2="530.43" y1="510.00" y2="90.00" />
<line x1="606.52" x2="606.52" y1="510.00" y2="90.00" />
<line x1="682.61" x2="682.61" y1="510.00" y2="90.00" />
<line x1="758.70" x2="758.70" y1="510.00" y2="90.00" />
<line x1="834.78" x2="834.78" y1="510.00" y2="90.00" />
<line x1="150.00" x2="850.00" y1="487.73" y2="487.73" />
<line x1="150.00" x2="850.00" y1="408.18" y2="408.18" />
<line x1="150.00" x2="850.00" y1="328.64" y2="328.64" />
<line x1="150.00" x2="850.00" y1="249.09" y2="249.09" />
<line x1="150.00" x2="850.00" y1="169.55" y2="169.55" />
<line x1="150.00" x2="850.00" y1="90.00" y2="90.00" />
</g>
<g>
<text dominant-baseline="hanging" dx="-18.0" dy="18.0" fill="#0004" font-family="Arial, sans-serif" font-size="36" stroke="none" text-anchor="end" x="850.00" y="90.00">d18O</text>
</g>
<g>
<text dominant-baseline="hanging" dy="24.0" fill="black" font-family="Arial, sans-serif" font-size="13.090909090909092" stroke="none" text-anchor="middle" x="500.00" y="90.00">Days</text>
</g>
<g>
<text dominant-baseline="bottom" dx="-36.0" fill="#0004" font-family="Arial, sans-serif" font-size="13.090909090909092" stroke="none" text-anchor="middle" text-orientation="sideways" writing-mode="vertical-lr" x="150.00" y="90.00">d18O</text>
</g>
<polyline fill="none" points="210.87,292.05 332.61,419.32 439.13,443.98 530.43,247.50 591.30,162.39 850.00,222.05" stroke="grey" />
<g stroke="grey">
<circle cx="210.87" cy="292.05" r="3" />
<circle cx="332.61" cy="419.32" r="3" />
<circle cx="439.13" cy="443.98" r="3" />
<circle cx="530.43" cy="247.50" r="3" />
<circle cx="591.30" cy="162.39" r="3" />
<circle cx="850.00" cy="222.05" r="3" />
</g>
<g stroke="black">
<line x1="150.00" x2="150.00" y1="510.00" y2="520.00" />
<line x1="226.09" x2="226.09" y1="510.00" y2="520.00" />
<line x1="302.17" x2="302.17" y1="510.00" y2="520.00" />
<line x1="378.26" x2="378.26" y1="510.00" y2="520.00" />
<line x1="454.35" x2="454.35" y1="510.00" y2="520.00" />
<line x1="530.43" x2="530.43" y1="510.00" y2="520.00" />
<line x1="606.52" x2="606.52" y1="510.00" y2="520.00" />
<line x1="682.61" x2="682.61" y1="510.00" y2="520.00" />
<line x1="758.70" x2="758.70" y1="510.00" y2="520.00" />
<line x1="834.78" x2="834.78" y1="510.00" y2="520.00" />
<g fill="black" font-family="Arial, sans-serif" font-size="18.0" stroke="none" text-anchor="start" transform="translate(9.0 0.0)">
<text x="150.00" y="530.57">0</text>
<text x="226.09" y="530.57">10</text>
<text x="302.17" y="530.57">20</text>
<text x="378.26" y="530.57">30</text>
<text x="454.35" y="530.57">40</text>
<text x="530.43" y="530.57">50</text>
<text x="606.52" y="530.57">60</text>
<text x="682.61" y="530.57">70</text>
<text x="758.70" y="530.57">80</text>
<text x="834.78" y="530.57">90</text>
</g>
<line x1="150.00" x2="850.00" y1="510.00" y2="510.00" />
</g>
<g stroke="#0004">
<line x1="150.00" x2="140.00" y1="487.73" y2="487.73" />
<line x1="150.00" x2="140.00" y1="408.18" y2="408.18" />
<line x1="150.00" x2="140.00" y1="328.64" y2="328.64" />
<line x1="150.00" x2="140.00" y1="249.09" y2="249.09" />
<line x1="150.00" x2="140.00" y1="169.55" y2="169.55" />
<line x1="150.00" x2="140.00" y1="90.00" y2="90.00" />
<g fill="black" font-family="Arial, sans-serif" font-size="18.0" stroke="none" text-anchor="end">
<text x="141.00" y="478.73">-5</text>
<text x="141.00" y="399.18">-4</text>
<text x="141.00" y="319.64">-3</text>
<text x="141.00" y="240.09">-2</text>
<text x="141.00" y="160.55">-1</text>
<text x="141.00" y="81.00">0</text>
</g>
<line x1="150.00" x2="150.00" y1="510.00" y2="90.00" />
</g>
</g>
<g>
<g stroke-dasharray="3.6 7.2" stroke-width="0.72" stroke="#caa">
<line x1="150.00" x2="150.00" y1="510.00" y2="90.00" />
<line x1="226.09" x2="226.09" y1="510.00" y2="90.00" />
<line x1="302.17" x2="302.17" y1="510.00" y2="90.00" />
<line x1="378.26" x2="378.26" y1="510.00" y2="90.00" />
<line x1="454.35" x2="454.35" y1="510.00" y2="90.00" />
<line x1="530.43" x2="530.43" y1="510.00" y2="90.00" />
<line x1="606.52" x2="606.52" y1="510.00" y2="90.00" />
<line x1="682.61" x2="682.61" y1="510.00" y2="90.00" />
<line x1="758.70" x2="758.70" y1="510.00" y2="90.00" />
<line x1="834.78" x2="834.78" y1="510.00" y2="90.00" />
<line x1="150.00" x2="850.00" y1="487.73" y2="487.73" />
<line x1="150.00" x2="850.00" y1="408.18" y2="408.18" />
<line x1="150.00" x2="850.00" y1="328.64" y2="328.64" />
<line x1="150.00" x2="850.00" y1="249.09" y2="249.09" />
<line x1="150.00" x2="850.00" y1="169.55" y2="169.55" />
<line x1="150.00" x2="850.00" y1="90.00" y2="90.00" />
</g>
<g>
<text dominant-baseline="hanging" dx="-18.0" dy="18.0" fill="#0004" font-family="Arial, sans-serif" font-size="36" stroke="none" text-anchor="end" x="850.00" y="90.00">d18O</text>
</g>
<g>
<text dominant-baseline="hanging" dy="24.0" fill="black" font-family="Arial, sans-serif" font-size="13.090909090909092" stroke="none" text-anchor="middle" x="500.00" y="90.00">Days</text>
</g>
<g>
<text dominant-baseline="bottom" dx="-36.0" fill="#0004" font-family="Arial, sans-serif" font-size="13.090909090909092" stroke="none" text-anchor="middle" text-orientation="sideways" writing-mode="vertical-lr" x="150.00" y="90.00">d18O</text>
</g>
<polyline fill="none" points="210.87,463.07 332.61,451.93 439.13,311.14 530.43,424.89 591.30,410.57 697.83,400.23 773.91,383.52 850.00,330.23" stroke="red" />
<g stroke="black">
<circle cx="210.87" cy="463.07" r="3" />
<circle cx="332.61" cy="451.93" r="3" />
<circle cx="439.13" cy="311.14" r="3" />
<circle cx="530.43" cy="424.89" r="3" />
<circle cx="591.30" cy="410.57" r="3" />
<circle cx="697.83" cy="400.23" r="3" />
<circle cx="773.91" cy="383.52" r="3" />
<circle cx="850.00" cy="330.23" r="3" />
</g>
<g stroke="black">
<line x1="150.00" x2="150.00" y1="510.00" y2="520.00" />
<line x1="226.09" x2="226.09" y1="510.00" y2="520.00" />
<line x1="302.17" x2="302.17" y1="510.00" y2="520.00" />
<line x1="378.26" x2="378.26" y1="510.00" y2="520.00" />
<line x1="454.35" x2="454.35" y1="510.00" y2="520.00" />
<line x1="530.43" x2="530.43" y1="510.00" y2="520.00" />
<line x1="606.52" x2="606.52" y1="510.00" y2="520.00" />
<line x1="682.61" x2="682.61" y1="510.00" y2="520.00" />
<line x1="758.70" x2="758.70" y1="510.00" y2="520.00" />
<line x1="834.78" x2="834.78" y1="510.00" y2="520.00" />
<g fill="black" font-family="Arial, sans-serif" font-size="18.0" stroke="none" text-anchor="start" transform="translate(9.0 0.0)">
<text x="150.00" y="530.57">0</text>
<text x="226.09" y="530.57">10</text>
<text x="302.17" y="530.57">20</text>
<text x="378.26" y="530.57">30</text>
<text x="454.35" y="530.57">40</text>
<text x="530.43" y="530.57">50</text>
<text x="606.52" y="530.57">60</text>
<text x="682.61" y="530.57">70</text>
<text x="758.70" y="530.57">80</text>
<text x="834.78" y="530.57">90</text>
</g>
<line x1="150.00" x2="850.00" y1="510.00" y2="510.00" />
</g>
<g stroke="#0004">
<line x1="150.00" x2="140.00" y1="487.73" y2="487.73" />
<line x1="150.00" x2="140.00" y1="408.18" y2="408.18" />
<line x1="150.00" x2="140.00" y1="328.64" y2="328.64" />
<line x1="150.00" x2="140.00" y1="249.09" y2="249.09" />
<line x1="150.00" x2="140.00" y1="169.55" y2="169.55" />
<line x1="150.00" x2="140.00" y1="90.00" y2="90.00" />
<g fill="black" font-family="Arial, sans-serif" font-size="18.0" stroke="none" text-anchor="end">
<text x="141.00" y="478.73">-5</text>
<text x="141.00" y="399.18">-4</text>
<text x="141.00" y="319.64">-3</text>
<text x="141.00" y="240.09">-2</text>
<text x="141.00" y="160.55">-1</text>
<text x="141.00" y="81.00">0</text>
</g>
<line x1="150.00" x2="150.00" y1="510.00" y2="90.00" />
</g>
</g>
</g>
</svg>