<?xml version="1.0" encoding="UTF-8" standalone="no"?>
<svg
   version="1.1"
   viewBox="0 0 1895.4403 608.76202"
   id="svg29282"
   sodipodi:docname="random-hist.svg"
   xml:space="preserve"
   width="1895.4403"
   height="608.76202"
   inkscape:version="1.2.2 (b0a8486541, 2022-12-01)"
   xmlns:inkscape="http://www.inkscape.org/namespaces/inkscape"
   xmlns:sodipodi="http://sodipodi.sourceforge.net/DTD/sodipodi-0.dtd"
   xmlns="http://www.w3.org/2000/svg"
   xmlns:svg="http://www.w3.org/2000/svg"><defs
     id="defs29286" /><sodipodi:namedview
     id="namedview29284"
     pagecolor="#ffffff"
     bordercolor="#999999"
     borderopacity="1"
     inkscape:showpageshadow="0"
     inkscape:pageopacity="0"
     inkscape:pagecheckerboard="0"
     inkscape:deskcolor="#d1d1d1"
     showgrid="false"
     inkscape:zoom="1.0119012"
     inkscape:cx="945.25043"
     inkscape:cy="373.55427"
     inkscape:window-width="2520"
     inkscape:window-height="1600"
     inkscape:window-x="0"
     inkscape:window-y="44"
     inkscape:window-maximized="1"
     inkscape:current-layer="svg29282" /><g
     id="g29280"
     transform="translate(-44.217773,-50.106445)"><g
       stroke-dasharray="3.6, 7.2"
       stroke-width="0.72"
       stroke="#ccaaaa"
       id="g29132"><line
         x1="126.78"
         x2="126.78"
         y1="637"
         y2="63"
         id="line29108" /><line
         x1="233.07001"
         x2="233.07001"
         y1="637"
         y2="63"
         id="line29110" /><line
         x1="339.37"
         x2="339.37"
         y1="637"
         y2="63"
         id="line29112" /><line
         x1="445.67001"
         x2="445.67001"
         y1="637"
         y2="63"
         id="line29114" /><line
         x1="551.96002"
         x2="551.96002"
         y1="637"
         y2="63"
         id="line29116" /><line
         x1="63"
         x2="637"
         y1="589.16998"
         y2="589.16998"
         id="line29118" /><line
         x1="63"
         x2="637"
         y1="509.44"
         y2="509.44"
         id="line29120" /><line
         x1="63"
         x2="637"
         y1="429.72"
         y2="429.72"
         id="line29122" /><line
         x1="63"
         x2="637"
         y1="350"
         y2="350"
         id="line29124" /><line
         x1="63"
         x2="637"
         y1="270.28"
         y2="270.28"
         id="line29126" /><line
         x1="63"
         x2="637"
         y1="190.56"
         y2="190.56"
         id="line29128" /><line
         x1="63"
         x2="637"
         y1="110.83"
         y2="110.83"
         id="line29130" /></g><g
       id="g29136"><text
         dominant-baseline="hanging"
         dx="-36"
         dy="18"
         fill="#0004"
         font-family="Arial, sans-serif"
         font-size="36px"
         stroke="none"
         text-anchor="end"
         x="637"
         y="110.83"
         id="text29134">N:100 VAR: 10 MEAN: -2.4</text></g><g
       id="g29140"><text
         dominant-baseline="text-bottom"
         dy="0"
         fill="#000000"
         font-family="Arial, sans-serif"
         font-size="18px"
         font-style="italic"
         stroke="none"
         text-anchor="middle"
         x="350"
         y="63"
         id="text29138">index</text></g><g
       id="g29144"><text
         dominant-baseline="hanging"
         dx="18"
         dy="18"
         fill="#000000"
         font-family="Arial, sans-serif"
         font-size="18px"
         font-style="italic"
         stroke="none"
         text-anchor="beginning"
         text-orientation="sideways"
         x="63"
         y="63"
         id="text29142">bincount</text></g><g
       fill="none"
       stroke-width="10"
       stroke="#ffb2b0"
       id="g29218"><line
         x1="339.37"
         x2="339.37"
         y1="350"
         y2="637"
         id="line29146" /><line
         x1="211.81"
         x2="211.81"
         y1="509.44"
         y2="637"
         id="line29148" /><line
         x1="296.85001"
         x2="296.85001"
         y1="190.56"
         y2="637"
         id="line29150" /><line
         x1="413.78"
         x2="413.78"
         y1="350"
         y2="637"
         id="line29152" /><line
         x1="626.37"
         x2="626.37"
         y1="589.16998"
         y2="637"
         id="line29154" /><line
         x1="350"
         x2="350"
         y1="270.28"
         y2="637"
         id="line29156" /><line
         x1="318.10999"
         x2="318.10999"
         y1="350"
         y2="637"
         id="line29158" /><line
         x1="381.89001"
         x2="381.89001"
         y1="350"
         y2="637"
         id="line29160" /><line
         x1="328.73999"
         x2="328.73999"
         y1="190.56"
         y2="637"
         id="line29162" /><line
         x1="254.33"
         x2="254.33"
         y1="429.72"
         y2="637"
         id="line29164" /><line
         x1="562.59003"
         x2="562.59003"
         y1="589.16998"
         y2="637"
         id="line29166" /><line
         x1="275.59"
         x2="275.59"
         y1="509.44"
         y2="637"
         id="line29168" /><line
         x1="137.41"
         x2="137.41"
         y1="589.16998"
         y2="637"
         id="line29170" /><line
         x1="94.889999"
         x2="94.889999"
         y1="509.44"
         y2="637"
         id="line29172" /><line
         x1="307.48001"
         x2="307.48001"
         y1="270.28"
         y2="637"
         id="line29174" /><line
         x1="158.67"
         x2="158.67"
         y1="589.16998"
         y2="637"
         id="line29176" /><line
         x1="403.14999"
         x2="403.14999"
         y1="589.16998"
         y2="637"
         id="line29178" /><line
         x1="190.56"
         x2="190.56"
         y1="429.72"
         y2="637"
         id="line29180" /><line
         x1="637"
         x2="637"
         y1="589.16998"
         y2="637"
         id="line29182" /><line
         x1="179.92999"
         x2="179.92999"
         y1="509.44"
         y2="637"
         id="line29184" /><line
         x1="371.26001"
         x2="371.26001"
         y1="350"
         y2="637"
         id="line29186" /><line
         x1="63"
         x2="63"
         y1="589.16998"
         y2="637"
         id="line29188" /><line
         x1="360.63"
         x2="360.63"
         y1="350"
         y2="637"
         id="line29190" /><line
         x1="264.95999"
         x2="264.95999"
         y1="110.83"
         y2="637"
         id="line29192" /><line
         x1="169.3"
         x2="169.3"
         y1="429.72"
         y2="637"
         id="line29194" /><line
         x1="222.44"
         x2="222.44"
         y1="509.44"
         y2="637"
         id="line29196" /><line
         x1="435.04001"
         x2="435.04001"
         y1="589.16998"
         y2="637"
         id="line29198" /><line
         x1="488.19"
         x2="488.19"
         y1="589.16998"
         y2="637"
         id="line29200" /><line
         x1="243.7"
         x2="243.7"
         y1="350"
         y2="637"
         id="line29202" /><line
         x1="233.07001"
         x2="233.07001"
         y1="589.16998"
         y2="637"
         id="line29204" /><line
         x1="509.44"
         x2="509.44"
         y1="589.16998"
         y2="637"
         id="line29206" /><line
         x1="148.03999"
         x2="148.03999"
         y1="589.16998"
         y2="637"
         id="line29208" /><line
         x1="445.67001"
         x2="445.67001"
         y1="509.44"
         y2="637"
         id="line29210" /><line
         x1="530.70001"
         x2="530.70001"
         y1="509.44"
         y2="637"
         id="line29212" /><line
         x1="286.22"
         x2="286.22"
         y1="190.56"
         y2="637"
         id="line29214" /><line
         x1="424.41"
         x2="424.41"
         y1="509.44"
         y2="637"
         id="line29216" /></g><g
       stroke="#000000"
       id="g29244"><line
         x1="126.78"
         x2="126.78"
         y1="637"
         y2="647"
         id="line29220" /><line
         x1="233.07001"
         x2="233.07001"
         y1="637"
         y2="647"
         id="line29222" /><line
         x1="339.37"
         x2="339.37"
         y1="637"
         y2="647"
         id="line29224" /><line
         x1="445.67001"
         x2="445.67001"
         y1="637"
         y2="647"
         id="line29226" /><line
         x1="551.96002"
         x2="551.96002"
         y1="637"
         y2="647"
         id="line29228" /><g
         fill="#000000"
         font-family="Arial, sans-serif"
         font-size="18px"
         stroke="none"
         text-anchor="start"
         transform="translate(9)"
         id="g29240"><text
           x="126.78"
           y="657.57001"
           id="text29230">-20</text><text
           x="233.07001"
           y="657.57001"
           id="text29232">-10</text><text
           x="339.37"
           y="657.57001"
           id="text29234">0</text><text
           x="445.67001"
           y="657.57001"
           id="text29236">10</text><text
           x="551.96002"
           y="657.57001"
           id="text29238">20</text></g><line
         x1="63"
         x2="637"
         y1="637"
         y2="637"
         id="line29242" /></g><g
       stroke="#000000"
       id="g29278"><line
         x1="63"
         x2="51"
         y1="589.16998"
         y2="589.16998"
         id="line29246" /><line
         x1="63"
         x2="51"
         y1="509.44"
         y2="509.44"
         id="line29248" /><line
         x1="63"
         x2="51"
         y1="429.72"
         y2="429.72"
         id="line29250" /><line
         x1="63"
         x2="51"
         y1="350"
         y2="350"
         id="line29252" /><line
         x1="63"
         x2="51"
         y1="270.28"
         y2="270.28"
         id="line29254" /><line
         x1="63"
         x2="51"
         y1="190.56"
         y2="190.56"
         id="line29256" /><line
         x1="63"
         x2="51"
         y1="110.83"
         y2="110.83"
         id="line29258" /><g
         fill="#000000"
         font-family="Arial, sans-serif"
         font-size="18px"
         stroke="none"
         text-anchor="end"
         id="g29274"><text
           x="54"
           y="580.16998"
           id="text29260">1</text><text
           x="54"
           y="500.44"
           id="text29262">2</text><text
           x="54"
           y="420.72"
           id="text29264">3</text><text
           x="54"
           y="341"
           id="text29266">4</text><text
           x="54"
           y="261.28"
           id="text29268">5</text><text
           x="54"
           y="181.56"
           id="text29270">6</text><text
           x="54"
           y="101.83"
           id="text29272">7</text></g><line
         x1="63"
         x2="63"
         y1="637"
         y2="63"
         id="line29276" /></g></g><g
     id="g31055"
     transform="translate(604.46884,-50.115234)"><g
       stroke-dasharray="3.6, 7.2"
       stroke-width="0.72"
       stroke="#ccaaaa"
       id="g30877"><line
         x1="63"
         x2="63"
         y1="637"
         y2="63"
         id="line30857" /><line
         x1="152.69"
         x2="152.69"
         y1="637"
         y2="63"
         id="line30859" /><line
         x1="242.38"
         x2="242.38"
         y1="637"
         y2="63"
         id="line30861" /><line
         x1="332.06"
         x2="332.06"
         y1="637"
         y2="63"
         id="line30863" /><line
         x1="421.75"
         x2="421.75"
         y1="637"
         y2="63"
         id="line30865" /><line
         x1="511.44"
         x2="511.44"
         y1="637"
         y2="63"
         id="line30867" /><line
         x1="601.13"
         x2="601.13"
         y1="637"
         y2="63"
         id="line30869" /><line
         x1="63"
         x2="637"
         y1="637"
         y2="637"
         id="line30871" /><line
         x1="63"
         x2="637"
         y1="435.60001"
         y2="435.60001"
         id="line30873" /><line
         x1="63"
         x2="637"
         y1="234.19"
         y2="234.19"
         id="line30875" /></g><g
       id="g30881"><text
         dominant-baseline="hanging"
         dx="-36"
         dy="18"
         fill="#0004"
         font-family="Arial, sans-serif"
         font-size="36px"
         stroke="none"
         text-anchor="end"
         x="637"
         y="113.35"
         id="text30879">N:500 VAR: 10 MEAN: 0.95</text></g><g
       id="g30885"><text
         dominant-baseline="text-bottom"
         dy="0"
         fill="#000000"
         font-family="Arial, sans-serif"
         font-size="18px"
         font-style="italic"
         stroke="none"
         text-anchor="middle"
         x="350"
         y="63"
         id="text30883">index</text></g><g
       id="g30889"><text
         dominant-baseline="hanging"
         dx="18"
         dy="18"
         fill="#000000"
         font-family="Arial, sans-serif"
         font-size="18px"
         font-style="italic"
         stroke="none"
         text-anchor="beginning"
         text-orientation="sideways"
         x="63"
         y="63"
         id="text30887">bincount</text></g><g
       fill="none"
       stroke-width="10"
       stroke="#ffb2b0"
       id="g31001"><line
         x1="332.06"
         x2="332.06"
         y1="274.47"
         y2="637"
         id="line30891" /><line
         x1="224.44"
         x2="224.44"
         y1="415.45999"
         y2="637"
         id="line30893" /><line
         x1="116.81"
         x2="116.81"
         y1="616.85999"
         y2="637"
         id="line30895" /><line
         x1="296.19"
         x2="296.19"
         y1="294.60999"
         y2="637"
         id="line30897" /><line
         x1="394.84"
         x2="394.84"
         y1="435.60001"
         y2="637"
         id="line30899" /><line
         x1="511.44"
         x2="511.44"
         y1="596.71997"
         y2="637"
         id="line30901" /><line
         x1="341.03"
         x2="341.03"
         y1="113.35"
         y2="637"
         id="line30903" /><line
         x1="107.84"
         x2="107.84"
         y1="616.85999"
         y2="637"
         id="line30905" /><line
         x1="152.69"
         x2="152.69"
         y1="596.71997"
         y2="637"
         id="line30907" /><line
         x1="314.13"
         x2="314.13"
         y1="355.04001"
         y2="637"
         id="line30909" /><line
         x1="367.94"
         x2="367.94"
         y1="334.89001"
         y2="637"
         id="line30911" /><line
         x1="323.09"
         x2="323.09"
         y1="355.04001"
         y2="637"
         id="line30913" /><line
         x1="466.59"
         x2="466.59"
         y1="516.15997"
         y2="637"
         id="line30915" /><line
         x1="260.31"
         x2="260.31"
         y1="415.45999"
         y2="637"
         id="line30917" /><line
         x1="520.40997"
         x2="520.40997"
         y1="616.85999"
         y2="637"
         id="line30919" /><line
         x1="610.09003"
         x2="610.09003"
         y1="616.85999"
         y2="637"
         id="line30921" /><line
         x1="278.25"
         x2="278.25"
         y1="536.29999"
         y2="637"
         id="line30923" /><line
         x1="161.66"
         x2="161.66"
         y1="596.71997"
         y2="637"
         id="line30925" /><line
         x1="134.75"
         x2="134.75"
         y1="596.71997"
         y2="637"
         id="line30927" /><line
         x1="448.66"
         x2="448.66"
         y1="496.01999"
         y2="637"
         id="line30929" /><line
         x1="529.38"
         x2="529.38"
         y1="616.85999"
         y2="637"
         id="line30931" /><line
         x1="125.78"
         x2="125.78"
         y1="596.71997"
         y2="637"
         id="line30933" /><line
         x1="305.16"
         x2="305.16"
         y1="153.63"
         y2="637"
         id="line30935" /><line
         x1="179.59"
         x2="179.59"
         y1="536.29999"
         y2="637"
         id="line30937" /><line
         x1="592.15997"
         x2="592.15997"
         y1="616.85999"
         y2="637"
         id="line30939" /><line
         x1="385.88"
         x2="385.88"
         y1="234.19"
         y2="637"
         id="line30941" /><line
         x1="206.5"
         x2="206.5"
         y1="435.60001"
         y2="637"
         id="line30943" /><line
         x1="556.28003"
         x2="556.28003"
         y1="556.44"
         y2="637"
         id="line30945" /><line
         x1="637"
         x2="637"
         y1="616.85999"
         y2="637"
         id="line30947" /><line
         x1="197.53"
         x2="197.53"
         y1="556.44"
         y2="637"
         id="line30949" /><line
         x1="484.53"
         x2="484.53"
         y1="536.29999"
         y2="637"
         id="line30951" /><line
         x1="358.97"
         x2="358.97"
         y1="355.04001"
         y2="637"
         id="line30953" /><line
         x1="98.879997"
         x2="98.879997"
         y1="616.85999"
         y2="637"
         id="line30955" /><line
         x1="439.69"
         x2="439.69"
         y1="415.45999"
         y2="637"
         id="line30957" /><line
         x1="350"
         x2="350"
         y1="254.33"
         y2="637"
         id="line30959" /><line
         x1="538.34003"
         x2="538.34003"
         y1="556.44"
         y2="637"
         id="line30961" /><line
         x1="269.28"
         x2="269.28"
         y1="254.33"
         y2="637"
         id="line30963" /><line
         x1="188.56"
         x2="188.56"
         y1="516.15997"
         y2="637"
         id="line30965" /><line
         x1="502.47"
         x2="502.47"
         y1="536.29999"
         y2="637"
         id="line30967" /><line
         x1="430.72"
         x2="430.72"
         y1="395.32001"
         y2="637"
         id="line30969" /><line
         x1="233.41"
         x2="233.41"
         y1="435.60001"
         y2="637"
         id="line30971" /><line
         x1="412.78"
         x2="412.78"
         y1="334.89001"
         y2="637"
         id="line30973" /><line
         x1="376.91"
         x2="376.91"
         y1="234.19"
         y2="637"
         id="line30975" /><line
         x1="63"
         x2="63"
         y1="616.85999"
         y2="637"
         id="line30977" /><line
         x1="457.63"
         x2="457.63"
         y1="415.45999"
         y2="637"
         id="line30979" /><line
         x1="251.34"
         x2="251.34"
         y1="435.60001"
         y2="637"
         id="line30981" /><line
         x1="242.38"
         x2="242.38"
         y1="334.89001"
         y2="637"
         id="line30983" /><line
         x1="565.25"
         x2="565.25"
         y1="616.85999"
         y2="637"
         id="line30985" /><line
         x1="475.56"
         x2="475.56"
         y1="496.01999"
         y2="637"
         id="line30987" /><line
         x1="170.63"
         x2="170.63"
         y1="516.15997"
         y2="637"
         id="line30989" /><line
         x1="421.75"
         x2="421.75"
         y1="153.63"
         y2="637"
         id="line30991" /><line
         x1="493.5"
         x2="493.5"
         y1="516.15997"
         y2="637"
         id="line30993" /><line
         x1="215.47"
         x2="215.47"
         y1="496.01999"
         y2="637"
         id="line30995" /><line
         x1="287.22"
         x2="287.22"
         y1="254.33"
         y2="637"
         id="line30997" /><line
         x1="403.81"
         x2="403.81"
         y1="355.04001"
         y2="637"
         id="line30999" /></g><g
       stroke="#000000"
       id="g31035"><line
         x1="63"
         x2="63"
         y1="637"
         y2="647"
         id="line31003" /><line
         x1="152.69"
         x2="152.69"
         y1="637"
         y2="647"
         id="line31005" /><line
         x1="242.38"
         x2="242.38"
         y1="637"
         y2="647"
         id="line31007" /><line
         x1="332.06"
         x2="332.06"
         y1="637"
         y2="647"
         id="line31009" /><line
         x1="421.75"
         x2="421.75"
         y1="637"
         y2="647"
         id="line31011" /><line
         x1="511.44"
         x2="511.44"
         y1="637"
         y2="647"
         id="line31013" /><line
         x1="601.13"
         x2="601.13"
         y1="637"
         y2="647"
         id="line31015" /><g
         fill="#000000"
         font-family="Arial, sans-serif"
         font-size="18px"
         stroke="none"
         text-anchor="start"
         transform="translate(9)"
         id="g31031"><text
           x="63"
           y="657.57001"
           id="text31017">-30</text><text
           x="152.69"
           y="657.57001"
           id="text31019">-20</text><text
           x="242.38"
           y="657.57001"
           id="text31021">-10</text><text
           x="332.06"
           y="657.57001"
           id="text31023">0</text><text
           x="421.75"
           y="657.57001"
           id="text31025">10</text><text
           x="511.44"
           y="657.57001"
           id="text31027">20</text><text
           x="601.13"
           y="657.57001"
           id="text31029">30</text></g><line
         x1="63"
         x2="637"
         y1="637"
         y2="637"
         id="line31033" /></g><g
       stroke="#000000"
       id="g31053"><line
         x1="63"
         x2="51"
         y1="637"
         y2="637"
         id="line31037" /><line
         x1="63"
         x2="51"
         y1="435.60001"
         y2="435.60001"
         id="line31039" /><line
         x1="63"
         x2="51"
         y1="234.19"
         y2="234.19"
         id="line31041" /><g
         fill="#000000"
         font-family="Arial, sans-serif"
         font-size="18px"
         stroke="none"
         text-anchor="end"
         id="g31049"><text
           x="54"
           y="628"
           id="text31043">0</text><text
           x="54"
           y="426.60001"
           id="text31045">10</text><text
           x="54"
           y="225.19"
           id="text31047">20</text></g><line
         x1="63"
         x2="63"
         y1="637"
         y2="63"
         id="line31051" /></g></g><g
     id="g34897"
     transform="translate(1253.4403,-49.02771)"><g
       stroke-dasharray="3.6, 7.2"
       stroke-width="0.72"
       stroke="#ccaaaa"
       id="g34803"><line
         x1="149.97"
         x2="149.97"
         y1="637"
         y2="63"
         id="line34793" /><line
         x1="323.91"
         x2="323.91"
         y1="637"
         y2="63"
         id="line34795" /><line
         x1="497.85001"
         x2="497.85001"
         y1="637"
         y2="63"
         id="line34797" /><line
         x1="63"
         x2="637"
         y1="637"
         y2="637"
         id="line34799" /><line
         x1="63"
         x2="637"
         y1="198.83"
         y2="198.83"
         id="line34801" /></g><g
       id="g34807"><text
         dominant-baseline="hanging"
         dx="-36"
         dy="18"
         fill="#0004"
         font-family="Arial, sans-serif"
         font-size="36px"
         stroke="none"
         text-anchor="end"
         x="637"
         y="111.2"
         id="text34805">N:100 VAR: 5 MEAN: 0.57</text></g><g
       id="g34811"><text
         dominant-baseline="text-bottom"
         dy="0"
         fill="#000000"
         font-family="Arial, sans-serif"
         font-size="18px"
         font-style="italic"
         stroke="none"
         text-anchor="middle"
         x="350"
         y="63"
         id="text34809">index</text></g><g
       id="g34815"><text
         dominant-baseline="hanging"
         dx="18"
         dy="18"
         fill="#000000"
         font-family="Arial, sans-serif"
         font-size="18px"
         font-style="italic"
         stroke="none"
         text-anchor="beginning"
         text-orientation="sideways"
         x="63"
         y="63"
         id="text34813">bincount</text></g><g
       fill="none"
       stroke-width="10"
       stroke="#ffb2b0"
       id="g34863"><line
         x1="323.91"
         x2="323.91"
         y1="374.10001"
         y2="637"
         id="line34817" /><line
         x1="254.33"
         x2="254.33"
         y1="374.10001"
         y2="637"
         id="line34819" /><line
         x1="445.67001"
         x2="445.67001"
         y1="549.37"
         y2="637"
         id="line34821" /><line
         x1="341.29999"
         x2="341.29999"
         y1="111.2"
         y2="637"
         id="line34823" /><line
         x1="289.12"
         x2="289.12"
         y1="242.64999"
         y2="637"
         id="line34825" /><line
         x1="393.48001"
         x2="393.48001"
         y1="330.28"
         y2="637"
         id="line34827" /><line
         x1="306.51999"
         x2="306.51999"
         y1="417.92001"
         y2="637"
         id="line34829" /><line
         x1="184.75999"
         x2="184.75999"
         y1="593.17999"
         y2="637"
         id="line34831" /><line
         x1="219.55"
         x2="219.55"
         y1="549.37"
         y2="637"
         id="line34833" /><line
         x1="550.03003"
         x2="550.03003"
         y1="549.37"
         y2="637"
         id="line34835" /><line
         x1="271.73001"
         x2="271.73001"
         y1="374.10001"
         y2="637"
         id="line34837" /><line
         x1="428.26999"
         x2="428.26999"
         y1="593.17999"
         y2="637"
         id="line34839" /><line
         x1="63"
         x2="63"
         y1="593.17999"
         y2="637"
         id="line34841" /><line
         x1="376.09"
         x2="376.09"
         y1="286.47"
         y2="637"
         id="line34843" /><line
         x1="358.70001"
         x2="358.70001"
         y1="374.10001"
         y2="637"
         id="line34845" /><line
         x1="202.14999"
         x2="202.14999"
         y1="461.73001"
         y2="637"
         id="line34847" /><line
         x1="515.23999"
         x2="515.23999"
         y1="593.17999"
         y2="637"
         id="line34849" /><line
         x1="480.45001"
         x2="480.45001"
         y1="461.73001"
         y2="637"
         id="line34851" /><line
         x1="410.88"
         x2="410.88"
         y1="374.10001"
         y2="637"
         id="line34853" /><line
         x1="167.36"
         x2="167.36"
         y1="549.37"
         y2="637"
         id="line34855" /><line
         x1="637"
         x2="637"
         y1="593.17999"
         y2="637"
         id="line34857" /><line
         x1="236.94"
         x2="236.94"
         y1="374.10001"
         y2="637"
         id="line34859" /><line
         x1="463.06"
         x2="463.06"
         y1="549.37"
         y2="637"
         id="line34861" /></g><g
       stroke="#000000"
       id="g34881"><line
         x1="149.97"
         x2="149.97"
         y1="637"
         y2="647"
         id="line34865" /><line
         x1="323.91"
         x2="323.91"
         y1="637"
         y2="647"
         id="line34867" /><line
         x1="497.85001"
         x2="497.85001"
         y1="637"
         y2="647"
         id="line34869" /><g
         fill="#000000"
         font-family="Arial, sans-serif"
         font-size="18px"
         stroke="none"
         text-anchor="start"
         transform="translate(9)"
         id="g34877"><text
           x="149.97"
           y="657.57001"
           id="text34871">-10</text><text
           x="323.91"
           y="657.57001"
           id="text34873">0</text><text
           x="497.85001"
           y="657.57001"
           id="text34875">10</text></g><line
         x1="63"
         x2="637"
         y1="637"
         y2="637"
         id="line34879" /></g><g
       stroke="#000000"
       id="g34895"><line
         x1="63"
         x2="51"
         y1="637"
         y2="637"
         id="line34883" /><line
         x1="63"
         x2="51"
         y1="198.83"
         y2="198.83"
         id="line34885" /><g
         fill="#000000"
         font-family="Arial, sans-serif"
         font-size="18px"
         stroke="none"
         text-anchor="end"
         id="g34891"><text
           x="54"
           y="628"
           id="text34887">0</text><text
           x="54"
           y="189.83"
           id="text34889">10</text></g><line
         x1="63"
         x2="63"
         y1="637"
         y2="63"
         id="line34893" /></g></g></svg>
