<?xml version="1.0" encoding="UTF-8" standalone="no"?>
<!-- Created with Inkscape (http://www.inkscape.org/) -->

<svg
   width="246.63359mm"
   height="270.74442mm"
   viewBox="0 0 246.63359 270.74441"
   version="1.1"
   id="svg5"
   inkscape:version="1.1.2 (0a00cf5339, 2022-02-04)"
   sodipodi:docname="thammurd.svg"
   xmlns:inkscape="http://www.inkscape.org/namespaces/inkscape"
   xmlns:sodipodi="http://sodipodi.sourceforge.net/DTD/sodipodi-0.dtd"
   xmlns:xlink="http://www.w3.org/1999/xlink"
   xmlns="http://www.w3.org/2000/svg"
   xmlns:svg="http://www.w3.org/2000/svg">
  <sodipodi:namedview
     id="namedview7"
     pagecolor="#ffffff"
     bordercolor="#666666"
     borderopacity="1.0"
     inkscape:pageshadow="2"
     inkscape:pageopacity="0.0"
     inkscape:pagecheckerboard="0"
     inkscape:document-units="mm"
     showgrid="false"
     inkscape:zoom="0.99614538"
     inkscape:cx="410.08071"
     inkscape:cy="530.54505"
     inkscape:window-width="1235"
     inkscape:window-height="1651"
     inkscape:window-x="0"
     inkscape:window-y="0"
     inkscape:window-maximized="0"
     inkscape:current-layer="layer1" />
  <defs
     id="defs2">
    <inkscape:path-effect
       effect="powerstroke"
       id="path-effect223389"
       is_visible="true"
       lpeversion="1"
       offset_points="0,4.1717003"
       not_jump="false"
       sort_points="true"
       interpolator_type="CubicBezierJohan"
       interpolator_beta="0.2"
       start_linecap_type="zerowidth"
       linejoin_type="extrp_arc"
       miter_limit="4"
       scale_width="1"
       end_linecap_type="zerowidth" />
    <inkscape:path-effect
       effect="powerstroke"
       id="path-effect223385"
       is_visible="true"
       lpeversion="1"
       offset_points="1,4.99214"
       not_jump="false"
       sort_points="true"
       interpolator_type="CubicBezierJohan"
       interpolator_beta="0.2"
       start_linecap_type="zerowidth"
       linejoin_type="extrp_arc"
       miter_limit="4"
       scale_width="1"
       end_linecap_type="zerowidth" />
    <inkscape:path-effect
       effect="powerstroke"
       id="path-effect223381"
       is_visible="true"
       lpeversion="1"
       offset_points="1,4.99214"
       not_jump="false"
       sort_points="true"
       interpolator_type="CubicBezierJohan"
       interpolator_beta="0.2"
       start_linecap_type="zerowidth"
       linejoin_type="extrp_arc"
       miter_limit="4"
       scale_width="1"
       end_linecap_type="zerowidth" />
    <inkscape:perspective
       sodipodi:type="inkscape:persp3d"
       inkscape:vp_x="0 : 88.424437 : 1"
       inkscape:vp_y="0 : 1000 : 0"
       inkscape:vp_z="289.51566 : 88.424437 : 1"
       inkscape:persp3d-origin="144.75783 : 27.651113 : 1"
       id="perspective17350" />
    <linearGradient
       inkscape:collect="always"
       id="linearGradient1144">
      <stop
         style="stop-color:#000000;stop-opacity:1;"
         offset="0"
         id="stop1140" />
      <stop
         style="stop-color:#000000;stop-opacity:0;"
         offset="1"
         id="stop1142" />
    </linearGradient>
    <linearGradient
       inkscape:collect="always"
       xlink:href="#linearGradient1144"
       id="linearGradient1148"
       x1="119.46697"
       y1="226.02498"
       x2="107.58718"
       y2="197.92833"
       gradientUnits="userSpaceOnUse" />
    <inkscape:path-effect
       effect="powerstroke"
       id="path-effect223389-2"
       is_visible="true"
       lpeversion="1"
       offset_points="0,4.1717003"
       not_jump="false"
       sort_points="true"
       interpolator_type="CubicBezierJohan"
       interpolator_beta="0.2"
       start_linecap_type="zerowidth"
       linejoin_type="extrp_arc"
       miter_limit="4"
       scale_width="1"
       end_linecap_type="zerowidth" />
    <inkscape:path-effect
       effect="powerstroke"
       id="path-effect223389-2-9"
       is_visible="true"
       lpeversion="1"
       offset_points="0,4.1717003"
       not_jump="false"
       sort_points="true"
       interpolator_type="CubicBezierJohan"
       interpolator_beta="0.2"
       start_linecap_type="zerowidth"
       linejoin_type="extrp_arc"
       miter_limit="4"
       scale_width="1"
       end_linecap_type="zerowidth" />
    <inkscape:path-effect
       effect="powerstroke"
       id="path-effect223389-2-9-9"
       is_visible="true"
       lpeversion="1"
       offset_points="0,4.1717003"
       not_jump="false"
       sort_points="true"
       interpolator_type="CubicBezierJohan"
       interpolator_beta="0.2"
       start_linecap_type="zerowidth"
       linejoin_type="extrp_arc"
       miter_limit="4"
       scale_width="1"
       end_linecap_type="zerowidth" />
    <inkscape:path-effect
       effect="powerstroke"
       id="path-effect223389-2-9-9-2"
       is_visible="true"
       lpeversion="1"
       offset_points="0,4.1717003"
       not_jump="false"
       sort_points="true"
       interpolator_type="CubicBezierJohan"
       interpolator_beta="0.2"
       start_linecap_type="zerowidth"
       linejoin_type="extrp_arc"
       miter_limit="4"
       scale_width="1"
       end_linecap_type="zerowidth" />
    <inkscape:path-effect
       effect="powerstroke"
       id="path-effect223389-2-9-9-2-4"
       is_visible="true"
       lpeversion="1"
       offset_points="0,4.1717003"
       not_jump="false"
       sort_points="true"
       interpolator_type="CubicBezierJohan"
       interpolator_beta="0.2"
       start_linecap_type="zerowidth"
       linejoin_type="extrp_arc"
       miter_limit="4"
       scale_width="1"
       end_linecap_type="zerowidth" />
    <inkscape:path-effect
       effect="powerstroke"
       id="path-effect223389-2-9-9-2-4-3"
       is_visible="true"
       lpeversion="1"
       offset_points="0,4.1717003"
       not_jump="false"
       sort_points="true"
       interpolator_type="CubicBezierJohan"
       interpolator_beta="0.2"
       start_linecap_type="zerowidth"
       linejoin_type="extrp_arc"
       miter_limit="4"
       scale_width="1"
       end_linecap_type="zerowidth" />
    <inkscape:path-effect
       effect="powerstroke"
       id="path-effect223389-2-9-9-2-4-3-0"
       is_visible="true"
       lpeversion="1"
       offset_points="0,4.1717003"
       not_jump="false"
       sort_points="true"
       interpolator_type="CubicBezierJohan"
       interpolator_beta="0.2"
       start_linecap_type="zerowidth"
       linejoin_type="extrp_arc"
       miter_limit="4"
       scale_width="1"
       end_linecap_type="zerowidth" />
    <inkscape:path-effect
       effect="powerstroke"
       id="path-effect223389-2-9-9-2-4-3-0-5"
       is_visible="true"
       lpeversion="1"
       offset_points="0,4.1717003"
       not_jump="false"
       sort_points="true"
       interpolator_type="CubicBezierJohan"
       interpolator_beta="0.2"
       start_linecap_type="zerowidth"
       linejoin_type="extrp_arc"
       miter_limit="4"
       scale_width="1"
       end_linecap_type="zerowidth" />
    <inkscape:path-effect
       effect="powerstroke"
       id="path-effect223389-2-9-9-2-4-3-0-5-4"
       is_visible="true"
       lpeversion="1"
       offset_points="0,4.1717003"
       not_jump="false"
       sort_points="true"
       interpolator_type="CubicBezierJohan"
       interpolator_beta="0.2"
       start_linecap_type="zerowidth"
       linejoin_type="extrp_arc"
       miter_limit="4"
       scale_width="1"
       end_linecap_type="zerowidth" />
  </defs>
  <g
     inkscape:label="Layer 1"
     inkscape:groupmode="layer"
     id="layer1"
     transform="translate(28.475019,-33.984804)">
    <rect
       style="opacity:0.980163;fill:#e9e9e9;fill-opacity:1;stroke:#979797;stroke-width:1.24435;stroke-miterlimit:4;stroke-dasharray:none;stroke-dashoffset:0;stroke-opacity:1"
       id="rect310072"
       width="245.38924"
       height="269.50006"
       x="-27.852844"
       y="34.606979" />
    <ellipse
       style="opacity:0.609707;fill:none;stroke:url(#linearGradient1148);stroke-width:2.646;stroke-miterlimit:4;stroke-dasharray:7.938, 2.646;stroke-dashoffset:0;stroke-opacity:1"
       id="path848"
       cx="72.723656"
       cy="114.99843"
       rx="143.43771"
       ry="152.06905" />
    <path
       id="path5922"
       style="fill:#000000;fill-opacity:0;stroke:#000000;stroke-width:0.264583px;stroke-linecap:butt;stroke-linejoin:miter;stroke-opacity:0.91439"
       d="m 180.78385,213.03462 7.83361,-7.97146 m -116.305576,61.1656 c 11.683544,0.13082 20.421449,-0.8976 29.757556,-2.97208 m 86.54802,-58.19352 -22.35059,-15.06646 -20.62904,-18.06439 c -4.60826,-8.84291 -4.17183,-17.55982 8.95229,-25.95986 16.13023,0.13867 29.5694,-2.41953 31.63472,-16.37612 2.22326,-14.72422 1.55378,-28.08077 -8.85064,-36.834682 -16.60376,-13.4616 -32.64189,-14.344876 -43.15308,2.441562 -15.75213,10.76586 -3.59358,32.28304 -3.50414,41.04826 -6.00287,-7.32437 -11.42757,-22.39762 -9.98985,-32.79167 4.83398,-5.53205 7.66698,-11.981096 3.80555,-21.49803 3.87584,-10.864584 -1.83999,-22.118154 -5.78336,-30.500413 C 96.447465,36.266037 76.360343,32.40429 62.246552,59.110202 54.102073,71.83497 51.811017,84.629483 56.82119,97.510992 l 13.151817,33.671898 c -1.759633,10.32476 -6.994946,17.79541 -17.339363,21.0706 -9.359093,-26.73551 -18.752411,-28.2699 -28.143457,-31.47775 -18.1744896,0.71796 -23.1661802,9.7437 -24.10739257,21.32206 -0.003083,10.85349 3.59203417,27.73958 -2.37860043,28.58809 -19.194145,6.49278 -23.529619,17.5297 -20.869607,30.706 4.200028,14.6003 12.518251,15.00209 19.7270364,19.22895 15.3407056,-1.97956 31.9615946,4.87668 44.6992506,-15.06904 5.662392,-9.19721 9.302132,-21.13587 23.281589,-19.06037 17.03192,6.83485 13.818761,19.04734 15.546504,29.9474 l -4.964568,36.0764 -3.095304,13.6425 M 180.78385,213.03462 148.39741,187.13518 c -4.16247,-3.748 -19.45896,-9.86759 -30.39455,-2.22686 -8.70101,5.23645 -14.16247,11.75244 -17.31569,21.94864 -1.553694,19.21322 -0.41181,37.87338 1.38227,56.39972 M 76.220258,136.47944 c 15.3768,0.36668 12.962552,-14.52138 24.356392,-23.88226 5.96934,8.41217 24.01662,21.80543 25.57372,32.23546 -1.01195,5.55586 -3.35956,10.78736 -8.30378,15.38825 -8.07269,7.967 -16.52572,15.18056 -29.153535,14.12396 -13.199727,-1.88441 -22.647243,-6.95726 -30.331665,-13.5283 z"
       sodipodi:nodetypes="ccccccccccccccccccccccccccccccccccccccccc" />
    <path
       style="opacity:0.609707;fill:#9fe2ff;fill-opacity:1;stroke:none;stroke-width:9.02395;stroke-miterlimit:4;stroke-dasharray:none;stroke-dashoffset:0;stroke-opacity:0.934564"
       d="m 275.96197,1003.1521 c -0.23731,-0.3843 -0.13319,-2.0085 0.23137,-3.60933 0.36457,-1.60082 0.74432,-3.51966 0.84391,-4.26409 0.0996,-0.74443 0.43221,-1.96259 0.73915,-2.70701 1.2034,-2.91867 4.19446,-17.3325 3.74697,-18.05654 -0.26101,-0.42233 -0.0999,-0.9994 0.35796,-1.28239 0.45789,-0.28299 1.10469,-2.64584 1.43732,-5.25079 0.33264,-2.60494 0.98144,-6.15745 1.44178,-7.89445 0.46033,-1.737 1.45607,-7.42173 2.21276,-12.63273 0.75668,-5.211 1.56271,-10.6927 1.79119,-12.18156 1.50358,-9.79815 5.87285,-40.41083 6.24623,-43.76339 0.24872,-2.23328 1.05266,-7.91801 1.78655,-12.63273 0.73388,-4.71471 1.55451,-10.60247 1.82361,-13.0839 0.26911,-2.48143 1.81901,-13.85088 3.44422,-25.26546 2.8863,-20.27189 2.92951,-21.03661 1.86063,-32.93533 -0.60186,-6.69986 -1.32983,-15.02393 -1.6177,-18.49793 -0.28786,-3.474 -0.67936,-7.73754 -0.86999,-9.47454 -1.06289,-9.68513 -1.53493,-13.23727 -1.93896,-14.59091 -0.2474,-0.82886 -0.62893,-2.45307 -0.84784,-3.60935 -0.96441,-5.09402 -1.58045,-7.5784 -2.08756,-8.41871 -0.2995,-0.49629 -0.65668,-1.6223 -0.79374,-2.50224 -0.26762,-1.71812 -5.53082,-12.54026 -6.46277,-13.28867 -0.309,-0.24815 -1.10012,-1.49824 -1.75803,-2.77799 -2.14064,-4.16387 -17.55644,-18.87603 -19.78026,-18.87742 -0.62036,-3.9e-4 -1.12793,-0.34021 -1.12793,-0.75516 0,-0.41495 -4.06052,-2.8779 -9.02338,-5.47324 -4.96285,-2.59535 -9.02337,-4.43942 -9.02337,-4.09793 0,0.34148 -0.67067,0.0636 -1.49036,-0.61753 -1.71828,-1.4278 -20.8599,-1.76328 -26.92252,-0.47185 -5.05402,1.07658 -14.60126,5.00573 -15.86596,6.52961 -0.58247,0.70182 -1.61771,1.27605 -2.30055,1.27605 -2.10697,0 -16.87752,15.41452 -21.61602,22.55844 l -4.48884,6.76754 L 91.564778,673.06966 7.2197179,604.86876 6.6520448,600.88263 C 6.3398246,598.69026 5.814813,592.42993 5.4853523,586.97079 5.1558917,581.51165 4.7684067,575.42086 4.6242744,573.43572 4.4801423,571.45058 4.0462398,561.70533 3.6600466,551.77961 3.0762527,536.77528 3.2072773,532.32773 4.4372462,525.39804 c 4.6515508,-26.207 14.9188858,-42.79236 33.2272888,-53.6738 3.106226,-1.84615 6.24678,-3.87641 6.97901,-4.51169 0.73223,-0.63527 1.341308,-0.98717 1.353507,-0.78201 0.02327,0.39144 9.319363,-2.50542 10.812064,-3.36927 0.475292,-0.27505 1.851768,-0.6054 3.058837,-0.73409 1.207067,-0.1287 2.848452,-0.50712 3.647521,-0.84095 0.79907,-0.33382 2.467983,-0.73021 3.708698,-0.88087 1.240714,-0.15065 7.288467,-0.88414 13.439451,-1.62997 l 11.183608,-1.35605 11.374839,4.02019 c 14.54158,5.1394 27.80668,11.67794 35.40864,17.45338 12.70279,9.65071 27.99234,28.74432 37.25083,46.5189 l 3.29009,6.31637 -9.9273,22.46303 c -5.46002,12.35468 -9.66201,22.91203 -9.33777,23.46079 0.32424,0.54876 8.04512,10.84133 17.15751,22.87237 11.03686,14.57189 17.23233,22.00979 18.55795,22.27953 1.09449,0.22271 9.50194,0.85403 18.68323,1.40292 9.18128,0.5489 19.2335,1.15036 22.33825,1.33658 3.6564,0.21929 6.71372,0.99907 8.67873,2.21351 1.66853,1.03121 3.49333,1.87493 4.05511,1.87493 0.56179,0 1.02142,0.33346 1.02142,0.74101 0,0.74617 17.54358,9.84406 27.42768,14.22368 5.55705,2.4623 24.77223,8.90852 29.14509,9.77746 1.3917,0.27654 7.19996,1.56091 12.90725,2.85414 12.06322,2.73345 29.59453,3.69621 38.2483,2.10048 3.03329,-0.55933 6.73324,-1.20676 8.2221,-1.43872 5.0763,-0.79088 18.13906,-5.5424 25.77049,-9.3739 8.14056,-4.08712 18.24991,-10.42911 18.74484,-11.75936 0.16544,-0.44464 0.70384,-0.80843 1.19646,-0.80843 3.35532,0 34.79944,-29.36603 46.2733,-43.21519 7.53281,-9.09223 14.38255,-23.20905 17.72196,-36.52366 1.25033,-4.98522 2.36153,-7.7393 3.02058,-7.4864 0.57343,0.22005 18.48581,4.95403 39.8053,10.51997 21.31949,5.56594 39.10403,10.32741 39.52123,10.58105 0.41719,0.25363 -0.62938,1.93714 -2.32571,3.74113 -6.6994,7.12456 -8.72323,10.35658 -13.63687,21.7779 -2.18557,5.08015 -3.5699,15.1343 -3.04302,22.10092 0.55376,7.32182 5.27011,24.63987 7.95635,29.21503 l 1.78541,3.04086 -12.35538,19.13877 -12.35538,19.13877 -5.04807,-1.13065 c -13.08483,-2.93069 -32.56833,-3.76857 -42.14085,-1.81224 -12.41108,2.53644 -12.68289,2.62687 -22.46153,7.473 -9.20629,4.56249 -15.78692,8.53729 -15.7893,9.53699 -8.9e-4,0.37222 -0.61069,0.67676 -1.35512,0.67676 -0.74443,0 -1.35351,0.40605 -1.35351,0.90233 0,0.49629 -0.44913,0.90234 -0.99807,0.90234 -0.91323,0 -5.07153,2.97233 -10.68601,7.63829 -6.92501,5.7551 -21.88292,21.68858 -25.54734,27.21356 -4.29713,6.47896 -12.36623,21.07707 -12.79007,23.13903 -0.12575,0.61174 -1.09908,3.06338 -2.16295,5.44809 -2.77043,6.20998 -4.55574,12.89285 -5.10917,19.12495 -2.98135,33.57272 -2.9792,85.75425 0.005,138.99976 0.62964,11.23148 3.84721,53.26689 4.59722,60.0595 0.52471,4.75214 0.42996,5.09669 -1.57357,5.72207 -2.87683,0.89797 -4.2127,1.18294 -8.44826,1.8022 -1.98515,0.29024 -6.85777,1.11484 -10.82806,1.83245 -8.37924,1.5145 -39.13519,5.68462 -43.76339,5.93382 -0.74442,0.04 -7.85033,0.4952 -15.79091,1.0114 -18.75279,1.2192 -26.68997,1.3653 -27.22356,0.5011 z"
       id="path11927"
       transform="scale(0.26458333)" />
    <path
       style="opacity:0.609707;fill:#9fe2ff;fill-opacity:1;stroke:none;stroke-width:0.9027;stroke-miterlimit:4;stroke-dasharray:none;stroke-dashoffset:0;stroke-opacity:0.934564"
       d="m 82.093948,322.70563 c -7.32741,-0.43908 -15.01246,-2.12723 -23.24303,-5.10567 -6.43488,-2.32865 -10.03579,-7.7013 -10.70301,-15.96922 -0.13397,-1.66018 -0.0609,-5.59001 0.13918,-7.4845 0.36671,-3.47239 0.96591,-6.7823 1.50806,-8.33046 2.87472,-8.20902 8.58395,-14.52743 18.07983,-20.00893 l 0.90029,-0.51969 4.60583,-0.0241 c 4.49394,-0.0236 6.24057,-0.0879 9.93141,-0.36571 7.21914,-0.5434 14.6611,-1.70421 21.458522,-3.34711 l 1.3296,-0.32135 1.15266,0.33426 c 1.37065,0.39748 3.5747,1.16898 4.91703,1.72114 9.14974,3.76365 14.17,9.45404 15.18692,17.21416 0.0768,0.58587 0.13959,1.31025 0.13959,1.6097 0,0.29948 0.0787,0.8559 0.17478,1.23653 0.7293,2.88761 1.0655,6.60723 0.82537,9.13173 -0.46099,4.84634 -2.35188,8.79268 -6.28905,13.12539 -0.45515,0.50089 -2.00018,2.08899 -3.4334,3.52912 -2.94404,2.95828 -4.11366,4.22915 -5.28318,5.74056 l -0.81063,1.04762 -1.5958,0.79385 c -9.2235,4.58843 -18.932772,6.59543 -28.990972,5.99274 z"
       id="path15415" />
    <path
       sodipodi:type="star"
       style="opacity:0.609707;fill:#e4e4e4;fill-opacity:1;stroke:#000000;stroke-width:10.0006;stroke-miterlimit:4;stroke-dasharray:none;stroke-dashoffset:0;stroke-opacity:1"
       id="path17074"
       inkscape:flatsided="false"
       sodipodi:sides="10"
       sodipodi:cx="832.10291"
       sodipodi:cy="669.05408"
       sodipodi:r1="132.66612"
       sodipodi:r2="147.4068"
       sodipodi:arg1="0.36902147"
       sodipodi:arg2="0.68318073"
       inkscape:rounded="0"
       inkscape:randomized="0"
       d="m 955.83804,716.90714 -9.41102,45.19941 -42.34761,18.39116 -34.18123,31.03542 -45.06998,-10.01253 -45.89536,5.01696 -30.57716,-34.59178 -40.07903,-22.91781 -4.4049,-45.95814 -18.95386,-42.09876 23.44988,-39.77005 9.41103,-45.19941 42.3476,-18.39116 34.18123,-31.03543 45.06998,10.01254 45.89536,-5.01697 30.57716,34.59179 40.07903,22.9178 4.4049,45.95815 18.95386,42.09875 z"
       transform="matrix(0.02503482,0,0,0.02503482,132.93525,116.03999)"
       inkscape:transform-center-x="-4.1014006e-06"
       inkscape:transform-center-y="1.4794865e-06" />
    <text
       xml:space="preserve"
       style="font-style:normal;font-weight:normal;font-size:4.23333px;line-height:1.25;font-family:sans-serif;fill:#000000;fill-opacity:1;stroke:none;stroke-width:0.264583"
       x="193.34128"
       y="203.98404"
       id="text29982"><tspan
         sodipodi:role="line"
         id="tspan29980"
         style="font-size:4.23333px;stroke-width:0.264583"
         x="193.34128"
         y="203.98404">narrow </tspan><tspan
         sodipodi:role="line"
         style="font-size:4.23333px;stroke-width:0.264583"
         x="193.34128"
         y="209.2757"
         id="tspan31982">window</tspan><tspan
         sodipodi:role="line"
         style="font-size:4.23333px;stroke-width:0.264583"
         x="193.34128"
         y="214.56737"
         id="tspan81000">(crawl in)</tspan></text>
    <text
       xml:space="preserve"
       style="font-size:4.23333px;line-height:1.25;font-family:sans-serif;stroke-width:0.264583"
       x="146.40953"
       y="211.44826"
       id="text48954"><tspan
         sodipodi:role="line"
         style="stroke-width:0.264583"
         x="146.40953"
         y="211.44826"
         id="tspan48956">steep descent</tspan><tspan
         sodipodi:role="line"
         style="stroke-width:0.264583"
         x="146.40953"
         y="216.73991"
         id="tspan53716">(rope suggested)</tspan></text>
    <text
       xml:space="preserve"
       style="font-size:4.23333px;line-height:1.25;font-family:sans-serif;stroke-width:0.264583"
       x="155.78755"
       y="139.5325"
       id="text70810"><tspan
         sodipodi:role="line"
         style="stroke-width:0.264583"
         x="155.78755"
         y="139.5325"
         id="tspan70812">leaning rock of pisa</tspan></text>
    <text
       xml:space="preserve"
       style="font-size:4.23333px;line-height:1.25;font-family:sans-serif;stroke-width:0.264583"
       x="174.6467"
       y="86.336258"
       id="text91566"><tspan
         sodipodi:role="line"
         id="tspan91564"
         style="stroke-width:0.264583"
         x="174.6467"
         y="86.336258">Room 1</tspan></text>
    <text
       xml:space="preserve"
       style="font-size:4.23333px;line-height:1.25;font-family:sans-serif;stroke-width:0.264583"
       x="125.18092"
       y="58.684032"
       id="text93616"><tspan
         sodipodi:role="line"
         id="tspan93614"
         style="stroke-width:0.264583"
         x="125.18092"
         y="58.684032">Room 2</tspan></text>
    <text
       xml:space="preserve"
       style="font-size:4.23333px;line-height:1.25;font-family:sans-serif;stroke-width:0.264583"
       x="103.6861"
       y="140.81467"
       id="text103960"><tspan
         sodipodi:role="line"
         id="tspan103958"
         style="stroke-width:0.264583"
         x="103.6861"
         y="140.81467">Passage 1</tspan></text>
    <text
       xml:space="preserve"
       style="font-size:4.23333px;line-height:1.25;font-family:sans-serif;stroke-width:0.264583"
       x="64.627251"
       y="157.06854"
       id="text106934"><tspan
         sodipodi:role="line"
         id="tspan106932"
         style="stroke-width:0.264583"
         x="64.627251"
         y="157.06854">Passage 2</tspan></text>
    <text
       xml:space="preserve"
       style="font-size:4.23333px;line-height:1.25;font-family:sans-serif;text-align:center;text-anchor:middle;stroke-width:0.264583"
       x="101.56404"
       y="177.82458"
       id="text114804"><tspan
         sodipodi:role="line"
         id="tspan114802"
         style="text-align:center;text-anchor:middle;stroke-width:0.264583"
         x="101.56404"
         y="177.82458">wet season</tspan><tspan
         sodipodi:role="line"
         style="text-align:center;text-anchor:middle;stroke-width:0.264583"
         x="101.56404"
         y="183.11624"
         id="tspan251653">deep water</tspan><tspan
         sodipodi:role="line"
         style="text-align:center;text-anchor:middle;stroke-width:0.264583"
         x="101.56404"
         y="188.40791"
         id="tspan114806">(impassable)</tspan></text>
    <text
       xml:space="preserve"
       style="font-size:4.23333px;line-height:1.25;font-family:sans-serif;stroke-width:0.264583"
       x="120.27062"
       y="166.82269"
       id="text134278"><tspan
         sodipodi:role="line"
         id="tspan134276"
         style="stroke-width:0.264583"
         x="120.27062"
         y="166.82269">waist deep</tspan></text>
    <circle
       style="opacity:0.609707;fill:#e4e4e4;fill-opacity:1;stroke:#000000;stroke-width:2.64599;stroke-miterlimit:4;stroke-dasharray:none;stroke-dashoffset:0;stroke-opacity:1"
       id="path136726"
       cx="165.41013"
       cy="123.27229"
       r="3.9920871" />
    <circle
       style="opacity:0.609707;fill:#e4e4e4;fill-opacity:1;stroke:#000000;stroke-width:2.64599;stroke-miterlimit:4;stroke-dasharray:none;stroke-dashoffset:0;stroke-opacity:1"
       id="path136726-6"
       cx="167.29745"
       cy="111.77553"
       r="3.9920871" />
    <circle
       style="opacity:0.609707;fill:#e4e4e4;fill-opacity:1;stroke:#000000;stroke-width:2.64599;stroke-miterlimit:4;stroke-dasharray:none;stroke-dashoffset:0;stroke-opacity:1"
       id="path136726-7"
       cx="162.08331"
       cy="95.61171"
       r="3.9920871" />
    <circle
       style="opacity:0.609707;fill:#e4e4e4;fill-opacity:1;stroke:#000000;stroke-width:2.64599;stroke-miterlimit:4;stroke-dasharray:none;stroke-dashoffset:0;stroke-opacity:1"
       id="path136726-5"
       cx="161.04048"
       cy="87.269096"
       r="3.9920871" />
    <circle
       style="opacity:0.609707;fill:#e4e4e4;fill-opacity:1;stroke:#000000;stroke-width:2.64599;stroke-miterlimit:4;stroke-dasharray:none;stroke-dashoffset:0;stroke-opacity:1"
       id="path136726-5-1-8"
       cx="66.046539"
       cy="115.46288"
       r="3.9920871" />
    <text
       xml:space="preserve"
       style="font-size:4.23333px;line-height:1.25;font-family:sans-serif;stroke-width:0.264583"
       x="63.764324"
       y="117.04494"
       id="text197942-2-7"><tspan
         sodipodi:role="line"
         id="tspan197940-7-9"
         style="stroke-width:0.264583"
         x="63.764324"
         y="117.04494">SY</tspan></text>
    <circle
       style="opacity:0.609707;fill:#e4e4e4;fill-opacity:1;stroke:#000000;stroke-width:2.64599;stroke-miterlimit:4;stroke-dasharray:none;stroke-dashoffset:0;stroke-opacity:1"
       id="path136726-3"
       cx="176.94359"
       cy="198.59085"
       r="3.9920871" />
    <circle
       style="opacity:0.609707;fill:#e4e4e4;fill-opacity:1;stroke:#000000;stroke-width:2.64599;stroke-miterlimit:4;stroke-dasharray:none;stroke-dashoffset:0;stroke-opacity:1"
       id="path136726-56"
       cx="121.89966"
       cy="130.54126"
       r="3.9920871" />
    <circle
       style="opacity:0.609707;fill:#e4e4e4;fill-opacity:1;stroke:#000000;stroke-width:2.64599;stroke-miterlimit:4;stroke-dasharray:none;stroke-dashoffset:0;stroke-opacity:1"
       id="path136726-2"
       r="3.9920871"
       cy="93.26535"
       cx="120.10954" />
    <circle
       style="opacity:0.609707;fill:#e4e4e4;fill-opacity:1;stroke:#000000;stroke-width:2.64599;stroke-miterlimit:4;stroke-dasharray:none;stroke-dashoffset:0;stroke-opacity:1"
       id="path136726-2-9"
       r="3.9920871"
       cy="111.06763"
       cx="118.7196" />
    <path
       style="fill:none;stroke:#000000;stroke-width:0.264583px;stroke-linecap:butt;stroke-linejoin:miter;stroke-opacity:1"
       d="m 115.88968,113.44519 -2.75958,-4.91115 c -4.13255,-4.09437 -7.41782,-2.28664 -10.6555,-0.14738 5.32298,5.60592 9.83031,3.32899 13.41508,5.05853 z"
       id="path137317"
       sodipodi:nodetypes="cccc" />
    <ellipse
       style="opacity:0.980163;fill:#e9e9e9;fill-opacity:1;stroke:#979797;stroke-width:0.264583;stroke-miterlimit:4;stroke-dasharray:none;stroke-dashoffset:0;stroke-opacity:1"
       id="path235861"
       cx="114.4817"
       cy="37.310852"
       rx="4.777082"
       ry="10.573352"
       transform="rotate(12.126026)" />
    <path
       style="opacity:0.443534;fill:none;stroke:#f8abf7;stroke-width:2.64583;stroke-linecap:butt;stroke-linejoin:miter;stroke-miterlimit:4;stroke-dasharray:none;stroke-opacity:1"
       d="m 139.72278,298.85528 c 11.24522,-21.55081 57.41044,-83.33593 40.89814,-92.36752 l -39.64451,-31.32093 c -6.9358,-9.57713 -8.38854,-13.18589 -8.58929,-18.967 1.10915,-6.76671 3.0509,-13.03777 15.45761,-13.07907 7.74307,-1.74648 15.16441,0.96581 23.31476,-6.42501 5.9492,-10.31421 9.75638,-21.09335 -0.73644,-34.97628 -6.81159,-6.504706 -12.49096,-15.487939 -27.82986,-3.325494 -9.83259,12.023884 -1.07981,29.360994 -8.96374,39.937584 -10.84277,2.58571 -13.57282,-14.56163 -32.86536,-28.43328 -4.3508,-5.84819 5.11073,-12.604689 9.62511,-7.99312 l 9.29192,10.85426 C 115.58903,94.957132 130.10215,63.661824 95.357743,68.089464 77.996958,71.678312 62.35402,79.895136 65.572523,97.011217 c 4.882411,8.932543 10.39982,17.346563 9.24276,31.210713 -5.491945,16.37899 -13.566097,23.77463 -24.609178,29.09588 v 0"
       id="path138009"
       sodipodi:nodetypes="ccccccccccccccccc" />
    <text
       xml:space="preserve"
       style="font-size:4.23333px;line-height:1.25;font-family:sans-serif;stroke-width:0.264583"
       x="174.92445"
       y="200.07664"
       id="text153216"><tspan
         sodipodi:role="line"
         id="tspan153214"
         style="stroke-width:0.264583"
         x="174.92445"
         y="200.07664">S1</tspan></text>
    <text
       xml:space="preserve"
       style="font-size:4.23333px;line-height:1.25;font-family:sans-serif;stroke-width:0.264583"
       x="163.1286"
       y="124.91642"
       id="text166060"><tspan
         sodipodi:role="line"
         id="tspan166058"
         style="stroke-width:0.264583"
         x="163.1286"
         y="124.91642">S2</tspan></text>
    <text
       xml:space="preserve"
       style="font-size:4.23333px;line-height:1.25;font-family:sans-serif;stroke-width:0.264583"
       x="164.84041"
       y="113.24083"
       id="text173566"><tspan
         sodipodi:role="line"
         id="tspan173564"
         style="stroke-width:0.264583"
         x="164.84041"
         y="113.24083">S3</tspan></text>
    <text
       xml:space="preserve"
       style="font-size:4.23333px;line-height:1.25;font-family:sans-serif;stroke-width:0.264583"
       x="159.9529"
       y="96.932045"
       id="text180236"><tspan
         sodipodi:role="line"
         id="tspan180234"
         style="stroke-width:0.264583"
         x="159.9529"
         y="96.932045">S4</tspan></text>
    <text
       xml:space="preserve"
       style="font-size:4.23333px;line-height:1.25;font-family:sans-serif;stroke-width:0.264583"
       x="158.45795"
       y="88.578262"
       id="text184140"><tspan
         sodipodi:role="line"
         id="tspan184138"
         style="stroke-width:0.264583"
         x="158.45795"
         y="88.578262">S5</tspan></text>
    <circle
       style="opacity:0.609707;fill:#e4e4e4;fill-opacity:1;stroke:#000000;stroke-width:2.64599;stroke-miterlimit:4;stroke-dasharray:none;stroke-dashoffset:0;stroke-opacity:1"
       id="path136726-5-0"
       cx="113.10121"
       cy="121.64397"
       r="3.9920871" />
    <text
       xml:space="preserve"
       style="font-size:4.23333px;line-height:1.25;font-family:sans-serif;stroke-width:0.264583"
       x="110.51868"
       y="122.95314"
       id="text184140-9"><tspan
         sodipodi:role="line"
         id="tspan184138-3"
         style="stroke-width:0.264583"
         x="110.51868"
         y="122.95314">SX</tspan><tspan
         sodipodi:role="line"
         style="stroke-width:0.264583"
         x="110.51868"
         y="128.2448"
         id="tspan229137" /></text>
    <text
       xml:space="preserve"
       style="font-size:4.23333px;line-height:1.25;font-family:sans-serif;stroke-width:0.264583"
       x="119.65659"
       y="131.62614"
       id="text190062"><tspan
         sodipodi:role="line"
         id="tspan190060"
         style="stroke-width:0.264583"
         x="119.65659"
         y="131.62614">S6</tspan></text>
    <text
       xml:space="preserve"
       style="font-size:4.23333px;line-height:1.25;font-family:sans-serif;stroke-width:0.264583"
       x="116.29868"
       y="113.07179"
       id="text197942"><tspan
         sodipodi:role="line"
         id="tspan197940"
         style="stroke-width:0.264583"
         x="116.29868"
         y="113.07179">S7</tspan></text>
    <text
       xml:space="preserve"
       style="font-size:4.23333px;line-height:1.25;font-family:sans-serif;stroke-width:0.264583"
       x="117.4649"
       y="94.876122"
       id="text204282"><tspan
         sodipodi:role="line"
         id="tspan204280"
         style="stroke-width:0.264583"
         x="117.4649"
         y="94.876122">S8</tspan></text>
    <path
       style="fill:#fd64f8;fill-opacity:0.996316;fill-rule:nonzero;stroke:none;stroke-width:2.14246;stroke-linecap:butt;stroke-linejoin:miter;stroke-miterlimit:4;stroke-dasharray:none;stroke-opacity:1"
       d="m 140.88568,285.66474 c 0,0 2.14633,-3.5772 2.14633,-3.5772 -2.36814,-1.42089 -11.61888,-2.10637 -13.98702,-3.52726 2.36814,1.42089 7.32622,9.26077 9.69436,10.68166 0,0 2.14633,-3.5772 2.14633,-3.5772 z"
       id="path223387"
       inkscape:path-effect="#path-effect223389"
       inkscape:original-d="m 140.88568,285.66474 -11.84069,-7.10446" />
    <text
       xml:space="preserve"
       style="font-size:4.23333px;line-height:1.25;font-family:sans-serif;stroke-width:0.264583"
       x="81.63118"
       y="51.634232"
       id="text70810-6"><tspan
         sodipodi:role="line"
         style="stroke-width:0.264583"
         x="81.63118"
         y="51.634232"
         id="tspan70812-0">very deep</tspan><tspan
         sodipodi:role="line"
         style="stroke-width:0.264583"
         x="81.63118"
         y="56.925896"
         id="tspan250449">sink hole</tspan></text>
    <path
       sodipodi:type="star"
       style="opacity:0.609707;fill:#e4e4e4;fill-opacity:1;stroke:#000000;stroke-width:10.0006;stroke-miterlimit:4;stroke-dasharray:none;stroke-dashoffset:0;stroke-opacity:1"
       id="path17074-6"
       inkscape:flatsided="false"
       sodipodi:sides="10"
       sodipodi:cx="832.10291"
       sodipodi:cy="669.05408"
       sodipodi:r1="132.66612"
       sodipodi:r2="147.4068"
       sodipodi:arg1="0.36902147"
       sodipodi:arg2="0.68318073"
       inkscape:rounded="0"
       inkscape:randomized="0"
       transform="matrix(0.02503482,0,0,0.02503482,48.95934,117.74952)"
       inkscape:transform-center-x="-4.1014006e-06"
       inkscape:transform-center-y="1.4794865e-06"
       d="m 955.83804,716.90714 -9.41102,45.19941 -42.34761,18.39116 -34.18123,31.03542 -45.06998,-10.01253 -45.89536,5.01696 -30.57716,-34.59178 -40.07903,-22.91781 -4.4049,-45.95814 -18.95386,-42.09876 23.44988,-39.77005 9.41103,-45.19941 42.3476,-18.39116 34.18123,-31.03543 45.06998,10.01254 45.89536,-5.01697 30.57716,34.59179 40.07903,22.9178 4.4049,45.95815 18.95386,42.09875 z" />
    <text
       xml:space="preserve"
       style="font-size:4.23333px;line-height:1.25;font-family:sans-serif;text-align:center;text-anchor:middle;stroke-width:0.264583"
       x="57.972221"
       y="133.15858"
       id="text70810-6-2"><tspan
         sodipodi:role="line"
         style="text-align:center;text-anchor:middle;stroke-width:0.264583"
         x="57.972221"
         y="133.15858"
         id="tspan250449-1">rimmed </tspan><tspan
         sodipodi:role="line"
         style="text-align:center;text-anchor:middle;stroke-width:0.264583"
         x="57.972221"
         y="138.45024"
         id="tspan260534">basin</tspan></text>
    <text
       xml:space="preserve"
       style="font-size:4.23333px;line-height:1.25;font-family:sans-serif;stroke-width:0.264583"
       x="135.48311"
       y="285.1636"
       id="text153216-2"><tspan
         sodipodi:role="line"
         id="tspan153214-0"
         style="stroke-width:0.264583"
         x="135.48311"
         y="285.1636">P1</tspan></text>
    <path
       style="fill:#fd64f8;fill-opacity:0.996316;fill-rule:nonzero;stroke:none;stroke-width:2.14246;stroke-linecap:butt;stroke-linejoin:miter;stroke-miterlimit:4;stroke-dasharray:none;stroke-opacity:1"
       d="m 176.27727,265.0904 c 0,0 4.16179,0.28744 4.16179,0.28744 0.19028,-2.75515 -3.40065,-11.30801 -3.21036,-14.06315 -0.19029,2.75514 -4.92293,10.73313 -5.11322,13.48827 0,0 4.16179,0.28744 4.16179,0.28744 z"
       id="path223387-3"
       inkscape:path-effect="#path-effect223389-2"
       inkscape:original-d="m 176.27727,265.0904 0.95143,-13.77571" />
    <text
       xml:space="preserve"
       style="font-size:4.23333px;line-height:1.25;font-family:sans-serif;stroke-width:0.264583"
       x="174.08612"
       y="263.25427"
       id="text153216-2-7"><tspan
         sodipodi:role="line"
         id="tspan153214-0-5"
         style="stroke-width:0.264583"
         x="174.08612"
         y="263.25427">P2</tspan></text>
    <path
       style="fill:#fd64f8;fill-opacity:0.996316;fill-rule:nonzero;stroke:none;stroke-width:2.14246;stroke-linecap:butt;stroke-linejoin:miter;stroke-miterlimit:4;stroke-dasharray:none;stroke-opacity:1"
       d="m 192.66101,224.29864 c 0,0 3.41797,-2.39176 3.41797,-2.39176 -1.58337,-2.26274 -9.75145,-6.65917 -11.33482,-8.9219 1.58337,2.26273 2.91551,11.44269 4.49888,13.70542 0,0 3.41797,-2.39176 3.41797,-2.39176 z"
       id="path223387-3-2"
       inkscape:path-effect="#path-effect223389-2-9"
       inkscape:original-d="m 192.66101,224.29864 -7.91685,-11.31366" />
    <text
       xml:space="preserve"
       style="font-size:4.23333px;line-height:1.25;font-family:sans-serif;stroke-width:0.264583"
       x="188.32965"
       y="223.15729"
       id="text153216-2-7-2"><tspan
         sodipodi:role="line"
         id="tspan153214-0-5-8"
         style="stroke-width:0.264583"
         x="188.32965"
         y="223.15729">P3</tspan><tspan
         sodipodi:role="line"
         style="stroke-width:0.264583"
         x="188.32965"
         y="228.44894"
         id="tspan285886" /></text>
    <path
       style="fill:#fd64f8;fill-opacity:0.996316;fill-rule:nonzero;stroke:none;stroke-width:2.14246;stroke-linecap:butt;stroke-linejoin:miter;stroke-miterlimit:4;stroke-dasharray:none;stroke-opacity:1"
       d="m 170.30111,199.00856 c 0,0 2.86177,-3.03536 2.86177,-3.03536 -2.00944,-1.89451 -10.89951,-4.5427 -12.90894,-6.43722 2.00943,1.89452 5.17597,10.61342 7.1854,12.50794 0,0 2.86177,-3.03536 2.86177,-3.03536 z"
       id="path223387-3-2-7"
       inkscape:path-effect="#path-effect223389-2-9-9"
       inkscape:original-d="m 170.30111,199.00856 -10.04717,-9.47258" />
    <text
       xml:space="preserve"
       style="font-size:4.23333px;line-height:1.25;font-family:sans-serif;stroke-width:0.264583"
       x="165.11165"
       y="198.41621"
       id="text153216-2-7-2-3"><tspan
         sodipodi:role="line"
         id="tspan153214-0-5-8-6"
         style="stroke-width:0.264583"
         x="165.11165"
         y="198.41621">P4</tspan><tspan
         sodipodi:role="line"
         style="stroke-width:0.264583"
         x="165.11165"
         y="203.70787"
         id="tspan285886-1" /></text>
    <path
       style="fill:#fd64f8;fill-opacity:0.996316;fill-rule:nonzero;stroke:none;stroke-width:2.14246;stroke-linecap:butt;stroke-linejoin:miter;stroke-miterlimit:4;stroke-dasharray:none;stroke-opacity:1"
       d="m 133.77718,139.08666 c 0,0 3.0602,2.83519 3.0602,2.83519 1.87692,-2.02588 4.44748,-10.93871 6.3244,-12.96459 -1.87692,2.02588 -10.56788,5.26833 -12.4448,7.29421 0,0 3.0602,2.83519 3.0602,2.83519 z"
       id="path223387-3-2-7-9"
       inkscape:path-effect="#path-effect223389-2-9-9-2"
       inkscape:original-d="m 133.77718,139.08666 9.3846,-10.1294" />
    <text
       xml:space="preserve"
       style="font-size:4.23333px;line-height:1.25;font-family:sans-serif;stroke-width:0.264583"
       x="133.14317"
       y="138.70158"
       id="text153216-2-7-2-3-3"><tspan
         sodipodi:role="line"
         id="tspan153214-0-5-8-6-1"
         style="stroke-width:0.264583"
         x="133.14317"
         y="138.70158">P5</tspan><tspan
         sodipodi:role="line"
         style="stroke-width:0.264583"
         x="133.14317"
         y="143.99324"
         id="tspan290002" /><tspan
         sodipodi:role="line"
         style="stroke-width:0.264583"
         x="133.14317"
         y="149.28491"
         id="tspan285886-1-9" /></text>
    <path
       style="fill:#fd64f8;fill-opacity:0.996316;fill-rule:nonzero;stroke:none;stroke-width:2.14246;stroke-linecap:butt;stroke-linejoin:miter;stroke-miterlimit:4;stroke-dasharray:none;stroke-opacity:1"
       d="m 186.81709,123.52171 c 0,0 3.40146,-2.41519 3.40146,-2.41519 -1.59888,-2.2518 -9.79699,-6.592 -11.39587,-8.8438 1.59888,2.2518 2.99407,11.42239 4.59295,13.67418 0,0 3.40146,-2.41519 3.40146,-2.41519 z"
       id="path223387-3-2-7-9-7"
       inkscape:path-effect="#path-effect223389-2-9-9-2-4"
       inkscape:original-d="m 186.81709,123.52171 -7.99441,-11.25899" />
    <text
       xml:space="preserve"
       style="font-size:4.23333px;line-height:1.25;font-family:sans-serif;stroke-width:0.264583"
       x="182.80698"
       y="122.69004"
       id="text153216-2-7-2-3-3-8"><tspan
         sodipodi:role="line"
         id="tspan153214-0-5-8-6-1-4"
         style="stroke-width:0.264583"
         x="182.80698"
         y="122.69004">P6</tspan><tspan
         sodipodi:role="line"
         style="stroke-width:0.264583"
         x="182.80698"
         y="127.9817"
         id="tspan294145" /><tspan
         sodipodi:role="line"
         style="stroke-width:0.264583"
         x="182.80698"
         y="133.27336"
         id="tspan290002-5" /><tspan
         sodipodi:role="line"
         style="stroke-width:0.264583"
         x="182.80698"
         y="138.56503"
         id="tspan285886-1-9-0" /></text>
    <path
       style="fill:#fd64f8;fill-opacity:0.996316;fill-rule:nonzero;stroke:none;stroke-width:2.14246;stroke-linecap:butt;stroke-linejoin:miter;stroke-miterlimit:4;stroke-dasharray:none;stroke-opacity:1"
       d="m 88.861978,113.90726 c 0,0 2.273084,3.49802 2.273084,3.49802 2.315726,-1.5048 6.989822,-9.51724 9.305548,-11.02204 -2.315726,1.5048 -11.53599,2.52119 -13.851716,4.026 0,0 2.273084,3.49802 2.273084,3.49802 z"
       id="path223387-3-2-7-9-7-6"
       inkscape:path-effect="#path-effect223389-2-9-9-2-4-3"
       inkscape:original-d="m 88.861978,113.90726 11.578632,-7.52402" />
    <text
       xml:space="preserve"
       style="font-size:4.23333px;line-height:1.25;font-family:sans-serif;stroke-width:0.264583"
       x="89.261971"
       y="113.18669"
       id="text153216-2-7-2-3-3-8-1"><tspan
         sodipodi:role="line"
         id="tspan153214-0-5-8-6-1-4-0"
         style="stroke-width:0.264583"
         x="89.261971"
         y="113.18669">P7</tspan><tspan
         sodipodi:role="line"
         style="stroke-width:0.264583"
         x="89.261971"
         y="118.47836"
         id="tspan296553" /><tspan
         sodipodi:role="line"
         style="stroke-width:0.264583"
         x="89.261971"
         y="123.77002"
         id="tspan294145-6" /><tspan
         sodipodi:role="line"
         style="stroke-width:0.264583"
         x="89.261971"
         y="129.06168"
         id="tspan290002-5-3" /><tspan
         sodipodi:role="line"
         style="stroke-width:0.264583"
         x="89.261971"
         y="134.35333"
         id="tspan285886-1-9-0-2" /></text>
    <path
       style="fill:#fd64f8;fill-opacity:0.996316;fill-rule:nonzero;stroke:none;stroke-width:2.14246;stroke-linecap:butt;stroke-linejoin:miter;stroke-miterlimit:4;stroke-dasharray:none;stroke-opacity:1"
       d="m 105.79141,80.053968 c 0,0 4.09754,-0.783127 4.09754,-0.783127 -0.51844,-2.712609 -6.17129,-10.067306 -6.68973,-12.779914 0.51844,2.712608 -2.02378,11.63356 -1.50535,14.346168 0,0 4.09754,-0.783127 4.09754,-0.783127 z"
       id="path223387-3-2-7-9-7-6-6"
       inkscape:path-effect="#path-effect223389-2-9-9-2-4-3-0"
       inkscape:original-d="M 105.79141,80.053968 103.19922,66.490927" />
    <text
       xml:space="preserve"
       style="font-size:4.23333px;line-height:1.25;font-family:sans-serif;stroke-width:0.264583"
       x="102.47676"
       y="77.887062"
       id="text153216-2-7-2-3-3-8-1-1"><tspan
         sodipodi:role="line"
         id="tspan153214-0-5-8-6-1-4-0-5"
         style="stroke-width:0.264583"
         x="102.47676"
         y="77.887062">P8</tspan><tspan
         sodipodi:role="line"
         style="stroke-width:0.264583"
         x="102.47676"
         y="83.178726"
         id="tspan298507" /><tspan
         sodipodi:role="line"
         style="stroke-width:0.264583"
         x="102.47676"
         y="88.470383"
         id="tspan296553-5" /><tspan
         sodipodi:role="line"
         style="stroke-width:0.264583"
         x="102.47676"
         y="93.762047"
         id="tspan294145-6-4" /><tspan
         sodipodi:role="line"
         style="stroke-width:0.264583"
         x="102.47676"
         y="99.053711"
         id="tspan290002-5-3-7" /><tspan
         sodipodi:role="line"
         style="stroke-width:0.264583"
         x="102.47676"
         y="104.34538"
         id="tspan285886-1-9-0-2-6" /></text>
    <path
       style="fill:#fd64f8;fill-opacity:0.996316;fill-rule:nonzero;stroke:none;stroke-width:2.14246;stroke-linecap:butt;stroke-linejoin:miter;stroke-miterlimit:4;stroke-dasharray:none;stroke-opacity:1"
       d="m 81.851249,122.36301 c 0,0 -2.888259,-3.01016 -2.888259,-3.01016 -1.992753,1.91206 -5.082754,10.65838 -7.075507,12.57044 1.992753,-1.91206 10.859272,-4.63807 12.852025,-6.55012 0,0 -2.888259,-3.01016 -2.888259,-3.01016 z"
       id="path223387-3-2-7-9-7-6-6-6"
       inkscape:path-effect="#path-effect223389-2-9-9-2-4-3-0-5"
       inkscape:original-d="m 81.851249,122.36301 -9.963766,9.56028" />
    <text
       xml:space="preserve"
       style="font-size:4.23333px;line-height:1.25;font-family:sans-serif;stroke-width:0.264583"
       x="76.9039"
       y="125.83779"
       id="text153216-2-7-2-3-3-8-1-1-9"><tspan
         sodipodi:role="line"
         style="stroke-width:0.264583"
         x="76.9039"
         y="125.83779"
         id="tspan300236">P9</tspan><tspan
         sodipodi:role="line"
         style="stroke-width:0.264583"
         x="76.9039"
         y="131.12946"
         id="tspan298507-7" /><tspan
         sodipodi:role="line"
         style="stroke-width:0.264583"
         x="76.9039"
         y="136.42111"
         id="tspan296553-5-4" /><tspan
         sodipodi:role="line"
         style="stroke-width:0.264583"
         x="76.9039"
         y="141.71278"
         id="tspan294145-6-4-5" /><tspan
         sodipodi:role="line"
         style="stroke-width:0.264583"
         x="76.9039"
         y="147.00444"
         id="tspan290002-5-3-7-2" /><tspan
         sodipodi:role="line"
         style="stroke-width:0.264583"
         x="76.9039"
         y="152.2961"
         id="tspan285886-1-9-0-2-6-5" /></text>
    <path
       style="fill:#fd64f8;fill-opacity:0.996316;fill-rule:nonzero;stroke:none;stroke-width:2.14246;stroke-linecap:butt;stroke-linejoin:miter;stroke-miterlimit:4;stroke-dasharray:none;stroke-opacity:1"
       d="m 52.633644,152.25349 c 0,0 -4.10517,-0.74207 -4.10517,-0.74207 -0.491255,2.71767 2.140152,11.61272 1.648897,14.33038 0.491255,-2.71766 6.070189,-10.12858 6.561443,-12.84624 0,0 -4.10517,-0.74207 -4.10517,-0.74207 z"
       id="path223387-3-2-7-9-7-6-6-6-7"
       inkscape:path-effect="#path-effect223389-2-9-9-2-4-3-0-5-4"
       inkscape:original-d="M 52.633644,152.25349 50.177371,165.8418" />
    <text
       xml:space="preserve"
       style="font-size:4.23333px;line-height:1.25;font-family:sans-serif;stroke-width:0.264583"
       x="49.501015"
       y="157.06044"
       id="text153216-2-7-2-3-3-8-1-1-9-4"><tspan
         sodipodi:role="line"
         style="stroke-width:0.264583"
         x="49.501015"
         y="157.06044"
         id="tspan300236-4">PX</tspan><tspan
         sodipodi:role="line"
         style="stroke-width:0.264583"
         x="49.501015"
         y="162.3521"
         id="tspan302055" /><tspan
         sodipodi:role="line"
         style="stroke-width:0.264583"
         x="49.501015"
         y="167.64377"
         id="tspan298507-7-3" /><tspan
         sodipodi:role="line"
         style="stroke-width:0.264583"
         x="49.501015"
         y="172.93542"
         id="tspan296553-5-4-0" /><tspan
         sodipodi:role="line"
         style="stroke-width:0.264583"
         x="49.501015"
         y="178.22708"
         id="tspan294145-6-4-5-7" /><tspan
         sodipodi:role="line"
         style="stroke-width:0.264583"
         x="49.501015"
         y="183.51875"
         id="tspan290002-5-3-7-2-8" /><tspan
         sodipodi:role="line"
         style="stroke-width:0.264583"
         x="49.501015"
         y="188.81041"
         id="tspan285886-1-9-0-2-6-5-6" /></text>
    <text
       xml:space="preserve"
       style="font-size:4.23333px;line-height:1.25;font-family:sans-serif;stroke-width:0.264583"
       x="28.410288"
       y="159.53012"
       id="text134278-8"><tspan
         sodipodi:role="line"
         id="tspan134276-8"
         style="stroke-width:0.264583"
         x="28.410288"
         y="159.53012">cliff down </tspan><tspan
         sodipodi:role="line"
         style="stroke-width:0.264583"
         x="28.410288"
         y="164.82178"
         id="tspan304364">to water</tspan></text>
    <text
       xml:space="preserve"
       style="font-size:4.23333px;line-height:1.25;font-family:sans-serif;stroke-width:0.264583"
       x="-16.45175"
       y="188.4252"
       id="text307836"><tspan
         sodipodi:role="line"
         id="tspan307834"
         style="stroke-width:0.264583"
         x="-16.45175"
         y="188.4252">Other raised area</tspan><tspan
         sodipodi:role="line"
         style="stroke-width:0.264583"
         x="-16.45175"
         y="193.71686"
         id="tspan307838">(with ~2 chambers)</tspan><tspan
         sodipodi:role="line"
         style="stroke-width:0.264583"
         x="-16.45175"
         y="199.00853"
         id="tspan307840" /><tspan
         sodipodi:role="line"
         style="stroke-width:0.264583"
         x="-16.45175"
         y="204.30019"
         id="tspan307842">Only accessible with a boat</tspan><tspan
         sodipodi:role="line"
         style="stroke-width:0.264583"
         x="-16.45175"
         y="209.59186"
         id="tspan307844">or during dry season</tspan></text>
  </g>
</svg>
