<?xml version="1.0"?>
<svg height="360.0" version="1.1" viewBox="0 0 1080.0 360" width="1080.0" xmlns:xlink="http://www.w3.org/1999/xlink" xmlns="http://www.w3.org/2000/svg">
<g>
<g stroke-dasharray="7.2 14.4" stroke-width="1.44" stroke="#caa">
<line x1="10.80" x2="10.80" y1="356.40" y2="3.60" />
<line x1="373.68" x2="373.68" y1="356.40" y2="3.60" />
<line x1="736.56" x2="736.56" y1="356.40" y2="3.60" />
</g>
<g>
<text dominant-baseline="hanging" dx="-72.0" dy="72.0" fill="#0004" font-family="Arial, sans-serif" font-size="72" stroke-width="2.4" stroke="none" text-anchor="end" text="2 State Climate Index" x="1069.20" y="20.40">2 State Climate Index</text>
</g>
<g fill="none" stroke-width="15.0" stroke="#00aa88">
<line x1="10.80" x2="10.80" y1="356.40" y2="356.40" />
<line x1="41.04" x2="41.04" y1="356.40" y2="356.40" />
<line x1="71.28" x2="71.28" y1="356.40" y2="356.40" />
<line x1="101.52" x2="101.52" y1="356.40" y2="356.40" />
<line x1="131.76" x2="131.76" y1="356.40" y2="356.40" />
<line x1="162.00" x2="162.00" y1="356.40" y2="356.40" />
<line x1="192.24" x2="192.24" y1="356.40" y2="356.40" />
<line x1="222.48" x2="222.48" y1="356.40" y2="356.40" />
<line x1="252.72" x2="252.72" y1="239.09" y2="356.40" />
<line x1="282.96" x2="282.96" y1="208.47" y2="356.40" />
<line x1="313.20" x2="313.20" y1="216.68" y2="356.40" />
<line x1="343.44" x2="343.44" y1="229.82" y2="356.40" />
<line x1="373.68" x2="373.68" y1="356.40" y2="356.40" />
<line x1="403.92" x2="403.92" y1="356.40" y2="356.40" />
<line x1="434.16" x2="434.16" y1="356.40" y2="356.40" />
<line x1="464.40" x2="464.40" y1="356.40" y2="356.40" />
<line x1="494.64" x2="494.64" y1="356.40" y2="356.40" />
<line x1="524.88" x2="524.88" y1="356.40" y2="356.40" />
<line x1="555.12" x2="555.12" y1="356.40" y2="356.40" />
<line x1="585.36" x2="585.36" y1="356.40" y2="356.40" />
<line x1="615.60" x2="615.60" y1="204.71" y2="356.40" />
<line x1="645.84" x2="645.84" y1="147.73" y2="356.40" />
<line x1="676.08" x2="676.08" y1="184.98" y2="356.40" />
<line x1="706.32" x2="706.32" y1="254.53" y2="356.40" />
<line x1="736.56" x2="736.56" y1="356.40" y2="356.40" />
<line x1="766.80" x2="766.80" y1="356.40" y2="356.40" />
<line x1="797.04" x2="797.04" y1="356.40" y2="356.40" />
<line x1="827.28" x2="827.28" y1="356.40" y2="356.40" />
<line x1="857.52" x2="857.52" y1="356.40" y2="356.40" />
<line x1="887.76" x2="887.76" y1="356.40" y2="356.40" />
<line x1="918.00" x2="918.00" y1="356.40" y2="356.40" />
<line x1="948.24" x2="948.24" y1="356.40" y2="356.40" />
<line x1="978.48" x2="978.48" y1="267.17" y2="356.40" />
<line x1="1008.72" x2="1008.72" y1="177.05" y2="356.40" />
<line x1="1038.96" x2="1038.96" y1="156.90" y2="356.40" />
<line x1="1069.20" x2="1069.20" y1="198.03" y2="356.40" />
</g>
<g fill="none" stroke-width="15.0" stroke="#aa8800">
<line x1="10.80" x2="10.80" y1="313.29" y2="356.40" />
<line x1="41.04" x2="41.04" y1="266.70" y2="356.40" />
<line x1="71.28" x2="71.28" y1="201.90" y2="356.40" />
<line x1="101.52" x2="101.52" y1="260.87" y2="356.40" />
<line x1="131.76" x2="131.76" y1="233.59" y2="356.40" />
<line x1="162.00" x2="162.00" y1="207.46" y2="356.40" />
<line x1="192.24" x2="192.24" y1="265.40" y2="356.40" />
<line x1="222.48" x2="222.48" y1="303.69" y2="356.40" />
<line x1="252.72" x2="252.72" y1="356.40" y2="356.40" />
<line x1="282.96" x2="282.96" y1="356.40" y2="356.40" />
<line x1="313.20" x2="313.20" y1="356.40" y2="356.40" />
<line x1="343.44" x2="343.44" y1="356.40" y2="356.40" />
<line x1="373.68" x2="373.68" y1="318.53" y2="356.40" />
<line x1="403.92" x2="403.92" y1="223.88" y2="356.40" />
<line x1="434.16" x2="434.16" y1="204.67" y2="356.40" />
<line x1="464.40" x2="464.40" y1="217.36" y2="356.40" />
<line x1="494.64" x2="494.64" y1="152.10" y2="356.40" />
<line x1="524.88" x2="524.88" y1="278.38" y2="356.40" />
<line x1="555.12" x2="555.12" y1="265.01" y2="356.40" />
<line x1="585.36" x2="585.36" y1="318.08" y2="356.40" />
<line x1="615.60" x2="615.60" y1="356.40" y2="356.40" />
<line x1="645.84" x2="645.84" y1="356.40" y2="356.40" />
<line x1="676.08" x2="676.08" y1="356.40" y2="356.40" />
<line x1="706.32" x2="706.32" y1="356.40" y2="356.40" />
<line x1="736.56" x2="736.56" y1="312.77" y2="356.40" />
<line x1="766.80" x2="766.80" y1="298.26" y2="356.40" />
<line x1="797.04" x2="797.04" y1="258.86" y2="356.40" />
<line x1="827.28" x2="827.28" y1="239.44" y2="356.40" />
<line x1="857.52" x2="857.52" y1="212.16" y2="356.40" />
<line x1="887.76" x2="887.76" y1="250.48" y2="356.40" />
<line x1="918.00" x2="918.00" y1="281.71" y2="356.40" />
<line x1="948.24" x2="948.24" y1="312.13" y2="356.40" />
<line x1="978.48" x2="978.48" y1="356.40" y2="356.40" />
<line x1="1008.72" x2="1008.72" y1="356.40" y2="356.40" />
<line x1="1038.96" x2="1038.96" y1="356.40" y2="356.40" />
<line x1="1069.20" x2="1069.20" y1="356.40" y2="356.40" />
</g>
<g fill="none" stroke-width="15.0" stroke="#aa8800">
<line x1="10.80" x2="10.80" y1="313.29" y2="356.40" />
<line x1="41.04" x2="41.04" y1="266.70" y2="356.40" />
<line x1="71.28" x2="71.28" y1="201.90" y2="356.40" />
<line x1="101.52" x2="101.52" y1="260.87" y2="356.40" />
<line x1="131.76" x2="131.76" y1="233.59" y2="356.40" />
<line x1="162.00" x2="162.00" y1="207.46" y2="356.40" />
<line x1="192.24" x2="192.24" y1="265.40" y2="356.40" />
<line x1="222.48" x2="222.48" y1="303.69" y2="356.40" />
<line x1="252.72" x2="252.72" y1="356.40" y2="356.40" />
<line x1="282.96" x2="282.96" y1="356.40" y2="356.40" />
<line x1="313.20" x2="313.20" y1="356.40" y2="356.40" />
<line x1="343.44" x2="343.44" y1="356.40" y2="356.40" />
<line x1="373.68" x2="373.68" y1="318.53" y2="356.40" />
<line x1="403.92" x2="403.92" y1="223.88" y2="356.40" />
<line x1="434.16" x2="434.16" y1="204.67" y2="356.40" />
<line x1="464.40" x2="464.40" y1="217.36" y2="356.40" />
<line x1="494.64" x2="494.64" y1="152.10" y2="356.40" />
<line x1="524.88" x2="524.88" y1="278.38" y2="356.40" />
<line x1="555.12" x2="555.12" y1="265.01" y2="356.40" />
<line x1="585.36" x2="585.36" y1="318.08" y2="356.40" />
<line x1="615.60" x2="615.60" y1="356.40" y2="356.40" />
<line x1="645.84" x2="645.84" y1="356.40" y2="356.40" />
<line x1="676.08" x2="676.08" y1="356.40" y2="356.40" />
<line x1="706.32" x2="706.32" y1="356.40" y2="356.40" />
<line x1="736.56" x2="736.56" y1="312.77" y2="356.40" />
<line x1="766.80" x2="766.80" y1="298.26" y2="356.40" />
<line x1="797.04" x2="797.04" y1="258.86" y2="356.40" />
<line x1="827.28" x2="827.28" y1="239.44" y2="356.40" />
<line x1="857.52" x2="857.52" y1="212.16" y2="356.40" />
<line x1="887.76" x2="887.76" y1="250.48" y2="356.40" />
<line x1="918.00" x2="918.00" y1="281.71" y2="356.40" />
<line x1="948.24" x2="948.24" y1="312.13" y2="356.40" />
<line x1="978.48" x2="978.48" y1="356.40" y2="356.40" />
<line x1="1008.72" x2="1008.72" y1="356.40" y2="356.40" />
<line x1="1038.96" x2="1038.96" y1="356.40" y2="356.40" />
<line x1="1069.20" x2="1069.20" y1="356.40" y2="356.40" />
</g>
<g stroke="#0008">
<line x1="10.80" x2="10.80" y1="356.40" y2="366.40" />
<line x1="373.68" x2="373.68" y1="356.40" y2="366.40" />
<line x1="736.56" x2="736.56" y1="356.40" y2="366.40" />
<g fill="black" font-family="Arial, sans-serif" font-size="36.0" stroke="none" text-anchor="start" transform="translate(18.0 0.0)">
<text x="10.80" y="397.54">2011</text>
<text x="373.68" y="397.54">2012</text>
<text x="736.56" y="397.54">2013</text>
</g>
<line x1="10.80" x2="1069.20" y1="356.40" y2="356.40" />
</g>
</g>
</svg>