<?xml version="1.0"?>
<svg height="360.0" version="1.1" viewBox="0 0 1080.0 360.0" width="1080.0" xmlns:xlink="http://www.w3.org/1999/xlink" xmlns="http://www.w3.org/2000/svg">
<g>
<g stroke-dasharray="3.6 7.2" stroke-width="0.72" stroke="#caa">
<line x1="75.60" x2="75.60" y1="334.80" y2="25.20" />
<line x1="394.05" x2="394.05" y1="334.80" y2="25.20" />
<line x1="712.49" x2="712.49" y1="334.80" y2="25.20" />
</g>
<g fill="none" stroke-width="10" stroke="#00aa88">
<line x1="75.60" x2="75.60" y1="334.80" y2="334.80" />
<line x1="102.14" x2="102.14" y1="334.80" y2="334.80" />
<line x1="128.67" x2="128.67" y1="334.80" y2="334.80" />
<line x1="155.21" x2="155.21" y1="334.80" y2="334.80" />
<line x1="181.75" x2="181.75" y1="334.80" y2="334.80" />
<line x1="208.29" x2="208.29" y1="334.80" y2="334.80" />
<line x1="234.82" x2="234.82" y1="334.80" y2="334.80" />
<line x1="261.36" x2="261.36" y1="334.80" y2="334.80" />
<line x1="287.90" x2="287.90" y1="197.23" y2="334.80" />
<line x1="314.43" x2="314.43" y1="124.57" y2="334.80" />
<line x1="340.97" x2="340.97" y1="171.93" y2="334.80" />
<line x1="367.51" x2="367.51" y1="185.15" y2="334.80" />
<line x1="394.05" x2="394.05" y1="334.80" y2="334.80" />
<line x1="420.58" x2="420.58" y1="334.80" y2="334.80" />
<line x1="447.12" x2="447.12" y1="334.80" y2="334.80" />
<line x1="473.66" x2="473.66" y1="334.80" y2="334.80" />
<line x1="500.19" x2="500.19" y1="334.80" y2="334.80" />
<line x1="526.73" x2="526.73" y1="334.80" y2="334.80" />
<line x1="553.27" x2="553.27" y1="334.80" y2="334.80" />
<line x1="579.81" x2="579.81" y1="334.80" y2="334.80" />
<line x1="606.34" x2="606.34" y1="127.45" y2="334.80" />
<line x1="632.88" x2="632.88" y1="66.29" y2="334.80" />
<line x1="659.42" x2="659.42" y1="53.76" y2="334.80" />
<line x1="685.95" x2="685.95" y1="210.13" y2="334.80" />
<line x1="712.49" x2="712.49" y1="334.80" y2="334.80" />
<line x1="739.03" x2="739.03" y1="334.80" y2="334.80" />
<line x1="765.57" x2="765.57" y1="334.80" y2="334.80" />
<line x1="792.10" x2="792.10" y1="334.80" y2="334.80" />
<line x1="818.64" x2="818.64" y1="334.80" y2="334.80" />
<line x1="845.18" x2="845.18" y1="334.80" y2="334.80" />
<line x1="871.71" x2="871.71" y1="334.80" y2="334.80" />
<line x1="898.25" x2="898.25" y1="334.80" y2="334.80" />
<line x1="924.79" x2="924.79" y1="219.89" y2="334.80" />
<line x1="951.33" x2="951.33" y1="103.90" y2="334.80" />
<line x1="977.86" x2="977.86" y1="53.35" y2="334.80" />
<line x1="1004.40" x2="1004.40" y1="149.36" y2="334.80" />
</g>
<g fill="none" stroke-width="10" stroke="#aa8800">
<line x1="75.60" x2="75.60" y1="279.53" y2="334.80" />
<line x1="102.14" x2="102.14" y1="221.28" y2="334.80" />
<line x1="128.67" x2="128.67" y1="105.99" y2="334.80" />
<line x1="155.21" x2="155.21" y1="205.70" y2="334.80" />
<line x1="181.75" x2="181.75" y1="172.82" y2="334.80" />
<line x1="208.29" x2="208.29" y1="142.42" y2="334.80" />
<line x1="234.82" x2="234.82" y1="219.45" y2="334.80" />
<line x1="261.36" x2="261.36" y1="267.41" y2="334.80" />
<line x1="287.90" x2="287.90" y1="334.80" y2="334.80" />
<line x1="314.43" x2="314.43" y1="334.80" y2="334.80" />
<line x1="340.97" x2="340.97" y1="334.80" y2="334.80" />
<line x1="367.51" x2="367.51" y1="334.80" y2="334.80" />
<line x1="394.05" x2="394.05" y1="289.54" y2="334.80" />
<line x1="420.58" x2="420.58" y1="153.97" y2="334.80" />
<line x1="447.12" x2="447.12" y1="112.17" y2="334.80" />
<line x1="473.66" x2="473.66" y1="135.14" y2="334.80" />
<line x1="500.19" x2="500.19" y1="66.54" y2="334.80" />
<line x1="526.73" x2="526.73" y1="234.15" y2="334.80" />
<line x1="553.27" x2="553.27" y1="210.61" y2="334.80" />
<line x1="579.81" x2="579.81" y1="282.28" y2="334.80" />
<line x1="606.34" x2="606.34" y1="334.80" y2="334.80" />
<line x1="632.88" x2="632.88" y1="334.80" y2="334.80" />
<line x1="659.42" x2="659.42" y1="334.80" y2="334.80" />
<line x1="685.95" x2="685.95" y1="334.80" y2="334.80" />
<line x1="712.49" x2="712.49" y1="277.39" y2="334.80" />
<line x1="739.03" x2="739.03" y1="260.94" y2="334.80" />
<line x1="765.57" x2="765.57" y1="220.32" y2="334.80" />
<line x1="792.10" x2="792.10" y1="172.88" y2="334.80" />
<line x1="818.64" x2="818.64" y1="120.47" y2="334.80" />
<line x1="845.18" x2="845.18" y1="209.48" y2="334.80" />
<line x1="871.71" x2="871.71" y1="244.86" y2="334.80" />
<line x1="898.25" x2="898.25" y1="280.30" y2="334.80" />
<line x1="924.79" x2="924.79" y1="334.80" y2="334.80" />
<line x1="951.33" x2="951.33" y1="334.80" y2="334.80" />
<line x1="977.86" x2="977.86" y1="334.80" y2="334.80" />
<line x1="1004.40" x2="1004.40" y1="334.80" y2="334.80" />
</g>
<g stroke="black">
<line x1="75.60" x2="75.60" y1="334.80" y2="344.80" />
<line x1="394.05" x2="394.05" y1="334.80" y2="344.80" />
<line x1="712.49" x2="712.49" y1="334.80" y2="344.80" />
<g fill="black" font-family="Arial, sans-serif" font-size="18.0" stroke="none" text-anchor="start" transform="translate(9.0 0.0)">
<text x="75.60" y="355.37">2011</text>
<text x="394.05" y="355.37">2012</text>
<text x="712.49" y="355.37">2013</text>
</g>
<line x1="75.60" x2="1004.40" y1="334.80" y2="334.80" />
</g>
<g stroke="#0008">
<g fill="black" font-family="Arial, sans-serif" font-size="18.0" stroke="none" text-anchor="end" />
<line x1="75.60" x2="75.60" y1="334.80" y2="25.20" />
</g>
</g>
</svg>