<?xml version="1.0"?>
<svg height="360.0" version="1.1" viewBox="0 0 1080.0 360.0" width="1080.0" xmlns:xlink="http://www.w3.org/1999/xlink" xmlns="http://www.w3.org/2000/svg">
<g>
<g fill="none" stroke-width="10" stroke="red">
<line x1="54.00" x2="54.00" y1="45.99" y2="342.00" />
<line x1="81.77" x2="81.77" y1="153.04" y2="342.00" />
</g>
<g fill="none" stroke-width="10" stroke="#ffb2b0">
<line x1="109.54" x2="109.54" y1="229.05" y2="342.00" />
<line x1="137.31" x2="137.31" y1="235.98" y2="342.00" />
<line x1="165.09" x2="165.09" y1="246.77" y2="342.00" />
<line x1="192.86" x2="192.86" y1="250.05" y2="342.00" />
<line x1="220.63" x2="220.63" y1="251.69" y2="342.00" />
<line x1="248.40" x2="248.40" y1="255.50" y2="342.00" />
<line x1="276.17" x2="276.17" y1="257.73" y2="342.00" />
<line x1="303.94" x2="303.94" y1="264.77" y2="342.00" />
<line x1="331.71" x2="331.71" y1="267.16" y2="342.00" />
<line x1="359.49" x2="359.49" y1="269.87" y2="342.00" />
<line x1="387.26" x2="387.26" y1="276.34" y2="342.00" />
<line x1="415.03" x2="415.03" y1="277.26" y2="342.00" />
<line x1="442.80" x2="442.80" y1="281.36" y2="342.00" />
<line x1="470.57" x2="470.57" y1="283.37" y2="342.00" />
<line x1="498.34" x2="498.34" y1="288.51" y2="342.00" />
<line x1="526.11" x2="526.11" y1="291.96" y2="342.00" />
<line x1="553.89" x2="553.89" y1="293.73" y2="342.00" />
<line x1="581.66" x2="581.66" y1="297.67" y2="342.00" />
<line x1="609.43" x2="609.43" y1="297.87" y2="342.00" />
<line x1="637.20" x2="637.20" y1="298.75" y2="342.00" />
<line x1="664.97" x2="664.97" y1="300.73" y2="342.00" />
<line x1="692.74" x2="692.74" y1="302.32" y2="342.00" />
<line x1="720.51" x2="720.51" y1="304.68" y2="342.00" />
<line x1="748.29" x2="748.29" y1="306.97" y2="342.00" />
<line x1="776.06" x2="776.06" y1="307.68" y2="342.00" />
<line x1="803.83" x2="803.83" y1="310.43" y2="342.00" />
<line x1="831.60" x2="831.60" y1="312.53" y2="342.00" />
<line x1="859.37" x2="859.37" y1="313.40" y2="342.00" />
<line x1="887.14" x2="887.14" y1="315.14" y2="342.00" />
<line x1="914.91" x2="914.91" y1="317.35" y2="342.00" />
<line x1="942.69" x2="942.69" y1="318.42" y2="342.00" />
<line x1="970.46" x2="970.46" y1="319.79" y2="342.00" />
<line x1="998.23" x2="998.23" y1="322.30" y2="342.00" />
<line x1="1026.00" x2="1026.00" y1="325.91" y2="342.00" />
</g>
<g stroke="black">
<g fill="black" font-family="Arial, sans-serif" font-size="18.0" stroke="none" text-anchor="start" transform="translate(9.0 0.0)" />
<line x1="54.00" x2="1026.00" y1="342.00" y2="342.00" />
</g>
<g stroke="black">
<line x1="54.00" x2="42.00" y1="342.00" y2="342.00" />
<line x1="54.00" x2="42.00" y1="110.00" y2="110.00" />
<g fill="black" font-family="Arial, sans-serif" font-size="18.0" stroke="none" text-anchor="end">
<text x="45.00" y="333.00">0</text>
<text x="45.00" y="101.00">10</text>
</g>
<line x1="54.00" x2="54.00" y1="342.00" y2="18.00" />
</g>
</g>
</svg>