<?xml version="1.0"?>
<svg height="360.0" version="1.1" viewBox="0 0 1080.0 360.0" width="1080.0" xmlns:xlink="http://www.w3.org/1999/xlink" xmlns="http://www.w3.org/2000/svg">
<g>
<g>
<g>
<text dominant-baseline="hanging" dx="18.0" dy="54.0" fill="#0000aa" font-size="18.0" font-style="italic" stroke-width="0.36" stroke="#000f" text-anchor="beginning" text="Singular Vec 1" x="65.75" y="21.63">Singular Vec 1</text>
</g>
<g>
<text dominant-baseline="hanging" dx="18.0" dy="78.0" fill="#aa0000" font-size="18.0" font-style="italic" stroke-width="0.36" stroke="#000f" text-anchor="beginning" text="Singular Vec 2" x="65.75" y="21.63">Singular Vec 2</text>
</g>
<polyline fill="none" points="64.80,219.37 91.95,146.17 119.11,189.87 146.26,65.24 173.42,208.72 200.57,128.85 227.73,186.33 254.88,173.84 282.03,157.48 309.19,251.84 336.34,219.03 363.50,138.32 390.65,252.24 417.81,245.08 444.96,292.42 472.11,235.92 499.27,112.85 526.42,213.19 553.58,257.17 580.73,286.50 607.89,299.57 635.04,228.66 662.19,309.56 689.35,278.76 716.50,312.00 743.66,95.35 770.81,48.00 797.97,230.72 825.12,251.70 852.27,72.75 879.43,151.00 906.58,228.51 933.74,273.68 960.89,239.51 988.05,231.70 1015.20,214.80" stroke-width="7" stroke="#0000aa" />
<g stroke="#0000aa">
<line x1="64.80" x2="64.80" y1="338.40" y2="348.40" />
<line x1="390.65" x2="390.65" y1="338.40" y2="348.40" />
<line x1="716.50" x2="716.50" y1="338.40" y2="348.40" />
<g fill="black" font-family="Arial, sans-serif" font-size="18.0" stroke="none" text-anchor="start" transform="translate(9.0 0.0)">
<text x="64.80" y="358.97">2011</text>
<text x="390.65" y="358.97">2012</text>
<text x="716.50" y="358.97">2013</text>
</g>
<line x1="64.80" x2="1015.20" y1="338.40" y2="338.40" />
</g>
<g stroke="#0000aa">
<line x1="64.80" x2="52.80" y1="283.28" y2="283.28" />
<line x1="64.80" x2="52.80" y1="151.64" y2="151.64" />
<g fill="#0000aa" font-family="Arial, sans-serif" font-size="18.0" stroke="none" text-anchor="end">
<text x="55.80" y="274.28">0.1</text>
<text x="55.80" y="142.64">0.2</text>
</g>
<line x1="64.80" x2="64.80" y1="338.40" y2="21.60" />
</g>
</g>
<g>
<polyline fill="none" points="64.80,252.91 91.95,262.66 119.11,259.18 146.26,231.29 173.42,239.67 200.57,274.29 227.73,262.47 254.88,283.36 282.03,48.00 309.19,126.29 336.34,90.80 363.50,72.85 390.65,240.01 417.81,255.49 444.96,246.93 472.11,248.26 499.27,271.82 526.42,252.19 553.58,238.66 580.73,240.48 607.89,132.21 635.04,101.78 662.19,161.44 689.35,135.28 716.50,235.12 743.66,236.54 770.81,312.00 797.97,240.27 825.12,246.48 852.27,276.10 879.43,232.34 906.58,224.04 933.74,131.00 960.89,120.13 988.05,121.90 1015.20,90.39" stroke-width="7" stroke="#aa0000" />
<g stroke="#aa0000">
<line x1="64.80" x2="64.80" y1="21.60" y2="21.60" />
<line x1="390.65" x2="390.65" y1="21.60" y2="21.60" />
<line x1="716.50" x2="716.50" y1="21.60" y2="21.60" />
<g fill="#aa0000" font-family="Arial, sans-serif" font-size="18.0" stroke="none" text-anchor="start" transform="translate(9.0 0.0)">
<text x="64.80" y="15.34">2011</text>
<text x="390.65" y="15.34">2012</text>
<text x="716.50" y="15.34">2013</text>
</g>
<line x1="64.80" x2="1015.20" y1="21.60" y2="21.60" />
</g>
<g stroke="#aa0000">
<line x1="1015.20" x2="1027.20" y1="297.76" y2="297.76" />
<line x1="1015.20" x2="1027.20" y1="255.08" y2="255.08" />
<line x1="1015.20" x2="1027.20" y1="212.39" y2="212.39" />
<line x1="1015.20" x2="1027.20" y1="169.71" y2="169.71" />
<line x1="1015.20" x2="1027.20" y1="127.03" y2="127.03" />
<line x1="1015.20" x2="1027.20" y1="84.34" y2="84.34" />
<line x1="1015.20" x2="1027.20" y1="41.66" y2="41.66" />
<g fill="#aa0000" font-family="Arial, sans-serif" font-size="18.0" stroke="none" text-anchor="beginning">
<text x="1024.20" y="288.76">-0.2</text>
<text x="1024.20" y="246.08">-0.1</text>
<text x="1024.20" y="203.39">-0.0</text>
<text x="1024.20" y="160.71">0.1</text>
<text x="1024.20" y="118.03">0.2</text>
<text x="1024.20" y="75.34">0.3</text>
<text x="1024.20" y="32.66">0.4</text>
</g>
<line x1="1015.20" x2="1015.20" y1="338.40" y2="21.60" />
</g>
</g>
</g>
</svg>