<?xml version="1.0"?>
<svg height="360.0" version="1.1" viewBox="0 0 1080.0 360.0" width="1080.0" xmlns:xlink="http://www.w3.org/1999/xlink" xmlns="http://www.w3.org/2000/svg">
<g>
<g>
<text dominant-baseline="hanging" dx="-36.0" dy="36.0" fill="#0004" font-family="Arial, sans-serif" font-size="36" stroke="none" text-anchor="end" x="982.80" y="57.00">SV1 SV2 weights</text>
</g>
<g>
<text dominant-baseline="hanging" dx="18.0" dy="18.0" fill="#0000aa" font-size="12.0" font-style="italic" stroke="none" text-anchor="beginning" x="98.09" y="32.43">First Singular Vector</text>
</g>
<g>
<text dominant-baseline="hanging" dx="18.0" dy="36.0" fill="#aa0000" font-size="12.0" font-style="italic" stroke="none" text-anchor="beginning" x="98.09" y="32.43">Second Singular Vector</text>
</g>
<polyline fill="none" points="97.20,206.05 122.50,233.48 147.81,276.13 173.11,249.21 198.41,259.75 223.71,268.12 249.02,232.82 274.32,208.06 299.62,216.05 324.93,237.97 350.23,224.28 375.53,226.71 400.83,203.80 426.14,254.95 451.44,266.39 476.74,266.93 502.05,303.00 527.35,225.74 552.65,236.98 577.95,203.56 603.26,227.15 628.56,250.46 653.86,254.14 679.17,214.89 704.47,205.94 729.77,220.17 755.07,228.79 780.38,256.11 805.68,270.58 830.98,239.75 856.29,230.42 881.59,211.75 906.89,210.87 932.19,245.62 957.50,258.60 982.80,230.18" stroke-width="7" stroke="#0000aa" />
<polyline fill="none" points="97.20,195.16 122.50,207.48 147.81,251.27 173.11,196.78 198.41,211.97 223.71,228.31 249.02,210.40 274.32,203.89 299.62,119.95 324.93,89.55 350.23,109.70 375.53,118.85 400.83,188.95 426.14,238.77 451.44,261.35 476.74,237.56 502.05,245.79 527.35,207.57 552.65,212.28 577.95,196.58 603.26,85.15 628.56,62.30 653.86,57.00 679.17,126.88 704.47,197.48 729.77,190.16 755.07,216.26 780.38,217.99 805.68,246.09 830.98,208.79 856.29,189.09 881.59,184.89 906.89,130.36 932.19,81.70 957.50,59.27 982.80,99.74" stroke-width="7" stroke="#aa0000" />
<g stroke="black">
<line x1="97.20" x2="97.20" y1="327.60" y2="337.60" />
<line x1="400.83" x2="400.83" y1="327.60" y2="337.60" />
<line x1="704.47" x2="704.47" y1="327.60" y2="337.60" />
<g fill="black" font-family="Arial, sans-serif" font-size="18.0" stroke="none" text-anchor="start" transform="translate(9.0 0.0)">
<text x="97.20" y="348.17">2011</text>
<text x="400.83" y="348.17">2012</text>
<text x="704.47" y="348.17">2013</text>
</g>
<line x1="97.20" x2="982.80" y1="327.60" y2="327.60" />
</g>
<g stroke="black">
<line x1="97.20" x2="85.20" y1="291.36" y2="291.36" />
<line x1="97.20" x2="85.20" y1="254.68" y2="254.68" />
<line x1="97.20" x2="85.20" y1="218.00" y2="218.00" />
<line x1="97.20" x2="85.20" y1="181.32" y2="181.32" />
<line x1="97.20" x2="85.20" y1="144.64" y2="144.64" />
<line x1="97.20" x2="85.20" y1="107.96" y2="107.96" />
<line x1="97.20" x2="85.20" y1="71.29" y2="71.29" />
<line x1="97.20" x2="85.20" y1="34.61" y2="34.61" />
<g fill="black" font-family="Arial, sans-serif" font-size="18.0" stroke="none" text-anchor="end">
<text x="88.20" y="282.36">-0.3</text>
<text x="88.20" y="245.68">-0.2</text>
<text x="88.20" y="209.00">-0.1</text>
<text x="88.20" y="172.32">-0.0</text>
<text x="88.20" y="135.64">0.1</text>
<text x="88.20" y="98.96">0.2</text>
<text x="88.20" y="62.29">0.3</text>
<text x="88.20" y="25.61">0.4</text>
</g>
<line x1="97.20" x2="97.20" y1="327.60" y2="32.40" />
</g>
</g>
</svg>