<?xml version="1.0"?>
<svg height="360.0" version="1.1" viewBox="0 0 1080.0 360.0" width="1080.0" xmlns:xlink="http://www.w3.org/1999/xlink" xmlns="http://www.w3.org/2000/svg">
<g>
<g>
<text dominant-baseline="hanging" dx="45.0" dy="135.0" fill="black" font-size="45.0" font-style="italic" stroke-width="0.9" stroke="#000f" text-anchor="beginning" x="108.86" y="36.03">
</text>
</g>
<g>
<text dominant-baseline="hanging" dx="45.0" dy="195.0" fill="#0000aa" font-size="45.0" font-style="italic" stroke-width="0.9" stroke="#000f" text-anchor="beginning" text="~~~   SV1" x="108.86" y="36.03">~~~   SV1</text>
</g>
<g>
<text dominant-baseline="hanging" dx="45.0" dy="255.0" fill="#aa0000" font-size="45.0" font-style="italic" stroke-width="0.9" stroke="#000f" text-anchor="beginning" text="~~~  SV2" x="108.86" y="36.03">~~~  SV2</text>
</g>
<polyline fill="none" points="108.00,151.81 132.69,130.23 157.37,143.11 182.06,106.37 206.74,148.67 231.43,125.12 256.11,142.07 280.80,138.39 305.49,133.57 330.17,161.38 354.86,151.71 379.54,127.91 404.23,161.50 428.91,159.39 453.60,173.34 478.29,156.68 502.97,120.41 527.66,149.99 552.34,162.95 577.03,171.59 601.71,175.45 626.40,154.54 651.09,178.39 675.77,169.31 700.46,179.11 725.14,115.25 749.83,101.29 774.51,155.15 799.20,161.34 823.89,108.59 848.57,131.65 873.26,154.50 897.94,167.81 922.63,157.75 947.31,155.44 972.00,150.46" stroke-width="7" stroke="#0000aa" />
<polyline fill="none" points="108.00,246.28 132.69,255.15 157.37,251.98 182.06,226.63 206.74,234.24 231.43,265.72 256.11,254.97 280.80,273.96 305.49,60.00 330.17,131.17 354.86,98.91 379.54,82.59 404.23,234.55 428.91,248.63 453.60,240.85 478.29,242.05 502.97,263.47 527.66,245.63 552.34,233.33 577.03,234.98 601.71,136.56 626.40,108.90 651.09,163.13 675.77,139.34 700.46,230.11 725.14,231.40 749.83,300.00 774.51,234.79 799.20,240.43 823.89,267.36 848.57,227.58 873.26,220.03 897.94,135.45 922.63,125.57 947.31,127.18 972.00,98.53" stroke-width="7" stroke="#aa0000" />
<g stroke="black">
<line x1="108.00" x2="78.00" y1="287.06" y2="287.06" />
<line x1="108.00" x2="78.00" y1="209.45" y2="209.45" />
<line x1="108.00" x2="78.00" y1="131.84" y2="131.84" />
<g fill="black" font-family="Arial, sans-serif" font-size="45.0" stroke="none" text-anchor="end">
<text x="85.50" y="264.56">-0.2</text>
<text x="85.50" y="186.95">-0.0</text>
<text x="85.50" y="109.34">0.2</text>
</g>
<line x1="108.00" x2="108.00" y1="324.00" y2="36.00" />
</g>
</g>
</svg>