<?xml version="1.0"?>
<svg height="360.0" version="1.1" viewBox="0 0 1080.0 360.0" width="1080.0" xmlns:xlink="http://www.w3.org/1999/xlink" xmlns="http://www.w3.org/2000/svg">
<g>
<g>
<g>
<text dominant-baseline="hanging" dx="18.0" dy="18.0" fill="#0000aa" font-size="18.0" font-style="italic" stroke="none" text-anchor="beginning" x="65.75" y="21.63">Singular Vec 1</text>
</g>
<g>
<text dominant-baseline="hanging" dx="18.0" dy="42.0" fill="#aa0000" font-size="18.0" font-style="italic" stroke="none" text-anchor="beginning" x="65.75" y="21.63">Singular Vec 2</text>
</g>
<polyline fill="none" points="64.80,54.62 91.95,127.44 119.11,240.67 146.26,169.20 173.42,197.19 200.57,219.41 227.73,125.70 254.88,59.96 282.03,81.16 309.19,139.36 336.34,103.00 363.50,109.47 390.65,48.64 417.81,184.43 444.96,214.81 472.11,216.24 499.27,312.00 526.42,106.89 553.58,136.74 580.73,48.00 607.89,110.63 635.04,172.51 662.19,182.29 689.35,78.09 716.50,54.32 743.66,92.09 770.81,114.98 797.97,187.51 825.12,225.93 852.27,144.09 879.43,119.31 906.58,69.76 933.74,67.40 960.89,159.66 988.05,194.11 1015.20,118.67" stroke-width="7" stroke="#0000aa" />
<g stroke="black">
<line x1="64.80" x2="64.80" y1="338.40" y2="348.40" />
<line x1="390.65" x2="390.65" y1="338.40" y2="348.40" />
<line x1="716.50" x2="716.50" y1="338.40" y2="348.40" />
<g fill="black" font-family="Arial, sans-serif" font-size="18.0" stroke="none" text-anchor="start" transform="translate(9.0 0.0)">
<text x="64.80" y="358.97">2011</text>
<text x="390.65" y="358.97">2012</text>
<text x="716.50" y="358.97">2013</text>
</g>
<line x1="64.80" x2="1015.20" y1="338.40" y2="338.40" />
</g>
<g stroke="#0000aa">
<line x1="64.80" x2="52.80" y1="281.08" y2="281.08" />
<line x1="64.80" x2="52.80" y1="183.71" y2="183.71" />
<line x1="64.80" x2="52.80" y1="86.33" y2="86.33" />
<g fill="#0000aa" font-family="Arial, sans-serif" font-size="18.0" stroke="none" text-anchor="end">
<text x="55.80" y="272.08">-0.3</text>
<text x="55.80" y="174.71">-0.2</text>
<text x="55.80" y="77.33">-0.1</text>
</g>
<line x1="64.80" x2="64.80" y1="338.40" y2="21.60" />
</g>
</g>
<g>
<polyline fill="none" points="64.80,226.49 91.95,242.40 119.11,298.97 146.26,228.58 173.42,248.21 200.57,269.31 227.73,246.18 254.88,237.76 282.03,129.32 309.19,90.05 336.34,116.08 363.50,127.90 390.65,218.46 417.81,282.82 444.96,312.00 472.11,281.26 499.27,291.90 526.42,242.51 553.58,248.61 580.73,228.32 607.89,84.36 635.04,54.84 662.19,48.00 689.35,138.28 716.50,229.48 743.66,220.03 770.81,253.74 797.97,255.98 825.12,292.28 852.27,244.09 879.43,218.64 906.58,213.21 933.74,142.77 960.89,79.91 988.05,50.93 1015.20,103.22" stroke-width="7" stroke="#aa0000" />
<g stroke="#0088">
<line x1="64.80" x2="64.80" y1="21.60" y2="21.60" />
<line x1="390.65" x2="390.65" y1="21.60" y2="21.60" />
<line x1="716.50" x2="716.50" y1="21.60" y2="21.60" />
<g fill="none" font-family="Arial, sans-serif" font-size="18.0" stroke="none" text-anchor="start" transform="translate(9.0 0.0)">
<text x="64.80" y="15.34">2011</text>
<text x="390.65" y="15.34">2012</text>
<text x="716.50" y="15.34">2013</text>
</g>
<line x1="64.80" x2="1015.20" y1="21.60" y2="21.60" />
</g>
<g stroke="#aa0000">
<line x1="1015.20" x2="1027.20" y1="303.38" y2="303.38" />
<line x1="1015.20" x2="1027.20" y1="255.99" y2="255.99" />
<line x1="1015.20" x2="1027.20" y1="208.61" y2="208.61" />
<line x1="1015.20" x2="1027.20" y1="161.22" y2="161.22" />
<line x1="1015.20" x2="1027.20" y1="113.84" y2="113.84" />
<line x1="1015.20" x2="1027.20" y1="66.45" y2="66.45" />
<g fill="#aa0000" font-family="Arial, sans-serif" font-size="18.0" stroke="none" text-anchor="beginning">
<text x="1024.20" y="294.38">-0.2</text>
<text x="1024.20" y="246.99">-0.1</text>
<text x="1024.20" y="199.61">-0.0</text>
<text x="1024.20" y="152.22">0.1</text>
<text x="1024.20" y="104.84">0.2</text>
<text x="1024.20" y="57.45">0.3</text>
</g>
<line x1="1015.20" x2="1015.20" y1="338.40" y2="21.60" />
</g>
</g>
</g>
</svg>