<?xml version="1.0"?>
<svg height="360.0" version="1.1" viewBox="0 0 1080.0 360" width="1080.0" xmlns:xlink="http://www.w3.org/1999/xlink" xmlns="http://www.w3.org/2000/svg">
<g>
<g stroke-dasharray="7.2 14.4" stroke-width="1.44" stroke="#caa">
<line x1="10.80" x2="10.80" y1="356.40" y2="3.60" />
<line x1="543.65" x2="543.65" y1="356.40" y2="3.60" />
</g>
<g>
<text dominant-baseline="hanging" dx="-72.0" dy="72.0" fill="#0004" font-family="Arial, sans-serif" font-size="72" stroke-width="2.4" stroke="none" text-anchor="end" text="2 State Climate Index" x="1069.20" y="20.40">2 State Climate Index</text>
</g>
<g fill="none" stroke-width="3.6986301369863015" stroke="#00aa88">
<line x1="10.80" x2="10.80" y1="356.40" y2="356.40" />
<line x1="18.10" x2="18.10" y1="356.40" y2="356.40" />
<line x1="25.40" x2="25.40" y1="351.19" y2="356.40" />
<line x1="32.70" x2="32.70" y1="356.40" y2="356.40" />
<line x1="40.00" x2="40.00" y1="356.40" y2="356.40" />
<line x1="47.30" x2="47.30" y1="356.40" y2="356.40" />
<line x1="54.60" x2="54.60" y1="356.40" y2="356.40" />
<line x1="61.90" x2="61.90" y1="356.40" y2="356.40" />
<line x1="69.19" x2="69.19" y1="356.40" y2="356.40" />
<line x1="76.49" x2="76.49" y1="353.67" y2="356.40" />
<line x1="83.79" x2="83.79" y1="356.40" y2="356.40" />
<line x1="91.09" x2="91.09" y1="343.34" y2="356.40" />
<line x1="98.39" x2="98.39" y1="356.40" y2="356.40" />
<line x1="105.69" x2="105.69" y1="356.40" y2="356.40" />
<line x1="112.99" x2="112.99" y1="356.40" y2="356.40" />
<line x1="120.29" x2="120.29" y1="356.40" y2="356.40" />
<line x1="127.59" x2="127.59" y1="356.40" y2="356.40" />
<line x1="134.89" x2="134.89" y1="356.40" y2="356.40" />
<line x1="142.19" x2="142.19" y1="356.40" y2="356.40" />
<line x1="149.49" x2="149.49" y1="347.70" y2="356.40" />
<line x1="156.79" x2="156.79" y1="349.79" y2="356.40" />
<line x1="164.09" x2="164.09" y1="356.40" y2="356.40" />
<line x1="171.38" x2="171.38" y1="344.94" y2="356.40" />
<line x1="178.68" x2="178.68" y1="328.96" y2="356.40" />
<line x1="185.98" x2="185.98" y1="356.40" y2="356.40" />
<line x1="193.28" x2="193.28" y1="290.92" y2="356.40" />
<line x1="200.58" x2="200.58" y1="348.17" y2="356.40" />
<line x1="207.88" x2="207.88" y1="356.40" y2="356.40" />
<line x1="215.18" x2="215.18" y1="331.79" y2="356.40" />
<line x1="222.48" x2="222.48" y1="333.08" y2="356.40" />
<line x1="229.78" x2="229.78" y1="321.86" y2="356.40" />
<line x1="237.08" x2="237.08" y1="311.07" y2="356.40" />
<line x1="244.38" x2="244.38" y1="281.59" y2="356.40" />
<line x1="251.68" x2="251.68" y1="275.88" y2="356.40" />
<line x1="258.98" x2="258.98" y1="352.08" y2="356.40" />
<line x1="266.28" x2="266.28" y1="340.65" y2="356.40" />
<line x1="273.58" x2="273.58" y1="292.79" y2="356.40" />
<line x1="280.87" x2="280.87" y1="329.38" y2="356.40" />
<line x1="288.17" x2="288.17" y1="286.66" y2="356.40" />
<line x1="295.47" x2="295.47" y1="311.95" y2="356.40" />
<line x1="302.77" x2="302.77" y1="293.13" y2="356.40" />
<line x1="310.07" x2="310.07" y1="265.59" y2="356.40" />
<line x1="317.37" x2="317.37" y1="307.14" y2="356.40" />
<line x1="324.67" x2="324.67" y1="345.98" y2="356.40" />
<line x1="331.97" x2="331.97" y1="315.22" y2="356.40" />
<line x1="339.27" x2="339.27" y1="316.16" y2="356.40" />
<line x1="346.57" x2="346.57" y1="356.40" y2="356.40" />
<line x1="353.87" x2="353.87" y1="250.69" y2="356.40" />
<line x1="361.17" x2="361.17" y1="307.46" y2="356.40" />
<line x1="368.47" x2="368.47" y1="335.17" y2="356.40" />
<line x1="375.77" x2="375.77" y1="279.97" y2="356.40" />
<line x1="383.06" x2="383.06" y1="333.24" y2="356.40" />
<line x1="390.36" x2="390.36" y1="265.69" y2="356.40" />
<line x1="397.66" x2="397.66" y1="308.59" y2="356.40" />
<line x1="404.96" x2="404.96" y1="333.09" y2="356.40" />
<line x1="412.26" x2="412.26" y1="334.62" y2="356.40" />
<line x1="419.56" x2="419.56" y1="333.71" y2="356.40" />
<line x1="426.86" x2="426.86" y1="336.90" y2="356.40" />
<line x1="434.16" x2="434.16" y1="356.40" y2="356.40" />
<line x1="441.46" x2="441.46" y1="356.40" y2="356.40" />
<line x1="448.76" x2="448.76" y1="356.40" y2="356.40" />
<line x1="456.06" x2="456.06" y1="356.40" y2="356.40" />
<line x1="463.36" x2="463.36" y1="356.40" y2="356.40" />
<line x1="470.66" x2="470.66" y1="356.40" y2="356.40" />
<line x1="477.96" x2="477.96" y1="356.40" y2="356.40" />
<line x1="485.26" x2="485.26" y1="356.40" y2="356.40" />
<line x1="492.55" x2="492.55" y1="356.40" y2="356.40" />
<line x1="499.85" x2="499.85" y1="356.40" y2="356.40" />
<line x1="507.15" x2="507.15" y1="356.40" y2="356.40" />
<line x1="514.45" x2="514.45" y1="356.40" y2="356.40" />
<line x1="521.75" x2="521.75" y1="356.40" y2="356.40" />
<line x1="529.05" x2="529.05" y1="356.40" y2="356.40" />
<line x1="536.35" x2="536.35" y1="356.40" y2="356.40" />
<line x1="543.65" x2="543.65" y1="356.40" y2="356.40" />
<line x1="550.95" x2="550.95" y1="356.40" y2="356.40" />
<line x1="558.25" x2="558.25" y1="356.40" y2="356.40" />
<line x1="565.55" x2="565.55" y1="356.40" y2="356.40" />
<line x1="572.85" x2="572.85" y1="348.16" y2="356.40" />
<line x1="580.15" x2="580.15" y1="356.40" y2="356.40" />
<line x1="587.45" x2="587.45" y1="356.40" y2="356.40" />
<line x1="594.74" x2="594.74" y1="352.36" y2="356.40" />
<line x1="602.04" x2="602.04" y1="354.54" y2="356.40" />
<line x1="609.34" x2="609.34" y1="356.40" y2="356.40" />
<line x1="616.64" x2="616.64" y1="356.40" y2="356.40" />
<line x1="623.94" x2="623.94" y1="356.40" y2="356.40" />
<line x1="631.24" x2="631.24" y1="356.40" y2="356.40" />
<line x1="638.54" x2="638.54" y1="356.40" y2="356.40" />
<line x1="645.84" x2="645.84" y1="349.73" y2="356.40" />
<line x1="653.14" x2="653.14" y1="356.40" y2="356.40" />
<line x1="660.44" x2="660.44" y1="356.40" y2="356.40" />
<line x1="667.74" x2="667.74" y1="356.40" y2="356.40" />
<line x1="675.04" x2="675.04" y1="356.40" y2="356.40" />
<line x1="682.34" x2="682.34" y1="340.34" y2="356.40" />
<line x1="689.64" x2="689.64" y1="356.40" y2="356.40" />
<line x1="696.94" x2="696.94" y1="356.40" y2="356.40" />
<line x1="704.23" x2="704.23" y1="356.40" y2="356.40" />
<line x1="711.53" x2="711.53" y1="356.40" y2="356.40" />
<line x1="718.83" x2="718.83" y1="308.76" y2="356.40" />
<line x1="726.13" x2="726.13" y1="323.10" y2="356.40" />
<line x1="733.43" x2="733.43" y1="338.08" y2="356.40" />
<line x1="740.73" x2="740.73" y1="331.85" y2="356.40" />
<line x1="748.03" x2="748.03" y1="315.58" y2="356.40" />
<line x1="755.33" x2="755.33" y1="246.46" y2="356.40" />
<line x1="762.63" x2="762.63" y1="201.90" y2="356.40" />
<line x1="769.93" x2="769.93" y1="280.86" y2="356.40" />
<line x1="777.23" x2="777.23" y1="348.68" y2="356.40" />
<line x1="784.53" x2="784.53" y1="323.87" y2="356.40" />
<line x1="791.83" x2="791.83" y1="356.40" y2="356.40" />
<line x1="799.13" x2="799.13" y1="296.23" y2="356.40" />
<line x1="806.42" x2="806.42" y1="292.59" y2="356.40" />
<line x1="813.72" x2="813.72" y1="289.21" y2="356.40" />
<line x1="821.02" x2="821.02" y1="289.82" y2="356.40" />
<line x1="828.32" x2="828.32" y1="297.47" y2="356.40" />
<line x1="835.62" x2="835.62" y1="342.40" y2="356.40" />
<line x1="842.92" x2="842.92" y1="278.47" y2="356.40" />
<line x1="850.22" x2="850.22" y1="336.33" y2="356.40" />
<line x1="857.52" x2="857.52" y1="343.78" y2="356.40" />
<line x1="864.82" x2="864.82" y1="341.20" y2="356.40" />
<line x1="872.12" x2="872.12" y1="306.45" y2="356.40" />
<line x1="879.42" x2="879.42" y1="288.59" y2="356.40" />
<line x1="886.72" x2="886.72" y1="262.01" y2="356.40" />
<line x1="894.02" x2="894.02" y1="265.49" y2="356.40" />
<line x1="901.32" x2="901.32" y1="285.34" y2="356.40" />
<line x1="908.62" x2="908.62" y1="331.04" y2="356.40" />
<line x1="915.91" x2="915.91" y1="271.26" y2="356.40" />
<line x1="923.21" x2="923.21" y1="333.64" y2="356.40" />
<line x1="930.51" x2="930.51" y1="315.23" y2="356.40" />
<line x1="937.81" x2="937.81" y1="317.94" y2="356.40" />
<line x1="945.11" x2="945.11" y1="328.61" y2="356.40" />
<line x1="952.41" x2="952.41" y1="335.01" y2="356.40" />
<line x1="959.71" x2="959.71" y1="356.40" y2="356.40" />
<line x1="967.01" x2="967.01" y1="356.40" y2="356.40" />
<line x1="974.31" x2="974.31" y1="356.40" y2="356.40" />
<line x1="981.61" x2="981.61" y1="356.40" y2="356.40" />
<line x1="988.91" x2="988.91" y1="356.40" y2="356.40" />
<line x1="996.21" x2="996.21" y1="356.40" y2="356.40" />
<line x1="1003.51" x2="1003.51" y1="341.33" y2="356.40" />
<line x1="1010.81" x2="1010.81" y1="356.40" y2="356.40" />
<line x1="1018.10" x2="1018.10" y1="356.40" y2="356.40" />
<line x1="1025.40" x2="1025.40" y1="356.40" y2="356.40" />
<line x1="1032.70" x2="1032.70" y1="356.40" y2="356.40" />
<line x1="1040.00" x2="1040.00" y1="356.40" y2="356.40" />
<line x1="1047.30" x2="1047.30" y1="356.40" y2="356.40" />
<line x1="1054.60" x2="1054.60" y1="356.40" y2="356.40" />
<line x1="1061.90" x2="1061.90" y1="356.40" y2="356.40" />
<line x1="1069.20" x2="1069.20" y1="356.40" y2="356.40" />
</g>
<g fill="none" stroke-width="3.6986301369863015" stroke="#aa8800">
<line x1="10.80" x2="10.80" y1="325.71" y2="356.40" />
<line x1="18.10" x2="18.10" y1="320.11" y2="356.40" />
<line x1="25.40" x2="25.40" y1="356.40" y2="356.40" />
<line x1="32.70" x2="32.70" y1="355.04" y2="356.40" />
<line x1="40.00" x2="40.00" y1="339.98" y2="356.40" />
<line x1="47.30" x2="47.30" y1="325.62" y2="356.40" />
<line x1="54.60" x2="54.60" y1="353.67" y2="356.40" />
<line x1="61.90" x2="61.90" y1="355.81" y2="356.40" />
<line x1="69.19" x2="69.19" y1="352.73" y2="356.40" />
<line x1="76.49" x2="76.49" y1="356.40" y2="356.40" />
<line x1="83.79" x2="83.79" y1="335.62" y2="356.40" />
<line x1="91.09" x2="91.09" y1="356.40" y2="356.40" />
<line x1="98.39" x2="98.39" y1="342.70" y2="356.40" />
<line x1="105.69" x2="105.69" y1="304.65" y2="356.40" />
<line x1="112.99" x2="112.99" y1="333.60" y2="356.40" />
<line x1="120.29" x2="120.29" y1="291.35" y2="356.40" />
<line x1="127.59" x2="127.59" y1="129.66" y2="356.40" />
<line x1="134.89" x2="134.89" y1="153.15" y2="356.40" />
<line x1="142.19" x2="142.19" y1="345.76" y2="356.40" />
<line x1="149.49" x2="149.49" y1="356.40" y2="356.40" />
<line x1="156.79" x2="156.79" y1="356.40" y2="356.40" />
<line x1="164.09" x2="164.09" y1="342.19" y2="356.40" />
<line x1="171.38" x2="171.38" y1="356.40" y2="356.40" />
<line x1="178.68" x2="178.68" y1="356.40" y2="356.40" />
<line x1="185.98" x2="185.98" y1="333.04" y2="356.40" />
<line x1="193.28" x2="193.28" y1="356.40" y2="356.40" />
<line x1="200.58" x2="200.58" y1="356.40" y2="356.40" />
<line x1="207.88" x2="207.88" y1="304.60" y2="356.40" />
<line x1="215.18" x2="215.18" y1="356.40" y2="356.40" />
<line x1="222.48" x2="222.48" y1="356.40" y2="356.40" />
<line x1="229.78" x2="229.78" y1="356.40" y2="356.40" />
<line x1="237.08" x2="237.08" y1="356.40" y2="356.40" />
<line x1="244.38" x2="244.38" y1="356.40" y2="356.40" />
<line x1="251.68" x2="251.68" y1="356.40" y2="356.40" />
<line x1="258.98" x2="258.98" y1="356.40" y2="356.40" />
<line x1="266.28" x2="266.28" y1="356.40" y2="356.40" />
<line x1="273.58" x2="273.58" y1="356.40" y2="356.40" />
<line x1="280.87" x2="280.87" y1="356.40" y2="356.40" />
<line x1="288.17" x2="288.17" y1="356.40" y2="356.40" />
<line x1="295.47" x2="295.47" y1="356.40" y2="356.40" />
<line x1="302.77" x2="302.77" y1="356.40" y2="356.40" />
<line x1="310.07" x2="310.07" y1="356.40" y2="356.40" />
<line x1="317.37" x2="317.37" y1="356.40" y2="356.40" />
<line x1="324.67" x2="324.67" y1="356.40" y2="356.40" />
<line x1="331.97" x2="331.97" y1="356.40" y2="356.40" />
<line x1="339.27" x2="339.27" y1="356.40" y2="356.40" />
<line x1="346.57" x2="346.57" y1="303.37" y2="356.40" />
<line x1="353.87" x2="353.87" y1="356.40" y2="356.40" />
<line x1="361.17" x2="361.17" y1="356.40" y2="356.40" />
<line x1="368.47" x2="368.47" y1="356.40" y2="356.40" />
<line x1="375.77" x2="375.77" y1="356.40" y2="356.40" />
<line x1="383.06" x2="383.06" y1="356.40" y2="356.40" />
<line x1="390.36" x2="390.36" y1="356.40" y2="356.40" />
<line x1="397.66" x2="397.66" y1="356.40" y2="356.40" />
<line x1="404.96" x2="404.96" y1="356.40" y2="356.40" />
<line x1="412.26" x2="412.26" y1="356.40" y2="356.40" />
<line x1="419.56" x2="419.56" y1="356.40" y2="356.40" />
<line x1="426.86" x2="426.86" y1="356.40" y2="356.40" />
<line x1="434.16" x2="434.16" y1="286.20" y2="356.40" />
<line x1="441.46" x2="441.46" y1="282.28" y2="356.40" />
<line x1="448.76" x2="448.76" y1="313.31" y2="356.40" />
<line x1="456.06" x2="456.06" y1="311.24" y2="356.40" />
<line x1="463.36" x2="463.36" y1="341.04" y2="356.40" />
<line x1="470.66" x2="470.66" y1="303.51" y2="356.40" />
<line x1="477.96" x2="477.96" y1="300.17" y2="356.40" />
<line x1="485.26" x2="485.26" y1="264.96" y2="356.40" />
<line x1="492.55" x2="492.55" y1="344.73" y2="356.40" />
<line x1="499.85" x2="499.85" y1="330.97" y2="356.40" />
<line x1="507.15" x2="507.15" y1="322.59" y2="356.40" />
<line x1="514.45" x2="514.45" y1="299.98" y2="356.40" />
<line x1="521.75" x2="521.75" y1="350.46" y2="356.40" />
<line x1="529.05" x2="529.05" y1="340.99" y2="356.40" />
<line x1="536.35" x2="536.35" y1="307.97" y2="356.40" />
<line x1="543.65" x2="543.65" y1="260.92" y2="356.40" />
<line x1="550.95" x2="550.95" y1="351.09" y2="356.40" />
<line x1="558.25" x2="558.25" y1="277.04" y2="356.40" />
<line x1="565.55" x2="565.55" y1="306.82" y2="356.40" />
<line x1="572.85" x2="572.85" y1="356.40" y2="356.40" />
<line x1="580.15" x2="580.15" y1="324.52" y2="356.40" />
<line x1="587.45" x2="587.45" y1="335.41" y2="356.40" />
<line x1="594.74" x2="594.74" y1="356.40" y2="356.40" />
<line x1="602.04" x2="602.04" y1="356.40" y2="356.40" />
<line x1="609.34" x2="609.34" y1="295.21" y2="356.40" />
<line x1="616.64" x2="616.64" y1="346.14" y2="356.40" />
<line x1="623.94" x2="623.94" y1="314.82" y2="356.40" />
<line x1="631.24" x2="631.24" y1="304.62" y2="356.40" />
<line x1="638.54" x2="638.54" y1="315.27" y2="356.40" />
<line x1="645.84" x2="645.84" y1="356.40" y2="356.40" />
<line x1="653.14" x2="653.14" y1="344.68" y2="356.40" />
<line x1="660.44" x2="660.44" y1="342.55" y2="356.40" />
<line x1="667.74" x2="667.74" y1="325.73" y2="356.40" />
<line x1="675.04" x2="675.04" y1="307.85" y2="356.40" />
<line x1="682.34" x2="682.34" y1="356.40" y2="356.40" />
<line x1="689.64" x2="689.64" y1="313.28" y2="356.40" />
<line x1="696.94" x2="696.94" y1="311.90" y2="356.40" />
<line x1="704.23" x2="704.23" y1="338.11" y2="356.40" />
<line x1="711.53" x2="711.53" y1="328.23" y2="356.40" />
<line x1="718.83" x2="718.83" y1="356.40" y2="356.40" />
<line x1="726.13" x2="726.13" y1="356.40" y2="356.40" />
<line x1="733.43" x2="733.43" y1="356.40" y2="356.40" />
<line x1="740.73" x2="740.73" y1="356.40" y2="356.40" />
<line x1="748.03" x2="748.03" y1="356.40" y2="356.40" />
<line x1="755.33" x2="755.33" y1="356.40" y2="356.40" />
<line x1="762.63" x2="762.63" y1="356.40" y2="356.40" />
<line x1="769.93" x2="769.93" y1="356.40" y2="356.40" />
<line x1="777.23" x2="777.23" y1="356.40" y2="356.40" />
<line x1="784.53" x2="784.53" y1="356.40" y2="356.40" />
<line x1="791.83" x2="791.83" y1="350.23" y2="356.40" />
<line x1="799.13" x2="799.13" y1="356.40" y2="356.40" />
<line x1="806.42" x2="806.42" y1="356.40" y2="356.40" />
<line x1="813.72" x2="813.72" y1="356.40" y2="356.40" />
<line x1="821.02" x2="821.02" y1="356.40" y2="356.40" />
<line x1="828.32" x2="828.32" y1="356.40" y2="356.40" />
<line x1="835.62" x2="835.62" y1="356.40" y2="356.40" />
<line x1="842.92" x2="842.92" y1="356.40" y2="356.40" />
<line x1="850.22" x2="850.22" y1="356.40" y2="356.40" />
<line x1="857.52" x2="857.52" y1="356.40" y2="356.40" />
<line x1="864.82" x2="864.82" y1="356.40" y2="356.40" />
<line x1="872.12" x2="872.12" y1="356.40" y2="356.40" />
<line x1="879.42" x2="879.42" y1="356.40" y2="356.40" />
<line x1="886.72" x2="886.72" y1="356.40" y2="356.40" />
<line x1="894.02" x2="894.02" y1="356.40" y2="356.40" />
<line x1="901.32" x2="901.32" y1="356.40" y2="356.40" />
<line x1="908.62" x2="908.62" y1="356.40" y2="356.40" />
<line x1="915.91" x2="915.91" y1="356.40" y2="356.40" />
<line x1="923.21" x2="923.21" y1="356.40" y2="356.40" />
<line x1="930.51" x2="930.51" y1="356.40" y2="356.40" />
<line x1="937.81" x2="937.81" y1="356.40" y2="356.40" />
<line x1="945.11" x2="945.11" y1="356.40" y2="356.40" />
<line x1="952.41" x2="952.41" y1="356.40" y2="356.40" />
<line x1="959.71" x2="959.71" y1="315.43" y2="356.40" />
<line x1="967.01" x2="967.01" y1="307.96" y2="356.40" />
<line x1="974.31" x2="974.31" y1="303.21" y2="356.40" />
<line x1="981.61" x2="981.61" y1="330.36" y2="356.40" />
<line x1="988.91" x2="988.91" y1="304.31" y2="356.40" />
<line x1="996.21" x2="996.21" y1="316.10" y2="356.40" />
<line x1="1003.51" x2="1003.51" y1="356.40" y2="356.40" />
<line x1="1010.81" x2="1010.81" y1="301.14" y2="356.40" />
<line x1="1018.10" x2="1018.10" y1="267.08" y2="356.40" />
<line x1="1025.40" x2="1025.40" y1="253.27" y2="356.40" />
<line x1="1032.70" x2="1032.70" y1="348.00" y2="356.40" />
<line x1="1040.00" x2="1040.00" y1="321.14" y2="356.40" />
<line x1="1047.30" x2="1047.30" y1="279.76" y2="356.40" />
<line x1="1054.60" x2="1054.60" y1="321.93" y2="356.40" />
<line x1="1061.90" x2="1061.90" y1="318.70" y2="356.40" />
<line x1="1069.20" x2="1069.20" y1="315.59" y2="356.40" />
</g>
<g fill="none" stroke-width="3.6986301369863015" stroke="#aa8800">
<line x1="10.80" x2="10.80" y1="325.71" y2="356.40" />
<line x1="18.10" x2="18.10" y1="320.11" y2="356.40" />
<line x1="25.40" x2="25.40" y1="356.40" y2="356.40" />
<line x1="32.70" x2="32.70" y1="355.04" y2="356.40" />
<line x1="40.00" x2="40.00" y1="339.98" y2="356.40" />
<line x1="47.30" x2="47.30" y1="325.62" y2="356.40" />
<line x1="54.60" x2="54.60" y1="353.67" y2="356.40" />
<line x1="61.90" x2="61.90" y1="355.81" y2="356.40" />
<line x1="69.19" x2="69.19" y1="352.73" y2="356.40" />
<line x1="76.49" x2="76.49" y1="356.40" y2="356.40" />
<line x1="83.79" x2="83.79" y1="335.62" y2="356.40" />
<line x1="91.09" x2="91.09" y1="356.40" y2="356.40" />
<line x1="98.39" x2="98.39" y1="342.70" y2="356.40" />
<line x1="105.69" x2="105.69" y1="304.65" y2="356.40" />
<line x1="112.99" x2="112.99" y1="333.60" y2="356.40" />
<line x1="120.29" x2="120.29" y1="291.35" y2="356.40" />
<line x1="127.59" x2="127.59" y1="129.66" y2="356.40" />
<line x1="134.89" x2="134.89" y1="153.15" y2="356.40" />
<line x1="142.19" x2="142.19" y1="345.76" y2="356.40" />
<line x1="149.49" x2="149.49" y1="356.40" y2="356.40" />
<line x1="156.79" x2="156.79" y1="356.40" y2="356.40" />
<line x1="164.09" x2="164.09" y1="342.19" y2="356.40" />
<line x1="171.38" x2="171.38" y1="356.40" y2="356.40" />
<line x1="178.68" x2="178.68" y1="356.40" y2="356.40" />
<line x1="185.98" x2="185.98" y1="333.04" y2="356.40" />
<line x1="193.28" x2="193.28" y1="356.40" y2="356.40" />
<line x1="200.58" x2="200.58" y1="356.40" y2="356.40" />
<line x1="207.88" x2="207.88" y1="304.60" y2="356.40" />
<line x1="215.18" x2="215.18" y1="356.40" y2="356.40" />
<line x1="222.48" x2="222.48" y1="356.40" y2="356.40" />
<line x1="229.78" x2="229.78" y1="356.40" y2="356.40" />
<line x1="237.08" x2="237.08" y1="356.40" y2="356.40" />
<line x1="244.38" x2="244.38" y1="356.40" y2="356.40" />
<line x1="251.68" x2="251.68" y1="356.40" y2="356.40" />
<line x1="258.98" x2="258.98" y1="356.40" y2="356.40" />
<line x1="266.28" x2="266.28" y1="356.40" y2="356.40" />
<line x1="273.58" x2="273.58" y1="356.40" y2="356.40" />
<line x1="280.87" x2="280.87" y1="356.40" y2="356.40" />
<line x1="288.17" x2="288.17" y1="356.40" y2="356.40" />
<line x1="295.47" x2="295.47" y1="356.40" y2="356.40" />
<line x1="302.77" x2="302.77" y1="356.40" y2="356.40" />
<line x1="310.07" x2="310.07" y1="356.40" y2="356.40" />
<line x1="317.37" x2="317.37" y1="356.40" y2="356.40" />
<line x1="324.67" x2="324.67" y1="356.40" y2="356.40" />
<line x1="331.97" x2="331.97" y1="356.40" y2="356.40" />
<line x1="339.27" x2="339.27" y1="356.40" y2="356.40" />
<line x1="346.57" x2="346.57" y1="303.37" y2="356.40" />
<line x1="353.87" x2="353.87" y1="356.40" y2="356.40" />
<line x1="361.17" x2="361.17" y1="356.40" y2="356.40" />
<line x1="368.47" x2="368.47" y1="356.40" y2="356.40" />
<line x1="375.77" x2="375.77" y1="356.40" y2="356.40" />
<line x1="383.06" x2="383.06" y1="356.40" y2="356.40" />
<line x1="390.36" x2="390.36" y1="356.40" y2="356.40" />
<line x1="397.66" x2="397.66" y1="356.40" y2="356.40" />
<line x1="404.96" x2="404.96" y1="356.40" y2="356.40" />
<line x1="412.26" x2="412.26" y1="356.40" y2="356.40" />
<line x1="419.56" x2="419.56" y1="356.40" y2="356.40" />
<line x1="426.86" x2="426.86" y1="356.40" y2="356.40" />
<line x1="434.16" x2="434.16" y1="286.20" y2="356.40" />
<line x1="441.46" x2="441.46" y1="282.28" y2="356.40" />
<line x1="448.76" x2="448.76" y1="313.31" y2="356.40" />
<line x1="456.06" x2="456.06" y1="311.24" y2="356.40" />
<line x1="463.36" x2="463.36" y1="341.04" y2="356.40" />
<line x1="470.66" x2="470.66" y1="303.51" y2="356.40" />
<line x1="477.96" x2="477.96" y1="300.17" y2="356.40" />
<line x1="485.26" x2="485.26" y1="264.96" y2="356.40" />
<line x1="492.55" x2="492.55" y1="344.73" y2="356.40" />
<line x1="499.85" x2="499.85" y1="330.97" y2="356.40" />
<line x1="507.15" x2="507.15" y1="322.59" y2="356.40" />
<line x1="514.45" x2="514.45" y1="299.98" y2="356.40" />
<line x1="521.75" x2="521.75" y1="350.46" y2="356.40" />
<line x1="529.05" x2="529.05" y1="340.99" y2="356.40" />
<line x1="536.35" x2="536.35" y1="307.97" y2="356.40" />
<line x1="543.65" x2="543.65" y1="260.92" y2="356.40" />
<line x1="550.95" x2="550.95" y1="351.09" y2="356.40" />
<line x1="558.25" x2="558.25" y1="277.04" y2="356.40" />
<line x1="565.55" x2="565.55" y1="306.82" y2="356.40" />
<line x1="572.85" x2="572.85" y1="356.40" y2="356.40" />
<line x1="580.15" x2="580.15" y1="324.52" y2="356.40" />
<line x1="587.45" x2="587.45" y1="335.41" y2="356.40" />
<line x1="594.74" x2="594.74" y1="356.40" y2="356.40" />
<line x1="602.04" x2="602.04" y1="356.40" y2="356.40" />
<line x1="609.34" x2="609.34" y1="295.21" y2="356.40" />
<line x1="616.64" x2="616.64" y1="346.14" y2="356.40" />
<line x1="623.94" x2="623.94" y1="314.82" y2="356.40" />
<line x1="631.24" x2="631.24" y1="304.62" y2="356.40" />
<line x1="638.54" x2="638.54" y1="315.27" y2="356.40" />
<line x1="645.84" x2="645.84" y1="356.40" y2="356.40" />
<line x1="653.14" x2="653.14" y1="344.68" y2="356.40" />
<line x1="660.44" x2="660.44" y1="342.55" y2="356.40" />
<line x1="667.74" x2="667.74" y1="325.73" y2="356.40" />
<line x1="675.04" x2="675.04" y1="307.85" y2="356.40" />
<line x1="682.34" x2="682.34" y1="356.40" y2="356.40" />
<line x1="689.64" x2="689.64" y1="313.28" y2="356.40" />
<line x1="696.94" x2="696.94" y1="311.90" y2="356.40" />
<line x1="704.23" x2="704.23" y1="338.11" y2="356.40" />
<line x1="711.53" x2="711.53" y1="328.23" y2="356.40" />
<line x1="718.83" x2="718.83" y1="356.40" y2="356.40" />
<line x1="726.13" x2="726.13" y1="356.40" y2="356.40" />
<line x1="733.43" x2="733.43" y1="356.40" y2="356.40" />
<line x1="740.73" x2="740.73" y1="356.40" y2="356.40" />
<line x1="748.03" x2="748.03" y1="356.40" y2="356.40" />
<line x1="755.33" x2="755.33" y1="356.40" y2="356.40" />
<line x1="762.63" x2="762.63" y1="356.40" y2="356.40" />
<line x1="769.93" x2="769.93" y1="356.40" y2="356.40" />
<line x1="777.23" x2="777.23" y1="356.40" y2="356.40" />
<line x1="784.53" x2="784.53" y1="356.40" y2="356.40" />
<line x1="791.83" x2="791.83" y1="350.23" y2="356.40" />
<line x1="799.13" x2="799.13" y1="356.40" y2="356.40" />
<line x1="806.42" x2="806.42" y1="356.40" y2="356.40" />
<line x1="813.72" x2="813.72" y1="356.40" y2="356.40" />
<line x1="821.02" x2="821.02" y1="356.40" y2="356.40" />
<line x1="828.32" x2="828.32" y1="356.40" y2="356.40" />
<line x1="835.62" x2="835.62" y1="356.40" y2="356.40" />
<line x1="842.92" x2="842.92" y1="356.40" y2="356.40" />
<line x1="850.22" x2="850.22" y1="356.40" y2="356.40" />
<line x1="857.52" x2="857.52" y1="356.40" y2="356.40" />
<line x1="864.82" x2="864.82" y1="356.40" y2="356.40" />
<line x1="872.12" x2="872.12" y1="356.40" y2="356.40" />
<line x1="879.42" x2="879.42" y1="356.40" y2="356.40" />
<line x1="886.72" x2="886.72" y1="356.40" y2="356.40" />
<line x1="894.02" x2="894.02" y1="356.40" y2="356.40" />
<line x1="901.32" x2="901.32" y1="356.40" y2="356.40" />
<line x1="908.62" x2="908.62" y1="356.40" y2="356.40" />
<line x1="915.91" x2="915.91" y1="356.40" y2="356.40" />
<line x1="923.21" x2="923.21" y1="356.40" y2="356.40" />
<line x1="930.51" x2="930.51" y1="356.40" y2="356.40" />
<line x1="937.81" x2="937.81" y1="356.40" y2="356.40" />
<line x1="945.11" x2="945.11" y1="356.40" y2="356.40" />
<line x1="952.41" x2="952.41" y1="356.40" y2="356.40" />
<line x1="959.71" x2="959.71" y1="315.43" y2="356.40" />
<line x1="967.01" x2="967.01" y1="307.96" y2="356.40" />
<line x1="974.31" x2="974.31" y1="303.21" y2="356.40" />
<line x1="981.61" x2="981.61" y1="330.36" y2="356.40" />
<line x1="988.91" x2="988.91" y1="304.31" y2="356.40" />
<line x1="996.21" x2="996.21" y1="316.10" y2="356.40" />
<line x1="1003.51" x2="1003.51" y1="356.40" y2="356.40" />
<line x1="1010.81" x2="1010.81" y1="301.14" y2="356.40" />
<line x1="1018.10" x2="1018.10" y1="267.08" y2="356.40" />
<line x1="1025.40" x2="1025.40" y1="253.27" y2="356.40" />
<line x1="1032.70" x2="1032.70" y1="348.00" y2="356.40" />
<line x1="1040.00" x2="1040.00" y1="321.14" y2="356.40" />
<line x1="1047.30" x2="1047.30" y1="279.76" y2="356.40" />
<line x1="1054.60" x2="1054.60" y1="321.93" y2="356.40" />
<line x1="1061.90" x2="1061.90" y1="318.70" y2="356.40" />
<line x1="1069.20" x2="1069.20" y1="315.59" y2="356.40" />
</g>
<g stroke="#0008">
<line x1="10.80" x2="10.80" y1="356.40" y2="366.40" />
<line x1="543.65" x2="543.65" y1="356.40" y2="366.40" />
<g fill="black" font-family="Arial, sans-serif" font-size="36.0" stroke="none" text-anchor="start" transform="translate(18.0 0.0)">
<text x="10.80" y="397.54">2011</text>
<text x="543.65" y="397.54">2012</text>
</g>
<line x1="10.80" x2="1069.20" y1="356.40" y2="356.40" />
</g>
</g>
</svg>