<?xml version="1.0"?>
<svg height="360.0" version="1.1" viewBox="0 0 1080.0 360" width="1080.0" xmlns:xlink="http://www.w3.org/1999/xlink" xmlns="http://www.w3.org/2000/svg">
<g>
<g stroke-dasharray="7.2 14.4" stroke-width="1.44" stroke="#caa">
<line x1="10.80" x2="10.80" y1="356.40" y2="3.60" />
<line x1="543.65" x2="543.65" y1="356.40" y2="3.60" />
</g>
<g>
<text dominant-baseline="hanging" dx="-72.0" dy="72.0" fill="#0004" font-family="Arial, sans-serif" font-size="72" stroke-width="2.4" stroke="none" text-anchor="end" text="2 State Climate Index" x="1069.20" y="20.40">2 State Climate Index</text>
</g>
<g fill="none" stroke-width="3.6986301369863015" stroke="#00aa88">
<line x1="10.80" x2="10.80" y1="356.40" y2="356.40" />
<line x1="18.10" x2="18.10" y1="356.40" y2="356.40" />
<line x1="25.40" x2="25.40" y1="351.19" y2="356.40" />
<line x1="32.70" x2="32.70" y1="356.40" y2="356.40" />
<line x1="40.00" x2="40.00" y1="356.40" y2="356.40" />
<line x1="47.30" x2="47.30" y1="356.40" y2="356.40" />
<line x1="54.60" x2="54.60" y1="356.40" y2="356.40" />
<line x1="61.90" x2="61.90" y1="356.40" y2="356.40" />
<line x1="69.19" x2="69.19" y1="356.40" y2="356.40" />
<line x1="76.49" x2="76.49" y1="353.67" y2="356.40" />
<line x1="83.79" x2="83.79" y1="356.40" y2="356.40" />
<line x1="91.09" x2="91.09" y1="343.34" y2="356.40" />
<line x1="98.39" x2="98.39" y1="356.40" y2="356.40" />
<line x1="105.69" x2="105.69" y1="356.40" y2="356.40" />
<line x1="112.99" x2="112.99" y1="356.40" y2="356.40" />
<line x1="120.29" x2="120.29" y1="356.40" y2="356.40" />
<line x1="127.59" x2="127.59" y1="356.40" y2="356.40" />
<line x1="134.89" x2="134.89" y1="356.40" y2="356.40" />
<line x1="142.19" x2="142.19" y1="356.40" y2="356.40" />
<line x1="149.49" x2="149.49" y1="347.70" y2="356.40" />
<line x1="156.79" x2="156.79" y1="349.79" y2="356.40" />
<line x1="164.09" x2="164.09" y1="356.40" y2="356.40" />
<line x1="171.38" x2="171.38" y1="344.94" y2="356.40" />
<line x1="178.68" x2="178.68" y1="328.96" y2="356.40" />
<line x1="185.98" x2="185.98" y1="356.40" y2="356.40" />
<line x1="193.28" x2="193.28" y1="290.92" y2="356.40" />
<line x1="200.58" x2="200.58" y1="348.17" y2="356.40" />
<line x1="207.88" x2="207.88" y1="356.40" y2="356.40" />
<line x1="215.18" x2="215.18" y1="331.79" y2="356.40" />
<line x1="222.48" x2="222.48" y1="333.08" y2="356.40" />
<line x1="229.78" x2="229.78" y1="321.86" y2="356.40" />
<line x1="237.08" x2="237.08" y1="311.07" y2="356.40" />
<line x1="244.38" x2="244.38" y1="281.59" y2="356.40" />
<line x1="251.68" x2="251.68" y1="275.88" y2="356.40" />
<line x1="258.98" x2="258.98" y1="352.08" y2="356.40" />
<line x1="266.28" x2="266.28" y1="340.65" y2="356.40" />
<line x1="273.58" x2="273.58" y1="292.79" y2="356.40" />
<line x1="280.87" x2="280.87" y1="329.38" y2="356.40" />
<line x1="288.17" x2="288.17" y1="286.66" y2="356.40" />
<line x1="295.47" x2="295.47" y1="311.95" y2="356.40" />
<line x1="302.77" x2="302.77" y1="293.13" y2="356.40" />
<line x1="310.07" x2="310.07" y1="265.59" y2="356.40" />
<line x1="317.37" x2="317.37" y1="307.14" y2="356.40" />
<line x1="324.67" x2="324.67" y1="345.98" y2="356.40" />
<line x1="331.97" x2="331.97" y1="315.22" y2="356.40" />
<line x1="339.27" x2="339.27" y1="316.16" y2="356.40" />
<line x1="346.57" x2="346.57" y1="356.40" y2="356.40" />
<line x1="353.87" x2="353.87" y1="250.69" y2="356.40" />
<line x1="361.17" x2="361.17" y1="307.46" y2="356.40" />
<line x1="368.47" x2="368.47" y1="335.17" y2="356.40" />
<line x1="375.77" x2="375.77" y1="279.97" y2="356.40" />
<line x1="383.06" x2="383.06" y1="333.24" y2="356.40" />
<line x1="390.36" x2="390.36" y1="265.69" y2="356.40" />
<line x1="397.66" x2="397.66" y1="308.59" y2="356.40" />
<line x1="404.96" x2="404.96" y1="333.09" y2="356.40" />
<line x1="412.26" x2="412.26" y1="334.62" y2="356.40" />
<line x1="419.56" x2="419.56" y1="333.71" y2="356.40" />
<line x1="426.86" x2="426.86" y1="336.90" y2="356.40" />
<line x1="434.16" x2="434.16" y1="356.40" y2="356.40" />
<line x1="441.46" x2="441.46" y1="356.40" y2="356.40" />
<line x1="448.76" x2="448.76" y1="356.40" y2="356.40" />
<line x1="456.06" x2="456.06" y1="356.40" y2="356.40" />
<line x1="463.36" x2="463.36" y1="356.40" y2="356.40" />
<line x1="470.66" x2="470.66" y1="356.40" y2="356.40" />
<line x1="477.96" x2="477.96" y1="356.40" y2="356.40" />
<line x1="485.26" x2="485.26" y1="356.40" y2="356.40" />
<line x1="492.55" x2="492.55" y1="356.40" y2="356.40" />
<line x1="499.85" x2="499.85" y1="356.40" y2="356.40" />
<line x1="507.15" x2="507.15" y1="356.40" y2="356.40" />
<line x1="514.45" x2="514.45" y1="356.40" y2="356.40" />
<line x1="521.75" x2="521.75" y1="356.40" y2="356.40" />
<line x1="529.05" x2="529.05" y1="356.40" y2="356.40" />
<line x1="536.35" x2="536.35" y1="356.40" y2="356.40" />
<line x1="543.65" x2="543.65" y1="356.40" y2="356.40" />
<line x1="550.95" x2="550.95" y1="356.40" y2="356.40" />
<line x1="558.25" x2="558.25" y1="356.40" y2="356.40" />
<line x1="565.55" x2="565.55" y1="356.40" y2="356.40" />
<line x1="572.85" x2="572.85" y1="348.16" y2="356.40" />
<line x1="580.15" x2="580.15" y1="356.40" y2="356.40" />
<line x1="587.45" x2="587.45" y1="356.40" y2="356.40" />
<line x1="594.74" x2="594.74" y1="352.36" y2="356.40" />
<line x1="602.04" x2="602.04" y1="354.54" y2="356.40" />
<line x1="609.34" x2="609.34" y1="356.40" y2="356.40" />
<line x1="616.64" x2="616.64" y1="356.40" y2="356.40" />
<line x1="623.94" x2="623.94" y1="356.40" y2="356.40" />
<line x1="631.24" x2="631.24" y1="356.40" y2="356.40" />
<line x1="638.54" x2="638.54" y1="356.40" y2="356.40" />
<line x1="645.84" x2="645.84" y1="349.73" y2="356.40" />
<line x1="653.14" x2="653.14" y1="356.40" y2="356.40" />
<line x1="660.44" x2="660.44" y1="356.40" y2="356.40" />
<line x1="667.74" x2="667.74" y1="356.40" y2="356.40" />
<line x1="675.04" x2="675.04" y1="356.40" y2="356.40" />
<line x1="682.34" x2="682.34" y1="340.34" y2="356.40" />
<line x1="689.64" x2="689.64" y1="356.40" y2="356.40" />
<line x1="696.94" x2="696.94" y1="356.40" y2="356.40" />
<line x1="704.23" x2="704.23" y1="356.40" y2="356.40" />
<line x1="711.53" x2="711.53" y1="356.40" y2="356.40" />
<line x1="718.83" x2="718.83" y1="308.76" y2="356.40" />
<line x1="726.13" x2="726.13" y1="323.10" y2="356.40" />
<line x1="733.43" x2="733.43" y1="338.08" y2="356.40" />
<line x1="740.73" x2="740.73" y1="331.85" y2="356.40" />
<line x1="748.03" x2="748.03" y1="315.58" y2="356.40" />
<line x1="755.33" x2="755.33" y1="246.46" y2="356.40" />
<line x1="762.63" x2="762.63" y1="201.90" y2="356.40" />
<line x1="769.93" x2="769.93" y1="280.86" y2="356.40" />
<line x1="777.23" x2="777.23" y1="348.68" y2="356.40" />
<line x1="784.53" x2="784.53" y1="323.87" y2="356.40" />
<line x1="791.83" x2="791.83" y1="356.40" y2="356.40" />
<line x1="799.13" x2="799.13" y1="296.23" y2="356.40" />
<line x1="806.42" x2="806.42" y1="292.59" y2="356.40" />
<line x1="813.72" x2="813.72" y1="289.21" y2="356.40" />
<line x1="821.02" x2="821.02" y1="289.82" y2="356.40" />
<line x1="828.32" x2="828.32" y1="297.47" y2="356.40" />
<line x1="835.62" x2="835.62" y1="342.40" y2="356.40" />
<line x1="842.92" x2="842.92" y1="278.47" y2="356.40" />
<line x1="850.22" x2="850.22" y1="336.33" y2="356.40" />
<line x1="857.52" x2="857.52" y1="343.78" y2="356.40" />
<line x1="864.82" x2="864.82" y1="341.20" y2="356.40" />
<line x1="872.12" x2="872.12" y1="306.45" y2="356.40" />
<line x1="879.42" x2="879.42" y1="288.59" y2="356.40" />
<line x1="886.72" x2="886.72" y1="262.01" y2="356.40" />
<line x1="894.02" x2="894.02" y1="265.49" y2="356.40" />
<line x1="901.32" x2="901.32" y1="285.34" y2="356.40" />
<line x1="908.62" x2="908.62" y1="331.04" y2="356.40" />
<line x1="915.91" x2="915.91" y1="271.26" y2="356.40" />
<line x1="923.21" x2="923.21" y1="333.64" y2="356.40" />
<line x1="930.51" x2="930.51" y1="315.23" y2="356.40" />
<line x1="937.81" x2="937.81" y1="317.94" y2="356.40" />
<line x1="945.11" x2="945.11" y1="328.61" y2="356.40" />
<line x1="952.41" x2="952.41" y1="335.01" y2="356.40" />
<line x1="959.71" x2="959.71" y1="356.40" y2="356.40" />
<line x1="967.01" x2="967.01" y1="356.40" y2="356.40" />
<line x1="974.31" x2="974.31" y1="356.40" y2="356.40" />
<line x1="981.61" x2="981.61" y1="356.40" y2="356.40" />
<line x1="988.91" x2="988.91" y1="356.40" y2="356.40" />
<line x1="996.21" x2="996.21" y1="356.40" y2="356.40" />
<line x1="1003.51" x2="1003.51" y1="341.33" y2="356.40" />
<line x1="1010.81" x2="1010.81" y1="356.40" y2="356.40" />
<line x1="1018.10" x2="1018.10" y1="356.40" y2="356.40" />
<line x1="1025.40" x2="1025.40" y1="356.40" y2="356.40" />
<line x1="1032.70" x2="1032.70" y1="356.40" y2="356.40" />
<line x1="1040.00" x2="1040.00" y1="356.40" y2="356.40" />
<line x1="1047.30" x2="1047.30" y1="356.40" y2="356.40" />
<line x1="1054.60" x2="1054.60" y1="356.40" y2="356.40" />
<line x1="1061.90" x2="1061.90" y1="356.40" y2="356.40" />
<line x1="1069.20" x2="1069.20" y1="356.40" y2="356.40" />
</g>
<g fill="none" stroke-width="3.6986301369863015" stroke="#aa8800">
<line x1="10.80" x2="10.80" y1="325.71" y2="356.40" />
<line x1="18.10" x2="18.10" y1="320.11" y2="356.40" />
<line x1="25.40" x2="25.40" y1="356.40" y2="356.40" />
<line x1="32.70" x2="32.70" y1="355.04" y2="356.40" />
<line x1="40.00" x2="40.00" y1="339.98" y2="356.40" />
<line x1="47.30" x2="47.30" y1="325.62" y2="356.40" />
<line x1="54.60" x2="54.60" y1="353.67" y2="356.40" />
<line x1="61.90" x2="61.90" y1="355.81" y2="356.40" />
<line x1="69.19" x2="69.19" y1="352.73" y2="356.40" />
<line x1="76.49" x2="76.49" y1="356.40" y2="356.40" />
<line x1="83.79" x2="83.79" y1="335.62" y2="356.40" />
<line x1="91.09" x2="91.09" y1="356.40" y2="356.40" />
<line x1="98.39" x2="98.39" y1="342.70" y2="356.40" />
<line x1="105.69" x2="105.69" y1="304.65" y2="356.40" />
<line x1="112.99" x2="112.99" y1="333.60" y2="356.40" />
<line x1="120.29" x2="120.29" y1="291.35" y2="356.40" />
<line x1="127.59" x2="127.59" y1="129.66" y2="356.40" />
<line x1="134.89" x2="134.89" y1="153.15" y2="356.40" />
<line x1="142.19" x2="142.19" y1="345.76" y2="356.40" />
<line x1="149.49" x2="149.49" y1="356.40" y2="356.40" />
<line x1="156.79" x2="156.79" y1="356.40" y2="356.40" />
<line x1="164.09" x2="164.09" y1="342.19" y2="356.40" />
<line x1="171.38" x2="171.38" y1="356.40" y2="356.40" />
<line x1="178.68" x2="178.68" y1="356.40" y2="356.40" />
<line x1="185.98" x2="185.98" y1="333.04" y2="356.40" />
<line x1="193.28" x2="193.28" y1="356.40" y2="356.40" />
<line x1="200.58" x2="200.58" y1="356.40" y2="356.40" />
<line x1="207.88" x2="207.88" y1="304.60" y2="356.40" />
<line x1="215.18" x2="215.18" y1="356.40" y2="356.40" />
<line x1="222.48" x2="222.48" y1="356.40" y2="356.40" />
<line x1="229.78" x2="229.78" y1="356.40" y2="356.40" />
<line x1="237.08" x2="237.08" y1="356.40" y2="356.40" />
<line x1="244.38" x2="244.38" y1="356.40" y2="356.40" />
<line x1="251.68" x2="251.68" y1="356.40" y2="356.40" />
<line x1="258.98" x2="258.98" y1="356.40" y2="356.40" />
<line x1="266.28" x2="266.28" y1="356.40" y2="356.40" />
<line x1="273.58" x2="273.58" y1="356.40" y2="356.40" />
<line x1="280.87" x2="280.87" y1="356.40" y2="356.40" />
<line x1="288.17" x2="288.17" y1="356.40" y2="356.40" />
<line x1="295.47" x2="295.47" y1="356.40" y2="356.40" />
<line x1="302.77" x2="302.77" y1="356.40" y2="356.40" />
<line x1="310.07" x2="310.07" y1="356.40" y2="356.40" />
<line x1="317.37" x2="317.37" y1="356.40" y2="356.40" />
<line x1="324.67" x2="324.67" y1="356.40" y2="356.40" />
<line x1="331.97" x2="331.97" y1="356.40" y2="356.40" />
<line x1="339.27" x2="339.27" y1="356.40" y2="356.40" />
<line x1="346.57" x2="346.57" y1="303.37" y2="356.40" />
<line x1="353.87" x2="353.87" y1="356.40" y2="356.40" />
<line x1="361.17" x2="361.17" y1="356.40" y2="356.40" />
<line x1="368.47" x2="368.47" y1="356.40" y2="356.40" />
<line x1="375.77" x2="375.77" y1="356.40" y2="356.40" />
<line x1="383.06" x2="383.06" y1="356.40" y2="356.40" />
<line x1="390.36" x2="390.36" y1="356.40" y2="356.40" />
<line x1="397.66" x2="397.66" y1="356.40" y2="356.40" />
<line x1="404.96" x2="404.96" y1="356.40" y2="356.40" />
<line x1="412.26" x2="412.26" y1="356.40" y2="356.40" />
<line x1="419.56" x2="419.56" y1="356.40" y2="356.40" />
<line x1="426.86" x2="426.86" y1="356.40" y2="356.40" />
<line x1="434.16" x2="434.16" y1="286.20" y2="356.40" />
<line x1="441.46" x2="441.46" y1="282.28" y2="356.40" />
<line x1="448.76" x2="448.76" y1="313.31" y2="356.40" />
<line x1="456.06" x2="456.06" y1="311.24" y2="356.40" />
<line x1="463.36" x2="463.36" y1="341.04" y2="356.40" />
<line x1="470.66" x2="470.66" y1="303.51" y2="356.40" />
<line x1="477.96" x2="477.96" y1="300.17" y2="356.40" />
<line x1="485.26" x2="485.26" y1="264.96" y2="356.40" />
<line x1="492.55" x2="492.55" y1="344.73" y2="356.40" />
<line x1="499.85" x2="499.85" y1="330.97" y2="356.40" />
<line x1="507.15" x2="507.15" y1="322.59" y2="356.40" />
<line x1="514.45" x2="514.45" y1="299.98" y2="356.40" />
<line x1="521.75" x2="521.75" y1="350.46" y2="356.40" />
<line x1="529.05" x2="529.05" y1="340.99" y2="356.40" />
<line x1="536.35" x2="536.35" y1="307.97" y2="356.40" />
<line x1="543.65" x2="543.65" y1="260.92" y2="356.40" />
<line x1="550.95" x2="550.95" y1="351.09" y2="356.40" />
<line x1="558.25" x2="558.25" y1="277.04" y2="356.40" />
<line x1="565.55" x2="565.55" y1="306.82" y2="356.40" />
<line x1="572.85" x2="572.85" y1="356.40" y2="356.40" />
<line x1="580.15" x2="580.15" y1="324.52" y2="356.40" />
<line x1="587.45" x2="587.45" y1="335.41" y2="356.40" />
<line x1="594.74" x2="594.74" y1="356.40" y2="356.40" />
<line x1="602.04" x2="602.04" y1="356.40" y2="356.40" />
<line x1="609.34" x2="609.34" y1="295.21" y2="356.40" />
<line x1="616.64" x2="616.64" y1="346.14" y2="356.40" />
<line x1="623.94" x2="623.94" y1="314.82" y2="356.40" />
<line x1="631.24" x2="631.24" y1="304.62" y2="356.40" />
<line x1="638.54" x2="638.54" y1="315.27" y2="356.40" />
<line x1="645.84" x2="645.84" y1="356.40" y2="356.40" />
<line x1="653.14" x2="653.14" y1="344.68" y2="356.40" />
<line x1="660.44" x2="660.44" y1="342.55" y2="356.40" />
<line x1="667.74" x2="667.74" y1="325.73" y2="356.40" />
<line x1="675.04" x2="675.04" y1="307.85" y2="356.40" />
<line x1="682.34" x2="682.34" y1="356.40" y2="356.40" />
<line x1="689.64" x2="689.64" y1="313.28" y2="356.40" />
<line x1="696.94" x2="696.94" y1="311.90" y2="356.40" />
<line x1="704.23" x2="704.23" y1="338.11" y2="356.40" />
<line x1="711.53" x2="711.53" y1="328.23" y2="356.40" />
<line x1="718.83" x2="718.83" y1="356.40" y2="356.40" />
<line x1="726.13" x2="726.13" y1="356.40" y2="356.40" />
<line x1="733.43" x2="733.43" y1="356.40" y2="356.40" />
<line x1="740.73" x2="740.73" y1="356.40" y2="356.40" />
<line x1="748.03" x2="748.03" y1="356.40" y2="356.40" />
<line x1="755.33" x2="755.33" y1="356.40" y2="356.40" />
<line x1="762.63" x2="762.63" y1="356.40" y2="356.40" />
<line x1="769.93" x2="769.93" y1="356.40" y2="356.40" />
<line x1="777.23" x2="777.23" y1="356.40" y2="356.40" />
<line x1="784.53" x2="784.53" y1="356.40" y2="356.40" />
<line x1="791.83" x2="791.83" y1="350.23" y2="356.40" />
<line x1="799.13" x2="799.13" y1="356.40" y2="356.40" />
<line x1="806.42" x2="806.42" y1="356.40" y2="356.40" />
<line x1="813.72" x2="813.72" y1="356.40" y2="356.40" />
<line x1="821.02" x2="821.02" y1="356.40" y2="356.40" />
<line x1="828.32" x2="828.32" y1="356.40" y2="356.40" />
<line x1="835.62" x2="835.62" y1="356.40" y2="356.40" />
<line x1="842.92" x2="842.92" y1="356.40" y2="356.40" />
<line x1="850.22" x2="850.22" y1="356.40" y2="356.40" />
<line x1="857.52" x2="857.52" y1="356.40" y2="356.40" />
<line x1="864.82" x2="864.82" y1="356.40" y2="356.40" />
<line x1="872.12" x2="872.12" y1="356.40" y2="356.40" />
<line x1="879.42" x2="879.42" y1="356.40" y2="356.40" />
<line x1="886.72" x2="886.72" y1="356.40" y2="356.40" />
<line x1="894.02" x2="894.02" y1="356.40" y2="356.40" />
<line x1="901.32" x2="901.32" y1="356.40" y2="356.40" />
<line x1="908.62" x2="908.62" y1="356.40" y2="356.40" />
<line x1="915.91" x2="915.91" y1="356.40" y2="356.40" />
<line x1="923.21" x2="923.21" y1="356.40" y2="356.40" />
<line x1="930.51" x2="930.51" y1="356.40" y2="356.40" />
<line x1="937.81" x2="937.81" y1="356.40" y2="356.40" />
<line x1="945.11" x2="945.11" y1="356.40" y2="356.40" />
<line x1="952.41" x2="952.41" y1="356.40" y2="356.40" />
<line x1="959.71" x2="959.71" y1="315.43" y2="356.40" />
<line x1="967.01" x2="967.01" y1="307.96" y2="356.40" />
<line x1="974.31" x2="974.31" y1="303.21" y2="356.40" />
<line x1="981.61" x2="981.61" y1="330.36" y2="356.40" />
<line x1="988.91" x2="988.91" y1="304.31" y2="356.40" />
<line x1="996.21" x2="996.21" y1="316.10" y2="356.40" />
<line x1="1003.51" x2="1003.51" y1="356.40" y2="356.40" />
<line x1="1010.81" x2="1010.81" y1="301.14" y2="356.40" />
<line x1="1018.10" x2="1018.10" y1="267.08" y2="356.40" />
<line x1="1025.40" x2="1025.40" y1="253.27" y2="356.40" />
<line x1="1032.70" x2="1032.70" y1="348.00" y2="356.40" />
<line x1="1040.00" x2="1040.00" y1="321.14" y2="356.40" />
<line x1="1047.30" x2="1047.30" y1="279.76" y2="356.40" />
<line x1="1054.60" x2="1054.60" y1="321.93" y2="356.40" />
<line x1="1061.90" x2="1061.90" y1="318.70" y2="356.40" />
<line x1="1069.20" x2="1069.20" y1="315.59" y2="356.40" />
</g>
<g fill="none" stroke-width="3.6986301369863015" stroke="#aa8800">
<line x1="10.80" x2="10.80" y1="325.71" y2="356.40" />
<line x1="18.10" x2="18.10" y1="320.11" y2="356.40" />
<line x1="25.40" x2="25.40" y1="356.40" y2="356.40" />
<line x1="32.70" x2="32.70" y1="355.04" y2="356.40" />
<line x1="40.00" x2="40.00" y1="339.98" y2="356.40" />
<line x1="47.30" x2="47.30" y1="325.62" y2="356.40" />
<line x1="54.60" x2="54.60" y1="353.67" y2="356.40" />
<line x1="61.90" x2="61.90" y1="355.81" y2="356.40" />
<line x1="69.19" x2="69.19" y1="352.73" y2="356.40" />
<line x1="76.49" x2="76.49" y1="356.40" y2="356.40" />
<line x1="83.79" x2="83.79" y1="335.62" y2="356.40" />
<line x1="91.09" x2="91.09" y1="356.40" y2="356.40" />
<line x1="98.39" x2="98.39" y1="342.70" y2="356.40" />
<line x1="105.69" x2="105.69" y1="304.65" y2="356.40" />
<line x1="112.99" x2="112.99" y1="333.60" y2="356.40" />
<line x1="120.29" x2="120.29" y1="291.35" y2="356.40" />
<line x1="127.59" x2="127.59" y1="129.66" y2="356.40" />
<line x1="134.89" x2="134.89" y1="153.15" y2="356.40" />
<line x1="142.19" x2="142.19" y1="345.76" y2="356.40" />
<line x1="149.49" x2="149.49" y1="356.40" y2="356.40" />
<line x1="156.79" x2="156.79" y1="356.40" y2="356.40" />
<line x1="164.09" x2="164.09" y1="342.19" y2="356.40" />
<line x1="171.38" x2="171.38" y1="356.40" y2="356.40" />
<line x1="178.68" x2="178.68" y1="356.40" y2="356.40" />
<line x1="185.98" x2="185.98" y1="333.04" y2="356.40" />
<line x1="193.28" x2="193.28" y1="356.40" y2="356.40" />
<line x1="200.58" x2="200.58" y1="356.40" y2="356.40" />
<line x1="207.88" x2="207.88" y1="304.60" y2="356.40" />
<line x1="215.18" x2="215.18" y1="356.40" y2="356.40" />
<line x1="222.48" x2="222.48" y1="356.40" y2="356.40" />
<line x1="229.78" x2="229.78" y1="356.40" y2="356.40" />
<line x1="237.08" x2="237.08" y1="356.40" y2="356.40" />
<line x1="244.38" x2="244.38" y1="356.40" y2="356.40" />
<line x1="251.68" x2="251.68" y1="356.40" y2="356.40" />
<line x1="258.98" x2="258.98" y1="356.40" y2="356.40" />
<line x1="266.28" x2="266.28" y1="356.40" y2="356.40" />
<line x1="273.58" x2="273.58" y1="356.40" y2="356.40" />
<line x1="280.87" x2="280.87" y1="356.40" y2="356.40" />
<line x1="288.17" x2="288.17" y1="356.40" y2="356.40" />
<line x1="295.47" x2="295.47" y1="356.40" y2="356.40" />
<line x1="302.77" x2="302.77" y1="356.40" y2="356.40" />
<line x1="310.07" x2="310.07" y1="356.40" y2="356.40" />
<line x1="317.37" x2="317.37" y1="356.40" y2="356.40" />
<line x1="324.67" x2="324.67" y1="356.40" y2="356.40" />
<line x1="331.97" x2="331.97" y1="356.40" y2="356.40" />
<line x1="339.27" x2="339.27" y1="356.40" y2="356.40" />
<line x1="346.57" x2="346.57" y1="303.37" y2="356.40" />
<line x1="353.87" x2="353.87" y1="356.40" y2="356.40" />
<line x1="361.17" x2="361.17" y1="356.40" y2="356.40" />
<line x1="368.47" x2="368.47" y1="356.40" y2="356.40" />
<line x1="375.77" x2="375.77" y1="356.40" y2="356.40" />
<line x1="383.06" x2="383.06" y1="356.40" y2="356.40" />
<line x1="390.36" x2="390.36" y1="356.40" y2="356.40" />
<line x1="397.66" x2="397.66" y1="356.40" y2="356.40" />
<line x1="404.96" x2="404.96" y1="356.40" y2="356.40" />
<line x1="412.26" x2="412.26" y1="356.40" y2="356.40" />
<line x1="419.56" x2="419.56" y1="356.40" y2="356.40" />
<line x1="426.86" x2="426.86" y1="356.40" y2="356.40" />
<line x1="434.16" x2="434.16" y1="286.20" y2="356.40" />
<line x1="441.46" x2="441.46" y1="282.28" y2="356.40" />
<line x1="448.76" x2="448.76" y1="313.31" y2="356.40" />
<line x1="456.06" x2="456.06" y1="311.24" y2="356.40" />
<line x1="463.36" x2="463.36" y1="341.04" y2="356.40" />
<line x1="470.66" x2="470.66" y1="303.51" y2="356.40" />
<line x1="477.96" x2="477.96" y1="300.17" y2="356.40" />
<line x1="485.26" x2="485.26" y1="264.96" y2="356.40" />
<line x1="492.55" x2="492.55" y1="344.73" y2="356.40" />
<line x1="499.85" x2="499.85" y1="330.97" y2="356.40" />
<line x1="507.15" x2="507.15" y1="322.59" y2="356.40" />
<line x1="514.45" x2="514.45" y1="299.98" y2="356.40" />
<line x1="521.75" x2="521.75" y1="350.46" y2="356.40" />
<line x1="529.05" x2="529.05" y1="340.99" y2="356.40" />
<line x1="536.35" x2="536.35" y1="307.97" y2="356.40" />
<line x1="543.65" x2="543.65" y1="260.92" y2="356.40" />
<line x1="550.95" x2="550.95" y1="351.09" y2="356.40" />
<line x1="558.25" x2="558.25" y1="277.04" y2="356.40" />
<line x1="565.55" x2="565.55" y1="306.82" y2="356.40" />
<line x1="572.85" x2="572.85" y1="356.40" y2="356.40" />
<line x1="580.15" x2="580.15" y1="324.52" y2="356.40" />
<line x1="587.45" x2="587.45" y1="335.41" y2="356.40" />
<line x1="594.74" x2="594.74" y1="356.40" y2="356.40" />
<line x1="602.04" x2="602.04" y1="356.40" y2="356.40" />
<line x1="609.34" x2="609.34" y1="295.21" y2="356.40" />
<line x1="616.64" x2="616.64" y1="346.14" y2="356.40" />
<line x1="623.94" x2="623.94" y1="314.82" y2="356.40" />
<line x1="631.24" x2="631.24" y1="304.62" y2="356.40" />
<line x1="638.54" x2="638.54" y1="315.27" y2="356.40" />
<line x1="645.84" x2="645.84" y1="356.40" y2="356.40" />
<line x1="653.14" x2="653.14" y1="344.68" y2="356.40" />
<line x1="660.44" x2="660.44" y1="342.55" y2="356.40" />
<line x1="667.74" x2="667.74" y1="325.73" y2="356.40" />
<line x1="675.04" x2="675.04" y1="307.85" y2="356.40" />
<line x1="682.34" x2="682.34" y1="356.40" y2="356.40" />
<line x1="689.64" x2="689.64" y1="313.28" y2="356.40" />
<line x1="696.94" x2="696.94" y1="311.90" y2="356.40" />
<line x1="704.23" x2="704.23" y1="338.11" y2="356.40" />
<line x1="711.53" x2="711.53" y1="328.23" y2="356.40" />
<line x1="718.83" x2="718.83" y1="356.40" y2="356.40" />
<line x1="726.13" x2="726.13" y1="356.40" y2="356.40" />
<line x1="733.43" x2="733.43" y1="356.40" y2="356.40" />
<line x1="740.73" x2="740.73" y1="356.40" y2="356.40" />
<line x1="748.03" x2="748.03" y1="356.40" y2="356.40" />
<line x1="755.33" x2="755.33" y1="356.40" y2="356.40" />
<line x1="762.63" x2="762.63" y1="356.40" y2="356.40" />
<line x1="769.93" x2="769.93" y1="356.40" y2="356.40" />
<line x1="777.23" x2="777.23" y1="356.40" y2="356.40" />
<line x1="784.53" x2="784.53" y1="356.40" y2="356.40" />
<line x1="791.83" x2="791.83" y1="350.23" y2="356.40" />
<line x1="799.13" x2="799.13" y1="356.40" y2="356.40" />
<line x1="806.42" x2="806.42" y1="356.40" y2="356.40" />
<line x1="813.72" x2="813.72" y1="356.40" y2="356.40" />
<line x1="821.02" x2="821.02" y1="356.40" y2="356.40" />
<line x1="828.32" x2="828.32" y1="356.40" y2="356.40" />
<line x1="835.62" x2="835.62" y1="356.40" y2="356.40" />
<line x1="842.92" x2="842.92" y1="356.40" y2="356.40" />
<line x1="850.22" x2="850.22" y1="356.40" y2="356.40" />
<line x1="857.52" x2="857.52" y1="356.40" y2="356.40" />
<line x1="864.82" x2="864.82" y1="356.40" y2="356.40" />
<line x1="872.12" x2="872.12" y1="356.40" y2="356.40" />
<line x1="879.42" x2="879.42" y1="356.40" y2="356.40" />
<line x1="886.72" x2="886.72" y1="356.40" y2="356.40" />
<line x1="894.02" x2="894.02" y1="356.40" y2="356.40" />
<line x1="901.32" x2="901.32" y1="356.40" y2="356.40" />
<line x1="908.62" x2="908.62" y1="356.40" y2="356.40" />
<line x1="915.91" x2="915.91" y1="356.40" y2="356.40" />
<line x1="923.21" x2="923.21" y1="356.40" y2="356.40" />
<line x1="930.51" x2="930.51" y1="356.40" y2="356.40" />
<line x1="937.81" x2="937.81" y1="356.40" y2="356.40" />
<line x1="945.11" x2="945.11" y1="356.40" y2="356.40" />
<line x1="952.41" x2="952.41" y1="356.40" y2="356.40" />
<line x1="959.71" x2="959.71" y1="315.43" y2="356.40" />
<line x1="967.01" x2="967.01" y1="307.96" y2="356.40" />
<line x1="974.31" x2="974.31" y1="303.21" y2="356.40" />
<line x1="981.61" x2="981.61" y1="330.36" y2="356.40" />
<line x1="988.91" x2="988.91" y1="304.31" y2="356.40" />
<line x1="996.21" x2="996.21" y1="316.10" y2="356.40" />
<line x1="1003.51" x2="1003.51" y1="356.40" y2="356.40" />
<line x1="1010.81" x2="1010.81" y1="301.14" y2="356.40" />
<line x1="1018.10" x2="1018.10" y1="267.08" y2="356.40" />
<line x1="1025.40" x2="1025.40" y1="253.27" y2="356.40" />
<line x1="1032.70" x2="1032.70" y1="348.00" y2="356.40" />
<line x1="1040.00" x2="1040.00" y1="321.14" y2="356.40" />
<line x1="1047.30" x2="1047.30" y1="279.76" y2="356.40" />
<line x1="1054.60" x2="1054.60" y1="321.93" y2="356.40" />
<line x1="1061.90" x2="1061.90" y1="318.70" y2="356.40" />
<line x1="1069.20" x2="1069.20" y1="315.59" y2="356.40" />
</g>
<polyline fill="none" points="25.40,359.30 25.40,343.08" stroke-width="0.72" stroke="black" />
<polyline fill="none" points="76.49,359.86 76.49,347.48" stroke-width="0.72" stroke="black" />
<polyline fill="none" points="91.09,353.90 91.09,332.77" stroke-width="0.72" stroke="black" />
<polyline fill="none" points="149.49,355.59 149.49,339.82" stroke-width="0.72" stroke="black" />
<polyline fill="none" points="156.79,358.88 156.79,340.71" stroke-width="0.72" stroke="black" />
<polyline fill="none" points="171.38,358.24 171.38,331.64" stroke-width="0.72" stroke="black" />
<polyline fill="none" points="178.68,354.36 178.68,303.55" stroke-width="0.72" stroke="black" />
<polyline fill="none" points="193.28,312.85 193.28,269.00" stroke-width="0.72" stroke="black" />
<polyline fill="none" points="200.58,360.69 200.58,335.64" stroke-width="0.72" stroke="black" />
<polyline fill="none" points="215.18,350.17 215.18,313.41" stroke-width="0.72" stroke="black" />
<polyline fill="none" points="222.48,351.44 222.48,314.73" stroke-width="0.72" stroke="black" />
<polyline fill="none" points="229.78,358.12 229.78,285.60" stroke-width="0.72" stroke="black" />
<polyline fill="none" points="237.08,338.01 237.08,284.12" stroke-width="0.72" stroke="black" />
<polyline fill="none" points="244.38,309.69 244.38,253.50" stroke-width="0.72" stroke="black" />
<polyline fill="none" points="251.68,314.04 251.68,237.72" stroke-width="0.72" stroke="black" />
<polyline fill="none" points="258.98,359.72 258.98,344.43" stroke-width="0.72" stroke="black" />
<polyline fill="none" points="266.28,359.93 266.28,321.37" stroke-width="0.72" stroke="black" />
<polyline fill="none" points="273.58,324.00 273.58,261.57" stroke-width="0.72" stroke="black" />
<polyline fill="none" points="280.87,343.16 280.87,315.59" stroke-width="0.72" stroke="black" />
<polyline fill="none" points="288.17,307.43 288.17,265.88" stroke-width="0.72" stroke="black" />
<polyline fill="none" points="295.47,326.93 295.47,296.96" stroke-width="0.72" stroke="black" />
<polyline fill="none" points="302.77,313.36 302.77,272.90" stroke-width="0.72" stroke="black" />
<polyline fill="none" points="310.07,300.05 310.07,231.14" stroke-width="0.72" stroke="black" />
<polyline fill="none" points="317.37,331.68 317.37,282.59" stroke-width="0.72" stroke="black" />
<polyline fill="none" points="324.67,350.85 324.67,341.10" stroke-width="0.72" stroke="black" />
<polyline fill="none" points="331.97,344.99 331.97,285.46" stroke-width="0.72" stroke="black" />
<polyline fill="none" points="339.27,348.00 339.27,284.33" stroke-width="0.72" stroke="black" />
<polyline fill="none" points="353.87,342.42 353.87,158.97" stroke-width="0.72" stroke="black" />
<polyline fill="none" points="361.17,327.02 361.17,287.90" stroke-width="0.72" stroke="black" />
<polyline fill="none" points="368.47,348.95 368.47,321.38" stroke-width="0.72" stroke="black" />
<polyline fill="none" points="375.77,314.70 375.77,245.24" stroke-width="0.72" stroke="black" />
<polyline fill="none" points="383.06,347.63 383.06,318.85" stroke-width="0.72" stroke="black" />
<polyline fill="none" points="390.36,300.57 390.36,230.81" stroke-width="0.72" stroke="black" />
<polyline fill="none" points="397.66,329.20 397.66,287.98" stroke-width="0.72" stroke="black" />
<polyline fill="none" points="404.96,350.66 404.96,315.51" stroke-width="0.72" stroke="black" />
<polyline fill="none" points="412.26,353.50 412.26,315.73" stroke-width="0.72" stroke="black" />
<polyline fill="none" points="419.56,360.94 419.56,306.47" stroke-width="0.72" stroke="black" />
<polyline fill="none" points="426.86,354.05 426.86,319.74" stroke-width="0.72" stroke="black" />
<polyline fill="none" points="572.85,359.44 572.85,336.88" stroke-width="0.72" stroke="black" />
<polyline fill="none" points="594.74,355.92 594.74,348.80" stroke-width="0.72" stroke="black" />
<polyline fill="none" points="602.04,360.64 602.04,348.44" stroke-width="0.72" stroke="black" />
<polyline fill="none" points="645.84,355.77 645.84,343.70" stroke-width="0.72" stroke="black" />
<polyline fill="none" points="682.34,358.88 682.34,321.81" stroke-width="0.72" stroke="black" />
<polyline fill="none" points="718.83,326.76 718.83,290.76" stroke-width="0.72" stroke="black" />
<polyline fill="none" points="726.13,335.33 726.13,310.86" stroke-width="0.72" stroke="black" />
<polyline fill="none" points="733.43,349.92 733.43,326.24" stroke-width="0.72" stroke="black" />
<polyline fill="none" points="740.73,344.33 740.73,319.36" stroke-width="0.72" stroke="black" />
<polyline fill="none" points="748.03,336.32 748.03,294.83" stroke-width="0.72" stroke="black" />
<polyline fill="none" points="755.33,277.59 755.33,215.33" stroke-width="0.72" stroke="black" />
<polyline fill="none" points="762.63,260.89 762.63,142.90" stroke-width="0.72" stroke="black" />
<polyline fill="none" points="769.93,332.56 769.93,229.17" stroke-width="0.72" stroke="black" />
<polyline fill="none" points="777.23,355.15 777.23,342.21" stroke-width="0.72" stroke="black" />
<polyline fill="none" points="784.53,339.32 784.53,308.43" stroke-width="0.72" stroke="black" />
<polyline fill="none" points="799.13,321.65 799.13,270.82" stroke-width="0.72" stroke="black" />
<polyline fill="none" points="806.42,345.11 806.42,240.07" stroke-width="0.72" stroke="black" />
<polyline fill="none" points="813.72,332.02 813.72,246.39" stroke-width="0.72" stroke="black" />
<polyline fill="none" points="821.02,339.97 821.02,239.67" stroke-width="0.72" stroke="black" />
<polyline fill="none" points="828.32,319.74 828.32,275.21" stroke-width="0.72" stroke="black" />
<polyline fill="none" points="835.62,360.17 835.62,324.64" stroke-width="0.72" stroke="black" />
<polyline fill="none" points="842.92,312.75 842.92,244.19" stroke-width="0.72" stroke="black" />
<polyline fill="none" points="850.22,348.80 850.22,323.87" stroke-width="0.72" stroke="black" />
<polyline fill="none" points="857.52,353.77 857.52,333.78" stroke-width="0.72" stroke="black" />
<polyline fill="none" points="864.82,351.91 864.82,330.49" stroke-width="0.72" stroke="black" />
<polyline fill="none" points="872.12,328.64 872.12,284.26" stroke-width="0.72" stroke="black" />
<polyline fill="none" points="879.42,336.71 879.42,240.48" stroke-width="0.72" stroke="black" />
<polyline fill="none" points="886.72,304.26 886.72,219.76" stroke-width="0.72" stroke="black" />
<polyline fill="none" points="894.02,297.57 894.02,233.42" stroke-width="0.72" stroke="black" />
<polyline fill="none" points="901.32,311.80 901.32,258.88" stroke-width="0.72" stroke="black" />
<polyline fill="none" points="908.62,358.93 908.62,303.15" stroke-width="0.72" stroke="black" />
<polyline fill="none" points="915.91,300.18 915.91,242.34" stroke-width="0.72" stroke="black" />
<polyline fill="none" points="923.21,348.36 923.21,318.92" stroke-width="0.72" stroke="black" />
<polyline fill="none" points="930.51,352.12 930.51,278.34" stroke-width="0.72" stroke="black" />
<polyline fill="none" points="937.81,335.11 937.81,300.77" stroke-width="0.72" stroke="black" />
<polyline fill="none" points="945.11,351.50 945.11,305.72" stroke-width="0.72" stroke="black" />
<polyline fill="none" points="952.41,357.05 952.41,312.97" stroke-width="0.72" stroke="black" />
<polyline fill="none" points="1003.51,355.60 1003.51,327.06" stroke-width="0.72" stroke="black" />
<polyline fill="none" points="10.80,340.30 10.80,311.12" stroke-width="0.72" stroke="black" />
<polyline fill="none" points="18.10,337.54 18.10,302.68" stroke-width="0.72" stroke="black" />
<polyline fill="none" points="32.70,355.83 32.70,354.25" stroke-width="0.72" stroke="black" />
<polyline fill="none" points="40.00,351.27 40.00,328.70" stroke-width="0.72" stroke="black" />
<polyline fill="none" points="47.30,344.25 47.30,306.99" stroke-width="0.72" stroke="black" />
<polyline fill="none" points="54.60,355.99 54.60,351.35" stroke-width="0.72" stroke="black" />
<polyline fill="none" points="61.90,356.45 61.90,355.17" stroke-width="0.72" stroke="black" />
<polyline fill="none" points="69.19,356.52 69.19,348.93" stroke-width="0.72" stroke="black" />
<polyline fill="none" points="83.79,359.03 83.79,312.22" stroke-width="0.72" stroke="black" />
<polyline fill="none" points="98.39,359.91 98.39,325.49" stroke-width="0.72" stroke="black" />
<polyline fill="none" points="105.69,349.77 105.69,259.54" stroke-width="0.72" stroke="black" />
<polyline fill="none" points="112.99,354.12 112.99,313.09" stroke-width="0.72" stroke="black" />
<polyline fill="none" points="120.29,326.05 120.29,256.66" stroke-width="0.72" stroke="black" />
<polyline fill="none" points="127.59,238.92 127.59,20.40" stroke-width="0.72" stroke="black" />
<polyline fill="none" points="134.89,248.32 134.89,57.99" stroke-width="0.72" stroke="black" />
<polyline fill="none" points="142.19,360.63 142.19,330.89" stroke-width="0.72" stroke="black" />
<polyline fill="none" points="164.09,357.21 164.09,327.17" stroke-width="0.72" stroke="black" />
<polyline fill="none" points="185.98,352.32 185.98,313.77" stroke-width="0.72" stroke="black" />
<polyline fill="none" points="207.88,335.88 207.88,273.33" stroke-width="0.72" stroke="black" />
<polyline fill="none" points="346.57,330.32 346.57,276.43" stroke-width="0.72" stroke="black" />
<polyline fill="none" points="434.16,325.42 434.16,246.98" stroke-width="0.72" stroke="black" />
<polyline fill="none" points="441.46,320.01 441.46,244.54" stroke-width="0.72" stroke="black" />
<polyline fill="none" points="448.76,336.91 448.76,289.71" stroke-width="0.72" stroke="black" />
<polyline fill="none" points="456.06,348.68 456.06,273.79" stroke-width="0.72" stroke="black" />
<polyline fill="none" points="463.36,354.80 463.36,327.28" stroke-width="0.72" stroke="black" />
<polyline fill="none" points="470.66,330.38 470.66,276.64" stroke-width="0.72" stroke="black" />
<polyline fill="none" points="477.96,323.36 477.96,276.97" stroke-width="0.72" stroke="black" />
<polyline fill="none" points="485.26,311.68 485.26,218.24" stroke-width="0.72" stroke="black" />
<polyline fill="none" points="492.55,356.48 492.55,332.97" stroke-width="0.72" stroke="black" />
<polyline fill="none" points="499.85,342.10 499.85,319.83" stroke-width="0.72" stroke="black" />
<polyline fill="none" points="507.15,341.45 507.15,303.73" stroke-width="0.72" stroke="black" />
<polyline fill="none" points="514.45,332.45 514.45,267.52" stroke-width="0.72" stroke="black" />
<polyline fill="none" points="521.75,353.48 521.75,347.44" stroke-width="0.72" stroke="black" />
<polyline fill="none" points="529.05,349.54 529.05,332.45" stroke-width="0.72" stroke="black" />
<polyline fill="none" points="536.35,340.84 536.35,275.09" stroke-width="0.72" stroke="black" />
<polyline fill="none" points="543.65,317.50 543.65,204.34" stroke-width="0.72" stroke="black" />
<polyline fill="none" points="550.95,356.64 550.95,345.55" stroke-width="0.72" stroke="black" />
<polyline fill="none" points="558.25,317.07 558.25,237.01" stroke-width="0.72" stroke="black" />
<polyline fill="none" points="565.55,352.08 565.55,261.56" stroke-width="0.72" stroke="black" />
<polyline fill="none" points="580.15,349.00 580.15,300.05" stroke-width="0.72" stroke="black" />
<polyline fill="none" points="587.45,362.12 587.45,308.69" stroke-width="0.72" stroke="black" />
<polyline fill="none" points="609.34,342.72 609.34,247.69" stroke-width="0.72" stroke="black" />
<polyline fill="none" points="616.64,357.00 616.64,335.28" stroke-width="0.72" stroke="black" />
<polyline fill="none" points="623.94,354.00 623.94,275.65" stroke-width="0.72" stroke="black" />
<polyline fill="none" points="631.24,337.13 631.24,272.10" stroke-width="0.72" stroke="black" />
<polyline fill="none" points="638.54,349.88 638.54,280.65" stroke-width="0.72" stroke="black" />
<polyline fill="none" points="653.14,352.70 653.14,336.67" stroke-width="0.72" stroke="black" />
<polyline fill="none" points="660.44,353.08 660.44,332.02" stroke-width="0.72" stroke="black" />
<polyline fill="none" points="667.74,350.62 667.74,300.83" stroke-width="0.72" stroke="black" />
<polyline fill="none" points="675.04,337.02 675.04,278.68" stroke-width="0.72" stroke="black" />
<polyline fill="none" points="689.64,355.08 689.64,271.49" stroke-width="0.72" stroke="black" />
<polyline fill="none" points="696.94,351.27 696.94,272.53" stroke-width="0.72" stroke="black" />
<polyline fill="none" points="704.23,351.89 704.23,324.32" stroke-width="0.72" stroke="black" />
<polyline fill="none" points="711.53,347.33 711.53,309.14" stroke-width="0.72" stroke="black" />
<polyline fill="none" points="791.83,357.62 791.83,342.83" stroke-width="0.72" stroke="black" />
<polyline fill="none" points="959.71,357.24 959.71,273.62" stroke-width="0.72" stroke="black" />
<polyline fill="none" points="967.01,327.31 967.01,288.61" stroke-width="0.72" stroke="black" />
<polyline fill="none" points="974.31,336.82 974.31,269.60" stroke-width="0.72" stroke="black" />
<polyline fill="none" points="981.61,360.80 981.61,299.91" stroke-width="0.72" stroke="black" />
<polyline fill="none" points="988.91,338.33 988.91,270.28" stroke-width="0.72" stroke="black" />
<polyline fill="none" points="996.21,340.11 996.21,292.09" stroke-width="0.72" stroke="black" />
<polyline fill="none" points="1010.81,332.56 1010.81,269.72" stroke-width="0.72" stroke="black" />
<polyline fill="none" points="1018.10,317.69 1018.10,216.47" stroke-width="0.72" stroke="black" />
<polyline fill="none" points="1025.40,299.92 1025.40,206.62" stroke-width="0.72" stroke="black" />
<polyline fill="none" points="1032.70,356.92 1032.70,339.08" stroke-width="0.72" stroke="black" />
<polyline fill="none" points="1040.00,341.19 1040.00,301.09" stroke-width="0.72" stroke="black" />
<polyline fill="none" points="1047.30,308.91 1047.30,250.60" stroke-width="0.72" stroke="black" />
<polyline fill="none" points="1054.60,340.56 1054.60,303.30" stroke-width="0.72" stroke="black" />
<polyline fill="none" points="1061.90,338.71 1061.90,298.69" stroke-width="0.72" stroke="black" />
<polyline fill="none" points="1069.20,334.83 1069.20,296.36" stroke-width="0.72" stroke="black" />
<g stroke="#0008">
<line x1="10.80" x2="10.80" y1="356.40" y2="366.40" />
<line x1="543.65" x2="543.65" y1="356.40" y2="366.40" />
<g fill="black" font-family="Arial, sans-serif" font-size="36.0" stroke="none" text-anchor="start" transform="translate(18.0 0.0)">
<text x="10.80" y="397.54">2011</text>
<text x="543.65" y="397.54">2012</text>
</g>
<line x1="10.80" x2="1069.20" y1="356.40" y2="356.40" />
</g>
</g>
</svg>