<?xml version="1.0"?>
<svg height="360.0" version="1.1" viewBox="0 0 1080.0 360" width="1080.0" xmlns:xlink="http://www.w3.org/1999/xlink" xmlns="http://www.w3.org/2000/svg">
<g>
<g stroke-dasharray="3.6 7.2" stroke-width="0.72" stroke="#caa">
<line x1="75.60" x2="75.60" y1="334.80" y2="25.20" />
<line x1="168.61" x2="168.61" y1="334.80" y2="25.20" />
<line x1="261.61" x2="261.61" y1="334.80" y2="25.20" />
<line x1="354.62" x2="354.62" y1="334.80" y2="25.20" />
<line x1="447.63" x2="447.63" y1="334.80" y2="25.20" />
<line x1="540.64" x2="540.64" y1="334.80" y2="25.20" />
<line x1="633.64" x2="633.64" y1="334.80" y2="25.20" />
<line x1="726.65" x2="726.65" y1="334.80" y2="25.20" />
<line x1="819.66" x2="819.66" y1="334.80" y2="25.20" />
<line x1="912.67" x2="912.67" y1="334.80" y2="25.20" />
</g>
<g fill="none" stroke-width="0.7397260273972602" stroke="#00aa88">
<line x1="75.60" x2="75.60" y1="334.80" y2="334.80" />
<line x1="76.87" x2="76.87" y1="334.80" y2="334.80" />
<line x1="78.15" x2="78.15" y1="332.85" y2="334.80" />
<line x1="79.42" x2="79.42" y1="334.80" y2="334.80" />
<line x1="80.70" x2="80.70" y1="334.80" y2="334.80" />
<line x1="81.97" x2="81.97" y1="334.80" y2="334.80" />
<line x1="83.24" x2="83.24" y1="334.80" y2="334.80" />
<line x1="84.52" x2="84.52" y1="334.80" y2="334.80" />
<line x1="85.79" x2="85.79" y1="334.80" y2="334.80" />
<line x1="87.07" x2="87.07" y1="333.82" y2="334.80" />
<line x1="88.34" x2="88.34" y1="334.80" y2="334.80" />
<line x1="89.61" x2="89.61" y1="329.36" y2="334.80" />
<line x1="90.89" x2="90.89" y1="331.26" y2="334.80" />
<line x1="92.16" x2="92.16" y1="334.80" y2="334.80" />
<line x1="93.44" x2="93.44" y1="323.74" y2="334.80" />
<line x1="94.71" x2="94.71" y1="334.80" y2="334.80" />
<line x1="95.99" x2="95.99" y1="334.80" y2="334.80" />
<line x1="97.26" x2="97.26" y1="334.80" y2="334.80" />
<line x1="98.53" x2="98.53" y1="334.80" y2="334.80" />
<line x1="99.81" x2="99.81" y1="330.72" y2="334.80" />
<line x1="101.08" x2="101.08" y1="332.03" y2="334.80" />
<line x1="102.36" x2="102.36" y1="334.80" y2="334.80" />
<line x1="103.63" x2="103.63" y1="330.91" y2="334.80" />
<line x1="104.90" x2="104.90" y1="324.92" y2="334.80" />
<line x1="106.18" x2="106.18" y1="334.80" y2="334.80" />
<line x1="107.45" x2="107.45" y1="313.76" y2="334.80" />
<line x1="108.73" x2="108.73" y1="329.74" y2="334.80" />
<line x1="110.00" x2="110.00" y1="334.80" y2="334.80" />
<line x1="111.27" x2="111.27" y1="326.73" y2="334.80" />
<line x1="112.55" x2="112.55" y1="324.40" y2="334.80" />
<line x1="113.82" x2="113.82" y1="321.77" y2="334.80" />
<line x1="115.10" x2="115.10" y1="316.32" y2="334.80" />
<line x1="116.37" x2="116.37" y1="309.79" y2="334.80" />
<line x1="117.64" x2="117.64" y1="306.68" y2="334.80" />
<line x1="118.92" x2="118.92" y1="331.68" y2="334.80" />
<line x1="120.19" x2="120.19" y1="334.80" y2="334.80" />
<line x1="121.47" x2="121.47" y1="311.71" y2="334.80" />
<line x1="122.74" x2="122.74" y1="326.44" y2="334.80" />
<line x1="124.01" x2="124.01" y1="313.21" y2="334.80" />
<line x1="125.29" x2="125.29" y1="318.76" y2="334.80" />
<line x1="126.56" x2="126.56" y1="308.16" y2="334.80" />
<line x1="127.84" x2="127.84" y1="307.10" y2="334.80" />
<line x1="129.11" x2="129.11" y1="316.46" y2="334.80" />
<line x1="130.39" x2="130.39" y1="331.51" y2="334.80" />
<line x1="131.66" x2="131.66" y1="319.53" y2="334.80" />
<line x1="132.93" x2="132.93" y1="318.95" y2="334.80" />
<line x1="134.21" x2="134.21" y1="334.80" y2="334.80" />
<line x1="135.48" x2="135.48" y1="294.98" y2="334.80" />
<line x1="136.76" x2="136.76" y1="316.52" y2="334.80" />
<line x1="138.03" x2="138.03" y1="324.93" y2="334.80" />
<line x1="139.30" x2="139.30" y1="306.31" y2="334.80" />
<line x1="140.58" x2="140.58" y1="325.07" y2="334.80" />
<line x1="141.85" x2="141.85" y1="299.06" y2="334.80" />
<line x1="143.13" x2="143.13" y1="320.10" y2="334.80" />
<line x1="144.40" x2="144.40" y1="327.98" y2="334.80" />
<line x1="145.67" x2="145.67" y1="334.80" y2="334.80" />
<line x1="146.95" x2="146.95" y1="326.02" y2="334.80" />
<line x1="148.22" x2="148.22" y1="327.81" y2="334.80" />
<line x1="149.50" x2="149.50" y1="334.80" y2="334.80" />
<line x1="150.77" x2="150.77" y1="334.80" y2="334.80" />
<line x1="152.04" x2="152.04" y1="334.80" y2="334.80" />
<line x1="153.32" x2="153.32" y1="334.80" y2="334.80" />
<line x1="154.59" x2="154.59" y1="334.80" y2="334.80" />
<line x1="155.87" x2="155.87" y1="334.80" y2="334.80" />
<line x1="157.14" x2="157.14" y1="334.80" y2="334.80" />
<line x1="158.41" x2="158.41" y1="334.80" y2="334.80" />
<line x1="159.69" x2="159.69" y1="334.80" y2="334.80" />
<line x1="160.96" x2="160.96" y1="334.80" y2="334.80" />
<line x1="162.24" x2="162.24" y1="334.80" y2="334.80" />
<line x1="163.51" x2="163.51" y1="334.80" y2="334.80" />
<line x1="164.79" x2="164.79" y1="334.80" y2="334.80" />
<line x1="166.06" x2="166.06" y1="334.80" y2="334.80" />
<line x1="167.33" x2="167.33" y1="334.80" y2="334.80" />
<line x1="168.61" x2="168.61" y1="334.80" y2="334.80" />
<line x1="169.88" x2="169.88" y1="334.80" y2="334.80" />
<line x1="171.16" x2="171.16" y1="334.80" y2="334.80" />
<line x1="172.43" x2="172.43" y1="334.80" y2="334.80" />
<line x1="173.70" x2="173.70" y1="332.38" y2="334.80" />
<line x1="174.98" x2="174.98" y1="334.80" y2="334.80" />
<line x1="176.25" x2="176.25" y1="330.84" y2="334.80" />
<line x1="177.53" x2="177.53" y1="333.24" y2="334.80" />
<line x1="178.80" x2="178.80" y1="334.80" y2="334.80" />
<line x1="180.07" x2="180.07" y1="334.80" y2="334.80" />
<line x1="181.35" x2="181.35" y1="334.80" y2="334.80" />
<line x1="182.62" x2="182.62" y1="334.80" y2="334.80" />
<line x1="183.90" x2="183.90" y1="334.80" y2="334.80" />
<line x1="185.17" x2="185.17" y1="334.80" y2="334.80" />
<line x1="186.44" x2="186.44" y1="332.06" y2="334.80" />
<line x1="187.72" x2="187.72" y1="334.80" y2="334.80" />
<line x1="188.99" x2="188.99" y1="334.80" y2="334.80" />
<line x1="190.27" x2="190.27" y1="334.80" y2="334.80" />
<line x1="191.54" x2="191.54" y1="334.80" y2="334.80" />
<line x1="192.81" x2="192.81" y1="334.80" y2="334.80" />
<line x1="194.09" x2="194.09" y1="334.80" y2="334.80" />
<line x1="195.36" x2="195.36" y1="334.80" y2="334.80" />
<line x1="196.64" x2="196.64" y1="334.80" y2="334.80" />
<line x1="197.91" x2="197.91" y1="334.80" y2="334.80" />
<line x1="199.19" x2="199.19" y1="311.72" y2="334.80" />
<line x1="200.46" x2="200.46" y1="324.55" y2="334.80" />
<line x1="201.73" x2="201.73" y1="329.04" y2="334.80" />
<line x1="203.01" x2="203.01" y1="323.62" y2="334.80" />
<line x1="204.28" x2="204.28" y1="322.38" y2="334.80" />
<line x1="205.56" x2="205.56" y1="298.73" y2="334.80" />
<line x1="206.83" x2="206.83" y1="293.42" y2="334.80" />
<line x1="208.10" x2="208.10" y1="305.21" y2="334.80" />
<line x1="209.38" x2="209.38" y1="332.46" y2="334.80" />
<line x1="210.65" x2="210.65" y1="321.98" y2="334.80" />
<line x1="211.93" x2="211.93" y1="334.80" y2="334.80" />
<line x1="213.20" x2="213.20" y1="310.11" y2="334.80" />
<line x1="214.47" x2="214.47" y1="313.19" y2="334.80" />
<line x1="215.75" x2="215.75" y1="310.50" y2="334.80" />
<line x1="217.02" x2="217.02" y1="315.24" y2="334.80" />
<line x1="218.30" x2="218.30" y1="311.18" y2="334.80" />
<line x1="219.57" x2="219.57" y1="330.42" y2="334.80" />
<line x1="220.84" x2="220.84" y1="310.71" y2="334.80" />
<line x1="222.12" x2="222.12" y1="325.90" y2="334.80" />
<line x1="223.39" x2="223.39" y1="327.84" y2="334.80" />
<line x1="224.67" x2="224.67" y1="328.27" y2="334.80" />
<line x1="225.94" x2="225.94" y1="320.26" y2="334.80" />
<line x1="227.21" x2="227.21" y1="309.83" y2="334.80" />
<line x1="228.49" x2="228.49" y1="304.78" y2="334.80" />
<line x1="229.76" x2="229.76" y1="298.86" y2="334.80" />
<line x1="231.04" x2="231.04" y1="311.53" y2="334.80" />
<line x1="232.31" x2="232.31" y1="325.40" y2="334.80" />
<line x1="233.59" x2="233.59" y1="301.98" y2="334.80" />
<line x1="234.86" x2="234.86" y1="326.86" y2="334.80" />
<line x1="236.13" x2="236.13" y1="318.42" y2="334.80" />
<line x1="237.41" x2="237.41" y1="321.76" y2="334.80" />
<line x1="238.68" x2="238.68" y1="325.01" y2="334.80" />
<line x1="239.96" x2="239.96" y1="328.52" y2="334.80" />
<line x1="241.23" x2="241.23" y1="334.80" y2="334.80" />
<line x1="242.50" x2="242.50" y1="334.80" y2="334.80" />
<line x1="243.78" x2="243.78" y1="334.80" y2="334.80" />
<line x1="245.05" x2="245.05" y1="334.80" y2="334.80" />
<line x1="246.33" x2="246.33" y1="334.80" y2="334.80" />
<line x1="247.60" x2="247.60" y1="334.80" y2="334.80" />
<line x1="248.87" x2="248.87" y1="331.31" y2="334.80" />
<line x1="250.15" x2="250.15" y1="334.80" y2="334.80" />
<line x1="251.42" x2="251.42" y1="334.80" y2="334.80" />
<line x1="252.70" x2="252.70" y1="334.80" y2="334.80" />
<line x1="253.97" x2="253.97" y1="334.80" y2="334.80" />
<line x1="255.24" x2="255.24" y1="334.80" y2="334.80" />
<line x1="256.52" x2="256.52" y1="334.80" y2="334.80" />
<line x1="257.79" x2="257.79" y1="334.80" y2="334.80" />
<line x1="259.07" x2="259.07" y1="334.80" y2="334.80" />
<line x1="260.34" x2="260.34" y1="334.80" y2="334.80" />
<line x1="261.61" x2="261.61" y1="334.80" y2="334.80" />
<line x1="262.89" x2="262.89" y1="334.80" y2="334.80" />
<line x1="264.16" x2="264.16" y1="334.80" y2="334.80" />
<line x1="265.44" x2="265.44" y1="334.80" y2="334.80" />
<line x1="266.71" x2="266.71" y1="334.80" y2="334.80" />
<line x1="267.99" x2="267.99" y1="334.80" y2="334.80" />
<line x1="269.26" x2="269.26" y1="334.80" y2="334.80" />
<line x1="270.53" x2="270.53" y1="333.65" y2="334.80" />
<line x1="271.81" x2="271.81" y1="334.80" y2="334.80" />
<line x1="273.08" x2="273.08" y1="327.06" y2="334.80" />
<line x1="274.36" x2="274.36" y1="334.80" y2="334.80" />
<line x1="275.63" x2="275.63" y1="334.80" y2="334.80" />
<line x1="276.90" x2="276.90" y1="334.80" y2="334.80" />
<line x1="278.18" x2="278.18" y1="334.43" y2="334.80" />
<line x1="279.45" x2="279.45" y1="334.80" y2="334.80" />
<line x1="280.73" x2="280.73" y1="334.33" y2="334.80" />
<line x1="282.00" x2="282.00" y1="334.80" y2="334.80" />
<line x1="283.27" x2="283.27" y1="334.80" y2="334.80" />
<line x1="284.55" x2="284.55" y1="334.80" y2="334.80" />
<line x1="285.82" x2="285.82" y1="334.80" y2="334.80" />
<line x1="287.10" x2="287.10" y1="334.80" y2="334.80" />
<line x1="288.37" x2="288.37" y1="334.80" y2="334.80" />
<line x1="289.64" x2="289.64" y1="328.62" y2="334.80" />
<line x1="290.92" x2="290.92" y1="334.80" y2="334.80" />
<line x1="292.19" x2="292.19" y1="334.80" y2="334.80" />
<line x1="293.47" x2="293.47" y1="334.80" y2="334.80" />
<line x1="294.74" x2="294.74" y1="326.23" y2="334.80" />
<line x1="296.01" x2="296.01" y1="312.03" y2="334.80" />
<line x1="297.29" x2="297.29" y1="320.70" y2="334.80" />
<line x1="298.56" x2="298.56" y1="318.23" y2="334.80" />
<line x1="299.84" x2="299.84" y1="314.11" y2="334.80" />
<line x1="301.11" x2="301.11" y1="325.49" y2="334.80" />
<line x1="302.39" x2="302.39" y1="274.63" y2="334.80" />
<line x1="303.66" x2="303.66" y1="314.57" y2="334.80" />
<line x1="304.93" x2="304.93" y1="313.23" y2="334.80" />
<line x1="306.21" x2="306.21" y1="309.14" y2="334.80" />
<line x1="307.48" x2="307.48" y1="313.28" y2="334.80" />
<line x1="308.76" x2="308.76" y1="314.87" y2="334.80" />
<line x1="310.03" x2="310.03" y1="305.29" y2="334.80" />
<line x1="311.30" x2="311.30" y1="296.53" y2="334.80" />
<line x1="312.58" x2="312.58" y1="291.66" y2="334.80" />
<line x1="313.85" x2="313.85" y1="328.04" y2="334.80" />
<line x1="315.13" x2="315.13" y1="279.87" y2="334.80" />
<line x1="316.40" x2="316.40" y1="334.80" y2="334.80" />
<line x1="317.67" x2="317.67" y1="323.60" y2="334.80" />
<line x1="318.95" x2="318.95" y1="328.01" y2="334.80" />
<line x1="320.22" x2="320.22" y1="313.79" y2="334.80" />
<line x1="321.50" x2="321.50" y1="334.80" y2="334.80" />
<line x1="322.77" x2="322.77" y1="334.80" y2="334.80" />
<line x1="324.04" x2="324.04" y1="334.80" y2="334.80" />
<line x1="325.32" x2="325.32" y1="318.45" y2="334.80" />
<line x1="326.59" x2="326.59" y1="310.84" y2="334.80" />
<line x1="327.87" x2="327.87" y1="282.12" y2="334.80" />
<line x1="329.14" x2="329.14" y1="321.17" y2="334.80" />
<line x1="330.41" x2="330.41" y1="324.62" y2="334.80" />
<line x1="331.69" x2="331.69" y1="287.27" y2="334.80" />
<line x1="332.96" x2="332.96" y1="326.23" y2="334.80" />
<line x1="334.24" x2="334.24" y1="334.80" y2="334.80" />
<line x1="335.51" x2="335.51" y1="334.80" y2="334.80" />
<line x1="336.79" x2="336.79" y1="334.80" y2="334.80" />
<line x1="338.06" x2="338.06" y1="334.80" y2="334.80" />
<line x1="339.33" x2="339.33" y1="334.80" y2="334.80" />
<line x1="340.61" x2="340.61" y1="334.80" y2="334.80" />
<line x1="341.88" x2="341.88" y1="334.80" y2="334.80" />
<line x1="343.16" x2="343.16" y1="334.80" y2="334.80" />
<line x1="344.43" x2="344.43" y1="334.80" y2="334.80" />
<line x1="345.70" x2="345.70" y1="334.80" y2="334.80" />
<line x1="346.98" x2="346.98" y1="334.80" y2="334.80" />
<line x1="348.25" x2="348.25" y1="334.80" y2="334.80" />
<line x1="349.53" x2="349.53" y1="334.80" y2="334.80" />
<line x1="350.80" x2="350.80" y1="334.80" y2="334.80" />
<line x1="352.07" x2="352.07" y1="334.80" y2="334.80" />
<line x1="353.35" x2="353.35" y1="334.80" y2="334.80" />
<line x1="354.62" x2="354.62" y1="334.80" y2="334.80" />
<line x1="355.90" x2="355.90" y1="334.80" y2="334.80" />
<line x1="357.17" x2="357.17" y1="334.80" y2="334.80" />
<line x1="358.44" x2="358.44" y1="334.80" y2="334.80" />
<line x1="359.72" x2="359.72" y1="334.80" y2="334.80" />
<line x1="360.99" x2="360.99" y1="334.80" y2="334.80" />
<line x1="362.27" x2="362.27" y1="334.80" y2="334.80" />
<line x1="363.54" x2="363.54" y1="334.80" y2="334.80" />
<line x1="364.81" x2="364.81" y1="334.80" y2="334.80" />
<line x1="366.09" x2="366.09" y1="334.80" y2="334.80" />
<line x1="367.36" x2="367.36" y1="334.80" y2="334.80" />
<line x1="368.64" x2="368.64" y1="334.77" y2="334.80" />
<line x1="369.91" x2="369.91" y1="334.80" y2="334.80" />
<line x1="371.19" x2="371.19" y1="334.80" y2="334.80" />
<line x1="372.46" x2="372.46" y1="334.80" y2="334.80" />
<line x1="373.73" x2="373.73" y1="333.77" y2="334.80" />
<line x1="375.01" x2="375.01" y1="331.39" y2="334.80" />
<line x1="376.28" x2="376.28" y1="334.80" y2="334.80" />
<line x1="377.56" x2="377.56" y1="334.80" y2="334.80" />
<line x1="378.83" x2="378.83" y1="334.80" y2="334.80" />
<line x1="380.10" x2="380.10" y1="332.32" y2="334.80" />
<line x1="381.38" x2="381.38" y1="330.43" y2="334.80" />
<line x1="382.65" x2="382.65" y1="330.20" y2="334.80" />
<line x1="383.93" x2="383.93" y1="334.80" y2="334.80" />
<line x1="385.20" x2="385.20" y1="334.80" y2="334.80" />
<line x1="386.47" x2="386.47" y1="334.80" y2="334.80" />
<line x1="387.75" x2="387.75" y1="321.71" y2="334.80" />
<line x1="389.02" x2="389.02" y1="321.68" y2="334.80" />
<line x1="390.30" x2="390.30" y1="334.80" y2="334.80" />
<line x1="391.57" x2="391.57" y1="334.80" y2="334.80" />
<line x1="392.84" x2="392.84" y1="334.80" y2="334.80" />
<line x1="394.12" x2="394.12" y1="307.89" y2="334.80" />
<line x1="395.39" x2="395.39" y1="296.74" y2="334.80" />
<line x1="396.67" x2="396.67" y1="310.21" y2="334.80" />
<line x1="397.94" x2="397.94" y1="313.50" y2="334.80" />
<line x1="399.21" x2="399.21" y1="328.98" y2="334.80" />
<line x1="400.49" x2="400.49" y1="323.07" y2="334.80" />
<line x1="401.76" x2="401.76" y1="306.69" y2="334.80" />
<line x1="403.04" x2="403.04" y1="306.71" y2="334.80" />
<line x1="404.31" x2="404.31" y1="302.33" y2="334.80" />
<line x1="405.59" x2="405.59" y1="310.15" y2="334.80" />
<line x1="406.86" x2="406.86" y1="321.92" y2="334.80" />
<line x1="408.13" x2="408.13" y1="328.25" y2="334.80" />
<line x1="409.41" x2="409.41" y1="298.58" y2="334.80" />
<line x1="410.68" x2="410.68" y1="334.80" y2="334.80" />
<line x1="411.96" x2="411.96" y1="334.80" y2="334.80" />
<line x1="413.23" x2="413.23" y1="334.80" y2="334.80" />
<line x1="414.50" x2="414.50" y1="311.71" y2="334.80" />
<line x1="415.78" x2="415.78" y1="318.75" y2="334.80" />
<line x1="417.05" x2="417.05" y1="314.72" y2="334.80" />
<line x1="418.33" x2="418.33" y1="315.49" y2="334.80" />
<line x1="419.60" x2="419.60" y1="305.70" y2="334.80" />
<line x1="420.87" x2="420.87" y1="334.80" y2="334.80" />
<line x1="422.15" x2="422.15" y1="334.80" y2="334.80" />
<line x1="423.42" x2="423.42" y1="324.28" y2="334.80" />
<line x1="424.70" x2="424.70" y1="334.80" y2="334.80" />
<line x1="425.97" x2="425.97" y1="326.11" y2="334.80" />
<line x1="427.24" x2="427.24" y1="334.80" y2="334.80" />
<line x1="428.52" x2="428.52" y1="334.80" y2="334.80" />
<line x1="429.79" x2="429.79" y1="334.80" y2="334.80" />
<line x1="431.07" x2="431.07" y1="334.80" y2="334.80" />
<line x1="432.34" x2="432.34" y1="322.48" y2="334.80" />
<line x1="433.61" x2="433.61" y1="334.80" y2="334.80" />
<line x1="434.89" x2="434.89" y1="334.80" y2="334.80" />
<line x1="436.16" x2="436.16" y1="334.80" y2="334.80" />
<line x1="437.44" x2="437.44" y1="334.80" y2="334.80" />
<line x1="438.71" x2="438.71" y1="334.80" y2="334.80" />
<line x1="439.99" x2="439.99" y1="334.80" y2="334.80" />
<line x1="441.26" x2="441.26" y1="334.80" y2="334.80" />
<line x1="442.53" x2="442.53" y1="334.80" y2="334.80" />
<line x1="443.81" x2="443.81" y1="334.80" y2="334.80" />
<line x1="445.08" x2="445.08" y1="334.80" y2="334.80" />
<line x1="446.36" x2="446.36" y1="334.80" y2="334.80" />
<line x1="447.63" x2="447.63" y1="334.80" y2="334.80" />
<line x1="448.90" x2="448.90" y1="330.31" y2="334.80" />
<line x1="450.18" x2="450.18" y1="334.80" y2="334.80" />
<line x1="451.45" x2="451.45" y1="334.80" y2="334.80" />
<line x1="452.73" x2="452.73" y1="334.80" y2="334.80" />
<line x1="454.00" x2="454.00" y1="334.80" y2="334.80" />
<line x1="455.27" x2="455.27" y1="334.80" y2="334.80" />
<line x1="456.55" x2="456.55" y1="334.80" y2="334.80" />
<line x1="457.82" x2="457.82" y1="334.58" y2="334.80" />
<line x1="459.10" x2="459.10" y1="334.80" y2="334.80" />
<line x1="460.37" x2="460.37" y1="334.44" y2="334.80" />
<line x1="461.64" x2="461.64" y1="334.80" y2="334.80" />
<line x1="462.92" x2="462.92" y1="332.87" y2="334.80" />
<line x1="464.19" x2="464.19" y1="334.80" y2="334.80" />
<line x1="465.47" x2="465.47" y1="334.67" y2="334.80" />
<line x1="466.74" x2="466.74" y1="334.80" y2="334.80" />
<line x1="468.01" x2="468.01" y1="331.85" y2="334.80" />
<line x1="469.29" x2="469.29" y1="334.80" y2="334.80" />
<line x1="470.56" x2="470.56" y1="334.80" y2="334.80" />
<line x1="471.84" x2="471.84" y1="334.80" y2="334.80" />
<line x1="473.11" x2="473.11" y1="334.80" y2="334.80" />
<line x1="474.39" x2="474.39" y1="334.80" y2="334.80" />
<line x1="475.66" x2="475.66" y1="334.80" y2="334.80" />
<line x1="476.93" x2="476.93" y1="334.80" y2="334.80" />
<line x1="478.21" x2="478.21" y1="334.80" y2="334.80" />
<line x1="479.48" x2="479.48" y1="334.80" y2="334.80" />
<line x1="480.76" x2="480.76" y1="317.94" y2="334.80" />
<line x1="482.03" x2="482.03" y1="322.54" y2="334.80" />
<line x1="483.30" x2="483.30" y1="314.69" y2="334.80" />
<line x1="484.58" x2="484.58" y1="324.60" y2="334.80" />
<line x1="485.85" x2="485.85" y1="334.80" y2="334.80" />
<line x1="487.13" x2="487.13" y1="334.80" y2="334.80" />
<line x1="488.40" x2="488.40" y1="322.93" y2="334.80" />
<line x1="489.67" x2="489.67" y1="296.59" y2="334.80" />
<line x1="490.95" x2="490.95" y1="296.89" y2="334.80" />
<line x1="492.22" x2="492.22" y1="288.30" y2="334.80" />
<line x1="493.50" x2="493.50" y1="324.52" y2="334.80" />
<line x1="494.77" x2="494.77" y1="324.67" y2="334.80" />
<line x1="496.04" x2="496.04" y1="319.64" y2="334.80" />
<line x1="497.32" x2="497.32" y1="307.08" y2="334.80" />
<line x1="498.59" x2="498.59" y1="326.64" y2="334.80" />
<line x1="499.87" x2="499.87" y1="334.80" y2="334.80" />
<line x1="501.14" x2="501.14" y1="315.38" y2="334.80" />
<line x1="502.41" x2="502.41" y1="300.39" y2="334.80" />
<line x1="503.69" x2="503.69" y1="309.51" y2="334.80" />
<line x1="504.96" x2="504.96" y1="334.80" y2="334.80" />
<line x1="506.24" x2="506.24" y1="303.43" y2="334.80" />
<line x1="507.51" x2="507.51" y1="316.75" y2="334.80" />
<line x1="508.79" x2="508.79" y1="325.70" y2="334.80" />
<line x1="510.06" x2="510.06" y1="334.80" y2="334.80" />
<line x1="511.33" x2="511.33" y1="312.39" y2="334.80" />
<line x1="512.61" x2="512.61" y1="287.48" y2="334.80" />
<line x1="513.88" x2="513.88" y1="334.80" y2="334.80" />
<line x1="515.16" x2="515.16" y1="308.82" y2="334.80" />
<line x1="516.43" x2="516.43" y1="325.30" y2="334.80" />
<line x1="517.70" x2="517.70" y1="323.19" y2="334.80" />
<line x1="518.98" x2="518.98" y1="334.80" y2="334.80" />
<line x1="520.25" x2="520.25" y1="334.80" y2="334.80" />
<line x1="521.53" x2="521.53" y1="334.80" y2="334.80" />
<line x1="522.80" x2="522.80" y1="334.80" y2="334.80" />
<line x1="524.07" x2="524.07" y1="334.80" y2="334.80" />
<line x1="525.35" x2="525.35" y1="334.80" y2="334.80" />
<line x1="526.62" x2="526.62" y1="334.80" y2="334.80" />
<line x1="527.90" x2="527.90" y1="334.80" y2="334.80" />
<line x1="529.17" x2="529.17" y1="334.80" y2="334.80" />
<line x1="530.44" x2="530.44" y1="334.80" y2="334.80" />
<line x1="531.72" x2="531.72" y1="334.80" y2="334.80" />
<line x1="532.99" x2="532.99" y1="334.80" y2="334.80" />
<line x1="534.27" x2="534.27" y1="334.80" y2="334.80" />
<line x1="535.54" x2="535.54" y1="334.80" y2="334.80" />
<line x1="536.81" x2="536.81" y1="334.80" y2="334.80" />
<line x1="538.09" x2="538.09" y1="334.80" y2="334.80" />
<line x1="539.36" x2="539.36" y1="334.66" y2="334.80" />
<line x1="540.64" x2="540.64" y1="334.80" y2="334.80" />
<line x1="541.91" x2="541.91" y1="334.71" y2="334.80" />
<line x1="543.19" x2="543.19" y1="334.80" y2="334.80" />
<line x1="544.46" x2="544.46" y1="334.80" y2="334.80" />
<line x1="545.73" x2="545.73" y1="334.80" y2="334.80" />
<line x1="547.01" x2="547.01" y1="334.80" y2="334.80" />
<line x1="548.28" x2="548.28" y1="334.80" y2="334.80" />
<line x1="549.56" x2="549.56" y1="334.80" y2="334.80" />
<line x1="550.83" x2="550.83" y1="334.80" y2="334.80" />
<line x1="552.10" x2="552.10" y1="334.80" y2="334.80" />
<line x1="553.38" x2="553.38" y1="334.55" y2="334.80" />
<line x1="554.65" x2="554.65" y1="334.80" y2="334.80" />
<line x1="555.93" x2="555.93" y1="334.80" y2="334.80" />
<line x1="557.20" x2="557.20" y1="334.80" y2="334.80" />
<line x1="558.47" x2="558.47" y1="334.80" y2="334.80" />
<line x1="559.75" x2="559.75" y1="334.78" y2="334.80" />
<line x1="561.02" x2="561.02" y1="334.80" y2="334.80" />
<line x1="562.30" x2="562.30" y1="328.09" y2="334.80" />
<line x1="563.57" x2="563.57" y1="334.80" y2="334.80" />
<line x1="564.84" x2="564.84" y1="334.80" y2="334.80" />
<line x1="566.12" x2="566.12" y1="334.80" y2="334.80" />
<line x1="567.39" x2="567.39" y1="334.80" y2="334.80" />
<line x1="568.67" x2="568.67" y1="334.80" y2="334.80" />
<line x1="569.94" x2="569.94" y1="334.80" y2="334.80" />
<line x1="571.21" x2="571.21" y1="334.80" y2="334.80" />
<line x1="572.49" x2="572.49" y1="334.80" y2="334.80" />
<line x1="573.76" x2="573.76" y1="334.80" y2="334.80" />
<line x1="575.04" x2="575.04" y1="318.81" y2="334.80" />
<line x1="576.31" x2="576.31" y1="253.71" y2="334.80" />
<line x1="577.59" x2="577.59" y1="312.30" y2="334.80" />
<line x1="578.86" x2="578.86" y1="322.50" y2="334.80" />
<line x1="580.13" x2="580.13" y1="331.78" y2="334.80" />
<line x1="581.41" x2="581.41" y1="319.59" y2="334.80" />
<line x1="582.68" x2="582.68" y1="323.32" y2="334.80" />
<line x1="583.96" x2="583.96" y1="310.81" y2="334.80" />
<line x1="585.23" x2="585.23" y1="296.12" y2="334.80" />
<line x1="586.50" x2="586.50" y1="326.45" y2="334.80" />
<line x1="587.78" x2="587.78" y1="300.44" y2="334.80" />
<line x1="589.05" x2="589.05" y1="321.44" y2="334.80" />
<line x1="590.33" x2="590.33" y1="334.80" y2="334.80" />
<line x1="591.60" x2="591.60" y1="334.80" y2="334.80" />
<line x1="592.87" x2="592.87" y1="308.89" y2="334.80" />
<line x1="594.15" x2="594.15" y1="307.42" y2="334.80" />
<line x1="595.42" x2="595.42" y1="309.67" y2="334.80" />
<line x1="596.70" x2="596.70" y1="323.61" y2="334.80" />
<line x1="597.97" x2="597.97" y1="332.55" y2="334.80" />
<line x1="599.24" x2="599.24" y1="334.80" y2="334.80" />
<line x1="600.52" x2="600.52" y1="334.80" y2="334.80" />
<line x1="601.79" x2="601.79" y1="309.82" y2="334.80" />
<line x1="603.07" x2="603.07" y1="301.88" y2="334.80" />
<line x1="604.34" x2="604.34" y1="318.25" y2="334.80" />
<line x1="605.61" x2="605.61" y1="319.44" y2="334.80" />
<line x1="606.89" x2="606.89" y1="303.11" y2="334.80" />
<line x1="608.16" x2="608.16" y1="316.25" y2="334.80" />
<line x1="609.44" x2="609.44" y1="316.32" y2="334.80" />
<line x1="610.71" x2="610.71" y1="320.70" y2="334.80" />
<line x1="611.99" x2="611.99" y1="323.31" y2="334.80" />
<line x1="613.26" x2="613.26" y1="323.10" y2="334.80" />
<line x1="614.53" x2="614.53" y1="298.85" y2="334.80" />
<line x1="615.81" x2="615.81" y1="327.60" y2="334.80" />
<line x1="617.08" x2="617.08" y1="334.80" y2="334.80" />
<line x1="618.36" x2="618.36" y1="334.80" y2="334.80" />
<line x1="619.63" x2="619.63" y1="329.71" y2="334.80" />
<line x1="620.90" x2="620.90" y1="334.80" y2="334.80" />
<line x1="622.18" x2="622.18" y1="334.80" y2="334.80" />
<line x1="623.45" x2="623.45" y1="334.80" y2="334.80" />
<line x1="624.73" x2="624.73" y1="334.80" y2="334.80" />
<line x1="626.00" x2="626.00" y1="334.80" y2="334.80" />
<line x1="627.27" x2="627.27" y1="334.80" y2="334.80" />
<line x1="628.55" x2="628.55" y1="334.80" y2="334.80" />
<line x1="629.82" x2="629.82" y1="334.80" y2="334.80" />
<line x1="631.10" x2="631.10" y1="334.80" y2="334.80" />
<line x1="632.37" x2="632.37" y1="334.80" y2="334.80" />
<line x1="633.64" x2="633.64" y1="334.80" y2="334.80" />
<line x1="634.92" x2="634.92" y1="334.80" y2="334.80" />
<line x1="636.19" x2="636.19" y1="331.65" y2="334.80" />
<line x1="637.47" x2="637.47" y1="334.80" y2="334.80" />
<line x1="638.74" x2="638.74" y1="334.80" y2="334.80" />
<line x1="640.01" x2="640.01" y1="334.80" y2="334.80" />
<line x1="641.29" x2="641.29" y1="334.80" y2="334.80" />
<line x1="642.56" x2="642.56" y1="334.80" y2="334.80" />
<line x1="643.84" x2="643.84" y1="334.80" y2="334.80" />
<line x1="645.11" x2="645.11" y1="334.80" y2="334.80" />
<line x1="646.39" x2="646.39" y1="334.80" y2="334.80" />
<line x1="647.66" x2="647.66" y1="334.80" y2="334.80" />
<line x1="648.93" x2="648.93" y1="334.80" y2="334.80" />
<line x1="650.21" x2="650.21" y1="334.80" y2="334.80" />
<line x1="651.48" x2="651.48" y1="334.80" y2="334.80" />
<line x1="652.76" x2="652.76" y1="334.80" y2="334.80" />
<line x1="654.03" x2="654.03" y1="334.80" y2="334.80" />
<line x1="655.30" x2="655.30" y1="334.80" y2="334.80" />
<line x1="656.58" x2="656.58" y1="334.80" y2="334.80" />
<line x1="657.85" x2="657.85" y1="334.80" y2="334.80" />
<line x1="659.13" x2="659.13" y1="334.80" y2="334.80" />
<line x1="660.40" x2="660.40" y1="323.89" y2="334.80" />
<line x1="661.67" x2="661.67" y1="334.80" y2="334.80" />
<line x1="662.95" x2="662.95" y1="334.80" y2="334.80" />
<line x1="664.22" x2="664.22" y1="334.80" y2="334.80" />
<line x1="665.50" x2="665.50" y1="334.80" y2="334.80" />
<line x1="666.77" x2="666.77" y1="324.12" y2="334.80" />
<line x1="668.04" x2="668.04" y1="310.22" y2="334.80" />
<line x1="669.32" x2="669.32" y1="323.07" y2="334.80" />
<line x1="670.59" x2="670.59" y1="271.10" y2="334.80" />
<line x1="671.87" x2="671.87" y1="319.73" y2="334.80" />
<line x1="673.14" x2="673.14" y1="315.06" y2="334.80" />
<line x1="674.41" x2="674.41" y1="334.80" y2="334.80" />
<line x1="675.69" x2="675.69" y1="334.80" y2="334.80" />
<line x1="676.96" x2="676.96" y1="311.32" y2="334.80" />
<line x1="678.24" x2="678.24" y1="315.04" y2="334.80" />
<line x1="679.51" x2="679.51" y1="321.93" y2="334.80" />
<line x1="680.79" x2="680.79" y1="314.31" y2="334.80" />
<line x1="682.06" x2="682.06" y1="310.10" y2="334.80" />
<line x1="683.33" x2="683.33" y1="307.65" y2="334.80" />
<line x1="684.61" x2="684.61" y1="311.58" y2="334.80" />
<line x1="685.88" x2="685.88" y1="300.14" y2="334.80" />
<line x1="687.16" x2="687.16" y1="330.42" y2="334.80" />
<line x1="688.43" x2="688.43" y1="320.03" y2="334.80" />
<line x1="689.70" x2="689.70" y1="334.80" y2="334.80" />
<line x1="690.98" x2="690.98" y1="305.19" y2="334.80" />
<line x1="692.25" x2="692.25" y1="319.95" y2="334.80" />
<line x1="693.53" x2="693.53" y1="308.77" y2="334.80" />
<line x1="694.80" x2="694.80" y1="334.80" y2="334.80" />
<line x1="696.07" x2="696.07" y1="334.80" y2="334.80" />
<line x1="697.35" x2="697.35" y1="334.80" y2="334.80" />
<line x1="698.62" x2="698.62" y1="307.72" y2="334.80" />
<line x1="699.90" x2="699.90" y1="319.65" y2="334.80" />
<line x1="701.17" x2="701.17" y1="308.91" y2="334.80" />
<line x1="702.44" x2="702.44" y1="320.86" y2="334.80" />
<line x1="703.72" x2="703.72" y1="327.04" y2="334.80" />
<line x1="704.99" x2="704.99" y1="328.52" y2="334.80" />
<line x1="706.27" x2="706.27" y1="300.19" y2="334.80" />
<line x1="707.54" x2="707.54" y1="333.62" y2="334.80" />
<line x1="708.81" x2="708.81" y1="334.80" y2="334.80" />
<line x1="710.09" x2="710.09" y1="334.80" y2="334.80" />
<line x1="711.36" x2="711.36" y1="334.80" y2="334.80" />
<line x1="712.64" x2="712.64" y1="334.80" y2="334.80" />
<line x1="713.91" x2="713.91" y1="334.80" y2="334.80" />
<line x1="715.19" x2="715.19" y1="328.78" y2="334.80" />
<line x1="716.46" x2="716.46" y1="334.80" y2="334.80" />
<line x1="717.73" x2="717.73" y1="334.80" y2="334.80" />
<line x1="719.01" x2="719.01" y1="334.80" y2="334.80" />
<line x1="720.28" x2="720.28" y1="334.80" y2="334.80" />
<line x1="721.56" x2="721.56" y1="334.80" y2="334.80" />
<line x1="722.83" x2="722.83" y1="334.80" y2="334.80" />
<line x1="724.10" x2="724.10" y1="334.80" y2="334.80" />
<line x1="725.38" x2="725.38" y1="334.80" y2="334.80" />
<line x1="726.65" x2="726.65" y1="334.80" y2="334.80" />
<line x1="727.93" x2="727.93" y1="330.88" y2="334.80" />
<line x1="729.20" x2="729.20" y1="334.80" y2="334.80" />
<line x1="730.47" x2="730.47" y1="334.80" y2="334.80" />
<line x1="731.75" x2="731.75" y1="334.80" y2="334.80" />
<line x1="733.02" x2="733.02" y1="334.80" y2="334.80" />
<line x1="734.30" x2="734.30" y1="334.80" y2="334.80" />
<line x1="735.57" x2="735.57" y1="334.80" y2="334.80" />
<line x1="736.84" x2="736.84" y1="334.80" y2="334.80" />
<line x1="738.12" x2="738.12" y1="334.80" y2="334.80" />
<line x1="739.39" x2="739.39" y1="334.80" y2="334.80" />
<line x1="740.67" x2="740.67" y1="332.56" y2="334.80" />
<line x1="741.94" x2="741.94" y1="333.65" y2="334.80" />
<line x1="743.21" x2="743.21" y1="334.80" y2="334.80" />
<line x1="744.49" x2="744.49" y1="334.80" y2="334.80" />
<line x1="745.76" x2="745.76" y1="334.80" y2="334.80" />
<line x1="747.04" x2="747.04" y1="330.86" y2="334.80" />
<line x1="748.31" x2="748.31" y1="334.80" y2="334.80" />
<line x1="749.59" x2="749.59" y1="329.65" y2="334.80" />
<line x1="750.86" x2="750.86" y1="334.80" y2="334.80" />
<line x1="752.13" x2="752.13" y1="334.80" y2="334.80" />
<line x1="753.41" x2="753.41" y1="334.80" y2="334.80" />
<line x1="754.68" x2="754.68" y1="334.80" y2="334.80" />
<line x1="755.96" x2="755.96" y1="334.80" y2="334.80" />
<line x1="757.23" x2="757.23" y1="319.98" y2="334.80" />
<line x1="758.50" x2="758.50" y1="334.80" y2="334.80" />
<line x1="759.78" x2="759.78" y1="330.69" y2="334.80" />
<line x1="761.05" x2="761.05" y1="334.80" y2="334.80" />
<line x1="762.33" x2="762.33" y1="334.80" y2="334.80" />
<line x1="763.60" x2="763.60" y1="334.80" y2="334.80" />
<line x1="764.87" x2="764.87" y1="321.05" y2="334.80" />
<line x1="766.15" x2="766.15" y1="303.63" y2="334.80" />
<line x1="767.42" x2="767.42" y1="326.48" y2="334.80" />
<line x1="768.70" x2="768.70" y1="293.61" y2="334.80" />
<line x1="769.97" x2="769.97" y1="327.03" y2="334.80" />
<line x1="771.24" x2="771.24" y1="323.76" y2="334.80" />
<line x1="772.52" x2="772.52" y1="307.90" y2="334.80" />
<line x1="773.79" x2="773.79" y1="323.15" y2="334.80" />
<line x1="775.07" x2="775.07" y1="286.83" y2="334.80" />
<line x1="776.34" x2="776.34" y1="304.09" y2="334.80" />
<line x1="777.61" x2="777.61" y1="330.65" y2="334.80" />
<line x1="778.89" x2="778.89" y1="325.02" y2="334.80" />
<line x1="780.16" x2="780.16" y1="291.10" y2="334.80" />
<line x1="781.44" x2="781.44" y1="294.63" y2="334.80" />
<line x1="782.71" x2="782.71" y1="314.94" y2="334.80" />
<line x1="783.99" x2="783.99" y1="308.83" y2="334.80" />
<line x1="785.26" x2="785.26" y1="334.80" y2="334.80" />
<line x1="786.53" x2="786.53" y1="317.09" y2="334.80" />
<line x1="787.81" x2="787.81" y1="319.74" y2="334.80" />
<line x1="789.08" x2="789.08" y1="314.98" y2="334.80" />
<line x1="790.36" x2="790.36" y1="334.80" y2="334.80" />
<line x1="791.63" x2="791.63" y1="292.50" y2="334.80" />
<line x1="792.90" x2="792.90" y1="313.51" y2="334.80" />
<line x1="794.18" x2="794.18" y1="334.80" y2="334.80" />
<line x1="795.45" x2="795.45" y1="326.15" y2="334.80" />
<line x1="796.73" x2="796.73" y1="334.80" y2="334.80" />
<line x1="798.00" x2="798.00" y1="334.80" y2="334.80" />
<line x1="799.27" x2="799.27" y1="334.80" y2="334.80" />
<line x1="800.55" x2="800.55" y1="334.80" y2="334.80" />
<line x1="801.82" x2="801.82" y1="334.80" y2="334.80" />
<line x1="803.10" x2="803.10" y1="334.80" y2="334.80" />
<line x1="804.37" x2="804.37" y1="334.80" y2="334.80" />
<line x1="805.64" x2="805.64" y1="334.80" y2="334.80" />
<line x1="806.92" x2="806.92" y1="334.80" y2="334.80" />
<line x1="808.19" x2="808.19" y1="334.80" y2="334.80" />
<line x1="809.47" x2="809.47" y1="332.88" y2="334.80" />
<line x1="810.74" x2="810.74" y1="334.80" y2="334.80" />
<line x1="812.01" x2="812.01" y1="334.80" y2="334.80" />
<line x1="813.29" x2="813.29" y1="334.80" y2="334.80" />
<line x1="814.56" x2="814.56" y1="334.80" y2="334.80" />
<line x1="815.84" x2="815.84" y1="334.80" y2="334.80" />
<line x1="817.11" x2="817.11" y1="334.80" y2="334.80" />
<line x1="818.39" x2="818.39" y1="334.80" y2="334.80" />
<line x1="819.66" x2="819.66" y1="334.80" y2="334.80" />
<line x1="820.93" x2="820.93" y1="333.19" y2="334.80" />
<line x1="822.21" x2="822.21" y1="334.80" y2="334.80" />
<line x1="823.48" x2="823.48" y1="334.80" y2="334.80" />
<line x1="824.76" x2="824.76" y1="334.80" y2="334.80" />
<line x1="826.03" x2="826.03" y1="334.80" y2="334.80" />
<line x1="827.30" x2="827.30" y1="333.73" y2="334.80" />
<line x1="828.58" x2="828.58" y1="333.82" y2="334.80" />
<line x1="829.85" x2="829.85" y1="334.14" y2="334.80" />
<line x1="831.13" x2="831.13" y1="334.80" y2="334.80" />
<line x1="832.40" x2="832.40" y1="334.80" y2="334.80" />
<line x1="833.67" x2="833.67" y1="334.62" y2="334.80" />
<line x1="834.95" x2="834.95" y1="334.80" y2="334.80" />
<line x1="836.22" x2="836.22" y1="334.80" y2="334.80" />
<line x1="837.50" x2="837.50" y1="334.80" y2="334.80" />
<line x1="838.77" x2="838.77" y1="334.80" y2="334.80" />
<line x1="840.04" x2="840.04" y1="334.80" y2="334.80" />
<line x1="841.32" x2="841.32" y1="334.80" y2="334.80" />
<line x1="842.59" x2="842.59" y1="334.80" y2="334.80" />
<line x1="843.87" x2="843.87" y1="333.07" y2="334.80" />
<line x1="845.14" x2="845.14" y1="334.80" y2="334.80" />
<line x1="846.41" x2="846.41" y1="332.98" y2="334.80" />
<line x1="847.69" x2="847.69" y1="334.80" y2="334.80" />
<line x1="848.96" x2="848.96" y1="322.97" y2="334.80" />
<line x1="850.24" x2="850.24" y1="322.80" y2="334.80" />
<line x1="851.51" x2="851.51" y1="325.83" y2="334.80" />
<line x1="852.79" x2="852.79" y1="334.80" y2="334.80" />
<line x1="854.06" x2="854.06" y1="334.80" y2="334.80" />
<line x1="855.33" x2="855.33" y1="324.17" y2="334.80" />
<line x1="856.61" x2="856.61" y1="323.72" y2="334.80" />
<line x1="857.88" x2="857.88" y1="334.80" y2="334.80" />
<line x1="859.16" x2="859.16" y1="311.38" y2="334.80" />
<line x1="860.43" x2="860.43" y1="315.25" y2="334.80" />
<line x1="861.70" x2="861.70" y1="313.73" y2="334.80" />
<line x1="862.98" x2="862.98" y1="334.80" y2="334.80" />
<line x1="864.25" x2="864.25" y1="306.61" y2="334.80" />
<line x1="865.53" x2="865.53" y1="310.09" y2="334.80" />
<line x1="866.80" x2="866.80" y1="332.46" y2="334.80" />
<line x1="868.07" x2="868.07" y1="334.80" y2="334.80" />
<line x1="869.35" x2="869.35" y1="311.17" y2="334.80" />
<line x1="870.62" x2="870.62" y1="330.45" y2="334.80" />
<line x1="871.90" x2="871.90" y1="325.94" y2="334.80" />
<line x1="873.17" x2="873.17" y1="313.83" y2="334.80" />
<line x1="874.44" x2="874.44" y1="306.04" y2="334.80" />
<line x1="875.72" x2="875.72" y1="292.00" y2="334.80" />
<line x1="876.99" x2="876.99" y1="320.01" y2="334.80" />
<line x1="878.27" x2="878.27" y1="312.97" y2="334.80" />
<line x1="879.54" x2="879.54" y1="307.23" y2="334.80" />
<line x1="880.81" x2="880.81" y1="307.63" y2="334.80" />
<line x1="882.09" x2="882.09" y1="315.35" y2="334.80" />
<line x1="883.36" x2="883.36" y1="327.17" y2="334.80" />
<line x1="884.64" x2="884.64" y1="309.69" y2="334.80" />
<line x1="885.91" x2="885.91" y1="325.01" y2="334.80" />
<line x1="887.19" x2="887.19" y1="334.80" y2="334.80" />
<line x1="888.46" x2="888.46" y1="334.80" y2="334.80" />
<line x1="889.73" x2="889.73" y1="325.71" y2="334.80" />
<line x1="891.01" x2="891.01" y1="327.03" y2="334.80" />
<line x1="892.28" x2="892.28" y1="334.80" y2="334.80" />
<line x1="893.56" x2="893.56" y1="334.80" y2="334.80" />
<line x1="894.83" x2="894.83" y1="334.80" y2="334.80" />
<line x1="896.10" x2="896.10" y1="334.80" y2="334.80" />
<line x1="897.38" x2="897.38" y1="322.29" y2="334.80" />
<line x1="898.65" x2="898.65" y1="334.80" y2="334.80" />
<line x1="899.93" x2="899.93" y1="334.80" y2="334.80" />
<line x1="901.20" x2="901.20" y1="334.80" y2="334.80" />
<line x1="902.47" x2="902.47" y1="334.80" y2="334.80" />
<line x1="903.75" x2="903.75" y1="334.80" y2="334.80" />
<line x1="905.02" x2="905.02" y1="334.80" y2="334.80" />
<line x1="906.30" x2="906.30" y1="334.80" y2="334.80" />
<line x1="907.57" x2="907.57" y1="334.80" y2="334.80" />
<line x1="908.84" x2="908.84" y1="334.80" y2="334.80" />
<line x1="910.12" x2="910.12" y1="334.80" y2="334.80" />
<line x1="911.39" x2="911.39" y1="334.80" y2="334.80" />
<line x1="912.67" x2="912.67" y1="334.80" y2="334.80" />
<line x1="913.94" x2="913.94" y1="334.80" y2="334.80" />
<line x1="915.21" x2="915.21" y1="334.80" y2="334.80" />
<line x1="916.49" x2="916.49" y1="333.76" y2="334.80" />
<line x1="917.76" x2="917.76" y1="334.08" y2="334.80" />
<line x1="919.04" x2="919.04" y1="333.93" y2="334.80" />
<line x1="920.31" x2="920.31" y1="334.80" y2="334.80" />
<line x1="921.59" x2="921.59" y1="334.80" y2="334.80" />
<line x1="922.86" x2="922.86" y1="334.80" y2="334.80" />
<line x1="924.13" x2="924.13" y1="334.80" y2="334.80" />
<line x1="925.41" x2="925.41" y1="334.80" y2="334.80" />
<line x1="926.68" x2="926.68" y1="333.85" y2="334.80" />
<line x1="927.96" x2="927.96" y1="334.80" y2="334.80" />
<line x1="929.23" x2="929.23" y1="334.80" y2="334.80" />
<line x1="930.50" x2="930.50" y1="333.86" y2="334.80" />
<line x1="931.78" x2="931.78" y1="333.82" y2="334.80" />
<line x1="933.05" x2="933.05" y1="334.80" y2="334.80" />
<line x1="934.33" x2="934.33" y1="334.80" y2="334.80" />
<line x1="935.60" x2="935.60" y1="334.80" y2="334.80" />
<line x1="936.87" x2="936.87" y1="334.80" y2="334.80" />
<line x1="938.15" x2="938.15" y1="334.80" y2="334.80" />
<line x1="939.42" x2="939.42" y1="334.80" y2="334.80" />
<line x1="940.70" x2="940.70" y1="334.80" y2="334.80" />
<line x1="941.97" x2="941.97" y1="334.80" y2="334.80" />
<line x1="943.24" x2="943.24" y1="334.80" y2="334.80" />
<line x1="944.52" x2="944.52" y1="334.80" y2="334.80" />
<line x1="945.79" x2="945.79" y1="334.80" y2="334.80" />
<line x1="947.07" x2="947.07" y1="320.06" y2="334.80" />
<line x1="948.34" x2="948.34" y1="328.53" y2="334.80" />
<line x1="949.61" x2="949.61" y1="321.52" y2="334.80" />
<line x1="950.89" x2="950.89" y1="323.08" y2="334.80" />
<line x1="952.16" x2="952.16" y1="316.44" y2="334.80" />
<line x1="953.44" x2="953.44" y1="320.13" y2="334.80" />
<line x1="954.71" x2="954.71" y1="317.21" y2="334.80" />
<line x1="955.99" x2="955.99" y1="334.80" y2="334.80" />
<line x1="957.26" x2="957.26" y1="334.80" y2="334.80" />
<line x1="958.53" x2="958.53" y1="324.89" y2="334.80" />
<line x1="959.81" x2="959.81" y1="334.80" y2="334.80" />
<line x1="961.08" x2="961.08" y1="318.11" y2="334.80" />
<line x1="962.36" x2="962.36" y1="330.48" y2="334.80" />
<line x1="963.63" x2="963.63" y1="334.80" y2="334.80" />
<line x1="964.90" x2="964.90" y1="334.80" y2="334.80" />
<line x1="966.18" x2="966.18" y1="304.80" y2="334.80" />
<line x1="967.45" x2="967.45" y1="319.27" y2="334.80" />
<line x1="968.73" x2="968.73" y1="313.89" y2="334.80" />
<line x1="970.00" x2="970.00" y1="330.78" y2="334.80" />
<line x1="971.27" x2="971.27" y1="331.63" y2="334.80" />
<line x1="972.55" x2="972.55" y1="334.80" y2="334.80" />
<line x1="973.82" x2="973.82" y1="334.80" y2="334.80" />
<line x1="975.10" x2="975.10" y1="334.80" y2="334.80" />
<line x1="976.37" x2="976.37" y1="334.80" y2="334.80" />
<line x1="977.64" x2="977.64" y1="317.88" y2="334.80" />
<line x1="978.92" x2="978.92" y1="309.80" y2="334.80" />
<line x1="980.19" x2="980.19" y1="318.76" y2="334.80" />
<line x1="981.47" x2="981.47" y1="316.78" y2="334.80" />
<line x1="982.74" x2="982.74" y1="334.80" y2="334.80" />
<line x1="984.01" x2="984.01" y1="313.54" y2="334.80" />
<line x1="985.29" x2="985.29" y1="317.74" y2="334.80" />
<line x1="986.56" x2="986.56" y1="326.09" y2="334.80" />
<line x1="987.84" x2="987.84" y1="334.80" y2="334.80" />
<line x1="989.11" x2="989.11" y1="323.97" y2="334.80" />
<line x1="990.39" x2="990.39" y1="334.80" y2="334.80" />
<line x1="991.66" x2="991.66" y1="334.80" y2="334.80" />
<line x1="992.93" x2="992.93" y1="334.80" y2="334.80" />
<line x1="994.21" x2="994.21" y1="334.80" y2="334.80" />
<line x1="995.48" x2="995.48" y1="334.80" y2="334.80" />
<line x1="996.76" x2="996.76" y1="334.80" y2="334.80" />
<line x1="998.03" x2="998.03" y1="334.80" y2="334.80" />
<line x1="999.30" x2="999.30" y1="334.80" y2="334.80" />
<line x1="1000.58" x2="1000.58" y1="334.80" y2="334.80" />
<line x1="1001.85" x2="1001.85" y1="334.80" y2="334.80" />
<line x1="1003.13" x2="1003.13" y1="334.80" y2="334.80" />
<line x1="1004.40" x2="1004.40" y1="334.80" y2="334.80" />
</g>
<g fill="none" stroke-width="0.7397260273972602" stroke="#aa8800">
<line x1="75.60" x2="75.60" y1="325.69" y2="334.80" />
<line x1="76.87" x2="76.87" y1="322.05" y2="334.80" />
<line x1="78.15" x2="78.15" y1="334.80" y2="334.80" />
<line x1="79.42" x2="79.42" y1="334.35" y2="334.80" />
<line x1="80.70" x2="80.70" y1="328.23" y2="334.80" />
<line x1="81.97" x2="81.97" y1="323.47" y2="334.80" />
<line x1="83.24" x2="83.24" y1="333.79" y2="334.80" />
<line x1="84.52" x2="84.52" y1="334.65" y2="334.80" />
<line x1="85.79" x2="85.79" y1="334.39" y2="334.80" />
<line x1="87.07" x2="87.07" y1="334.80" y2="334.80" />
<line x1="88.34" x2="88.34" y1="326.39" y2="334.80" />
<line x1="89.61" x2="89.61" y1="334.80" y2="334.80" />
<line x1="90.89" x2="90.89" y1="334.80" y2="334.80" />
<line x1="92.16" x2="92.16" y1="318.69" y2="334.80" />
<line x1="93.44" x2="93.44" y1="334.80" y2="334.80" />
<line x1="94.71" x2="94.71" y1="315.61" y2="334.80" />
<line x1="95.99" x2="95.99" y1="243.34" y2="334.80" />
<line x1="97.26" x2="97.26" y1="253.75" y2="334.80" />
<line x1="98.53" x2="98.53" y1="330.20" y2="334.80" />
<line x1="99.81" x2="99.81" y1="334.80" y2="334.80" />
<line x1="101.08" x2="101.08" y1="334.80" y2="334.80" />
<line x1="102.36" x2="102.36" y1="331.31" y2="334.80" />
<line x1="103.63" x2="103.63" y1="334.80" y2="334.80" />
<line x1="104.90" x2="104.90" y1="334.80" y2="334.80" />
<line x1="106.18" x2="106.18" y1="328.11" y2="334.80" />
<line x1="107.45" x2="107.45" y1="334.80" y2="334.80" />
<line x1="108.73" x2="108.73" y1="334.80" y2="334.80" />
<line x1="110.00" x2="110.00" y1="317.87" y2="334.80" />
<line x1="111.27" x2="111.27" y1="334.80" y2="334.80" />
<line x1="112.55" x2="112.55" y1="334.80" y2="334.80" />
<line x1="113.82" x2="113.82" y1="334.80" y2="334.80" />
<line x1="115.10" x2="115.10" y1="334.80" y2="334.80" />
<line x1="116.37" x2="116.37" y1="334.80" y2="334.80" />
<line x1="117.64" x2="117.64" y1="334.80" y2="334.80" />
<line x1="118.92" x2="118.92" y1="334.80" y2="334.80" />
<line x1="120.19" x2="120.19" y1="328.79" y2="334.80" />
<line x1="121.47" x2="121.47" y1="334.80" y2="334.80" />
<line x1="122.74" x2="122.74" y1="334.80" y2="334.80" />
<line x1="124.01" x2="124.01" y1="334.80" y2="334.80" />
<line x1="125.29" x2="125.29" y1="334.80" y2="334.80" />
<line x1="126.56" x2="126.56" y1="334.80" y2="334.80" />
<line x1="127.84" x2="127.84" y1="334.80" y2="334.80" />
<line x1="129.11" x2="129.11" y1="334.80" y2="334.80" />
<line x1="130.39" x2="130.39" y1="334.80" y2="334.80" />
<line x1="131.66" x2="131.66" y1="334.80" y2="334.80" />
<line x1="132.93" x2="132.93" y1="334.80" y2="334.80" />
<line x1="134.21" x2="134.21" y1="320.94" y2="334.80" />
<line x1="135.48" x2="135.48" y1="334.80" y2="334.80" />
<line x1="136.76" x2="136.76" y1="334.80" y2="334.80" />
<line x1="138.03" x2="138.03" y1="334.80" y2="334.80" />
<line x1="139.30" x2="139.30" y1="334.80" y2="334.80" />
<line x1="140.58" x2="140.58" y1="334.80" y2="334.80" />
<line x1="141.85" x2="141.85" y1="334.80" y2="334.80" />
<line x1="143.13" x2="143.13" y1="334.80" y2="334.80" />
<line x1="144.40" x2="144.40" y1="334.80" y2="334.80" />
<line x1="145.67" x2="145.67" y1="327.89" y2="334.80" />
<line x1="146.95" x2="146.95" y1="334.80" y2="334.80" />
<line x1="148.22" x2="148.22" y1="334.80" y2="334.80" />
<line x1="149.50" x2="149.50" y1="309.70" y2="334.80" />
<line x1="150.77" x2="150.77" y1="309.70" y2="334.80" />
<line x1="152.04" x2="152.04" y1="322.87" y2="334.80" />
<line x1="153.32" x2="153.32" y1="324.43" y2="334.80" />
<line x1="154.59" x2="154.59" y1="328.88" y2="334.80" />
<line x1="155.87" x2="155.87" y1="316.70" y2="334.80" />
<line x1="157.14" x2="157.14" y1="318.28" y2="334.80" />
<line x1="158.41" x2="158.41" y1="304.99" y2="334.80" />
<line x1="159.69" x2="159.69" y1="331.66" y2="334.80" />
<line x1="160.96" x2="160.96" y1="326.33" y2="334.80" />
<line x1="162.24" x2="162.24" y1="322.15" y2="334.80" />
<line x1="163.51" x2="163.51" y1="317.16" y2="334.80" />
<line x1="164.79" x2="164.79" y1="332.90" y2="334.80" />
<line x1="166.06" x2="166.06" y1="328.89" y2="334.80" />
<line x1="167.33" x2="167.33" y1="319.45" y2="334.80" />
<line x1="168.61" x2="168.61" y1="298.07" y2="334.80" />
<line x1="169.88" x2="169.88" y1="333.09" y2="334.80" />
<line x1="171.16" x2="171.16" y1="308.76" y2="334.80" />
<line x1="172.43" x2="172.43" y1="320.17" y2="334.80" />
<line x1="173.70" x2="173.70" y1="334.80" y2="334.80" />
<line x1="174.98" x2="174.98" y1="321.34" y2="334.80" />
<line x1="176.25" x2="176.25" y1="334.80" y2="334.80" />
<line x1="177.53" x2="177.53" y1="334.80" y2="334.80" />
<line x1="178.80" x2="178.80" y1="334.21" y2="334.80" />
<line x1="180.07" x2="180.07" y1="316.40" y2="334.80" />
<line x1="181.35" x2="181.35" y1="333.23" y2="334.80" />
<line x1="182.62" x2="182.62" y1="325.91" y2="334.80" />
<line x1="183.90" x2="183.90" y1="320.11" y2="334.80" />
<line x1="185.17" x2="185.17" y1="323.11" y2="334.80" />
<line x1="186.44" x2="186.44" y1="334.80" y2="334.80" />
<line x1="187.72" x2="187.72" y1="331.18" y2="334.80" />
<line x1="188.99" x2="188.99" y1="330.35" y2="334.80" />
<line x1="190.27" x2="190.27" y1="323.59" y2="334.80" />
<line x1="191.54" x2="191.54" y1="316.65" y2="334.80" />
<line x1="192.81" x2="192.81" y1="328.72" y2="334.80" />
<line x1="194.09" x2="194.09" y1="321.43" y2="334.80" />
<line x1="195.36" x2="195.36" y1="319.66" y2="334.80" />
<line x1="196.64" x2="196.64" y1="330.39" y2="334.80" />
<line x1="197.91" x2="197.91" y1="325.94" y2="334.80" />
<line x1="199.19" x2="199.19" y1="334.80" y2="334.80" />
<line x1="200.46" x2="200.46" y1="334.80" y2="334.80" />
<line x1="201.73" x2="201.73" y1="334.80" y2="334.80" />
<line x1="203.01" x2="203.01" y1="334.80" y2="334.80" />
<line x1="204.28" x2="204.28" y1="334.80" y2="334.80" />
<line x1="205.56" x2="205.56" y1="334.80" y2="334.80" />
<line x1="206.83" x2="206.83" y1="334.80" y2="334.80" />
<line x1="208.10" x2="208.10" y1="334.80" y2="334.80" />
<line x1="209.38" x2="209.38" y1="334.80" y2="334.80" />
<line x1="210.65" x2="210.65" y1="334.80" y2="334.80" />
<line x1="211.93" x2="211.93" y1="333.64" y2="334.80" />
<line x1="213.20" x2="213.20" y1="334.80" y2="334.80" />
<line x1="214.47" x2="214.47" y1="334.80" y2="334.80" />
<line x1="215.75" x2="215.75" y1="334.80" y2="334.80" />
<line x1="217.02" x2="217.02" y1="334.80" y2="334.80" />
<line x1="218.30" x2="218.30" y1="334.80" y2="334.80" />
<line x1="219.57" x2="219.57" y1="334.80" y2="334.80" />
<line x1="220.84" x2="220.84" y1="334.80" y2="334.80" />
<line x1="222.12" x2="222.12" y1="334.80" y2="334.80" />
<line x1="223.39" x2="223.39" y1="334.80" y2="334.80" />
<line x1="224.67" x2="224.67" y1="334.80" y2="334.80" />
<line x1="225.94" x2="225.94" y1="334.80" y2="334.80" />
<line x1="227.21" x2="227.21" y1="334.80" y2="334.80" />
<line x1="228.49" x2="228.49" y1="334.80" y2="334.80" />
<line x1="229.76" x2="229.76" y1="334.80" y2="334.80" />
<line x1="231.04" x2="231.04" y1="334.80" y2="334.80" />
<line x1="232.31" x2="232.31" y1="334.80" y2="334.80" />
<line x1="233.59" x2="233.59" y1="334.80" y2="334.80" />
<line x1="234.86" x2="234.86" y1="334.80" y2="334.80" />
<line x1="236.13" x2="236.13" y1="334.80" y2="334.80" />
<line x1="237.41" x2="237.41" y1="334.80" y2="334.80" />
<line x1="238.68" x2="238.68" y1="334.80" y2="334.80" />
<line x1="239.96" x2="239.96" y1="334.80" y2="334.80" />
<line x1="241.23" x2="241.23" y1="322.55" y2="334.80" />
<line x1="242.50" x2="242.50" y1="318.56" y2="334.80" />
<line x1="243.78" x2="243.78" y1="315.19" y2="334.80" />
<line x1="245.05" x2="245.05" y1="327.15" y2="334.80" />
<line x1="246.33" x2="246.33" y1="321.88" y2="334.80" />
<line x1="247.60" x2="247.60" y1="322.70" y2="334.80" />
<line x1="248.87" x2="248.87" y1="334.80" y2="334.80" />
<line x1="250.15" x2="250.15" y1="316.01" y2="334.80" />
<line x1="251.42" x2="251.42" y1="299.11" y2="334.80" />
<line x1="252.70" x2="252.70" y1="297.62" y2="334.80" />
<line x1="253.97" x2="253.97" y1="333.16" y2="334.80" />
<line x1="255.24" x2="255.24" y1="325.44" y2="334.80" />
<line x1="256.52" x2="256.52" y1="307.73" y2="334.80" />
<line x1="257.79" x2="257.79" y1="324.66" y2="334.80" />
<line x1="259.07" x2="259.07" y1="321.60" y2="334.80" />
<line x1="260.34" x2="260.34" y1="322.21" y2="334.80" />
<line x1="261.61" x2="261.61" y1="326.82" y2="334.80" />
<line x1="262.89" x2="262.89" y1="332.55" y2="334.80" />
<line x1="264.16" x2="264.16" y1="333.85" y2="334.80" />
<line x1="265.44" x2="265.44" y1="333.88" y2="334.80" />
<line x1="266.71" x2="266.71" y1="330.96" y2="334.80" />
<line x1="267.99" x2="267.99" y1="331.06" y2="334.80" />
<line x1="269.26" x2="269.26" y1="333.23" y2="334.80" />
<line x1="270.53" x2="270.53" y1="334.80" y2="334.80" />
<line x1="271.81" x2="271.81" y1="332.71" y2="334.80" />
<line x1="273.08" x2="273.08" y1="334.80" y2="334.80" />
<line x1="274.36" x2="274.36" y1="304.64" y2="334.80" />
<line x1="275.63" x2="275.63" y1="323.89" y2="334.80" />
<line x1="276.90" x2="276.90" y1="329.26" y2="334.80" />
<line x1="278.18" x2="278.18" y1="334.80" y2="334.80" />
<line x1="279.45" x2="279.45" y1="333.72" y2="334.80" />
<line x1="280.73" x2="280.73" y1="334.80" y2="334.80" />
<line x1="282.00" x2="282.00" y1="333.85" y2="334.80" />
<line x1="283.27" x2="283.27" y1="334.36" y2="334.80" />
<line x1="284.55" x2="284.55" y1="329.55" y2="334.80" />
<line x1="285.82" x2="285.82" y1="328.87" y2="334.80" />
<line x1="287.10" x2="287.10" y1="299.49" y2="334.80" />
<line x1="288.37" x2="288.37" y1="322.05" y2="334.80" />
<line x1="289.64" x2="289.64" y1="334.80" y2="334.80" />
<line x1="290.92" x2="290.92" y1="324.66" y2="334.80" />
<line x1="292.19" x2="292.19" y1="324.01" y2="334.80" />
<line x1="293.47" x2="293.47" y1="322.15" y2="334.80" />
<line x1="294.74" x2="294.74" y1="334.80" y2="334.80" />
<line x1="296.01" x2="296.01" y1="334.80" y2="334.80" />
<line x1="297.29" x2="297.29" y1="334.80" y2="334.80" />
<line x1="298.56" x2="298.56" y1="334.80" y2="334.80" />
<line x1="299.84" x2="299.84" y1="334.80" y2="334.80" />
<line x1="301.11" x2="301.11" y1="334.80" y2="334.80" />
<line x1="302.39" x2="302.39" y1="334.80" y2="334.80" />
<line x1="303.66" x2="303.66" y1="334.80" y2="334.80" />
<line x1="304.93" x2="304.93" y1="334.80" y2="334.80" />
<line x1="306.21" x2="306.21" y1="334.80" y2="334.80" />
<line x1="307.48" x2="307.48" y1="334.80" y2="334.80" />
<line x1="308.76" x2="308.76" y1="334.80" y2="334.80" />
<line x1="310.03" x2="310.03" y1="334.80" y2="334.80" />
<line x1="311.30" x2="311.30" y1="334.80" y2="334.80" />
<line x1="312.58" x2="312.58" y1="334.80" y2="334.80" />
<line x1="313.85" x2="313.85" y1="334.80" y2="334.80" />
<line x1="315.13" x2="315.13" y1="334.80" y2="334.80" />
<line x1="316.40" x2="316.40" y1="322.17" y2="334.80" />
<line x1="317.67" x2="317.67" y1="334.80" y2="334.80" />
<line x1="318.95" x2="318.95" y1="334.80" y2="334.80" />
<line x1="320.22" x2="320.22" y1="334.80" y2="334.80" />
<line x1="321.50" x2="321.50" y1="326.14" y2="334.80" />
<line x1="322.77" x2="322.77" y1="325.49" y2="334.80" />
<line x1="324.04" x2="324.04" y1="316.13" y2="334.80" />
<line x1="325.32" x2="325.32" y1="334.80" y2="334.80" />
<line x1="326.59" x2="326.59" y1="334.80" y2="334.80" />
<line x1="327.87" x2="327.87" y1="334.80" y2="334.80" />
<line x1="329.14" x2="329.14" y1="334.80" y2="334.80" />
<line x1="330.41" x2="330.41" y1="334.80" y2="334.80" />
<line x1="331.69" x2="331.69" y1="334.80" y2="334.80" />
<line x1="332.96" x2="332.96" y1="334.80" y2="334.80" />
<line x1="334.24" x2="334.24" y1="329.06" y2="334.80" />
<line x1="335.51" x2="335.51" y1="308.20" y2="334.80" />
<line x1="336.79" x2="336.79" y1="317.07" y2="334.80" />
<line x1="338.06" x2="338.06" y1="330.04" y2="334.80" />
<line x1="339.33" x2="339.33" y1="331.19" y2="334.80" />
<line x1="340.61" x2="340.61" y1="324.41" y2="334.80" />
<line x1="341.88" x2="341.88" y1="322.66" y2="334.80" />
<line x1="343.16" x2="343.16" y1="268.45" y2="334.80" />
<line x1="344.43" x2="344.43" y1="297.12" y2="334.80" />
<line x1="345.70" x2="345.70" y1="311.17" y2="334.80" />
<line x1="346.98" x2="346.98" y1="320.56" y2="334.80" />
<line x1="348.25" x2="348.25" y1="330.95" y2="334.80" />
<line x1="349.53" x2="349.53" y1="330.46" y2="334.80" />
<line x1="350.80" x2="350.80" y1="333.22" y2="334.80" />
<line x1="352.07" x2="352.07" y1="334.52" y2="334.80" />
<line x1="353.35" x2="353.35" y1="332.04" y2="334.80" />
<line x1="354.62" x2="354.62" y1="333.12" y2="334.80" />
<line x1="355.90" x2="355.90" y1="331.43" y2="334.80" />
<line x1="357.17" x2="357.17" y1="333.17" y2="334.80" />
<line x1="358.44" x2="358.44" y1="334.44" y2="334.80" />
<line x1="359.72" x2="359.72" y1="334.56" y2="334.80" />
<line x1="360.99" x2="360.99" y1="334.64" y2="334.80" />
<line x1="362.27" x2="362.27" y1="334.64" y2="334.80" />
<line x1="363.54" x2="363.54" y1="334.71" y2="334.80" />
<line x1="364.81" x2="364.81" y1="334.60" y2="334.80" />
<line x1="366.09" x2="366.09" y1="334.48" y2="334.80" />
<line x1="367.36" x2="367.36" y1="332.40" y2="334.80" />
<line x1="368.64" x2="368.64" y1="334.80" y2="334.80" />
<line x1="369.91" x2="369.91" y1="334.72" y2="334.80" />
<line x1="371.19" x2="371.19" y1="334.77" y2="334.80" />
<line x1="372.46" x2="372.46" y1="327.09" y2="334.80" />
<line x1="373.73" x2="373.73" y1="334.80" y2="334.80" />
<line x1="375.01" x2="375.01" y1="334.80" y2="334.80" />
<line x1="376.28" x2="376.28" y1="322.36" y2="334.80" />
<line x1="377.56" x2="377.56" y1="310.75" y2="334.80" />
<line x1="378.83" x2="378.83" y1="332.08" y2="334.80" />
<line x1="380.10" x2="380.10" y1="334.80" y2="334.80" />
<line x1="381.38" x2="381.38" y1="334.80" y2="334.80" />
<line x1="382.65" x2="382.65" y1="334.80" y2="334.80" />
<line x1="383.93" x2="383.93" y1="330.47" y2="334.80" />
<line x1="385.20" x2="385.20" y1="327.77" y2="334.80" />
<line x1="386.47" x2="386.47" y1="329.97" y2="334.80" />
<line x1="387.75" x2="387.75" y1="334.80" y2="334.80" />
<line x1="389.02" x2="389.02" y1="334.80" y2="334.80" />
<line x1="390.30" x2="390.30" y1="327.55" y2="334.80" />
<line x1="391.57" x2="391.57" y1="325.15" y2="334.80" />
<line x1="392.84" x2="392.84" y1="317.41" y2="334.80" />
<line x1="394.12" x2="394.12" y1="334.80" y2="334.80" />
<line x1="395.39" x2="395.39" y1="334.80" y2="334.80" />
<line x1="396.67" x2="396.67" y1="334.80" y2="334.80" />
<line x1="397.94" x2="397.94" y1="334.80" y2="334.80" />
<line x1="399.21" x2="399.21" y1="334.80" y2="334.80" />
<line x1="400.49" x2="400.49" y1="334.80" y2="334.80" />
<line x1="401.76" x2="401.76" y1="334.80" y2="334.80" />
<line x1="403.04" x2="403.04" y1="334.80" y2="334.80" />
<line x1="404.31" x2="404.31" y1="334.80" y2="334.80" />
<line x1="405.59" x2="405.59" y1="334.80" y2="334.80" />
<line x1="406.86" x2="406.86" y1="334.80" y2="334.80" />
<line x1="408.13" x2="408.13" y1="334.80" y2="334.80" />
<line x1="409.41" x2="409.41" y1="334.80" y2="334.80" />
<line x1="410.68" x2="410.68" y1="329.24" y2="334.80" />
<line x1="411.96" x2="411.96" y1="322.31" y2="334.80" />
<line x1="413.23" x2="413.23" y1="324.72" y2="334.80" />
<line x1="414.50" x2="414.50" y1="334.80" y2="334.80" />
<line x1="415.78" x2="415.78" y1="334.80" y2="334.80" />
<line x1="417.05" x2="417.05" y1="334.80" y2="334.80" />
<line x1="418.33" x2="418.33" y1="334.80" y2="334.80" />
<line x1="419.60" x2="419.60" y1="334.80" y2="334.80" />
<line x1="420.87" x2="420.87" y1="330.31" y2="334.80" />
<line x1="422.15" x2="422.15" y1="327.88" y2="334.80" />
<line x1="423.42" x2="423.42" y1="334.80" y2="334.80" />
<line x1="424.70" x2="424.70" y1="306.26" y2="334.80" />
<line x1="425.97" x2="425.97" y1="334.80" y2="334.80" />
<line x1="427.24" x2="427.24" y1="314.18" y2="334.80" />
<line x1="428.52" x2="428.52" y1="315.58" y2="334.80" />
<line x1="429.79" x2="429.79" y1="317.82" y2="334.80" />
<line x1="431.07" x2="431.07" y1="324.47" y2="334.80" />
<line x1="432.34" x2="432.34" y1="334.80" y2="334.80" />
<line x1="433.61" x2="433.61" y1="298.96" y2="334.80" />
<line x1="434.89" x2="434.89" y1="326.67" y2="334.80" />
<line x1="436.16" x2="436.16" y1="315.90" y2="334.80" />
<line x1="437.44" x2="437.44" y1="321.68" y2="334.80" />
<line x1="438.71" x2="438.71" y1="331.51" y2="334.80" />
<line x1="439.99" x2="439.99" y1="319.75" y2="334.80" />
<line x1="441.26" x2="441.26" y1="327.73" y2="334.80" />
<line x1="442.53" x2="442.53" y1="315.31" y2="334.80" />
<line x1="443.81" x2="443.81" y1="318.86" y2="334.80" />
<line x1="445.08" x2="445.08" y1="316.97" y2="334.80" />
<line x1="446.36" x2="446.36" y1="324.40" y2="334.80" />
<line x1="447.63" x2="447.63" y1="332.62" y2="334.80" />
<line x1="448.90" x2="448.90" y1="334.80" y2="334.80" />
<line x1="450.18" x2="450.18" y1="330.12" y2="334.80" />
<line x1="451.45" x2="451.45" y1="334.66" y2="334.80" />
<line x1="452.73" x2="452.73" y1="334.59" y2="334.80" />
<line x1="454.00" x2="454.00" y1="334.57" y2="334.80" />
<line x1="455.27" x2="455.27" y1="334.20" y2="334.80" />
<line x1="456.55" x2="456.55" y1="333.75" y2="334.80" />
<line x1="457.82" x2="457.82" y1="334.80" y2="334.80" />
<line x1="459.10" x2="459.10" y1="329.19" y2="334.80" />
<line x1="460.37" x2="460.37" y1="334.80" y2="334.80" />
<line x1="461.64" x2="461.64" y1="334.70" y2="334.80" />
<line x1="462.92" x2="462.92" y1="334.80" y2="334.80" />
<line x1="464.19" x2="464.19" y1="334.23" y2="334.80" />
<line x1="465.47" x2="465.47" y1="334.80" y2="334.80" />
<line x1="466.74" x2="466.74" y1="334.64" y2="334.80" />
<line x1="468.01" x2="468.01" y1="334.80" y2="334.80" />
<line x1="469.29" x2="469.29" y1="332.89" y2="334.80" />
<line x1="470.56" x2="470.56" y1="331.96" y2="334.80" />
<line x1="471.84" x2="471.84" y1="333.52" y2="334.80" />
<line x1="473.11" x2="473.11" y1="308.77" y2="334.80" />
<line x1="474.39" x2="474.39" y1="331.44" y2="334.80" />
<line x1="475.66" x2="475.66" y1="322.68" y2="334.80" />
<line x1="476.93" x2="476.93" y1="326.13" y2="334.80" />
<line x1="478.21" x2="478.21" y1="329.70" y2="334.80" />
<line x1="479.48" x2="479.48" y1="324.95" y2="334.80" />
<line x1="480.76" x2="480.76" y1="334.80" y2="334.80" />
<line x1="482.03" x2="482.03" y1="334.80" y2="334.80" />
<line x1="483.30" x2="483.30" y1="334.80" y2="334.80" />
<line x1="484.58" x2="484.58" y1="334.80" y2="334.80" />
<line x1="485.85" x2="485.85" y1="329.56" y2="334.80" />
<line x1="487.13" x2="487.13" y1="324.09" y2="334.80" />
<line x1="488.40" x2="488.40" y1="334.80" y2="334.80" />
<line x1="489.67" x2="489.67" y1="334.80" y2="334.80" />
<line x1="490.95" x2="490.95" y1="334.80" y2="334.80" />
<line x1="492.22" x2="492.22" y1="334.80" y2="334.80" />
<line x1="493.50" x2="493.50" y1="334.80" y2="334.80" />
<line x1="494.77" x2="494.77" y1="334.80" y2="334.80" />
<line x1="496.04" x2="496.04" y1="334.80" y2="334.80" />
<line x1="497.32" x2="497.32" y1="334.80" y2="334.80" />
<line x1="498.59" x2="498.59" y1="334.80" y2="334.80" />
<line x1="499.87" x2="499.87" y1="329.12" y2="334.80" />
<line x1="501.14" x2="501.14" y1="334.80" y2="334.80" />
<line x1="502.41" x2="502.41" y1="334.80" y2="334.80" />
<line x1="503.69" x2="503.69" y1="334.80" y2="334.80" />
<line x1="504.96" x2="504.96" y1="330.17" y2="334.80" />
<line x1="506.24" x2="506.24" y1="334.80" y2="334.80" />
<line x1="507.51" x2="507.51" y1="334.80" y2="334.80" />
<line x1="508.79" x2="508.79" y1="334.80" y2="334.80" />
<line x1="510.06" x2="510.06" y1="327.75" y2="334.80" />
<line x1="511.33" x2="511.33" y1="334.80" y2="334.80" />
<line x1="512.61" x2="512.61" y1="334.80" y2="334.80" />
<line x1="513.88" x2="513.88" y1="329.04" y2="334.80" />
<line x1="515.16" x2="515.16" y1="334.80" y2="334.80" />
<line x1="516.43" x2="516.43" y1="334.80" y2="334.80" />
<line x1="517.70" x2="517.70" y1="334.80" y2="334.80" />
<line x1="518.98" x2="518.98" y1="327.66" y2="334.80" />
<line x1="520.25" x2="520.25" y1="323.45" y2="334.80" />
<line x1="521.53" x2="521.53" y1="328.40" y2="334.80" />
<line x1="522.80" x2="522.80" y1="310.90" y2="334.80" />
<line x1="524.07" x2="524.07" y1="317.60" y2="334.80" />
<line x1="525.35" x2="525.35" y1="293.80" y2="334.80" />
<line x1="526.62" x2="526.62" y1="319.98" y2="334.80" />
<line x1="527.90" x2="527.90" y1="324.37" y2="334.80" />
<line x1="529.17" x2="529.17" y1="321.43" y2="334.80" />
<line x1="530.44" x2="530.44" y1="308.97" y2="334.80" />
<line x1="531.72" x2="531.72" y1="307.37" y2="334.80" />
<line x1="532.99" x2="532.99" y1="325.75" y2="334.80" />
<line x1="534.27" x2="534.27" y1="327.36" y2="334.80" />
<line x1="535.54" x2="535.54" y1="329.09" y2="334.80" />
<line x1="536.81" x2="536.81" y1="332.21" y2="334.80" />
<line x1="538.09" x2="538.09" y1="315.52" y2="334.80" />
<line x1="539.36" x2="539.36" y1="334.80" y2="334.80" />
<line x1="540.64" x2="540.64" y1="334.54" y2="334.80" />
<line x1="541.91" x2="541.91" y1="334.80" y2="334.80" />
<line x1="543.19" x2="543.19" y1="327.60" y2="334.80" />
<line x1="544.46" x2="544.46" y1="328.18" y2="334.80" />
<line x1="545.73" x2="545.73" y1="327.64" y2="334.80" />
<line x1="547.01" x2="547.01" y1="330.90" y2="334.80" />
<line x1="548.28" x2="548.28" y1="332.74" y2="334.80" />
<line x1="549.56" x2="549.56" y1="330.91" y2="334.80" />
<line x1="550.83" x2="550.83" y1="332.53" y2="334.80" />
<line x1="552.10" x2="552.10" y1="333.79" y2="334.80" />
<line x1="553.38" x2="553.38" y1="334.80" y2="334.80" />
<line x1="554.65" x2="554.65" y1="332.03" y2="334.80" />
<line x1="555.93" x2="555.93" y1="334.63" y2="334.80" />
<line x1="557.20" x2="557.20" y1="334.75" y2="334.80" />
<line x1="558.47" x2="558.47" y1="334.63" y2="334.80" />
<line x1="559.75" x2="559.75" y1="334.80" y2="334.80" />
<line x1="561.02" x2="561.02" y1="334.36" y2="334.80" />
<line x1="562.30" x2="562.30" y1="334.80" y2="334.80" />
<line x1="563.57" x2="563.57" y1="330.67" y2="334.80" />
<line x1="564.84" x2="564.84" y1="334.08" y2="334.80" />
<line x1="566.12" x2="566.12" y1="334.25" y2="334.80" />
<line x1="567.39" x2="567.39" y1="333.37" y2="334.80" />
<line x1="568.67" x2="568.67" y1="333.58" y2="334.80" />
<line x1="569.94" x2="569.94" y1="331.46" y2="334.80" />
<line x1="571.21" x2="571.21" y1="329.08" y2="334.80" />
<line x1="572.49" x2="572.49" y1="331.97" y2="334.80" />
<line x1="573.76" x2="573.76" y1="327.27" y2="334.80" />
<line x1="575.04" x2="575.04" y1="334.80" y2="334.80" />
<line x1="576.31" x2="576.31" y1="334.80" y2="334.80" />
<line x1="577.59" x2="577.59" y1="334.80" y2="334.80" />
<line x1="578.86" x2="578.86" y1="334.80" y2="334.80" />
<line x1="580.13" x2="580.13" y1="334.80" y2="334.80" />
<line x1="581.41" x2="581.41" y1="334.80" y2="334.80" />
<line x1="582.68" x2="582.68" y1="334.80" y2="334.80" />
<line x1="583.96" x2="583.96" y1="334.80" y2="334.80" />
<line x1="585.23" x2="585.23" y1="334.80" y2="334.80" />
<line x1="586.50" x2="586.50" y1="334.80" y2="334.80" />
<line x1="587.78" x2="587.78" y1="334.80" y2="334.80" />
<line x1="589.05" x2="589.05" y1="334.80" y2="334.80" />
<line x1="590.33" x2="590.33" y1="317.14" y2="334.80" />
<line x1="591.60" x2="591.60" y1="323.89" y2="334.80" />
<line x1="592.87" x2="592.87" y1="334.80" y2="334.80" />
<line x1="594.15" x2="594.15" y1="334.80" y2="334.80" />
<line x1="595.42" x2="595.42" y1="334.80" y2="334.80" />
<line x1="596.70" x2="596.70" y1="334.80" y2="334.80" />
<line x1="597.97" x2="597.97" y1="334.80" y2="334.80" />
<line x1="599.24" x2="599.24" y1="331.01" y2="334.80" />
<line x1="600.52" x2="600.52" y1="325.49" y2="334.80" />
<line x1="601.79" x2="601.79" y1="334.80" y2="334.80" />
<line x1="603.07" x2="603.07" y1="334.80" y2="334.80" />
<line x1="604.34" x2="604.34" y1="334.80" y2="334.80" />
<line x1="605.61" x2="605.61" y1="334.80" y2="334.80" />
<line x1="606.89" x2="606.89" y1="334.80" y2="334.80" />
<line x1="608.16" x2="608.16" y1="334.80" y2="334.80" />
<line x1="609.44" x2="609.44" y1="334.80" y2="334.80" />
<line x1="610.71" x2="610.71" y1="334.80" y2="334.80" />
<line x1="611.99" x2="611.99" y1="334.80" y2="334.80" />
<line x1="613.26" x2="613.26" y1="334.80" y2="334.80" />
<line x1="614.53" x2="614.53" y1="334.80" y2="334.80" />
<line x1="615.81" x2="615.81" y1="334.80" y2="334.80" />
<line x1="617.08" x2="617.08" y1="293.76" y2="334.80" />
<line x1="618.36" x2="618.36" y1="314.73" y2="334.80" />
<line x1="619.63" x2="619.63" y1="334.80" y2="334.80" />
<line x1="620.90" x2="620.90" y1="328.78" y2="334.80" />
<line x1="622.18" x2="622.18" y1="329.79" y2="334.80" />
<line x1="623.45" x2="623.45" y1="329.24" y2="334.80" />
<line x1="624.73" x2="624.73" y1="311.22" y2="334.80" />
<line x1="626.00" x2="626.00" y1="194.07" y2="334.80" />
<line x1="627.27" x2="627.27" y1="319.71" y2="334.80" />
<line x1="628.55" x2="628.55" y1="320.84" y2="334.80" />
<line x1="629.82" x2="629.82" y1="294.20" y2="334.80" />
<line x1="631.10" x2="631.10" y1="327.38" y2="334.80" />
<line x1="632.37" x2="632.37" y1="331.26" y2="334.80" />
<line x1="633.64" x2="633.64" y1="271.11" y2="334.80" />
<line x1="634.92" x2="634.92" y1="271.64" y2="334.80" />
<line x1="636.19" x2="636.19" y1="334.80" y2="334.80" />
<line x1="637.47" x2="637.47" y1="296.10" y2="334.80" />
<line x1="638.74" x2="638.74" y1="318.72" y2="334.80" />
<line x1="640.01" x2="640.01" y1="330.30" y2="334.80" />
<line x1="641.29" x2="641.29" y1="331.33" y2="334.80" />
<line x1="642.56" x2="642.56" y1="334.58" y2="334.80" />
<line x1="643.84" x2="643.84" y1="333.74" y2="334.80" />
<line x1="645.11" x2="645.11" y1="334.23" y2="334.80" />
<line x1="646.39" x2="646.39" y1="332.76" y2="334.80" />
<line x1="647.66" x2="647.66" y1="327.70" y2="334.80" />
<line x1="648.93" x2="648.93" y1="333.67" y2="334.80" />
<line x1="650.21" x2="650.21" y1="334.57" y2="334.80" />
<line x1="651.48" x2="651.48" y1="333.06" y2="334.80" />
<line x1="652.76" x2="652.76" y1="328.13" y2="334.80" />
<line x1="654.03" x2="654.03" y1="330.92" y2="334.80" />
<line x1="655.30" x2="655.30" y1="303.44" y2="334.80" />
<line x1="656.58" x2="656.58" y1="301.94" y2="334.80" />
<line x1="657.85" x2="657.85" y1="316.67" y2="334.80" />
<line x1="659.13" x2="659.13" y1="329.37" y2="334.80" />
<line x1="660.40" x2="660.40" y1="334.80" y2="334.80" />
<line x1="661.67" x2="661.67" y1="327.84" y2="334.80" />
<line x1="662.95" x2="662.95" y1="329.48" y2="334.80" />
<line x1="664.22" x2="664.22" y1="325.22" y2="334.80" />
<line x1="665.50" x2="665.50" y1="323.76" y2="334.80" />
<line x1="666.77" x2="666.77" y1="334.80" y2="334.80" />
<line x1="668.04" x2="668.04" y1="334.80" y2="334.80" />
<line x1="669.32" x2="669.32" y1="334.80" y2="334.80" />
<line x1="670.59" x2="670.59" y1="334.80" y2="334.80" />
<line x1="671.87" x2="671.87" y1="334.80" y2="334.80" />
<line x1="673.14" x2="673.14" y1="334.80" y2="334.80" />
<line x1="674.41" x2="674.41" y1="330.69" y2="334.80" />
<line x1="675.69" x2="675.69" y1="331.41" y2="334.80" />
<line x1="676.96" x2="676.96" y1="334.80" y2="334.80" />
<line x1="678.24" x2="678.24" y1="334.80" y2="334.80" />
<line x1="679.51" x2="679.51" y1="334.80" y2="334.80" />
<line x1="680.79" x2="680.79" y1="334.80" y2="334.80" />
<line x1="682.06" x2="682.06" y1="334.80" y2="334.80" />
<line x1="683.33" x2="683.33" y1="334.80" y2="334.80" />
<line x1="684.61" x2="684.61" y1="334.80" y2="334.80" />
<line x1="685.88" x2="685.88" y1="334.80" y2="334.80" />
<line x1="687.16" x2="687.16" y1="334.80" y2="334.80" />
<line x1="688.43" x2="688.43" y1="334.80" y2="334.80" />
<line x1="689.70" x2="689.70" y1="321.49" y2="334.80" />
<line x1="690.98" x2="690.98" y1="334.80" y2="334.80" />
<line x1="692.25" x2="692.25" y1="334.80" y2="334.80" />
<line x1="693.53" x2="693.53" y1="334.80" y2="334.80" />
<line x1="694.80" x2="694.80" y1="330.75" y2="334.80" />
<line x1="696.07" x2="696.07" y1="329.00" y2="334.80" />
<line x1="697.35" x2="697.35" y1="320.01" y2="334.80" />
<line x1="698.62" x2="698.62" y1="334.80" y2="334.80" />
<line x1="699.90" x2="699.90" y1="334.80" y2="334.80" />
<line x1="701.17" x2="701.17" y1="334.80" y2="334.80" />
<line x1="702.44" x2="702.44" y1="334.80" y2="334.80" />
<line x1="703.72" x2="703.72" y1="334.80" y2="334.80" />
<line x1="704.99" x2="704.99" y1="334.80" y2="334.80" />
<line x1="706.27" x2="706.27" y1="334.80" y2="334.80" />
<line x1="707.54" x2="707.54" y1="334.80" y2="334.80" />
<line x1="708.81" x2="708.81" y1="325.68" y2="334.80" />
<line x1="710.09" x2="710.09" y1="327.54" y2="334.80" />
<line x1="711.36" x2="711.36" y1="300.10" y2="334.80" />
<line x1="712.64" x2="712.64" y1="305.43" y2="334.80" />
<line x1="713.91" x2="713.91" y1="316.51" y2="334.80" />
<line x1="715.19" x2="715.19" y1="334.80" y2="334.80" />
<line x1="716.46" x2="716.46" y1="291.34" y2="334.80" />
<line x1="717.73" x2="717.73" y1="233.40" y2="334.80" />
<line x1="719.01" x2="719.01" y1="287.23" y2="334.80" />
<line x1="720.28" x2="720.28" y1="330.76" y2="334.80" />
<line x1="721.56" x2="721.56" y1="334.02" y2="334.80" />
<line x1="722.83" x2="722.83" y1="333.43" y2="334.80" />
<line x1="724.10" x2="724.10" y1="331.02" y2="334.80" />
<line x1="725.38" x2="725.38" y1="323.32" y2="334.80" />
<line x1="726.65" x2="726.65" y1="328.82" y2="334.80" />
<line x1="727.93" x2="727.93" y1="334.80" y2="334.80" />
<line x1="729.20" x2="729.20" y1="325.60" y2="334.80" />
<line x1="730.47" x2="730.47" y1="329.04" y2="334.80" />
<line x1="731.75" x2="731.75" y1="323.31" y2="334.80" />
<line x1="733.02" x2="733.02" y1="331.51" y2="334.80" />
<line x1="734.30" x2="734.30" y1="331.27" y2="334.80" />
<line x1="735.57" x2="735.57" y1="334.73" y2="334.80" />
<line x1="736.84" x2="736.84" y1="334.49" y2="334.80" />
<line x1="738.12" x2="738.12" y1="333.77" y2="334.80" />
<line x1="739.39" x2="739.39" y1="330.22" y2="334.80" />
<line x1="740.67" x2="740.67" y1="334.80" y2="334.80" />
<line x1="741.94" x2="741.94" y1="334.80" y2="334.80" />
<line x1="743.21" x2="743.21" y1="331.64" y2="334.80" />
<line x1="744.49" x2="744.49" y1="333.53" y2="334.80" />
<line x1="745.76" x2="745.76" y1="334.06" y2="334.80" />
<line x1="747.04" x2="747.04" y1="334.80" y2="334.80" />
<line x1="748.31" x2="748.31" y1="330.01" y2="334.80" />
<line x1="749.59" x2="749.59" y1="334.80" y2="334.80" />
<line x1="750.86" x2="750.86" y1="326.90" y2="334.80" />
<line x1="752.13" x2="752.13" y1="333.04" y2="334.80" />
<line x1="753.41" x2="753.41" y1="332.64" y2="334.80" />
<line x1="754.68" x2="754.68" y1="321.50" y2="334.80" />
<line x1="755.96" x2="755.96" y1="306.88" y2="334.80" />
<line x1="757.23" x2="757.23" y1="334.80" y2="334.80" />
<line x1="758.50" x2="758.50" y1="326.11" y2="334.80" />
<line x1="759.78" x2="759.78" y1="334.80" y2="334.80" />
<line x1="761.05" x2="761.05" y1="324.53" y2="334.80" />
<line x1="762.33" x2="762.33" y1="316.26" y2="334.80" />
<line x1="763.60" x2="763.60" y1="322.79" y2="334.80" />
<line x1="764.87" x2="764.87" y1="334.80" y2="334.80" />
<line x1="766.15" x2="766.15" y1="334.80" y2="334.80" />
<line x1="767.42" x2="767.42" y1="334.80" y2="334.80" />
<line x1="768.70" x2="768.70" y1="334.80" y2="334.80" />
<line x1="769.97" x2="769.97" y1="334.80" y2="334.80" />
<line x1="771.24" x2="771.24" y1="334.80" y2="334.80" />
<line x1="772.52" x2="772.52" y1="334.80" y2="334.80" />
<line x1="773.79" x2="773.79" y1="334.80" y2="334.80" />
<line x1="775.07" x2="775.07" y1="334.80" y2="334.80" />
<line x1="776.34" x2="776.34" y1="334.80" y2="334.80" />
<line x1="777.61" x2="777.61" y1="334.80" y2="334.80" />
<line x1="778.89" x2="778.89" y1="334.80" y2="334.80" />
<line x1="780.16" x2="780.16" y1="334.80" y2="334.80" />
<line x1="781.44" x2="781.44" y1="334.80" y2="334.80" />
<line x1="782.71" x2="782.71" y1="334.80" y2="334.80" />
<line x1="783.99" x2="783.99" y1="334.80" y2="334.80" />
<line x1="785.26" x2="785.26" y1="312.07" y2="334.80" />
<line x1="786.53" x2="786.53" y1="334.80" y2="334.80" />
<line x1="787.81" x2="787.81" y1="334.80" y2="334.80" />
<line x1="789.08" x2="789.08" y1="334.80" y2="334.80" />
<line x1="790.36" x2="790.36" y1="328.77" y2="334.80" />
<line x1="791.63" x2="791.63" y1="334.80" y2="334.80" />
<line x1="792.90" x2="792.90" y1="334.80" y2="334.80" />
<line x1="794.18" x2="794.18" y1="327.49" y2="334.80" />
<line x1="795.45" x2="795.45" y1="334.80" y2="334.80" />
<line x1="796.73" x2="796.73" y1="311.34" y2="334.80" />
<line x1="798.00" x2="798.00" y1="319.98" y2="334.80" />
<line x1="799.27" x2="799.27" y1="324.65" y2="334.80" />
<line x1="800.55" x2="800.55" y1="319.16" y2="334.80" />
<line x1="801.82" x2="801.82" y1="316.99" y2="334.80" />
<line x1="803.10" x2="803.10" y1="332.21" y2="334.80" />
<line x1="804.37" x2="804.37" y1="323.69" y2="334.80" />
<line x1="805.64" x2="805.64" y1="285.97" y2="334.80" />
<line x1="806.92" x2="806.92" y1="324.63" y2="334.80" />
<line x1="808.19" x2="808.19" y1="313.07" y2="334.80" />
<line x1="809.47" x2="809.47" y1="334.80" y2="334.80" />
<line x1="810.74" x2="810.74" y1="328.26" y2="334.80" />
<line x1="812.01" x2="812.01" y1="317.08" y2="334.80" />
<line x1="813.29" x2="813.29" y1="300.58" y2="334.80" />
<line x1="814.56" x2="814.56" y1="295.14" y2="334.80" />
<line x1="815.84" x2="815.84" y1="322.93" y2="334.80" />
<line x1="817.11" x2="817.11" y1="329.64" y2="334.80" />
<line x1="818.39" x2="818.39" y1="329.72" y2="334.80" />
<line x1="819.66" x2="819.66" y1="279.90" y2="334.80" />
<line x1="820.93" x2="820.93" y1="334.80" y2="334.80" />
<line x1="822.21" x2="822.21" y1="333.28" y2="334.80" />
<line x1="823.48" x2="823.48" y1="333.20" y2="334.80" />
<line x1="824.76" x2="824.76" y1="334.50" y2="334.80" />
<line x1="826.03" x2="826.03" y1="334.10" y2="334.80" />
<line x1="827.30" x2="827.30" y1="334.80" y2="334.80" />
<line x1="828.58" x2="828.58" y1="334.80" y2="334.80" />
<line x1="829.85" x2="829.85" y1="334.80" y2="334.80" />
<line x1="831.13" x2="831.13" y1="334.50" y2="334.80" />
<line x1="832.40" x2="832.40" y1="334.15" y2="334.80" />
<line x1="833.67" x2="833.67" y1="334.80" y2="334.80" />
<line x1="834.95" x2="834.95" y1="334.63" y2="334.80" />
<line x1="836.22" x2="836.22" y1="334.10" y2="334.80" />
<line x1="837.50" x2="837.50" y1="334.34" y2="334.80" />
<line x1="838.77" x2="838.77" y1="332.90" y2="334.80" />
<line x1="840.04" x2="840.04" y1="325.82" y2="334.80" />
<line x1="841.32" x2="841.32" y1="327.63" y2="334.80" />
<line x1="842.59" x2="842.59" y1="323.52" y2="334.80" />
<line x1="843.87" x2="843.87" y1="334.80" y2="334.80" />
<line x1="845.14" x2="845.14" y1="326.83" y2="334.80" />
<line x1="846.41" x2="846.41" y1="334.80" y2="334.80" />
<line x1="847.69" x2="847.69" y1="333.25" y2="334.80" />
<line x1="848.96" x2="848.96" y1="334.80" y2="334.80" />
<line x1="850.24" x2="850.24" y1="334.80" y2="334.80" />
<line x1="851.51" x2="851.51" y1="334.80" y2="334.80" />
<line x1="852.79" x2="852.79" y1="328.33" y2="334.80" />
<line x1="854.06" x2="854.06" y1="329.02" y2="334.80" />
<line x1="855.33" x2="855.33" y1="334.80" y2="334.80" />
<line x1="856.61" x2="856.61" y1="334.80" y2="334.80" />
<line x1="857.88" x2="857.88" y1="325.95" y2="334.80" />
<line x1="859.16" x2="859.16" y1="334.80" y2="334.80" />
<line x1="860.43" x2="860.43" y1="334.80" y2="334.80" />
<line x1="861.70" x2="861.70" y1="334.80" y2="334.80" />
<line x1="862.98" x2="862.98" y1="322.23" y2="334.80" />
<line x1="864.25" x2="864.25" y1="334.80" y2="334.80" />
<line x1="865.53" x2="865.53" y1="334.80" y2="334.80" />
<line x1="866.80" x2="866.80" y1="334.80" y2="334.80" />
<line x1="868.07" x2="868.07" y1="326.43" y2="334.80" />
<line x1="869.35" x2="869.35" y1="334.80" y2="334.80" />
<line x1="870.62" x2="870.62" y1="334.80" y2="334.80" />
<line x1="871.90" x2="871.90" y1="334.80" y2="334.80" />
<line x1="873.17" x2="873.17" y1="334.80" y2="334.80" />
<line x1="874.44" x2="874.44" y1="334.80" y2="334.80" />
<line x1="875.72" x2="875.72" y1="334.80" y2="334.80" />
<line x1="876.99" x2="876.99" y1="334.80" y2="334.80" />
<line x1="878.27" x2="878.27" y1="334.80" y2="334.80" />
<line x1="879.54" x2="879.54" y1="334.80" y2="334.80" />
<line x1="880.81" x2="880.81" y1="334.80" y2="334.80" />
<line x1="882.09" x2="882.09" y1="334.80" y2="334.80" />
<line x1="883.36" x2="883.36" y1="334.80" y2="334.80" />
<line x1="884.64" x2="884.64" y1="334.80" y2="334.80" />
<line x1="885.91" x2="885.91" y1="334.80" y2="334.80" />
<line x1="887.19" x2="887.19" y1="329.04" y2="334.80" />
<line x1="888.46" x2="888.46" y1="324.41" y2="334.80" />
<line x1="889.73" x2="889.73" y1="334.80" y2="334.80" />
<line x1="891.01" x2="891.01" y1="334.80" y2="334.80" />
<line x1="892.28" x2="892.28" y1="312.12" y2="334.80" />
<line x1="893.56" x2="893.56" y1="302.64" y2="334.80" />
<line x1="894.83" x2="894.83" y1="322.33" y2="334.80" />
<line x1="896.10" x2="896.10" y1="329.14" y2="334.80" />
<line x1="897.38" x2="897.38" y1="334.80" y2="334.80" />
<line x1="898.65" x2="898.65" y1="324.70" y2="334.80" />
<line x1="899.93" x2="899.93" y1="330.09" y2="334.80" />
<line x1="901.20" x2="901.20" y1="326.17" y2="334.80" />
<line x1="902.47" x2="902.47" y1="327.44" y2="334.80" />
<line x1="903.75" x2="903.75" y1="323.24" y2="334.80" />
<line x1="905.02" x2="905.02" y1="330.24" y2="334.80" />
<line x1="906.30" x2="906.30" y1="334.52" y2="334.80" />
<line x1="907.57" x2="907.57" y1="332.18" y2="334.80" />
<line x1="908.84" x2="908.84" y1="329.99" y2="334.80" />
<line x1="910.12" x2="910.12" y1="334.51" y2="334.80" />
<line x1="911.39" x2="911.39" y1="333.83" y2="334.80" />
<line x1="912.67" x2="912.67" y1="334.17" y2="334.80" />
<line x1="913.94" x2="913.94" y1="333.89" y2="334.80" />
<line x1="915.21" x2="915.21" y1="333.79" y2="334.80" />
<line x1="916.49" x2="916.49" y1="334.80" y2="334.80" />
<line x1="917.76" x2="917.76" y1="334.80" y2="334.80" />
<line x1="919.04" x2="919.04" y1="334.80" y2="334.80" />
<line x1="920.31" x2="920.31" y1="333.77" y2="334.80" />
<line x1="921.59" x2="921.59" y1="333.45" y2="334.80" />
<line x1="922.86" x2="922.86" y1="331.56" y2="334.80" />
<line x1="924.13" x2="924.13" y1="327.90" y2="334.80" />
<line x1="925.41" x2="925.41" y1="334.18" y2="334.80" />
<line x1="926.68" x2="926.68" y1="334.80" y2="334.80" />
<line x1="927.96" x2="927.96" y1="332.91" y2="334.80" />
<line x1="929.23" x2="929.23" y1="332.92" y2="334.80" />
<line x1="930.50" x2="930.50" y1="334.80" y2="334.80" />
<line x1="931.78" x2="931.78" y1="334.80" y2="334.80" />
<line x1="933.05" x2="933.05" y1="331.55" y2="334.80" />
<line x1="934.33" x2="934.33" y1="334.21" y2="334.80" />
<line x1="935.60" x2="935.60" y1="330.86" y2="334.80" />
<line x1="936.87" x2="936.87" y1="331.28" y2="334.80" />
<line x1="938.15" x2="938.15" y1="323.33" y2="334.80" />
<line x1="939.42" x2="939.42" y1="318.92" y2="334.80" />
<line x1="940.70" x2="940.70" y1="321.00" y2="334.80" />
<line x1="941.97" x2="941.97" y1="298.34" y2="334.80" />
<line x1="943.24" x2="943.24" y1="327.25" y2="334.80" />
<line x1="944.52" x2="944.52" y1="315.00" y2="334.80" />
<line x1="945.79" x2="945.79" y1="325.44" y2="334.80" />
<line x1="947.07" x2="947.07" y1="334.80" y2="334.80" />
<line x1="948.34" x2="948.34" y1="334.80" y2="334.80" />
<line x1="949.61" x2="949.61" y1="334.80" y2="334.80" />
<line x1="950.89" x2="950.89" y1="334.80" y2="334.80" />
<line x1="952.16" x2="952.16" y1="334.80" y2="334.80" />
<line x1="953.44" x2="953.44" y1="334.80" y2="334.80" />
<line x1="954.71" x2="954.71" y1="334.80" y2="334.80" />
<line x1="955.99" x2="955.99" y1="325.07" y2="334.80" />
<line x1="957.26" x2="957.26" y1="320.82" y2="334.80" />
<line x1="958.53" x2="958.53" y1="334.80" y2="334.80" />
<line x1="959.81" x2="959.81" y1="323.95" y2="334.80" />
<line x1="961.08" x2="961.08" y1="334.80" y2="334.80" />
<line x1="962.36" x2="962.36" y1="334.80" y2="334.80" />
<line x1="963.63" x2="963.63" y1="327.67" y2="334.80" />
<line x1="964.90" x2="964.90" y1="322.93" y2="334.80" />
<line x1="966.18" x2="966.18" y1="334.80" y2="334.80" />
<line x1="967.45" x2="967.45" y1="334.80" y2="334.80" />
<line x1="968.73" x2="968.73" y1="334.80" y2="334.80" />
<line x1="970.00" x2="970.00" y1="334.80" y2="334.80" />
<line x1="971.27" x2="971.27" y1="334.80" y2="334.80" />
<line x1="972.55" x2="972.55" y1="331.21" y2="334.80" />
<line x1="973.82" x2="973.82" y1="324.87" y2="334.80" />
<line x1="975.10" x2="975.10" y1="322.23" y2="334.80" />
<line x1="976.37" x2="976.37" y1="312.89" y2="334.80" />
<line x1="977.64" x2="977.64" y1="334.80" y2="334.80" />
<line x1="978.92" x2="978.92" y1="334.80" y2="334.80" />
<line x1="980.19" x2="980.19" y1="334.80" y2="334.80" />
<line x1="981.47" x2="981.47" y1="334.80" y2="334.80" />
<line x1="982.74" x2="982.74" y1="320.00" y2="334.80" />
<line x1="984.01" x2="984.01" y1="334.80" y2="334.80" />
<line x1="985.29" x2="985.29" y1="334.80" y2="334.80" />
<line x1="986.56" x2="986.56" y1="334.80" y2="334.80" />
<line x1="987.84" x2="987.84" y1="326.25" y2="334.80" />
<line x1="989.11" x2="989.11" y1="334.80" y2="334.80" />
<line x1="990.39" x2="990.39" y1="330.22" y2="334.80" />
<line x1="991.66" x2="991.66" y1="325.59" y2="334.80" />
<line x1="992.93" x2="992.93" y1="325.59" y2="334.80" />
<line x1="994.21" x2="994.21" y1="317.89" y2="334.80" />
<line x1="995.48" x2="995.48" y1="314.16" y2="334.80" />
<line x1="996.76" x2="996.76" y1="293.98" y2="334.80" />
<line x1="998.03" x2="998.03" y1="314.20" y2="334.80" />
<line x1="999.30" x2="999.30" y1="334.23" y2="334.80" />
<line x1="1000.58" x2="1000.58" y1="312.51" y2="334.80" />
<line x1="1001.85" x2="1001.85" y1="317.12" y2="334.80" />
<line x1="1003.13" x2="1003.13" y1="313.37" y2="334.80" />
<line x1="1004.40" x2="1004.40" y1="333.68" y2="334.80" />
</g>
<g stroke="#0008">
<line x1="75.60" x2="75.60" y1="334.80" y2="344.80" />
<line x1="168.61" x2="168.61" y1="334.80" y2="344.80" />
<line x1="261.61" x2="261.61" y1="334.80" y2="344.80" />
<line x1="354.62" x2="354.62" y1="334.80" y2="344.80" />
<line x1="447.63" x2="447.63" y1="334.80" y2="344.80" />
<line x1="540.64" x2="540.64" y1="334.80" y2="344.80" />
<line x1="633.64" x2="633.64" y1="334.80" y2="344.80" />
<line x1="726.65" x2="726.65" y1="334.80" y2="344.80" />
<line x1="819.66" x2="819.66" y1="334.80" y2="344.80" />
<line x1="912.67" x2="912.67" y1="334.80" y2="344.80" />
<g fill="black" font-family="Arial, sans-serif" font-size="18.0" stroke="none" text-anchor="start" transform="translate(9.0 0.0)">
<text x="75.60" y="355.37">2011</text>
<text x="168.61" y="355.37">2012</text>
<text x="261.61" y="355.37">2013</text>
<text x="354.62" y="355.37">2014</text>
<text x="447.63" y="355.37">2015</text>
<text x="540.64" y="355.37">2016</text>
<text x="633.64" y="355.37">2017</text>
<text x="726.65" y="355.37">2018</text>
<text x="819.66" y="355.37">2019</text>
<text x="912.67" y="355.37">2020</text>
</g>
<line x1="75.60" x2="1004.40" y1="334.80" y2="334.80" />
</g>
<g stroke="#0008">
<g fill="#0008" font-family="Arial, sans-serif" font-size="18.0" stroke="none" text-anchor="end" />
<line x1="75.60" x2="75.60" y1="334.80" y2="25.20" />
</g>
</g>
</svg>