<?xml version="1.0"?>
<svg height="360.0" version="1.1" viewBox="0 0 1080.0 360" width="1080.0" xmlns:xlink="http://www.w3.org/1999/xlink" xmlns="http://www.w3.org/2000/svg">
<g>
<g stroke-dasharray="3.6 7.2" stroke-width="0.72" stroke="#caa">
<line x1="75.60" x2="75.60" y1="334.80" y2="25.20" />
<line x1="543.20" x2="543.20" y1="334.80" y2="25.20" />
</g>
<g fill="none" stroke-width="3.6986301369863015" stroke="#00aa88">
<line x1="75.60" x2="75.60" y1="334.80" y2="334.80" />
<line x1="82.01" x2="82.01" y1="334.80" y2="334.80" />
<line x1="88.41" x2="88.41" y1="331.26" y2="334.80" />
<line x1="94.82" x2="94.82" y1="334.80" y2="334.80" />
<line x1="101.22" x2="101.22" y1="334.80" y2="334.80" />
<line x1="107.63" x2="107.63" y1="334.80" y2="334.80" />
<line x1="114.03" x2="114.03" y1="334.80" y2="334.80" />
<line x1="120.44" x2="120.44" y1="334.80" y2="334.80" />
<line x1="126.84" x2="126.84" y1="334.80" y2="334.80" />
<line x1="133.25" x2="133.25" y1="332.84" y2="334.80" />
<line x1="139.66" x2="139.66" y1="334.80" y2="334.80" />
<line x1="146.06" x2="146.06" y1="325.91" y2="334.80" />
<line x1="152.47" x2="152.47" y1="328.47" y2="334.80" />
<line x1="158.87" x2="158.87" y1="334.80" y2="334.80" />
<line x1="165.28" x2="165.28" y1="315.97" y2="334.80" />
<line x1="171.68" x2="171.68" y1="334.80" y2="334.80" />
<line x1="178.09" x2="178.09" y1="334.80" y2="334.80" />
<line x1="184.49" x2="184.49" y1="334.80" y2="334.80" />
<line x1="190.90" x2="190.90" y1="334.80" y2="334.80" />
<line x1="197.30" x2="197.30" y1="327.69" y2="334.80" />
<line x1="203.71" x2="203.71" y1="330.12" y2="334.80" />
<line x1="210.12" x2="210.12" y1="334.80" y2="334.80" />
<line x1="216.52" x2="216.52" y1="328.29" y2="334.80" />
<line x1="222.93" x2="222.93" y1="317.81" y2="334.80" />
<line x1="229.33" x2="229.33" y1="334.80" y2="334.80" />
<line x1="235.74" x2="235.74" y1="301.24" y2="334.80" />
<line x1="242.14" x2="242.14" y1="326.11" y2="334.80" />
<line x1="248.55" x2="248.55" y1="334.80" y2="334.80" />
<line x1="254.95" x2="254.95" y1="320.02" y2="334.80" />
<line x1="261.36" x2="261.36" y1="317.82" y2="334.80" />
<line x1="267.77" x2="267.77" y1="314.77" y2="334.80" />
<line x1="274.17" x2="274.17" y1="304.54" y2="334.80" />
<line x1="280.58" x2="280.58" y1="292.05" y2="334.80" />
<line x1="286.98" x2="286.98" y1="285.03" y2="334.80" />
<line x1="293.39" x2="293.39" y1="328.93" y2="334.80" />
<line x1="299.79" x2="299.79" y1="325.73" y2="334.80" />
<line x1="306.20" x2="306.20" y1="294.38" y2="334.80" />
<line x1="312.60" x2="312.60" y1="320.11" y2="334.80" />
<line x1="319.01" x2="319.01" y1="299.06" y2="334.80" />
<line x1="325.42" x2="325.42" y1="309.42" y2="334.80" />
<line x1="331.82" x2="331.82" y1="289.29" y2="334.80" />
<line x1="338.23" x2="338.23" y1="288.13" y2="334.80" />
<line x1="344.63" x2="344.63" y1="302.76" y2="334.80" />
<line x1="351.04" x2="351.04" y1="329.08" y2="334.80" />
<line x1="357.44" x2="357.44" y1="307.49" y2="334.80" />
<line x1="363.85" x2="363.85" y1="305.43" y2="334.80" />
<line x1="370.25" x2="370.25" y1="334.80" y2="334.80" />
<line x1="376.66" x2="376.66" y1="261.05" y2="334.80" />
<line x1="383.06" x2="383.06" y1="302.86" y2="334.80" />
<line x1="389.47" x2="389.47" y1="318.49" y2="334.80" />
<line x1="395.88" x2="395.88" y1="283.32" y2="334.80" />
<line x1="402.28" x2="402.28" y1="317.72" y2="334.80" />
<line x1="408.69" x2="408.69" y1="274.97" y2="334.80" />
<line x1="415.09" x2="415.09" y1="309.62" y2="334.80" />
<line x1="421.50" x2="421.50" y1="323.36" y2="334.80" />
<line x1="427.90" x2="427.90" y1="322.42" y2="334.80" />
<line x1="434.31" x2="434.31" y1="320.65" y2="334.80" />
<line x1="440.71" x2="440.71" y1="322.03" y2="334.80" />
<line x1="447.12" x2="447.12" y1="334.80" y2="334.80" />
<line x1="453.53" x2="453.53" y1="334.80" y2="334.80" />
<line x1="459.93" x2="459.93" y1="334.80" y2="334.80" />
<line x1="466.34" x2="466.34" y1="334.80" y2="334.80" />
<line x1="472.74" x2="472.74" y1="334.80" y2="334.80" />
<line x1="479.15" x2="479.15" y1="334.80" y2="334.80" />
<line x1="485.55" x2="485.55" y1="334.80" y2="334.80" />
<line x1="491.96" x2="491.96" y1="334.80" y2="334.80" />
<line x1="498.36" x2="498.36" y1="334.80" y2="334.80" />
<line x1="504.77" x2="504.77" y1="334.80" y2="334.80" />
<line x1="511.18" x2="511.18" y1="334.80" y2="334.80" />
<line x1="517.58" x2="517.58" y1="334.80" y2="334.80" />
<line x1="523.99" x2="523.99" y1="334.80" y2="334.80" />
<line x1="530.39" x2="530.39" y1="334.80" y2="334.80" />
<line x1="536.80" x2="536.80" y1="334.80" y2="334.80" />
<line x1="543.20" x2="543.20" y1="334.80" y2="334.80" />
<line x1="549.61" x2="549.61" y1="334.80" y2="334.80" />
<line x1="556.01" x2="556.01" y1="334.80" y2="334.80" />
<line x1="562.42" x2="562.42" y1="334.80" y2="334.80" />
<line x1="568.82" x2="568.82" y1="330.75" y2="334.80" />
<line x1="575.23" x2="575.23" y1="334.80" y2="334.80" />
<line x1="581.64" x2="581.64" y1="326.79" y2="334.80" />
<line x1="588.04" x2="588.04" y1="332.12" y2="334.80" />
<line x1="594.45" x2="594.45" y1="333.75" y2="334.80" />
<line x1="600.85" x2="600.85" y1="334.80" y2="334.80" />
<line x1="607.26" x2="607.26" y1="334.80" y2="334.80" />
<line x1="613.66" x2="613.66" y1="334.80" y2="334.80" />
<line x1="620.07" x2="620.07" y1="334.80" y2="334.80" />
<line x1="626.47" x2="626.47" y1="334.80" y2="334.80" />
<line x1="632.88" x2="632.88" y1="329.99" y2="334.80" />
<line x1="639.29" x2="639.29" y1="334.80" y2="334.80" />
<line x1="645.69" x2="645.69" y1="334.80" y2="334.80" />
<line x1="652.10" x2="652.10" y1="334.80" y2="334.80" />
<line x1="658.50" x2="658.50" y1="334.80" y2="334.80" />
<line x1="664.91" x2="664.91" y1="326.62" y2="334.80" />
<line x1="671.31" x2="671.31" y1="334.80" y2="334.80" />
<line x1="677.72" x2="677.72" y1="334.80" y2="334.80" />
<line x1="684.12" x2="684.12" y1="334.80" y2="334.80" />
<line x1="690.53" x2="690.53" y1="334.80" y2="334.80" />
<line x1="696.94" x2="696.94" y1="297.42" y2="334.80" />
<line x1="703.34" x2="703.34" y1="317.57" y2="334.80" />
<line x1="709.75" x2="709.75" y1="325.01" y2="334.80" />
<line x1="716.15" x2="716.15" y1="316.32" y2="334.80" />
<line x1="722.56" x2="722.56" y1="312.46" y2="334.80" />
<line x1="728.96" x2="728.96" y1="275.73" y2="334.80" />
<line x1="735.37" x2="735.37" y1="265.91" y2="334.80" />
<line x1="741.77" x2="741.77" y1="288.78" y2="334.80" />
<line x1="748.18" x2="748.18" y1="330.40" y2="334.80" />
<line x1="754.58" x2="754.58" y1="312.61" y2="334.80" />
<line x1="760.99" x2="760.99" y1="333.56" y2="334.80" />
<line x1="767.40" x2="767.40" y1="292.88" y2="334.80" />
<line x1="773.80" x2="773.80" y1="293.07" y2="334.80" />
<line x1="780.21" x2="780.21" y1="293.42" y2="334.80" />
<line x1="786.61" x2="786.61" y1="299.45" y2="334.80" />
<line x1="793.02" x2="793.02" y1="293.44" y2="334.80" />
<line x1="799.42" x2="799.42" y1="325.16" y2="334.80" />
<line x1="805.83" x2="805.83" y1="293.74" y2="334.80" />
<line x1="812.23" x2="812.23" y1="319.13" y2="334.80" />
<line x1="818.64" x2="818.64" y1="322.69" y2="334.80" />
<line x1="825.05" x2="825.05" y1="323.05" y2="334.80" />
<line x1="831.45" x2="831.45" y1="309.65" y2="334.80" />
<line x1="837.86" x2="837.86" y1="292.76" y2="334.80" />
<line x1="844.26" x2="844.26" y1="283.18" y2="334.80" />
<line x1="850.67" x2="850.67" y1="274.70" y2="334.80" />
<line x1="857.07" x2="857.07" y1="296.45" y2="334.80" />
<line x1="863.48" x2="863.48" y1="315.41" y2="334.80" />
<line x1="869.88" x2="869.88" y1="282.17" y2="334.80" />
<line x1="876.29" x2="876.29" y1="320.85" y2="334.80" />
<line x1="882.70" x2="882.70" y1="307.54" y2="334.80" />
<line x1="889.10" x2="889.10" y1="313.96" y2="334.80" />
<line x1="895.51" x2="895.51" y1="318.23" y2="334.80" />
<line x1="901.91" x2="901.91" y1="322.94" y2="334.80" />
<line x1="908.32" x2="908.32" y1="319.26" y2="334.80" />
<line x1="914.72" x2="914.72" y1="334.80" y2="334.80" />
<line x1="921.13" x2="921.13" y1="334.80" y2="334.80" />
<line x1="927.53" x2="927.53" y1="334.80" y2="334.80" />
<line x1="933.94" x2="933.94" y1="334.80" y2="334.80" />
<line x1="940.34" x2="940.34" y1="334.80" y2="334.80" />
<line x1="946.75" x2="946.75" y1="328.52" y2="334.80" />
<line x1="953.16" x2="953.16" y1="334.80" y2="334.80" />
<line x1="959.56" x2="959.56" y1="334.80" y2="334.80" />
<line x1="965.97" x2="965.97" y1="334.80" y2="334.80" />
<line x1="972.37" x2="972.37" y1="334.80" y2="334.80" />
<line x1="978.78" x2="978.78" y1="334.80" y2="334.80" />
<line x1="985.18" x2="985.18" y1="334.80" y2="334.80" />
<line x1="991.59" x2="991.59" y1="334.80" y2="334.80" />
<line x1="997.99" x2="997.99" y1="334.80" y2="334.80" />
<line x1="1004.40" x2="1004.40" y1="334.80" y2="334.80" />
</g>
<g fill="none" stroke-width="3.6986301369863015" stroke="#aa8800">
<line x1="75.60" x2="75.60" y1="321.23" y2="334.80" />
<line x1="82.01" x2="82.01" y1="315.99" y2="334.80" />
<line x1="88.41" x2="88.41" y1="334.80" y2="334.80" />
<line x1="94.82" x2="94.82" y1="334.16" y2="334.80" />
<line x1="101.22" x2="101.22" y1="324.66" y2="334.80" />
<line x1="107.63" x2="107.63" y1="317.04" y2="334.80" />
<line x1="114.03" x2="114.03" y1="333.27" y2="334.80" />
<line x1="120.44" x2="120.44" y1="334.56" y2="334.80" />
<line x1="126.84" x2="126.84" y1="334.26" y2="334.80" />
<line x1="133.25" x2="133.25" y1="334.80" y2="334.80" />
<line x1="139.66" x2="139.66" y1="325.30" y2="334.80" />
<line x1="146.06" x2="146.06" y1="334.80" y2="334.80" />
<line x1="152.47" x2="152.47" y1="334.80" y2="334.80" />
<line x1="158.87" x2="158.87" y1="314.07" y2="334.80" />
<line x1="165.28" x2="165.28" y1="334.80" y2="334.80" />
<line x1="171.68" x2="171.68" y1="306.41" y2="334.80" />
<line x1="178.09" x2="178.09" y1="194.07" y2="334.80" />
<line x1="184.49" x2="184.49" y1="205.07" y2="334.80" />
<line x1="190.90" x2="190.90" y1="328.88" y2="334.80" />
<line x1="197.30" x2="197.30" y1="334.80" y2="334.80" />
<line x1="203.71" x2="203.71" y1="334.80" y2="334.80" />
<line x1="210.12" x2="210.12" y1="330.45" y2="334.80" />
<line x1="216.52" x2="216.52" y1="334.80" y2="334.80" />
<line x1="222.93" x2="222.93" y1="334.80" y2="334.80" />
<line x1="229.33" x2="229.33" y1="326.55" y2="334.80" />
<line x1="235.74" x2="235.74" y1="334.80" y2="334.80" />
<line x1="242.14" x2="242.14" y1="334.80" y2="334.80" />
<line x1="248.55" x2="248.55" y1="309.20" y2="334.80" />
<line x1="254.95" x2="254.95" y1="334.80" y2="334.80" />
<line x1="261.36" x2="261.36" y1="334.80" y2="334.80" />
<line x1="267.77" x2="267.77" y1="334.80" y2="334.80" />
<line x1="274.17" x2="274.17" y1="334.80" y2="334.80" />
<line x1="280.58" x2="280.58" y1="334.80" y2="334.80" />
<line x1="286.98" x2="286.98" y1="334.80" y2="334.80" />
<line x1="293.39" x2="293.39" y1="334.80" y2="334.80" />
<line x1="299.79" x2="299.79" y1="334.80" y2="334.80" />
<line x1="306.20" x2="306.20" y1="334.80" y2="334.80" />
<line x1="312.60" x2="312.60" y1="334.80" y2="334.80" />
<line x1="319.01" x2="319.01" y1="334.80" y2="334.80" />
<line x1="325.42" x2="325.42" y1="334.80" y2="334.80" />
<line x1="331.82" x2="331.82" y1="334.80" y2="334.80" />
<line x1="338.23" x2="338.23" y1="334.80" y2="334.80" />
<line x1="344.63" x2="344.63" y1="334.80" y2="334.80" />
<line x1="351.04" x2="351.04" y1="334.80" y2="334.80" />
<line x1="357.44" x2="357.44" y1="334.80" y2="334.80" />
<line x1="363.85" x2="363.85" y1="334.80" y2="334.80" />
<line x1="370.25" x2="370.25" y1="317.03" y2="334.80" />
<line x1="376.66" x2="376.66" y1="334.80" y2="334.80" />
<line x1="383.06" x2="383.06" y1="334.80" y2="334.80" />
<line x1="389.47" x2="389.47" y1="334.80" y2="334.80" />
<line x1="395.88" x2="395.88" y1="334.80" y2="334.80" />
<line x1="402.28" x2="402.28" y1="334.80" y2="334.80" />
<line x1="408.69" x2="408.69" y1="334.80" y2="334.80" />
<line x1="415.09" x2="415.09" y1="334.80" y2="334.80" />
<line x1="421.50" x2="421.50" y1="334.80" y2="334.80" />
<line x1="427.90" x2="427.90" y1="334.80" y2="334.80" />
<line x1="434.31" x2="434.31" y1="334.80" y2="334.80" />
<line x1="440.71" x2="440.71" y1="334.80" y2="334.80" />
<line x1="447.12" x2="447.12" y1="298.43" y2="334.80" />
<line x1="453.53" x2="453.53" y1="300.02" y2="334.80" />
<line x1="459.93" x2="459.93" y1="319.85" y2="334.80" />
<line x1="466.34" x2="466.34" y1="322.88" y2="334.80" />
<line x1="472.74" x2="472.74" y1="326.09" y2="334.80" />
<line x1="479.15" x2="479.15" y1="307.28" y2="334.80" />
<line x1="485.55" x2="485.55" y1="312.38" y2="334.80" />
<line x1="491.96" x2="491.96" y1="295.45" y2="334.80" />
<line x1="498.36" x2="498.36" y1="330.39" y2="334.80" />
<line x1="504.77" x2="504.77" y1="322.24" y2="334.80" />
<line x1="511.18" x2="511.18" y1="315.42" y2="334.80" />
<line x1="517.58" x2="517.58" y1="312.21" y2="334.80" />
<line x1="523.99" x2="523.99" y1="332.39" y2="334.80" />
<line x1="530.39" x2="530.39" y1="326.91" y2="334.80" />
<line x1="536.80" x2="536.80" y1="316.28" y2="334.80" />
<line x1="543.20" x2="543.20" y1="278.38" y2="334.80" />
<line x1="549.61" x2="549.61" y1="333.08" y2="334.80" />
<line x1="556.01" x2="556.01" y1="297.88" y2="334.80" />
<line x1="562.42" x2="562.42" y1="310.67" y2="334.80" />
<line x1="568.82" x2="568.82" y1="334.80" y2="334.80" />
<line x1="575.23" x2="575.23" y1="314.35" y2="334.80" />
<line x1="581.64" x2="581.64" y1="334.80" y2="334.80" />
<line x1="588.04" x2="588.04" y1="334.80" y2="334.80" />
<line x1="594.45" x2="594.45" y1="334.80" y2="334.80" />
<line x1="600.85" x2="600.85" y1="309.23" y2="334.80" />
<line x1="607.26" x2="607.26" y1="332.93" y2="334.80" />
<line x1="613.66" x2="613.66" y1="324.76" y2="334.80" />
<line x1="620.07" x2="620.07" y1="314.47" y2="334.80" />
<line x1="626.47" x2="626.47" y1="319.99" y2="334.80" />
<line x1="632.88" x2="632.88" y1="334.80" y2="334.80" />
<line x1="639.29" x2="639.29" y1="329.27" y2="334.80" />
<line x1="645.69" x2="645.69" y1="329.11" y2="334.80" />
<line x1="652.10" x2="652.10" y1="318.05" y2="334.80" />
<line x1="658.50" x2="658.50" y1="310.49" y2="334.80" />
<line x1="664.91" x2="664.91" y1="334.80" y2="334.80" />
<line x1="671.31" x2="671.31" y1="315.04" y2="334.80" />
<line x1="677.72" x2="677.72" y1="314.39" y2="334.80" />
<line x1="684.12" x2="684.12" y1="327.98" y2="334.80" />
<line x1="690.53" x2="690.53" y1="320.89" y2="334.80" />
<line x1="696.94" x2="696.94" y1="334.80" y2="334.80" />
<line x1="703.34" x2="703.34" y1="334.80" y2="334.80" />
<line x1="709.75" x2="709.75" y1="334.80" y2="334.80" />
<line x1="716.15" x2="716.15" y1="334.80" y2="334.80" />
<line x1="722.56" x2="722.56" y1="334.80" y2="334.80" />
<line x1="728.96" x2="728.96" y1="334.80" y2="334.80" />
<line x1="735.37" x2="735.37" y1="334.80" y2="334.80" />
<line x1="741.77" x2="741.77" y1="334.80" y2="334.80" />
<line x1="748.18" x2="748.18" y1="334.80" y2="334.80" />
<line x1="754.58" x2="754.58" y1="334.80" y2="334.80" />
<line x1="760.99" x2="760.99" y1="334.80" y2="334.80" />
<line x1="767.40" x2="767.40" y1="334.80" y2="334.80" />
<line x1="773.80" x2="773.80" y1="334.80" y2="334.80" />
<line x1="780.21" x2="780.21" y1="334.80" y2="334.80" />
<line x1="786.61" x2="786.61" y1="334.80" y2="334.80" />
<line x1="793.02" x2="793.02" y1="334.80" y2="334.80" />
<line x1="799.42" x2="799.42" y1="334.80" y2="334.80" />
<line x1="805.83" x2="805.83" y1="334.80" y2="334.80" />
<line x1="812.23" x2="812.23" y1="334.80" y2="334.80" />
<line x1="818.64" x2="818.64" y1="334.80" y2="334.80" />
<line x1="825.05" x2="825.05" y1="334.80" y2="334.80" />
<line x1="831.45" x2="831.45" y1="334.80" y2="334.80" />
<line x1="837.86" x2="837.86" y1="334.80" y2="334.80" />
<line x1="844.26" x2="844.26" y1="334.80" y2="334.80" />
<line x1="850.67" x2="850.67" y1="334.80" y2="334.80" />
<line x1="857.07" x2="857.07" y1="334.80" y2="334.80" />
<line x1="863.48" x2="863.48" y1="334.80" y2="334.80" />
<line x1="869.88" x2="869.88" y1="334.80" y2="334.80" />
<line x1="876.29" x2="876.29" y1="334.80" y2="334.80" />
<line x1="882.70" x2="882.70" y1="334.80" y2="334.80" />
<line x1="889.10" x2="889.10" y1="334.80" y2="334.80" />
<line x1="895.51" x2="895.51" y1="334.80" y2="334.80" />
<line x1="901.91" x2="901.91" y1="334.80" y2="334.80" />
<line x1="908.32" x2="908.32" y1="334.80" y2="334.80" />
<line x1="914.72" x2="914.72" y1="311.11" y2="334.80" />
<line x1="921.13" x2="921.13" y1="305.75" y2="334.80" />
<line x1="927.53" x2="927.53" y1="326.00" y2="334.80" />
<line x1="933.94" x2="933.94" y1="317.83" y2="334.80" />
<line x1="940.34" x2="940.34" y1="320.39" y2="334.80" />
<line x1="946.75" x2="946.75" y1="334.80" y2="334.80" />
<line x1="953.16" x2="953.16" y1="306.50" y2="334.80" />
<line x1="959.56" x2="959.56" y1="281.74" y2="334.80" />
<line x1="965.97" x2="965.97" y1="279.31" y2="334.80" />
<line x1="972.37" x2="972.37" y1="332.57" y2="334.80" />
<line x1="978.78" x2="978.78" y1="323.12" y2="334.80" />
<line x1="985.18" x2="985.18" y1="296.45" y2="334.80" />
<line x1="991.59" x2="991.59" y1="322.03" y2="334.80" />
<line x1="997.99" x2="997.99" y1="315.35" y2="334.80" />
<line x1="1004.40" x2="1004.40" y1="317.88" y2="334.80" />
</g>
<g stroke="#0008">
<line x1="75.60" x2="75.60" y1="334.80" y2="344.80" />
<line x1="543.20" x2="543.20" y1="334.80" y2="344.80" />
<g fill="black" font-family="Arial, sans-serif" font-size="18.0" stroke="none" text-anchor="start" transform="translate(9.0 0.0)">
<text x="75.60" y="355.37">2011</text>
<text x="543.20" y="355.37">2012</text>
</g>
<line x1="75.60" x2="1004.40" y1="334.80" y2="334.80" />
</g>
<g stroke="#0008">
<g fill="#0008" font-family="Arial, sans-serif" font-size="18.0" stroke="none" text-anchor="end" />
<line x1="75.60" x2="75.60" y1="334.80" y2="25.20" />
</g>
</g>
</svg>