<?xml version="1.0" encoding="UTF-8" standalone="no"?>
<!-- Created with Inkscape (http://www.inkscape.org/) -->
<svg xmlns:svg="http://www.w3.org/2000/svg" xmlns="http://www.w3.org/2000/svg" xmlns:inkscape="http://www.inkscape.org/namespaces/inkscape" version="1.0" width="661.42859" height="582.05713" id="svg1901">
  <defs id="defs1903">
    <filter id="filter3258">
      <feGaussianBlur id="feGaussianBlur3260" stdDeviation="1.6233767" inkscape:collect="always"/>
    </filter>
  </defs>
  <g transform="translate(-2.1428561,-12.64791)" id="layer1" style="opacity:1">
    <rect width="694.98492" height="628.31488" x="-8.0812206" y="-15.953177" transform="translate(2.1428561,12.64791)" id="rect4776" style="opacity:1;fill:#000000;fill-opacity:1;fill-rule:evenodd;stroke:none;stroke-width:5;stroke-miterlimit:4;stroke-dasharray:none;stroke-dashoffset:0;stroke-opacity:1"/>
    <path d="M 367.49999,293.84283 A 35.714287,35.714287 0 1 1 296.07142,293.84283 A 35.714287,35.714287 0 1 1 367.49999,293.84283 z" transform="translate(2.142856,12.64791)" id="path2450" style="opacity:1;fill:#fc7d05;fill-opacity:1;fill-rule:evenodd;stroke:none;stroke-width:2;stroke-miterlimit:4;stroke-dasharray:none;stroke-dashoffset:0;stroke-opacity:1;filter:url(#filter3258)"/>
    <path d="M 233.97659,104.76005 A 1.1364216,1.1364216 0 1 1 231.70374,104.76005 A 1.1364216,1.1364216 0 1 1 233.97659,104.76005 z" transform="matrix(-0.8995772,0,0,-0.8995772,832.57722,670.83732)" id="path3318" style="opacity:1;fill:#ffffff;fill-opacity:1;fill-rule:evenodd;stroke:none;stroke-width:44.99997711;stroke-miterlimit:4;stroke-dasharray:none;stroke-dashoffset:0;stroke-opacity:1"/>
    <path d="M 233.97659,104.76005 A 1.1364216,1.1364216 0 1 1 231.70374,104.76005 A 1.1364216,1.1364216 0 1 1 233.97659,104.76005 z" transform="matrix(-0.8995772,0,0,-0.8995772,757.57722,645.12303)" id="path4600" style="opacity:1;fill:#ffffff;fill-opacity:1;fill-rule:evenodd;stroke:none;stroke-width:44.99997711;stroke-miterlimit:4;stroke-dasharray:none;stroke-dashoffset:0;stroke-opacity:1"/>
    <path d="M 233.97659,104.76005 A 1.1364216,1.1364216 0 1 1 231.70374,104.76005 A 1.1364216,1.1364216 0 1 1 233.97659,104.76005 z" transform="matrix(-0.8995772,0,0,-0.8995772,750.07722,613.69446)" id="path4602" style="opacity:1;fill:#ffffff;fill-opacity:1;fill-rule:evenodd;stroke:none;stroke-width:44.99997711;stroke-miterlimit:4;stroke-dasharray:none;stroke-dashoffset:0;stroke-opacity:1"/>
    <path d="M 233.97659,104.76005 A 1.1364216,1.1364216 0 1 1 231.70374,104.76005 A 1.1364216,1.1364216 0 1 1 233.97659,104.76005 z" transform="matrix(-0.8995772,0,0,-0.8995772,734.07722,673.69446)" id="path4604" style="opacity:1;fill:#ffffff;fill-opacity:1;fill-rule:evenodd;stroke:none;stroke-width:44.99997711;stroke-miterlimit:4;stroke-dasharray:none;stroke-dashoffset:0;stroke-opacity:1"/>
    <path d="M 233.97659,104.76005 A 1.1364216,1.1364216 0 1 1 231.70374,104.76005 A 1.1364216,1.1364216 0 1 1 233.97659,104.76005 z" transform="matrix(-0.8995772,0,0,-0.8995772,664.07722,687.69446)" id="path4606" style="opacity:1;fill:#ffffff;fill-opacity:1;fill-rule:evenodd;stroke:none;stroke-width:44.99997711;stroke-miterlimit:4;stroke-dasharray:none;stroke-dashoffset:0;stroke-opacity:1"/>
    <path d="M 233.97659,104.76005 A 1.1364216,1.1364216 0 1 1 231.70374,104.76005 A 1.1364216,1.1364216 0 1 1 233.97659,104.76005 z" transform="matrix(-0.8995772,0,0,-0.8995772,666.07722,623.69446)" id="path4608" style="opacity:1;fill:#ffffff;fill-opacity:1;fill-rule:evenodd;stroke:none;stroke-width:44.99997711;stroke-miterlimit:4;stroke-dasharray:none;stroke-dashoffset:0;stroke-opacity:1"/>
    <path d="M 233.97659,104.76005 A 1.1364216,1.1364216 0 1 1 231.70374,104.76005 A 1.1364216,1.1364216 0 1 1 233.97659,104.76005 z" transform="matrix(-0.8995772,0,0,-0.8995772,668.07722,597.69446)" id="path4610" style="opacity:1;fill:#ffffff;fill-opacity:1;fill-rule:evenodd;stroke:none;stroke-width:44.99997711;stroke-miterlimit:4;stroke-dasharray:none;stroke-dashoffset:0;stroke-opacity:1"/>
    <path d="M 233.97659,104.76005 A 1.1364216,1.1364216 0 1 1 231.70374,104.76005 A 1.1364216,1.1364216 0 1 1 233.97659,104.76005 z" transform="matrix(-0.8995772,0,0,-0.8995772,616.07722,629.69446)" id="path4612" style="opacity:1;fill:#ffffff;fill-opacity:1;fill-rule:evenodd;stroke:none;stroke-width:44.99997711;stroke-miterlimit:4;stroke-dasharray:none;stroke-dashoffset:0;stroke-opacity:1"/>
    <path d="M 233.97659,104.76005 A 1.1364216,1.1364216 0 1 1 231.70374,104.76005 A 1.1364216,1.1364216 0 1 1 233.97659,104.76005 z" transform="matrix(-0.8995772,0,0,-0.8995772,570.07722,631.69446)" id="path4614" style="opacity:1;fill:#ffffff;fill-opacity:1;fill-rule:evenodd;stroke:none;stroke-width:44.99997711;stroke-miterlimit:4;stroke-dasharray:none;stroke-dashoffset:0;stroke-opacity:1"/>
    <path d="M 233.97659,104.76005 A 1.1364216,1.1364216 0 1 1 231.70374,104.76005 A 1.1364216,1.1364216 0 1 1 233.97659,104.76005 z" transform="matrix(-0.8995772,0,0,-0.8995772,664.07722,571.69446)" id="path4616" style="opacity:1;fill:#ffffff;fill-opacity:1;fill-rule:evenodd;stroke:none;stroke-width:44.99997711;stroke-miterlimit:4;stroke-dasharray:none;stroke-dashoffset:0;stroke-opacity:1"/>
    <path d="M 233.97659,104.76005 A 1.1364216,1.1364216 0 1 1 231.70374,104.76005 A 1.1364216,1.1364216 0 1 1 233.97659,104.76005 z" transform="matrix(-0.8995772,0,0,-0.8995772,690.07722,561.69446)" id="path4618" style="opacity:1;fill:#ffffff;fill-opacity:1;fill-rule:evenodd;stroke:none;stroke-width:44.99997711;stroke-miterlimit:4;stroke-dasharray:none;stroke-dashoffset:0;stroke-opacity:1"/>
    <path d="M 233.97659,104.76005 A 1.1364216,1.1364216 0 1 1 231.70374,104.76005 A 1.1364216,1.1364216 0 1 1 233.97659,104.76005 z" transform="matrix(-0.8995772,0,0,-0.8995772,846.07722,539.69446)" id="path4620" style="opacity:1;fill:#ffffff;fill-opacity:1;fill-rule:evenodd;stroke:none;stroke-width:44.99997711;stroke-miterlimit:4;stroke-dasharray:none;stroke-dashoffset:0;stroke-opacity:1"/>
    <path d="M 233.97659,104.76005 A 1.1364216,1.1364216 0 1 1 231.70374,104.76005 A 1.1364216,1.1364216 0 1 1 233.97659,104.76005 z" transform="matrix(-0.8995772,0,0,-0.8995772,796.07722,571.69446)" id="path4622" style="opacity:1;fill:#ffffff;fill-opacity:1;fill-rule:evenodd;stroke:none;stroke-width:44.99997711;stroke-miterlimit:4;stroke-dasharray:none;stroke-dashoffset:0;stroke-opacity:1"/>
    <path d="M 233.97659,104.76005 A 1.1364216,1.1364216 0 1 1 231.70374,104.76005 A 1.1364216,1.1364216 0 1 1 233.97659,104.76005 z" transform="matrix(-0.8995772,0,0,-0.8995772,790.07722,539.69446)" id="path4624" style="opacity:1;fill:#ffffff;fill-opacity:1;fill-rule:evenodd;stroke:none;stroke-width:44.99997711;stroke-miterlimit:4;stroke-dasharray:none;stroke-dashoffset:0;stroke-opacity:1"/>
    <path d="M 233.97659,104.76005 A 1.1364216,1.1364216 0 1 1 231.70374,104.76005 A 1.1364216,1.1364216 0 1 1 233.97659,104.76005 z" transform="matrix(-0.8995772,0,0,-0.8995772,862.07722,449.69446)" id="path4626" style="opacity:1;fill:#ffffff;fill-opacity:1;fill-rule:evenodd;stroke:none;stroke-width:44.99997711;stroke-miterlimit:4;stroke-dasharray:none;stroke-dashoffset:0;stroke-opacity:1"/>
    <path d="M 233.97659,104.76005 A 1.1364216,1.1364216 0 1 1 231.70374,104.76005 A 1.1364216,1.1364216 0 1 1 233.97659,104.76005 z" transform="matrix(-0.8995772,0,0,-0.8995772,854.07722,439.69446)" id="path4628" style="opacity:1;fill:#ffffff;fill-opacity:1;fill-rule:evenodd;stroke:none;stroke-width:44.99997711;stroke-miterlimit:4;stroke-dasharray:none;stroke-dashoffset:0;stroke-opacity:1"/>
    <path d="M 233.97659,104.76005 A 1.1364216,1.1364216 0 1 1 231.70374,104.76005 A 1.1364216,1.1364216 0 1 1 233.97659,104.76005 z" transform="matrix(-0.8995772,0,0,-0.8995772,852.07722,389.69446)" id="path4630" style="opacity:1;fill:#ffffff;fill-opacity:1;fill-rule:evenodd;stroke:none;stroke-width:44.99997711;stroke-miterlimit:4;stroke-dasharray:none;stroke-dashoffset:0;stroke-opacity:1"/>
    <path d="M 233.97659,104.76005 A 1.1364216,1.1364216 0 1 1 231.70374,104.76005 A 1.1364216,1.1364216 0 1 1 233.97659,104.76005 z" transform="matrix(-0.8995772,0,0,-0.8995772,826.07722,383.69446)" id="path4632" style="opacity:1;fill:#ffffff;fill-opacity:1;fill-rule:evenodd;stroke:none;stroke-width:44.99997711;stroke-miterlimit:4;stroke-dasharray:none;stroke-dashoffset:0;stroke-opacity:1"/>
    <path d="M 233.97659,104.76005 A 1.1364216,1.1364216 0 1 1 231.70374,104.76005 A 1.1364216,1.1364216 0 1 1 233.97659,104.76005 z" transform="matrix(-0.8995772,0,0,-0.8995772,786.07722,449.69446)" id="path4634" style="opacity:1;fill:#ffffff;fill-opacity:1;fill-rule:evenodd;stroke:none;stroke-width:44.99997711;stroke-miterlimit:4;stroke-dasharray:none;stroke-dashoffset:0;stroke-opacity:1"/>
    <path d="M 233.97659,104.76005 A 1.1364216,1.1364216 0 1 1 231.70374,104.76005 A 1.1364216,1.1364216 0 1 1 233.97659,104.76005 z" transform="matrix(-0.8995772,0,0,-0.8995772,766.07722,509.69446)" id="path4636" style="opacity:1;fill:#ffffff;fill-opacity:1;fill-rule:evenodd;stroke:none;stroke-width:44.99997711;stroke-miterlimit:4;stroke-dasharray:none;stroke-dashoffset:0;stroke-opacity:1"/>
    <path d="M 233.97659,104.76005 A 1.1364216,1.1364216 0 1 1 231.70374,104.76005 A 1.1364216,1.1364216 0 1 1 233.97659,104.76005 z" transform="matrix(-0.8995772,0,0,-0.8995772,742.07722,517.69446)" id="path4638" style="opacity:1;fill:#ffffff;fill-opacity:1;fill-rule:evenodd;stroke:none;stroke-width:44.99997711;stroke-miterlimit:4;stroke-dasharray:none;stroke-dashoffset:0;stroke-opacity:1"/>
    <path d="M 233.97659,104.76005 A 1.1364216,1.1364216 0 1 1 231.70374,104.76005 A 1.1364216,1.1364216 0 1 1 233.97659,104.76005 z" transform="matrix(-0.8995772,0,0,-0.8995772,728.07722,531.69446)" id="path4640" style="opacity:1;fill:#ffffff;fill-opacity:1;fill-rule:evenodd;stroke:none;stroke-width:44.99997711;stroke-miterlimit:4;stroke-dasharray:none;stroke-dashoffset:0;stroke-opacity:1"/>
    <path d="M 233.97659,104.76005 A 1.1364216,1.1364216 0 1 1 231.70374,104.76005 A 1.1364216,1.1364216 0 1 1 233.97659,104.76005 z" transform="matrix(-0.8995772,0,0,-0.8995772,672.07722,469.69446)" id="path4642" style="opacity:1;fill:#ffffff;fill-opacity:1;fill-rule:evenodd;stroke:none;stroke-width:44.99997711;stroke-miterlimit:4;stroke-dasharray:none;stroke-dashoffset:0;stroke-opacity:1"/>
    <path d="M 233.97659,104.76005 A 1.1364216,1.1364216 0 1 1 231.70374,104.76005 A 1.1364216,1.1364216 0 1 1 233.97659,104.76005 z" transform="matrix(-0.8995772,0,0,-0.8995772,678.07722,509.69446)" id="path4644" style="opacity:1;fill:#ffffff;fill-opacity:1;fill-rule:evenodd;stroke:none;stroke-width:44.99997711;stroke-miterlimit:4;stroke-dasharray:none;stroke-dashoffset:0;stroke-opacity:1"/>
    <path d="M 233.97659,104.76005 A 1.1364216,1.1364216 0 1 1 231.70374,104.76005 A 1.1364216,1.1364216 0 1 1 233.97659,104.76005 z" transform="matrix(-0.8995772,0,0,-0.8995772,698.07722,511.69446)" id="path4646" style="opacity:1;fill:#ffffff;fill-opacity:1;fill-rule:evenodd;stroke:none;stroke-width:44.99997711;stroke-miterlimit:4;stroke-dasharray:none;stroke-dashoffset:0;stroke-opacity:1"/>
    <path d="M 233.97659,104.76005 A 1.1364216,1.1364216 0 1 1 231.70374,104.76005 A 1.1364216,1.1364216 0 1 1 233.97659,104.76005 z" transform="matrix(-0.8995772,0,0,-0.8995772,708.07722,521.69446)" id="path4648" style="opacity:1;fill:#ffffff;fill-opacity:1;fill-rule:evenodd;stroke:none;stroke-width:44.99997711;stroke-miterlimit:4;stroke-dasharray:none;stroke-dashoffset:0;stroke-opacity:1"/>
    <path d="M 233.97659,104.76005 A 1.1364216,1.1364216 0 1 1 231.70374,104.76005 A 1.1364216,1.1364216 0 1 1 233.97659,104.76005 z" transform="matrix(-0.8995772,0,0,-0.8995772,722.07722,495.69446)" id="path4650" style="opacity:1;fill:#ffffff;fill-opacity:1;fill-rule:evenodd;stroke:none;stroke-width:44.99997711;stroke-miterlimit:4;stroke-dasharray:none;stroke-dashoffset:0;stroke-opacity:1"/>
    <path d="M 233.97659,104.76005 A 1.1364216,1.1364216 0 1 1 231.70374,104.76005 A 1.1364216,1.1364216 0 1 1 233.97659,104.76005 z" transform="matrix(-0.8995772,0,0,-0.8995772,596.07722,491.69446)" id="path4652" style="opacity:1;fill:#ffffff;fill-opacity:1;fill-rule:evenodd;stroke:none;stroke-width:44.99997711;stroke-miterlimit:4;stroke-dasharray:none;stroke-dashoffset:0;stroke-opacity:1"/>
    <path d="M 233.97659,104.76005 A 1.1364216,1.1364216 0 1 1 231.70374,104.76005 A 1.1364216,1.1364216 0 1 1 233.97659,104.76005 z" transform="matrix(-0.8995772,0,0,-0.8995772,556.07722,441.69446)" id="path4654" style="opacity:1;fill:#ffffff;fill-opacity:1;fill-rule:evenodd;stroke:none;stroke-width:44.99997711;stroke-miterlimit:4;stroke-dasharray:none;stroke-dashoffset:0;stroke-opacity:1"/>
    <path d="M 233.97659,104.76005 A 1.1364216,1.1364216 0 1 1 231.70374,104.76005 A 1.1364216,1.1364216 0 1 1 233.97659,104.76005 z" transform="matrix(-0.8995772,0,0,-0.8995772,550.07722,441.69446)" id="path4656" style="opacity:1;fill:#ffffff;fill-opacity:1;fill-rule:evenodd;stroke:none;stroke-width:44.99997711;stroke-miterlimit:4;stroke-dasharray:none;stroke-dashoffset:0;stroke-opacity:1"/>
    <path d="M 233.97659,104.76005 A 1.1364216,1.1364216 0 1 1 231.70374,104.76005 A 1.1364216,1.1364216 0 1 1 233.97659,104.76005 z" transform="matrix(-0.8995772,0,0,-0.8995772,546.07722,545.69446)" id="path4658" style="opacity:1;fill:#ffffff;fill-opacity:1;fill-rule:evenodd;stroke:none;stroke-width:44.99997711;stroke-miterlimit:4;stroke-dasharray:none;stroke-dashoffset:0;stroke-opacity:1"/>
    <path d="M 233.97659,104.76005 A 1.1364216,1.1364216 0 1 1 231.70374,104.76005 A 1.1364216,1.1364216 0 1 1 233.97659,104.76005 z" transform="matrix(-0.8995772,0,0,-0.8995772,458.07722,545.69446)" id="path4660" style="opacity:1;fill:#ffffff;fill-opacity:1;fill-rule:evenodd;stroke:none;stroke-width:44.99997711;stroke-miterlimit:4;stroke-dasharray:none;stroke-dashoffset:0;stroke-opacity:1"/>
    <path d="M 233.97659,104.76005 A 1.1364216,1.1364216 0 1 1 231.70374,104.76005 A 1.1364216,1.1364216 0 1 1 233.97659,104.76005 z" transform="matrix(-0.8995772,0,0,-0.8995772,448.07722,545.69446)" id="path4662" style="opacity:1;fill:#ffffff;fill-opacity:1;fill-rule:evenodd;stroke:none;stroke-width:44.99997711;stroke-miterlimit:4;stroke-dasharray:none;stroke-dashoffset:0;stroke-opacity:1"/>
    <path d="M 233.97659,104.76005 A 1.1364216,1.1364216 0 1 1 231.70374,104.76005 A 1.1364216,1.1364216 0 1 1 233.97659,104.76005 z" transform="matrix(-0.8995772,0,0,-0.8995772,428.07722,641.69446)" id="path4664" style="opacity:1;fill:#ffffff;fill-opacity:1;fill-rule:evenodd;stroke:none;stroke-width:44.99997711;stroke-miterlimit:4;stroke-dasharray:none;stroke-dashoffset:0;stroke-opacity:1"/>
    <path d="M 233.97659,104.76005 A 1.1364216,1.1364216 0 1 1 231.70374,104.76005 A 1.1364216,1.1364216 0 1 1 233.97659,104.76005 z" transform="matrix(-0.8995772,0,0,-0.8995772,400.07722,653.69446)" id="path4666" style="opacity:1;fill:#ffffff;fill-opacity:1;fill-rule:evenodd;stroke:none;stroke-width:44.99997711;stroke-miterlimit:4;stroke-dasharray:none;stroke-dashoffset:0;stroke-opacity:1"/>
    <path d="M 233.97659,104.76005 A 1.1364216,1.1364216 0 1 1 231.70374,104.76005 A 1.1364216,1.1364216 0 1 1 233.97659,104.76005 z" transform="matrix(-0.8995772,0,0,-0.8995772,392.07722,543.69446)" id="path4668" style="opacity:1;fill:#ffffff;fill-opacity:1;fill-rule:evenodd;stroke:none;stroke-width:44.99997711;stroke-miterlimit:4;stroke-dasharray:none;stroke-dashoffset:0;stroke-opacity:1"/>
    <path d="M 233.97659,104.76005 A 1.1364216,1.1364216 0 1 1 231.70374,104.76005 A 1.1364216,1.1364216 0 1 1 233.97659,104.76005 z" transform="matrix(-0.8995772,0,0,-0.8995772,396.07722,533.69446)" id="path4670" style="opacity:1;fill:#ffffff;fill-opacity:1;fill-rule:evenodd;stroke:none;stroke-width:44.99997711;stroke-miterlimit:4;stroke-dasharray:none;stroke-dashoffset:0;stroke-opacity:1"/>
    <path d="M 233.97659,104.76005 A 1.1364216,1.1364216 0 1 1 231.70374,104.76005 A 1.1364216,1.1364216 0 1 1 233.97659,104.76005 z" transform="matrix(-0.8995772,0,0,-0.8995772,474.07722,481.69446)" id="path4672" style="opacity:1;fill:#ffffff;fill-opacity:1;fill-rule:evenodd;stroke:none;stroke-width:44.99997711;stroke-miterlimit:4;stroke-dasharray:none;stroke-dashoffset:0;stroke-opacity:1"/>
    <path d="M 233.97659,104.76005 A 1.1364216,1.1364216 0 1 1 231.70374,104.76005 A 1.1364216,1.1364216 0 1 1 233.97659,104.76005 z" transform="matrix(-0.8995772,0,0,-0.8995772,456.07722,447.69446)" id="path4674" style="opacity:1;fill:#ffffff;fill-opacity:1;fill-rule:evenodd;stroke:none;stroke-width:44.99997711;stroke-miterlimit:4;stroke-dasharray:none;stroke-dashoffset:0;stroke-opacity:1"/>
    <path d="M 233.97659,104.76005 A 1.1364216,1.1364216 0 1 1 231.70374,104.76005 A 1.1364216,1.1364216 0 1 1 233.97659,104.76005 z" transform="matrix(-0.8995772,0,0,-0.8995772,474.07722,417.69446)" id="path4676" style="opacity:1;fill:#ffffff;fill-opacity:1;fill-rule:evenodd;stroke:none;stroke-width:44.99997711;stroke-miterlimit:4;stroke-dasharray:none;stroke-dashoffset:0;stroke-opacity:1"/>
    <path d="M 233.97659,104.76005 A 1.1364216,1.1364216 0 1 1 231.70374,104.76005 A 1.1364216,1.1364216 0 1 1 233.97659,104.76005 z" transform="matrix(-0.8995772,0,0,-0.8995772,396.07722,455.69446)" id="path4678" style="opacity:1;fill:#ffffff;fill-opacity:1;fill-rule:evenodd;stroke:none;stroke-width:44.99997711;stroke-miterlimit:4;stroke-dasharray:none;stroke-dashoffset:0;stroke-opacity:1"/>
    <path d="M 233.97659,104.76005 A 1.1364216,1.1364216 0 1 1 231.70374,104.76005 A 1.1364216,1.1364216 0 1 1 233.97659,104.76005 z" transform="matrix(-0.8995772,0,0,-0.8995772,324.07722,457.69446)" id="path4680" style="opacity:1;fill:#ffffff;fill-opacity:1;fill-rule:evenodd;stroke:none;stroke-width:44.99997711;stroke-miterlimit:4;stroke-dasharray:none;stroke-dashoffset:0;stroke-opacity:1"/>
    <path d="M 233.97659,104.76005 A 1.1364216,1.1364216 0 1 1 231.70374,104.76005 A 1.1364216,1.1364216 0 1 1 233.97659,104.76005 z" transform="matrix(-0.8995772,0,0,-0.8995772,338.07722,443.69446)" id="path4682" style="opacity:1;fill:#ffffff;fill-opacity:1;fill-rule:evenodd;stroke:none;stroke-width:44.99997711;stroke-miterlimit:4;stroke-dasharray:none;stroke-dashoffset:0;stroke-opacity:1"/>
    <path d="M 233.97659,104.76005 A 1.1364216,1.1364216 0 1 1 231.70374,104.76005 A 1.1364216,1.1364216 0 1 1 233.97659,104.76005 z" transform="matrix(-0.8995772,0,0,-0.8995772,418.07722,409.69446)" id="path4684" style="opacity:1;fill:#ffffff;fill-opacity:1;fill-rule:evenodd;stroke:none;stroke-width:44.99997711;stroke-miterlimit:4;stroke-dasharray:none;stroke-dashoffset:0;stroke-opacity:1"/>
    <path d="M 233.97659,104.76005 A 1.1364216,1.1364216 0 1 1 231.70374,104.76005 A 1.1364216,1.1364216 0 1 1 233.97659,104.76005 z" transform="matrix(-0.8995772,0,0,-0.8995772,480.07722,389.69446)" id="path4686" style="opacity:1;fill:#ffffff;fill-opacity:1;fill-rule:evenodd;stroke:none;stroke-width:44.99997711;stroke-miterlimit:4;stroke-dasharray:none;stroke-dashoffset:0;stroke-opacity:1"/>
    <path d="M 233.97659,104.76005 A 1.1364216,1.1364216 0 1 1 231.70374,104.76005 A 1.1364216,1.1364216 0 1 1 233.97659,104.76005 z" transform="matrix(-0.8995772,0,0,-0.8995772,470.07722,387.69446)" id="path4688" style="opacity:1;fill:#ffffff;fill-opacity:1;fill-rule:evenodd;stroke:none;stroke-width:44.99997711;stroke-miterlimit:4;stroke-dasharray:none;stroke-dashoffset:0;stroke-opacity:1"/>
    <path d="M 233.97659,104.76005 A 1.1364216,1.1364216 0 1 1 231.70374,104.76005 A 1.1364216,1.1364216 0 1 1 233.97659,104.76005 z" transform="matrix(-0.8995772,0,0,-0.8995772,390.07722,367.69446)" id="path4690" style="opacity:1;fill:#ffffff;fill-opacity:1;fill-rule:evenodd;stroke:none;stroke-width:44.99997711;stroke-miterlimit:4;stroke-dasharray:none;stroke-dashoffset:0;stroke-opacity:1"/>
    <path d="M 233.97659,104.76005 A 1.1364216,1.1364216 0 1 1 231.70374,104.76005 A 1.1364216,1.1364216 0 1 1 233.97659,104.76005 z" transform="matrix(-0.8995772,0,0,-0.8995772,396.07722,325.69446)" id="path4692" style="opacity:1;fill:#ffffff;fill-opacity:1;fill-rule:evenodd;stroke:none;stroke-width:44.99997711;stroke-miterlimit:4;stroke-dasharray:none;stroke-dashoffset:0;stroke-opacity:1"/>
    <path d="M 233.97659,104.76005 A 1.1364216,1.1364216 0 1 1 231.70374,104.76005 A 1.1364216,1.1364216 0 1 1 233.97659,104.76005 z" transform="matrix(-0.8995772,0,0,-0.8995772,376.07722,321.69446)" id="path4694" style="opacity:1;fill:#ffffff;fill-opacity:1;fill-rule:evenodd;stroke:none;stroke-width:44.99997711;stroke-miterlimit:4;stroke-dasharray:none;stroke-dashoffset:0;stroke-opacity:1"/>
    <path d="M 233.97659,104.76005 A 1.1364216,1.1364216 0 1 1 231.70374,104.76005 A 1.1364216,1.1364216 0 1 1 233.97659,104.76005 z" transform="matrix(-0.8995772,0,0,-0.8995772,412.07722,287.69446)" id="path4696" style="opacity:1;fill:#ffffff;fill-opacity:1;fill-rule:evenodd;stroke:none;stroke-width:44.99997711;stroke-miterlimit:4;stroke-dasharray:none;stroke-dashoffset:0;stroke-opacity:1"/>
    <path d="M 233.97659,104.76005 A 1.1364216,1.1364216 0 1 1 231.70374,104.76005 A 1.1364216,1.1364216 0 1 1 233.97659,104.76005 z" transform="matrix(-0.8995772,0,0,-0.8995772,434.07722,241.69446)" id="path4698" style="opacity:1;fill:#ffffff;fill-opacity:1;fill-rule:evenodd;stroke:none;stroke-width:44.99997711;stroke-miterlimit:4;stroke-dasharray:none;stroke-dashoffset:0;stroke-opacity:1"/>
    <path d="M 233.97659,104.76005 A 1.1364216,1.1364216 0 1 1 231.70374,104.76005 A 1.1364216,1.1364216 0 1 1 233.97659,104.76005 z" transform="matrix(-0.8995772,0,0,-0.8995772,366.07722,231.69446)" id="path4700" style="opacity:1;fill:#ffffff;fill-opacity:1;fill-rule:evenodd;stroke:none;stroke-width:44.99997711;stroke-miterlimit:4;stroke-dasharray:none;stroke-dashoffset:0;stroke-opacity:1"/>
    <path d="M 233.97659,104.76005 A 1.1364216,1.1364216 0 1 1 231.70374,104.76005 A 1.1364216,1.1364216 0 1 1 233.97659,104.76005 z" transform="matrix(-0.8995772,0,0,-0.8995772,266.07722,421.69446)" id="path4702" style="opacity:1;fill:#ffffff;fill-opacity:1;fill-rule:evenodd;stroke:none;stroke-width:44.99997711;stroke-miterlimit:4;stroke-dasharray:none;stroke-dashoffset:0;stroke-opacity:1"/>
    <path d="M 233.97659,104.76005 A 1.1364216,1.1364216 0 1 1 231.70374,104.76005 A 1.1364216,1.1364216 0 1 1 233.97659,104.76005 z" transform="matrix(-0.8995772,0,0,-0.8995772,246.07722,391.69446)" id="path4704" style="opacity:1;fill:#ffffff;fill-opacity:1;fill-rule:evenodd;stroke:none;stroke-width:44.99997711;stroke-miterlimit:4;stroke-dasharray:none;stroke-dashoffset:0;stroke-opacity:1"/>
    <path d="M 233.97659,104.76005 A 1.1364216,1.1364216 0 1 1 231.70374,104.76005 A 1.1364216,1.1364216 0 1 1 233.97659,104.76005 z" transform="matrix(-0.8995772,0,0,-0.8995772,258.07722,335.69446)" id="path4706" style="opacity:1;fill:#ffffff;fill-opacity:1;fill-rule:evenodd;stroke:none;stroke-width:44.99997711;stroke-miterlimit:4;stroke-dasharray:none;stroke-dashoffset:0;stroke-opacity:1"/>
    <path d="M 233.97659,104.76005 A 1.1364216,1.1364216 0 1 1 231.70374,104.76005 A 1.1364216,1.1364216 0 1 1 233.97659,104.76005 z" transform="matrix(-0.8995772,0,0,-0.8995772,222.07722,247.69446)" id="path4708" style="opacity:1;fill:#ffffff;fill-opacity:1;fill-rule:evenodd;stroke:none;stroke-width:44.99997711;stroke-miterlimit:4;stroke-dasharray:none;stroke-dashoffset:0;stroke-opacity:1"/>
    <path d="M 233.97659,104.76005 A 1.1364216,1.1364216 0 1 1 231.70374,104.76005 A 1.1364216,1.1364216 0 1 1 233.97659,104.76005 z" transform="matrix(-0.8995772,0,0,-0.8995772,216.07722,537.69446)" id="path4710" style="opacity:1;fill:#ffffff;fill-opacity:1;fill-rule:evenodd;stroke:none;stroke-width:44.99997711;stroke-miterlimit:4;stroke-dasharray:none;stroke-dashoffset:0;stroke-opacity:1"/>
    <path d="M 233.97659,104.76005 A 1.1364216,1.1364216 0 1 1 231.70374,104.76005 A 1.1364216,1.1364216 0 1 1 233.97659,104.76005 z" transform="matrix(-0.8995772,0,0,-0.8995772,252.07722,557.69446)" id="path4712" style="opacity:1;fill:#ffffff;fill-opacity:1;fill-rule:evenodd;stroke:none;stroke-width:44.99997711;stroke-miterlimit:4;stroke-dasharray:none;stroke-dashoffset:0;stroke-opacity:1"/>
    <path d="M 233.97659,104.76005 A 1.1364216,1.1364216 0 1 1 231.70374,104.76005 A 1.1364216,1.1364216 0 1 1 233.97659,104.76005 z" transform="matrix(-0.8995772,0,0,-0.8995772,284.07722,573.69446)" id="path4714" style="opacity:1;fill:#ffffff;fill-opacity:1;fill-rule:evenodd;stroke:none;stroke-width:44.99997711;stroke-miterlimit:4;stroke-dasharray:none;stroke-dashoffset:0;stroke-opacity:1"/>
    <path d="M 233.97659,104.76005 A 1.1364216,1.1364216 0 1 1 231.70374,104.76005 A 1.1364216,1.1364216 0 1 1 233.97659,104.76005 z" transform="matrix(-0.8995772,0,0,-0.8995772,454.07722,225.69446)" id="path4716" style="opacity:1;fill:#ffffff;fill-opacity:1;fill-rule:evenodd;stroke:none;stroke-width:44.99997711;stroke-miterlimit:4;stroke-dasharray:none;stroke-dashoffset:0;stroke-opacity:1"/>
    <path d="M 233.97659,104.76005 A 1.1364216,1.1364216 0 1 1 231.70374,104.76005 A 1.1364216,1.1364216 0 1 1 233.97659,104.76005 z" transform="matrix(-0.8995772,0,0,-0.8995772,444.07722,215.69446)" id="path4718" style="opacity:1;fill:#ffffff;fill-opacity:1;fill-rule:evenodd;stroke:none;stroke-width:44.99997711;stroke-miterlimit:4;stroke-dasharray:none;stroke-dashoffset:0;stroke-opacity:1"/>
    <path d="M 233.97659,104.76005 A 1.1364216,1.1364216 0 1 1 231.70374,104.76005 A 1.1364216,1.1364216 0 1 1 233.97659,104.76005 z" transform="matrix(-0.8995772,0,0,-0.8995772,448.07722,171.69446)" id="path4720" style="opacity:1;fill:#ffffff;fill-opacity:1;fill-rule:evenodd;stroke:none;stroke-width:44.99997711;stroke-miterlimit:4;stroke-dasharray:none;stroke-dashoffset:0;stroke-opacity:1"/>
    <path d="M 233.97659,104.76005 A 1.1364216,1.1364216 0 1 1 231.70374,104.76005 A 1.1364216,1.1364216 0 1 1 233.97659,104.76005 z" transform="matrix(-0.8995772,0,0,-0.8995772,382.07722,163.69446)" id="path4722" style="opacity:1;fill:#ffffff;fill-opacity:1;fill-rule:evenodd;stroke:none;stroke-width:44.99997711;stroke-miterlimit:4;stroke-dasharray:none;stroke-dashoffset:0;stroke-opacity:1"/>
    <path d="M 233.97659,104.76005 A 1.1364216,1.1364216 0 1 1 231.70374,104.76005 A 1.1364216,1.1364216 0 1 1 233.97659,104.76005 z" transform="matrix(-0.8995772,0,0,-0.8995772,326.07722,151.69446)" id="path4724" style="opacity:1;fill:#ffffff;fill-opacity:1;fill-rule:evenodd;stroke:none;stroke-width:44.99997711;stroke-miterlimit:4;stroke-dasharray:none;stroke-dashoffset:0;stroke-opacity:1"/>
    <path d="M 233.97659,104.76005 A 1.1364216,1.1364216 0 1 1 231.70374,104.76005 A 1.1364216,1.1364216 0 1 1 233.97659,104.76005 z" transform="matrix(-0.8995772,0,0,-0.8995772,310.07722,155.69446)" id="path4726" style="opacity:1;fill:#ffffff;fill-opacity:1;fill-rule:evenodd;stroke:none;stroke-width:44.99997711;stroke-miterlimit:4;stroke-dasharray:none;stroke-dashoffset:0;stroke-opacity:1"/>
    <path d="M 233.97659,104.76005 A 1.1364216,1.1364216 0 1 1 231.70374,104.76005 A 1.1364216,1.1364216 0 1 1 233.97659,104.76005 z" transform="matrix(-0.8995772,0,0,-0.8995772,538.07722,121.69446)" id="path4728" style="opacity:1;fill:#ffffff;fill-opacity:1;fill-rule:evenodd;stroke:none;stroke-width:44.99997711;stroke-miterlimit:4;stroke-dasharray:none;stroke-dashoffset:0;stroke-opacity:1"/>
    <path d="M 233.97659,104.76005 A 1.1364216,1.1364216 0 1 1 231.70374,104.76005 A 1.1364216,1.1364216 0 1 1 233.97659,104.76005 z" transform="matrix(-0.8995772,0,0,-0.8995772,594.07722,125.69446)" id="path4730" style="opacity:1;fill:#ffffff;fill-opacity:1;fill-rule:evenodd;stroke:none;stroke-width:44.99997711;stroke-miterlimit:4;stroke-dasharray:none;stroke-dashoffset:0;stroke-opacity:1"/>
    <path d="M 233.97659,104.76005 A 1.1364216,1.1364216 0 1 1 231.70374,104.76005 A 1.1364216,1.1364216 0 1 1 233.97659,104.76005 z" transform="matrix(-0.8995772,0,0,-0.8995772,592.07722,137.69446)" id="path4732" style="opacity:1;fill:#ffffff;fill-opacity:1;fill-rule:evenodd;stroke:none;stroke-width:44.99997711;stroke-miterlimit:4;stroke-dasharray:none;stroke-dashoffset:0;stroke-opacity:1"/>
    <path d="M 233.97659,104.76005 A 1.1364216,1.1364216 0 1 1 231.70374,104.76005 A 1.1364216,1.1364216 0 1 1 233.97659,104.76005 z" transform="matrix(-0.8995772,0,0,-0.8995772,626.07722,169.69446)" id="path4734" style="opacity:1;fill:#ffffff;fill-opacity:1;fill-rule:evenodd;stroke:none;stroke-width:44.99997711;stroke-miterlimit:4;stroke-dasharray:none;stroke-dashoffset:0;stroke-opacity:1"/>
    <path d="M 233.97659,104.76005 A 1.1364216,1.1364216 0 1 1 231.70374,104.76005 A 1.1364216,1.1364216 0 1 1 233.97659,104.76005 z" transform="matrix(-0.8995772,0,0,-0.8995772,580.07722,267.69446)" id="path4736" style="opacity:1;fill:#ffffff;fill-opacity:1;fill-rule:evenodd;stroke:none;stroke-width:44.99997711;stroke-miterlimit:4;stroke-dasharray:none;stroke-dashoffset:0;stroke-opacity:1"/>
    <path d="M 233.97659,104.76005 A 1.1364216,1.1364216 0 1 1 231.70374,104.76005 A 1.1364216,1.1364216 0 1 1 233.97659,104.76005 z" transform="matrix(-0.8995772,0,0,-0.8995772,576.07722,297.69446)" id="path4738" style="opacity:1;fill:#ffffff;fill-opacity:1;fill-rule:evenodd;stroke:none;stroke-width:44.99997711;stroke-miterlimit:4;stroke-dasharray:none;stroke-dashoffset:0;stroke-opacity:1"/>
    <path d="M 233.97659,104.76005 A 1.1364216,1.1364216 0 1 1 231.70374,104.76005 A 1.1364216,1.1364216 0 1 1 233.97659,104.76005 z" transform="matrix(-0.8995772,0,0,-0.8995772,556.07722,297.69446)" id="path4740" style="opacity:1;fill:#ffffff;fill-opacity:1;fill-rule:evenodd;stroke:none;stroke-width:44.99997711;stroke-miterlimit:4;stroke-dasharray:none;stroke-dashoffset:0;stroke-opacity:1"/>
    <path d="M 233.97659,104.76005 A 1.1364216,1.1364216 0 1 1 231.70374,104.76005 A 1.1364216,1.1364216 0 1 1 233.97659,104.76005 z" transform="matrix(-0.8995772,0,0,-0.8995772,640.07722,203.69446)" id="path4742" style="opacity:1;fill:#ffffff;fill-opacity:1;fill-rule:evenodd;stroke:none;stroke-width:44.99997711;stroke-miterlimit:4;stroke-dasharray:none;stroke-dashoffset:0;stroke-opacity:1"/>
    <path d="M 233.97659,104.76005 A 1.1364216,1.1364216 0 1 1 231.70374,104.76005 A 1.1364216,1.1364216 0 1 1 233.97659,104.76005 z" transform="matrix(-0.8995772,0,0,-0.8995772,646.07722,239.69446)" id="path4744" style="opacity:1;fill:#ffffff;fill-opacity:1;fill-rule:evenodd;stroke:none;stroke-width:44.99997711;stroke-miterlimit:4;stroke-dasharray:none;stroke-dashoffset:0;stroke-opacity:1"/>
    <path d="M 233.97659,104.76005 A 1.1364216,1.1364216 0 1 1 231.70374,104.76005 A 1.1364216,1.1364216 0 1 1 233.97659,104.76005 z" transform="matrix(-0.8995772,0,0,-0.8995772,660.07722,251.69446)" id="path4746" style="opacity:1;fill:#ffffff;fill-opacity:1;fill-rule:evenodd;stroke:none;stroke-width:44.99997711;stroke-miterlimit:4;stroke-dasharray:none;stroke-dashoffset:0;stroke-opacity:1"/>
    <path d="M 233.97659,104.76005 A 1.1364216,1.1364216 0 1 1 231.70374,104.76005 A 1.1364216,1.1364216 0 1 1 233.97659,104.76005 z" transform="matrix(-0.8995772,0,0,-0.8995772,668.07722,291.69446)" id="path4748" style="opacity:1;fill:#ffffff;fill-opacity:1;fill-rule:evenodd;stroke:none;stroke-width:44.99997711;stroke-miterlimit:4;stroke-dasharray:none;stroke-dashoffset:0;stroke-opacity:1"/>
    <path d="M 233.97659,104.76005 A 1.1364216,1.1364216 0 1 1 231.70374,104.76005 A 1.1364216,1.1364216 0 1 1 233.97659,104.76005 z" transform="matrix(-0.8995772,0,0,-0.8995772,640.07722,347.69446)" id="path4750" style="opacity:1;fill:#ffffff;fill-opacity:1;fill-rule:evenodd;stroke:none;stroke-width:44.99997711;stroke-miterlimit:4;stroke-dasharray:none;stroke-dashoffset:0;stroke-opacity:1"/>
    <path d="M 233.97659,104.76005 A 1.1364216,1.1364216 0 1 1 231.70374,104.76005 A 1.1364216,1.1364216 0 1 1 233.97659,104.76005 z" transform="matrix(-0.8995772,0,0,-0.8995772,628.07722,383.69446)" id="path4752" style="opacity:1;fill:#ffffff;fill-opacity:1;fill-rule:evenodd;stroke:none;stroke-width:44.99997711;stroke-miterlimit:4;stroke-dasharray:none;stroke-dashoffset:0;stroke-opacity:1"/>
    <path d="M 233.97659,104.76005 A 1.1364216,1.1364216 0 1 1 231.70374,104.76005 A 1.1364216,1.1364216 0 1 1 233.97659,104.76005 z" transform="matrix(-0.8995772,0,0,-0.8995772,676.07722,363.69446)" id="path4754" style="opacity:1;fill:#ffffff;fill-opacity:1;fill-rule:evenodd;stroke:none;stroke-width:44.99997711;stroke-miterlimit:4;stroke-dasharray:none;stroke-dashoffset:0;stroke-opacity:1"/>
    <path d="M 233.97659,104.76005 A 1.1364216,1.1364216 0 1 1 231.70374,104.76005 A 1.1364216,1.1364216 0 1 1 233.97659,104.76005 z" transform="matrix(-0.8995772,0,0,-0.8995772,720.07722,367.69446)" id="path4756" style="opacity:1;fill:#ffffff;fill-opacity:1;fill-rule:evenodd;stroke:none;stroke-width:44.99997711;stroke-miterlimit:4;stroke-dasharray:none;stroke-dashoffset:0;stroke-opacity:1"/>
    <path d="M 233.97659,104.76005 A 1.1364216,1.1364216 0 1 1 231.70374,104.76005 A 1.1364216,1.1364216 0 1 1 233.97659,104.76005 z" transform="matrix(-0.8995772,0,0,-0.8995772,758.07722,335.69446)" id="path4758" style="opacity:1;fill:#ffffff;fill-opacity:1;fill-rule:evenodd;stroke:none;stroke-width:44.99997711;stroke-miterlimit:4;stroke-dasharray:none;stroke-dashoffset:0;stroke-opacity:1"/>
    <path d="M 233.97659,104.76005 A 1.1364216,1.1364216 0 1 1 231.70374,104.76005 A 1.1364216,1.1364216 0 1 1 233.97659,104.76005 z" transform="matrix(-0.8995772,0,0,-0.8995772,748.07722,311.69446)" id="path4760" style="opacity:1;fill:#ffffff;fill-opacity:1;fill-rule:evenodd;stroke:none;stroke-width:44.99997711;stroke-miterlimit:4;stroke-dasharray:none;stroke-dashoffset:0;stroke-opacity:1"/>
    <path d="M 233.97659,104.76005 A 1.1364216,1.1364216 0 1 1 231.70374,104.76005 A 1.1364216,1.1364216 0 1 1 233.97659,104.76005 z" transform="matrix(-0.8995772,0,0,-0.8995772,712.07722,309.69446)" id="path4762" style="opacity:1;fill:#ffffff;fill-opacity:1;fill-rule:evenodd;stroke:none;stroke-width:44.99997711;stroke-miterlimit:4;stroke-dasharray:none;stroke-dashoffset:0;stroke-opacity:1"/>
    <path d="M 233.97659,104.76005 A 1.1364216,1.1364216 0 1 1 231.70374,104.76005 A 1.1364216,1.1364216 0 1 1 233.97659,104.76005 z" transform="matrix(-0.8995772,0,0,-0.8995772,714.07722,277.69446)" id="path4764" style="opacity:1;fill:#ffffff;fill-opacity:1;fill-rule:evenodd;stroke:none;stroke-width:44.99997711;stroke-miterlimit:4;stroke-dasharray:none;stroke-dashoffset:0;stroke-opacity:1"/>
    <path d="M 233.97659,104.76005 A 1.1364216,1.1364216 0 1 1 231.70374,104.76005 A 1.1364216,1.1364216 0 1 1 233.97659,104.76005 z" transform="matrix(-0.8995772,0,0,-0.8995772,750.07722,227.69446)" id="path4766" style="opacity:1;fill:#ffffff;fill-opacity:1;fill-rule:evenodd;stroke:none;stroke-width:44.99997711;stroke-miterlimit:4;stroke-dasharray:none;stroke-dashoffset:0;stroke-opacity:1"/>
    <path d="M 233.97659,104.76005 A 1.1364216,1.1364216 0 1 1 231.70374,104.76005 A 1.1364216,1.1364216 0 1 1 233.97659,104.76005 z" transform="matrix(-0.8995772,0,0,-0.8995772,748.07722,203.69446)" id="path4768" style="opacity:1;fill:#ffffff;fill-opacity:1;fill-rule:evenodd;stroke:none;stroke-width:44.99997711;stroke-miterlimit:4;stroke-dasharray:none;stroke-dashoffset:0;stroke-opacity:1"/>
    <path d="M 233.97659,104.76005 A 1.1364216,1.1364216 0 1 1 231.70374,104.76005 A 1.1364216,1.1364216 0 1 1 233.97659,104.76005 z" transform="matrix(-0.8995772,0,0,-0.8995772,724.07722,169.69446)" id="path4770" style="opacity:1;fill:#ffffff;fill-opacity:1;fill-rule:evenodd;stroke:none;stroke-width:44.99997711;stroke-miterlimit:4;stroke-dasharray:none;stroke-dashoffset:0;stroke-opacity:1"/>
    <path d="M 233.97659,104.76005 A 1.1364216,1.1364216 0 1 1 231.70374,104.76005 A 1.1364216,1.1364216 0 1 1 233.97659,104.76005 z" transform="matrix(-0.8995772,0,0,-0.8995772,832.07722,161.69446)" id="path4772" style="opacity:1;fill:#ffffff;fill-opacity:1;fill-rule:evenodd;stroke:none;stroke-width:44.99997711;stroke-miterlimit:4;stroke-dasharray:none;stroke-dashoffset:0;stroke-opacity:1"/>
    <path d="M 233.97659,104.76005 A 1.1364216,1.1364216 0 1 1 231.70374,104.76005 A 1.1364216,1.1364216 0 1 1 233.97659,104.76005 z" transform="matrix(-0.8995772,0,0,-0.8995772,836.07722,159.69446)" id="path4774" style="opacity:1;fill:#ffffff;fill-opacity:1;fill-rule:evenodd;stroke:none;stroke-width:44.99997711;stroke-miterlimit:4;stroke-dasharray:none;stroke-dashoffset:0;stroke-opacity:1"/>
    <path d="M 367.49999,293.84283 A 35.714287,35.714287 0 1 1 296.07142,293.84283 A 35.714287,35.714287 0 1 1 367.49999,293.84283 z" transform="matrix(7.6799998,0,0,7.6799998,-2214.1856,-1950.2222)" id="path3262" style="opacity:1;fill:none;fill-opacity:1;fill-rule:evenodd;stroke:#ef0000;stroke-width:0.65104169;stroke-miterlimit:4;stroke-dasharray:none;stroke-dashoffset:0;stroke-opacity:0.66233766"/>
  </g>
</svg>