<?xml version="1.0" encoding="UTF-8" standalone="no"?>
<!-- Created with Inkscape (http://www.inkscape.org/) -->
<svg xmlns:svg="http://www.w3.org/2000/svg" xmlns="http://www.w3.org/2000/svg" xmlns:inkscape="http://www.inkscape.org/namespaces/inkscape" version="1.0" width="694.98492" height="716.88629" id="svg1901">
  <defs id="defs1903">
    <filter id="filter3258">
      <feGaussianBlur id="feGaussianBlur3260" stdDeviation="1.6233767" inkscape:collect="always"/>
    </filter>
  </defs>
  <g transform="translate(5.9383645,3.3052673)" id="layer1" style="opacity:1">
    <rect width="694.98492" height="716.88629" x="-5.9383645" y="-3.3052673" id="rect4776" style="opacity:1;fill:#000000;fill-opacity:1;fill-rule:evenodd;stroke:none;stroke-width:5;stroke-miterlimit:4;stroke-dasharray:none;stroke-dashoffset:0;stroke-opacity:1"/>
    <path d="M 367.49999,293.84283 A 35.714287,35.714287 0 1 1 296.07142,293.84283 A 35.714287,35.714287 0 1 1 367.49999,293.84283 z" transform="translate(2.142856,-101.35209)" id="path2450" style="opacity:1;fill:#fc7d05;fill-opacity:1;fill-rule:evenodd;stroke:none;stroke-width:2;stroke-miterlimit:4;stroke-dasharray:none;stroke-dashoffset:0;stroke-opacity:1;filter:url(#filter3258)"/>
    <path d="M 233.97659,104.76005 A 1.1364216,1.1364216 0 1 1 231.70374,104.76005 A 1.1364216,1.1364216 0 1 1 233.97659,104.76005 z" transform="matrix(-0.8995772,0,0,-1.0675474,832.57722,791.16143)" id="path3318" style="opacity:1;fill:#ffffff;fill-opacity:1;fill-rule:evenodd;stroke:none;stroke-width:44.99997711;stroke-miterlimit:4;stroke-dasharray:none;stroke-dashoffset:0;stroke-opacity:1"/>
    <path d="M 233.97659,104.76005 A 1.1364216,1.1364216 0 1 1 231.70374,104.76005 A 1.1364216,1.1364216 0 1 1 233.97659,104.76005 z" transform="matrix(-0.8995772,0,0,-1.0675474,757.57722,760.64574)" id="path4600" style="opacity:1;fill:#ffffff;fill-opacity:1;fill-rule:evenodd;stroke:none;stroke-width:44.99997711;stroke-miterlimit:4;stroke-dasharray:none;stroke-dashoffset:0;stroke-opacity:1"/>
    <path d="M 233.97659,104.76005 A 1.1364216,1.1364216 0 1 1 231.70374,104.76005 A 1.1364216,1.1364216 0 1 1 233.97659,104.76005 z" transform="matrix(-0.8995772,0,0,-1.0675474,750.07722,723.34878)" id="path4602" style="opacity:1;fill:#ffffff;fill-opacity:1;fill-rule:evenodd;stroke:none;stroke-width:44.99997711;stroke-miterlimit:4;stroke-dasharray:none;stroke-dashoffset:0;stroke-opacity:1"/>
    <path d="M 233.97659,104.76005 A 1.1364216,1.1364216 0 1 1 231.70374,104.76005 A 1.1364216,1.1364216 0 1 1 233.97659,104.76005 z" transform="matrix(-0.8995772,0,0,-1.0675474,734.07722,794.55206)" id="path4604" style="opacity:1;fill:#ffffff;fill-opacity:1;fill-rule:evenodd;stroke:none;stroke-width:44.99997711;stroke-miterlimit:4;stroke-dasharray:none;stroke-dashoffset:0;stroke-opacity:1"/>
    <path d="M 233.97659,104.76005 A 1.1364216,1.1364216 0 1 1 231.70374,104.76005 A 1.1364216,1.1364216 0 1 1 233.97659,104.76005 z" transform="matrix(-0.8995772,0,0,-1.0675474,664.07722,811.16616)" id="path4606" style="opacity:1;fill:#ffffff;fill-opacity:1;fill-rule:evenodd;stroke:none;stroke-width:44.99997711;stroke-miterlimit:4;stroke-dasharray:none;stroke-dashoffset:0;stroke-opacity:1"/>
    <path d="M 233.97659,104.76005 A 1.1364216,1.1364216 0 1 1 231.70374,104.76005 A 1.1364216,1.1364216 0 1 1 233.97659,104.76005 z" transform="matrix(-0.8995772,0,0,-1.0675474,666.07722,735.216)" id="path4608" style="opacity:1;fill:#ffffff;fill-opacity:1;fill-rule:evenodd;stroke:none;stroke-width:44.99997711;stroke-miterlimit:4;stroke-dasharray:none;stroke-dashoffset:0;stroke-opacity:1"/>
    <path d="M 233.97659,104.76005 A 1.1364216,1.1364216 0 1 1 231.70374,104.76005 A 1.1364216,1.1364216 0 1 1 233.97659,104.76005 z" transform="matrix(-0.8995772,0,0,-1.0675474,668.07722,704.36124)" id="path4610" style="opacity:1;fill:#ffffff;fill-opacity:1;fill-rule:evenodd;stroke:none;stroke-width:44.99997711;stroke-miterlimit:4;stroke-dasharray:none;stroke-dashoffset:0;stroke-opacity:1"/>
    <path d="M 233.97659,104.76005 A 1.1364216,1.1364216 0 1 1 231.70374,104.76005 A 1.1364216,1.1364216 0 1 1 233.97659,104.76005 z" transform="matrix(-0.8995772,0,0,-1.0675474,616.07722,742.33633)" id="path4612" style="opacity:1;fill:#ffffff;fill-opacity:1;fill-rule:evenodd;stroke:none;stroke-width:44.99997711;stroke-miterlimit:4;stroke-dasharray:none;stroke-dashoffset:0;stroke-opacity:1"/>
    <path d="M 233.97659,104.76005 A 1.1364216,1.1364216 0 1 1 231.70374,104.76005 A 1.1364216,1.1364216 0 1 1 233.97659,104.76005 z" transform="matrix(-0.8995772,0,0,-1.0675474,570.07722,744.70977)" id="path4614" style="opacity:1;fill:#ffffff;fill-opacity:1;fill-rule:evenodd;stroke:none;stroke-width:44.99997711;stroke-miterlimit:4;stroke-dasharray:none;stroke-dashoffset:0;stroke-opacity:1"/>
    <path d="M 233.97659,104.76005 A 1.1364216,1.1364216 0 1 1 231.70374,104.76005 A 1.1364216,1.1364216 0 1 1 233.97659,104.76005 z" transform="matrix(-0.8995772,0,0,-1.0675474,664.07722,673.50649)" id="path4616" style="opacity:1;fill:#ffffff;fill-opacity:1;fill-rule:evenodd;stroke:none;stroke-width:44.99997711;stroke-miterlimit:4;stroke-dasharray:none;stroke-dashoffset:0;stroke-opacity:1"/>
    <path d="M 233.97659,104.76005 A 1.1364216,1.1364216 0 1 1 231.70374,104.76005 A 1.1364216,1.1364216 0 1 1 233.97659,104.76005 z" transform="matrix(-0.8995772,0,0,-1.0675474,690.07722,661.63928)" id="path4618" style="opacity:1;fill:#ffffff;fill-opacity:1;fill-rule:evenodd;stroke:none;stroke-width:44.99997711;stroke-miterlimit:4;stroke-dasharray:none;stroke-dashoffset:0;stroke-opacity:1"/>
    <path d="M 233.97659,104.76005 A 1.1364216,1.1364216 0 1 1 231.70374,104.76005 A 1.1364216,1.1364216 0 1 1 233.97659,104.76005 z" transform="matrix(-0.8995772,0,0,-1.0675474,846.07722,635.53141)" id="path4620" style="opacity:1;fill:#ffffff;fill-opacity:1;fill-rule:evenodd;stroke:none;stroke-width:44.99997711;stroke-miterlimit:4;stroke-dasharray:none;stroke-dashoffset:0;stroke-opacity:1"/>
    <path d="M 233.97659,104.76005 A 1.1364216,1.1364216 0 1 1 231.70374,104.76005 A 1.1364216,1.1364216 0 1 1 233.97659,104.76005 z" transform="matrix(-0.8995772,0,0,-1.0675474,796.07722,673.50649)" id="path4622" style="opacity:1;fill:#ffffff;fill-opacity:1;fill-rule:evenodd;stroke:none;stroke-width:44.99997711;stroke-miterlimit:4;stroke-dasharray:none;stroke-dashoffset:0;stroke-opacity:1"/>
    <path d="M 233.97659,104.76005 A 1.1364216,1.1364216 0 1 1 231.70374,104.76005 A 1.1364216,1.1364216 0 1 1 233.97659,104.76005 z" transform="matrix(-0.8995772,0,0,-1.0675474,790.07722,635.53141)" id="path4624" style="opacity:1;fill:#ffffff;fill-opacity:1;fill-rule:evenodd;stroke:none;stroke-width:44.99997711;stroke-miterlimit:4;stroke-dasharray:none;stroke-dashoffset:0;stroke-opacity:1"/>
    <path d="M 233.97659,104.76005 A 1.1364216,1.1364216 0 1 1 231.70374,104.76005 A 1.1364216,1.1364216 0 1 1 233.97659,104.76005 z" transform="matrix(-0.8995772,0,0,-1.0675474,862.07722,528.72649)" id="path4626" style="opacity:1;fill:#ffffff;fill-opacity:1;fill-rule:evenodd;stroke:none;stroke-width:44.99997711;stroke-miterlimit:4;stroke-dasharray:none;stroke-dashoffset:0;stroke-opacity:1"/>
    <path d="M 233.97659,104.76005 A 1.1364216,1.1364216 0 1 1 231.70374,104.76005 A 1.1364216,1.1364216 0 1 1 233.97659,104.76005 z" transform="matrix(-0.8995772,0,0,-1.0675474,854.07722,516.85928)" id="path4628" style="opacity:1;fill:#ffffff;fill-opacity:1;fill-rule:evenodd;stroke:none;stroke-width:44.99997711;stroke-miterlimit:4;stroke-dasharray:none;stroke-dashoffset:0;stroke-opacity:1"/>
    <path d="M 233.97659,104.76005 A 1.1364216,1.1364216 0 1 1 231.70374,104.76005 A 1.1364216,1.1364216 0 1 1 233.97659,104.76005 z" transform="matrix(-0.8995772,0,0,-1.0675474,852.07722,457.52322)" id="path4630" style="opacity:1;fill:#ffffff;fill-opacity:1;fill-rule:evenodd;stroke:none;stroke-width:44.99997711;stroke-miterlimit:4;stroke-dasharray:none;stroke-dashoffset:0;stroke-opacity:1"/>
    <path d="M 233.97659,104.76005 A 1.1364216,1.1364216 0 1 1 231.70374,104.76005 A 1.1364216,1.1364216 0 1 1 233.97659,104.76005 z" transform="matrix(-0.8995772,0,0,-1.0675474,826.07722,450.40289)" id="path4632" style="opacity:1;fill:#ffffff;fill-opacity:1;fill-rule:evenodd;stroke:none;stroke-width:44.99997711;stroke-miterlimit:4;stroke-dasharray:none;stroke-dashoffset:0;stroke-opacity:1"/>
    <path d="M 233.97659,104.76005 A 1.1364216,1.1364216 0 1 1 231.70374,104.76005 A 1.1364216,1.1364216 0 1 1 233.97659,104.76005 z" transform="matrix(-0.8995772,0,0,-1.0675474,786.07722,528.72649)" id="path4634" style="opacity:1;fill:#ffffff;fill-opacity:1;fill-rule:evenodd;stroke:none;stroke-width:44.99997711;stroke-miterlimit:4;stroke-dasharray:none;stroke-dashoffset:0;stroke-opacity:1"/>
    <path d="M 233.97659,104.76005 A 1.1364216,1.1364216 0 1 1 231.70374,104.76005 A 1.1364216,1.1364216 0 1 1 233.97659,104.76005 z" transform="matrix(-0.8995772,0,0,-1.0675474,766.07722,599.92977)" id="path4636" style="opacity:1;fill:#ffffff;fill-opacity:1;fill-rule:evenodd;stroke:none;stroke-width:44.99997711;stroke-miterlimit:4;stroke-dasharray:none;stroke-dashoffset:0;stroke-opacity:1"/>
    <path d="M 233.97659,104.76005 A 1.1364216,1.1364216 0 1 1 231.70374,104.76005 A 1.1364216,1.1364216 0 1 1 233.97659,104.76005 z" transform="matrix(-0.8995772,0,0,-1.0675474,742.07722,609.42354)" id="path4638" style="opacity:1;fill:#ffffff;fill-opacity:1;fill-rule:evenodd;stroke:none;stroke-width:44.99997711;stroke-miterlimit:4;stroke-dasharray:none;stroke-dashoffset:0;stroke-opacity:1"/>
    <path d="M 233.97659,104.76005 A 1.1364216,1.1364216 0 1 1 231.70374,104.76005 A 1.1364216,1.1364216 0 1 1 233.97659,104.76005 z" transform="matrix(-0.8995772,0,0,-1.0675474,728.07722,626.03764)" id="path4640" style="opacity:1;fill:#ffffff;fill-opacity:1;fill-rule:evenodd;stroke:none;stroke-width:44.99997711;stroke-miterlimit:4;stroke-dasharray:none;stroke-dashoffset:0;stroke-opacity:1"/>
    <path d="M 233.97659,104.76005 A 1.1364216,1.1364216 0 1 1 231.70374,104.76005 A 1.1364216,1.1364216 0 1 1 233.97659,104.76005 z" transform="matrix(-0.8995772,0,0,-1.0675474,672.07722,552.46092)" id="path4642" style="opacity:1;fill:#ffffff;fill-opacity:1;fill-rule:evenodd;stroke:none;stroke-width:44.99997711;stroke-miterlimit:4;stroke-dasharray:none;stroke-dashoffset:0;stroke-opacity:1"/>
    <path d="M 233.97659,104.76005 A 1.1364216,1.1364216 0 1 1 231.70374,104.76005 A 1.1364216,1.1364216 0 1 1 233.97659,104.76005 z" transform="matrix(-0.8995772,0,0,-1.0675474,678.07722,599.92977)" id="path4644" style="opacity:1;fill:#ffffff;fill-opacity:1;fill-rule:evenodd;stroke:none;stroke-width:44.99997711;stroke-miterlimit:4;stroke-dasharray:none;stroke-dashoffset:0;stroke-opacity:1"/>
    <path d="M 233.97659,104.76005 A 1.1364216,1.1364216 0 1 1 231.70374,104.76005 A 1.1364216,1.1364216 0 1 1 233.97659,104.76005 z" transform="matrix(-0.8995772,0,0,-1.0675474,698.07722,602.30321)" id="path4646" style="opacity:1;fill:#ffffff;fill-opacity:1;fill-rule:evenodd;stroke:none;stroke-width:44.99997711;stroke-miterlimit:4;stroke-dasharray:none;stroke-dashoffset:0;stroke-opacity:1"/>
    <path d="M 233.97659,104.76005 A 1.1364216,1.1364216 0 1 1 231.70374,104.76005 A 1.1364216,1.1364216 0 1 1 233.97659,104.76005 z" transform="matrix(-0.8995772,0,0,-1.0675474,708.07722,614.17043)" id="path4648" style="opacity:1;fill:#ffffff;fill-opacity:1;fill-rule:evenodd;stroke:none;stroke-width:44.99997711;stroke-miterlimit:4;stroke-dasharray:none;stroke-dashoffset:0;stroke-opacity:1"/>
    <path d="M 233.97659,104.76005 A 1.1364216,1.1364216 0 1 1 231.70374,104.76005 A 1.1364216,1.1364216 0 1 1 233.97659,104.76005 z" transform="matrix(-0.8995772,0,0,-1.0675474,722.07722,583.31567)" id="path4650" style="opacity:1;fill:#ffffff;fill-opacity:1;fill-rule:evenodd;stroke:none;stroke-width:44.99997711;stroke-miterlimit:4;stroke-dasharray:none;stroke-dashoffset:0;stroke-opacity:1"/>
    <path d="M 233.97659,104.76005 A 1.1364216,1.1364216 0 1 1 231.70374,104.76005 A 1.1364216,1.1364216 0 1 1 233.97659,104.76005 z" transform="matrix(-0.8995772,0,0,-1.0675474,596.07722,578.56879)" id="path4652" style="opacity:1;fill:#ffffff;fill-opacity:1;fill-rule:evenodd;stroke:none;stroke-width:44.99997711;stroke-miterlimit:4;stroke-dasharray:none;stroke-dashoffset:0;stroke-opacity:1"/>
    <path d="M 233.97659,104.76005 A 1.1364216,1.1364216 0 1 1 231.70374,104.76005 A 1.1364216,1.1364216 0 1 1 233.97659,104.76005 z" transform="matrix(-0.8995772,0,0,-1.0675474,556.07722,519.23272)" id="path4654" style="opacity:1;fill:#ffffff;fill-opacity:1;fill-rule:evenodd;stroke:none;stroke-width:44.99997711;stroke-miterlimit:4;stroke-dasharray:none;stroke-dashoffset:0;stroke-opacity:1"/>
    <path d="M 233.97659,104.76005 A 1.1364216,1.1364216 0 1 1 231.70374,104.76005 A 1.1364216,1.1364216 0 1 1 233.97659,104.76005 z" transform="matrix(-0.8995772,0,0,-1.0675474,550.07722,519.23272)" id="path4656" style="opacity:1;fill:#ffffff;fill-opacity:1;fill-rule:evenodd;stroke:none;stroke-width:44.99997711;stroke-miterlimit:4;stroke-dasharray:none;stroke-dashoffset:0;stroke-opacity:1"/>
    <path d="M 233.97659,104.76005 A 1.1364216,1.1364216 0 1 1 231.70374,104.76005 A 1.1364216,1.1364216 0 1 1 233.97659,104.76005 z" transform="matrix(-0.8995772,0,0,-1.0675474,546.07722,642.65174)" id="path4658" style="opacity:1;fill:#ffffff;fill-opacity:1;fill-rule:evenodd;stroke:none;stroke-width:44.99997711;stroke-miterlimit:4;stroke-dasharray:none;stroke-dashoffset:0;stroke-opacity:1"/>
    <path d="M 233.97659,104.76005 A 1.1364216,1.1364216 0 1 1 231.70374,104.76005 A 1.1364216,1.1364216 0 1 1 233.97659,104.76005 z" transform="matrix(-0.8995772,0,0,-1.0675474,458.07722,642.65174)" id="path4660" style="opacity:1;fill:#ffffff;fill-opacity:1;fill-rule:evenodd;stroke:none;stroke-width:44.99997711;stroke-miterlimit:4;stroke-dasharray:none;stroke-dashoffset:0;stroke-opacity:1"/>
    <path d="M 233.97659,104.76005 A 1.1364216,1.1364216 0 1 1 231.70374,104.76005 A 1.1364216,1.1364216 0 1 1 233.97659,104.76005 z" transform="matrix(-0.8995772,0,0,-1.0675474,448.07722,642.65174)" id="path4662" style="opacity:1;fill:#ffffff;fill-opacity:1;fill-rule:evenodd;stroke:none;stroke-width:44.99997711;stroke-miterlimit:4;stroke-dasharray:none;stroke-dashoffset:0;stroke-opacity:1"/>
    <path d="M 233.97659,104.76005 A 1.1364216,1.1364216 0 1 1 231.70374,104.76005 A 1.1364216,1.1364216 0 1 1 233.97659,104.76005 z" transform="matrix(-0.8995772,0,0,-1.0675474,428.07722,756.57698)" id="path4664" style="opacity:1;fill:#ffffff;fill-opacity:1;fill-rule:evenodd;stroke:none;stroke-width:44.99997711;stroke-miterlimit:4;stroke-dasharray:none;stroke-dashoffset:0;stroke-opacity:1"/>
    <path d="M 233.97659,104.76005 A 1.1364216,1.1364216 0 1 1 231.70374,104.76005 A 1.1364216,1.1364216 0 1 1 233.97659,104.76005 z" transform="matrix(-0.8995772,0,0,-1.0675474,400.07722,770.81764)" id="path4666" style="opacity:1;fill:#ffffff;fill-opacity:1;fill-rule:evenodd;stroke:none;stroke-width:44.99997711;stroke-miterlimit:4;stroke-dasharray:none;stroke-dashoffset:0;stroke-opacity:1"/>
    <path d="M 233.97659,104.76005 A 1.1364216,1.1364216 0 1 1 231.70374,104.76005 A 1.1364216,1.1364216 0 1 1 233.97659,104.76005 z" transform="matrix(-0.8995772,0,0,-1.0675474,392.07722,640.27829)" id="path4668" style="opacity:1;fill:#ffffff;fill-opacity:1;fill-rule:evenodd;stroke:none;stroke-width:44.99997711;stroke-miterlimit:4;stroke-dasharray:none;stroke-dashoffset:0;stroke-opacity:1"/>
    <path d="M 233.97659,104.76005 A 1.1364216,1.1364216 0 1 1 231.70374,104.76005 A 1.1364216,1.1364216 0 1 1 233.97659,104.76005 z" transform="matrix(-0.8995772,0,0,-1.0675474,396.07722,628.41108)" id="path4670" style="opacity:1;fill:#ffffff;fill-opacity:1;fill-rule:evenodd;stroke:none;stroke-width:44.99997711;stroke-miterlimit:4;stroke-dasharray:none;stroke-dashoffset:0;stroke-opacity:1"/>
    <path d="M 233.97659,104.76005 A 1.1364216,1.1364216 0 1 1 231.70374,104.76005 A 1.1364216,1.1364216 0 1 1 233.97659,104.76005 z" transform="matrix(-0.8995772,0,0,-1.0675474,474.07722,566.70157)" id="path4672" style="opacity:1;fill:#ffffff;fill-opacity:1;fill-rule:evenodd;stroke:none;stroke-width:44.99997711;stroke-miterlimit:4;stroke-dasharray:none;stroke-dashoffset:0;stroke-opacity:1"/>
    <path d="M 233.97659,104.76005 A 1.1364216,1.1364216 0 1 1 231.70374,104.76005 A 1.1364216,1.1364216 0 1 1 233.97659,104.76005 z" transform="matrix(-0.8995772,0,0,-1.0675474,456.07722,526.35305)" id="path4674" style="opacity:1;fill:#ffffff;fill-opacity:1;fill-rule:evenodd;stroke:none;stroke-width:44.99997711;stroke-miterlimit:4;stroke-dasharray:none;stroke-dashoffset:0;stroke-opacity:1"/>
    <path d="M 233.97659,104.76005 A 1.1364216,1.1364216 0 1 1 231.70374,104.76005 A 1.1364216,1.1364216 0 1 1 233.97659,104.76005 z" transform="matrix(-0.8995772,0,0,-1.0675474,474.07722,490.75141)" id="path4676" style="opacity:1;fill:#ffffff;fill-opacity:1;fill-rule:evenodd;stroke:none;stroke-width:44.99997711;stroke-miterlimit:4;stroke-dasharray:none;stroke-dashoffset:0;stroke-opacity:1"/>
    <path d="M 233.97659,104.76005 A 1.1364216,1.1364216 0 1 1 231.70374,104.76005 A 1.1364216,1.1364216 0 1 1 233.97659,104.76005 z" transform="matrix(-0.8995772,0,0,-1.0675474,396.07722,535.84682)" id="path4678" style="opacity:1;fill:#ffffff;fill-opacity:1;fill-rule:evenodd;stroke:none;stroke-width:44.99997711;stroke-miterlimit:4;stroke-dasharray:none;stroke-dashoffset:0;stroke-opacity:1"/>
    <path d="M 233.97659,104.76005 A 1.1364216,1.1364216 0 1 1 231.70374,104.76005 A 1.1364216,1.1364216 0 1 1 233.97659,104.76005 z" transform="matrix(-0.8995772,0,0,-1.0675474,324.07722,538.22026)" id="path4680" style="opacity:1;fill:#ffffff;fill-opacity:1;fill-rule:evenodd;stroke:none;stroke-width:44.99997711;stroke-miterlimit:4;stroke-dasharray:none;stroke-dashoffset:0;stroke-opacity:1"/>
    <path d="M 233.97659,104.76005 A 1.1364216,1.1364216 0 1 1 231.70374,104.76005 A 1.1364216,1.1364216 0 1 1 233.97659,104.76005 z" transform="matrix(-0.8995772,0,0,-1.0675474,338.07722,521.60617)" id="path4682" style="opacity:1;fill:#ffffff;fill-opacity:1;fill-rule:evenodd;stroke:none;stroke-width:44.99997711;stroke-miterlimit:4;stroke-dasharray:none;stroke-dashoffset:0;stroke-opacity:1"/>
    <path d="M 233.97659,104.76005 A 1.1364216,1.1364216 0 1 1 231.70374,104.76005 A 1.1364216,1.1364216 0 1 1 233.97659,104.76005 z" transform="matrix(-0.8995772,0,0,-1.0675474,418.07722,481.25764)" id="path4684" style="opacity:1;fill:#ffffff;fill-opacity:1;fill-rule:evenodd;stroke:none;stroke-width:44.99997711;stroke-miterlimit:4;stroke-dasharray:none;stroke-dashoffset:0;stroke-opacity:1"/>
    <path d="M 233.97659,104.76005 A 1.1364216,1.1364216 0 1 1 231.70374,104.76005 A 1.1364216,1.1364216 0 1 1 233.97659,104.76005 z" transform="matrix(-0.8995772,0,0,-1.0675474,480.07722,457.52322)" id="path4686" style="opacity:1;fill:#ffffff;fill-opacity:1;fill-rule:evenodd;stroke:none;stroke-width:44.99997711;stroke-miterlimit:4;stroke-dasharray:none;stroke-dashoffset:0;stroke-opacity:1"/>
    <path d="M 233.97659,104.76005 A 1.1364216,1.1364216 0 1 1 231.70374,104.76005 A 1.1364216,1.1364216 0 1 1 233.97659,104.76005 z" transform="matrix(-0.8995772,0,0,-1.0675474,470.07722,455.14977)" id="path4688" style="opacity:1;fill:#ffffff;fill-opacity:1;fill-rule:evenodd;stroke:none;stroke-width:44.99997711;stroke-miterlimit:4;stroke-dasharray:none;stroke-dashoffset:0;stroke-opacity:1"/>
    <path d="M 233.97659,104.76005 A 1.1364216,1.1364216 0 1 1 231.70374,104.76005 A 1.1364216,1.1364216 0 1 1 233.97659,104.76005 z" transform="matrix(-0.8995772,0,0,-1.0675474,390.07722,431.41535)" id="path4690" style="opacity:1;fill:#ffffff;fill-opacity:1;fill-rule:evenodd;stroke:none;stroke-width:44.99997711;stroke-miterlimit:4;stroke-dasharray:none;stroke-dashoffset:0;stroke-opacity:1"/>
    <path d="M 233.97659,104.76005 A 1.1364216,1.1364216 0 1 1 231.70374,104.76005 A 1.1364216,1.1364216 0 1 1 233.97659,104.76005 z" transform="matrix(-0.8995772,0,0,-1.0675474,396.07722,381.57305)" id="path4692" style="opacity:1;fill:#ffffff;fill-opacity:1;fill-rule:evenodd;stroke:none;stroke-width:44.99997711;stroke-miterlimit:4;stroke-dasharray:none;stroke-dashoffset:0;stroke-opacity:1"/>
    <path d="M 233.97659,104.76005 A 1.1364216,1.1364216 0 1 1 231.70374,104.76005 A 1.1364216,1.1364216 0 1 1 233.97659,104.76005 z" transform="matrix(-0.8995772,0,0,-1.0675474,376.07722,376.82617)" id="path4694" style="opacity:1;fill:#ffffff;fill-opacity:1;fill-rule:evenodd;stroke:none;stroke-width:44.99997711;stroke-miterlimit:4;stroke-dasharray:none;stroke-dashoffset:0;stroke-opacity:1"/>
    <path d="M 233.97659,104.76005 A 1.1364216,1.1364216 0 1 1 231.70374,104.76005 A 1.1364216,1.1364216 0 1 1 233.97659,104.76005 z" transform="matrix(-0.8995772,0,0,-1.0675474,412.07722,336.47765)" id="path4696" style="opacity:1;fill:#ffffff;fill-opacity:1;fill-rule:evenodd;stroke:none;stroke-width:44.99997711;stroke-miterlimit:4;stroke-dasharray:none;stroke-dashoffset:0;stroke-opacity:1"/>
    <path d="M 233.97659,104.76005 A 1.1364216,1.1364216 0 1 1 231.70374,104.76005 A 1.1364216,1.1364216 0 1 1 233.97659,104.76005 z" transform="matrix(-0.8995772,0,0,-1.0675474,434.07722,281.88847)" id="path4698" style="opacity:1;fill:#ffffff;fill-opacity:1;fill-rule:evenodd;stroke:none;stroke-width:44.99997711;stroke-miterlimit:4;stroke-dasharray:none;stroke-dashoffset:0;stroke-opacity:1"/>
    <path d="M 233.97659,104.76005 A 1.1364216,1.1364216 0 1 1 231.70374,104.76005 A 1.1364216,1.1364216 0 1 1 233.97659,104.76005 z" transform="matrix(-0.8995772,0,0,-1.0675474,366.07722,270.02125)" id="path4700" style="opacity:1;fill:#ffffff;fill-opacity:1;fill-rule:evenodd;stroke:none;stroke-width:44.99997711;stroke-miterlimit:4;stroke-dasharray:none;stroke-dashoffset:0;stroke-opacity:1"/>
    <path d="M 233.97659,104.76005 A 1.1364216,1.1364216 0 1 1 231.70374,104.76005 A 1.1364216,1.1364216 0 1 1 233.97659,104.76005 z" transform="matrix(-0.8995772,0,0,-1.0675474,266.07722,495.4983)" id="path4702" style="opacity:1;fill:#ffffff;fill-opacity:1;fill-rule:evenodd;stroke:none;stroke-width:44.99997711;stroke-miterlimit:4;stroke-dasharray:none;stroke-dashoffset:0;stroke-opacity:1"/>
    <path d="M 233.97659,104.76005 A 1.1364216,1.1364216 0 1 1 231.70374,104.76005 A 1.1364216,1.1364216 0 1 1 233.97659,104.76005 z" transform="matrix(-0.8995772,0,0,-1.0675474,246.07722,459.89666)" id="path4704" style="opacity:1;fill:#ffffff;fill-opacity:1;fill-rule:evenodd;stroke:none;stroke-width:44.99997711;stroke-miterlimit:4;stroke-dasharray:none;stroke-dashoffset:0;stroke-opacity:1"/>
    <path d="M 233.97659,104.76005 A 1.1364216,1.1364216 0 1 1 231.70374,104.76005 A 1.1364216,1.1364216 0 1 1 233.97659,104.76005 z" transform="matrix(-0.8995772,0,0,-1.0675474,258.07722,393.44027)" id="path4706" style="opacity:1;fill:#ffffff;fill-opacity:1;fill-rule:evenodd;stroke:none;stroke-width:44.99997711;stroke-miterlimit:4;stroke-dasharray:none;stroke-dashoffset:0;stroke-opacity:1"/>
    <path d="M 233.97659,104.76005 A 1.1364216,1.1364216 0 1 1 231.70374,104.76005 A 1.1364216,1.1364216 0 1 1 233.97659,104.76005 z" transform="matrix(-0.8995772,0,0,-1.0675474,222.07722,289.00879)" id="path4708" style="opacity:1;fill:#ffffff;fill-opacity:1;fill-rule:evenodd;stroke:none;stroke-width:44.99997711;stroke-miterlimit:4;stroke-dasharray:none;stroke-dashoffset:0;stroke-opacity:1"/>
    <path d="M 233.97659,104.76005 A 1.1364216,1.1364216 0 1 1 231.70374,104.76005 A 1.1364216,1.1364216 0 1 1 233.97659,104.76005 z" transform="matrix(-0.8995772,0,0,-1.0675474,216.07722,633.15797)" id="path4710" style="opacity:1;fill:#ffffff;fill-opacity:1;fill-rule:evenodd;stroke:none;stroke-width:44.99997711;stroke-miterlimit:4;stroke-dasharray:none;stroke-dashoffset:0;stroke-opacity:1"/>
    <path d="M 233.97659,104.76005 A 1.1364216,1.1364216 0 1 1 231.70374,104.76005 A 1.1364216,1.1364216 0 1 1 233.97659,104.76005 z" transform="matrix(-0.8995772,0,0,-1.0675474,252.07722,656.89239)" id="path4712" style="opacity:1;fill:#ffffff;fill-opacity:1;fill-rule:evenodd;stroke:none;stroke-width:44.99997711;stroke-miterlimit:4;stroke-dasharray:none;stroke-dashoffset:0;stroke-opacity:1"/>
    <path d="M 233.97659,104.76005 A 1.1364216,1.1364216 0 1 1 231.70374,104.76005 A 1.1364216,1.1364216 0 1 1 233.97659,104.76005 z" transform="matrix(-0.8995772,0,0,-1.0675474,284.07722,675.87993)" id="path4714" style="opacity:1;fill:#ffffff;fill-opacity:1;fill-rule:evenodd;stroke:none;stroke-width:44.99997711;stroke-miterlimit:4;stroke-dasharray:none;stroke-dashoffset:0;stroke-opacity:1"/>
    <path d="M 233.97659,104.76005 A 1.1364216,1.1364216 0 1 1 231.70374,104.76005 A 1.1364216,1.1364216 0 1 1 233.97659,104.76005 z" transform="matrix(-0.8995772,0,0,-1.0675474,454.07722,262.90093)" id="path4716" style="opacity:1;fill:#ffffff;fill-opacity:1;fill-rule:evenodd;stroke:none;stroke-width:44.99997711;stroke-miterlimit:4;stroke-dasharray:none;stroke-dashoffset:0;stroke-opacity:1"/>
    <path d="M 233.97659,104.76005 A 1.1364216,1.1364216 0 1 1 231.70374,104.76005 A 1.1364216,1.1364216 0 1 1 233.97659,104.76005 z" transform="matrix(-0.8995772,0,0,-1.0675474,444.07722,251.03371)" id="path4718" style="opacity:1;fill:#ffffff;fill-opacity:1;fill-rule:evenodd;stroke:none;stroke-width:44.99997711;stroke-miterlimit:4;stroke-dasharray:none;stroke-dashoffset:0;stroke-opacity:1"/>
    <path d="M 233.97659,104.76005 A 1.1364216,1.1364216 0 1 1 231.70374,104.76005 A 1.1364216,1.1364216 0 1 1 233.97659,104.76005 z" transform="matrix(-0.8995772,0,0,-1.0675474,448.07722,198.81798)" id="path4720" style="opacity:1;fill:#ffffff;fill-opacity:1;fill-rule:evenodd;stroke:none;stroke-width:44.99997711;stroke-miterlimit:4;stroke-dasharray:none;stroke-dashoffset:0;stroke-opacity:1"/>
    <path d="M 233.97659,104.76005 A 1.1364216,1.1364216 0 1 1 231.70374,104.76005 A 1.1364216,1.1364216 0 1 1 233.97659,104.76005 z" transform="matrix(-0.8995772,0,0,-1.0675474,382.07722,189.32421)" id="path4722" style="opacity:1;fill:#ffffff;fill-opacity:1;fill-rule:evenodd;stroke:none;stroke-width:44.99997711;stroke-miterlimit:4;stroke-dasharray:none;stroke-dashoffset:0;stroke-opacity:1"/>
    <path d="M 233.97659,104.76005 A 1.1364216,1.1364216 0 1 1 231.70374,104.76005 A 1.1364216,1.1364216 0 1 1 233.97659,104.76005 z" transform="matrix(-0.8995772,0,0,-1.0675474,326.07722,175.08355)" id="path4724" style="opacity:1;fill:#ffffff;fill-opacity:1;fill-rule:evenodd;stroke:none;stroke-width:44.99997711;stroke-miterlimit:4;stroke-dasharray:none;stroke-dashoffset:0;stroke-opacity:1"/>
    <path d="M 233.97659,104.76005 A 1.1364216,1.1364216 0 1 1 231.70374,104.76005 A 1.1364216,1.1364216 0 1 1 233.97659,104.76005 z" transform="matrix(-0.8995772,0,0,-1.0675474,310.07722,179.83044)" id="path4726" style="opacity:1;fill:#ffffff;fill-opacity:1;fill-rule:evenodd;stroke:none;stroke-width:44.99997711;stroke-miterlimit:4;stroke-dasharray:none;stroke-dashoffset:0;stroke-opacity:1"/>
    <path d="M 233.97659,104.76005 A 1.1364216,1.1364216 0 1 1 231.70374,104.76005 A 1.1364216,1.1364216 0 1 1 233.97659,104.76005 z" transform="matrix(-0.8995772,0,0,-1.0675474,538.07722,139.48191)" id="path4728" style="opacity:1;fill:#ffffff;fill-opacity:1;fill-rule:evenodd;stroke:none;stroke-width:44.99997711;stroke-miterlimit:4;stroke-dasharray:none;stroke-dashoffset:0;stroke-opacity:1"/>
    <path d="M 233.97659,104.76005 A 1.1364216,1.1364216 0 1 1 231.70374,104.76005 A 1.1364216,1.1364216 0 1 1 233.97659,104.76005 z" transform="matrix(-0.8995772,0,0,-1.0675474,594.07722,144.2288)" id="path4730" style="opacity:1;fill:#ffffff;fill-opacity:1;fill-rule:evenodd;stroke:none;stroke-width:44.99997711;stroke-miterlimit:4;stroke-dasharray:none;stroke-dashoffset:0;stroke-opacity:1"/>
    <path d="M 233.97659,104.76005 A 1.1364216,1.1364216 0 1 1 231.70374,104.76005 A 1.1364216,1.1364216 0 1 1 233.97659,104.76005 z" transform="matrix(-0.8995772,0,0,-1.0675474,592.07722,158.46945)" id="path4732" style="opacity:1;fill:#ffffff;fill-opacity:1;fill-rule:evenodd;stroke:none;stroke-width:44.99997711;stroke-miterlimit:4;stroke-dasharray:none;stroke-dashoffset:0;stroke-opacity:1"/>
    <path d="M 233.97659,104.76005 A 1.1364216,1.1364216 0 1 1 231.70374,104.76005 A 1.1364216,1.1364216 0 1 1 233.97659,104.76005 z" transform="matrix(-0.8995772,0,0,-1.0675474,626.07722,196.44453)" id="path4734" style="opacity:1;fill:#ffffff;fill-opacity:1;fill-rule:evenodd;stroke:none;stroke-width:44.99997711;stroke-miterlimit:4;stroke-dasharray:none;stroke-dashoffset:0;stroke-opacity:1"/>
    <path d="M 233.97659,104.76005 A 1.1364216,1.1364216 0 1 1 231.70374,104.76005 A 1.1364216,1.1364216 0 1 1 233.97659,104.76005 z" transform="matrix(-0.8995772,0,0,-1.0675474,580.07722,312.74322)" id="path4736" style="opacity:1;fill:#ffffff;fill-opacity:1;fill-rule:evenodd;stroke:none;stroke-width:44.99997711;stroke-miterlimit:4;stroke-dasharray:none;stroke-dashoffset:0;stroke-opacity:1"/>
    <path d="M 233.97659,104.76005 A 1.1364216,1.1364216 0 1 1 231.70374,104.76005 A 1.1364216,1.1364216 0 1 1 233.97659,104.76005 z" transform="matrix(-0.8995772,0,0,-1.0675474,576.07722,348.34486)" id="path4738" style="opacity:1;fill:#ffffff;fill-opacity:1;fill-rule:evenodd;stroke:none;stroke-width:44.99997711;stroke-miterlimit:4;stroke-dasharray:none;stroke-dashoffset:0;stroke-opacity:1"/>
    <path d="M 233.97659,104.76005 A 1.1364216,1.1364216 0 1 1 231.70374,104.76005 A 1.1364216,1.1364216 0 1 1 233.97659,104.76005 z" transform="matrix(-0.8995772,0,0,-1.0675474,556.07722,348.34486)" id="path4740" style="opacity:1;fill:#ffffff;fill-opacity:1;fill-rule:evenodd;stroke:none;stroke-width:44.99997711;stroke-miterlimit:4;stroke-dasharray:none;stroke-dashoffset:0;stroke-opacity:1"/>
    <path d="M 233.97659,104.76005 A 1.1364216,1.1364216 0 1 1 231.70374,104.76005 A 1.1364216,1.1364216 0 1 1 233.97659,104.76005 z" transform="matrix(-0.8995772,0,0,-1.0675474,640.07722,236.79306)" id="path4742" style="opacity:1;fill:#ffffff;fill-opacity:1;fill-rule:evenodd;stroke:none;stroke-width:44.99997711;stroke-miterlimit:4;stroke-dasharray:none;stroke-dashoffset:0;stroke-opacity:1"/>
    <path d="M 233.97659,104.76005 A 1.1364216,1.1364216 0 1 1 231.70374,104.76005 A 1.1364216,1.1364216 0 1 1 233.97659,104.76005 z" transform="matrix(-0.8995772,0,0,-1.0675474,646.07722,279.51502)" id="path4744" style="opacity:1;fill:#ffffff;fill-opacity:1;fill-rule:evenodd;stroke:none;stroke-width:44.99997711;stroke-miterlimit:4;stroke-dasharray:none;stroke-dashoffset:0;stroke-opacity:1"/>
    <path d="M 233.97659,104.76005 A 1.1364216,1.1364216 0 1 1 231.70374,104.76005 A 1.1364216,1.1364216 0 1 1 233.97659,104.76005 z" transform="matrix(-0.8995772,0,0,-1.0675474,660.07722,293.75568)" id="path4746" style="opacity:1;fill:#ffffff;fill-opacity:1;fill-rule:evenodd;stroke:none;stroke-width:44.99997711;stroke-miterlimit:4;stroke-dasharray:none;stroke-dashoffset:0;stroke-opacity:1"/>
    <path d="M 233.97659,104.76005 A 1.1364216,1.1364216 0 1 1 231.70374,104.76005 A 1.1364216,1.1364216 0 1 1 233.97659,104.76005 z" transform="matrix(-0.8995772,0,0,-1.0675474,668.07722,341.22453)" id="path4748" style="opacity:1;fill:#ffffff;fill-opacity:1;fill-rule:evenodd;stroke:none;stroke-width:44.99997711;stroke-miterlimit:4;stroke-dasharray:none;stroke-dashoffset:0;stroke-opacity:1"/>
    <path d="M 233.97659,104.76005 A 1.1364216,1.1364216 0 1 1 231.70374,104.76005 A 1.1364216,1.1364216 0 1 1 233.97659,104.76005 z" transform="matrix(-0.8995772,0,0,-1.0675474,640.07722,407.68092)" id="path4750" style="opacity:1;fill:#ffffff;fill-opacity:1;fill-rule:evenodd;stroke:none;stroke-width:44.99997711;stroke-miterlimit:4;stroke-dasharray:none;stroke-dashoffset:0;stroke-opacity:1"/>
    <path d="M 233.97659,104.76005 A 1.1364216,1.1364216 0 1 1 231.70374,104.76005 A 1.1364216,1.1364216 0 1 1 233.97659,104.76005 z" transform="matrix(-0.8995772,0,0,-1.0675474,628.07722,450.40289)" id="path4752" style="opacity:1;fill:#ffffff;fill-opacity:1;fill-rule:evenodd;stroke:none;stroke-width:44.99997711;stroke-miterlimit:4;stroke-dasharray:none;stroke-dashoffset:0;stroke-opacity:1"/>
    <path d="M 233.97659,104.76005 A 1.1364216,1.1364216 0 1 1 231.70374,104.76005 A 1.1364216,1.1364216 0 1 1 233.97659,104.76005 z" transform="matrix(-0.8995772,0,0,-1.0675474,676.07722,426.66846)" id="path4754" style="opacity:1;fill:#ffffff;fill-opacity:1;fill-rule:evenodd;stroke:none;stroke-width:44.99997711;stroke-miterlimit:4;stroke-dasharray:none;stroke-dashoffset:0;stroke-opacity:1"/>
    <path d="M 233.97659,104.76005 A 1.1364216,1.1364216 0 1 1 231.70374,104.76005 A 1.1364216,1.1364216 0 1 1 233.97659,104.76005 z" transform="matrix(-0.8995772,0,0,-1.0675474,720.07722,431.41535)" id="path4756" style="opacity:1;fill:#ffffff;fill-opacity:1;fill-rule:evenodd;stroke:none;stroke-width:44.99997711;stroke-miterlimit:4;stroke-dasharray:none;stroke-dashoffset:0;stroke-opacity:1"/>
    <path d="M 233.97659,104.76005 A 1.1364216,1.1364216 0 1 1 231.70374,104.76005 A 1.1364216,1.1364216 0 1 1 233.97659,104.76005 z" transform="matrix(-0.8995772,0,0,-1.0675474,758.07722,393.44027)" id="path4758" style="opacity:1;fill:#ffffff;fill-opacity:1;fill-rule:evenodd;stroke:none;stroke-width:44.99997711;stroke-miterlimit:4;stroke-dasharray:none;stroke-dashoffset:0;stroke-opacity:1"/>
    <path d="M 233.97659,104.76005 A 1.1364216,1.1364216 0 1 1 231.70374,104.76005 A 1.1364216,1.1364216 0 1 1 233.97659,104.76005 z" transform="matrix(-0.8995772,0,0,-1.0675474,748.07722,364.95896)" id="path4760" style="opacity:1;fill:#ffffff;fill-opacity:1;fill-rule:evenodd;stroke:none;stroke-width:44.99997711;stroke-miterlimit:4;stroke-dasharray:none;stroke-dashoffset:0;stroke-opacity:1"/>
    <path d="M 233.97659,104.76005 A 1.1364216,1.1364216 0 1 1 231.70374,104.76005 A 1.1364216,1.1364216 0 1 1 233.97659,104.76005 z" transform="matrix(-0.8995772,0,0,-1.0675474,712.07722,362.58551)" id="path4762" style="opacity:1;fill:#ffffff;fill-opacity:1;fill-rule:evenodd;stroke:none;stroke-width:44.99997711;stroke-miterlimit:4;stroke-dasharray:none;stroke-dashoffset:0;stroke-opacity:1"/>
    <path d="M 233.97659,104.76005 A 1.1364216,1.1364216 0 1 1 231.70374,104.76005 A 1.1364216,1.1364216 0 1 1 233.97659,104.76005 z" transform="matrix(-0.8995772,0,0,-1.0675474,714.07722,324.61043)" id="path4764" style="opacity:1;fill:#ffffff;fill-opacity:1;fill-rule:evenodd;stroke:none;stroke-width:44.99997711;stroke-miterlimit:4;stroke-dasharray:none;stroke-dashoffset:0;stroke-opacity:1"/>
    <path d="M 233.97659,104.76005 A 1.1364216,1.1364216 0 1 1 231.70374,104.76005 A 1.1364216,1.1364216 0 1 1 233.97659,104.76005 z" transform="matrix(-0.8995772,0,0,-1.0675474,750.07722,265.27437)" id="path4766" style="opacity:1;fill:#ffffff;fill-opacity:1;fill-rule:evenodd;stroke:none;stroke-width:44.99997711;stroke-miterlimit:4;stroke-dasharray:none;stroke-dashoffset:0;stroke-opacity:1"/>
    <path d="M 233.97659,104.76005 A 1.1364216,1.1364216 0 1 1 231.70374,104.76005 A 1.1364216,1.1364216 0 1 1 233.97659,104.76005 z" transform="matrix(-0.8995772,0,0,-1.0675474,748.07722,236.79306)" id="path4768" style="opacity:1;fill:#ffffff;fill-opacity:1;fill-rule:evenodd;stroke:none;stroke-width:44.99997711;stroke-miterlimit:4;stroke-dasharray:none;stroke-dashoffset:0;stroke-opacity:1"/>
    <path d="M 233.97659,104.76005 A 1.1364216,1.1364216 0 1 1 231.70374,104.76005 A 1.1364216,1.1364216 0 1 1 233.97659,104.76005 z" transform="matrix(-0.8995772,0,0,-1.0675474,724.07722,196.44453)" id="path4770" style="opacity:1;fill:#ffffff;fill-opacity:1;fill-rule:evenodd;stroke:none;stroke-width:44.99997711;stroke-miterlimit:4;stroke-dasharray:none;stroke-dashoffset:0;stroke-opacity:1"/>
    <path d="M 233.97659,104.76005 A 1.1364216,1.1364216 0 1 1 231.70374,104.76005 A 1.1364216,1.1364216 0 1 1 233.97659,104.76005 z" transform="matrix(-0.8995772,0,0,-1.0675474,832.07722,186.95076)" id="path4772" style="opacity:1;fill:#ffffff;fill-opacity:1;fill-rule:evenodd;stroke:none;stroke-width:44.99997711;stroke-miterlimit:4;stroke-dasharray:none;stroke-dashoffset:0;stroke-opacity:1"/>
    <path d="M 233.97659,104.76005 A 1.1364216,1.1364216 0 1 1 231.70374,104.76005 A 1.1364216,1.1364216 0 1 1 233.97659,104.76005 z" transform="matrix(-0.8995772,0,0,-1.0675474,836.07722,184.57732)" id="path4774" style="opacity:1;fill:#ffffff;fill-opacity:1;fill-rule:evenodd;stroke:none;stroke-width:44.99997711;stroke-miterlimit:4;stroke-dasharray:none;stroke-dashoffset:0;stroke-opacity:1"/>
    <path d="M 367.49999,293.84283 A 35.714287,35.714287 0 1 1 296.07142,293.84283 A 35.714287,35.714287 0 1 1 367.49999,293.84283 z" transform="matrix(7.8497054,0,0,9.0093605,-2270.4915,-2293.3681)" id="path3262" style="opacity:1;fill:none;fill-opacity:1;fill-rule:evenodd;stroke:#ef0000;stroke-width:0.59456086;stroke-miterlimit:4;stroke-dasharray:none;stroke-dashoffset:0;stroke-opacity:0.66233766"/>
  </g>
</svg>