<?xml version="1.0" encoding="UTF-8" standalone="no"?>
<!-- Created with Inkscape (http://www.inkscape.org/) -->

<svg
   version="1.1"
   id="svg2"
   width="720.40491"
   height="526.9541"
   viewBox="0 0 720.40491 526.9541"
   sodipodi:docname="Haicheng-rain-isotope.svg"
   inkscape:version="1.2.2 (b0a8486541, 2022-12-01)"
   xmlns:inkscape="http://www.inkscape.org/namespaces/inkscape"
   xmlns:sodipodi="http://sodipodi.sourceforge.net/DTD/sodipodi-0.dtd"
   xmlns="http://www.w3.org/2000/svg"
   xmlns:svg="http://www.w3.org/2000/svg">
  <defs
     id="defs6">
    <clipPath
       clipPathUnits="userSpaceOnUse"
       id="clipPath178">
      <path
         d="M 0,-14.575 H 88.044 V 0.0659637 H 0 Z"
         id="path176" />
    </clipPath>
  </defs>
  <sodipodi:namedview
     id="namedview4"
     pagecolor="#ffffff"
     bordercolor="#000000"
     borderopacity="0.25"
     inkscape:showpageshadow="2"
     inkscape:pageopacity="0.0"
     inkscape:pagecheckerboard="0"
     inkscape:deskcolor="#d1d1d1"
     showgrid="false"
     inkscape:zoom="1.7597373"
     inkscape:cx="213.09999"
     inkscape:cy="272.19972"
     inkscape:window-width="2520"
     inkscape:window-height="1600"
     inkscape:window-x="0"
     inkscape:window-y="44"
     inkscape:window-maximized="1"
     inkscape:current-layer="g8" />
  <g
     id="g8"
     inkscape:groupmode="layer"
     inkscape:label="A penultimate glacial monsoon record from Hulu Cave and two-phase glacial terminations - Supp"
     transform="matrix(1.3333333,0,0,-1.3333333,-37.577565,823.14846)">
    <path
       d="M 279.316,330.542 H 152.561 v 211.915 h 126.755 z"
       style="fill:#ebebeb;fill-opacity:1;fill-rule:nonzero;stroke:none"
       id="path10" />
    <path
       d="m 277.902,531.587 -9.265,-27.559 h 5.147 v -155.17 h 7.978 v 155.17 h 4.633 l -8.493,27.559"
       style="fill:#999999;fill-opacity:1;fill-rule:nonzero;stroke:none"
       id="path12" />
    <path
       d="m 453.586,329.754 h -74.072 v 211.915 h 74.072 z"
       style="fill:#ebebeb;fill-opacity:1;fill-rule:nonzero;stroke:none"
       id="path14" />
    <text
       xml:space="preserve"
       transform="matrix(1,0,0,-0.99973384,292.1779,297.1702)"
       style="font-variant:normal;font-weight:bold;font-size:13.9014px;font-family:'Times New Roman';-inkscape-font-specification:TimesNewRomanPS-BoldMT;writing-mode:lr-tb;fill:#231f20;fill-opacity:1;fill-rule:nonzero;stroke:none"
       id="text18"><tspan
         x="0 13.122922 20.073622 27.802799 32.431965"
         y="0"
         sodipodi:role="line"
         id="tspan16">Month</tspan></text>
    <text
       xml:space="preserve"
       transform="matrix(0,1,1,0,119.4755,384.2649)"
       style="font-variant:normal;font-weight:normal;font-size:12.3535px;font-family:Symbol;-inkscape-font-specification:Symbol;writing-mode:lr-tb;fill:#231f20;fill-opacity:1;fill-rule:nonzero;stroke:none"
       id="text22"><tspan
         x="0"
         y="0"
         id="tspan20">δ</tspan></text>
    <text
       xml:space="preserve"
       transform="matrix(0,1,1,0,114.8429,390.3676)"
       style="font-variant:normal;font-weight:bold;font-size:9.2652px;font-family:'Times New Roman';-inkscape-font-specification:TimesNewRomanPS-BoldMT;writing-mode:lr-tb;fill:#231f20;fill-opacity:1;fill-rule:nonzero;stroke:none"
       id="text26"><tspan
         x="0 4.6325998"
         y="0"
         sodipodi:role="line"
         id="tspan24">18</tspan></text>
    <text
       xml:space="preserve"
       transform="matrix(0,1,1,0,119.4755,399.6327)"
       style="font-variant:normal;font-weight:bold;font-size:12.3535px;font-family:'Times New Roman';-inkscape-font-specification:TimesNewRomanPS-BoldMT;writing-mode:lr-tb;fill:#231f20;fill-opacity:1;fill-rule:nonzero;stroke:none"
       id="text30"><tspan
         x="0 9.5924931 12.668514 16.763699 29.098669 32.168514 35.244537 44.145233 50.995247 62.63842 72.230911 84.565887"
         y="0"
         sodipodi:role="line"
         id="tspan28">O (‰, VSMOW)</tspan></text>
    <path
       d="m 151.879,329.82 h 302.519 m -289.953,-1.845 v 3.766 m 25.225,-3.766 v 3.766 m 25.226,-3.766 v 3.766 m 25.179,-3.766 v 3.766 m 25.225,-3.766 v 3.766 m 25.226,-3.766 v 3.766 m 25.178,-3.766 v 3.766 m 25.226,-3.766 v 3.766 m 25.226,-3.766 v 3.766 m 25.178,-3.766 v 3.766 m 25.225,-3.766 v 3.766 m 25.226,-3.766 v 3.766"
       style="fill:none;stroke:#231f20;stroke-width:0.772;stroke-linecap:square;stroke-linejoin:miter;stroke-miterlimit:10;stroke-dasharray:none;stroke-opacity:1"
       id="path32" />
    <text
       xml:space="preserve"
       transform="matrix(1,0,0,-1,161.9029,314.0976)"
       style="font-variant:normal;font-weight:bold;font-size:10.8093px;font-family:'Times New Roman';-inkscape-font-specification:TimesNewRomanPS-BoldMT;writing-mode:lr-tb;fill:#231f20;fill-opacity:1;fill-rule:nonzero;stroke:none"
       id="text36"><tspan
         x="0 25.214853 50.429707 75.644562 100.85941 126.07427 151.28912 176.50398 201.71883 224.35027 229.76248 249.57268 254.98489 274.7951 280.20734"
         y="0"
         sodipodi:role="line"
         id="tspan34">123456789101112</tspan></text>
    <path
       d="m 151.879,541.657 h 302.519 m -302.519,0 V 329.82 m 0.848,198.61 h 3.012 m -3.012,-39.732 h 3.012 m -3.012,-39.684 h 3.012 m -3.012,-39.732 h 3.012 m -3.012,-39.731 h 3.012"
       style="fill:none;stroke:#231f20;stroke-width:0.772;stroke-linecap:square;stroke-linejoin:miter;stroke-miterlimit:10;stroke-dasharray:none;stroke-opacity:1"
       id="path38" />
    <text
       xml:space="preserve"
       transform="matrix(1,0,0,-1,133.3933,525.4164)"
       style="font-variant:normal;font-weight:bold;font-size:10.8093px;font-family:'Times New Roman';-inkscape-font-specification:TimesNewRomanPS-BoldMT;writing-mode:lr-tb;fill:#231f20;fill-opacity:1;fill-rule:nonzero;stroke:none"
       id="text52"><tspan
         x="0 3.6157107 9.0365744"
         y="0"
         sodipodi:role="line"
         id="tspan40">-15</tspan><tspan
         x="0 3.6157107 9.0365744"
         y="39.734985"
         sodipodi:role="line"
         id="tspan42">-12</tspan><tspan
         x="5.0803709 8.7014866"
         y="79.415924"
         sodipodi:role="line"
         id="tspan44">-9</tspan><tspan
         x="5.0803709 8.7014866"
         y="119.15091"
         sodipodi:role="line"
         id="tspan46">-6</tspan><tspan
         x="5.0803709 8.7014866"
         y="158.88589"
         sodipodi:role="line"
         id="tspan48">-3</tspan><tspan
         x="8.1394033"
         y="198.56683"
         id="tspan50">0</tspan></text>
    <path
       d="m 164.445,400.95 25.225,-13.37 m 0,0 25.226,-14.027 m 0,0 25.179,-9.698 m 0,0 25.225,-3.294 m 0,0 25.226,76.542 m 0,0 25.178,18.125 m 0,0 25.226,-1.978 m 0,0 25.226,18.266 m 0,0 25.178,-52.96 m 0,0 25.225,-5.413 m 0,0 25.226,-24.385 m -277.34,79.321 25.225,-112.038 m 0,0 25.226,-14.169 m 0,0 25.179,24.666 m 0,0 25.225,-14.97 m 0,0 25.226,46.604 m 0,0 25.178,35.73 m 0,0 25.226,21.043 m 0,0 25.226,-25.138 m 0,0 25.178,20.242 m 0,0 25.225,-58.655 m 0,0 25.226,33.753 m -226.889,-42.604 25.179,-3.436 m 0,0 25.225,23.161 m 0,0 25.226,1.036 m 0,0 25.178,22.925 m 0,0 25.226,24.621 m 0,0 25.226,-53.101 m 0,0 25.178,10.356 m 0,0 25.225,12.711 m 0,0 25.226,-52.96 m -277.34,8.85 25.225,4.378 m 0,0 25.226,-10.215 m 0,0 25.179,-12.569 m 0,0 25.225,55.36 m 0,0 25.226,13.37 m 0,0 25.178,16.947 m 0,0 25.226,12.71 m 0,0 25.226,1.177 m 0,0 25.178,-40.39 m 0,0 25.225,-2.637 m 0,0 25.226,-38.648 m -277.34,16.146 25.225,-16.806 m 0,0 25.226,13.511 m 0,0 25.179,-21.843 m 0,0 25.225,30.975 m 0,0 25.226,37.472 m 0,0 25.178,58.656 m 0,0 25.226,-36.436 m 0,0 25.226,37.19 m 0,0 25.178,-32.011 m 0,0 25.225,-40.674 m 0,0 25.226,-20.618 m -277.34,-40.155 25.225,9.273 m 0,0 25.226,-4.471 m 0,0 25.179,7.248 m 0,0 25.225,26.645 m 0,0 25.226,15.723 m 0,0 25.178,13.51 m 0,0 25.226,5.038 m 0,0 25.226,1.176 m 0,0 25.178,-7.908 m 0,0 25.225,-44.109 m 0,0 25.226,4.895 m -277.34,-31.774 25.225,13.228 m 0,0 25.226,6.26 m 0,0 25.179,-6.355 m 0,0 25.225,20.618 m 0,0 25.226,44.628 m 0,0 25.178,8.473 m 0,0 25.226,22.926 m 0,0 25.226,-82.24 m 0,0 25.178,16.429 m 0,0 25.225,-18.406 m 0,0 25.226,-17.088 m -277.34,9.132 25.225,-11.768 m 0,0 25.226,43.684 m 0,0 25.179,-29.516 m 0,0 25.225,36.954 m 0,0 25.226,22.361 m 0,0 25.178,66.847 m 0,0 25.226,-4.378 m 0,0 25.226,-22.361 m 0,0 25.178,-7.955 m 0,0 25.225,-5.556 m 0,0 25.226,-60.632 m -277.34,-32.057 25.225,48.063 m 0,0 25.226,-46.981 m 0,0 25.179,-9.791 m 0,0 25.225,58.513 m 0,0 25.226,11.11 m 0,0 25.178,18.924 m 0,0 25.226,0.424 m 0,0 25.226,14.029 m 0,0 25.178,-70.566 m 0,0 25.225,28.48 m 0,0 25.226,-38.554 m -277.34,18.03 25.225,-29.564 m 0,0 25.226,24.385 m 0,0 25.179,-37.094 m 0,0 25.225,10.732 m 0,0 25.226,63.692 m 0,0 25.178,21.608 m 0,0 25.226,-27.68 m 0,0 25.226,24.62 m 0,0 25.178,-16.57 m 0,0 25.225,-11.393 m 0,0 25.226,-29.092 m -277.34,25.797 25.225,34.554 m 0,0 25.226,-61.951 m 0,0 25.179,-16.43 m 0,0 25.225,2.542 m 0,0 25.226,66.424 m 0,0 25.178,11.956 m 0,0 25.226,-39.495 m 0,0 25.226,27.162 m 0,0 25.178,-9.509 m 0,0 25.225,-5.603 m 0,0 25.226,19.866 m -277.34,-71.883 25.225,-20.9 m 0,0 25.226,23.442 m 0,0 25.179,8.05 m 0,0 25.225,2.918 m 0,0 25.226,45.428 m 0,0 25.178,44.344 m 0,0 25.226,-4.378 m 0,0 25.226,12.428 m 0,0 25.178,-46.463 m 0,0 25.225,-11.11 m 0,0 25.226,-44.485"
       style="fill:none;stroke:#bfc3c9;stroke-width:0.612;stroke-linecap:square;stroke-linejoin:miter;stroke-miterlimit:10;stroke-dasharray:none;stroke-opacity:1"
       id="path54" />
    <text
       xml:space="preserve"
       transform="matrix(0,-1,-1,0,486.1848,495.0376)"
       style="font-variant:normal;font-weight:bold;font-size:13.8977px;font-family:'Times New Roman';-inkscape-font-specification:TimesNewRomanPS-BoldMT;writing-mode:lr-tb;fill:#231f20;fill-opacity:1;fill-rule:nonzero;stroke:none"
       id="text58"><tspan
         x="0 8.5179005 14.714885 20.911869 27.108854 30.998819 38.752346 42.642311 47.213268 54.188522 58.759476 62.649441 69.624695 80.880447 85.451401 96.9851 108.5188"
         y="0"
         sodipodi:role="line"
         id="tspan56">Precipitation(mm)</tspan></text>
    <path
       d="m 454.398,329.82 v 211.837 m 0.065,-169.47 h -2.796 m 2.796,42.368 h -2.796 m 2.796,42.367 h -2.796 m 2.796,42.368 h -2.796"
       style="fill:none;stroke:#231f20;stroke-width:0.772;stroke-linecap:square;stroke-linejoin:miter;stroke-miterlimit:10;stroke-dasharray:none;stroke-opacity:1"
       id="path60" />
    <text
       xml:space="preserve"
       transform="matrix(1,0,0,-1,458.4542,327.6541)"
       style="font-variant:normal;font-weight:bold;font-size:10.8093px;font-family:'Times New Roman';-inkscape-font-specification:TimesNewRomanPS-BoldMT;writing-mode:lr-tb;fill:#231f20;fill-opacity:1;fill-rule:nonzero;stroke:none"
       id="text74"><tspan
         x="0"
         y="0"
         id="tspan62">0</tspan><tspan
         x="0 5.3830314"
         y="-42.372456"
         sodipodi:role="line"
         id="tspan64">40</tspan><tspan
         x="0 5.3830314"
         y="-84.744911"
         sodipodi:role="line"
         id="tspan66">80</tspan><tspan
         x="0 5.3830314 10.766063"
         y="-127.11737"
         sodipodi:role="line"
         id="tspan68">120</tspan><tspan
         x="0 5.3830314 10.766063"
         y="-169.48982"
         sodipodi:role="line"
         id="tspan70">160</tspan><tspan
         x="0 5.3830314 10.766063"
         y="-211.86227"
         sodipodi:role="line"
         id="tspan72">200</tspan></text>
    <path
       d="m 164.37,360.604 h 12.613 m 0,0 v 20.1 m 0,0 h 12.613 m 0,0 h 12.613 m 0,0 v 22.267 m 0,0 h 12.613 m 0,0 h 12.613"
       style="fill:none;stroke:#231f20;stroke-width:0.772;stroke-linecap:square;stroke-linejoin:miter;stroke-miterlimit:10;stroke-dasharray:3.088, 2.316;stroke-dashoffset:0;stroke-opacity:1"
       id="path76" />
    <path
       d="m 227.435,402.971 v 19.066"
       style="fill:none;stroke:#00a04e;stroke-width:0.941;stroke-linecap:square;stroke-linejoin:miter;stroke-miterlimit:10;stroke-dasharray:none;stroke-opacity:1"
       id="path78" />
    <path
       d="M 227.435,422.037 H 240 m 0,0 h 12.613 m 0,0 v 9.509 m 0,0 h 12.613 m 0,0 h 12.612 m 0,0 v 66.752 m 0,0 h 12.613 m 0,0 h 12.613 m 0,0 v 30.693 m 0,0 h 12.566 m 0,0 h 12.613 m 0,0 v -67.787 m 0,0 h 12.613 m 0,0 h 12.612 m 0,0 V 430.51 m 0,0 h 12.613 m 0,0 h 12.613 m 0,0 v -37.095 m 0,0 h 12.566 m 0,0 h 12.613 m 0,0 v -4.237 m 0,0 h 12.612 m 0,0 h 12.613 m 0,0 v -32.811 m 0,0 h 12.613"
       style="fill:none;stroke:#231f20;stroke-width:0.772;stroke-linecap:square;stroke-linejoin:miter;stroke-miterlimit:10;stroke-dasharray:3.088, 2.316;stroke-dashoffset:0;stroke-opacity:1"
       id="path80" />
    <path
       d="m 164.37,433.946 h 12.613 m 0,0 v -22.784 m 0,0 h 12.613 12.613 m 0,0 v 12.475 m 0,0 h 12.613 12.613 m 0,0 v -52.583 m 0,0 H 240 252.613 m 0,0 v 21.608 m 0,0 h 12.613 12.612 m 0,0 v 70.283 m 0,0 h 12.613 12.613 m 0,0 v -0.282 m 0,0 h 12.566 12.613 m 0,0 v -13.371 m 0,0 h 12.613 m 0,0 h 12.612"
       style="fill:none;stroke:#231f20;stroke-width:2.824;stroke-linecap:square;stroke-linejoin:miter;stroke-miterlimit:10;stroke-dasharray:none;stroke-opacity:1"
       id="path82" />
    <path
       d="M 353.468,449.292 V 434.37"
       style="fill:none;stroke:#231f20;stroke-width:2.824;stroke-linecap:square;stroke-linejoin:miter;stroke-miterlimit:10;stroke-dasharray:3.088, 2.316;stroke-dashoffset:0;stroke-opacity:1"
       id="path84" />
    <path
       d="m 353.468,434.37 h 12.613 12.613 m 0,0 v -14.829 m 0,0 h 12.566 12.613 m 0,0 v 10.451 m 0,0 h 12.612 12.613 m 0,0 v 14.829 m 0,0 h 12.613"
       style="fill:none;stroke:#231f20;stroke-width:2.824;stroke-linecap:square;stroke-linejoin:miter;stroke-miterlimit:10;stroke-dasharray:none;stroke-opacity:1"
       id="path86" />
    <text
       xml:space="preserve"
       transform="matrix(0.01790335,0.99983972,0.99983972,-0.01790335,258.3686,449.6684)"
       style="font-variant:normal;font-weight:normal;font-size:10.808px;font-family:'Times New Roman';-inkscape-font-specification:TimesNewRomanPSMT;writing-mode:lr-tb;fill:#231f20;fill-opacity:1;fill-rule:nonzero;stroke:none"
       id="text92"><tspan
         x="0 7.8033991 13.207416 17.411739 22.210506 25.215139 27.917147 33.321163 36.920238 39.622246 43.826572 49.230587 57.639236 66.047882 70.846649"
         y="0"
         sodipodi:role="line"
         id="tspan88">Onset of summer</tspan><tspan
         x="0 18.914057 27.322706 32.726723 38.130737 42.335064 47.739079 53.143093"
         y="8.4951134"
         sodipodi:role="line"
         id="tspan90"> monsoon</tspan></text>
    <path
       d="m 215.594,366.959 h 12.613 m 0,0 v -23.821 m 0,0 h 12.566 12.612 m 0,0 v 16.384 m 0,0 h 12.613 12.613 m 0,0 v 91.088 m 0,0 h 12.612 12.613 m 0,0 v -18.923 m 0,0 h 12.566 12.613 m 0,0 v 76.921 m 0,0 h 12.613 12.613 m 0,0 v -46.981 m 0,0 h 12.612 12.613 m 0,0 v -1.318 m 0,0 h 12.566"
       style="fill:none;stroke:#231f20;stroke-width:1.158;stroke-linecap:square;stroke-linejoin:miter;stroke-miterlimit:10;stroke-dasharray:none;stroke-opacity:1"
       id="path94" />
    <text
       xml:space="preserve"
       transform="matrix(1,0,0,-1,310.0728,374.8516)"
       style="font-variant:normal;font-weight:normal;font-size:10.8093px;font-family:'Times New Roman';-inkscape-font-specification:TimesNewRomanPSMT;writing-mode:lr-tb;fill:#231f20;fill-opacity:1;fill-rule:nonzero;stroke:none"
       id="text102"><tspan
         x="0 6.0099707 11.41462 19.824257 28.233892 33.033222"
         y="0"
         sodipodi:role="line"
         id="tspan96">Summer</tspan><tspan
         x="0 8.4096355 13.814285 19.218935 23.423754 28.828403 34.233051"
         y="10.8093"
         sodipodi:role="line"
         id="tspan98">monsoon</tspan><tspan
         x="0 3.0049853 8.4096355 11.41462 16.213949 19.813446 25.218098 30.017426"
         y="21.618601"
         sodipodi:role="line"
         id="tspan100">interval</tspan></text>
    <text
       xml:space="preserve"
       transform="scale(1,-1)"
       style="font-variant:normal;font-weight:bold;font-size:9.2652px;font-family:'Times New Roman';-inkscape-font-specification:TimesNewRomanPS-BoldMT;writing-mode:lr-tb;fill:#231f20;fill-opacity:1;fill-rule:nonzero;stroke:none"
       id="text106"
       x="43.953701"
       y="-283.92691"><tspan
         x="43.953701 49.614738 52.19046 56.823067 61.974518 66.088264 70.202011 72.518311 79.207787 85.897263"
         y="-283.92691"
         sodipodi:role="line"
         id="tspan104">Figure DR3</tspan></text>
    <text
       xml:space="preserve"
       transform="scale(1,-1)"
       style="font-variant:normal;font-weight:normal;font-size:9.2652px;font-family:'Times New Roman';-inkscape-font-specification:TimesNewRomanPSMT;writing-mode:lr-tb;fill:#231f20;fill-opacity:1;fill-rule:nonzero;stroke:none"
       id="text110"
       x="90.529861"
       y="-283.92691"><tspan
         x="90.529861 92.846161 95.16246 103.39922 108.03182 112.66442 115.24014 119.87274 122.44847 127.08107 129.39737 134.02997 137.11528 141.22903 145.34279 147.9185 152.5511 155.12683 157.70256 161.8163 164.39203 166.96776 171.60036 176.23296 178.54926 181.63457 186.26717 190.38092 193.98508 198.61768 202.73143 207.36404 209.68033 212.25606 214.83179 219.46439 223.57814 225.89444 228.21074 231.29605 234.38136 239.01396 246.22226 248.53857 255.22806 259.3418 263.9744 266.55011 269.12585 273.75845 278.39105 280.70734 287.91568 292.02942 294.60516 298.7189 303.3515 306.4368 311.0694 313.64514 318.27774 322.91034 325.48605 329.59982 333.71356 336.28928 338.60559 343.23819 347.87079 351.47495 355.58868 358.67401 363.30661 367.42035 369.99606 374.62866 377.71399 382.34659 385.43188 387.7482 391.86194 396.49454 401.12714 403.44345 410.13293 414.24667 416.82239 421.45499 426.08759 428.66333 432.77707 437.40967 439.72598 446.9343 451.56689 456.19949 458.77521 463.40781 465.98355 470.61615"
         y="-283.92691"
         sodipodi:role="line"
         id="tspan108">. Monthly precipitation (dashed line, from Nanjing meteorological observatory) and weighted monthly </tspan></text>
    <text
       xml:space="preserve"
       transform="scale(1,-1)"
       style="font-variant:normal;font-weight:normal;font-size:9.2652px;font-family:Symbol;-inkscape-font-specification:Symbol;writing-mode:lr-tb;fill:#231f20;fill-opacity:1;fill-rule:nonzero;stroke:none"
       id="text114"
       x="472.93246"
       y="-283.92691"><tspan
         x="472.93246"
         y="-283.92691"
         id="tspan112">δ</tspan></text>
    <text
       xml:space="preserve"
       transform="scale(1,-1)"
       style="font-variant:normal;font-weight:normal;font-size:6.9489px;font-family:'Times New Roman';-inkscape-font-specification:TimesNewRomanPSMT;writing-mode:lr-tb;fill:#231f20;fill-opacity:1;fill-rule:nonzero;stroke:none"
       id="text118"
       x="477.45541"
       y="-287.01529"><tspan
         x="477.45541 480.92984"
         y="-287.01529"
         sodipodi:role="line"
         id="tspan116">18</tspan></text>
    <text
       xml:space="preserve"
       transform="scale(1,-1)"
       style="font-variant:normal;font-weight:normal;font-size:9.2652px;font-family:'Times New Roman';-inkscape-font-specification:TimesNewRomanPSMT;writing-mode:lr-tb;fill:#231f20;fill-opacity:1;fill-rule:nonzero;stroke:none"
       id="text124"
       x="484.4043"
       y="-283.92691"><tspan
         x="484.4043 491.09378 493.41006 497.5238 500.09955 502.41583 509.10535 513.21906 517.85168 520.42737 523.00311 527.63574 532.26831"
         y="-283.92691"
         sodipodi:role="line"
         id="tspan120">O at Nanjing </tspan><tspan
         x="43.955235 47.040531 51.673126 55.786865 59.900635 64.533234 69.165833 71.482117 75.595886 80.228485 84.861084 87.177368 89.753113 94.385712 96.961433 101.59402 103.91034 106.48605 109.06177 113.69437 117.80814 121.41229 123.72858 126.04489 130.67749 134.79123 137.36697 141.48071 143.79703 146.88232 149.96765 154.60025 161.80856 164.12488 167.21017 173.89966 179.5607 186.25015 188.8259 197.57224 205.80899 212.49847 214.81476 217.13107 221.76367 226.39627 231.02887 235.66147 237.97777 242.09152 246.72412 251.35672 253.67303 259.33408 263.96667 268.08041 272.71301 275.02933 279.14307 281.71878 284.0351 288.14883 290.72458 293.04086 295.35718 297.67346 302.30606 306.93866 311.57126 316.20386 319.28918 322.37448 324.6908 327.00708 332.66812 337.30072 341.41446 343.73077 350.42026 354.534 357.10971 361.74231 366.37491 368.95065 373.06439 377.69699 380.01331 387.22162 391.85422 396.48682 399.06253 403.69513 406.27087 410.90347"
         y="-272.73453"
         sodipodi:role="line"
         id="tspan122">(heavy and thin lines, data from IAEA/WMO, 2001 and Zhen et al., 1983)). The weighted monthly </tspan></text>
    <text
       xml:space="preserve"
       transform="scale(1,-1)"
       style="font-variant:normal;font-weight:normal;font-size:9.2652px;font-family:Symbol;-inkscape-font-specification:Symbol;writing-mode:lr-tb;fill:#231f20;fill-opacity:1;fill-rule:nonzero;stroke:none"
       id="text128"
       x="413.21976"
       y="-272.73453"><tspan
         x="413.21976"
         y="-272.73453"
         id="tspan126">δ</tspan></text>
    <text
       xml:space="preserve"
       transform="scale(1,-1)"
       style="font-variant:normal;font-weight:normal;font-size:6.9489px;font-family:'Times New Roman';-inkscape-font-specification:TimesNewRomanPSMT;writing-mode:lr-tb;fill:#231f20;fill-opacity:1;fill-rule:nonzero;stroke:none"
       id="text132"
       x="417.75699"
       y="-275.81989"><tspan
         x="417.75699 421.23145"
         y="-275.81989"
         sodipodi:role="line"
         id="tspan130">18</tspan></text>
    <text
       xml:space="preserve"
       transform="scale(1,-1)"
       style="font-variant:normal;font-weight:normal;font-size:9.2652px;font-family:'Times New Roman';-inkscape-font-specification:TimesNewRomanPSMT;writing-mode:lr-tb;fill:#231f20;fill-opacity:1;fill-rule:nonzero;stroke:none"
       id="text142"
       x="424.70581"
       y="-272.73151"><tspan
         x="424.70581 431.39526 433.71158 436.79688 439.8822 444.5148 451.72311 454.03943 458.67203 461.24774 465.88034 469.99411 473.07941 475.39572 482.60403 486.71777 489.29352 493.40726 498.03986 501.12518 505.75775 508.3335 512.96606 517.59869 520.17444 524.28815 528.40192 530.97766"
         y="-272.73151"
         sodipodi:role="line"
         id="tspan134">O from other meteorological </tspan><tspan
         x="43.952412 48.585011 53.217613 56.82177 60.935509 64.020836 68.653435 72.767174 75.342918 79.975517 83.060814 85.636559 89.750298 93.354446 95.670769 98.246483 102.87908 105.19537 108.79955 113.43214 118.06474 120.64046 125.27306 129.38683 133.50056 137.10472 139.68044 143.7942 146.8795 151.5121 153.82841 160.00829 164.64088 167.21663 171.84923 175.96297 178.27927 181.36458 183.94031 188.57291 193.20551 195.78123 199.89499 204.00873 206.58446 210.69821 215.33081 217.64711 220.22282 224.85544 227.17174 232.32318 234.89891 239.53151 244.16412 247.24942 251.36319 253.67947 260.36896 266.54883 271.18143 274.26675 276.58304 280.69681 283.7821 287.89587 290.21216 294.3259 296.90164 300.5058 305.1384 307.45468 312.08728 314.66302 319.29562 321.87134 324.44708 328.56082 333.19342 335.5097 338.59503 343.22763 346.31293 348.62924 352.74298 357.37558 364.58392 369.21652 373.33026 376.41559 378.9913 382.59546 387.22806 391.86066 394.17697 397.26227 401.89487 404.98019 409.09393 413.72653 416.04285 418.61856 421.19427 425.8269 429.94064 433.5448 436.63013 438.94641 441.26273 446.92374 451.55634 455.6701 457.98639 462.61899 466.73276 469.81805 472.3938 474.96951 479.08325 483.19702 485.77274 488.08902 492.20279 495.28809 498.37341 503.00598 509.6955 512.01178 514.58752 519.22009 523.85272 526.42841 530.54218 534.65594 537.23169 541.3454"
         y="-261.53915"
         sodipodi:role="line"
         id="tspan136">observatories in southeastern China (indicated in Figure DR1) are also plotted for comparison (gray lines). The vertical arrow indicates</tspan><tspan
         x="43.952412 46.528126 51.160728 55.274498 57.590782 62.223381 66.85598 70.460136 74.573906 77.14962 79.465935 84.098534 87.18383 89.500137 92.075859 96.708458 100.8222 103.13851 106.74267 111.37527 118.58357 125.79192 129.90565 132.99098 135.30727 142.51561 147.14821 151.78081 155.38496 160.01756 164.65016 169.28276 171.59906 174.17479 178.80739 181.12369 183.69942 188.33202 192.44576 194.76205 201.45154 205.56529 210.19789 212.77361 215.34933 219.98193 224.61453 226.93083 231.04459 234.1299 238.24365 242.35739 244.67371 246.98999 252.65103 257.28363 261.3974 263.71368 268.34628 271.43161 275.54535 279.65909 282.23483 286.86743 289.44315 292.01886 296.13263 298.70834 301.28406 305.91666 310.54926 312.86557 317.49817 322.13077 325.21609 327.79181 332.42441 337.05701 339.37332 344.00592 347.09122 351.20496 354.29028 358.92288 363.55548 367.15964 371.27341 373.84912 376.16541 380.798 383.88333 386.19962 389.8038 394.4364 401.64471 408.85306 412.9668 416.05209 418.36841 425.57672 430.20932 434.84192 438.44611 443.0787 447.7113 452.3439 454.66019 458.77396 463.40656 468.03915 472.67175 475.24747 477.82318 480.39893 485.03152 489.66412 493.26828 495.58456 498.16028 501.76447 504.08075 508.19452 512.82709 516.94086 520.02618 524.13995 528.25366 530.82941 534.94318 538.02844 540.60419 544.71796 548.83167"
         y="-250.34677"
         sodipodi:role="line"
         id="tspan138">the onset of the summer monsoon in the Nanjing area. The precipitation during pre-onset of summer monsoon conditions is characterized</tspan><tspan
         x="43.952412 48.585011 53.217613 55.533897 58.109642 62.742241 66.85598 69.172295 73.804893 77.918633 82.032372 86.66497 89.240723 93.354446 96.958611 99.534363"
         y="-239.15442"
         sodipodi:role="line"
         id="tspan140">by the heaviest </tspan></text>
    <text
       xml:space="preserve"
       transform="scale(1,-1)"
       style="font-variant:normal;font-weight:normal;font-size:9.2652px;font-family:Symbol;-inkscape-font-specification:Symbol;writing-mode:lr-tb;fill:#231f20;fill-opacity:1;fill-rule:nonzero;stroke:none"
       id="text146"
       x="101.85064"
       y="-239.15442"><tspan
         x="101.85064"
         y="-239.15442"
         id="tspan144">δ</tspan></text>
    <text
       xml:space="preserve"
       transform="scale(1,-1)"
       style="font-variant:normal;font-weight:normal;font-size:6.9489px;font-family:'Times New Roman';-inkscape-font-specification:TimesNewRomanPSMT;writing-mode:lr-tb;fill:#231f20;fill-opacity:1;fill-rule:nonzero;stroke:none"
       id="text150"
       x="106.4193"
       y="-242.2337"><tspan
         x="106.4193 109.89375"
         y="-242.2337"
         sodipodi:role="line"
         id="tspan148">18</tspan></text>
    <text
       xml:space="preserve"
       transform="scale(1,-1)"
       style="font-variant:normal;font-weight:normal;font-size:9.2652px;font-family:'Times New Roman';-inkscape-font-specification:TimesNewRomanPSMT;writing-mode:lr-tb;fill:#231f20;fill-opacity:1;fill-rule:nonzero;stroke:none"
       id="text154"
       x="113.36819"
       y="-239.1454"><tspan
         x="113.36819 120.05768 122.37398 124.69028 127.77559 132.40819 134.72449 138.83824 143.47084 148.10344 150.67915 153.76447 157.87822 161.48239 164.05811 166.3744 168.6907 171.26643 175.89903 180.01279"
         y="-239.1454"
         sodipodi:role="line"
         id="tspan152">O. In contrast, the </tspan></text>
    <text
       xml:space="preserve"
       transform="scale(1,-1)"
       style="font-variant:normal;font-weight:normal;font-size:9.2652px;font-family:Symbol;-inkscape-font-specification:Symbol;writing-mode:lr-tb;fill:#231f20;fill-opacity:1;fill-rule:nonzero;stroke:none"
       id="text158"
       x="182.32909"
       y="-239.1454"><tspan
         x="182.32909"
         y="-239.1454"
         id="tspan156">δ</tspan></text>
    <text
       xml:space="preserve"
       transform="scale(1,-1)"
       style="font-variant:normal;font-weight:normal;font-size:6.9489px;font-family:'Times New Roman';-inkscape-font-specification:TimesNewRomanPSMT;writing-mode:lr-tb;fill:#231f20;fill-opacity:1;fill-rule:nonzero;stroke:none"
       id="text162"
       x="186.9003"
       y="-242.2337"><tspan
         x="186.9003 190.37476"
         y="-242.2337"
         sodipodi:role="line"
         id="tspan160">18</tspan></text>
    <text
       xml:space="preserve"
       transform="scale(1,-1)"
       style="font-variant:normal;font-weight:normal;font-size:9.2652px;font-family:'Times New Roman';-inkscape-font-specification:TimesNewRomanPSMT;writing-mode:lr-tb;fill:#231f20;fill-opacity:1;fill-rule:nonzero;stroke:none"
       id="text168"
       x="193.8492"
       y="-239.1454"><tspan
         x="193.8492 200.53868 202.85498 207.48758 210.57289 212.88919 217.52179 220.6071 224.72084 228.83459 231.41032 236.04292 238.61865 241.19437 245.30811 247.88385 250.45956 255.09216 259.72476 262.04108 266.67368 271.30627 274.39157 276.96732 281.59991 286.23251 288.5488 291.12454 295.75714 299.87088 302.18719 306.81979 311.45239 315.05655 317.63226 320.71759 325.35019 329.98279 333.58694 337.70071 340.27643 342.59271 347.22531 350.31064 352.62692 356.23111 360.86371 368.07202 375.28036 379.3941 382.4794 384.79572 392.00403 396.63663 401.26923 404.87341 409.50601 414.13861 418.77121 421.08749 424.17282 427.77698 432.40958 437.04218 441.15591 443.47223 446.55753 448.87384 454.0253 458.13904 462.77164 465.34738 469.46112 476.66943 481.30203 485.4158 488.5011 491.58643 493.90271 496.47845 500.08258 502.39886 509.60724 514.23981 518.35358 522.98615 525.30249 527.87817 530.45392 535.08649 539.71912 542.29486 546.40857 549.4939"
         y="-239.1454"
         sodipodi:role="line"
         id="tspan164">O of precipitation during the post-onset of summer monsoon (June - September) is much lighter.</tspan><tspan
         sodipodi:role="line"
         id="tspan166"
         x="193.8492"
         y="-227.35771" /></text>
    <text
       xml:space="preserve"
       style="font-size:9px;fill:#800000;stroke-width:0.75"
       x="43.696175"
       y="-595.52136"
       id="text462"
       transform="scale(1,-1)"><tspan
         sodipodi:role="line"
         id="tspan460"
         style="font-style:normal;fill:#800000;stroke-width:0.75"
         x="43.696175"
         y="-595.52136">Hai Cheng et al.</tspan><tspan
         sodipodi:role="line"
         style="font-style:italic;fill:#800000;stroke-width:0.75"
         x="43.696175"
         y="-584.27136"
         id="tspan464">A penultimate glacial monsoon record from Hulu Cave and two-phase glacial terminations</tspan><tspan
         sodipodi:role="line"
         style="font-style:normal;font-weight:bold;fill:#800000;stroke-width:0.75"
         x="43.696175"
         y="-573.02136"
         id="tspan468">Supplemental material</tspan><tspan
         sodipodi:role="line"
         style="font-style:normal;fill:#800000;stroke-width:0.75"
         x="43.696175"
         y="-561.77136"
         id="tspan466">Geology 2006</tspan></text>
  </g>
</svg>
