<?xml version="1.0" encoding="UTF-8" standalone="no"?>
<!-- Created with Inkscape (http://www.inkscape.org/) -->

<svg
   version="1.1"
   id="svg2"
   width="549.57288"
   height="396.93692"
   viewBox="0 0 549.57288 396.93692"
   xmlns="http://www.w3.org/2000/svg"
   xmlns:svg="http://www.w3.org/2000/svg">
  <defs
     id="defs6" />
  <g
     id="g8"
     transform="matrix(1.3333333,0,0,-1.3333333,-114.68209,992.08941)">
    <path
       d="m 132.229,705.546 v 4.039 m 31.166,-4.039 v 4.039 m 31.166,-4.039 v 4.039 m 31.166,-4.039 v 4.039 m 31.166,-4.039 v 4.039 m 31.166,-4.039 v 4.039 m -3.848,-127.356 h 3.848 m -3.848,42.324 h 3.848 m -3.848,0 h 3.848 m -3.848,42.516 h 3.848 m -3.848,0 h 3.848 m -3.848,42.516 h 3.848 m -3.848,0 h 3.848 m -155.83,0 h 155.83 m 0,-127.356 v 127.356 m -155.83,0 h 155.83 V 582.228 h -155.83 z m 0,-123.509 v -3.847 m 31.166,3.847 v -3.847 m 31.166,3.847 v -3.847 m 31.166,3.847 v -3.847 m 31.166,3.847 v -3.847 m 31.166,3.847 v -3.847 m -151.982,0 h -3.848 m 3.848,42.324 h -3.848 m 3.848,42.516 h -3.848 m 3.848,42.516 h -3.848 m 3.848,0 h -3.848"
       style="fill:none;stroke:#000000;stroke-width:0.24;stroke-linecap:round;stroke-linejoin:round;stroke-miterlimit:10;stroke-dasharray:none;stroke-opacity:1"
       id="path122" />
    <path
       d="m 163.395,687.462 0.192,-2.694 v -2.308 l 0.193,-1.924 0.192,-1.732 v -1.539 l 0.193,-1.346 0.192,-1.155 v -1.154 l 0.192,-0.962 0.193,-0.769 v -0.962 l 0.192,-0.578 0.192,-0.769 v -0.577 l 0.385,-1.154 v -0.578 l 0.193,-0.577 0.192,-0.385 v -0.384 l 0.192,-0.577 0.385,-0.77 v -0.385 l 0.193,-0.384 v -0.193 l 0.384,-0.769 0.193,-0.193 v -0.384 l 0.192,-0.385 0.192,-0.193 v -0.192 l 0.193,-0.385 0.192,-0.192 v -0.192 l 0.193,-0.385 0.192,-0.193 v -0.192 l 0.192,-0.192 0.193,-0.385 v -0.193 l 0.385,-0.384 v -0.193 l 0.192,-0.192 0.192,-0.193 v -0.192 l 0.193,-0.192 0.192,-0.193 v -0.192 l 0.77,-0.77 v -0.192 l 0.192,-0.192 0.192,-0.193 0.385,-0.384 v -0.193 h 0.193 l 0.192,-0.192 0.192,-0.193 v -0.192 h 0.193 l 0.192,-0.192 v -0.193 h 0.192 l 0.193,-0.192 v -0.193 h 0.192 l 0.192,-0.192 v -0.192 h 0.193 l 0.192,-0.193 0.193,-0.192 0.384,-0.385 h 0.193 v -0.192 h 0.192 l 0.193,-0.193 v -0.192 h 0.192 l 0.385,-0.385 h 0.192 v -0.192 h 0.192 l 0.193,-0.192 0.192,-0.193 h 0.193 v -0.192 h 0.384 v -0.193 h 0.193 l 0.192,-0.192 h 0.193 v -0.192 h 0.192 l 0.385,-0.385 h 0.192 l 0.192,-0.193 h 0.193 v -0.192 h 0.385 v -0.192 h 0.192 l 0.192,-0.193 h 0.193 l 0.192,-0.192 0.193,-0.192 h 0.192 l 0.192,-0.193 h 0.193 l 0.192,-0.192 h 0.192 l 0.193,-0.193 h 0.192 v -0.192 h 0.385 v -0.192 h 0.385 v -0.193 h 0.384 l 0.193,-0.192 h 0.192 l 0.193,-0.193 h 0.384 v -0.192 h 0.385 v -0.192 h 0.385 v -0.193 h 0.385 v -0.192 h 0.384 l 0.193,-0.192 h 0.192 l 0.193,-0.193 h 0.384 l 0.193,-0.192 h 0.385 v -0.193 h 0.384 v -0.192 h 0.577 v -0.192 h 0.385 l 0.193,-0.193 h 0.384 l 0.193,-0.192 h 0.385 v -0.192 h 0.384"
       style="fill:none;stroke:#000000;stroke-width:0.24;stroke-linecap:round;stroke-linejoin:round;stroke-miterlimit:10;stroke-dasharray:2.4, 3.6;stroke-dashoffset:0;stroke-opacity:1"
       id="path124" />
    <path
       d="m 189.174,645.138 0.193,-0.193 h 0.384 l 0.193,-0.192 h 0.385 l 0.192,-0.193 h 0.385 l 0.192,-0.192 h 0.385 l 0.192,-0.192 h 0.385 l 0.192,-0.193 h 0.385 l 0.192,-0.192 h 0.385 l 0.193,-0.193 h 0.577 v -0.192 h 0.577 l 0.192,-0.192 h 0.385 l 0.192,-0.193 h 0.578 v -0.192 h 0.577 l 0.192,-0.192 h 0.577 l 0.193,-0.193 h 0.577 v -0.192 h 0.769 v -0.193 h 0.578 l 0.192,-0.192 h 0.577 l 0.192,-0.192 h 0.385 l 0.193,-0.193 h 0.577 l 0.192,-0.192 h 0.577 l 0.193,-0.192 h 0.769 v -0.193 h 0.77 v -0.192 h 0.769 v -0.193 h 0.77 l 0.192,-0.192 h 0.577 l 0.193,-0.192 h 0.577 l 0.192,-0.193 h 0.77 l 0.192,-0.192 h 0.577 l 0.193,-0.193 h 0.769 l 0.193,-0.192 h 0.577 l 0.192,-0.192 h 0.77 v -0.193 h 0.769 l 0.192,-0.192 h 0.77 l 0.192,-0.192 h 0.77 l 0.192,-0.193 h 0.577 l 0.193,-0.192 h 0.769 v -0.193 h 0.77 l 0.192,-0.192 h 0.77 l 0.192,-0.192 h 0.77 v -0.193 h 0.962 l 0.192,-0.192 h 0.77 l 0.192,-0.193 h 0.769 v -0.192 h 0.77 l 0.192,-0.192 h 0.77 l 0.192,-0.193 h 0.962 v -0.192 h 0.77 l 0.192,-0.192 h 0.77 l 0.192,-0.193 h 0.77 l 0.192,-0.192 h 0.769 l 0.193,-0.193 h 0.769 l 0.193,-0.192 h 0.769 l 0.193,-0.192 h 0.769 l 0.193,-0.193 h 0.769 l 0.192,-0.192 h 0.77 l 0.192,-0.193 h 0.77 v -0.192 h 0.962 l 0.192,-0.192 h 0.77 l 0.192,-0.193 h 0.77 l 0.192,-0.192 h 0.77 l 0.192,-0.192 h 0.769 l 0.193,-0.193 h 0.769 l 0.193,-0.192 h 0.962 v -0.192 h 0.769 l 0.193,-0.193 h 0.962 v -0.192 h 0.769 l 0.192,-0.193 h 0.962 v -0.192 h 0.962 l 0.193,-0.192 h 0.769 l 0.193,-0.193 h 0.769 l 0.192,-0.192 h 0.77 l 0.192,-0.193 h 0.77 l 0.192,-0.192 h 0.77 l 0.192,-0.192 h 0.962 v -0.193 h 0.77 l 0.192,-0.192 h 0.962 v -0.193 h 0.769"
       style="fill:none;stroke:#000000;stroke-width:0.24;stroke-linecap:round;stroke-linejoin:round;stroke-miterlimit:10;stroke-dasharray:2.4, 3.6;stroke-dashoffset:0;stroke-opacity:1"
       id="path126" />
    <path
       d="m 254.199,630.516 h 0.193 l 0.192,-0.192 h 0.77 l 0.192,-0.192 h 0.77 l 0.192,-0.193 h 0.77 l 0.192,-0.192 h 0.769 l 0.193,-0.192 h 0.962 v -0.193 h 0.962 v -0.192 h 0.962 l 0.192,-0.193 h 0.769 v -0.192 h 0.962 l 0.193,-0.192 h 0.769 l 0.193,-0.193 h 0.769 l 0.193,-0.192 h 0.961 v -0.192 h 0.77 l 0.192,-0.193 h 0.962 v -0.192 h 0.962 l 0.193,-0.193 h 0.769 v -0.192 h 0.962 l 0.192,-0.192 h 0.77 l 0.192,-0.193 h 0.77 l 0.192,-0.192 h 0.962 v -0.193 h 0.962 l 0.192,-0.192 h 0.77 l 0.192,-0.192 h 0.77 l 0.192,-0.193 h 0.77 l 0.192,-0.192 h 0.77 l 0.192,-0.192 h 0.962 v -0.193 h 0.962 v -0.192 h 0.962 l 0.192,-0.193 h 0.77 v -0.192 h 0.962 l 0.192,-0.192 h 0.77 l 0.192,-0.193 h 0.769 l 0.193,-0.192 h 0.962 v -0.192 h 0.769 l 0.193,-0.193 m -124.664,63.679 0.192,-2.694 v -2.308 l 0.193,-1.924 0.192,-1.732 v -1.539 l 0.193,-1.346 0.192,-1.155 v -1.154 l 0.192,-0.962 0.193,-0.769 v -0.962 l 0.192,-0.578 0.192,-0.769 v -0.577 l 0.385,-1.154 v -0.578 l 0.193,-0.577 0.192,-0.385 v -0.384 l 0.192,-0.577 0.385,-0.77 v -0.385 l 0.193,-0.384 v -0.193 l 0.384,-0.769 0.193,-0.193 v -0.384 l 0.192,-0.385 0.192,-0.193 v -0.192 l 0.193,-0.385 0.192,-0.192 v -0.192 l 0.193,-0.385 0.192,-0.193 v -0.192 l 0.192,-0.192 0.193,-0.385 v -0.193 l 0.385,-0.384 v -0.193 l 0.192,-0.192 0.192,-0.193 v -0.192 l 0.193,-0.192 0.192,-0.193 v -0.192 l 0.77,-0.77 v -0.192 l 0.192,-0.192 0.192,-0.193 0.385,-0.384 v -0.193 h 0.193 l 0.192,-0.192 0.192,-0.193 v -0.192 h 0.193 l 0.192,-0.192 v -0.193 h 0.192 l 0.193,-0.192 v -0.193 h 0.192 l 0.192,-0.192 v -0.192 h 0.193 l 0.192,-0.193 0.193,-0.192 0.384,-0.385 h 0.193 v -0.192 h 0.192 l 0.193,-0.193 v -0.192 h 0.192 l 0.385,-0.385 h 0.192 v -0.192 h 0.192 l 0.193,-0.192 0.192,-0.193 h 0.193"
       style="fill:none;stroke:#000000;stroke-width:0.24;stroke-linecap:round;stroke-linejoin:round;stroke-miterlimit:10;stroke-dasharray:2.4, 3.6;stroke-dashoffset:0;stroke-opacity:1"
       id="path128" />
    <path
       d="m 176.285,651.486 v -0.192 h 0.384 v -0.193 h 0.193 l 0.192,-0.192 h 0.193 v -0.192 h 0.192 l 0.385,-0.385 h 0.192 l 0.192,-0.193 h 0.193 v -0.192 h 0.385 v -0.192 h 0.192 l 0.192,-0.193 h 0.193 l 0.192,-0.192 0.193,-0.192 h 0.192 l 0.192,-0.193 h 0.193 l 0.192,-0.192 h 0.192 l 0.193,-0.193 h 0.192 v -0.192 h 0.385 v -0.192 h 0.385 v -0.193 h 0.384 l 0.193,-0.192 h 0.192 l 0.193,-0.193 h 0.384 v -0.192 h 0.385 v -0.192 h 0.385 v -0.193 h 0.385 v -0.192 h 0.384 l 0.193,-0.192 h 0.192 l 0.193,-0.193 h 0.384 l 0.193,-0.192 h 0.385 v -0.193 h 0.384 v -0.192 h 0.577 v -0.192 h 0.385 l 0.193,-0.193 h 0.384 l 0.193,-0.192 h 0.385 v -0.192 h 0.384 l 0.193,-0.193 h 0.384 l 0.193,-0.192 h 0.385 l 0.192,-0.193 h 0.385 l 0.192,-0.192 h 0.385 l 0.192,-0.192 h 0.385 l 0.192,-0.193 h 0.385 l 0.192,-0.192 h 0.385 l 0.193,-0.193 h 0.577 v -0.192 h 0.385 l 0.192,37.322 0.192,-2.308 v -2.117 l 0.385,-3.078 v -1.154 l 0.385,-1.924 v -0.769 l 0.385,-1.539 v -0.578 l 0.192,-0.577 0.192,-0.385 v -0.577 l 0.385,-0.769 v -0.385 l 0.385,-0.769 v -0.193 l 0.192,-0.385 0.193,-0.192 v -0.385 l 0.384,-0.384 0.193,-0.385 v -0.193 l 0.385,-0.384 v -0.193 l 0.192,-0.192 0.192,-0.192 v -0.193 l 0.385,-0.385 v -0.192 l 0.577,-0.577 0.193,-0.193 v -0.192 l 0.192,-0.192 h 0.192 v -0.193 l 0.193,-0.192 h 0.192 v -0.193 l 0.193,-0.192 h 0.192 v -0.192 h 0.192 l 0.193,-0.193 v -0.192 h 0.192 l 0.192,-0.192 0.193,-0.193 h 0.192"
       style="fill:none;stroke:#000000;stroke-width:0.24;stroke-linecap:round;stroke-linejoin:round;stroke-miterlimit:10;stroke-dasharray:2.4, 3.6;stroke-dashoffset:0;stroke-opacity:1"
       id="path130" />
    <path
       d="m 202.256,657.065 v -0.192 h 0.193 l 0.192,-0.193 0.192,-0.192 h 0.193 l 0.192,-0.192 0.193,-0.193 h 0.192 v -0.192 h 0.192 l 0.193,-0.192 0.192,-0.193 h 0.192 l 0.193,-0.192 h 0.192 v -0.193 h 0.385 v -0.192 h 0.192 l 0.193,-0.192 h 0.192 l 0.193,-0.193 h 0.192 l 0.192,-0.192 h 0.193 l 0.192,-0.193 h 0.192 l 0.193,-0.192 h 0.192 l 0.192,-0.192 h 0.193 l 0.192,-0.193 h 0.193 l 0.192,-0.192 h 0.193 l 0.192,-0.192 h 0.192 l 0.193,-0.193 h 0.384 l 0.193,-0.192 h 0.192 l 0.193,-0.193 h 0.384 v -0.192 h 0.385 l 0.192,-0.192 h 0.385 l 0.193,-0.193 h 0.192 l 0.192,-0.192 h 0.385 v -0.192 h 0.385 l 0.192,-0.193 h 0.577 l 0.193,-0.192 h 0.385 v -0.193 h 0.384 l 0.193,-0.192 h 0.577 v -0.192 h 0.385 l 0.192,-0.193 h 0.577 v -0.192 h 0.577 l 0.193,-0.193 h 0.384 v -0.192 h 0.578 l 0.192,-0.192 h 0.577 l 0.192,-0.193 h 0.578 v -0.192 h 0.577 l 0.192,-0.192 h 0.385 l 0.192,-0.193 h 0.577 l 0.193,-0.192 h 0.577 V 648.6 h 0.77 v -0.192 h 0.577 l 0.192,-0.192 h 0.577 l 0.193,-0.193 h 0.577 l 0.192,-0.192 h 0.577 l 0.193,-0.193 h 0.577 l 0.192,-0.192 h 0.577 l 0.193,-0.192 h 0.577 l 0.192,-0.193 h 0.77 l 0.192,-0.192 h 0.577 l 0.193,-0.192 h 0.769 l 0.193,-0.193 h 0.577 l 0.192,-0.192 h 0.77 v -0.193 h 0.769 v -0.192 h 0.962 v -0.192 h 0.77 l 0.192,-0.193 h 0.577 l 0.193,-0.192 h 0.769 l 0.192,-0.192 h 0.77 v -0.193 h 0.769 l 0.193,-0.192 h 0.769 l 0.193,-0.193 h 0.769 l 0.193,-0.192 h 0.384"
       style="fill:none;stroke:#000000;stroke-width:0.24;stroke-linecap:round;stroke-linejoin:round;stroke-miterlimit:10;stroke-dasharray:2.4, 3.6;stroke-dashoffset:0;stroke-opacity:1"
       id="path132" />
    <path
       d="m 241.117,644.368 h 0.385 v -0.192 h 0.77 l 0.192,-0.193 h 0.962 v -0.192 h 0.77 l 0.192,-0.193 h 0.77 l 0.192,-0.192 h 0.769 l 0.193,-0.192 h 0.769 l 0.193,-0.193 h 0.769 l 0.193,-0.192 h 0.769 v -0.192 h 0.962 v -0.193 h 0.962 l 0.192,-0.192 h 0.77 v -0.193 h 0.962 l 0.192,-0.192 h 0.77 v -0.192 h 0.769 l 0.193,-0.193 h 0.961 l 0.193,-0.192 h 0.769 v -0.192 h 0.962 l 0.193,-0.193 h 0.769 v -0.192 h 0.962 l 0.193,-0.193 h 0.769 l 0.192,-0.192 h 0.77 l 0.192,-0.192 h 0.77 l 0.192,-0.193 h 0.77 l 0.192,-0.192 h 0.77 l 0.192,-0.193 h 0.962 v -0.192 h 0.962 l 0.192,-0.192 h 0.77 v -0.193 h 0.769 l 0.193,-0.192 h 0.962 v -0.192 h 0.962 l 0.192,-0.193 h 0.769 l 0.193,-0.192 h 0.769 l 0.193,-0.193 h 0.769 l 0.193,-0.192 h 0.769 l 0.193,-0.192 h 0.961 v -0.193 h 0.962 v -0.192 h 0.962 l 0.193,-0.193 h 0.769 v -0.192 h 0.962 l 0.193,-0.192 h 0.769 l 0.192,-0.193 h 0.77 l 0.192,-0.192 h 0.962 v -0.192 h 0.77 l 0.192,-0.193 h 0.962 v -0.192 h 0.962 l 0.192,-0.193 h 0.77 l 0.192,-0.192 h 0.77 l 0.192,-0.192 h 0.77 m -124.664,52.328 0.192,-2.694 v -2.308 l 0.193,-1.924 0.192,-1.732 v -1.539 l 0.193,-1.346 0.192,-1.155 v -1.154 l 0.192,-0.962 0.193,-0.769 v -0.962 l 0.192,-0.578 0.192,-0.769 v -0.577 l 0.385,-1.154 v -0.578 l 0.193,-0.577 0.192,-0.385 v -0.384 l 0.192,-0.577 0.385,-0.77 v -0.385 l 0.193,-0.384 v -0.193 l 0.384,-0.769 0.193,-0.193 v -0.384 l 0.192,-0.385 0.192,-0.193 v -0.192 l 0.193,-0.385 0.192,-0.192 v -0.192 l 0.193,-0.385 0.192,-0.193 v -0.192 l 0.192,-0.192 0.193,-0.385 v -0.193 l 0.385,-0.384 v -0.193 l 0.192,-0.192 0.192,-0.193 v -0.192 l 0.193,-0.192 0.192,-0.193 v -0.192 l 0.77,-0.77 v -0.192 l 0.192,-0.192 0.192,-0.193 0.385,-0.384 v -0.193 h 0.193 l 0.192,-0.192 0.192,-0.193 v -0.192 h 0.193 l 0.192,-0.192 v -0.193 h 0.192 l 0.193,-0.192 v -0.193 h 0.192 l 0.192,-0.192 v -0.192 h 0.193 l 0.192,-0.193 0.193,-0.192 0.384,-0.385 h 0.193 v -0.192 h 0.192 l 0.193,-0.193 v -0.192 h 0.192 l 0.385,-0.385 h 0.192 v -0.192 h 0.192 l 0.193,-0.192 0.192,-0.193 h 0.193"
       style="fill:none;stroke:#000000;stroke-width:0.24;stroke-linecap:round;stroke-linejoin:round;stroke-miterlimit:10;stroke-dasharray:2.4, 3.6;stroke-dashoffset:0;stroke-opacity:1"
       id="path134" />
    <path
       d="m 176.285,651.486 v -0.192 h 0.384 v -0.193 h 0.193 l 0.192,-0.192 h 0.193 v -0.192 h 0.192 l 0.385,-0.385 h 0.192 l 0.192,-0.193 h 0.193 v -0.192 h 0.385 v -0.192 h 0.192 l 0.192,-0.193 h 0.193 l 0.192,-0.192 0.193,-0.192 h 0.192 l 0.192,-0.193 h 0.193 l 0.192,-0.192 h 0.192 l 0.193,-0.193 h 0.192 v -0.192 h 0.385 v -0.192 h 0.385 v -0.193 h 0.384 l 0.193,-0.192 h 0.192 l 0.193,-0.193 h 0.384 v -0.192 h 0.385 v -0.192 h 0.385 v -0.193 h 0.385 v -0.192 h 0.384 l 0.193,-0.192 h 0.192 l 0.193,-0.193 h 0.384 l 0.193,-0.192 h 0.385 v -0.193 h 0.384 v -0.192 h 0.577 v -0.192 h 0.385 l 0.193,-0.193 h 0.384 l 0.193,-0.192 h 0.385 v -0.192 h 0.384 l 0.193,-0.193 h 0.384 l 0.193,-0.192 h 0.385 l 0.192,-0.193 h 0.385 l 0.192,-0.192 h 0.385 l 0.192,-0.192 h 0.385 l 0.192,-0.193 h 0.385 l 0.192,-0.192 h 0.385 l 0.193,-0.193 h 0.577 v -0.192 h 0.385 l 0.192,37.322 0.192,-2.308 v -2.117 l 0.385,-3.078 v -1.154 l 0.385,-1.924 v -0.769 l 0.385,-1.539 v -0.578 l 0.192,-0.577 0.192,-0.385 v -0.577 l 0.385,-0.769 v -0.385 l 0.385,-0.769 v -0.193 l 0.192,-0.385 0.193,-0.192 v -0.385 l 0.384,-0.384 0.193,-0.385 v -0.193 l 0.385,-0.384 v -0.193 l 0.192,-0.192 0.192,-0.192 v -0.193 l 0.385,-0.385 v -0.192 l 0.577,-0.577 0.193,-0.193 v -0.192 l 0.192,-0.192 h 0.192 v -0.193 l 0.193,-0.192 h 0.192 v -0.193 l 0.193,-0.192 h 0.192 v -0.192 h 0.192 l 0.193,-0.193 v -0.192 h 0.192 l 0.192,-0.192 0.193,-0.193 h 0.192"
       style="fill:none;stroke:#000000;stroke-width:0.24;stroke-linecap:round;stroke-linejoin:round;stroke-miterlimit:10;stroke-dasharray:2.4, 3.6;stroke-dashoffset:0;stroke-opacity:1"
       id="path136" />
    <path
       d="m 202.256,657.065 v -0.192 h 0.193 l 0.192,-0.193 0.192,-0.192 h 0.193 l 0.192,-0.192 0.193,-0.193 h 0.192 v -0.192 h 0.192 l 0.193,-0.192 0.192,-0.193 h 0.192 l 0.193,-0.192 h 0.192 v -0.193 h 0.385 v -0.192 h 0.192 l 0.193,-0.192 h 0.192 l 0.193,-0.193 h 0.192 l 0.192,-0.192 h 0.193 l 0.192,-0.193 h 0.192 l 0.193,-0.192 h 0.192 l 0.192,-0.192 h 0.193 l 0.192,-0.193 h 0.193 l 0.192,-0.192 h 0.193 l 0.192,-0.192 h 0.192 l 0.193,-0.193 h 0.384 l 0.193,-0.192 h 0.192 l 0.193,-0.193 0.192,48.865 0.192,-2.308 v -2.309 l 0.193,-1.731 0.192,-1.539 v -1.347 l 0.385,-2.308 v -0.962 l 0.385,-1.539 v -0.578 l 0.192,-0.769 0.192,-0.577 v -0.385 l 0.385,-1.154 v -0.385 l 0.385,-0.77 v -0.384 l 0.385,-0.77 0.192,-0.192 v -0.385 l 0.192,-0.192 0.193,-0.385 v -0.193 l 0.192,-0.384 0.193,-0.193 v -0.192 l 0.192,-0.385 0.192,-0.192 v -0.193 l 0.193,-0.192 0.192,-0.192 v -0.193 l 0.192,-0.192 0.193,-0.193 v -0.192 l 0.192,-0.192 0.193,-0.193 v -0.192 l 0.384,-0.385 v -0.192 l 0.193,-0.193 h 0.192 v -0.192 l 0.385,-0.385 0.192,-0.192 0.193,-0.193 v -0.192 h 0.192 l 0.192,-0.192 v -0.193 h 0.193 l 0.192,-0.192 v -0.192 h 0.193 l 0.192,-0.193 0.385,-0.385 0.192,-0.192 h 0.192 l 0.385,-0.385 0.385,-0.385 h 0.192 v -0.192 h 0.193 l 0.192,-0.192 h 0.193 l 0.192,-0.193 0.192,-0.192 h 0.193 v -0.192 h 0.192 l 0.192,-0.193 0.193,-0.192 h 0.192 l 0.193,-0.192 h 0.192 v -0.193 h 0.385 v -0.192 h 0.192 l 0.193,-0.193 h 0.192 l 0.192,-0.192 0.193,-0.193 h 0.384 v -0.192 h 0.385 v -0.192 h 0.385 v -0.193 h 0.385 v -0.192 h 0.384 v -0.192 h 0.385 v -0.193 h 0.385 v -0.192 h 0.385 v -0.192 h 0.385 v -0.193 h 0.384 l 0.193,-0.192 h 0.192 l 0.192,-0.193 h 0.193"
       style="fill:none;stroke:#000000;stroke-width:0.24;stroke-linecap:round;stroke-linejoin:round;stroke-miterlimit:10;stroke-dasharray:2.4, 3.6;stroke-dashoffset:0;stroke-opacity:1"
       id="path138" />
    <path
       d="m 228.228,668.223 h 0.192 l 0.193,-0.192 h 0.192 l 0.192,-0.192 h 0.385 l 0.192,-0.193 h 0.385 v -0.192 h 0.385 l 0.192,-0.193 h 0.385 l 0.193,-0.192 h 0.384 v -0.192 h 0.385 l 0.192,-0.193 h 0.385 l 0.193,-0.192 h 0.384 v -0.193 h 0.578 l 0.192,-0.192 h 0.385 l 0.192,-0.192 h 0.385 v -0.193 h 0.577 l 0.192,-0.192 h 0.385 l 0.193,-0.192 h 0.577 v -0.193 h 0.577 l 0.192,-0.192 h 0.385 l 0.192,-0.193 h 0.577 v -0.192 h 0.578 l 0.192,-0.192 h 0.577 l 0.193,-0.193 h 0.577 v -0.192 h 0.577 l 0.192,-0.192 h 0.577 l 0.193,-0.193 h 0.577 l 0.192,-0.192 h 0.385 l 0.192,-0.193 h 0.578 l 0.192,-0.192 h 0.77 v -0.192 h 0.769 v -0.193 h 0.77 v -0.192 h 0.769 v -0.192 h 0.77 l 0.192,-0.193 h 0.577 l 0.192,-0.192 h 0.77 v -0.193 h 0.77 l 0.192,-0.192 h 0.577 l 0.192,-0.192 h 0.77 l 0.192,-0.193 h 0.77 v -0.192 h 0.769 v -0.192 h 0.962 v -0.193 h 0.77 l 0.192,-0.192 h 0.77 l 0.192,-0.193 h 0.77 v -0.192 h 0.769 l 0.193,-0.192 h 0.769 l 0.193,-0.193 h 0.769 l 0.192,-0.192 h 0.77 v -0.193 h 0.769 l 0.193,-0.192 h 0.769 l 0.193,-0.192 h 0.769 v -0.193 h 0.962 l 0.193,-0.192 h 0.769 l 0.192,-0.193 h 0.77 v -0.192 h 0.77 l 0.192,-0.192 h 0.962 v -0.193 h 0.769 l 0.193,-0.192 h 0.769 l 0.193,-0.192 h 0.962 v -0.193 h 0.769 l 0.192,-0.192 h 0.962 v -0.193 h 0.77 l 0.192,-0.192 h 0.77 l 0.192,-0.192 h 0.962 v -0.193 h 0.962 l 0.192,-0.192 h 0.77 v -0.192 h 0.77 l 0.192,-0.193 h 0.577"
       style="fill:none;stroke:#000000;stroke-width:0.24;stroke-linecap:round;stroke-linejoin:round;stroke-miterlimit:10;stroke-dasharray:2.4, 3.6;stroke-dashoffset:0;stroke-opacity:1"
       id="path140" />
    <path
       d="m 280.171,655.526 h 0.385 v -0.192 h 0.962 v -0.193 h 0.962 l 0.192,-0.192 h 0.769 l 0.193,-0.192 h 0.769 l 0.193,-0.193 h 0.769 l 0.193,-0.192 h 0.769 l 0.193,-0.193 h 0.962 v -0.192 h 0.577"
       style="fill:none;stroke:#000000;stroke-width:0.24;stroke-linecap:round;stroke-linejoin:round;stroke-miterlimit:10;stroke-dasharray:2.4, 3.6;stroke-dashoffset:0;stroke-opacity:1"
       id="path142" />
    <path
       d="m 163.203,582.229 0.192,105.233 0.192,-2.694 v -2.308 l 0.193,-1.924 0.192,-1.732 v -1.539 l 0.193,-1.346 0.192,-1.155 v -1.154 l 0.192,-0.962 0.193,-0.769 v -0.962 l 0.192,-0.578 0.192,-0.769 v -0.577 l 0.385,-1.154 v -0.578 l 0.193,-0.577 0.192,-0.385 v -0.384 l 0.192,-0.577 0.385,-0.77 v -0.385 l 0.193,-0.384 v -0.193 l 0.384,-0.769 0.193,-0.193 v -0.384 l 0.192,-0.385 0.192,-0.193 v -0.192 l 0.193,-0.385 0.192,-0.192 v -0.192 l 0.193,-0.385 0.192,-0.193 v -0.192 l 0.192,-0.192 0.193,-0.385 v -0.193 l 0.385,-0.384 v -0.193 l 0.192,-0.192 0.192,-0.193 v -0.192 l 0.193,-0.192 0.192,-0.193 v -0.192 l 0.77,-0.77 v -0.192 l 0.192,-0.192 0.192,-0.193 0.385,-0.384 v -0.193 h 0.193 l 0.192,-0.192 0.192,-0.193 v -0.192 h 0.193 l 0.192,-0.192 v -0.193 h 0.192 l 0.193,-0.192 v -0.193 h 0.192 l 0.192,-0.192 v -0.192 h 0.193 l 0.192,-0.193 0.193,-0.192 0.384,-0.385 h 0.193 v -0.192 h 0.192 l 0.193,-0.193 v -0.192 h 0.192 l 0.385,-0.385 h 0.192 v -0.192 h 0.192 l 0.193,-0.192 0.192,-0.193 h 0.193 v -0.192 h 0.384 v -0.193 h 0.193 l 0.192,-0.192 h 0.193 v -0.192 h 0.192 l 0.385,-0.385 h 0.192 l 0.192,-0.193 h 0.193 v -0.192 h 0.385 v -0.192 h 0.192 l 0.192,-0.193 h 0.193 l 0.192,-0.192 0.193,-0.192 h 0.192 l 0.192,-0.193 h 0.193 l 0.192,-0.192 h 0.192 l 0.193,-0.193 h 0.192 v -0.192 h 0.385 v -0.192 h 0.385 v -0.193 h 0.384 l 0.193,-0.192 h 0.192 l 0.193,-0.193 h 0.384 v -0.192 h 0.385 v -0.192 h 0.385 v -0.193 h 0.385 v -0.192 h 0.384 l 0.193,-0.192 h 0.192 l 0.193,-0.193 h 0.384 l 0.193,-0.192 h 0.385 v -0.193 h 0.384 v -0.192 h 0.577 v -0.192 h 0.385 l 0.193,-0.193 h 0.384 l 0.193,-0.192 h 0.385 v -0.192 h 0.384"
       style="fill:none;stroke:#000000;stroke-width:0.24;stroke-linecap:round;stroke-linejoin:round;stroke-miterlimit:10;stroke-dasharray:none;stroke-opacity:1"
       id="path144" />
    <path
       d="m 189.174,645.138 v 0 l 0.193,-0.193 h 0.384 l 0.193,-0.192 h 0.385 l 0.192,-0.193 h 0.385 l 0.192,-0.192 h 0.385 l 0.192,-0.192 h 0.385 l 0.192,-0.193 h 0.385 l 0.192,-0.192 h 0.385 l 0.193,-0.193 h 0.577 v -0.192 h 0.385 l 0.192,37.322 0.192,-2.308 v -2.117 l 0.385,-3.078 v -1.154 l 0.385,-1.924 v -0.769 l 0.385,-1.539 v -0.578 l 0.192,-0.577 0.192,-0.385 v -0.577 l 0.385,-0.769 v -0.385 l 0.385,-0.769 v -0.193 l 0.192,-0.385 0.193,-0.192 v -0.385 l 0.384,-0.384 0.193,-0.385 v -0.193 l 0.385,-0.384 v -0.193 l 0.192,-0.192 0.192,-0.192 v -0.193 l 0.385,-0.385 v -0.192 l 0.577,-0.577 0.193,-0.193 v -0.192 l 0.192,-0.192 h 0.192 v -0.193 l 0.193,-0.192 h 0.192 v -0.193 l 0.193,-0.192 h 0.192 v -0.192 h 0.192 l 0.193,-0.193 v -0.192 h 0.192 l 0.192,-0.192 0.193,-0.193 h 0.192 v -0.192 h 0.193 l 0.192,-0.193 0.192,-0.192 h 0.193 l 0.192,-0.192 0.193,-0.193 h 0.192 v -0.192 h 0.192 l 0.193,-0.192 0.192,-0.193 h 0.192 l 0.193,-0.192 h 0.192 v -0.193 h 0.385 v -0.192 h 0.192 l 0.193,-0.192 h 0.192 l 0.193,-0.193 h 0.192 l 0.192,-0.192 h 0.193 l 0.192,-0.193 h 0.192 l 0.193,-0.192 h 0.192 l 0.192,-0.192 h 0.193 l 0.192,-0.193 h 0.193 l 0.192,-0.192 h 0.193 l 0.192,-0.192 h 0.192 l 0.193,-0.193 h 0.384 l 0.193,-0.192 h 0.192 l 0.193,-0.193 0.192,48.865 0.192,-2.308 v -2.309 l 0.193,-1.731 0.192,-1.539 v -1.347 l 0.385,-2.308 v -0.962 l 0.385,-1.539 v -0.578 l 0.192,-0.769 0.192,-0.577 v -0.385 l 0.385,-1.154 v -0.385 l 0.385,-0.77 v -0.384 l 0.385,-0.77 0.192,-0.192 v -0.385 l 0.192,-0.192 0.193,-0.385 v -0.193 l 0.192,-0.384 0.193,-0.193 v -0.192 l 0.192,-0.385 0.192,-0.192 v -0.193 l 0.193,-0.192 0.192,-0.192 v -0.193 l 0.192,-0.192 0.193,-0.193"
       style="fill:none;stroke:#000000;stroke-width:0.24;stroke-linecap:round;stroke-linejoin:round;stroke-miterlimit:10;stroke-dasharray:none;stroke-opacity:1"
       id="path146" />
    <path
       d="m 215.146,677.842 v -0.192 l 0.192,-0.192 0.193,-0.193 v -0.192 l 0.384,-0.385 v -0.192 l 0.193,-0.193 h 0.192 v -0.192 l 0.385,-0.385 0.192,-0.192 0.193,-0.193 v -0.192 h 0.192 l 0.192,-0.192 v -0.193 h 0.193 l 0.192,-0.192 v -0.192 h 0.193 l 0.192,-0.193 0.385,-0.385 0.192,-0.192 h 0.192 l 0.385,-0.385 0.385,-0.385 h 0.192 v -0.192 h 0.193 l 0.192,-0.192 h 0.193 l 0.192,-0.193 0.192,-0.192 h 0.193 v -0.192 h 0.192 l 0.192,-0.193 0.193,-0.192 h 0.192 l 0.193,-0.192 h 0.192 v -0.193 h 0.385 v -0.192 h 0.192 l 0.193,-0.193 h 0.192 l 0.192,-0.192 0.193,-0.193 h 0.384 v -0.192 h 0.385 v -0.192 h 0.385 v -0.193 h 0.385 v -0.192 h 0.384 v -0.192 h 0.385 v -0.193 h 0.385 v -0.192 h 0.385 v -0.192 h 0.385 v -0.193 h 0.384 l 0.193,-0.192 h 0.192 l 0.192,-0.193 h 0.385 l 0.193,-0.192 h 0.192 l 0.192,-0.192 h 0.385 l 0.192,-0.193 h 0.385 v -0.192 h 0.385 l 0.192,-0.193 h 0.385 l 0.193,-0.192 h 0.384 v -0.192 h 0.385 l 0.192,-0.193 h 0.385 l 0.193,-0.192 h 0.384 v -0.193 h 0.578 l 0.192,-0.192 h 0.385 l 0.192,-0.192 h 0.385 v -0.193 h 0.577 l 0.192,-0.192 h 0.385 l 0.193,-0.192 h 0.577 v -0.193 h 0.577 l 0.192,-0.192 h 0.385 l 0.192,-0.193 h 0.577 v -0.192 h 0.578 l 0.192,-0.192 h 0.577 l 0.193,-0.193 h 0.577 v -0.192 h 0.577 l 0.192,-0.192 h 0.577 l 0.193,-0.193 h 0.577 l 0.192,-0.192 h 0.385 l 0.192,-0.193 h 0.578 l 0.192,-0.192 h 0.77 v -0.192 h 0.769 v -0.193 h 0.77 v -0.192 h 0.769 v -0.192 h 0.77 l 0.192,-0.193 h 0.577 l 0.192,-0.192 h 0.77 v -0.193 h 0.77 l 0.192,-0.192 h 0.577 l 0.192,-0.192 h 0.77 l 0.192,-0.193 h 0.77 v -0.192 h 0.577"
       style="fill:none;stroke:#000000;stroke-width:0.24;stroke-linecap:round;stroke-linejoin:round;stroke-miterlimit:10;stroke-dasharray:none;stroke-opacity:1"
       id="path148" />
    <path
       d="m 254.007,660.913 h 0.192 v -0.192 h 0.962 v -0.193 h 0.77 l 0.192,-0.192 h 0.77 l 0.192,-0.193 h 0.77 v -0.192 h 0.769 l 0.193,-0.192 h 0.769 l 0.193,-0.193 h 0.769 l 0.192,-0.192 h 0.77 v -0.193 h 0.769 l 0.193,-0.192 h 0.769 l 0.193,-0.192 h 0.769 v -0.193 h 0.962 l 0.193,-0.192 h 0.769 l 0.192,-0.193 h 0.77 v -0.192 h 0.77 l 0.192,-0.192 h 0.962 v -0.193 h 0.769 l 0.193,-0.192 h 0.769 l 0.193,-0.192 h 0.962 v -0.193 h 0.769 l 0.192,-0.192 h 0.962 v -0.193 h 0.77 l 0.192,-0.192 h 0.77 l 0.192,-0.192 h 0.962 v -0.193 h 0.962 l 0.192,-0.192 h 0.77 v -0.192 h 0.77 l 0.192,-0.193 h 0.962 v -0.192 h 0.962 v -0.193 h 0.962 l 0.192,-0.192 h 0.769 l 0.193,-0.192 h 0.769 l 0.193,-0.193 h 0.769 l 0.193,-0.192 h 0.769 l 0.193,-0.193 h 0.962 v -0.192 h 0.577 m -155.83,-71.758 h 155.83 m -155.83,0 v 127.356 m 182.144,-4.039 v 4.039 m 31.166,-4.039 v 4.039 m 31.166,-4.039 v 4.039 m 31.166,-4.039 v 4.039 m 31.166,-4.039 v 4.039 m 31.166,-4.039 v 4.039 m -3.848,-127.356 h 3.848 m -3.848,42.324 h 3.848 m -3.848,42.516 h 3.848 m -3.848,0 h 3.848 m -3.848,42.516 h 3.848 m -3.848,0 h 3.848 m -155.83,0 h 155.83 m 0,-127.356 v 127.356 m -155.83,0 h 155.83 V 582.228 h -155.83 z m 0,-123.509 v -3.847 m 31.166,3.847 v -3.847 m 31.166,3.847 v -3.847 m 31.166,3.847 v -3.847 m 31.166,3.847 v -3.847 m 31.166,3.847 v -3.847 m -151.982,0 h -3.848 m 3.848,42.324 h -3.848 m 3.848,42.516 h -3.848"
       style="fill:none;stroke:#000000;stroke-width:0.24;stroke-linecap:round;stroke-linejoin:round;stroke-miterlimit:10;stroke-dasharray:none;stroke-opacity:1"
       id="path150" />
    <path
       d="m 318.221,667.069 h -3.848 m 3.848,42.516 h -3.848 m 3.848,0 h -3.848 m -27.084,1.155 0.385,0.192 0.577,0.577 v -3.463 m -0.962,2.694 0.385,0.192 0.577,0.577 v -3.463"
       style="fill:none;stroke:#000000;stroke-width:0.24;stroke-linecap:round;stroke-linejoin:round;stroke-miterlimit:10;stroke-dasharray:none;stroke-opacity:1"
       id="path152" />
    <path
       d="m 314.566,620.513 v 0.577 h 0.385 v -0.193 h 0.962 l 0.192,-0.192 h 0.769 v -0.192 h 0.962 l 0.193,-0.193 h 0.962 v -0.192 h 0.769 l 0.193,-0.193 h 0.961 v -0.192 h 0.77 l 0.192,-0.192 h 0.962 l 0.193,-0.193 h 0.769 l 0.193,-0.192 h 0.961 v -0.192 h 0.77 l 0.192,-0.193 h 0.962 v -0.192 h 0.962 v -0.193 h 0.962 l 0.193,-0.192 h 0.769 l 0.192,-0.192 h 0.77 l 0.192,-0.193 h 0.77 l 0.192,-0.192 h 0.77 l 0.192,-0.192 h 0.962 v -0.193 h 0.962 l 0.192,-0.192 h 0.77 v -0.193 h 0.962 l 0.192,-0.192 h 0.77 v -0.192 h 0.962 l 0.192,-0.193 h 0.962 v -0.192 h 0.769 l 0.193,-0.193 h 0.962 v -0.192 h 0.769 l 0.193,-0.192 h 0.962 l 0.192,-0.193 h 0.769 l 0.193,-0.192 h 0.769 l 0.193,-0.192 h 0.769 l 0.193,-0.193 h 0.962 v -0.192 h 0.962 v -0.193 h 0.961 l 0.193,-0.192 h 0.769 v -0.192 h 0.962 l 0.193,-0.193 h 0.769 l 0.193,-0.192 h 0.769 l 0.192,-0.192 h 0.962 v -0.193 h 0.77 l 0.192,-0.192 h 0.962 v -0.193 h 0.962 l 0.192,-0.192 h 0.77 v -0.192 h 0.962 l 0.192,-0.193 h 0.77 l 0.192,-0.192 h 0.77 l 0.192,-0.193 h 0.962 v -0.192 h 0.962 l 0.192,-0.192 h 0.77 l 0.192,-0.193 h 0.77 l 0.192,-0.192 h 0.77 l 0.192,-0.192 h 0.77 l 0.192,-0.193 h 0.962 v -0.192 h 0.769 l 0.193,-0.193 h 0.962 l 0.192,-0.192 h 0.77 v -0.192 h 0.961 l 0.193,-0.193 h 0.769 l 0.193,-0.192 h 0.769 l 0.193,-0.193 h 0.962 v -0.192 h 0.769 l 0.193,-0.192 h 0.961 v -0.193 h 0.77 l 0.192,-0.192 h 0.962 v -0.192"
       style="fill:none;stroke:#000000;stroke-width:0.24;stroke-linecap:round;stroke-linejoin:round;stroke-miterlimit:10;stroke-dasharray:2.4, 3.6;stroke-dashoffset:0;stroke-opacity:1"
       id="path154" />
    <path
       d="m 379.206,608.393 h 0.962 l 0.193,-0.193 h 0.769 l 0.192,-0.192 h 0.77 l 0.192,-0.193 h 0.77 l 0.192,-0.192 h 0.77 l 0.192,-0.192 h 0.962 l 0.193,-0.193 h 0.769 l 0.192,-0.192 h 0.77 l 0.192,-0.192 h 0.77 l 0.192,-0.193 h 0.77 l 0.192,-0.192 h 0.77 l 0.192,-0.193 h 0.962 l 0.192,-0.192 h 0.77 v -0.192 h 0.962 l 0.192,-0.193 h 0.77 v -0.192 h 0.962 l 0.192,-0.193 h 0.962 v -0.192 h 0.769 l 0.193,-0.192 h 0.962 v -0.193 h 0.769 l 0.193,-0.192 h 0.962 v -0.192 h 0.961 l 0.193,-0.193 h 0.769 l 0.193,-0.192 h 0.769 l 0.193,-0.193 h 0.962 v -0.192 h 0.769 l 0.192,-0.192 h 0.962 v -0.193 h 0.962 v -0.192 h 0.962 l 0.193,-0.192 h 0.769 l 0.192,-0.193 h 0.77 l 0.192,-0.192 h 0.77 l 0.192,-0.193 h 0.77 l 0.192,-0.192 h 0.962 v -0.192 h 0.962 l 0.192,-0.193 h 0.77 v -0.192 h 0.962 l 0.192,-0.193 h 0.77 l 0.192,-0.192 h 0.77 l 0.192,-0.192 h 0.962 v -0.193 h 0.77 l 0.192,-0.192 h 0.962 v -0.192 h 0.962 v -0.193 h 0.962 l 0.192,-0.192 h 0.77 l 0.192,-0.193 h 0.962 v -0.192 h 0.769 l 0.193,-0.192 h 0.962 l 0.192,-0.193 h 0.77 v -0.192 h 0.961 l 0.193,-0.193 h 0.769 l 0.193,-0.192 h 0.769 l 0.193,-0.192 h 0.769 l 0.193,-0.193 h 0.769 l 0.192,-0.192 h 0.962 v -0.192 h 0.962 l 0.193,-0.193 h 0.769 v -0.192 h 0.962 l 0.193,-0.193 h 0.769 l 0.192,-0.192 h 0.77 l 0.192,-0.192 h 0.962 v -0.193 h 0.77 l 0.192,-0.192 h 0.962 v -0.193 h 0.962 l 0.192,-0.192 h 0.77 l 0.192,-0.192 h 0.577"
       style="fill:none;stroke:#000000;stroke-width:0.24;stroke-linecap:round;stroke-linejoin:round;stroke-miterlimit:10;stroke-dasharray:2.4, 3.6;stroke-dashoffset:0;stroke-opacity:1"
       id="path156" />
    <path
       d="m 444.231,595.888 h 0.193 l 0.192,-0.193 h 0.77 l 0.192,-0.192 h 0.77 l 0.192,-0.192 h 0.962 l 0.192,-0.193 h 0.77 v -0.192 h 0.962 l 0.192,-0.193 h 0.77 v -0.192 h 0.962 l 0.192,-0.192 h 0.962 v -0.193 h 0.769 l 0.193,-0.192 h 0.962 v -0.192 h 0.769 l 0.193,-0.193 h 0.962 v -0.192 h 0.961 l 0.193,-0.193 h 0.769 l 0.193,-0.192 h 0.769 l 0.193,-0.192 h 0.769 l 0.193,-0.193 h 0.769 l 0.192,-0.192 h 0.962 v -0.193 h 0.962 l 0.193,-0.192 h 0.769 l 0.193,-0.192 h 0.769 l 0.192,-0.193 h 0.77 l 0.192,-0.192 h 0.77 l 0.192,-0.192 h 0.77 l 0.192,-0.193 h 0.962 v -0.192 h 0.962 m -155.637,29.627 v 0.577 h 0.385 v -0.193 h 0.962 l 0.192,-0.192 h 0.769 v -0.192 h 0.962 l 0.193,-0.193 h 0.962 v -0.192 h 0.769 l 0.193,-0.193 h 0.961 v -0.192 h 0.77 l 0.192,-0.192 h 0.962 l 0.193,-0.193 h 0.769 l 0.193,-0.192 h 0.961 v -0.192 h 0.77 l 0.192,-0.193 h 0.962 v -0.192 h 0.962 v -0.193 h 0.962 l 0.193,-0.192 h 0.769 l 0.192,-0.192 h 0.77 l 0.192,-0.193 h 0.77 l 0.192,-0.192 h 0.77 l 0.192,-0.192 h 0.962 v -0.193 h 0.962 l 0.192,-0.192 h 0.77 v -0.193 h 0.962 l 0.192,-0.192 h 0.77 v -0.192 h 0.962 l 0.192,-0.193 h 0.962 v -0.192 h 0.769 l 0.193,-0.193 h 0.962 v -0.192 h 0.769 l 0.193,-0.192 h 0.962 l 0.192,-0.193 h 0.769 l 0.193,-0.192 h 0.577 l 0.192,72.72 0.193,-2.693 v -2.309 l 0.192,-1.923 0.193,-1.54 v -1.539 l 0.192,-1.346 0.192,-1.155 v -0.961 l 0.193,-0.962 0.192,-0.77 v -0.769 l 0.192,-0.77 0.193,-0.577 v -0.577 l 0.385,-1.154 v -0.578 l 0.384,-0.769 v -0.577 l 0.578,-1.155 v -0.192 l 0.384,-0.77 v -0.384 l 0.193,-0.193 0.192,-0.384 v -0.193 l 0.192,-0.385 0.193,-0.192 v -0.192 l 0.192,-0.385 0.193,-0.192 v -0.193 l 0.384,-0.385 v -0.384 l 0.193,-0.193 0.192,-0.192 v -0.192 l 0.192,-0.193 0.193,-0.192 v -0.193 l 0.385,-0.384 v -0.193 h 0.192 l 0.192,-0.192 v -0.193 l 0.385,-0.384 v -0.193 h 0.193 l 0.192,-0.192 v -0.193 l 0.385,-0.384"
       style="fill:none;stroke:#000000;stroke-width:0.24;stroke-linecap:round;stroke-linejoin:round;stroke-miterlimit:10;stroke-dasharray:2.4, 3.6;stroke-dashoffset:0;stroke-opacity:1"
       id="path158" />
    <path
       d="m 353.235,657.835 0.192,-0.193 0.192,-0.192 h 0.193 v -0.192 l 0.577,-0.578 h 0.192 v -0.192 l 0.193,-0.192 h 0.192 v -0.193 h 0.193 l 0.192,-0.192 v -0.192 h 0.192 l 0.193,-0.193 0.192,-0.192 h 0.192 v -0.193 h 0.193 l 0.385,-0.384 0.192,-0.193 h 0.192 l 0.385,-0.385 h 0.192 v -0.192 h 0.193 l 0.385,-0.385 h 0.192 v -0.192 h 0.385 v -0.192 h 0.192 l 0.192,-0.193 h 0.193 v -0.192 h 0.385 v -0.193 h 0.192 l 0.192,-0.192 h 0.193 l 0.192,-0.192 h 0.193 l 0.384,-0.385 h 0.193 l 0.192,-0.192 h 0.192 l 0.193,-0.193 h 0.192 l 0.193,-0.192 h 0.192 l 0.192,-0.193 h 0.193 l 0.192,-0.192 h 0.192 l 0.193,-0.192 h 0.192 l 0.193,-0.193 h 0.192 l 0.192,-0.192 h 0.385 l 0.193,-0.193 h 0.192 l 0.192,-0.192 h 0.193 l 0.192,-0.192 h 0.385 l 0.192,-0.193 h 0.193 l 0.192,-0.192 h 0.385 v -0.192 h 0.385 l 0.192,-0.193 h 0.385 l 0.192,-0.192 h 0.385 V 648.6 h 0.385 l 0.192,-0.192 h 0.385 l 0.192,-0.192 h 0.385 l 0.192,-0.193 h 0.385 v -0.192 h 0.385 l 0.192,-0.193 h 0.577 v -0.192 h 0.385 l 0.192,-0.192 h 0.578 v -0.193 h 0.577 l 0.192,-0.192 h 0.385 v -0.192 h 0.577 l 0.192,-0.193 h 0.578 v -0.192 h 0.577 l 0.192,-0.193 h 0.385 l 0.192,-0.192 h 0.577 l 0.193,-0.192 h 0.577 v -0.193 h 0.577 l 0.192,-0.192 h 0.578 l 0.192,-0.192 h 0.385 l 0.192,-0.193 h 0.77 v -0.192 h 0.769 v -0.193 h 0.77 v -0.192 h 0.769 v -0.192 h 0.77 v -0.193 h 0.769 v -0.192 h 0.77 l 0.192,-0.193 h 0.577 l 0.193,-0.192 h 0.769 v -0.192 h 0.77 v -0.193 h 0.769 l 0.193,-0.192 h 0.577 l 0.192,-0.192 h 0.77 v -0.193 h 0.769 l 0.193,-0.192 h 0.769"
       style="fill:none;stroke:#000000;stroke-width:0.24;stroke-linecap:round;stroke-linejoin:round;stroke-miterlimit:10;stroke-dasharray:2.4, 3.6;stroke-dashoffset:0;stroke-opacity:1"
       id="path160" />
    <path
       d="m 392.288,642.252 0.193,-0.193 h 0.769 v -0.192 h 0.77 v -0.192 h 0.769 l 0.193,-0.193 h 0.769 l 0.192,-0.192 h 0.77 l 0.192,-0.192 h 0.77 v -0.193 h 0.769 l 0.193,-0.192 h 0.769 l 0.193,-0.193 h 0.962 v -0.192 h 0.769 l 0.193,-0.192 h 0.769 l 0.193,-0.193 h 0.769 v -0.192 h 0.77 l 0.192,-0.193 h 0.962 v -0.192 h 0.769 l 0.193,-0.192 h 0.769 l 0.193,-0.193 h 0.962 v -0.192 h 0.769 l 0.192,-0.192 h 0.962 v -0.193 h 0.77 l 0.192,-0.192 h 0.77 l 0.192,-0.193 h 0.962 v -0.192 h 0.77 l 0.192,-0.192 h 0.962 v -0.193 h 0.769 l 0.193,-0.192 h 0.769 l 0.193,-0.193 h 0.962 v -0.192 h 0.962 l 0.192,-0.192 h 0.77 v -0.193 h 0.961 l 0.193,-0.192 h 0.769 l 0.193,-0.192 h 0.769 l 0.193,-0.193 h 0.769 l 0.193,-0.192 h 0.769 l 0.192,-0.193 h 0.77 l 0.192,-0.192 h 0.962 v -0.192 h 0.77 l 0.192,-0.193 h 0.962 v -0.192 h 0.962 l 0.192,-0.193 h 0.77 v -0.192 h 0.962 l 0.192,-0.192 h 0.77 l 0.192,-0.193 h 0.77 l 0.192,-0.192 h 0.962 v -0.192 h 0.769 l 0.193,-0.193 h 0.962 v -0.192 h 0.962 v -0.192 h 0.962 l 0.192,-0.193 h 0.77 l 0.192,-0.192 h 0.769 l 0.193,-0.193 h 0.769 l 0.193,-0.192 h 0.769 l 0.193,-0.192 h 0.961 v -0.193 h 0.962 l 0.193,-0.192 h 0.769 v -0.193 h 0.962 l 0.193,-0.192 h 0.769 l 0.193,-0.192 h 0.769 l 0.192,-0.193 h 0.77 l 0.192,-0.192 h 0.77 l 0.192,-0.193 h 0.962 v -0.192 h 0.77 l 0.192,-0.192 h 0.962 l 0.192,-0.193 h 0.77 v -0.192 h 0.962 l 0.192,-0.192 h 0.77 l 0.192,-0.193 h 0.77 l 0.192,-0.192"
       style="fill:none;stroke:#000000;stroke-width:0.24;stroke-linecap:round;stroke-linejoin:round;stroke-miterlimit:10;stroke-dasharray:2.4, 3.6;stroke-dashoffset:0;stroke-opacity:1"
       id="path162" />
    <path
       d="m 457.121,629.17 h 0.77 l 0.192,-0.193 h 0.77 l 0.192,-0.192 h 0.962 v -0.192 h 0.962 l 0.192,-0.193 h 0.77 l 0.192,-0.192 h 0.769 l 0.193,-0.192 h 0.962 v -0.193 h 0.769 l 0.193,-0.192 h 0.962 v -0.193 h 0.962 l 0.192,-0.192 h 0.769 v -0.192 h 0.962 l 0.193,-0.193 h 0.769 l 0.193,-0.192 h 0.192 m -155.637,-6.156 v 0.577 h 0.385 v -0.193 h 0.962 l 0.192,-0.192 h 0.769 v -0.192 h 0.962 l 0.193,-0.193 h 0.962 v -0.192 h 0.769 l 0.193,-0.193 h 0.961 v -0.192 h 0.77 l 0.192,-0.192 h 0.962 l 0.193,-0.193 h 0.769 l 0.193,-0.192 h 0.961 v -0.192 h 0.77 l 0.192,-0.193 h 0.962 v -0.192 h 0.962 v -0.193 h 0.962 l 0.193,-0.192 h 0.769 l 0.192,-0.192 h 0.77 l 0.192,-0.193 h 0.77 l 0.192,-0.192 h 0.77 l 0.192,-0.192 h 0.962 v -0.193 h 0.962 l 0.192,-0.192 h 0.77 v -0.193 h 0.962 l 0.192,-0.192 h 0.77 v -0.192 h 0.962 l 0.192,-0.193 h 0.962 v -0.192 h 0.769 l 0.193,-0.193 h 0.962 v -0.192 h 0.769 l 0.193,-0.192 h 0.962 l 0.192,-0.193 h 0.769 l 0.193,-0.192 h 0.577 l 0.192,72.72 0.193,-2.693 v -2.309 l 0.192,-1.923 0.193,-1.54 v -1.539 l 0.192,-1.346 0.192,-1.155 v -0.961 l 0.193,-0.962 0.192,-0.77 v -0.769 l 0.192,-0.77 0.193,-0.577 v -0.577 l 0.385,-1.154 v -0.578 l 0.384,-0.769 v -0.577 l 0.578,-1.155 v -0.192 l 0.384,-0.77 v -0.384 l 0.193,-0.193 0.192,-0.384 v -0.193 l 0.192,-0.385 0.193,-0.192 v -0.192 l 0.192,-0.385 0.193,-0.192 v -0.193 l 0.384,-0.385 v -0.384 l 0.193,-0.193 0.192,-0.192 v -0.192 l 0.192,-0.193 0.193,-0.192 v -0.193 l 0.385,-0.384 v -0.193 h 0.192 l 0.192,-0.192 v -0.193 l 0.385,-0.384 v -0.193 h 0.193 l 0.192,-0.192 v -0.193 l 0.385,-0.384"
       style="fill:none;stroke:#000000;stroke-width:0.24;stroke-linecap:round;stroke-linejoin:round;stroke-miterlimit:10;stroke-dasharray:2.4, 3.6;stroke-dashoffset:0;stroke-opacity:1"
       id="path164" />
    <path
       d="m 353.235,657.835 0.192,-0.193 0.192,-0.192 h 0.193 v -0.192 l 0.577,-0.578 h 0.192 v -0.192 l 0.193,-0.192 h 0.192 v -0.193 h 0.193 l 0.192,-0.192 v -0.192 h 0.192 l 0.193,-0.193 0.192,-0.192 h 0.192 v -0.193 h 0.193 l 0.385,-0.384 0.192,-0.193 h 0.192 l 0.385,-0.385 h 0.192 v -0.192 h 0.193 l 0.385,-0.385 h 0.192 v -0.192 h 0.385 v -0.192 h 0.192 l 0.192,-0.193 h 0.193 v -0.192 h 0.385 v -0.193 h 0.192 l 0.192,-0.192 h 0.193 l 0.192,-0.192 h 0.193 l 0.384,-0.385 h 0.193 l 0.192,-0.192 h 0.192 l 0.193,-0.193 h 0.192 l 0.193,-0.192 h 0.192 l 0.192,-0.193 h 0.193 l 0.192,-0.192 h 0.192 l 0.193,-0.192 h 0.192 l 0.193,-0.193 h 0.192 l 0.192,-0.192 h 0.385 l 0.193,-0.193 h 0.192 l 0.192,-0.192 h 0.193 l 0.192,-0.192 h 0.385 l 0.192,-0.193 h 0.193 l 0.192,-0.192 h 0.385 v -0.192 h 0.385 l 0.192,-0.193 h 0.385 l 0.192,-0.192 h 0.385 V 648.6 h 0.385 l 0.192,-0.192 h 0.385 l 0.192,-0.192 h 0.385 l 0.192,-0.193 h 0.385 v -0.192 h 0.385 l 0.192,-0.193 h 0.577 v -0.192 h 0.385 l 0.192,-0.192 h 0.578 v -0.193 h 0.577 l 0.192,-0.192 h 0.385 v -0.192 h 0.577 l 0.192,-0.193 h 0.578 v -0.192 h 0.577 l 0.192,-0.193 h 0.385 l 0.192,35.014 0.193,-2.309 v -1.924 l 0.192,-1.731 0.192,-1.347 v -1.154 l 0.385,-1.924 v -0.769 l 0.193,-0.77 0.192,-0.577 v -0.577 l 0.192,-0.577 0.193,-0.385 v -0.385 l 0.192,-0.577 0.192,-0.385 v -0.384 l 0.193,-0.193 0.192,-0.385 v -0.384 l 0.385,-0.385 v -0.385 l 0.385,-0.385 v -0.384 l 0.192,-0.193 0.385,-0.384 v -0.193 l 0.192,-0.192 0.193,-0.193 v -0.192 l 0.384,-0.385 0.385,-0.384 v -0.193 h 0.193 l 0.192,-0.192 v -0.193 l 0.192,-0.192 h 0.193 v -0.192 l 0.192,-0.193 h 0.193 v -0.192 l 0.192,-0.193 h 0.192 v -0.192 h 0.193 l 0.192,-0.192 0.192,-0.193 0.193,-0.192 0.192,-0.193 h 0.193 v -0.192 h 0.192 l 0.192,-0.192 h 0.193 l 0.192,-0.193 h 0.193 v -0.192 h 0.192 l 0.385,-0.385 h 0.192 l 0.192,-0.192 h 0.193 v -0.193 h 0.385 v -0.192 h 0.192 l 0.192,-0.192 h 0.193 l 0.192,-0.193 h 0.192 l 0.193,-0.192 h 0.192 l 0.193,-0.192 h 0.192 l 0.192,-0.193 h 0.193 l 0.192,-0.192 h 0.192 l 0.193,-0.193 h 0.192 l 0.193,-0.192 h 0.192 l 0.192,-0.192 h 0.385 l 0.193,-0.193 h 0.192 l 0.192,-0.192 h 0.385 v -0.193 h 0.385 l 0.192,-0.192"
       style="fill:none;stroke:#000000;stroke-width:0.24;stroke-linecap:round;stroke-linejoin:round;stroke-miterlimit:10;stroke-dasharray:2.4, 3.6;stroke-dashoffset:0;stroke-opacity:1"
       id="path166" />
    <path
       d="m 392.288,653.987 h 0.193 l 0.192,-0.192 h 0.385 l 0.192,-0.193 h 0.385 v -0.192 h 0.385 l 0.192,-0.192 h 0.385 l 0.192,-0.193 h 0.385 l 0.192,-0.192 h 0.385 l 0.192,-0.193 h 0.578 v -0.192 h 0.384 l 0.193,-0.192 h 0.577 v -0.193 h 0.385 l 0.192,-0.192 h 0.577 v -0.192 h 0.577 l 0.193,-0.193 h 0.577 l 0.192,-0.192 h 0.577 v -0.193 h 0.578 l 0.192,-0.192 h 0.385 l 0.192,-0.192 h 0.577 l 0.193,-0.193 h 0.577 v -0.192 h 0.769 v -0.193 h 0.77 v -0.192 h 0.577 l 0.192,-0.192 h 0.578 l 0.192,-0.193 h 0.577 l 0.192,-0.192 h 0.77 l 0.192,-0.192 h 0.385 l 0.192,-0.193 h 0.77 l 0.192,-0.192 h 0.578 l 0.192,-0.193 h 0.769 l 0.193,-0.192 h 0.577 l 0.192,-0.192 h 0.578 l 0.192,-0.193 h 0.769 v -0.192 h 0.77 l 0.192,-0.193 h 0.77 l 0.192,-0.192 h 0.577 l 0.193,-0.192 h 0.769 l 0.193,-0.193 h 0.769 v -0.192 h 0.77 l 0.192,-0.192 h 0.77 l 0.192,-0.193 h 0.77 l 0.192,-0.192 h 0.77 v -0.193 h 0.769 l 0.192,-0.192 h 0.77 l 0.192,-0.192 h 0.77 v -0.193 h 0.769 l 0.193,-0.192 h 0.962 l 0.192,-0.192 h 0.77 v -0.193 h 0.769 l 0.192,-0.192 h 0.962 v -0.193 h 0.77 l 0.192,-0.192 h 0.77 l 0.192,-0.192 h 0.962 v -0.193 h 0.77 l 0.192,-0.192 h 0.77 l 0.192,-0.193 h 0.769 l 0.193,-0.192 h 0.769 l 0.193,-0.192 h 0.962 v -0.193 h 0.769 l 0.193,-0.192 h 0.769 l 0.193,-0.192 h 0.769 l 0.192,-0.193 h 0.77 l 0.192,-0.192 h 0.77 l 0.192,-0.193 h 0.962 l 0.192,-0.192 h 0.77 v -0.192 h 0.192"
       style="fill:none;stroke:#000000;stroke-width:0.24;stroke-linecap:round;stroke-linejoin:round;stroke-miterlimit:10;stroke-dasharray:2.4, 3.6;stroke-dashoffset:0;stroke-opacity:1"
       id="path168" />
    <path
       d="m 444.231,641.675 h 0.578 l 0.192,-0.193 h 0.962 v -0.192 h 0.962 l 0.192,-0.192 h 0.77 l 0.192,-0.193 h 0.77 l 0.192,-0.192 h 0.77 l 0.192,-0.193 h 0.769 l 0.193,-0.192 h 0.962 v -0.192 h 0.962 v -0.193 h 0.769 l 0.193,-0.192 h 0.962 v -0.193 h 0.961 l 0.193,-0.192 h 0.769 v -0.192 h 0.962 l 0.193,-0.193 h 0.769 l 0.193,-0.192 h 0.769 l 0.192,-0.192 h 0.962 v -0.193 h 0.77 l 0.192,-0.192 h 0.962 v -0.193 h 0.962 v -0.192 h 0.962 l 0.192,-0.192 h 0.77 l 0.192,-0.193 h 0.77 l 0.192,-0.192 h 0.77 l 0.192,-0.193 h 0.77 l 0.192,-0.192 h 0.962 v -0.192 h 0.577 m -155.637,-16.16 v 0.577 h 0.385 v -0.193 h 0.962 l 0.192,-0.192 h 0.769 v -0.192 h 0.962 l 0.193,-0.193 h 0.962 v -0.192 h 0.769 l 0.193,-0.193 h 0.961 v -0.192 h 0.77 l 0.192,-0.192 h 0.962 l 0.193,-0.193 h 0.769 l 0.193,-0.192 h 0.961 v -0.192 h 0.77 l 0.192,-0.193 h 0.962 v -0.192 h 0.962 v -0.193 h 0.962 l 0.193,-0.192 h 0.769 l 0.192,-0.192 h 0.77 l 0.192,-0.193 h 0.77 l 0.192,-0.192 h 0.77 l 0.192,-0.192 h 0.962 v -0.193 h 0.962 l 0.192,-0.192 h 0.77 v -0.193 h 0.962 l 0.192,-0.192 h 0.77 v -0.192 h 0.962 l 0.192,-0.193 h 0.962 v -0.192 h 0.769 l 0.193,-0.193 h 0.962 v -0.192 h 0.769 l 0.193,-0.192 h 0.962 l 0.192,-0.193 h 0.769 l 0.193,-0.192 h 0.577 l 0.192,72.72 0.193,-2.693 v -2.309 l 0.192,-1.923 0.193,-1.54 v -1.539 l 0.192,-1.346 0.192,-1.155 v -0.961 l 0.193,-0.962 0.192,-0.77 v -0.769 l 0.192,-0.77 0.193,-0.577 v -0.577 l 0.385,-1.154 v -0.578 l 0.384,-0.769 v -0.577 l 0.578,-1.155 v -0.192 l 0.384,-0.77 v -0.384 l 0.193,-0.193 0.192,-0.384 v -0.193 l 0.192,-0.385 0.193,-0.192 v -0.192 l 0.192,-0.385 0.193,-0.192 v -0.193 l 0.384,-0.385 v -0.384 l 0.193,-0.193 0.192,-0.192 v -0.192 l 0.192,-0.193 0.193,-0.192 v -0.193 l 0.385,-0.384 v -0.193 h 0.192 l 0.192,-0.192 v -0.193 l 0.385,-0.384 v -0.193 h 0.193 l 0.192,-0.192 v -0.193 l 0.385,-0.384"
       style="fill:none;stroke:#000000;stroke-width:0.24;stroke-linecap:round;stroke-linejoin:round;stroke-miterlimit:10;stroke-dasharray:2.4, 3.6;stroke-dashoffset:0;stroke-opacity:1"
       id="path170" />
    <path
       d="m 353.235,657.835 0.192,-0.193 0.192,-0.192 h 0.193 v -0.192 l 0.577,-0.578 h 0.192 v -0.192 l 0.193,-0.192 h 0.192 v -0.193 h 0.193 l 0.192,-0.192 v -0.192 h 0.192 l 0.193,-0.193 0.192,-0.192 h 0.192 v -0.193 h 0.193 l 0.385,-0.384 0.192,-0.193 h 0.192 l 0.385,-0.385 h 0.192 v -0.192 h 0.193 l 0.385,-0.385 h 0.192 v -0.192 h 0.385 v -0.192 h 0.192 l 0.192,-0.193 h 0.193 v -0.192 h 0.385 v -0.193 h 0.192 l 0.192,-0.192 h 0.193 l 0.192,-0.192 h 0.193 l 0.384,-0.385 h 0.193 l 0.192,-0.192 h 0.192 l 0.193,-0.193 h 0.192 l 0.193,-0.192 h 0.192 l 0.192,-0.193 h 0.193 l 0.192,-0.192 h 0.192 l 0.193,-0.192 h 0.192 l 0.193,-0.193 h 0.192 l 0.192,-0.192 h 0.385 l 0.193,-0.193 h 0.192 l 0.192,-0.192 h 0.193 l 0.192,-0.192 h 0.385 l 0.192,-0.193 h 0.193 l 0.192,-0.192 h 0.385 v -0.192 h 0.385 l 0.192,-0.193 h 0.385 l 0.192,-0.192 h 0.385 V 648.6 h 0.385 l 0.192,-0.192 h 0.385 l 0.192,-0.192 h 0.385 l 0.192,-0.193 h 0.385 v -0.192 h 0.385 l 0.192,-0.193 h 0.577 v -0.192 h 0.385 l 0.192,-0.192 h 0.578 v -0.193 h 0.577 l 0.192,-0.192 h 0.385 v -0.192 h 0.577 l 0.192,-0.193 h 0.578 v -0.192 h 0.577 l 0.192,-0.193 h 0.385 l 0.192,35.014 0.193,-2.309 v -1.924 l 0.192,-1.731 0.192,-1.347 v -1.154 l 0.385,-1.924 v -0.769 l 0.193,-0.77 0.192,-0.577 v -0.577 l 0.192,-0.577 0.193,-0.385 v -0.385 l 0.192,-0.577 0.192,-0.385 v -0.384 l 0.193,-0.193 0.192,-0.385 v -0.384 l 0.385,-0.385 v -0.385 l 0.385,-0.385 v -0.384 l 0.192,-0.193 0.385,-0.384 v -0.193 l 0.192,-0.192 0.193,-0.193 v -0.192 l 0.384,-0.385 0.385,-0.384 v -0.193 h 0.193 l 0.192,-0.192 v -0.193 l 0.192,-0.192 h 0.193 v -0.192 l 0.192,-0.193 h 0.193 v -0.192 l 0.192,-0.193 h 0.192 v -0.192 h 0.193 l 0.192,-0.192 0.192,-0.193 0.193,-0.192 0.192,-0.193 h 0.193 v -0.192 h 0.192 l 0.192,-0.192 h 0.193 l 0.192,-0.193 h 0.193 v -0.192 h 0.192 l 0.385,-0.385 h 0.192 l 0.192,-0.192 h 0.193 v -0.193 h 0.385 v -0.192 h 0.192 l 0.192,-0.192 h 0.193 l 0.192,-0.193 h 0.192 l 0.193,-0.192 h 0.192 l 0.193,-0.192 h 0.192 l 0.192,-0.193 h 0.193 l 0.192,-0.192 h 0.192 l 0.193,-0.193 h 0.192 l 0.193,-0.192 h 0.192 l 0.192,-0.192 h 0.385 l 0.193,-0.193 h 0.192 l 0.192,-0.192 h 0.385 v -0.193 h 0.385 l 0.192,47.519"
       style="fill:none;stroke:#000000;stroke-width:0.24;stroke-linecap:round;stroke-linejoin:round;stroke-miterlimit:10;stroke-dasharray:2.4, 3.6;stroke-dashoffset:0;stroke-opacity:1"
       id="path172" />
    <path
       d="m 392.288,701.698 0.193,-2.501 v -2.116 l 0.192,-1.732 0.192,-1.539 v -1.347 l 0.385,-2.308 v -0.962 l 0.385,-1.539 v -0.577 l 0.385,-1.155 v -0.577 l 0.192,-0.577 0.192,-0.385 v -0.384 l 0.193,-0.577 0.192,-0.385 v -0.385 l 0.193,-0.192 0.192,-0.385 v -0.385 l 0.192,-0.192 0.193,-0.385 0.192,-0.192 v -0.385 l 0.192,-0.193 0.193,-0.192 v -0.385 l 0.192,-0.192 0.193,-0.193 v -0.192 l 0.384,-0.385 v -0.192 l 0.193,-0.192 0.192,-0.193 v -0.192 l 0.385,-0.385 v -0.192 l 0.192,-0.193 0.193,-0.192 v -0.193 l 0.192,-0.192 h 0.192 v -0.192 l 0.193,-0.193 0.577,-0.577 v -0.192 h 0.192 l 0.193,-0.193 v -0.192 h 0.192 l 0.193,-0.192 0.384,-0.385 h 0.193 v -0.192 h 0.192 l 0.192,-0.193 v -0.192 h 0.193 l 0.192,-0.193 0.193,-0.192 h 0.192 v -0.192 h 0.192 l 0.193,-0.193 0.192,-0.192 h 0.193 v -0.193 h 0.192 l 0.192,-0.192 0.193,-0.192 h 0.192 l 0.192,-0.193 h 0.193 v -0.192 h 0.192 l 0.193,-0.192 h 0.192 l 0.192,-0.193 0.193,-0.192 h 0.192 l 0.192,-0.192 h 0.193 v -0.193 h 0.385 v -0.192 h 0.384 v -0.193 h 0.193 l 0.192,-0.192 h 0.193 l 0.192,-0.193 h 0.192 l 0.193,-0.192 h 0.192 l 0.192,-0.192 h 0.193 l 0.192,-0.193 h 0.385 l 0.192,-0.192 h 0.193 l 0.192,-0.192 h 0.192 l 0.193,-0.193 h 0.192 l 0.193,-0.192 h 0.384 v -0.192 h 0.385 l 0.193,-0.193 h 0.192 l 0.192,-0.192 h 0.385 l 0.192,-0.193 h 0.385 l 0.193,-0.192 h 0.384 v -0.192 h 0.385 l 0.193,-0.193 h 0.192 l 0.192,-0.192 h 0.577 v -0.193 h 0.385 l 0.193,-0.192 h 0.384 l 0.193,-0.192 h 0.384 l 0.193,-0.193 h 0.385 l 0.192,-0.192 h 0.577 v -0.193 h 0.577 l 0.193,-0.192 h 0.384 v -0.192 h 0.193"
       style="fill:none;stroke:#000000;stroke-width:0.24;stroke-linecap:round;stroke-linejoin:round;stroke-miterlimit:10;stroke-dasharray:2.4, 3.6;stroke-dashoffset:0;stroke-opacity:1"
       id="path174" />
    <path
       d="m 418.26,665.915 h 0.385 l 0.192,-0.193 h 0.385 l 0.192,-0.192 h 0.577 v -0.192 h 0.577 l 0.193,-0.193 h 0.577 l 0.192,-0.192 h 0.578 v -0.193 h 0.577 l 0.192,-0.192 h 0.577 l 0.193,-0.192 h 0.577 l 0.192,-0.193 h 0.385 l 0.192,-0.192 h 0.577 l 0.193,-0.192 h 0.769 v -0.193 h 0.77 v -0.192 h 0.769 v -0.193 h 0.77 v -0.192 h 0.769 v -0.192 h 0.77 l 0.192,-0.193 h 0.577 l 0.193,-0.192 h 0.577 l 0.192,-0.192 h 0.77 l 0.192,-0.193 h 0.577 l 0.193,-0.192 h 0.769 l 0.193,-0.193 h 0.769 v -0.192 h 0.77 l 0.192,-0.192 h 0.77 v -0.193 h 0.769 l 0.193,-0.192 h 0.769 l 0.193,-0.192 h 0.769 v -0.193 h 0.77 l 0.192,-0.192 h 0.769 l 0.193,-0.193 h 0.769 l 0.193,-0.192 h 0.769 v -0.192 h 0.77 l 0.192,-0.193 h 0.962 v -0.192 h 0.77 l 0.192,-0.193 h 0.77 l 0.192,-0.192 h 0.769 l 0.193,-0.192 h 0.769 l 0.193,-0.193 h 0.769 l 0.193,-0.192 h 0.769 v -0.193 h 0.77 l 0.192,-0.192 h 0.962 l 0.192,-0.192 h 0.77 v -0.193 h 0.77 l 0.192,-0.192 h 0.962 v -0.192 h 0.769 l 0.193,-0.193 h 0.962 v -0.192 h 0.962 l 0.192,-0.193 h 0.769 l 0.193,-0.192 h 0.769 v -0.192 h 0.962 l 0.193,-0.193 h 0.769 v -0.192 h 0.962 l 0.192,-0.192 h 0.77 l 0.192,-0.193 h 0.77 l 0.192,-0.192 h 0.962 v -0.193 h 0.77 l 0.192,-0.192 h 0.962 l 0.192,-0.192 h 0.77 v -0.193 h 0.577"
       style="fill:none;stroke:#000000;stroke-width:0.24;stroke-linecap:round;stroke-linejoin:round;stroke-miterlimit:10;stroke-dasharray:2.4, 3.6;stroke-dashoffset:0;stroke-opacity:1"
       id="path176" />
    <path
       d="m 314.566,620.513 v 0.577 h 0.385 v -0.193 h 0.962 l 0.192,-0.192 h 0.769 v -0.192 h 0.962 l 0.193,-0.193 h 0.962 v -0.192 h 0.769 l 0.193,-0.193 h 0.961 v -0.192 h 0.77 l 0.192,-0.192 h 0.962 l 0.193,-0.193 h 0.769 l 0.193,-0.192 h 0.961 v -0.192 h 0.77 l 0.192,-0.193 h 0.962 v -0.192 h 0.962 v -0.193 h 0.962 l 0.193,-0.192 h 0.769 l 0.192,-0.192 h 0.77 l 0.192,-0.193 h 0.77 l 0.192,-0.192 h 0.77 l 0.192,-0.192 h 0.962 v -0.193 h 0.962 l 0.192,-0.192 h 0.77 v -0.193 h 0.962 l 0.192,-0.192 h 0.77 v -0.192 h 0.962 l 0.192,-0.193 h 0.962 v -0.192 h 0.769 l 0.193,-0.193 h 0.962 v -0.192 h 0.769 l 0.193,-0.192 h 0.962 l 0.192,-0.193 h 0.769 l 0.193,-0.192 h 0.577 l 0.192,72.72 0.193,-2.693 v -2.309 l 0.192,-1.923 0.193,-1.54 v -1.539 l 0.192,-1.346 0.192,-1.155 v -0.961 l 0.193,-0.962 0.192,-0.77 v -0.769 l 0.192,-0.77 0.193,-0.577 v -0.577 l 0.385,-1.154 v -0.578 l 0.384,-0.769 v -0.577 l 0.578,-1.155 v -0.192 l 0.384,-0.77 v -0.384 l 0.193,-0.193 0.192,-0.384 v -0.193 l 0.192,-0.385 0.193,-0.192 v -0.192 l 0.192,-0.385 0.193,-0.192 v -0.193 l 0.384,-0.385 v -0.384 l 0.193,-0.193 0.192,-0.192 v -0.192 l 0.192,-0.193 0.193,-0.192 v -0.193 l 0.385,-0.384 v -0.193 h 0.192 l 0.192,-0.192 v -0.193 l 0.385,-0.384 v -0.193 h 0.193 l 0.192,-0.192 v -0.193 l 0.385,-0.384 0.192,-0.193 0.192,-0.192 h 0.193 v -0.192 l 0.577,-0.578 h 0.192 v -0.192 l 0.193,-0.192 h 0.192 v -0.193 h 0.193 l 0.192,-0.192 v -0.192 h 0.192 l 0.193,-0.193 0.192,-0.192 h 0.192 v -0.193 h 0.193 l 0.385,-0.384 0.192,-0.193 h 0.192 l 0.385,-0.385 h 0.192 v -0.192 h 0.193 l 0.385,-0.385 h 0.192 v -0.192 h 0.385 v -0.192 h 0.192 l 0.192,-0.193 h 0.193 v -0.192 h 0.385 v -0.193 h 0.192 l 0.192,-0.192 h 0.193 l 0.192,-0.192 h 0.193 l 0.384,-0.385 h 0.193 l 0.192,-0.192 h 0.192 l 0.193,-0.193 h 0.192 l 0.193,-0.192 h 0.192 l 0.192,-0.193 h 0.193 l 0.192,-0.192 h 0.192 l 0.193,-0.192 h 0.192 l 0.193,-0.193 h 0.192 l 0.192,-0.192 h 0.385 l 0.193,-0.193 h 0.192 l 0.192,-0.192 h 0.193 l 0.192,-0.192 h 0.385 l 0.192,-0.193 h 0.193"
       style="fill:none;stroke:#000000;stroke-width:0.24;stroke-linecap:round;stroke-linejoin:round;stroke-miterlimit:10;stroke-dasharray:none;stroke-opacity:1"
       id="path178" />
    <path
       d="m 366.317,649.562 0.192,-0.192 h 0.385 v -0.192 h 0.385 l 0.192,-0.193 h 0.385 l 0.192,-0.192 h 0.385 V 648.6 h 0.385 l 0.192,-0.192 h 0.385 l 0.192,-0.192 h 0.385 l 0.192,-0.193 h 0.385 v -0.192 h 0.385 l 0.192,-0.193 h 0.577 v -0.192 h 0.385 l 0.192,-0.192 h 0.578 v -0.193 h 0.577 l 0.192,-0.192 h 0.385 v -0.192 h 0.577 l 0.192,-0.193 h 0.578 v -0.192 h 0.577 l 0.192,-0.193 h 0.385 l 0.192,35.014 0.193,-2.309 v -1.924 l 0.192,-1.731 0.192,-1.347 v -1.154 l 0.385,-1.924 v -0.769 l 0.193,-0.77 0.192,-0.577 v -0.577 l 0.192,-0.577 0.193,-0.385 v -0.385 l 0.192,-0.577 0.192,-0.385 v -0.384 l 0.193,-0.193 0.192,-0.385 v -0.384 l 0.385,-0.385 v -0.385 l 0.385,-0.385 v -0.384 l 0.192,-0.193 0.385,-0.384 v -0.193 l 0.192,-0.192 0.193,-0.193 v -0.192 l 0.384,-0.385 0.385,-0.384 v -0.193 h 0.193 l 0.192,-0.192 v -0.193 l 0.192,-0.192 h 0.193 v -0.192 l 0.192,-0.193 h 0.193 v -0.192 l 0.192,-0.193 h 0.192 v -0.192 h 0.193 l 0.192,-0.192 0.192,-0.193 0.193,-0.192 0.192,-0.193 h 0.193 v -0.192 h 0.192 l 0.192,-0.192 h 0.193 l 0.192,-0.193 h 0.193 v -0.192 h 0.192 l 0.385,-0.385 h 0.192 l 0.192,-0.192 h 0.193 v -0.193 h 0.385 v -0.192 h 0.192 l 0.192,-0.192 h 0.193 l 0.192,-0.193 h 0.192 l 0.193,-0.192 h 0.192 l 0.193,-0.192 h 0.192 l 0.192,-0.193 h 0.193 l 0.192,-0.192 h 0.192 l 0.193,-0.193 h 0.192 l 0.193,-0.192 h 0.192 l 0.192,-0.192 h 0.385 l 0.193,-0.193 h 0.192 l 0.192,-0.192 h 0.385 v -0.193 h 0.385 l 0.192,47.519"
       style="fill:none;stroke:#000000;stroke-width:0.24;stroke-linecap:round;stroke-linejoin:round;stroke-miterlimit:10;stroke-dasharray:none;stroke-opacity:1"
       id="path180" />
    <path
       d="m 392.288,701.698 0.193,-2.501 v -2.116 l 0.192,-1.732 0.192,-1.539 v -1.347 l 0.385,-2.308 v -0.962 l 0.385,-1.539 v -0.577 l 0.385,-1.155 v -0.577 l 0.192,-0.577 0.192,-0.385 v -0.384 l 0.193,-0.577 0.192,-0.385 v -0.385 l 0.193,-0.192 0.192,-0.385 v -0.385 l 0.192,-0.192 0.193,-0.385 0.192,-0.192 v -0.385 l 0.192,-0.193 0.193,-0.192 v -0.385 l 0.192,-0.192 0.193,-0.193 v -0.192 l 0.384,-0.385 v -0.192 l 0.193,-0.192 0.192,-0.193 v -0.192 l 0.385,-0.385 v -0.192 l 0.192,-0.193 0.193,-0.192 v -0.193 l 0.192,-0.192 h 0.192 v -0.192 l 0.193,-0.193 0.577,-0.577 v -0.192 h 0.192 l 0.193,-0.193 v -0.192 h 0.192 l 0.193,-0.192 0.384,-0.385 h 0.193 v -0.192 h 0.192 l 0.192,-0.193 v -0.192 h 0.193 l 0.192,-0.193 0.193,-0.192 h 0.192 v -0.192 h 0.192 l 0.193,-0.193 0.192,-0.192 h 0.193 v -0.193 h 0.192 l 0.192,-0.192 0.193,-0.192 h 0.192 l 0.192,-0.193 h 0.193 v -0.192 h 0.192 l 0.193,-0.192 h 0.192 l 0.192,-0.193 0.193,-0.192 h 0.192 l 0.192,-0.192 h 0.193 v -0.193 h 0.385 v -0.192 h 0.384 v -0.193 h 0.193 l 0.192,-0.192 h 0.193 l 0.192,-0.193 h 0.192 l 0.193,-0.192 h 0.192 l 0.192,-0.192 h 0.193 l 0.192,-0.193 h 0.385 l 0.192,-0.192 h 0.193 l 0.192,-0.192 h 0.192 l 0.193,-0.193 h 0.192 l 0.193,-0.192 h 0.384 v -0.192 h 0.385 l 0.193,-0.193 h 0.192 l 0.192,-0.192 h 0.385 l 0.192,-0.193 h 0.385 l 0.193,-0.192 h 0.384 v -0.192 h 0.385 l 0.193,-0.193 h 0.192 l 0.192,-0.192 h 0.577 v -0.193 h 0.385 l 0.193,-0.192 h 0.384 l 0.193,-0.192 h 0.384 l 0.193,-0.193 h 0.385 l 0.192,-0.192 h 0.577 v -0.193 h 0.577 l 0.193,-0.192 h 0.384 v -0.192 h 0.193"
       style="fill:none;stroke:#000000;stroke-width:0.24;stroke-linecap:round;stroke-linejoin:round;stroke-miterlimit:10;stroke-dasharray:none;stroke-opacity:1"
       id="path182" />
    <path
       d="m 418.26,665.915 h 0.385 l 0.192,-0.193 h 0.385 l 0.192,-0.192 h 0.577 v -0.192 h 0.577 l 0.193,-0.193 h 0.577 l 0.192,-0.192 h 0.578 v -0.193 h 0.577 l 0.192,-0.192 h 0.577 l 0.193,-0.192 h 0.577 l 0.192,-0.193 h 0.385 l 0.192,-0.192 h 0.577 l 0.193,-0.192 h 0.769 v -0.193 h 0.77 v -0.192 h 0.769 v -0.193 h 0.77 v -0.192 h 0.769 v -0.192 h 0.77 l 0.192,-0.193 h 0.577 l 0.193,-0.192 h 0.577 l 0.192,-0.192 h 0.77 l 0.192,-0.193 h 0.577 l 0.193,-0.192 h 0.769 l 0.193,-0.193 h 0.769 v -0.192 h 0.77 l 0.192,-0.192 h 0.77 v -0.193 h 0.769 l 0.193,-0.192 h 0.769 l 0.193,-0.192 h 0.769 v -0.193 h 0.77 l 0.192,-0.192 h 0.769 l 0.193,-0.193 h 0.769 l 0.193,-0.192 h 0.769 v -0.192 h 0.77 l 0.192,-0.193 h 0.962 v -0.192 h 0.77 l 0.192,-0.193 h 0.77 l 0.192,-0.192 h 0.769 l 0.193,-0.192 h 0.769 l 0.193,-0.193 h 0.769 l 0.193,-0.192 h 0.769 v -0.193 h 0.77 l 0.192,-0.192 h 0.962 l 0.192,-0.192 h 0.77 v -0.193 h 0.77 l 0.192,-0.192 h 0.962 v -0.192 h 0.769 l 0.193,-0.193 h 0.962 v -0.192 h 0.962 l 0.192,-0.193 h 0.769 l 0.193,-0.192 h 0.769 v -0.192 h 0.962 l 0.193,-0.193 h 0.769 v -0.192 h 0.962 l 0.192,-0.192 h 0.77 l 0.192,-0.193 h 0.77 l 0.192,-0.192 h 0.962 v -0.193 h 0.77 l 0.192,-0.192 h 0.962 l 0.192,-0.192 h 0.77 v -0.193 h 0.577 m -155.83,-72.335 h 155.83 m -155.83,0 v 127.356"
       style="fill:none;stroke:#000000;stroke-width:0.24;stroke-linecap:round;stroke-linejoin:round;stroke-miterlimit:10;stroke-dasharray:none;stroke-opacity:1"
       id="path184" />
    <text
       xml:space="preserve"
       transform="matrix(0,1,1,0,105.5564,566.0892)"
       style="font-variant:normal;font-weight:normal;font-size:8.0003px;font-family:Helvetica;-inkscape-font-specification:Helvetica;writing-mode:lr-tb;fill:#231f20;fill-opacity:1;fill-rule:nonzero;stroke:none"
       id="text188"><tspan
         x="0 5.7762165 8.0003004 13.3365 19.112717 24.888933 30.225134 36.00135 42.225582 47.561783 49.785866 52.009949 57.786167 60.01025 65.786469 71.562683 76.89888 79.122971 84.899185 87.123268 92.011452 97.347649 102.68385 107.57204 109.79612 115.13232 120.46852 126.24474 128.46881 133.80502 139.14122 144.91743 151.14166 156.91788"
         y="0"
         id="tspan186">DISCHARGE IN CUBIC FEET PER SECOND</tspan></text>
    <text
       xml:space="preserve"
       transform="matrix(1,0,0,-1,373.1298,558.4227)"
       style="font-variant:normal;font-weight:normal;font-size:8.0003px;font-family:Helvetica;-inkscape-font-specification:Helvetica;writing-mode:lr-tb;fill:#231f20;fill-opacity:1;fill-rule:nonzero;stroke:none"
       id="text232"><tspan
         x="0 4.8881831 7.1122665 13.776517 19.112717 21.3368 23.560883 29.337101 31.561184 37.017387 41.553558 46.889759 -183.75729 -178.86911 -176.64502 -169.98077 -164.64458 -162.42049 -160.19641 -154.4202 -152.19611 -146.7399 -142.20374 -136.86754"
         y="0"
         id="tspan190">TIME IN DAYSTIME IN DAYS</tspan><tspan
         x="-80.25341 -75.805244 -71.357079 -66.908913"
         y="-149.256"
         id="tspan192">1000</tspan><tspan
         x="-260.76819 -256.32001 -251.87184 -247.42368"
         y="-150.75604"
         id="tspan194">1000</tspan><tspan
         x="-257.43207 -252.98389 -248.53572"
         y="-107.25442"
         id="tspan196">100</tspan><tspan
         x="-76.917282 -72.469116 -68.02095"
         y="-106.50399"
         id="tspan198">100</tspan><tspan
         x="-254.09593 -249.64777"
         y="-65.252045"
         id="tspan200">10</tspan><tspan
         x="-73.581161 -69.132996"
         y="-64.502419"
         id="tspan202">10</tspan><tspan
         x="-246.75966 -65.24485"
         y="-22.500843"
         id="tspan204">11</tspan><tspan
         x="93.753113 98.201279 -89.253746 -84.80558 62.251934 66.700104 -119.25488 -114.8067 31.501181 35.949348 -151.50648 -147.05832 -0.00080003001 4.4473667 -183.00766 -178.55949 -31.501982 -27.053814 -214.50885 -210.06068 -61.752716 -247.01006"
         y="-14.250134"
         id="tspan206">5050404030302020101000</tspan><tspan
         x="-95.970802 -90.634598 -85.298401 -79.962196 -75.51403 -70.177834 -64.401611 -60.025452 -55.137268 -52.913185 -46.68895"
         y="21.000788"
         id="tspan208">EXPLANATION</tspan><tspan
         x="-105.59676 -100.70858 -98.93251 -92.268257"
         y="40.751926"
         id="tspan210">Time</tspan><tspan
         x="-105.59676 -102.93266 -98.484489 -94.276337 -90.276184 -86.276031"
         y="50.252285"
         id="tspan212">(days)</tspan><tspan
         x="-99.040512 -94.592346"
         y="66.003273"
         id="tspan214">10</tspan><tspan
         x="-99.040512 -94.592346"
         y="75.503632"
         id="tspan216">20</tspan><tspan
         x="-99.040512 -94.592346"
         y="85.00399"
         id="tspan218">25</tspan><tspan
         x="-70.304237 -68.080154 -63.631985 -59.631836 -57.407753 -52.959587 -48.511417 -46.287334 -41.839169 -37.391003 -32.942837 -28.494669 -24.046501"
         y="33.751667"
         id="tspan220">Instantaneous</tspan><tspan
         x="-63.002361 -57.226147 -52.777981 -48.777828 -44.329662 -39.881496 -37.217396 -32.76923"
         y="42.002377"
         id="tspan222">Recharge</tspan><tspan
         x="-60.080654 -57.416553 -55.640488 -51.192318 -47.192169 -42.744003 -38.295837 -34.295685"
         y="50.252285"
         id="tspan224">(inches)</tspan><tspan
         x="-54.042828 -49.594658 -47.370575 -42.922409"
         y="66.003273"
         id="tspan226">0.50</tspan><tspan
         x="-54.042828 -49.594658 -47.370575 -42.922409"
         y="75.503632"
         id="tspan228">0.30</tspan><tspan
         x="-54.042828 -49.594658 -47.370575 -42.922409"
         y="85.00399"
         id="tspan230">1.00</tspan></text>
    <path
       d="M 250.841,504.421 H 355.095"
       style="fill:#231f20;fill-opacity:1;fill-rule:nonzero;stroke:none"
       id="path234" />
    <text
       xml:space="preserve"
       transform="matrix(1,0,0,-1,207.3731,722.6791)"
       style="font-variant:normal;font-weight:normal;font-size:8.0003px;font-family:Helvetica;-inkscape-font-specification:Helvetica;writing-mode:lr-tb;fill:#231f20;fill-opacity:1;fill-rule:nonzero;stroke:none"
       id="text238"><tspan
         x="0 181.50681"
         y="0"
         id="tspan236">AB</tspan></text>
  </g>
</svg>
