<?xml version="1.0"?>
<svg height="600" version="1.1" width="1000" xmlns:xlink="http://www.w3.org/1999/xlink" xmlns="http://www.w3.org/2000/svg"><g><g stroke-dasharray="3.6 7.2" stroke-width="0.72" stroke="#caa"><line x1="115.38" x2="115.38" y1="600.00" y2="0.00" /><line x1="884.62" x2="884.62" y1="600.00" y2="0.00" /><line x1="0.00" x2="1000.00" y1="530.77" y2="530.77" /><line x1="0.00" x2="1000.00" y1="69.23" y2="69.23" /></g><g><circle cx="115.38" cy="530.77" fill="#2c24e9" r="12.0" stroke="#777" /><circle cx="192.31" cy="484.62" fill="#3566ad" r="12.0" stroke="#777" /><circle cx="269.23" cy="438.46" fill="#3f9855" r="12.0" stroke="#777" /><circle cx="346.15" cy="392.31" fill="#56be0c" r="12.0" stroke="#777" /><circle cx="423.08" cy="346.15" fill="#acdc13" r="12.0" stroke="#777" /><circle cx="500.00" cy="300.00" fill="#f1ee35" r="12.0" stroke="#777" /><circle cx="576.92" cy="253.85" fill="#fcbe90" r="12.0" stroke="#777" /><circle cx="653.85" cy="207.69" fill="#fa7bd6" r="12.0" stroke="#777" /><circle cx="730.77" cy="161.54" fill="#cb45fa" r="12.0" stroke="#777" /><circle cx="807.69" cy="115.38" fill="#7e31f9" r="12.0" stroke="#777" /><circle cx="884.62" cy="69.23" fill="#2c24e9" r="12.0" stroke="#777" /></g><g stroke="black"><line x1="115.38" x2="115.38" y1="530.77" y2="540.77" /><line x1="884.62" x2="884.62" y1="530.77" y2="540.77" /><g fill="black" font-family="Arial, sans-serif" font-size="18.0" stroke="none" text-anchor="start" transform="translate(9.0 0.0)"><text x="115.38" y="551.34">0</text><text x="884.62" y="551.34">1</text></g><line x1="0.00" x2="1000.00" y1="530.77" y2="530.77" /></g><g stroke="black"><line x1="115.38" x2="105.38" y1="530.77" y2="530.77" /><line x1="115.38" x2="105.38" y1="69.23" y2="69.23" /><g fill="black" font-family="Arial, sans-serif" font-size="18.0" stroke="none" text-anchor="end"><text x="106.38" y="521.77">0</text><text x="106.38" y="60.23">1</text></g><line x1="115.38" x2="115.38" y1="600.00" y2="0.00" /></g></g></svg>