<?xml version="1.0"?>
<svg height="360.0" version="1.1" viewBox="0 0 1080.0 360" width="1080.0" xmlns:xlink="http://www.w3.org/1999/xlink" xmlns="http://www.w3.org/2000/svg">
<g>
<g stroke-dasharray="7.2 14.4" stroke-width="1.44" stroke="#caa">
<line x1="10.80" x2="10.80" y1="356.40" y2="3.60" />
<line x1="117.53" x2="117.53" y1="356.40" y2="3.60" />
<line x1="224.26" x2="224.26" y1="356.40" y2="3.60" />
<line x1="330.99" x2="330.99" y1="356.40" y2="3.60" />
<line x1="437.72" x2="437.72" y1="356.40" y2="3.60" />
<line x1="544.45" x2="544.45" y1="356.40" y2="3.60" />
<line x1="651.18" x2="651.18" y1="356.40" y2="3.60" />
<line x1="757.91" x2="757.91" y1="356.40" y2="3.60" />
<line x1="864.64" x2="864.64" y1="356.40" y2="3.60" />
<line x1="971.36" x2="971.36" y1="356.40" y2="3.60" />
</g>
<g>
<text dominant-baseline="hanging" dx="-72.0" dy="72.0" fill="#0004" font-family="Arial, sans-serif" font-size="72" stroke-width="2.4" stroke="none" text-anchor="end" text="2 State Climate Index" x="1069.20" y="20.40">2 State Climate Index</text>
</g>
<g fill="none" stroke-width="4.5" stroke="#00aa88">
<line x1="10.80" x2="10.80" y1="356.40" y2="356.40" />
<line x1="19.69" x2="19.69" y1="356.40" y2="356.40" />
<line x1="28.59" x2="28.59" y1="356.40" y2="356.40" />
<line x1="37.48" x2="37.48" y1="336.51" y2="356.40" />
<line x1="46.38" x2="46.38" y1="310.12" y2="356.40" />
<line x1="55.27" x2="55.27" y1="268.69" y2="356.40" />
<line x1="64.16" x2="64.16" y1="213.39" y2="356.40" />
<line x1="73.06" x2="73.06" y1="280.62" y2="356.40" />
<line x1="81.95" x2="81.95" y1="256.35" y2="356.40" />
<line x1="90.85" x2="90.85" y1="356.40" y2="356.40" />
<line x1="99.74" x2="99.74" y1="356.40" y2="356.40" />
<line x1="108.64" x2="108.64" y1="356.40" y2="356.40" />
<line x1="117.53" x2="117.53" y1="356.40" y2="356.40" />
<line x1="126.42" x2="126.42" y1="356.40" y2="356.40" />
<line x1="135.32" x2="135.32" y1="356.40" y2="356.40" />
<line x1="144.21" x2="144.21" y1="356.40" y2="356.40" />
<line x1="153.11" x2="153.11" y1="257.84" y2="356.40" />
<line x1="162.00" x2="162.00" y1="230.27" y2="356.40" />
<line x1="170.89" x2="170.89" y1="242.78" y2="356.40" />
<line x1="179.79" x2="179.79" y1="253.06" y2="356.40" />
<line x1="188.68" x2="188.68" y1="240.08" y2="356.40" />
<line x1="197.58" x2="197.58" y1="356.40" y2="356.40" />
<line x1="206.47" x2="206.47" y1="356.40" y2="356.40" />
<line x1="215.36" x2="215.36" y1="356.40" y2="356.40" />
<line x1="224.26" x2="224.26" y1="356.40" y2="356.40" />
<line x1="233.15" x2="233.15" y1="356.40" y2="356.40" />
<line x1="242.05" x2="242.05" y1="356.40" y2="356.40" />
<line x1="250.94" x2="250.94" y1="356.40" y2="356.40" />
<line x1="259.84" x2="259.84" y1="289.86" y2="356.40" />
<line x1="268.73" x2="268.73" y1="199.03" y2="356.40" />
<line x1="277.62" x2="277.62" y1="179.62" y2="356.40" />
<line x1="286.52" x2="286.52" y1="289.01" y2="356.40" />
<line x1="295.41" x2="295.41" y1="247.40" y2="356.40" />
<line x1="304.31" x2="304.31" y1="356.40" y2="356.40" />
<line x1="313.20" x2="313.20" y1="356.40" y2="356.40" />
<line x1="322.09" x2="322.09" y1="356.40" y2="356.40" />
<line x1="330.99" x2="330.99" y1="356.40" y2="356.40" />
<line x1="339.88" x2="339.88" y1="356.40" y2="356.40" />
<line x1="348.78" x2="348.78" y1="356.40" y2="356.40" />
<line x1="357.67" x2="357.67" y1="356.40" y2="356.40" />
<line x1="366.56" x2="366.56" y1="356.40" y2="356.40" />
<line x1="375.46" x2="375.46" y1="253.53" y2="356.40" />
<line x1="384.35" x2="384.35" y1="216.63" y2="356.40" />
<line x1="393.25" x2="393.25" y1="275.34" y2="356.40" />
<line x1="402.14" x2="402.14" y1="275.42" y2="356.40" />
<line x1="411.04" x2="411.04" y1="356.40" y2="356.40" />
<line x1="419.93" x2="419.93" y1="356.40" y2="356.40" />
<line x1="428.82" x2="428.82" y1="356.40" y2="356.40" />
<line x1="437.72" x2="437.72" y1="356.40" y2="356.40" />
<line x1="446.61" x2="446.61" y1="356.40" y2="356.40" />
<line x1="455.51" x2="455.51" y1="356.40" y2="356.40" />
<line x1="464.40" x2="464.40" y1="356.40" y2="356.40" />
<line x1="473.29" x2="473.29" y1="303.23" y2="356.40" />
<line x1="482.19" x2="482.19" y1="223.79" y2="356.40" />
<line x1="491.08" x2="491.08" y1="286.20" y2="356.40" />
<line x1="499.98" x2="499.98" y1="235.53" y2="356.40" />
<line x1="508.87" x2="508.87" y1="253.69" y2="356.40" />
<line x1="517.76" x2="517.76" y1="356.40" y2="356.40" />
<line x1="526.66" x2="526.66" y1="356.40" y2="356.40" />
<line x1="535.55" x2="535.55" y1="356.40" y2="356.40" />
<line x1="544.45" x2="544.45" y1="356.40" y2="356.40" />
<line x1="553.34" x2="553.34" y1="356.40" y2="356.40" />
<line x1="562.24" x2="562.24" y1="351.42" y2="356.40" />
<line x1="571.13" x2="571.13" y1="356.40" y2="356.40" />
<line x1="580.02" x2="580.02" y1="234.01" y2="356.40" />
<line x1="588.92" x2="588.92" y1="259.35" y2="356.40" />
<line x1="597.81" x2="597.81" y1="264.21" y2="356.40" />
<line x1="606.71" x2="606.71" y1="269.94" y2="356.40" />
<line x1="615.60" x2="615.60" y1="198.19" y2="356.40" />
<line x1="624.49" x2="624.49" y1="266.51" y2="356.40" />
<line x1="633.39" x2="633.39" y1="356.40" y2="356.40" />
<line x1="642.28" x2="642.28" y1="356.40" y2="356.40" />
<line x1="651.18" x2="651.18" y1="356.40" y2="356.40" />
<line x1="660.07" x2="660.07" y1="356.40" y2="356.40" />
<line x1="668.96" x2="668.96" y1="356.40" y2="356.40" />
<line x1="677.86" x2="677.86" y1="356.40" y2="356.40" />
<line x1="686.75" x2="686.75" y1="248.34" y2="356.40" />
<line x1="695.65" x2="695.65" y1="279.27" y2="356.40" />
<line x1="704.54" x2="704.54" y1="220.18" y2="356.40" />
<line x1="713.44" x2="713.44" y1="279.18" y2="356.40" />
<line x1="722.33" x2="722.33" y1="277.14" y2="356.40" />
<line x1="731.22" x2="731.22" y1="308.76" y2="356.40" />
<line x1="740.12" x2="740.12" y1="356.40" y2="356.40" />
<line x1="749.01" x2="749.01" y1="356.40" y2="356.40" />
<line x1="757.91" x2="757.91" y1="356.40" y2="356.40" />
<line x1="766.80" x2="766.80" y1="356.40" y2="356.40" />
<line x1="775.69" x2="775.69" y1="356.40" y2="356.40" />
<line x1="784.59" x2="784.59" y1="356.40" y2="356.40" />
<line x1="793.48" x2="793.48" y1="356.40" y2="356.40" />
<line x1="802.38" x2="802.38" y1="237.27" y2="356.40" />
<line x1="811.27" x2="811.27" y1="208.82" y2="356.40" />
<line x1="820.16" x2="820.16" y1="213.57" y2="356.40" />
<line x1="829.06" x2="829.06" y1="249.90" y2="356.40" />
<line x1="837.95" x2="837.95" y1="356.40" y2="356.40" />
<line x1="846.85" x2="846.85" y1="356.40" y2="356.40" />
<line x1="855.74" x2="855.74" y1="356.40" y2="356.40" />
<line x1="864.64" x2="864.64" y1="356.40" y2="356.40" />
<line x1="873.53" x2="873.53" y1="356.40" y2="356.40" />
<line x1="882.42" x2="882.42" y1="356.40" y2="356.40" />
<line x1="891.32" x2="891.32" y1="356.40" y2="356.40" />
<line x1="900.21" x2="900.21" y1="315.33" y2="356.40" />
<line x1="909.11" x2="909.11" y1="250.70" y2="356.40" />
<line x1="918.00" x2="918.00" y1="302.97" y2="356.40" />
<line x1="926.89" x2="926.89" y1="195.13" y2="356.40" />
<line x1="935.79" x2="935.79" y1="286.93" y2="356.40" />
<line x1="944.68" x2="944.68" y1="356.40" y2="356.40" />
<line x1="953.58" x2="953.58" y1="356.40" y2="356.40" />
<line x1="962.47" x2="962.47" y1="356.40" y2="356.40" />
<line x1="971.36" x2="971.36" y1="349.70" y2="356.40" />
<line x1="980.26" x2="980.26" y1="356.40" y2="356.40" />
<line x1="989.15" x2="989.15" y1="356.40" y2="356.40" />
<line x1="998.05" x2="998.05" y1="356.40" y2="356.40" />
<line x1="1006.94" x2="1006.94" y1="356.40" y2="356.40" />
<line x1="1015.84" x2="1015.84" y1="283.92" y2="356.40" />
<line x1="1024.73" x2="1024.73" y1="356.40" y2="356.40" />
<line x1="1033.62" x2="1033.62" y1="294.73" y2="356.40" />
<line x1="1042.52" x2="1042.52" y1="279.19" y2="356.40" />
<line x1="1051.41" x2="1051.41" y1="286.28" y2="356.40" />
<line x1="1060.31" x2="1060.31" y1="356.40" y2="356.40" />
<line x1="1069.20" x2="1069.20" y1="356.40" y2="356.40" />
</g>
<g fill="none" stroke-width="4.5" stroke="#aa8800">
<line x1="10.80" x2="10.80" y1="313.59" y2="356.40" />
<line x1="19.69" x2="19.69" y1="346.07" y2="356.40" />
<line x1="28.59" x2="28.59" y1="160.57" y2="356.40" />
<line x1="37.48" x2="37.48" y1="356.40" y2="356.40" />
<line x1="46.38" x2="46.38" y1="356.40" y2="356.40" />
<line x1="55.27" x2="55.27" y1="356.40" y2="356.40" />
<line x1="64.16" x2="64.16" y1="356.40" y2="356.40" />
<line x1="73.06" x2="73.06" y1="356.40" y2="356.40" />
<line x1="81.95" x2="81.95" y1="356.40" y2="356.40" />
<line x1="90.85" x2="90.85" y1="277.38" y2="356.40" />
<line x1="99.74" x2="99.74" y1="261.33" y2="356.40" />
<line x1="108.64" x2="108.64" y1="289.94" y2="356.40" />
<line x1="117.53" x2="117.53" y1="267.62" y2="356.40" />
<line x1="126.42" x2="126.42" y1="307.86" y2="356.40" />
<line x1="135.32" x2="135.32" y1="301.31" y2="356.40" />
<line x1="144.21" x2="144.21" y1="298.16" y2="356.40" />
<line x1="153.11" x2="153.11" y1="356.40" y2="356.40" />
<line x1="162.00" x2="162.00" y1="356.40" y2="356.40" />
<line x1="170.89" x2="170.89" y1="356.40" y2="356.40" />
<line x1="179.79" x2="179.79" y1="356.40" y2="356.40" />
<line x1="188.68" x2="188.68" y1="356.40" y2="356.40" />
<line x1="197.58" x2="197.58" y1="293.38" y2="356.40" />
<line x1="206.47" x2="206.47" y1="240.18" y2="356.40" />
<line x1="215.36" x2="215.36" y1="264.03" y2="356.40" />
<line x1="224.26" x2="224.26" y1="331.69" y2="356.40" />
<line x1="233.15" x2="233.15" y1="300.00" y2="356.40" />
<line x1="242.05" x2="242.05" y1="342.72" y2="356.40" />
<line x1="250.94" x2="250.94" y1="288.41" y2="356.40" />
<line x1="259.84" x2="259.84" y1="356.40" y2="356.40" />
<line x1="268.73" x2="268.73" y1="356.40" y2="356.40" />
<line x1="277.62" x2="277.62" y1="356.40" y2="356.40" />
<line x1="286.52" x2="286.52" y1="356.40" y2="356.40" />
<line x1="295.41" x2="295.41" y1="356.40" y2="356.40" />
<line x1="304.31" x2="304.31" y1="296.46" y2="356.40" />
<line x1="313.20" x2="313.20" y1="215.39" y2="356.40" />
<line x1="322.09" x2="322.09" y1="317.88" y2="356.40" />
<line x1="330.99" x2="330.99" y1="344.68" y2="356.40" />
<line x1="339.88" x2="339.88" y1="351.82" y2="356.40" />
<line x1="348.78" x2="348.78" y1="328.92" y2="356.40" />
<line x1="357.67" x2="357.67" y1="309.26" y2="356.40" />
<line x1="366.56" x2="366.56" y1="305.17" y2="356.40" />
<line x1="375.46" x2="375.46" y1="356.40" y2="356.40" />
<line x1="384.35" x2="384.35" y1="356.40" y2="356.40" />
<line x1="393.25" x2="393.25" y1="356.40" y2="356.40" />
<line x1="402.14" x2="402.14" y1="356.40" y2="356.40" />
<line x1="411.04" x2="411.04" y1="262.59" y2="356.40" />
<line x1="419.93" x2="419.93" y1="265.79" y2="356.40" />
<line x1="428.82" x2="428.82" y1="254.53" y2="356.40" />
<line x1="437.72" x2="437.72" y1="339.76" y2="356.40" />
<line x1="446.61" x2="446.61" y1="348.62" y2="356.40" />
<line x1="455.51" x2="455.51" y1="349.74" y2="356.40" />
<line x1="464.40" x2="464.40" y1="291.35" y2="356.40" />
<line x1="473.29" x2="473.29" y1="356.40" y2="356.40" />
<line x1="482.19" x2="482.19" y1="356.40" y2="356.40" />
<line x1="491.08" x2="491.08" y1="356.40" y2="356.40" />
<line x1="499.98" x2="499.98" y1="356.40" y2="356.40" />
<line x1="508.87" x2="508.87" y1="356.40" y2="356.40" />
<line x1="517.76" x2="517.76" y1="294.95" y2="356.40" />
<line x1="526.66" x2="526.66" y1="211.12" y2="356.40" />
<line x1="535.55" x2="535.55" y1="305.57" y2="356.40" />
<line x1="544.45" x2="544.45" y1="327.49" y2="356.40" />
<line x1="553.34" x2="553.34" y1="340.01" y2="356.40" />
<line x1="562.24" x2="562.24" y1="356.40" y2="356.40" />
<line x1="571.13" x2="571.13" y1="339.47" y2="356.40" />
<line x1="580.02" x2="580.02" y1="356.40" y2="356.40" />
<line x1="588.92" x2="588.92" y1="356.40" y2="356.40" />
<line x1="597.81" x2="597.81" y1="356.40" y2="356.40" />
<line x1="606.71" x2="606.71" y1="356.40" y2="356.40" />
<line x1="615.60" x2="615.60" y1="356.40" y2="356.40" />
<line x1="624.49" x2="624.49" y1="356.40" y2="356.40" />
<line x1="633.39" x2="633.39" y1="297.74" y2="356.40" />
<line x1="642.28" x2="642.28" y1="123.45" y2="356.40" />
<line x1="651.18" x2="651.18" y1="186.78" y2="356.40" />
<line x1="660.07" x2="660.07" y1="338.25" y2="356.40" />
<line x1="668.96" x2="668.96" y1="308.33" y2="356.40" />
<line x1="677.86" x2="677.86" y1="274.35" y2="356.40" />
<line x1="686.75" x2="686.75" y1="356.40" y2="356.40" />
<line x1="695.65" x2="695.65" y1="356.40" y2="356.40" />
<line x1="704.54" x2="704.54" y1="356.40" y2="356.40" />
<line x1="713.44" x2="713.44" y1="356.40" y2="356.40" />
<line x1="722.33" x2="722.33" y1="356.40" y2="356.40" />
<line x1="731.22" x2="731.22" y1="356.40" y2="356.40" />
<line x1="740.12" x2="740.12" y1="106.86" y2="356.40" />
<line x1="749.01" x2="749.01" y1="280.18" y2="356.40" />
<line x1="757.91" x2="757.91" y1="302.49" y2="356.40" />
<line x1="766.80" x2="766.80" y1="341.97" y2="356.40" />
<line x1="775.69" x2="775.69" y1="343.12" y2="356.40" />
<line x1="784.59" x2="784.59" y1="305.25" y2="356.40" />
<line x1="793.48" x2="793.48" y1="305.03" y2="356.40" />
<line x1="802.38" x2="802.38" y1="356.40" y2="356.40" />
<line x1="811.27" x2="811.27" y1="356.40" y2="356.40" />
<line x1="820.16" x2="820.16" y1="356.40" y2="356.40" />
<line x1="829.06" x2="829.06" y1="356.40" y2="356.40" />
<line x1="837.95" x2="837.95" y1="257.71" y2="356.40" />
<line x1="846.85" x2="846.85" y1="250.74" y2="356.40" />
<line x1="855.74" x2="855.74" y1="237.57" y2="356.40" />
<line x1="864.64" x2="864.64" y1="303.85" y2="356.40" />
<line x1="873.53" x2="873.53" y1="351.63" y2="356.40" />
<line x1="882.42" x2="882.42" y1="332.57" y2="356.40" />
<line x1="891.32" x2="891.32" y1="325.01" y2="356.40" />
<line x1="900.21" x2="900.21" y1="356.40" y2="356.40" />
<line x1="909.11" x2="909.11" y1="356.40" y2="356.40" />
<line x1="918.00" x2="918.00" y1="356.40" y2="356.40" />
<line x1="926.89" x2="926.89" y1="356.40" y2="356.40" />
<line x1="935.79" x2="935.79" y1="356.40" y2="356.40" />
<line x1="944.68" x2="944.68" y1="258.58" y2="356.40" />
<line x1="953.58" x2="953.58" y1="304.24" y2="356.40" />
<line x1="962.47" x2="962.47" y1="333.91" y2="356.40" />
<line x1="971.36" x2="971.36" y1="356.40" y2="356.40" />
<line x1="980.26" x2="980.26" y1="342.61" y2="356.40" />
<line x1="989.15" x2="989.15" y1="345.83" y2="356.40" />
<line x1="998.05" x2="998.05" y1="265.97" y2="356.40" />
<line x1="1006.94" x2="1006.94" y1="313.14" y2="356.40" />
<line x1="1015.84" x2="1015.84" y1="356.40" y2="356.40" />
<line x1="1024.73" x2="1024.73" y1="312.34" y2="356.40" />
<line x1="1033.62" x2="1033.62" y1="356.40" y2="356.40" />
<line x1="1042.52" x2="1042.52" y1="356.40" y2="356.40" />
<line x1="1051.41" x2="1051.41" y1="356.40" y2="356.40" />
<line x1="1060.31" x2="1060.31" y1="257.90" y2="356.40" />
<line x1="1069.20" x2="1069.20" y1="243.35" y2="356.40" />
</g>
<g fill="none" stroke-width="4.5" stroke="#aa8800">
<line x1="10.80" x2="10.80" y1="313.59" y2="356.40" />
<line x1="19.69" x2="19.69" y1="346.07" y2="356.40" />
<line x1="28.59" x2="28.59" y1="160.57" y2="356.40" />
<line x1="37.48" x2="37.48" y1="356.40" y2="356.40" />
<line x1="46.38" x2="46.38" y1="356.40" y2="356.40" />
<line x1="55.27" x2="55.27" y1="356.40" y2="356.40" />
<line x1="64.16" x2="64.16" y1="356.40" y2="356.40" />
<line x1="73.06" x2="73.06" y1="356.40" y2="356.40" />
<line x1="81.95" x2="81.95" y1="356.40" y2="356.40" />
<line x1="90.85" x2="90.85" y1="277.38" y2="356.40" />
<line x1="99.74" x2="99.74" y1="261.33" y2="356.40" />
<line x1="108.64" x2="108.64" y1="289.94" y2="356.40" />
<line x1="117.53" x2="117.53" y1="267.62" y2="356.40" />
<line x1="126.42" x2="126.42" y1="307.86" y2="356.40" />
<line x1="135.32" x2="135.32" y1="301.31" y2="356.40" />
<line x1="144.21" x2="144.21" y1="298.16" y2="356.40" />
<line x1="153.11" x2="153.11" y1="356.40" y2="356.40" />
<line x1="162.00" x2="162.00" y1="356.40" y2="356.40" />
<line x1="170.89" x2="170.89" y1="356.40" y2="356.40" />
<line x1="179.79" x2="179.79" y1="356.40" y2="356.40" />
<line x1="188.68" x2="188.68" y1="356.40" y2="356.40" />
<line x1="197.58" x2="197.58" y1="293.38" y2="356.40" />
<line x1="206.47" x2="206.47" y1="240.18" y2="356.40" />
<line x1="215.36" x2="215.36" y1="264.03" y2="356.40" />
<line x1="224.26" x2="224.26" y1="331.69" y2="356.40" />
<line x1="233.15" x2="233.15" y1="300.00" y2="356.40" />
<line x1="242.05" x2="242.05" y1="342.72" y2="356.40" />
<line x1="250.94" x2="250.94" y1="288.41" y2="356.40" />
<line x1="259.84" x2="259.84" y1="356.40" y2="356.40" />
<line x1="268.73" x2="268.73" y1="356.40" y2="356.40" />
<line x1="277.62" x2="277.62" y1="356.40" y2="356.40" />
<line x1="286.52" x2="286.52" y1="356.40" y2="356.40" />
<line x1="295.41" x2="295.41" y1="356.40" y2="356.40" />
<line x1="304.31" x2="304.31" y1="296.46" y2="356.40" />
<line x1="313.20" x2="313.20" y1="215.39" y2="356.40" />
<line x1="322.09" x2="322.09" y1="317.88" y2="356.40" />
<line x1="330.99" x2="330.99" y1="344.68" y2="356.40" />
<line x1="339.88" x2="339.88" y1="351.82" y2="356.40" />
<line x1="348.78" x2="348.78" y1="328.92" y2="356.40" />
<line x1="357.67" x2="357.67" y1="309.26" y2="356.40" />
<line x1="366.56" x2="366.56" y1="305.17" y2="356.40" />
<line x1="375.46" x2="375.46" y1="356.40" y2="356.40" />
<line x1="384.35" x2="384.35" y1="356.40" y2="356.40" />
<line x1="393.25" x2="393.25" y1="356.40" y2="356.40" />
<line x1="402.14" x2="402.14" y1="356.40" y2="356.40" />
<line x1="411.04" x2="411.04" y1="262.59" y2="356.40" />
<line x1="419.93" x2="419.93" y1="265.79" y2="356.40" />
<line x1="428.82" x2="428.82" y1="254.53" y2="356.40" />
<line x1="437.72" x2="437.72" y1="339.76" y2="356.40" />
<line x1="446.61" x2="446.61" y1="348.62" y2="356.40" />
<line x1="455.51" x2="455.51" y1="349.74" y2="356.40" />
<line x1="464.40" x2="464.40" y1="291.35" y2="356.40" />
<line x1="473.29" x2="473.29" y1="356.40" y2="356.40" />
<line x1="482.19" x2="482.19" y1="356.40" y2="356.40" />
<line x1="491.08" x2="491.08" y1="356.40" y2="356.40" />
<line x1="499.98" x2="499.98" y1="356.40" y2="356.40" />
<line x1="508.87" x2="508.87" y1="356.40" y2="356.40" />
<line x1="517.76" x2="517.76" y1="294.95" y2="356.40" />
<line x1="526.66" x2="526.66" y1="211.12" y2="356.40" />
<line x1="535.55" x2="535.55" y1="305.57" y2="356.40" />
<line x1="544.45" x2="544.45" y1="327.49" y2="356.40" />
<line x1="553.34" x2="553.34" y1="340.01" y2="356.40" />
<line x1="562.24" x2="562.24" y1="356.40" y2="356.40" />
<line x1="571.13" x2="571.13" y1="339.47" y2="356.40" />
<line x1="580.02" x2="580.02" y1="356.40" y2="356.40" />
<line x1="588.92" x2="588.92" y1="356.40" y2="356.40" />
<line x1="597.81" x2="597.81" y1="356.40" y2="356.40" />
<line x1="606.71" x2="606.71" y1="356.40" y2="356.40" />
<line x1="615.60" x2="615.60" y1="356.40" y2="356.40" />
<line x1="624.49" x2="624.49" y1="356.40" y2="356.40" />
<line x1="633.39" x2="633.39" y1="297.74" y2="356.40" />
<line x1="642.28" x2="642.28" y1="123.45" y2="356.40" />
<line x1="651.18" x2="651.18" y1="186.78" y2="356.40" />
<line x1="660.07" x2="660.07" y1="338.25" y2="356.40" />
<line x1="668.96" x2="668.96" y1="308.33" y2="356.40" />
<line x1="677.86" x2="677.86" y1="274.35" y2="356.40" />
<line x1="686.75" x2="686.75" y1="356.40" y2="356.40" />
<line x1="695.65" x2="695.65" y1="356.40" y2="356.40" />
<line x1="704.54" x2="704.54" y1="356.40" y2="356.40" />
<line x1="713.44" x2="713.44" y1="356.40" y2="356.40" />
<line x1="722.33" x2="722.33" y1="356.40" y2="356.40" />
<line x1="731.22" x2="731.22" y1="356.40" y2="356.40" />
<line x1="740.12" x2="740.12" y1="106.86" y2="356.40" />
<line x1="749.01" x2="749.01" y1="280.18" y2="356.40" />
<line x1="757.91" x2="757.91" y1="302.49" y2="356.40" />
<line x1="766.80" x2="766.80" y1="341.97" y2="356.40" />
<line x1="775.69" x2="775.69" y1="343.12" y2="356.40" />
<line x1="784.59" x2="784.59" y1="305.25" y2="356.40" />
<line x1="793.48" x2="793.48" y1="305.03" y2="356.40" />
<line x1="802.38" x2="802.38" y1="356.40" y2="356.40" />
<line x1="811.27" x2="811.27" y1="356.40" y2="356.40" />
<line x1="820.16" x2="820.16" y1="356.40" y2="356.40" />
<line x1="829.06" x2="829.06" y1="356.40" y2="356.40" />
<line x1="837.95" x2="837.95" y1="257.71" y2="356.40" />
<line x1="846.85" x2="846.85" y1="250.74" y2="356.40" />
<line x1="855.74" x2="855.74" y1="237.57" y2="356.40" />
<line x1="864.64" x2="864.64" y1="303.85" y2="356.40" />
<line x1="873.53" x2="873.53" y1="351.63" y2="356.40" />
<line x1="882.42" x2="882.42" y1="332.57" y2="356.40" />
<line x1="891.32" x2="891.32" y1="325.01" y2="356.40" />
<line x1="900.21" x2="900.21" y1="356.40" y2="356.40" />
<line x1="909.11" x2="909.11" y1="356.40" y2="356.40" />
<line x1="918.00" x2="918.00" y1="356.40" y2="356.40" />
<line x1="926.89" x2="926.89" y1="356.40" y2="356.40" />
<line x1="935.79" x2="935.79" y1="356.40" y2="356.40" />
<line x1="944.68" x2="944.68" y1="258.58" y2="356.40" />
<line x1="953.58" x2="953.58" y1="304.24" y2="356.40" />
<line x1="962.47" x2="962.47" y1="333.91" y2="356.40" />
<line x1="971.36" x2="971.36" y1="356.40" y2="356.40" />
<line x1="980.26" x2="980.26" y1="342.61" y2="356.40" />
<line x1="989.15" x2="989.15" y1="345.83" y2="356.40" />
<line x1="998.05" x2="998.05" y1="265.97" y2="356.40" />
<line x1="1006.94" x2="1006.94" y1="313.14" y2="356.40" />
<line x1="1015.84" x2="1015.84" y1="356.40" y2="356.40" />
<line x1="1024.73" x2="1024.73" y1="312.34" y2="356.40" />
<line x1="1033.62" x2="1033.62" y1="356.40" y2="356.40" />
<line x1="1042.52" x2="1042.52" y1="356.40" y2="356.40" />
<line x1="1051.41" x2="1051.41" y1="356.40" y2="356.40" />
<line x1="1060.31" x2="1060.31" y1="257.90" y2="356.40" />
<line x1="1069.20" x2="1069.20" y1="243.35" y2="356.40" />
</g>
<g stroke="#0008">
<line x1="10.80" x2="10.80" y1="356.40" y2="366.40" />
<line x1="117.53" x2="117.53" y1="356.40" y2="366.40" />
<line x1="224.26" x2="224.26" y1="356.40" y2="366.40" />
<line x1="330.99" x2="330.99" y1="356.40" y2="366.40" />
<line x1="437.72" x2="437.72" y1="356.40" y2="366.40" />
<line x1="544.45" x2="544.45" y1="356.40" y2="366.40" />
<line x1="651.18" x2="651.18" y1="356.40" y2="366.40" />
<line x1="757.91" x2="757.91" y1="356.40" y2="366.40" />
<line x1="864.64" x2="864.64" y1="356.40" y2="366.40" />
<line x1="971.36" x2="971.36" y1="356.40" y2="366.40" />
<g fill="black" font-family="Arial, sans-serif" font-size="36.0" stroke="none" text-anchor="start" transform="translate(18.0 0.0)">
<text x="10.80" y="397.54">2011</text>
<text x="117.53" y="397.54">2012</text>
<text x="224.26" y="397.54">2013</text>
<text x="330.99" y="397.54">2014</text>
<text x="437.72" y="397.54">2015</text>
<text x="544.45" y="397.54">2016</text>
<text x="651.18" y="397.54">2017</text>
<text x="757.91" y="397.54">2018</text>
<text x="864.64" y="397.54">2019</text>
<text x="971.36" y="397.54">2020</text>
</g>
<line x1="10.80" x2="1069.20" y1="356.40" y2="356.40" />
</g>
</g>
</svg>