<?xml version="1.0"?>
<svg version="1.1" viewBox="0 0 1080.0 360.0" xmlns:xlink="http://www.w3.org/1999/xlink" xmlns="http://www.w3.org/2000/svg">
<g>
<g stroke-dasharray="3.6 7.2" stroke-width="0.72" stroke="#caa">
<line x1="162.00" x2="162.00" y1="306.00" y2="54.00" />
<line x1="238.88" x2="238.88" y1="306.00" y2="54.00" />
<line x1="315.76" x2="315.76" y1="306.00" y2="54.00" />
<line x1="392.64" x2="392.64" y1="306.00" y2="54.00" />
<line x1="469.53" x2="469.53" y1="306.00" y2="54.00" />
<line x1="546.41" x2="546.41" y1="306.00" y2="54.00" />
<line x1="623.29" x2="623.29" y1="306.00" y2="54.00" />
<line x1="700.17" x2="700.17" y1="306.00" y2="54.00" />
<line x1="777.05" x2="777.05" y1="306.00" y2="54.00" />
<line x1="853.93" x2="853.93" y1="306.00" y2="54.00" />
</g>
<g fill="none" stroke-width="5" stroke="#aa8800">
<line x1="162.00" x2="162.00" y1="306.00" y2="306.00" />
<line x1="168.41" x2="168.41" y1="306.00" y2="306.00" />
<line x1="174.81" x2="174.81" y1="306.00" y2="306.00" />
<line x1="181.22" x2="181.22" y1="286.72" y2="306.00" />
<line x1="187.63" x2="187.63" y1="264.95" y2="306.00" />
<line x1="194.03" x2="194.03" y1="228.76" y2="306.00" />
<line x1="200.44" x2="200.44" y1="186.78" y2="306.00" />
<line x1="206.85" x2="206.85" y1="232.21" y2="306.00" />
<line x1="213.25" x2="213.25" y1="212.85" y2="306.00" />
<line x1="219.66" x2="219.66" y1="306.00" y2="306.00" />
<line x1="226.07" x2="226.07" y1="306.00" y2="306.00" />
<line x1="232.47" x2="232.47" y1="306.00" y2="306.00" />
<line x1="238.88" x2="238.88" y1="306.00" y2="306.00" />
<line x1="245.29" x2="245.29" y1="306.00" y2="306.00" />
<line x1="251.69" x2="251.69" y1="306.00" y2="306.00" />
<line x1="258.10" x2="258.10" y1="306.00" y2="306.00" />
<line x1="264.51" x2="264.51" y1="221.56" y2="306.00" />
<line x1="270.92" x2="270.92" y1="204.96" y2="306.00" />
<line x1="277.32" x2="277.32" y1="206.71" y2="306.00" />
<line x1="283.73" x2="283.73" y1="216.52" y2="306.00" />
<line x1="290.14" x2="290.14" y1="204.37" y2="306.00" />
<line x1="296.54" x2="296.54" y1="306.00" y2="306.00" />
<line x1="302.95" x2="302.95" y1="306.00" y2="306.00" />
<line x1="309.36" x2="309.36" y1="306.00" y2="306.00" />
<line x1="315.76" x2="315.76" y1="306.00" y2="306.00" />
<line x1="322.17" x2="322.17" y1="306.00" y2="306.00" />
<line x1="328.58" x2="328.58" y1="306.00" y2="306.00" />
<line x1="334.98" x2="334.98" y1="306.00" y2="306.00" />
<line x1="341.39" x2="341.39" y1="249.92" y2="306.00" />
<line x1="347.80" x2="347.80" y1="171.43" y2="306.00" />
<line x1="354.20" x2="354.20" y1="159.30" y2="306.00" />
<line x1="360.61" x2="360.61" y1="231.23" y2="306.00" />
<line x1="367.02" x2="367.02" y1="207.22" y2="306.00" />
<line x1="373.42" x2="373.42" y1="306.00" y2="306.00" />
<line x1="379.83" x2="379.83" y1="306.00" y2="306.00" />
<line x1="386.24" x2="386.24" y1="306.00" y2="306.00" />
<line x1="392.64" x2="392.64" y1="306.00" y2="306.00" />
<line x1="399.05" x2="399.05" y1="306.00" y2="306.00" />
<line x1="405.46" x2="405.46" y1="306.00" y2="306.00" />
<line x1="411.86" x2="411.86" y1="306.00" y2="306.00" />
<line x1="418.27" x2="418.27" y1="269.35" y2="306.00" />
<line x1="424.68" x2="424.68" y1="188.80" y2="306.00" />
<line x1="431.08" x2="431.08" y1="234.87" y2="306.00" />
<line x1="437.49" x2="437.49" y1="231.55" y2="306.00" />
<line x1="443.90" x2="443.90" y1="306.00" y2="306.00" />
<line x1="450.31" x2="450.31" y1="306.00" y2="306.00" />
<line x1="456.71" x2="456.71" y1="306.00" y2="306.00" />
<line x1="463.12" x2="463.12" y1="306.00" y2="306.00" />
<line x1="469.53" x2="469.53" y1="306.00" y2="306.00" />
<line x1="475.93" x2="475.93" y1="300.80" y2="306.00" />
<line x1="482.34" x2="482.34" y1="306.00" y2="306.00" />
<line x1="488.75" x2="488.75" y1="252.16" y2="306.00" />
<line x1="495.15" x2="495.15" y1="186.46" y2="306.00" />
<line x1="501.56" x2="501.56" y1="238.74" y2="306.00" />
<line x1="507.97" x2="507.97" y1="197.82" y2="306.00" />
<line x1="514.37" x2="514.37" y1="211.56" y2="306.00" />
<line x1="520.78" x2="520.78" y1="306.00" y2="306.00" />
<line x1="527.19" x2="527.19" y1="306.00" y2="306.00" />
<line x1="533.59" x2="533.59" y1="306.00" y2="306.00" />
<line x1="540.00" x2="540.00" y1="306.00" y2="306.00" />
<line x1="546.41" x2="546.41" y1="306.00" y2="306.00" />
<line x1="552.81" x2="552.81" y1="300.48" y2="306.00" />
<line x1="559.22" x2="559.22" y1="306.00" y2="306.00" />
<line x1="565.63" x2="565.63" y1="196.82" y2="306.00" />
<line x1="572.03" x2="572.03" y1="219.06" y2="306.00" />
<line x1="578.44" x2="578.44" y1="222.40" y2="306.00" />
<line x1="584.85" x2="584.85" y1="238.72" y2="306.00" />
<line x1="591.25" x2="591.25" y1="185.05" y2="306.00" />
<line x1="597.66" x2="597.66" y1="236.45" y2="306.00" />
<line x1="604.07" x2="604.07" y1="306.00" y2="306.00" />
<line x1="610.47" x2="610.47" y1="306.00" y2="306.00" />
<line x1="616.88" x2="616.88" y1="306.00" y2="306.00" />
<line x1="623.29" x2="623.29" y1="306.00" y2="306.00" />
<line x1="629.69" x2="629.69" y1="306.00" y2="306.00" />
<line x1="636.10" x2="636.10" y1="306.00" y2="306.00" />
<line x1="642.51" x2="642.51" y1="206.56" y2="306.00" />
<line x1="648.92" x2="648.92" y1="240.67" y2="306.00" />
<line x1="655.32" x2="655.32" y1="182.55" y2="306.00" />
<line x1="661.73" x2="661.73" y1="228.14" y2="306.00" />
<line x1="668.14" x2="668.14" y1="233.73" y2="306.00" />
<line x1="674.54" x2="674.54" y1="261.29" y2="306.00" />
<line x1="680.95" x2="680.95" y1="306.00" y2="306.00" />
<line x1="687.36" x2="687.36" y1="306.00" y2="306.00" />
<line x1="693.76" x2="693.76" y1="306.00" y2="306.00" />
<line x1="700.17" x2="700.17" y1="306.00" y2="306.00" />
<line x1="706.58" x2="706.58" y1="296.30" y2="306.00" />
<line x1="712.98" x2="712.98" y1="306.00" y2="306.00" />
<line x1="719.39" x2="719.39" y1="306.00" y2="306.00" />
<line x1="725.80" x2="725.80" y1="210.05" y2="306.00" />
<line x1="732.20" x2="732.20" y1="180.55" y2="306.00" />
<line x1="738.61" x2="738.61" y1="176.52" y2="306.00" />
<line x1="745.02" x2="745.02" y1="223.42" y2="306.00" />
<line x1="751.42" x2="751.42" y1="306.00" y2="306.00" />
<line x1="757.83" x2="757.83" y1="306.00" y2="306.00" />
<line x1="764.24" x2="764.24" y1="306.00" y2="306.00" />
<line x1="770.64" x2="770.64" y1="306.00" y2="306.00" />
<line x1="777.05" x2="777.05" y1="303.38" y2="306.00" />
<line x1="783.46" x2="783.46" y1="306.00" y2="306.00" />
<line x1="789.86" x2="789.86" y1="306.00" y2="306.00" />
<line x1="796.27" x2="796.27" y1="264.03" y2="306.00" />
<line x1="802.68" x2="802.68" y1="214.45" y2="306.00" />
<line x1="809.08" x2="809.08" y1="255.36" y2="306.00" />
<line x1="815.49" x2="815.49" y1="161.02" y2="306.00" />
<line x1="821.90" x2="821.90" y1="244.16" y2="306.00" />
<line x1="828.31" x2="828.31" y1="306.00" y2="306.00" />
<line x1="834.71" x2="834.71" y1="306.00" y2="306.00" />
<line x1="841.12" x2="841.12" y1="306.00" y2="306.00" />
<line x1="847.53" x2="847.53" y1="306.00" y2="306.00" />
<line x1="853.93" x2="853.93" y1="306.00" y2="306.00" />
<line x1="860.34" x2="860.34" y1="306.00" y2="306.00" />
<line x1="866.75" x2="866.75" y1="306.00" y2="306.00" />
<line x1="873.15" x2="873.15" y1="265.28" y2="306.00" />
<line x1="879.56" x2="879.56" y1="243.07" y2="306.00" />
<line x1="885.97" x2="885.97" y1="261.64" y2="306.00" />
<line x1="892.37" x2="892.37" y1="249.13" y2="306.00" />
<line x1="898.78" x2="898.78" y1="238.38" y2="306.00" />
<line x1="905.19" x2="905.19" y1="246.14" y2="306.00" />
<line x1="911.59" x2="911.59" y1="306.00" y2="306.00" />
<line x1="918.00" x2="918.00" y1="306.00" y2="306.00" />
</g>
<g fill="none" stroke-width="5" stroke="#00aa88">
<line x1="162.00" x2="162.00" y1="266.47" y2="306.00" />
<line x1="168.41" x2="168.41" y1="298.75" y2="306.00" />
<line x1="174.81" x2="174.81" y1="106.42" y2="306.00" />
<line x1="181.22" x2="181.22" y1="306.00" y2="306.00" />
<line x1="187.63" x2="187.63" y1="306.00" y2="306.00" />
<line x1="194.03" x2="194.03" y1="306.00" y2="306.00" />
<line x1="200.44" x2="200.44" y1="306.00" y2="306.00" />
<line x1="206.85" x2="206.85" y1="306.00" y2="306.00" />
<line x1="213.25" x2="213.25" y1="306.00" y2="306.00" />
<line x1="219.66" x2="219.66" y1="239.12" y2="306.00" />
<line x1="226.07" x2="226.07" y1="225.83" y2="306.00" />
<line x1="232.47" x2="232.47" y1="243.33" y2="306.00" />
<line x1="238.88" x2="238.88" y1="212.19" y2="306.00" />
<line x1="245.29" x2="245.29" y1="276.02" y2="306.00" />
<line x1="251.69" x2="251.69" y1="262.45" y2="306.00" />
<line x1="258.10" x2="258.10" y1="246.00" y2="306.00" />
<line x1="264.51" x2="264.51" y1="306.00" y2="306.00" />
<line x1="270.92" x2="270.92" y1="306.00" y2="306.00" />
<line x1="277.32" x2="277.32" y1="306.00" y2="306.00" />
<line x1="283.73" x2="283.73" y1="306.00" y2="306.00" />
<line x1="290.14" x2="290.14" y1="306.00" y2="306.00" />
<line x1="296.54" x2="296.54" y1="250.69" y2="306.00" />
<line x1="302.95" x2="302.95" y1="199.51" y2="306.00" />
<line x1="309.36" x2="309.36" y1="225.64" y2="306.00" />
<line x1="315.76" x2="315.76" y1="285.59" y2="306.00" />
<line x1="322.17" x2="322.17" y1="263.94" y2="306.00" />
<line x1="328.58" x2="328.58" y1="297.65" y2="306.00" />
<line x1="334.98" x2="334.98" y1="238.48" y2="306.00" />
<line x1="341.39" x2="341.39" y1="306.00" y2="306.00" />
<line x1="347.80" x2="347.80" y1="306.00" y2="306.00" />
<line x1="354.20" x2="354.20" y1="306.00" y2="306.00" />
<line x1="360.61" x2="360.61" y1="306.00" y2="306.00" />
<line x1="367.02" x2="367.02" y1="306.00" y2="306.00" />
<line x1="373.42" x2="373.42" y1="250.96" y2="306.00" />
<line x1="379.83" x2="379.83" y1="160.61" y2="306.00" />
<line x1="386.24" x2="386.24" y1="278.50" y2="306.00" />
<line x1="392.64" x2="392.64" y1="298.77" y2="306.00" />
<line x1="399.05" x2="399.05" y1="302.37" y2="306.00" />
<line x1="405.46" x2="405.46" y1="283.82" y2="306.00" />
<line x1="411.86" x2="411.86" y1="271.46" y2="306.00" />
<line x1="418.27" x2="418.27" y1="306.00" y2="306.00" />
<line x1="424.68" x2="424.68" y1="306.00" y2="306.00" />
<line x1="431.08" x2="431.08" y1="306.00" y2="306.00" />
<line x1="437.49" x2="437.49" y1="306.00" y2="306.00" />
<line x1="443.90" x2="443.90" y1="216.76" y2="306.00" />
<line x1="450.31" x2="450.31" y1="221.82" y2="306.00" />
<line x1="456.71" x2="456.71" y1="221.57" y2="306.00" />
<line x1="463.12" x2="463.12" y1="295.54" y2="306.00" />
<line x1="469.53" x2="469.53" y1="299.89" y2="306.00" />
<line x1="475.93" x2="475.93" y1="306.00" y2="306.00" />
<line x1="482.34" x2="482.34" y1="255.43" y2="306.00" />
<line x1="488.75" x2="488.75" y1="306.00" y2="306.00" />
<line x1="495.15" x2="495.15" y1="306.00" y2="306.00" />
<line x1="501.56" x2="501.56" y1="306.00" y2="306.00" />
<line x1="507.97" x2="507.97" y1="306.00" y2="306.00" />
<line x1="514.37" x2="514.37" y1="306.00" y2="306.00" />
<line x1="520.78" x2="520.78" y1="253.49" y2="306.00" />
<line x1="527.19" x2="527.19" y1="177.25" y2="306.00" />
<line x1="533.59" x2="533.59" y1="260.02" y2="306.00" />
<line x1="540.00" x2="540.00" y1="281.83" y2="306.00" />
<line x1="546.41" x2="546.41" y1="294.83" y2="306.00" />
<line x1="552.81" x2="552.81" y1="306.00" y2="306.00" />
<line x1="559.22" x2="559.22" y1="295.33" y2="306.00" />
<line x1="565.63" x2="565.63" y1="306.00" y2="306.00" />
<line x1="572.03" x2="572.03" y1="306.00" y2="306.00" />
<line x1="578.44" x2="578.44" y1="306.00" y2="306.00" />
<line x1="584.85" x2="584.85" y1="306.00" y2="306.00" />
<line x1="591.25" x2="591.25" y1="306.00" y2="306.00" />
<line x1="597.66" x2="597.66" y1="306.00" y2="306.00" />
<line x1="604.07" x2="604.07" y1="262.38" y2="306.00" />
<line x1="610.47" x2="610.47" y1="76.91" y2="306.00" />
<line x1="616.88" x2="616.88" y1="128.54" y2="306.00" />
<line x1="623.29" x2="623.29" y1="293.71" y2="306.00" />
<line x1="629.69" x2="629.69" y1="262.18" y2="306.00" />
<line x1="636.10" x2="636.10" y1="242.08" y2="306.00" />
<line x1="642.51" x2="642.51" y1="306.00" y2="306.00" />
<line x1="648.92" x2="648.92" y1="306.00" y2="306.00" />
<line x1="655.32" x2="655.32" y1="306.00" y2="306.00" />
<line x1="661.73" x2="661.73" y1="306.00" y2="306.00" />
<line x1="668.14" x2="668.14" y1="306.00" y2="306.00" />
<line x1="674.54" x2="674.54" y1="306.00" y2="306.00" />
<line x1="680.95" x2="680.95" y1="81.98" y2="306.00" />
<line x1="687.36" x2="687.36" y1="236.00" y2="306.00" />
<line x1="693.76" x2="693.76" y1="268.05" y2="306.00" />
<line x1="700.17" x2="700.17" y1="298.42" y2="306.00" />
<line x1="706.58" x2="706.58" y1="306.00" y2="306.00" />
<line x1="712.98" x2="712.98" y1="253.50" y2="306.00" />
<line x1="719.39" x2="719.39" y1="260.00" y2="306.00" />
<line x1="725.80" x2="725.80" y1="306.00" y2="306.00" />
<line x1="732.20" x2="732.20" y1="306.00" y2="306.00" />
<line x1="738.61" x2="738.61" y1="306.00" y2="306.00" />
<line x1="745.02" x2="745.02" y1="306.00" y2="306.00" />
<line x1="751.42" x2="751.42" y1="221.19" y2="306.00" />
<line x1="757.83" x2="757.83" y1="213.92" y2="306.00" />
<line x1="764.24" x2="764.24" y1="197.12" y2="306.00" />
<line x1="770.64" x2="770.64" y1="249.51" y2="306.00" />
<line x1="777.05" x2="777.05" y1="306.00" y2="306.00" />
<line x1="783.46" x2="783.46" y1="287.06" y2="306.00" />
<line x1="789.86" x2="789.86" y1="280.88" y2="306.00" />
<line x1="796.27" x2="796.27" y1="306.00" y2="306.00" />
<line x1="802.68" x2="802.68" y1="306.00" y2="306.00" />
<line x1="809.08" x2="809.08" y1="306.00" y2="306.00" />
<line x1="815.49" x2="815.49" y1="306.00" y2="306.00" />
<line x1="821.90" x2="821.90" y1="306.00" y2="306.00" />
<line x1="828.31" x2="828.31" y1="226.69" y2="306.00" />
<line x1="834.71" x2="834.71" y1="261.58" y2="306.00" />
<line x1="841.12" x2="841.12" y1="289.29" y2="306.00" />
<line x1="847.53" x2="847.53" y1="301.73" y2="306.00" />
<line x1="853.93" x2="853.93" y1="294.42" y2="306.00" />
<line x1="860.34" x2="860.34" y1="298.22" y2="306.00" />
<line x1="866.75" x2="866.75" y1="226.79" y2="306.00" />
<line x1="873.15" x2="873.15" y1="306.00" y2="306.00" />
<line x1="879.56" x2="879.56" y1="306.00" y2="306.00" />
<line x1="885.97" x2="885.97" y1="306.00" y2="306.00" />
<line x1="892.37" x2="892.37" y1="306.00" y2="306.00" />
<line x1="898.78" x2="898.78" y1="306.00" y2="306.00" />
<line x1="905.19" x2="905.19" y1="306.00" y2="306.00" />
<line x1="911.59" x2="911.59" y1="226.99" y2="306.00" />
<line x1="918.00" x2="918.00" y1="206.81" y2="306.00" />
</g>
<g stroke="black">
<line x1="162.00" x2="162.00" y1="306.00" y2="316.00" />
<line x1="238.88" x2="238.88" y1="306.00" y2="316.00" />
<line x1="315.76" x2="315.76" y1="306.00" y2="316.00" />
<line x1="392.64" x2="392.64" y1="306.00" y2="316.00" />
<line x1="469.53" x2="469.53" y1="306.00" y2="316.00" />
<line x1="546.41" x2="546.41" y1="306.00" y2="316.00" />
<line x1="623.29" x2="623.29" y1="306.00" y2="316.00" />
<line x1="700.17" x2="700.17" y1="306.00" y2="316.00" />
<line x1="777.05" x2="777.05" y1="306.00" y2="316.00" />
<line x1="853.93" x2="853.93" y1="306.00" y2="316.00" />
<g fill="black" font-family="Arial, sans-serif" font-size="18.0" stroke="none" text-anchor="start" transform="translate(9.0 0.0)">
<text x="162.00" y="326.57">2011</text>
<text x="238.88" y="326.57">2012</text>
<text x="315.76" y="326.57">2013</text>
<text x="392.64" y="326.57">2014</text>
<text x="469.53" y="326.57">2015</text>
<text x="546.41" y="326.57">2016</text>
<text x="623.29" y="326.57">2017</text>
<text x="700.17" y="326.57">2018</text>
<text x="777.05" y="326.57">2019</text>
<text x="853.93" y="326.57">2020</text>
</g>
<line x1="162.00" x2="918.00" y1="306.00" y2="306.00" />
</g>
<g stroke="#0008">
<g fill="black" font-family="Arial, sans-serif" font-size="18.0" stroke="none" text-anchor="end" />
<line x1="162.00" x2="162.00" y1="306.00" y2="54.00" />
</g>
</g>
</svg>