<?xml version="1.0"?>
<svg height="360.0" version="1.1" viewBox="0 0 1080.0 360.0" width="1080.0" xmlns:xlink="http://www.w3.org/1999/xlink" xmlns="http://www.w3.org/2000/svg">
<g>
<g>
<text dominant-baseline="hanging" dx="-90.0" dy="90.0" fill="#0004" font-family="Arial, sans-serif" font-size="90" stroke-width="3.0" stroke="none" text-anchor="end" text="Singular Values" x="972.00" y="61.20">Singular Values</text>
</g>
<g>
<text dominant-baseline="hanging" dx="45.0" dy="45.0" fill="black" font-family="Arial, sans-serif" font-size="45.0" font-style="italic" stroke="none" text-anchor="beginning" text-orientation="sideways" text="%" x="108.00" y="36.29">%</text>
</g>
<g fill="none" stroke-width="27.0" stroke="red">
<line x1="108.00" x2="108.00" y1="61.20" y2="324.00" />
<line x1="153.47" x2="153.47" y1="234.30" y2="324.00" />
</g>
<g fill="none" stroke-width="27.0" stroke="#ffb2b0">
<line x1="198.95" x2="198.95" y1="272.93" y2="324.00" />
<line x1="244.42" x2="244.42" y1="290.38" y2="324.00" />
<line x1="289.89" x2="289.89" y1="295.16" y2="324.00" />
<line x1="335.37" x2="335.37" y1="298.72" y2="324.00" />
<line x1="380.84" x2="380.84" y1="300.52" y2="324.00" />
<line x1="426.32" x2="426.32" y1="304.03" y2="324.00" />
<line x1="471.79" x2="471.79" y1="305.56" y2="324.00" />
<line x1="517.26" x2="517.26" y1="307.75" y2="324.00" />
<line x1="562.74" x2="562.74" y1="309.29" y2="324.00" />
<line x1="608.21" x2="608.21" y1="309.98" y2="324.00" />
<line x1="653.68" x2="653.68" y1="310.65" y2="324.00" />
<line x1="699.16" x2="699.16" y1="311.05" y2="324.00" />
<line x1="744.63" x2="744.63" y1="311.60" y2="324.00" />
<line x1="790.11" x2="790.11" y1="311.68" y2="324.00" />
<line x1="835.58" x2="835.58" y1="312.30" y2="324.00" />
<line x1="881.05" x2="881.05" y1="312.54" y2="324.00" />
<line x1="926.53" x2="926.53" y1="312.84" y2="324.00" />
<line x1="972.00" x2="972.00" y1="313.24" y2="324.00" />
</g>
<g stroke="black">
<g fill="black" font-family="Arial, sans-serif" font-size="45.0" stroke="none" text-anchor="start" transform="translate(22.5 0.0)" />
<line x1="108.00" x2="972.00" y1="324.00" y2="324.00" />
</g>
<g stroke="black">
<line x1="108.00" x2="78.00" y1="199.66" y2="199.66" />
<line x1="108.00" x2="78.00" y1="75.33" y2="75.33" />
<g fill="black" font-family="Arial, sans-serif" font-size="45.0" stroke="none" text-anchor="end">
<text x="85.50" y="177.16">10</text>
<text x="85.50" y="52.83">20</text>
</g>
<line x1="108.00" x2="108.00" y1="324.00" y2="36.00" />
</g>
</g>
</svg>