<?xml version="1.0"?>
<svg height="360.0" version="1.1" viewBox="0 0 1080.0 360.0" width="1080.0" xmlns:xlink="http://www.w3.org/1999/xlink" xmlns="http://www.w3.org/2000/svg">
<g>
<g>
<text dominant-baseline="hanging" dx="-36.0" dy="36.0" fill="#0004" font-family="Arial, sans-serif" font-size="36" stroke="none" text-anchor="end" x="982.80" y="57.00">SV1 SV2 weights</text>
</g>
<g>
<text dominant-baseline="hanging" dx="12.0" dy="9.600000000000001" fill="#0000aa" font-size="12.0" font-style="italic" stroke="none" text-anchor="beginning" x="97.20" y="32.59">First Singular Vector</text>
</g>
<g>
<text dominant-baseline="hanging" dx="12.0" dy="21.6" fill="#aa0000" font-size="12.0" font-style="italic" stroke="none" text-anchor="beginning" x="97.20" y="32.59">Second Singular Vector</text>
</g>
<polyline fill="none" points="97.20,231.65 104.64,226.68 112.08,297.56 119.53,235.18 126.97,254.66 134.41,268.82 141.85,289.80 149.29,286.23 156.74,278.62 164.18,254.47 171.62,242.79 179.06,235.73 186.50,251.50 193.95,236.65 201.39,239.85 208.83,253.37 216.27,270.74 223.71,273.13 231.16,288.87 238.60,277.16 246.04,285.76 253.48,256.24 260.92,263.54 268.37,240.87 275.81,227.71 283.25,239.64 290.69,222.71 298.13,259.85 305.58,263.80 313.02,293.56 320.46,303.00 327.90,268.32 335.34,287.32 342.79,274.85 350.23,270.20 357.67,226.42 365.11,221.64 372.55,221.51 380.00,232.25 387.44,244.74 394.88,256.82 402.32,263.40 409.76,285.09 417.21,276.63 424.65,273.37 432.09,275.65 439.53,254.18 446.97,244.08 454.42,225.71 461.86,224.14 469.30,223.82 476.74,244.97 484.18,262.86 491.63,290.97 499.07,267.51 506.51,286.82 513.95,288.75 521.39,249.38 528.84,260.29 536.28,233.74 543.72,228.87 551.16,223.50 558.61,223.62 566.05,225.44 573.49,299.72 580.93,275.31 588.37,282.80 595.82,265.27 603.26,289.16 610.70,284.03 618.14,239.89 625.58,273.00 633.03,277.24 640.47,224.28 647.91,236.37 655.35,249.47 662.79,289.08 670.24,262.96 677.68,284.21 685.12,270.85 692.56,280.92 700.00,257.58 707.45,279.33 714.89,239.51 722.33,236.55 729.77,225.40 737.21,230.72 744.66,258.38 752.10,261.86 759.54,278.86 766.98,285.94 774.42,290.10 781.87,280.65 789.31,270.63 796.75,253.54 804.19,250.80 811.63,240.89 819.08,222.28 826.52,228.83 833.96,240.90 841.40,255.79 848.84,280.62 856.29,257.83 863.73,299.57 871.17,265.49 878.61,257.42 886.05,242.44 893.50,224.61 900.94,224.04 908.38,225.16 915.82,223.99 923.26,256.60 930.71,264.76 938.15,272.60 945.59,264.59 953.03,260.06 960.47,284.35 967.92,277.90 975.36,245.23 982.80,245.67" stroke-width="7" stroke="#0000aa" />
<polyline fill="none" points="97.20,192.91 104.64,217.02 112.08,92.11 119.53,222.35 126.97,221.80 134.41,249.42 141.85,274.06 149.29,217.30 156.74,255.74 164.18,180.90 171.62,164.60 179.06,175.81 186.50,157.58 193.95,202.74 201.39,193.16 208.83,185.74 216.27,256.09 223.71,275.24 231.16,248.10 238.60,253.04 246.04,256.25 253.48,191.19 260.92,152.68 268.37,163.58 275.81,206.75 283.25,194.39 290.69,214.31 298.13,182.62 305.58,228.04 313.02,289.08 320.46,290.93 327.90,246.56 335.34,249.98 342.79,199.68 350.23,124.01 357.67,200.30 365.11,214.71 372.55,217.65 380.00,207.26 387.44,202.79 394.88,212.33 402.32,268.93 409.76,278.62 417.21,228.71 424.65,238.27 432.09,172.07 439.53,166.54 446.97,161.62 454.42,213.95 461.86,216.73 469.30,220.74 476.74,189.81 484.18,226.51 491.63,272.73 499.07,237.66 506.51,263.44 513.95,241.65 521.39,190.27 528.84,132.89 536.28,188.61 543.72,204.17 551.16,212.34 558.61,221.53 566.05,213.64 573.49,244.51 580.93,252.36 588.37,236.26 595.82,241.19 603.26,277.32 610.70,215.48 618.14,193.20 625.58,57.00 633.03,101.03 640.47,211.79 647.91,191.43 655.35,180.84 662.79,247.97 670.24,242.00 677.68,288.67 685.12,246.75 692.56,223.51 700.00,222.38 707.45,63.71 714.89,171.61 722.33,196.27 729.77,216.20 737.21,216.22 744.66,194.32 752.10,201.08 759.54,259.31 766.98,288.77 774.42,287.67 781.87,238.20 789.31,173.36 796.75,159.94 804.19,144.99 811.63,183.40 819.08,219.61 826.52,208.45 833.96,208.67 841.40,221.26 848.84,250.41 856.29,229.96 863.73,293.98 871.17,233.53 878.61,171.98 886.05,193.62 893.50,208.32 900.94,218.26 908.38,212.81 915.82,215.33 923.26,171.83 930.71,205.46 938.15,223.79 945.59,210.81 953.03,235.17 960.47,212.01 967.92,211.59 975.36,166.59 982.80,150.52" stroke-width="7" stroke="#aa0000" />
<g stroke="black">
<line x1="97.20" x2="97.20" y1="327.60" y2="337.60" />
<line x1="186.50" x2="186.50" y1="327.60" y2="337.60" />
<line x1="275.81" x2="275.81" y1="327.60" y2="337.60" />
<line x1="365.11" x2="365.11" y1="327.60" y2="337.60" />
<line x1="454.42" x2="454.42" y1="327.60" y2="337.60" />
<line x1="543.72" x2="543.72" y1="327.60" y2="337.60" />
<line x1="633.03" x2="633.03" y1="327.60" y2="337.60" />
<line x1="722.33" x2="722.33" y1="327.60" y2="337.60" />
<line x1="811.63" x2="811.63" y1="327.60" y2="337.60" />
<line x1="900.94" x2="900.94" y1="327.60" y2="337.60" />
<g fill="black" font-family="Arial, sans-serif" font-size="18.0" stroke="none" text-anchor="start" transform="translate(9.0 0.0)">
<text x="97.20" y="348.17">2011</text>
<text x="186.50" y="348.17">2012</text>
<text x="275.81" y="348.17">2013</text>
<text x="365.11" y="348.17">2014</text>
<text x="454.42" y="348.17">2015</text>
<text x="543.72" y="348.17">2016</text>
<text x="633.03" y="348.17">2017</text>
<text x="722.33" y="348.17">2018</text>
<text x="811.63" y="348.17">2019</text>
<text x="900.94" y="348.17">2020</text>
</g>
<line x1="97.20" x2="982.80" y1="327.60" y2="327.60" />
</g>
<g stroke="black">
<line x1="97.20" x2="85.20" y1="316.83" y2="316.83" />
<line x1="97.20" x2="85.20" y1="268.33" y2="268.33" />
<line x1="97.20" x2="85.20" y1="219.82" y2="219.82" />
<line x1="97.20" x2="85.20" y1="171.31" y2="171.31" />
<line x1="97.20" x2="85.20" y1="122.81" y2="122.81" />
<line x1="97.20" x2="85.20" y1="74.30" y2="74.30" />
<g fill="black" font-family="Arial, sans-serif" font-size="18.0" stroke="none" text-anchor="end">
<text x="88.20" y="307.83">-0.2</text>
<text x="88.20" y="259.33">-0.1</text>
<text x="88.20" y="210.82">0.0</text>
<text x="88.20" y="162.31">0.1</text>
<text x="88.20" y="113.81">0.2</text>
<text x="88.20" y="65.30">0.3</text>
</g>
<line x1="97.20" x2="97.20" y1="327.60" y2="32.40" />
</g>
</g>
</svg>