<?xml version="1.0"?>
<svg height="360.0" version="1.1" viewBox="0 0 1080.0 360.0" width="1080.0" xmlns:xlink="http://www.w3.org/1999/xlink" xmlns="http://www.w3.org/2000/svg">
<g>
<g>
<g>
<text dominant-baseline="hanging" dx="-36.0" dy="36.0" fill="#0004" font-family="Arial, sans-serif" font-size="36" stroke="none" text-anchor="end" x="982.80" y="57.00">SV1 SV2 evolution</text>
</g>
<g>
<text dominant-baseline="hanging" dx="12.0" dy="9.600000000000001" fill="#0000aa" font-size="12.0" font-style="italic" stroke="none" text-anchor="beginning" x="97.20" y="32.42">First Singular Vector</text>
</g>
<g>
<text dominant-baseline="hanging" dx="12.0" dy="21.6" fill="#aa0000" font-size="12.0" font-style="italic" stroke="none" text-anchor="beginning" x="97.20" y="32.42">Second Singular Vector</text>
</g>
<polyline fill="none" points="97.20,87.63 104.64,72.61 112.08,286.59 119.53,98.27 126.97,157.09 134.41,199.83 141.85,263.15 149.29,252.37 156.74,229.42 164.18,156.52 171.62,121.26 179.06,99.94 186.50,147.54 193.95,102.73 201.39,112.37 208.83,153.19 216.27,205.61 223.71,212.82 231.16,260.35 238.60,224.99 246.04,250.97 253.48,161.85 260.92,183.87 268.37,115.44 275.81,75.73 283.25,111.73 290.69,60.64 298.13,172.74 305.58,184.67 313.02,274.51 320.46,303.00 327.90,198.32 335.34,255.67 342.79,218.01 350.23,203.98 357.67,71.85 365.11,57.39 372.55,57.00 380.00,89.44 387.44,127.14 394.88,163.60 402.32,183.45 409.76,248.94 417.21,223.39 424.65,213.57 432.09,220.45 439.53,155.64 446.97,125.13 454.42,69.70 461.86,64.96 469.30,63.97 476.74,127.83 484.18,181.85 491.63,266.67 499.07,195.88 506.51,254.17 513.95,259.99 521.39,141.13 528.84,174.06 536.28,93.92 543.72,79.21 551.16,63.00 558.61,63.39 566.05,68.88 573.49,293.11 580.93,219.43 588.37,242.02 595.82,189.09 603.26,261.24 610.70,245.73 618.14,112.50 625.58,212.43 633.03,225.25 640.47,65.37 647.91,101.87 655.35,141.42 662.79,260.99 670.24,182.13 677.68,246.28 685.12,205.95 692.56,236.35 700.00,165.90 707.45,231.55 714.89,111.33 722.33,102.40 729.77,68.77 737.21,84.81 744.66,168.31 752.10,178.83 759.54,230.13 766.98,251.52 774.42,264.07 781.87,235.54 789.31,205.28 796.75,153.70 804.19,145.41 811.63,115.52 819.08,59.33 826.52,79.10 833.96,115.54 841.40,160.48 848.84,235.45 856.29,166.66 863.73,292.64 871.17,189.78 878.61,165.43 886.05,120.19 893.50,66.37 900.94,64.64 908.38,68.01 915.82,64.49 923.26,162.93 930.71,187.58 938.15,211.24 945.59,187.07 953.03,173.38 960.47,246.71 967.92,227.22 975.36,128.63 982.80,129.94" stroke-width="7" stroke="#0000aa" />
<g stroke="black">
<line x1="97.20" x2="97.20" y1="327.60" y2="337.60" />
<line x1="186.50" x2="186.50" y1="327.60" y2="337.60" />
<line x1="275.81" x2="275.81" y1="327.60" y2="337.60" />
<line x1="365.11" x2="365.11" y1="327.60" y2="337.60" />
<line x1="454.42" x2="454.42" y1="327.60" y2="337.60" />
<line x1="543.72" x2="543.72" y1="327.60" y2="337.60" />
<line x1="633.03" x2="633.03" y1="327.60" y2="337.60" />
<line x1="722.33" x2="722.33" y1="327.60" y2="337.60" />
<line x1="811.63" x2="811.63" y1="327.60" y2="337.60" />
<line x1="900.94" x2="900.94" y1="327.60" y2="337.60" />
<g fill="black" font-family="Arial, sans-serif" font-size="18.0" stroke="none" text-anchor="start" transform="translate(9.0 0.0)">
<text x="97.20" y="348.17">2011</text>
<text x="186.50" y="348.17">2012</text>
<text x="275.81" y="348.17">2013</text>
<text x="365.11" y="348.17">2014</text>
<text x="454.42" y="348.17">2015</text>
<text x="543.72" y="348.17">2016</text>
<text x="633.03" y="348.17">2017</text>
<text x="722.33" y="348.17">2018</text>
<text x="811.63" y="348.17">2019</text>
<text x="900.94" y="348.17">2020</text>
</g>
<line x1="97.20" x2="982.80" y1="327.60" y2="327.60" />
</g>
<g stroke="#0000aa">
<line x1="97.20" x2="85.20" y1="198.34" y2="198.34" />
<line x1="97.20" x2="85.20" y1="51.91" y2="51.91" />
<g fill="#0000aa" font-family="Arial, sans-serif" font-size="18.0" stroke="none" text-anchor="end">
<text x="88.20" y="189.34">-0.1</text>
<text x="88.20" y="42.91">0.0</text>
</g>
<line x1="97.20" x2="97.20" y1="327.60" y2="32.40" />
</g>
</g>
<g>
<polyline fill="none" points="97.20,198.08 104.64,223.11 112.08,93.45 119.53,228.64 126.97,228.07 134.41,256.75 141.85,282.32 149.29,223.40 156.74,263.31 164.18,185.61 171.62,168.70 179.06,180.34 186.50,161.41 193.95,208.29 201.39,198.34 208.83,190.64 216.27,263.67 223.71,283.55 231.16,255.38 238.60,260.51 246.04,263.84 253.48,196.30 260.92,156.33 268.37,167.64 275.81,212.45 283.25,199.62 290.69,220.30 298.13,187.40 305.58,234.55 313.02,297.91 320.46,299.83 327.90,253.78 335.34,257.33 342.79,205.12 350.23,126.56 357.67,205.76 365.11,220.72 372.55,223.76 380.00,212.98 387.44,208.34 394.88,218.24 402.32,277.00 409.76,287.06 417.21,235.25 424.65,245.18 432.09,176.45 439.53,170.72 446.97,165.60 454.42,219.92 461.86,222.81 469.30,226.97 476.74,194.87 484.18,232.96 491.63,280.94 499.07,244.54 506.51,271.30 513.95,248.68 521.39,195.35 528.84,135.78 536.28,193.62 543.72,209.78 551.16,218.26 558.61,227.79 566.05,219.60 573.49,251.65 580.93,259.79 588.37,243.09 595.82,248.21 603.26,285.71 610.70,221.51 618.14,198.39 625.58,57.00 633.03,102.71 640.47,217.68 647.91,196.55 655.35,185.55 662.79,255.24 670.24,249.04 677.68,297.49 685.12,253.97 692.56,229.85 700.00,228.67 707.45,63.97 714.89,175.97 722.33,201.58 729.77,222.27 737.21,222.28 744.66,199.55 752.10,206.57 759.54,267.01 766.98,297.59 774.42,296.46 781.87,245.10 789.31,177.79 796.75,163.86 804.19,148.34 811.63,188.21 819.08,225.80 826.52,214.21 833.96,214.45 841.40,227.52 848.84,257.78 856.29,236.54 863.73,303.00 871.17,240.25 878.61,176.35 886.05,198.82 893.50,214.08 900.94,224.40 908.38,218.75 915.82,221.36 923.26,176.20 930.71,211.11 938.15,230.14 945.59,216.66 953.03,241.95 960.47,217.91 967.92,217.48 975.36,170.76 982.80,154.08" stroke-width="7" stroke="#aa0000" />
<g stroke="#0088">
<line x1="97.20" x2="97.20" y1="32.40" y2="32.40" />
<line x1="186.50" x2="186.50" y1="32.40" y2="32.40" />
<line x1="275.81" x2="275.81" y1="32.40" y2="32.40" />
<line x1="365.11" x2="365.11" y1="32.40" y2="32.40" />
<line x1="454.42" x2="454.42" y1="32.40" y2="32.40" />
<line x1="543.72" x2="543.72" y1="32.40" y2="32.40" />
<line x1="633.03" x2="633.03" y1="32.40" y2="32.40" />
<line x1="722.33" x2="722.33" y1="32.40" y2="32.40" />
<line x1="811.63" x2="811.63" y1="32.40" y2="32.40" />
<line x1="900.94" x2="900.94" y1="32.40" y2="32.40" />
<g fill="none" font-family="Arial, sans-serif" font-size="18.0" stroke="none" text-anchor="start" transform="translate(9.0 0.0)">
<text x="97.20" y="26.14">2011</text>
<text x="186.50" y="26.14">2012</text>
<text x="275.81" y="26.14">2013</text>
<text x="365.11" y="26.14">2014</text>
<text x="454.42" y="26.14">2015</text>
<text x="543.72" y="26.14">2016</text>
<text x="633.03" y="26.14">2017</text>
<text x="722.33" y="26.14">2018</text>
<text x="811.63" y="26.14">2019</text>
<text x="900.94" y="26.14">2020</text>
</g>
<line x1="97.20" x2="982.80" y1="32.40" y2="32.40" />
</g>
<g stroke="#aa0000">
<line x1="982.80" x2="994.80" y1="326.73" y2="326.73" />
<line x1="982.80" x2="994.80" y1="276.37" y2="276.37" />
<line x1="982.80" x2="994.80" y1="226.02" y2="226.02" />
<line x1="982.80" x2="994.80" y1="175.66" y2="175.66" />
<line x1="982.80" x2="994.80" y1="125.31" y2="125.31" />
<line x1="982.80" x2="994.80" y1="74.96" y2="74.96" />
<g fill="#aa0000" font-family="Arial, sans-serif" font-size="18.0" stroke="none" text-anchor="beginning">
<text x="991.80" y="317.73">-0.2</text>
<text x="991.80" y="267.37">-0.1</text>
<text x="991.80" y="217.02">0.0</text>
<text x="991.80" y="166.66">0.1</text>
<text x="991.80" y="116.31">0.2</text>
<text x="991.80" y="65.96">0.3</text>
</g>
<line x1="982.80" x2="982.80" y1="327.60" y2="32.40" />
</g>
</g>
</g>
</svg>