<?xml version="1.0"?>
<svg height="360.0" version="1.1" viewBox="0 0 1080.0 360.0" width="1080.0" xmlns:xlink="http://www.w3.org/1999/xlink" xmlns="http://www.w3.org/2000/svg">
<g>
<g>
<g>
<text dominant-baseline="hanging" dx="18.0" dy="54.0" fill="#0000aa" font-size="18.0" font-style="italic" stroke-width="0.36" stroke="#000f" text-anchor="beginning" text="Singular Vec 1" x="65.75" y="21.63">Singular Vec 1</text>
</g>
<g>
<text dominant-baseline="hanging" dx="18.0" dy="78.0" fill="#aa0000" font-size="18.0" font-style="italic" stroke-width="0.36" stroke="#000f" text-anchor="beginning" text="Singular Vec 2" x="65.75" y="21.63">Singular Vec 2</text>
</g>
<polyline fill="none" points="64.80,261.59 72.79,272.34 80.77,163.54 88.76,233.03 96.75,163.26 104.73,174.56 112.72,185.22 120.71,128.00 128.69,207.72 136.68,180.94 144.67,183.61 152.65,246.39 160.64,212.08 168.63,244.00 176.61,217.98 184.60,189.46 192.58,150.56 200.57,221.05 208.56,138.21 216.54,153.31 224.53,161.25 232.52,169.76 240.50,156.61 248.49,217.89 256.48,288.13 264.46,227.02 272.45,295.18 280.44,194.95 288.42,171.60 296.41,190.89 304.40,194.46 312.38,182.59 320.37,159.84 328.36,131.43 336.34,164.58 344.33,305.15 352.32,314.13 360.30,316.90 368.29,209.51 376.28,231.47 384.26,159.73 392.25,202.13 400.24,189.77 408.22,133.63 416.21,123.68 424.19,48.45 432.18,163.47 440.17,190.11 448.15,253.13 456.14,241.58 464.13,287.06 472.11,193.34 480.10,138.89 488.09,210.56 496.07,164.82 504.06,134.01 512.05,100.72 520.03,211.75 528.02,138.24 536.01,199.26 543.99,222.66 551.98,268.42 559.97,275.68 567.95,243.26 575.94,136.07 583.93,156.82 591.91,107.33 599.90,144.68 607.89,162.84 615.87,139.73 623.86,210.96 631.85,228.78 639.83,191.74 647.82,293.27 655.81,173.42 663.79,183.02 671.78,149.53 679.76,164.80 687.75,213.95 695.74,132.35 703.72,112.41 711.71,92.71 719.70,187.70 727.68,222.22 735.67,213.30 743.66,286.90 751.64,202.51 759.63,125.30 767.62,151.93 775.60,172.19 783.59,179.95 791.58,187.26 799.56,105.63 807.55,119.77 815.54,148.23 823.52,184.09 831.51,225.68 839.50,281.95 847.48,240.73 855.47,158.33 863.46,134.35 871.44,106.40 879.43,129.35 887.42,167.55 895.40,140.71 903.39,146.95 911.37,169.35 919.36,299.90 927.35,243.60 935.33,254.59 943.32,266.71 951.31,157.56 959.29,162.52 967.28,131.15 975.27,169.09 983.25,138.39 991.24,93.10 999.23,98.35 1007.21,242.00 1015.20,198.73" stroke-width="7" stroke="#0000aa" />
<g stroke="#0000aa">
<line x1="64.80" x2="64.80" y1="338.40" y2="348.40" />
<line x1="160.64" x2="160.64" y1="338.40" y2="348.40" />
<line x1="256.48" x2="256.48" y1="338.40" y2="348.40" />
<line x1="352.32" x2="352.32" y1="338.40" y2="348.40" />
<line x1="448.15" x2="448.15" y1="338.40" y2="348.40" />
<line x1="543.99" x2="543.99" y1="338.40" y2="348.40" />
<line x1="639.83" x2="639.83" y1="338.40" y2="348.40" />
<line x1="735.67" x2="735.67" y1="338.40" y2="348.40" />
<line x1="831.51" x2="831.51" y1="338.40" y2="348.40" />
<line x1="927.35" x2="927.35" y1="338.40" y2="348.40" />
<g fill="black" font-family="Arial, sans-serif" font-size="18.0" stroke="none" text-anchor="start" transform="translate(9.0 0.0)">
<text x="64.80" y="358.97">2011</text>
<text x="160.64" y="358.97">2012</text>
<text x="256.48" y="358.97">2013</text>
<text x="352.32" y="358.97">2014</text>
<text x="448.15" y="358.97">2015</text>
<text x="543.99" y="358.97">2016</text>
<text x="639.83" y="358.97">2017</text>
<text x="735.67" y="358.97">2018</text>
<text x="831.51" y="358.97">2019</text>
<text x="927.35" y="358.97">2020</text>
</g>
<line x1="64.80" x2="1015.20" y1="338.40" y2="338.40" />
</g>
<g stroke="#0000aa">
<line x1="64.80" x2="52.80" y1="338.40" y2="338.40" />
<line x1="64.80" x2="52.80" y1="162.93" y2="162.93" />
<g fill="#0000aa" font-family="Arial, sans-serif" font-size="18.0" stroke="none" text-anchor="end">
<text x="55.80" y="329.40">0.0</text>
<text x="55.80" y="153.93">0.1</text>
</g>
<line x1="64.80" x2="64.80" y1="338.40" y2="21.60" />
</g>
</g>
<g>
<polyline fill="none" points="64.80,229.24 72.79,185.73 80.77,258.05 88.76,158.09 96.75,140.55 104.73,94.63 112.72,78.92 120.71,155.89 128.69,113.15 136.68,229.07 144.67,299.08 152.65,256.39 160.64,240.01 168.63,208.89 176.61,221.46 184.60,201.24 192.58,74.24 200.57,70.37 208.56,107.09 216.54,85.33 224.53,94.08 232.52,208.08 240.50,267.53 248.49,273.31 256.48,198.41 264.46,229.96 272.45,201.80 280.44,205.44 288.42,122.46 296.41,65.81 304.40,76.29 312.38,135.56 320.37,109.01 328.36,184.21 336.34,265.86 344.33,205.21 352.32,193.70 360.30,181.86 368.29,211.98 376.28,196.21 384.26,197.03 392.25,50.14 400.24,67.60 408.22,136.85 416.21,117.43 424.19,241.47 432.18,259.44 440.17,287.43 448.15,226.40 456.14,185.84 464.13,178.05 472.11,227.33 480.10,139.18 488.09,100.46 496.07,130.79 504.06,78.92 512.05,106.58 520.03,213.39 528.02,312.00 536.01,275.63 543.99,235.21 551.98,223.17 559.97,155.01 567.95,210.66 575.94,114.48 583.93,90.47 591.91,119.73 599.90,90.17 607.89,48.00 615.87,131.61 623.86,232.52 631.85,275.61 639.83,263.02 647.82,198.71 655.81,252.31 663.79,245.31 671.78,106.47 679.76,95.50 687.75,83.02 695.74,112.09 703.72,140.33 711.71,135.50 719.70,303.72 727.68,259.99 735.67,235.14 743.66,189.15 751.64,177.10 759.63,204.26 767.62,185.54 775.60,74.11 783.59,53.04 791.58,77.10 799.56,91.17 807.55,235.20 815.54,291.85 823.52,300.52 831.51,227.06 839.50,180.16 847.48,213.81 855.47,194.27 863.46,156.01 871.44,72.50 879.43,121.46 887.42,60.56 895.40,110.61 903.39,259.42 911.37,241.99 919.36,200.54 927.35,151.09 935.33,201.78 943.32,195.80 951.31,241.94 959.29,170.76 967.28,126.59 975.27,174.04 983.25,108.63 991.24,151.38 999.23,143.24 1007.21,241.99 1015.20,287.74" stroke-width="7" stroke="#aa0000" />
<g stroke="#aa0000">
<line x1="64.80" x2="64.80" y1="21.60" y2="21.60" />
<line x1="160.64" x2="160.64" y1="21.60" y2="21.60" />
<line x1="256.48" x2="256.48" y1="21.60" y2="21.60" />
<line x1="352.32" x2="352.32" y1="21.60" y2="21.60" />
<line x1="448.15" x2="448.15" y1="21.60" y2="21.60" />
<line x1="543.99" x2="543.99" y1="21.60" y2="21.60" />
<line x1="639.83" x2="639.83" y1="21.60" y2="21.60" />
<line x1="735.67" x2="735.67" y1="21.60" y2="21.60" />
<line x1="831.51" x2="831.51" y1="21.60" y2="21.60" />
<line x1="927.35" x2="927.35" y1="21.60" y2="21.60" />
<g fill="#aa0000" font-family="Arial, sans-serif" font-size="18.0" stroke="none" text-anchor="start" transform="translate(9.0 0.0)">
<text x="64.80" y="15.34">2011</text>
<text x="160.64" y="15.34">2012</text>
<text x="256.48" y="15.34">2013</text>
<text x="352.32" y="15.34">2014</text>
<text x="448.15" y="15.34">2015</text>
<text x="543.99" y="15.34">2016</text>
<text x="639.83" y="15.34">2017</text>
<text x="735.67" y="15.34">2018</text>
<text x="831.51" y="15.34">2019</text>
<text x="927.35" y="15.34">2020</text>
</g>
<line x1="64.80" x2="1015.20" y1="21.60" y2="21.60" />
</g>
<g stroke="#aa0000">
<line x1="1015.20" x2="1027.20" y1="320.75" y2="320.75" />
<line x1="1015.20" x2="1027.20" y1="244.57" y2="244.57" />
<line x1="1015.20" x2="1027.20" y1="168.38" y2="168.38" />
<line x1="1015.20" x2="1027.20" y1="92.20" y2="92.20" />
<g fill="#aa0000" font-family="Arial, sans-serif" font-size="18.0" stroke="none" text-anchor="beginning">
<text x="1024.20" y="311.75">-0.2</text>
<text x="1024.20" y="235.57">-0.1</text>
<text x="1024.20" y="159.38">0.0</text>
<text x="1024.20" y="83.20">0.1</text>
</g>
<line x1="1015.20" x2="1015.20" y1="338.40" y2="21.60" />
</g>
</g>
</g>
</svg>