<?xml version="1.0"?>
<svg height="360.0" version="1.1" viewBox="0 0 1080.0 360.0" width="1080.0" xmlns:xlink="http://www.w3.org/1999/xlink" xmlns="http://www.w3.org/2000/svg">
<g>
<g>
<text dominant-baseline="hanging" dx="45.0" dy="135.0" fill="black" font-size="45.0" font-style="italic" stroke-width="0.9" stroke="#000f" text-anchor="beginning" x="108.86" y="36.03">
</text>
</g>
<g>
<text dominant-baseline="hanging" dx="45.0" dy="195.0" fill="#0000aa" font-size="45.0" font-style="italic" stroke-width="0.9" stroke="#000f" text-anchor="beginning" text="~~~   SV1" x="108.86" y="36.03">~~~   SV1</text>
</g>
<g>
<text dominant-baseline="hanging" dx="45.0" dy="255.0" fill="#aa0000" font-size="45.0" font-style="italic" stroke-width="0.9" stroke="#000f" text-anchor="beginning" text="~~~  SV2" x="108.86" y="36.03">~~~  SV2</text>
</g>
<polyline fill="none" points="108.00,142.41 115.26,146.57 122.52,104.50 129.78,131.37 137.04,104.39 144.30,108.76 151.56,112.88 158.82,90.76 166.08,121.58 173.34,111.23 180.61,112.26 187.87,136.53 195.13,123.27 202.39,135.61 209.65,125.55 216.91,114.52 224.17,99.48 231.43,126.74 238.69,94.71 245.95,100.54 253.21,103.61 260.47,106.90 267.73,101.82 274.99,125.51 282.25,152.67 289.51,129.05 296.77,155.40 304.03,116.64 311.29,107.62 318.55,115.07 325.82,116.45 333.08,111.87 340.34,103.07 347.60,92.09 354.86,104.90 362.12,159.25 369.38,162.72 376.64,163.79 383.90,122.27 391.16,130.77 398.42,103.03 405.68,119.42 412.94,114.64 420.20,92.94 427.46,89.09 434.72,60.00 441.98,104.47 449.24,114.77 456.50,139.14 463.76,134.67 471.03,152.26 478.29,116.02 485.55,94.97 492.81,122.68 500.07,104.99 507.33,93.08 514.59,80.21 521.85,123.14 529.11,94.72 536.37,118.31 543.63,127.36 550.89,145.05 558.15,147.86 565.41,135.32 572.67,93.88 579.93,101.90 587.19,82.77 594.45,97.21 601.71,104.23 608.97,95.29 616.24,122.84 623.50,129.72 630.76,115.40 638.02,154.66 645.28,108.32 652.54,112.03 659.80,99.08 667.06,104.99 674.32,123.99 681.58,92.44 688.84,84.73 696.10,77.11 703.36,113.84 710.62,127.19 717.88,123.74 725.14,152.20 732.40,119.57 739.66,89.71 746.92,100.01 754.18,107.84 761.45,110.84 768.71,113.67 775.97,82.11 783.23,87.58 790.49,98.58 797.75,112.44 805.01,128.52 812.27,150.28 819.53,134.34 826.79,102.48 834.05,93.21 841.31,82.41 848.57,91.28 855.83,106.05 863.09,95.67 870.35,98.08 877.61,106.75 884.87,157.22 892.13,135.45 899.39,139.70 906.66,144.39 913.92,102.19 921.18,104.11 928.44,91.98 935.70,106.64 942.96,94.77 950.22,77.27 957.48,79.30 964.74,134.84 972.00,118.11" stroke-width="7" stroke="#0000aa" />
<polyline fill="none" points="108.00,226.30 115.26,187.56 122.52,251.96 129.78,162.95 137.04,147.32 144.30,106.43 151.56,92.44 158.82,160.98 166.08,122.92 173.34,226.15 180.61,288.49 187.87,250.48 195.13,235.89 202.39,208.18 209.65,219.37 216.91,201.37 224.17,88.27 231.43,84.82 238.69,117.53 245.95,98.15 253.21,105.94 260.47,207.46 267.73,260.40 274.99,265.54 282.25,198.85 289.51,226.94 296.77,201.87 304.03,205.10 311.29,131.21 318.55,80.77 325.82,90.10 333.08,142.87 340.34,119.24 347.60,186.20 354.86,258.91 362.12,204.91 369.38,194.66 376.64,184.11 383.90,210.93 391.16,196.89 398.42,197.62 405.68,66.81 412.94,82.36 420.20,144.03 427.46,126.73 434.72,237.19 441.98,253.20 449.24,278.12 456.50,223.78 463.76,187.66 471.03,180.71 478.29,224.60 485.55,146.10 492.81,111.62 500.07,138.63 507.33,92.44 514.59,117.07 521.85,212.18 529.11,300.00 536.37,267.61 543.63,231.61 550.89,220.90 558.15,160.20 565.41,209.76 572.67,124.11 579.93,102.72 587.19,128.78 594.45,102.46 601.71,64.91 608.97,139.36 616.24,229.22 623.50,267.60 630.76,256.38 638.02,199.11 645.28,246.84 652.54,240.61 659.80,116.97 667.06,107.20 674.32,96.09 681.58,121.98 688.84,147.13 696.10,142.83 703.36,292.62 710.62,253.69 717.88,231.55 725.14,190.60 732.40,179.87 739.66,204.05 746.92,187.38 754.18,88.16 761.45,69.39 768.71,90.82 775.97,103.34 783.23,231.61 790.49,282.06 797.75,289.78 805.01,224.36 812.27,182.59 819.53,212.56 826.79,195.16 834.05,161.09 841.31,86.72 848.57,130.32 855.83,76.09 863.09,120.66 870.35,253.18 877.61,237.66 884.87,200.75 892.13,156.71 899.39,201.85 906.66,196.52 913.92,237.61 921.18,174.23 928.44,134.89 935.70,177.15 942.96,118.90 950.22,156.97 957.48,149.72 964.74,237.66 972.00,278.39" stroke-width="7" stroke="#aa0000" />
<g stroke="black">
<line x1="108.00" x2="78.00" y1="307.79" y2="307.79" />
<line x1="108.00" x2="78.00" y1="172.11" y2="172.11" />
<g fill="black" font-family="Arial, sans-serif" font-size="45.0" stroke="none" text-anchor="end">
<text x="85.50" y="285.29">-0.2</text>
<text x="85.50" y="149.61">0.0</text>
</g>
<line x1="108.00" x2="108.00" y1="324.00" y2="36.00" />
</g>
</g>
</svg>